<?xml version="1.0" encoding="UTF-8" standalone="no"?>
<!-- Created with Inkscape (http://www.inkscape.org/) -->

<svg
   width="105.4071mm"
   height="105.4071mm"
   viewBox="0 0 105.4071 105.4071"
   version="1.1"
   id="svg5"
   xml:space="preserve"
   inkscape:export-filename="icon.png"
   inkscape:export-xdpi="11.566584"
   inkscape:export-ydpi="11.566584"
   inkscape:version="1.2.2 (732a01da63, 2022-12-09)"
   sodipodi:docname="icon.svg"
   xmlns:inkscape="http://www.inkscape.org/namespaces/inkscape"
   xmlns:sodipodi="http://sodipodi.sourceforge.net/DTD/sodipodi-0.dtd"
   xmlns="http://www.w3.org/2000/svg"
   xmlns:svg="http://www.w3.org/2000/svg"><sodipodi:namedview
     id="namedview7"
     pagecolor="#505050"
     bordercolor="#eeeeee"
     borderopacity="1"
     inkscape:showpageshadow="0"
     inkscape:pageopacity="0"
     inkscape:pagecheckerboard="0"
     inkscape:deskcolor="#505050"
     inkscape:document-units="mm"
     showgrid="false"
     inkscape:zoom="0.74564394"
     inkscape:cx="415.07747"
     inkscape:cy="282.97689"
     inkscape:window-width="1920"
     inkscape:window-height="1017"
     inkscape:window-x="1912"
     inkscape:window-y="-8"
     inkscape:window-maximized="1"
     inkscape:current-layer="layer1" /><defs
     id="defs2"><defs
       id="defs1"><clipPath
         clipPathUnits="userSpaceOnUse"
         id="clipPath1"><path
           d="M 0,0 H 700 V 526 H 0 Z"
           id="path18420" /></clipPath></defs><clipPath
       clipPathUnits="userSpaceOnUse"
       id="clipPath342"><path
         d="M 0,0 H 700 V 526 H 0 Z"
         id="path340" /></clipPath></defs><g
     inkscape:label="Layer 1"
     inkscape:groupmode="layer"
     id="layer1"
     transform="translate(-31.88048,-76.57791)"><g
       id="g1483"><rect
         style="fill:none;fill-opacity:1;stroke:none;stroke-width:0.0296973;stroke-dasharray:none;stroke-opacity:1"
         id="rect1473"
         width="105.3774"
         height="105.3774"
         x="31.895329"
         y="76.592758" /><path
         d="m 34.382489,107.01536 0.01215,-0.006 0.12355,-0.0144 0.123581,-0.031 0.123572,-0.055 0.123579,-0.0498 0.123628,-0.0421 0.123572,-0.0488 0.12358,-0.059 0.12365,-0.0462 0.123628,-0.0125 0.12365,-0.0826 0.123629,-0.0371 0.123649,-0.032 0.123651,-0.0348 0.123706,-0.0929 0.123707,-0.0475 0.123649,-0.0345 0.123707,-0.0501 0.12372,-0.0824 0.123707,-0.0583 0.123707,-0.0263 0.123784,-0.0496 0.123721,-0.0708 0.123783,-0.0541 0.123778,-0.0166 0.123706,-0.0596 0.123777,-0.0669 0.123806,-0.0428 0.123833,-0.0682 0.123799,-0.0634 0.123855,-0.0447 0.123784,-0.0675 0.123855,-0.0773 0.123834,-0.0449 0.123854,-0.0254 0.123855,-0.0904 0.123856,-0.0733 0.123933,-0.0459 0.123854,-0.0723 0.123912,-0.10453 0.123932,-0.0542 0.123926,-0.0545 0.123911,-0.079 0.123933,-0.10081 0.123933,-0.0782 0.123912,-0.0568 0.124003,-0.0881 0.123982,-0.0692 0.123932,-0.0702 0.124061,-0.0731 0.12399,-0.0975 0.124003,-0.10841 0.123989,-0.0598 0.123981,-0.0907 0.124082,-0.12117 0.12406,-0.0572 0.123989,-0.0861 0.124081,-0.12511 0.124061,-0.11292 0.124131,-0.0388 0.124066,-0.1114 0.12406,-0.14248 0.124138,-0.10239 0.124131,-0.11629 0.124061,-0.17325 0.124137,-0.12671 0.124137,-0.0967 0.124209,-0.12725 0.124138,-0.17055 0.124138,-0.14426 0.124187,-0.13232 0.124137,-0.17083 0.124216,-0.18499 0.124208,-0.15524 0.124195,-0.18706 0.124278,-0.25012 0.124215,-0.23333 0.124195,-0.19467 0.124279,-0.30718 0.124216,-0.323442 0.124264,-0.29141 0.124288,-0.3803 0.124265,-0.50675 0.124264,-0.40498 0.124364,-0.32654 0.124265,-0.40011 0.124343,-0.3362 0.124285,-0.18846 0.124344,-0.13975 0.124342,-0.16866 0.124358,-0.10726 0.124419,-0.0526 0.124344,-0.0763 0.124336,-0.0904 0.12442,-0.0516 0.124343,-0.0595 0.124414,-0.0699 0.12442,-0.075 0.124414,-0.0346 0.124413,-0.0612 0.124421,-0.0393 0.124491,-0.0672 0.12449,-0.0389 0.124414,-0.0524 0.124492,-0.0482 0.124491,-0.0612 0.124478,-0.04 0.12449,-0.0684 0.124492,-0.0377 0.124548,-0.0464 0.12449,-0.0222 0.124563,-0.0639 0.124547,-0.056 0.124492,-0.0116 0.124647,-0.0687 0.12454,-0.0268 0.12457,-0.0164 0.124547,-0.0332 0.124626,-0.054 0.124561,-0.0299 0.124627,-0.028 0.124639,-0.064 0.124619,-0.0293 0.124625,-0.0086 0.12464,-0.03238 0.124696,-0.06748 0.124626,-0.003 0.124696,-0.0259 0.124697,-0.0658 0.124695,-0.02628 0.12464,-0.01003 0.124754,-0.05567 0.124702,-0.0521 0.124697,-0.01436 0.124767,-0.0379 0.124717,-0.04318 0.124753,-0.02345 0.124774,-0.01804 0.124774,-0.03095 0.124768,-0.04129 0.124773,-0.03567 0.124775,-0.02863 0.124823,-0.04814 0.124773,-0.01485 0.124845,-0.03874 0.124832,-0.0097 0.124844,-0.02853 0.124831,-0.08064 0.124845,0.03708 0.124852,-0.04683 0.124822,-0.06842 0.124923,-0.01812 0.124902,-0.02177 0.124852,-0.03802 0.124901,-0.01812 0.124901,-0.02908 0.124923,-0.03887 0.124979,-0.05913 0.124901,-0.02197 0.124922,-0.01209 0.124979,-0.05453 0.12498,-0.02488 0.124972,-0.02205 0.124979,-0.01858 0.124979,-0.04486 0.124993,-0.03548 0.124979,-0.01276 0.125057,-0.02151 0.124972,-0.06748 0.125057,-0.0011 0.125036,-0.03613 0.124993,-0.01784 0.12505,-0.05086 0.125114,-0.0068 0.125049,-0.0094 0.125057,-0.04729 0.125128,-0.01776 0.12505,-0.0068 0.125106,-0.0381 0.125127,-0.03144 0.125128,-0.0043 0.125114,-0.03284 0.125197,-0.03304 0.125128,-0.01202 0.125107,-0.0043 0.125205,-0.03284 0.125184,-0.04251 0.125127,-1.01e-4 0.125184,-0.01097 0.125198,-0.04816 0.125262,-0.01097 0.125186,0.005 0.125197,-0.04299 0.125262,-0.02881 0.125184,-0.0043 0.125276,-0.01436 0.125255,-0.0094 0.125262,-0.03621 0.125254,0.01332 0.125341,-0.0059 0.125254,-0.02618 0.125276,-0.0067 0.125333,-0.01615 0.125332,-0.01172 0.125263,-0.01286 0.125332,-0.0033 0.12541,-0.0068 0.125333,-0.0051 0.125312,-0.01615 0.125332,0.03725 0.12541,-0.0245 0.125332,-0.01521 0.125412,0.01342 0.125403,0.01447 0.125388,-0.03126 0.125412,0.01934 0.12548,0.0035 0.125389,0.0068 0.125411,-0.0051 h 0.125481 l 0.125467,0.0136 0.125403,0.04044 0.125467,-0.0042 0.12548,0.0084 0.125539,0.03221 0.125487,0.0084 0.12546,0.01521 0.125538,0.01718 0.125559,0.02845 0.125467,-0.0033 0.125537,0.01455 0.125559,0.04645 0.125538,0.02873 0.125538,0.0549 0.125615,0.02873 0.125559,0.02973 0.125615,0.03708 0.125539,0.04665 0.125614,0.03978 0.125609,0.05239 0.125615,0.04813 0.125616,0.04073 0.125685,0.06336 0.125616,0.05002 0.125615,0.06926 0.125686,0.0533 0.125694,0.07105 0.125664,0.03651 0.125616,0.0871 0.125763,0.08297 0.125687,0.07283 0.125694,0.07875 0.125742,0.102027 0.125686,0.0871 0.12575,0.113646 0.125686,0.09856 0.125764,0.07931 0.125764,0.141253 0.125742,0.109331 0.125821,0.09687 0.125764,0.110274 0.125742,0.15384 0.125842,0.13525 0.12582,0.14276 0.125764,0.14603 0.125814,0.16218 0.12582,0.14887 0.125842,0.14922 0.12589,0.19533 0.125821,0.16152 0.125842,0.15232 0.125891,0.23239 0.125899,0.20668 0.12582,0.20554 0.125891,0.22187 0.125969,0.24742 0.125891,0.20929 0.125898,0.22508 0.125912,0.24749 0.125948,0.29021 0.125969,0.21034 0.125898,0.31188 0.125969,0.29743 0.125969,0.28203 0.125969,0.276222 0.12597,0.3407 0.126025,0.34661 0.125967,0.32616 0.12597,0.31724 0.126047,0.41493 0.126025,0.38106 0.12604,0.29902 0.125968,0.45671 0.126104,0.44657 0.126047,0.39617 0.126025,0.42225 0.12604,0.51688 0.126117,0.49764 0.126104,0.39747 0.126046,0.47669 0.126096,0.56953 0.126103,0.44234 0.126117,0.51256 0.126175,0.60875 0.126103,0.60312 0.126118,0.55 0.126174,0.64545 0.126103,0.68965 0.126174,0.64443 0.126188,0.58182 0.126181,0.70234 0.126173,0.75197 0.126252,0.55412 0.126174,0.71239 0.126174,0.80593 0.126253,0.73329 0.126188,0.72834 0.12623,0.89013 0.126251,0.9151 0.126252,0.76147 0.126251,0.75864 0.126246,0.98285 0.126329,0.87118 0.126244,0.63615 0.12633,0.97152 0.126245,1.03965 0.126308,0.81243 0.126322,0.90486 0.126309,1.13361 0.126323,1.04809 0.126329,0.84359 0.126378,1.03664 0.126322,1.17509 0.12638,0.85737 0.12633,0.85373 0.1264,1.1319 0.126379,1.03513 0.1264,0.89916 0.126379,1.06302 0.12638,1.15294 0.126399,1.09052 0.126456,0.9808 0.126402,1.12834 0.126456,1.1367 0.126456,0.86835 0.126401,0.94056 0.126527,1.0984 0.126457,0.98453 0.126457,0.84256 0.12645,1.03883 0.126534,1.12973 0.126457,0.93059 0.126548,0.89398 0.126457,1.11071 0.126528,0.95038 0.126527,0.66441 0.126534,0.93594 0.126528,0.94908 0.126605,0.68347 0.126513,0.66638 0.126606,0.91011 0.126527,0.81459 0.126605,0.63259 0.126605,0.77394 0.126607,0.8236 0.12659,0.61973 0.126605,0.53799 0.126606,0.68533 0.126661,0.56361 0.126606,0.43493 0.126675,0.50308 0.126591,0.52512 0.126676,0.48225 0.126683,0.3941 0.126662,0.43221 0.126676,0.44394 0.126662,0.31263 0.12674,0.27716 0.126675,0.30568 0.126737,0.25051 0.126684,0.17139 0.126731,0.20714 0.12674,0.20657 0.126754,0.13244 0.126732,0.10886 0.126811,0.13386 0.126761,0.0814 0.126732,0.0225 0.12681,0.0431 0.12674,0.0101 0.12681,-0.0242 0.126811,-0.0288 0.12681,-0.0415 0.126809,-0.0818 0.126811,-0.0985 0.126888,-0.10297 0.12681,-0.14855 0.12681,-0.15572 0.126888,-0.14294 0.126882,-0.18489 0.126817,-0.20171 0.126882,-0.19211 0.126943,-0.20013 0.126888,-0.2244 0.126881,-0.26045 0.126888,-0.2291 0.126945,-0.26908 0.126882,-0.31685 0.126958,-0.2798 0.126966,-0.25849 0.126937,-0.32745 0.126966,-0.31856 0.126937,-0.28364 0.126966,-0.29546 0.126959,-0.37326 0.127016,-0.34493 0.126958,-0.28664 0.127023,-0.37552 0.126958,-0.37336 0.127016,-0.29077 0.127015,-0.33421 0.127037,-0.39505 0.127015,-0.35431 0.127093,-0.30869 0.127015,-0.39541 0.127114,-0.41889 0.127016,-0.33329 0.127092,-0.34566 0.127087,-0.42039 0.127092,-0.35544 0.127037,-0.31609 0.127093,-0.40051 0.127164,-0.37981 0.127093,-0.34184 0.127094,-0.35958 0.127163,-0.41173 0.127171,-0.40886 0.127164,-0.33393 0.127093,-0.35966 0.127163,-0.38452 0.12715,-0.3164 0.127241,-0.28843 0.127165,-0.38997 0.12717,-0.37759 0.127164,-0.33197 0.127241,-0.3696 0.127221,-0.4246 0.127241,-0.38474 0.127242,-0.27451 0.12715,-0.34784 0.127311,-0.36894 0.127242,-0.26055 0.127228,-0.32483 0.127241,-0.35789 0.127299,-0.36096 0.127311,-0.30457 0.127221,-0.3347 0.127319,-0.377 0.127298,-0.30467 0.127312,-0.28382 0.127299,-0.34013 0.127376,-0.30609 0.127311,-0.24618 0.1273,-0.33084 0.127375,-0.31752 0.127312,-0.29499 0.127376,-0.31836 0.127369,-0.3375 0.127375,-0.33347 0.127369,-0.25023 0.12739,-0.27433 0.127446,-0.30017 0.127377,-0.23764 0.127369,-0.24647 0.127447,-0.30099 0.127446,-0.30608 0.127376,-0.26596 0.127446,-0.2829 0.127447,-0.29049 0.127447,-0.29218 0.127524,-0.22459 0.127446,-0.24788 0.127447,-0.28401 0.127502,-0.20058 0.127448,-0.23201 0.127524,-0.27977 0.127518,-0.26909 0.127502,-0.22161 0.127525,-0.26926 0.127517,-0.2905 0.127525,-0.2335 0.127502,-0.19429 0.127595,-0.27152 0.127524,-0.20256 0.127582,-0.18706 0.127595,-0.2244 0.127573,-0.22845 0.127525,-0.22572 0.127651,-0.21934 0.127596,-0.23362 0.12758,-0.25612 0.127596,-0.17665 0.127652,-0.21257 0.12758,-0.22067 0.127673,-0.20292 0.127652,-0.17549 0.12758,-0.19515 0.127666,-0.21238 0.12773,-0.16634 0.127651,-0.2014 0.127652,-0.20666 0.127658,-0.22311 0.127723,-0.16837 0.127673,-0.19344 0.127729,-0.21727 0.127729,-0.15854 0.127723,-0.15383 0.127729,-0.16884 0.127729,-0.1928 0.127729,-0.14003 0.127727,-0.15805 0.127729,-0.22035 0.127807,-0.18587 0.12772,-0.15128 0.12779,-0.20694 0.1278,-0.16407 0.12781,-0.13789 0.1278,-0.15176 0.1278,-0.16218 0.12778,-0.14528 0.12781,-0.14784 0.12781,-0.14154 0.12788,-0.19343 0.12778,-0.15384 0.12787,-0.13421 0.12788,-0.18011 0.12787,-0.13423 0.12787,-0.12876 0.12786,-0.1405 0.12788,-0.13195 0.12786,-0.13779 0.12787,-0.13732 0.12793,-0.13712 0.12794,-0.16444 0.12788,-0.12154 0.12793,-0.16951 0.12796,-0.1391 0.12792,-0.12004 0.12794,-0.11451 0.12793,-0.14528 0.12796,-0.12248 0.12793,-0.10963 0.128,-0.11657 0.12795,-0.14399 0.12801,-0.13627 0.12801,-0.0974 0.12802,-0.1606 0.128,-0.11525 0.12801,-0.10672 0.128,-0.11403 0.12802,-0.13881 0.128,-0.0989 0.12808,-0.1039 0.12802,-0.11742 0.12808,-0.11583 0.12808,-0.11731 0.12809,-0.11536 0.128,-0.13298 0.12808,-0.0948 0.12809,-0.0976 0.12814,-0.1053 0.12808,-0.11489 0.12808,-0.10202 0.12817,-0.0951 0.12814,-0.0977 0.12808,-0.11308 0.12815,-0.086 0.12814,-0.11554 0.12816,-0.10738 0.12816,-0.10992 0.12813,-0.0831 0.12817,-0.0968 0.12821,-0.0942 0.12816,-0.0923 0.12821,-0.081 0.12824,-0.10588 0.12814,-0.10793 0.1282,-0.0719 0.12824,-0.11198 0.12821,-0.0921 0.12823,-0.078 0.12829,-0.0916 0.12822,-0.0933 0.12823,-0.084 0.12828,-0.0862 0.1283,-0.0922 0.12822,-0.0913 0.12828,-0.0957 0.12831,-0.0561 0.12829,-0.10128 0.12828,-0.0969 0.12837,-0.0655 0.12829,-0.0627 0.12828,-0.11169 0.12837,-0.0853 0.12836,-0.0627 0.12829,-0.083 0.12837,-0.0711 0.12836,-0.08 0.12836,-0.0751 0.12837,-0.0958 0.12836,-0.0692 0.12836,-0.0545 0.12842,-0.10353 0.12837,-0.0597 0.12844,-0.0889 0.12844,-0.062 0.12836,-0.0761 0.12842,-0.0755 0.12844,-0.0556 0.12843,-0.0814 0.12843,-0.0635 0.12851,-0.0839 0.12841,-0.0446 0.12845,-0.0839 0.12851,-0.0735 0.12843,-0.0737 0.1285,-0.0707 0.1285,-0.0712 0.12851,-0.0577 0.1285,-0.0695 0.12851,-0.0612 0.12849,-0.0724 0.12852,-0.0504 0.12857,-0.0639 0.1285,-0.0507 0.12856,-0.0794 0.1285,-0.0745 0.12858,-0.0619 0.12857,-0.0803 0.12857,-0.035 0.12859,-0.0668 0.12856,-0.0664 0.12857,-0.0572 0.12865,-0.0465 0.1286,-0.0546 0.12855,-0.0581 0.12866,-0.0589 0.12862,-0.0692 0.12859,-0.0636 0.12864,-0.0375 0.12865,-0.0619 0.12864,-0.0622 0.1287,-0.0559 0.12866,-0.0482 0.12863,-0.0663 0.12872,-0.0534 0.12865,-0.0484 0.12872,-0.0632 0.12863,-0.0506 0.12873,-0.0522 0.12869,-0.0679 0.12872,-0.0395 0.12872,-0.0542 0.1287,-0.0611 0.1288,-0.0537 0.12872,-0.0299 0.12877,-0.0501 0.12873,-0.0653 0.12879,-0.0628 0.12869,-0.0385 0.1288,-0.0679 0.12879,-0.041 0.12878,-0.0335 0.1288,-0.0545 0.12884,-0.0673 0.12877,-0.033 0.1288,-0.0584 0.12884,-0.0415 0.12878,-0.022 0.12887,-0.0543 0.12886,-0.0635 0.12884,-0.0401 0.12887,-0.0473 0.12877,-0.0483 0.12893,-0.0625 0.12886,-0.0406 0.12886,-0.0387 0.12892,-0.0394 0.12886,-0.0486 0.12892,-0.0564 0.12887,-0.0413 0.12892,-0.0201 0.12891,-0.0614 0.12894,-0.0423 0.12892,-0.0351 0.12894,-0.0533 0.12893,-0.0375 0.12897,-0.03 0.12895,-0.056 0.12898,-0.0526 0.12893,-0.0407 0.129,-0.0184 0.12898,-0.0411 0.12901,-0.0572 0.12892,-0.04 0.129,-0.0381 0.12906,-0.0259 0.12899,-0.0523 0.12901,-0.046 0.129,-0.0256 0.12906,-0.0601 0.12907,-0.0202 0.12899,-0.0291 0.12907,-0.0471 0.12907,-0.0418 0.12907,-0.0307 0.12906,-0.0342 0.12907,-0.0287 0.12906,-0.0576 0.12915,-0.0372 0.12905,-0.0382 0.12908,-0.0484 0.12912,-0.0241 0.12914,-0.0256 0.12915,-0.0375 0.12905,-0.045 0.12915,-0.0329 0.12914,-0.0299 0.1292,-0.0509 0.12915,-0.0184 0.12913,-0.0408 0.12913,-0.0383 0.12923,-0.0318 0.12912,-0.0248 0.12921,-0.0375 0.1292,-0.0571 0.1292,-0.0157 0.12914,-0.0481 0.12928,-0.0309 0.12923,-0.0271 0.12918,-0.0271 0.12924,-0.0207 0.12927,-0.0226 0.12918,-0.0446 0.12929,-0.0374 0.12921,-0.0207 0.12928,-0.0439 0.12927,-0.0381 0.12928,-0.0289 0.12929,-0.0463 0.12927,-0.0159 0.12929,-0.0317 0.12927,-0.0258 0.12929,-0.0398 0.12933,-0.0377 0.12928,-0.0185 0.12935,-0.037 0.12936,-0.0217 0.12934,-0.0344 0.12927,-0.0251 0.12934,-0.0312 0.12935,-0.0248 0.12942,-0.0439 0.12936,-0.01 0.12935,-0.034 0.12934,-0.0342 0.12942,-0.038 0.12942,-0.0323 0.12935,-0.013 0.12944,-0.0369 0.1294,-0.0151 0.12941,-0.0342 0.12943,-0.0273 0.12942,-0.0234 0.12941,-0.0271 0.12942,-0.0221 0.12949,-0.0322 0.12943,-0.0168 0.12949,-0.0382 0.1294,-0.006 0.1295,-0.049 0.1295,-0.0205 0.12949,-0.0242 0.12949,-0.0485 0.12948,-0.003 0.12948,-0.0492 0.12948,-0.005 0.12959,-0.0253 0.12948,-0.0406 0.1295,-0.0161 0.12955,-0.0155 0.12954,-0.0265 0.12949,-0.0283 0.12957,-0.0289 0.12955,-0.0225 0.12958,-0.0306 0.12953,-0.0273 0.12959,-0.005 0.12961,-0.0394 0.12957,-0.0357 0.12964,-0.005 0.0403,-0.007"
         style="font-style:normal;font-weight:normal;font-size:12px;font-family:Dialog;color-interpolation:linearRGB;fill:none;fill-opacity:1;fill-rule:evenodd;stroke:#1e54af;stroke-width:5.386;stroke-linecap:butt;stroke-linejoin:round;stroke-miterlimit:10;stroke-dasharray:none;stroke-dashoffset:0;stroke-opacity:1;color-rendering:optimizeQuality;image-rendering:optimizeQuality;shape-rendering:auto;text-rendering:geometricPrecision"
         id="path18582" /></g></g></svg>
