<?xml version="1.0" encoding="UTF-8" standalone="no"?>
<svg
   style="font-style:normal;font-weight:normal;font-size:12px;font-family:Dialog;color-interpolation:auto;fill:#000000;fill-opacity:1;stroke:#000000;stroke-width:1;stroke-linecap:square;stroke-linejoin:miter;stroke-miterlimit:10;stroke-dasharray:none;stroke-dashoffset:0;stroke-opacity:1;color-rendering:auto;image-rendering:auto;shape-rendering:auto;text-rendering:auto"
   width="636.13062"
   height="507.69775"
   version="1.1"
   id="svg18610"
   sodipodi:docname="SPR_angular_spectrum.svg"
   inkscape:version="1.2 (dc2aedaf03, 2022-05-15)"
   xmlns:inkscape="http://www.inkscape.org/namespaces/inkscape"
   xmlns:sodipodi="http://sodipodi.sourceforge.net/DTD/sodipodi-0.dtd"
   xmlns="http://www.w3.org/2000/svg"
   xmlns:svg="http://www.w3.org/2000/svg">
  <sodipodi:namedview
     id="namedview18612"
     pagecolor="#ffffff"
     bordercolor="#000000"
     borderopacity="0.25"
     inkscape:showpageshadow="2"
     inkscape:pageopacity="0.0"
     inkscape:pagecheckerboard="0"
     inkscape:deskcolor="#d1d1d1"
     showgrid="false"
     inkscape:zoom="1.1601391"
     inkscape:cx="413.31252"
     inkscape:cy="263.76148"
     inkscape:window-width="1920"
     inkscape:window-height="1017"
     inkscape:window-x="1912"
     inkscape:window-y="0"
     inkscape:window-maximized="1"
     inkscape:current-layer="svg18610" />
  <!--Generated by the Batik Graphics2D SVG Generator-->
  <defs
     id="genericDefs">
    <defs
       id="defs1">
      <clipPath
         clipPathUnits="userSpaceOnUse"
         id="clipPath1">
        <path
           d="M 0,0 H 700 V 526 H 0 Z"
           id="path18420" />
      </clipPath>
    </defs>
  </defs>
  <g
     style="color-interpolation:linearRGB;fill:#262626;stroke:#262626;stroke-width:0.8333;stroke-linejoin:round;color-rendering:optimizeQuality;image-rendering:optimizeQuality;text-rendering:geometricPrecision"
     id="g18462"
     transform="translate(-21.549141,-29.306831)">
    <line
       y2="460"
       style="fill:none"
       x1="90.999901"
       x2="633.99988"
       y1="460"
       id="line18434" />
    <line
       y2="39"
       style="fill:none"
       x1="90.999901"
       x2="633.99988"
       y1="39"
       id="line18436" />
    <line
       y2="454.57001"
       style="fill:none"
       x1="130.8521"
       x2="130.8521"
       y1="460"
       id="line18438" />
    <line
       y2="454.57001"
       style="fill:none"
       x1="229.57941"
       x2="229.57941"
       y1="460"
       id="line18440" />
    <line
       y2="454.57001"
       style="fill:none"
       x1="328.3067"
       x2="328.3067"
       y1="460"
       id="line18442" />
    <line
       y2="454.57001"
       style="fill:none"
       x1="427.03391"
       x2="427.03391"
       y1="460"
       id="line18444" />
    <line
       y2="454.57001"
       style="fill:none"
       x1="525.76123"
       x2="525.76123"
       y1="460"
       id="line18446" />
    <line
       y2="454.57001"
       style="fill:none"
       x1="624.48853"
       x2="624.48853"
       y1="460"
       id="line18448" />
    <line
       y2="44.43"
       style="fill:none"
       x1="130.8521"
       x2="130.8521"
       y1="39"
       id="line18450" />
    <line
       y2="44.43"
       style="fill:none"
       x1="229.57941"
       x2="229.57941"
       y1="39"
       id="line18452" />
    <line
       y2="44.43"
       style="fill:none"
       x1="328.3067"
       x2="328.3067"
       y1="39"
       id="line18454" />
    <line
       y2="44.43"
       style="fill:none"
       x1="427.03391"
       x2="427.03391"
       y1="39"
       id="line18456" />
    <line
       y2="44.43"
       style="fill:none"
       x1="525.76123"
       x2="525.76123"
       y1="39"
       id="line18458" />
    <line
       y2="44.43"
       style="fill:none"
       x1="624.48853"
       x2="624.48853"
       y1="39"
       id="line18460" />
  </g>
  <g
     transform="translate(109.30296,438.35987)"
     style="font-size:21.6667px;font-family:SansSerif;color-interpolation:linearRGB;fill:#262626;stroke:#262626;color-rendering:optimizeQuality;image-rendering:optimizeQuality;text-rendering:geometricPrecision"
     id="g18466">
    <path
       style="stroke:none"
       d="m -5.3906,22 v -3.7656 h -6.8282 V 16.4531 L -5.0312,6.25 h 1.5781 v 10.2031 h 2.125 v 1.7813 h -2.125 V 22 Z m 0,-5.5469 V 9.3594 l -4.9219,7.0937 z M 7.7473,22 H 5.8098 V 9.6719 Q 5.1067,10.3438 3.9739,11.0078 2.841,11.6719 1.9348,12.0156 v -1.875 Q 3.5598,9.375 4.7785,8.2891 5.9973,7.2031 6.4973,6.1875 h 1.25 z"
       id="path18464" />
  </g>
  <g
     transform="translate(208.03026,438.35987)"
     style="font-size:21.6667px;font-family:SansSerif;color-interpolation:linearRGB;fill:#262626;stroke:#262626;color-rendering:optimizeQuality;image-rendering:optimizeQuality;text-rendering:geometricPrecision"
     id="g18470">
    <path
       style="stroke:none"
       d="m -5.3906,22 v -3.7656 h -6.8282 V 16.4531 L -5.0312,6.25 h 1.5781 v 10.2031 h 2.125 v 1.7813 h -2.125 V 22 Z m 0,-5.5469 V 9.3594 l -4.9219,7.0937 z m 16.0129,3.6875 V 22 H 0.216 Q 0.1848,21.2969 0.4348,20.6562 0.841,19.5938 1.716,18.5625 2.591,17.5312 4.2317,16.1719 6.8098,14.0781 7.7082,12.8438 8.6067,11.6094 8.6067,10.5156 8.6067,9.3594 7.7864,8.5703 6.966,7.7812 5.6535,7.7812 4.2473,7.7812 3.4114,8.625 2.5754,9.4688 2.5598,10.9531 L 0.5754,10.7344 Q 0.7785,8.5156 2.1145,7.3516 3.4504,6.1875 5.6848,6.1875 q 2.2656,0 3.5859,1.2578 1.3203,1.2578 1.3203,3.1172 0,0.9375 -0.3828,1.8516 -0.3828,0.914 -1.2812,1.9218 -0.8985,1.0079 -2.9766,2.7735 -1.75,1.4687 -2.2422,1.9844 -0.4922,0.5156 -0.8047,1.0468 z"
       id="path18468" />
  </g>
  <g
     transform="translate(306.75756,438.35987)"
     style="font-size:21.6667px;font-family:SansSerif;color-interpolation:linearRGB;fill:#262626;stroke:#262626;color-rendering:optimizeQuality;image-rendering:optimizeQuality;text-rendering:geometricPrecision"
     id="g18474">
    <path
       style="stroke:none"
       d="m -5.3906,22 v -3.7656 h -6.8282 V 16.4531 L -5.0312,6.25 h 1.5781 v 10.2031 h 2.125 v 1.7813 h -2.125 V 22 Z m 0,-5.5469 V 9.3594 l -4.9219,7.0937 z m 5.8566,1.3907 1.9375,-0.2657 q 0.3282,1.6563 1.1329,2.375 0.8046,0.7188 1.9453,0.7188 1.375,0 2.3125,-0.9453 0.9375,-0.9454 0.9375,-2.336 0,-1.3281 -0.875,-2.1953 -0.875,-0.8672 -2.2032,-0.8672 -0.5625,0 -1.375,0.2188 l 0.2188,-1.7031 q 0.1875,0.0312 0.3125,0.0312 1.2344,0 2.2187,-0.6484 0.9844,-0.6485 0.9844,-1.9922 0,-1.0625 -0.7187,-1.7578 -0.7188,-0.6954 -1.8594,-0.6954 -1.125,0 -1.875,0.7032 -0.75,0.7031 -0.9688,2.125 L 0.6692,10.2656 Q 1.0129,8.3281 2.2707,7.2578 3.5285,6.1875 5.4035,6.1875 q 1.2813,0 2.3672,0.5547 1.086,0.5547 1.6641,1.5078 0.5781,0.9531 0.5781,2.0312 0,1.0157 -0.5469,1.8516 -0.5468,0.836 -1.625,1.336 1.3907,0.3281 2.1641,1.3437 0.7734,1.0156 0.7734,2.5313 0,2.0624 -1.5,3.5 -1.5,1.4374 -3.7968,1.4374 -2.0782,0 -3.4453,-1.2343 Q 0.6692,19.8125 0.466,17.8438 Z"
       id="path18472" />
  </g>
  <g
     transform="translate(405.48476,438.35987)"
     style="font-size:21.6667px;font-family:SansSerif;color-interpolation:linearRGB;fill:#262626;stroke:#262626;color-rendering:optimizeQuality;image-rendering:optimizeQuality;text-rendering:geometricPrecision"
     id="g18478">
    <path
       style="stroke:none"
       d="m -5.3906,22 v -3.7656 h -6.8282 V 16.4531 L -5.0312,6.25 h 1.5781 v 10.2031 h 2.125 v 1.7813 h -2.125 V 22 Z m 0,-5.5469 V 9.3594 l -4.9219,7.0937 z M 6.6535,22 V 18.2344 H -0.1746 V 16.4531 L 7.0129,6.25 H 8.591 v 10.2031 h 2.125 v 1.7813 H 8.591 V 22 Z m 0,-5.5469 V 9.3594 l -4.9218,7.0937 z"
       id="path18476" />
  </g>
  <g
     transform="translate(504.21206,438.35987)"
     style="font-size:21.6667px;font-family:SansSerif;color-interpolation:linearRGB;fill:#262626;stroke:#262626;color-rendering:optimizeQuality;image-rendering:optimizeQuality;text-rendering:geometricPrecision"
     id="g18482">
    <path
       style="stroke:none"
       d="m -5.3906,22 v -3.7656 h -6.8282 V 16.4531 L -5.0312,6.25 h 1.5781 v 10.2031 h 2.125 v 1.7813 h -2.125 V 22 Z m 0,-5.5469 V 9.3594 l -4.9219,7.0937 z m 5.841,1.4219 2.0313,-0.1719 q 0.2343,1.4844 1.0547,2.2266 0.8203,0.7422 1.9765,0.7422 1.4063,0 2.3672,-1.0469 0.9609,-1.0469 0.9609,-2.7969 0,-1.6562 -0.9296,-2.6093 -0.9297,-0.9532 -2.4297,-0.9532 -0.9375,0 -1.6875,0.4219 -0.75,0.4219 -1.1719,1.1094 L 0.7942,14.5625 2.3254,6.4688 h 7.8281 V 8.3125 H 3.8723 l -0.8438,4.2344 q 1.4219,-0.9844 2.9688,-0.9844 2.0625,0 3.4844,1.4297 1.4218,1.4297 1.4218,3.664 0,2.1407 -1.25,3.7032 -1.5156,1.9062 -4.1406,1.9062 -2.1406,0 -3.5,-1.2031 Q 0.6535,19.8594 0.4504,17.875 Z"
       id="path18480" />
  </g>
  <g
     transform="translate(602.93936,438.35987)"
     style="font-size:21.6667px;font-family:SansSerif;color-interpolation:linearRGB;fill:#262626;stroke:#262626;color-rendering:optimizeQuality;image-rendering:optimizeQuality;text-rendering:geometricPrecision"
     id="g18486">
    <path
       style="stroke:none"
       d="m -5.3906,22 v -3.7656 h -6.8282 V 16.4531 L -5.0312,6.25 h 1.5781 v 10.2031 h 2.125 v 1.7813 h -2.125 V 22 Z m 0,-5.5469 V 9.3594 l -4.9219,7.0937 z M 10.4973,10.1094 8.5754,10.2656 Q 8.3098,9.125 7.841,8.6094 7.0598,7.7812 5.9035,7.7812 q -0.9218,0 -1.625,0.5157 -0.9062,0.6562 -1.4375,1.9375 -0.5312,1.2812 -0.5468,3.6406 0.7031,-1.0625 1.7109,-1.5781 1.0078,-0.5157 2.1172,-0.5157 1.9375,0 3.2891,1.4219 1.3515,1.4219 1.3515,3.6875 0,1.4844 -0.6328,2.7578 -0.6328,1.2735 -1.75,1.9454 -1.1172,0.6718 -2.5391,0.6718 -2.4218,0 -3.9453,-1.7734 -1.5234,-1.7734 -1.5234,-5.8672 0,-4.5625 1.6875,-6.6406 1.4687,-1.7969 3.9687,-1.7969 1.8594,0 3.0391,1.0391 1.1797,1.039 1.4297,2.8828 z M 2.591,16.8906 q 0,1 0.4297,1.9141 0.4297,0.9141 1.1875,1.3906 0.7578,0.4766 1.6016,0.4766 1.2187,0 2.1016,-0.9844 Q 8.7942,18.7031 8.7942,17 q 0,-1.625 -0.8672,-2.5703 -0.8672,-0.9453 -2.1953,-0.9453 -1.3125,0 -2.2266,0.9453 Q 2.591,15.375 2.591,16.8906 Z"
       id="path18484" />
  </g>
  <g
     style="color-interpolation:linearRGB;fill:#262626;stroke:#262626;stroke-width:0.8333;stroke-linejoin:round;color-rendering:optimizeQuality;image-rendering:optimizeQuality;text-rendering:geometricPrecision"
     id="g18540"
     transform="translate(-21.549141,-29.306831)">
    <line
       y2="39"
       style="fill:none"
       x1="90.999901"
       x2="90.999901"
       y1="460"
       id="line18500" />
    <line
       y2="39"
       style="fill:none"
       x1="633.99988"
       x2="633.99988"
       y1="460"
       id="line18502" />
    <line
       y2="422.2222"
       style="fill:none"
       x1="90.999901"
       x2="96.429901"
       y1="422.2222"
       id="line18504" />
    <line
       y2="375.44449"
       style="fill:none"
       x1="90.999901"
       x2="96.429901"
       y1="375.44449"
       id="line18506" />
    <line
       y2="328.66669"
       style="fill:none"
       x1="90.999901"
       x2="96.429901"
       y1="328.66669"
       id="line18508" />
    <line
       y2="281.88889"
       style="fill:none"
       x1="90.999901"
       x2="96.429901"
       y1="281.88889"
       id="line18510" />
    <line
       y2="235.1111"
       style="fill:none"
       x1="90.999901"
       x2="96.429901"
       y1="235.1111"
       id="line18512" />
    <line
       y2="188.3333"
       style="fill:none"
       x1="90.999901"
       x2="96.429901"
       y1="188.3333"
       id="line18514" />
    <line
       y2="141.5556"
       style="fill:none"
       x1="90.999901"
       x2="96.429901"
       y1="141.5556"
       id="line18516" />
    <line
       y2="94.777802"
       style="fill:none"
       x1="90.999901"
       x2="96.429901"
       y1="94.777802"
       id="line18518" />
    <line
       y2="48"
       style="fill:none"
       x1="90.999901"
       x2="96.429901"
       y1="48"
       id="line18520" />
    <line
       y2="422.2222"
       style="fill:none"
       x1="633.99988"
       x2="628.56982"
       y1="422.2222"
       id="line18522" />
    <line
       y2="375.44449"
       style="fill:none"
       x1="633.99988"
       x2="628.56982"
       y1="375.44449"
       id="line18524" />
    <line
       y2="328.66669"
       style="fill:none"
       x1="633.99988"
       x2="628.56982"
       y1="328.66669"
       id="line18526" />
    <line
       y2="281.88889"
       style="fill:none"
       x1="633.99988"
       x2="628.56982"
       y1="281.88889"
       id="line18528" />
    <line
       y2="235.1111"
       style="fill:none"
       x1="633.99988"
       x2="628.56982"
       y1="235.1111"
       id="line18530" />
    <line
       y2="188.3333"
       style="fill:none"
       x1="633.99988"
       x2="628.56982"
       y1="188.3333"
       id="line18532" />
    <line
       y2="141.5556"
       style="fill:none"
       x1="633.99988"
       x2="628.56982"
       y1="141.5556"
       id="line18534" />
    <line
       y2="94.777802"
       style="fill:none"
       x1="633.99988"
       x2="628.56982"
       y1="94.777802"
       id="line18536" />
    <line
       y2="48"
       style="fill:none"
       x1="633.99988"
       x2="628.56982"
       y1="48"
       id="line18538" />
  </g>
  <g
     transform="translate(61.783959,392.91537)"
     style="font-size:21.6667px;font-family:SansSerif;color-interpolation:linearRGB;fill:#262626;stroke:#262626;color-rendering:optimizeQuality;image-rendering:optimizeQuality;text-rendering:geometricPrecision"
     id="g18544">
    <path
       style="stroke:none"
       d="m -30.0938,0.7344 q 0,-2.7969 0.5782,-4.5 0.5781,-1.7032 1.7109,-2.625 1.1328,-0.9219 2.8516,-0.9219 1.2656,0 2.2265,0.5078 0.961,0.5078 1.5782,1.4688 0.6172,0.9609 0.9765,2.3437 0.3594,1.3828 0.3594,3.7266 0,2.7656 -0.5703,4.4687 -0.5703,1.7031 -1.7031,2.6328 -1.1329,0.9297 -2.8672,0.9297 -2.2813,0 -3.5781,-1.625 -1.5626,-1.9687 -1.5626,-6.4062 z m 2,0 q 0,3.875 0.9063,5.1562 0.9063,1.2813 2.2344,1.2813 1.3281,0 2.2422,-1.2891 0.914,-1.289 0.914,-5.1484 0,-3.8906 -0.914,-5.1719 -0.9141,-1.2813 -2.2579,-1.2813 -1.3437,0 -2.125,1.1407 -1,1.4375 -1,5.3125 z M -16.9558,8.5 V 6.2969 h 2.2031 V 8.5 Z m 12.2199,0 H -6.6734 V -3.8281 q -0.7031,0.6719 -1.8359,1.3359 -1.1329,0.6641 -2.0391,1.0078 v -1.875 q 1.625,-0.7656 2.8437,-1.8515 1.2188,-1.086 1.7188,-2.1016 h 1.25 z"
       id="path18542" />
  </g>
  <g
     transform="translate(61.783959,346.13767)"
     style="font-size:21.6667px;font-family:SansSerif;color-interpolation:linearRGB;fill:#262626;stroke:#262626;color-rendering:optimizeQuality;image-rendering:optimizeQuality;text-rendering:geometricPrecision"
     id="g18548">
    <path
       style="stroke:none"
       d="m -30.0938,0.7344 q 0,-2.7969 0.5782,-4.5 0.5781,-1.7032 1.7109,-2.625 1.1328,-0.9219 2.8516,-0.9219 1.2656,0 2.2265,0.5078 0.961,0.5078 1.5782,1.4688 0.6172,0.9609 0.9765,2.3437 0.3594,1.3828 0.3594,3.7266 0,2.7656 -0.5703,4.4687 -0.5703,1.7031 -1.7031,2.6328 -1.1329,0.9297 -2.8672,0.9297 -2.2813,0 -3.5781,-1.625 -1.5626,-1.9687 -1.5626,-6.4062 z m 2,0 q 0,3.875 0.9063,5.1562 0.9063,1.2813 2.2344,1.2813 1.3281,0 2.2422,-1.2891 0.914,-1.289 0.914,-5.1484 0,-3.8906 -0.914,-5.1719 -0.9141,-1.2813 -2.2579,-1.2813 -1.3437,0 -2.125,1.1407 -1,1.4375 -1,5.3125 z M -16.9558,8.5 V 6.2969 h 2.2031 V 8.5 Z M -1.8609,6.6406 V 8.5 h -10.4063 q -0.0312,-0.7031 0.2188,-1.3438 0.4062,-1.0624 1.2812,-2.0937 0.875,-1.0313 2.5157,-2.3906 2.5781,-2.0938 3.4765,-3.3281 0.8985,-1.2344 0.8985,-2.3282 0,-1.1562 -0.8203,-1.9453 -0.8204,-0.7891 -2.1329,-0.7891 -1.4062,0 -2.2421,0.8438 -0.836,0.8438 -0.8516,2.3281 l -1.9844,-0.2187 q 0.2031,-2.2188 1.5391,-3.3828 1.3359,-1.1641 3.5703,-1.1641 2.2656,0 3.5859,1.2578 1.3203,1.2578 1.3203,3.1172 0,0.9375 -0.3828,1.8516 -0.3828,0.914 -1.2812,1.9218 -0.8985,1.0079 -2.9766,2.7735 -1.75,1.4687 -2.2422,1.9844 -0.4922,0.5156 -0.8047,1.0468 z"
       id="path18546" />
  </g>
  <g
     transform="translate(61.783959,299.35987)"
     style="font-size:21.6667px;font-family:SansSerif;color-interpolation:linearRGB;fill:#262626;stroke:#262626;color-rendering:optimizeQuality;image-rendering:optimizeQuality;text-rendering:geometricPrecision"
     id="g18552">
    <path
       style="stroke:none"
       d="m -30.0938,0.7344 q 0,-2.7969 0.5782,-4.5 0.5781,-1.7032 1.7109,-2.625 1.1328,-0.9219 2.8516,-0.9219 1.2656,0 2.2265,0.5078 0.961,0.5078 1.5782,1.4688 0.6172,0.9609 0.9765,2.3437 0.3594,1.3828 0.3594,3.7266 0,2.7656 -0.5703,4.4687 -0.5703,1.7031 -1.7031,2.6328 -1.1329,0.9297 -2.8672,0.9297 -2.2813,0 -3.5781,-1.625 -1.5626,-1.9687 -1.5626,-6.4062 z m 2,0 q 0,3.875 0.9063,5.1562 0.9063,1.2813 2.2344,1.2813 1.3281,0 2.2422,-1.2891 0.914,-1.289 0.914,-5.1484 0,-3.8906 -0.914,-5.1719 -0.9141,-1.2813 -2.2579,-1.2813 -1.3437,0 -2.125,1.1407 -1,1.4375 -1,5.3125 z M -16.9558,8.5 V 6.2969 h 2.2031 V 8.5 Z m 4.9386,-4.1562 1.9375,-0.2657 q 0.3282,1.6563 1.1329,2.375 0.8046,0.7188 1.9453,0.7188 1.375,0 2.3125,-0.9453 0.9375,-0.9454 0.9375,-2.336 0,-1.3281 -0.875,-2.1953 -0.875,-0.8672 -2.2032,-0.8672 -0.5625,0 -1.375,0.2188 l 0.2188,-1.7031 q 0.1875,0.0312 0.3125,0.0312 1.2344,0 2.2187,-0.6484 0.9844,-0.6485 0.9844,-1.9922 0,-1.0625 -0.7187,-1.7578 -0.7188,-0.6954 -1.8594,-0.6954 -1.125,0 -1.875,0.7032 -0.75,0.7031 -0.9688,2.125 l -1.9218,-0.3438 q 0.3437,-1.9375 1.6015,-3.0078 1.2578,-1.0703 3.1328,-1.0703 1.2813,0 2.3672,0.5547 1.086,0.5547 1.6641,1.5078 0.5781,0.9531 0.5781,2.0312 0,1.0157 -0.5469,1.8516 -0.5468,0.836 -1.625,1.336 1.3907,0.3281 2.1641,1.3437 0.7734,1.0156 0.7734,2.5313 0,2.0624 -1.5,3.5 -1.5,1.4374 -3.7968,1.4374 -2.0782,0 -3.4453,-1.2343 -1.3672,-1.2344 -1.5704,-3.2031 z"
       id="path18550" />
  </g>
  <g
     transform="translate(61.783959,252.58207)"
     style="font-size:21.6667px;font-family:SansSerif;color-interpolation:linearRGB;fill:#262626;stroke:#262626;color-rendering:optimizeQuality;image-rendering:optimizeQuality;text-rendering:geometricPrecision"
     id="g18556">
    <path
       style="stroke:none"
       d="m -30.0938,0.7344 q 0,-2.7969 0.5782,-4.5 0.5781,-1.7032 1.7109,-2.625 1.1328,-0.9219 2.8516,-0.9219 1.2656,0 2.2265,0.5078 0.961,0.5078 1.5782,1.4688 0.6172,0.9609 0.9765,2.3437 0.3594,1.3828 0.3594,3.7266 0,2.7656 -0.5703,4.4687 -0.5703,1.7031 -1.7031,2.6328 -1.1329,0.9297 -2.8672,0.9297 -2.2813,0 -3.5781,-1.625 -1.5626,-1.9687 -1.5626,-6.4062 z m 2,0 q 0,3.875 0.9063,5.1562 0.9063,1.2813 2.2344,1.2813 1.3281,0 2.2422,-1.2891 0.914,-1.289 0.914,-5.1484 0,-3.8906 -0.914,-5.1719 -0.9141,-1.2813 -2.2579,-1.2813 -1.3437,0 -2.125,1.1407 -1,1.4375 -1,5.3125 z M -16.9558,8.5 V 6.2969 h 2.2031 V 8.5 Z m 11.1261,0 V 4.7344 h -6.8281 V 2.9531 L -5.4703,-7.25 h 1.5781 V 2.9531 h 2.125 v 1.7813 h -2.125 V 8.5 Z m 0,-5.5469 v -7.0937 l -4.9218,7.0937 z"
       id="path18554" />
  </g>
  <g
     transform="translate(61.783959,205.80427)"
     style="font-size:21.6667px;font-family:SansSerif;color-interpolation:linearRGB;fill:#262626;stroke:#262626;color-rendering:optimizeQuality;image-rendering:optimizeQuality;text-rendering:geometricPrecision"
     id="g18560">
    <path
       style="stroke:none"
       d="m -30.0938,0.7344 q 0,-2.7969 0.5782,-4.5 0.5781,-1.7032 1.7109,-2.625 1.1328,-0.9219 2.8516,-0.9219 1.2656,0 2.2265,0.5078 0.961,0.5078 1.5782,1.4688 0.6172,0.9609 0.9765,2.3437 0.3594,1.3828 0.3594,3.7266 0,2.7656 -0.5703,4.4687 -0.5703,1.7031 -1.7031,2.6328 -1.1329,0.9297 -2.8672,0.9297 -2.2813,0 -3.5781,-1.625 -1.5626,-1.9687 -1.5626,-6.4062 z m 2,0 q 0,3.875 0.9063,5.1562 0.9063,1.2813 2.2344,1.2813 1.3281,0 2.2422,-1.2891 0.914,-1.289 0.914,-5.1484 0,-3.8906 -0.914,-5.1719 -0.9141,-1.2813 -2.2579,-1.2813 -1.3437,0 -2.125,1.1407 -1,1.4375 -1,5.3125 z M -16.9558,8.5 V 6.2969 h 2.2031 V 8.5 Z m 4.923,-4.125 2.0313,-0.1719 q 0.2343,1.4844 1.0547,2.2266 0.8203,0.7422 1.9765,0.7422 1.4063,0 2.3672,-1.0469 0.9609,-1.0469 0.9609,-2.7969 0,-1.6562 -0.9296,-2.6093 -0.9297,-0.9532 -2.4297,-0.9532 -0.9375,0 -1.6875,0.4219 -0.75,0.4219 -1.1719,1.1094 l -1.8281,-0.2344 1.5312,-8.0937 h 7.8281 v 1.8437 h -6.2812 l -0.8438,4.2344 q 1.4219,-0.9844 2.9688,-0.9844 2.0625,0 3.4844,1.4297 1.4218,1.4297 1.4218,3.664 0,2.1407 -1.25,3.7032 -1.5156,1.9062 -4.1406,1.9062 -2.1406,0 -3.5,-1.2031 -1.3594,-1.2031 -1.5625,-3.1875 z"
       id="path18558" />
  </g>
  <g
     transform="translate(61.783959,159.02647)"
     style="font-size:21.6667px;font-family:SansSerif;color-interpolation:linearRGB;fill:#262626;stroke:#262626;color-rendering:optimizeQuality;image-rendering:optimizeQuality;text-rendering:geometricPrecision"
     id="g18564">
    <path
       style="stroke:none"
       d="m -30.0938,0.7344 q 0,-2.7969 0.5782,-4.5 0.5781,-1.7032 1.7109,-2.625 1.1328,-0.9219 2.8516,-0.9219 1.2656,0 2.2265,0.5078 0.961,0.5078 1.5782,1.4688 0.6172,0.9609 0.9765,2.3437 0.3594,1.3828 0.3594,3.7266 0,2.7656 -0.5703,4.4687 -0.5703,1.7031 -1.7031,2.6328 -1.1329,0.9297 -2.8672,0.9297 -2.2813,0 -3.5781,-1.625 -1.5626,-1.9687 -1.5626,-6.4062 z m 2,0 q 0,3.875 0.9063,5.1562 0.9063,1.2813 2.2344,1.2813 1.3281,0 2.2422,-1.2891 0.914,-1.289 0.914,-5.1484 0,-3.8906 -0.914,-5.1719 -0.9141,-1.2813 -2.2579,-1.2813 -1.3437,0 -2.125,1.1407 -1,1.4375 -1,5.3125 z M -16.9558,8.5 V 6.2969 h 2.2031 V 8.5 Z m 14.9699,-11.8906 -1.9219,0.1562 q -0.2656,-1.1406 -0.7344,-1.6562 -0.7812,-0.8282 -1.9375,-0.8282 -0.9218,0 -1.625,0.5157 -0.9062,0.6562 -1.4375,1.9375 -0.5312,1.2812 -0.5468,3.6406 0.7031,-1.0625 1.7109,-1.5781 1.0078,-0.5157 2.1172,-0.5157 1.9375,0 3.2891,1.4219 1.3515,1.4219 1.3515,3.6875 0,1.4844 -0.6328,2.7578 -0.6328,1.2735 -1.75,1.9454 -1.1172,0.6718 -2.5391,0.6718 -2.4218,0 -3.9453,-1.7734 -1.5234,-1.7734 -1.5234,-5.8672 0,-4.5625 1.6875,-6.6406 1.4687,-1.7969 3.9687,-1.7969 1.8594,0 3.0391,1.0391 1.1797,1.039 1.4297,2.8828 z m -7.9063,6.7812 q 0,1 0.4297,1.9141 0.4297,0.9141 1.1875,1.3906 0.7578,0.4766 1.6016,0.4766 1.2187,0 2.1016,-0.9844 Q -3.689,5.2031 -3.689,3.5 q 0,-1.625 -0.8672,-2.5703 -0.8672,-0.9453 -2.1953,-0.9453 -1.3125,0 -2.2266,0.9453 -0.9141,0.9453 -0.9141,2.4609 z"
       id="path18562" />
  </g>
  <g
     transform="translate(61.783959,112.24877)"
     style="font-size:21.6667px;font-family:SansSerif;color-interpolation:linearRGB;fill:#262626;stroke:#262626;color-rendering:optimizeQuality;image-rendering:optimizeQuality;text-rendering:geometricPrecision"
     id="g18568">
    <path
       style="stroke:none"
       d="m -30.0938,0.7344 q 0,-2.7969 0.5782,-4.5 0.5781,-1.7032 1.7109,-2.625 1.1328,-0.9219 2.8516,-0.9219 1.2656,0 2.2265,0.5078 0.961,0.5078 1.5782,1.4688 0.6172,0.9609 0.9765,2.3437 0.3594,1.3828 0.3594,3.7266 0,2.7656 -0.5703,4.4687 -0.5703,1.7031 -1.7031,2.6328 -1.1329,0.9297 -2.8672,0.9297 -2.2813,0 -3.5781,-1.625 -1.5626,-1.9687 -1.5626,-6.4062 z m 2,0 q 0,3.875 0.9063,5.1562 0.9063,1.2813 2.2344,1.2813 1.3281,0 2.2422,-1.2891 0.914,-1.289 0.914,-5.1484 0,-3.8906 -0.914,-5.1719 -0.9141,-1.2813 -2.2579,-1.2813 -1.3437,0 -2.125,1.1407 -1,1.4375 -1,5.3125 z M -16.9558,8.5 V 6.2969 h 2.2031 V 8.5 Z m 5.0636,-13.6875 v -1.8594 h 10.1875 v 1.5 q -1.5,1.6094 -2.9765,4.2578 -1.4766,2.6485 -2.2891,5.461 Q -7.5484,6.1406 -7.7047,8.5 H -9.689 q 0.0312,-1.8594 0.7265,-4.4922 0.6953,-2.6328 2,-5.0781 1.3047,-2.4453 2.7735,-4.1172 z"
       id="path18566" />
  </g>
  <g
     transform="translate(61.783959,65.470969)"
     style="font-size:21.6667px;font-family:SansSerif;color-interpolation:linearRGB;fill:#262626;stroke:#262626;color-rendering:optimizeQuality;image-rendering:optimizeQuality;text-rendering:geometricPrecision"
     id="g18572">
    <path
       style="stroke:none"
       d="m -30.0938,0.7344 q 0,-2.7969 0.5782,-4.5 0.5781,-1.7032 1.7109,-2.625 1.1328,-0.9219 2.8516,-0.9219 1.2656,0 2.2265,0.5078 0.961,0.5078 1.5782,1.4688 0.6172,0.9609 0.9765,2.3437 0.3594,1.3828 0.3594,3.7266 0,2.7656 -0.5703,4.4687 -0.5703,1.7031 -1.7031,2.6328 -1.1329,0.9297 -2.8672,0.9297 -2.2813,0 -3.5781,-1.625 -1.5626,-1.9687 -1.5626,-6.4062 z m 2,0 q 0,3.875 0.9063,5.1562 0.9063,1.2813 2.2344,1.2813 1.3281,0 2.2422,-1.2891 0.914,-1.289 0.914,-5.1484 0,-3.8906 -0.914,-5.1719 -0.9141,-1.2813 -2.2579,-1.2813 -1.3437,0 -2.125,1.1407 -1,1.4375 -1,5.3125 z M -16.9558,8.5 V 6.2969 h 2.2031 V 8.5 Z m 7.9074,-8.5469 q -1.2031,-0.4375 -1.7813,-1.25 -0.5781,-0.8125 -0.5781,-1.9531 0,-1.7188 1.2344,-2.8906 1.2344,-1.1719 3.2812,-1.1719 2.0625,0 3.3204,1.1953 1.2578,1.1953 1.2578,2.9141 0,1.0937 -0.5782,1.9062 -0.5781,0.8125 -1.75,1.25 1.4532,0.4844 2.211,1.5313 0.7578,1.0468 0.7578,2.5156 0,2.0156 -1.4297,3.3906 -1.4297,1.375 -3.7578,1.375 -2.3281,0 -3.7578,-1.3828 Q -12.0484,6 -12.0484,3.9375 q 0,-1.5313 0.7812,-2.5703 0.7813,-1.0391 2.2188,-1.4141 z M -9.439,-3.3125 q 0,1.1094 0.7187,1.8203 0.7188,0.711 1.875,0.711 1.1094,0 1.8281,-0.7032 0.7188,-0.7031 0.7188,-1.7187 0,-1.0625 -0.7344,-1.7891 -0.7344,-0.7266 -1.8437,-0.7266 -1.0938,0 -1.8282,0.7032 -0.7343,0.7031 -0.7343,1.7031 z m -0.625,7.2656 q 0,0.8281 0.3906,1.6016 0.3906,0.7734 1.1641,1.1953 0.7734,0.4219 1.6796,0.4219 1.375,0 2.2813,-0.8907 0.9062,-0.8906 0.9062,-2.2656 0,-1.3906 -0.9296,-2.3047 -0.9297,-0.914 -2.336,-0.914 -1.3594,0 -2.2578,0.9062 -0.8984,0.9063 -0.8984,2.25 z"
       id="path18570" />
  </g>
  <g
     transform="translate(61.783959,18.693169)"
     style="font-size:21.6667px;font-family:SansSerif;color-interpolation:linearRGB;fill:#262626;stroke:#262626;color-rendering:optimizeQuality;image-rendering:optimizeQuality;text-rendering:geometricPrecision"
     id="g18576">
    <path
       style="stroke:none"
       d="m -30.0938,0.7344 q 0,-2.7969 0.5782,-4.5 0.5781,-1.7032 1.7109,-2.625 1.1328,-0.9219 2.8516,-0.9219 1.2656,0 2.2265,0.5078 0.961,0.5078 1.5782,1.4688 0.6172,0.9609 0.9765,2.3437 0.3594,1.3828 0.3594,3.7266 0,2.7656 -0.5703,4.4687 -0.5703,1.7031 -1.7031,2.6328 -1.1329,0.9297 -2.8672,0.9297 -2.2813,0 -3.5781,-1.625 -1.5626,-1.9687 -1.5626,-6.4062 z m 2,0 q 0,3.875 0.9063,5.1562 0.9063,1.2813 2.2344,1.2813 1.3281,0 2.2422,-1.2891 0.914,-1.289 0.914,-5.1484 0,-3.8906 -0.914,-5.1719 -0.9141,-1.2813 -2.2579,-1.2813 -1.3437,0 -2.125,1.1407 -1,1.4375 -1,5.3125 z M -16.9558,8.5 V 6.2969 h 2.2031 V 8.5 Z m 5.2199,-3.6406 1.8594,-0.1719 Q -9.6422,6 -8.9781,6.5859 q 0.6641,0.586 1.7109,0.586 0.8907,0 1.5625,-0.4063 Q -5.0328,6.3594 -4.6031,5.6797 -4.1734,5 -3.8843,3.8359 q 0.289,-1.164 0.289,-2.3671 0,-0.125 -0.0156,-0.375 -0.5781,0.9218 -1.5781,1.4921 -1,0.5703 -2.1719,0.5703 -1.9531,0 -3.3125,-1.414 -1.3594,-1.4141 -1.3594,-3.7422 0,-2.3906 1.4141,-3.8516 1.414,-1.4609 3.539,-1.4609 1.5469,0 2.8204,0.8281 1.2734,0.8282 1.9296,2.3594 0.6563,1.5312 0.6563,4.4219 0,3.0312 -0.6563,4.8203 -0.6562,1.789 -1.9453,2.7187 -1.289,0.9297 -3.039,0.9297 -1.8438,0 -3.0157,-1.0234 -1.1718,-1.0234 -1.4062,-2.8828 z m 7.9219,-6.9532 q 0,-1.6562 -0.8907,-2.6406 -0.8906,-0.9844 -2.125,-0.9844 -1.2968,0 -2.25,1.0547 -0.9531,1.0547 -0.9531,2.7266 0,1.5156 0.9063,2.4531 0.9062,0.9375 2.2343,0.9375 1.3438,0 2.211,-0.9375 0.8672,-0.9375 0.8672,-2.6094 z"
       id="path18574" />
  </g>
  <g
     style="color-interpolation:linearRGB;fill:#0000ff;stroke:#0000ff;stroke-width:0.8333;stroke-linecap:butt;stroke-linejoin:round;color-rendering:optimizeQuality;image-rendering:optimizeQuality;text-rendering:geometricPrecision"
     id="g18590"
     transform="translate(-21.549141,-29.306831)">
    <path
       d="m 90.9352,126.2695 0.0651,-0.0276 0.6605,-0.072 0.6606,-0.1544 0.6606,-0.2741 0.6606,-0.2484 0.6609,-0.2096 0.6606,-0.2432 0.6606,-0.2942 0.661,-0.2302 0.6609,-0.0622 0.661,-0.4116 0.6609,-0.1848 0.661,-0.1595 0.661,-0.1736 0.6613,-0.4631 0.6613,-0.2367 0.661,-0.1721 0.6613,-0.2498 0.6614,-0.4107 0.6613,-0.2905 0.6613,-0.131 0.6617,-0.2474 0.6614,-0.3527 0.6617,-0.2695 0.6617,-0.0828 0.6613,-0.297 0.6617,-0.3335 0.6618,-0.2133 0.662,-0.3401 0.6618,-0.3158 0.6621,-0.2226 0.6617,-0.3364 0.6621,-0.385 0.662,-0.224 0.6621,-0.1263 0.6621,-0.4505 0.6621,-0.3653 0.6625,-0.2288 0.6621,-0.3602 0.6624,-0.521 0.6625,-0.2704 0.6625,-0.2718 0.6624,-0.3939 0.6625,-0.5024 0.6625,-0.3896 0.6624,-0.283 0.6629,-0.4393 0.6628,-0.3447 0.6625,-0.3499 0.6632,-0.3644 0.6628,-0.486 0.6629,-0.5403 0.6628,-0.298 0.6628,-0.4519 0.6633,-0.6039 0.6632,-0.2853 0.6628,-0.429 0.6633,-0.6235 0.6632,-0.5628 0.6636,-0.1932 0.6632,-0.5552 0.6632,-0.7101 0.6636,-0.5103 0.6636,-0.5796 0.6632,-0.8635 0.6636,-0.6315 0.6636,-0.4819 0.664,-0.6342 0.6636,-0.85 0.6636,-0.719 0.6639,-0.6595 0.6636,-0.8514 0.664,-0.922 0.664,-0.7737 0.6639,-0.9323 0.6644,-1.2466 0.664,-1.1629 0.6639,-0.9702 0.6644,-1.531 0.664,-1.612 0.6643,-1.4524 0.6644,-1.8954 0.6643,-2.5256 0.6643,-2.0184 0.6648,-1.6275 0.6643,-1.9941 0.6647,-1.6756 0.6644,-0.9393 0.6647,-0.6965 0.6647,-0.8406 0.6648,-0.5346 0.6651,-0.262 0.6647,-0.3803 0.6647,-0.4505 0.6651,-0.2573 0.6647,-0.2965 0.6651,-0.3485 0.6651,-0.3738 0.6651,-0.1726 0.6651,-0.305 0.6651,-0.196 0.6655,-0.3349 0.6655,-0.1937 0.6651,-0.261 0.6655,-0.24 0.6655,-0.305 0.6654,-0.1992 0.6655,-0.341 0.6655,-0.1881 0.6658,-0.2311 0.6655,-0.1104 0.6659,-0.3185 0.6658,-0.2793 0.6655,-0.058 0.6663,-0.3424 0.6658,-0.1338 0.6659,-0.0818 0.6658,-0.1656 0.6662,-0.269 0.6659,-0.1488 0.6662,-0.1398 0.6663,-0.3191 0.6662,-0.1459 0.6662,-0.043 0.6663,-0.1614 0.6666,-0.3363 0.6662,-0.015 0.6666,-0.1291 0.6666,-0.3279 0.6666,-0.131 0.6663,-0.05 0.6669,-0.2774 0.6666,-0.2597 0.6666,-0.0716 0.667,-0.1889 0.6667,-0.2152 0.6669,-0.1169 0.667,-0.0899 0.667,-0.1543 0.667,-0.2058 0.667,-0.1778 0.667,-0.1427 0.6673,-0.2399 0.667,-0.074 0.6674,-0.1931 0.6673,-0.0482 0.6674,-0.1422 0.6673,-0.4019 0.6674,0.1848 0.6674,-0.2334 0.6673,-0.341 0.6678,-0.0903 0.6677,-0.1085 0.6674,-0.1895 0.6677,-0.0903 0.6677,-0.1449 0.6678,-0.1937 0.6681,-0.2947 0.6677,-0.1095 0.6678,-0.0603 0.6681,-0.2718 0.6681,-0.124 0.6681,-0.1099 0.6681,-0.0926 0.6681,-0.2236 0.6682,-0.1768 0.6681,-0.0636 0.6685,-0.1072 0.6681,-0.3363 0.6685,-0.0056 0.6684,-0.1801 0.6682,-0.0889 0.6685,-0.2535 0.6688,-0.0337 0.6685,-0.0468 0.6685,-0.2357 0.6689,-0.0885 0.6685,-0.0336 0.6688,-0.1899 0.6689,-0.1567 0.6689,-0.0211 0.6688,-0.1637 0.6693,-0.1647 0.6689,-0.0599 0.6688,-0.021 0.6693,-0.1637 0.6692,-0.2119 0.6689,-5e-4 0.6692,-0.0547 0.6693,-0.24 0.6696,-0.0547 0.6692,0.0248 0.6693,-0.2143 0.6696,-0.1436 0.6692,-0.021 0.6697,-0.0716 0.6696,-0.0468 0.6696,-0.1805 0.6696,0.0664 0.67,-0.0295 0.6696,-0.1305 0.6697,-0.0332 0.67,-0.0805 0.67,-0.0584 0.6696,-0.0641 0.67,-0.0164 0.6704,-0.0337 0.67,-0.0252 0.6699,-0.0805 0.67,0.1857 0.6704,-0.1221 0.67,-0.0758 0.6704,0.0669 0.6704,0.0721 0.6703,-0.1558 0.6704,0.0964 0.6708,0.0173 0.6703,0.0336 0.6704,-0.0252 h 0.6708 l 0.6707,0.0678 0.6704,0.2016 0.6707,-0.0206 0.6708,0.0421 0.6711,0.1605 0.6708,0.0416 0.6707,0.0758 0.6711,0.0856 0.6712,0.1418 0.6707,-0.0164 0.6711,0.0725 0.6712,0.2315 0.6711,0.1432 0.6711,0.2736 0.6715,0.1432 0.6712,0.1482 0.6715,0.1848 0.6711,0.2325 0.6715,0.1983 0.6715,0.2611 0.6715,0.2399 0.6715,0.203 0.6719,0.3158 0.6715,0.2493 0.6715,0.3452 0.6719,0.2657 0.6719,0.3541 0.6718,0.182 0.6715,0.4341 0.6723,0.4135 0.6719,0.363 0.6719,0.3925 0.6722,0.5085 0.6719,0.4341 0.6722,0.5664 0.6719,0.4912 0.6723,0.3953 0.6723,0.704 0.6722,0.5449 0.6726,0.4828 0.6723,0.5496 0.6722,0.7667 0.6727,0.6741 0.6726,0.7115 0.6723,0.7278 0.6726,0.8083 0.6726,0.742 0.6727,0.7437 0.673,0.9735 0.6726,0.805 0.6727,0.7592 0.673,1.1582 0.673,1.0301 0.6726,1.0244 0.673,1.1058 0.6734,1.2331 0.673,1.0431 0.673,1.1218 0.6731,1.2335 0.6733,1.4464 0.6734,1.0483 0.673,1.5544 0.6734,1.4824 0.6734,1.4056 0.6734,1.3767 0.6734,1.698 0.6737,1.7275 0.6734,1.6256 0.6734,1.5811 0.6738,2.068 0.6737,1.8992 0.6738,1.4903 0.6734,2.2762 0.6741,2.2257 0.6738,1.9745 0.6737,2.1045 0.6738,2.5761 0.6742,2.4802 0.6741,1.981 0.6738,2.3758 0.6741,2.8385 0.6741,2.2046 0.6742,2.5546 0.6745,3.034 0.6741,3.0059 0.6742,2.7412 0.6745,3.2169 0.6741,3.4372 0.6745,3.2118 0.6746,2.8998 0.6745,3.5004 0.6745,3.7478 0.6749,2.7617 0.6745,3.5505 0.6745,4.0168 0.6749,3.6547 0.6746,3.63 0.6748,4.4364 0.6749,4.5608 0.6749,3.7951 0.6749,3.7811 0.6749,4.8985 0.6753,4.3419 0.6749,3.1706 0.6753,4.842 0.6749,5.1816 0.6752,4.0491 0.6753,4.5098 0.6752,5.6498 0.6753,5.2237 0.6753,4.2044 0.6756,5.1666 0.6753,5.8566 0.6756,4.2731 0.6753,4.2549 0.6757,5.6414 0.6756,5.1591 0.6757,4.4814 0.6756,5.298 0.6756,5.7462 0.6757,5.4351 0.676,4.8883 0.6757,5.6236 0.676,5.6653 0.676,4.3278 0.6757,4.6877 0.6764,5.4744 0.676,4.9069 0.676,4.1993 0.676,5.1774 0.6764,5.6306 0.676,4.638 0.6765,4.4556 0.676,5.5357 0.6764,4.7367 0.6764,3.3114 0.6764,4.6647 0.6764,4.7301 0.6768,3.4064 0.6763,3.3212 0.6768,4.536 0.6764,4.0599 0.6768,3.1528 0.6768,3.8573 0.6768,4.1048 0.6767,3.0887 0.6768,2.6813 0.6768,3.4157 0.6771,2.809 0.6768,2.1677 0.6772,2.5073 0.6767,2.6172 0.6772,2.4035 0.6772,1.9642 0.6771,2.1541 0.6772,2.2126 0.6771,1.5581 0.6775,1.3814 0.6772,1.5235 0.6775,1.2485 0.6772,0.8542 0.6775,1.0324 0.6775,1.0295 0.6776,0.6601 0.6775,0.5426 0.6779,0.6671 0.6776,0.4055 0.6775,0.1123 0.6779,0.2147 0.6775,0.0501 0.6779,-0.1207 0.6779,-0.1437 0.6779,-0.2067 0.6779,-0.4079 0.6779,-0.4907 0.6783,-0.5132 0.6779,-0.7404 0.6779,-0.7761 0.6783,-0.7124 0.6783,-0.9215 0.6779,-1.0053 0.6783,-0.9575 0.6786,-0.9974 0.6783,-1.1184 0.6783,-1.2981 0.6783,-1.1418 0.6786,-1.3411 0.6783,-1.5792 0.6787,-1.3945 0.6787,-1.2883 0.6786,-1.632 0.6787,-1.5877 0.6786,-1.4136 0.6787,-1.4726 0.6787,-1.8603 0.679,-1.7191 0.6787,-1.4286 0.679,-1.8716 0.6787,-1.8608 0.679,-1.4492 0.679,-1.6657 0.6791,-1.9689 0.679,-1.7659 0.6794,-1.5385 0.679,-1.9707 0.6795,-2.0877 0.679,-1.6611 0.6794,-1.7228 0.6794,-2.0952 0.6794,-1.7715 0.6791,-1.5754 0.6794,-1.9961 0.6798,-1.893 0.6794,-1.7037 0.6794,-1.7921 0.6798,-2.0521 0.6798,-2.0377 0.6798,-1.6643 0.6794,-1.7925 0.6798,-1.9165 0.6797,-1.5769 0.6802,-1.4375 0.6798,-1.9436 0.6798,-1.8819 0.6798,-1.6545 0.6802,-1.8421 0.6801,-2.1162 0.6802,-1.9175 0.6802,-1.3682 0.6797,-1.7336 0.6806,-1.8388 0.6802,-1.2986 0.6801,-1.6189 0.6802,-1.7837 0.6805,-1.799 0.6806,-1.518 0.6801,-1.6681 0.6806,-1.879 0.6805,-1.5185 0.6806,-1.4145 0.6805,-1.6952 0.6809,-1.5255 0.6806,-1.227 0.6805,-1.6489 0.6809,-1.5825 0.6806,-1.4702 0.6809,-1.5867 0.6809,-1.6821 0.6809,-1.662 0.6809,-1.2471 0.681,-1.3673 0.6813,-1.496 0.6809,-1.1844 0.6809,-1.2284 0.6813,-1.5001 0.6813,-1.5255 0.6809,-1.3256 0.6813,-1.4099 0.6813,-1.4478 0.6813,-1.4562 0.6817,-1.1194 0.6813,-1.2354 0.6813,-1.4155 0.6816,-0.9997 0.6813,-1.1563 0.6817,-1.3944 0.6817,-1.3411 0.6816,-1.1045 0.6817,-1.342 0.6817,-1.4478 0.6817,-1.1638 0.6816,-0.9683 0.6821,-1.3533 0.6817,-1.0095 0.682,-0.9323 0.6821,-1.1184 0.682,-1.1386 0.6817,-1.125 0.6824,-1.0932 0.6821,-1.1643 0.682,-1.2765 0.6821,-0.8804 0.6824,-1.0595 0.682,-1.0998 0.6825,-1.0113 0.6824,-0.8747 0.682,-0.9726 0.6825,-1.0585 0.6828,-0.829 0.6824,-1.0038 0.6824,-1.03 0.6824,-1.1119 0.6828,-0.8392 0.6825,-0.9641 0.6828,-1.0829 0.6828,-0.7901 0.6828,-0.7667 0.6828,-0.8415 0.6828,-0.9609 0.6828,-0.6979 0.6828,-0.7877 0.6828,-1.0983 0.6832,-0.9263 0.6828,-0.754 0.6831,-1.0314 0.6832,-0.8177 0.6832,-0.6872 0.6832,-0.7564 0.6832,-0.8083 0.6831,-0.7241 0.6832,-0.7368 0.6832,-0.7054 0.6836,-0.9641 0.6831,-0.7667 0.6836,-0.6689 0.6836,-0.8977 0.6835,-0.6689 0.6836,-0.6418 0.6835,-0.7002 0.6836,-0.6577 0.6835,-0.6867 0.6836,-0.6844 0.6839,-0.6834 0.6839,-0.8196 0.6836,-0.6057 0.6839,-0.8448 0.684,-0.6933 0.6839,-0.5983 0.6839,-0.5707 0.6839,-0.7241 0.684,-0.6104 0.6839,-0.5464 0.6843,-0.581 0.684,-0.7176 0.6843,-0.6792 0.6843,-0.4855 0.6843,-0.8004 0.6843,-0.5744 0.6843,-0.5319 0.6843,-0.5683 0.6843,-0.6919 0.6843,-0.493 0.6847,-0.5178 0.6843,-0.5852 0.6847,-0.5773 0.6847,-0.5847 0.6847,-0.5749 0.6843,-0.6628 0.6847,-0.4725 0.6847,-0.4865 0.685,-0.5248 0.6847,-0.5726 0.6847,-0.5085 0.6851,-0.4738 0.685,-0.487 0.6847,-0.5636 0.6851,-0.4285 0.685,-0.5758 0.6851,-0.5352 0.6851,-0.5478 0.685,-0.414 0.6851,-0.4822 0.6854,-0.4697 0.6851,-0.4598 0.6854,-0.4037 0.6855,-0.5277 0.685,-0.5379 0.6854,-0.3583 0.6855,-0.5581 0.6854,-0.4588 0.6855,-0.3888 0.6858,-0.4565 0.6854,-0.465 0.6855,-0.4187 0.6858,-0.4294 0.6858,-0.4594 0.6855,-0.4551 0.6857,-0.4771 0.6859,-0.2797 0.6858,-0.5048 0.6858,-0.4827 0.6862,-0.3266 0.6858,-0.3124 0.6858,-0.5567 0.6862,-0.4252 0.6862,-0.3125 0.6858,-0.4139 0.6862,-0.3542 0.6862,-0.3985 0.6862,-0.3742 0.6862,-0.4776 0.6862,-0.3452 0.6862,-0.2718 0.6865,-0.516 0.6862,-0.2975 0.6866,-0.443 0.6866,-0.3092 0.6862,-0.3793 0.6865,-0.3766 0.6866,-0.2774 0.6866,-0.4056 0.6865,-0.3167 0.687,-0.4181 0.6865,-0.2222 0.6866,-0.4182 0.687,-0.3663 0.6866,-0.3672 0.6869,-0.3522 0.6869,-0.3551 0.687,-0.2881 0.6869,-0.3462 0.687,-0.305 0.6869,-0.3606 0.687,-0.2512 0.6873,-0.3186 0.6869,-0.2526 0.6873,-0.3957 0.687,-0.371 0.6873,-0.3087 0.6873,-0.4 0.6873,-0.1744 0.6874,-0.3331 0.6873,-0.3312 0.6873,-0.2849 0.6877,-0.2315 0.6874,-0.2723 0.6873,-0.2895 0.6877,-0.2938 0.6876,-0.3447 0.6874,-0.3172 0.6877,-0.1866 0.6877,-0.3088 0.6877,-0.3101 0.688,-0.2788 0.6878,-0.24 0.6876,-0.3307 0.6881,-0.2666 0.6877,-0.2414 0.6881,-0.3153 0.6877,-0.2526 0.6881,-0.2605 0.688,-0.3387 0.6881,-0.1969 0.6881,-0.2704 0.688,-0.3045 0.6885,-0.268 0.6881,-0.1493 0.6884,-0.2498 0.6881,-0.3255 0.6885,-0.313 0.688,-0.1918 0.6885,-0.3387 0.6885,-0.2039 0.6884,-0.167 0.6885,-0.2718 0.6888,-0.3354 0.6884,-0.1646 0.6885,-0.291 0.6888,-0.2067 0.6884,-0.1095 0.6889,-0.2709 0.6888,-0.3166 0.6888,-0.1998 0.6889,-0.2353 0.6884,-0.2404 0.6892,-0.3115 0.6888,-0.2021 0.6889,-0.1927 0.6892,-0.1961 0.6888,-0.2418 0.6892,-0.2811 0.6889,-0.2059 0.6892,-0.1001 0.6891,-0.3063 0.6892,-0.211 0.6892,-0.1749 0.6893,-0.2658 0.6892,-0.1866 0.6895,-0.1497 0.6893,-0.2793 0.6895,-0.2624 0.6892,-0.203 0.6896,-0.0917 0.6896,-0.2049 0.6896,-0.2853 0.6892,-0.1993 0.6896,-0.1899 0.6899,-0.1291 0.6896,-0.2606 0.6896,-0.2292 0.6896,-0.1277 0.6899,-0.2998 0.69,-0.1011 0.6896,-0.145 0.6899,-0.2348 0.69,-0.2082 0.69,-0.1529 0.6899,-0.1703 0.69,-0.1431 0.6899,-0.2872 0.6904,-0.1853 0.6899,-0.1904 0.69,-0.2413 0.6903,-0.1203 0.6903,-0.1277 0.6904,-0.1871 0.6899,-0.224 0.6904,-0.1642 0.6903,-0.1488 0.6907,-0.2535 0.6904,-0.0917 0.6903,-0.2035 0.6903,-0.1908 0.6908,-0.1586 0.6903,-0.124 0.6907,-0.1866 0.6907,-0.2844 0.6907,-0.0782 0.6903,-0.2395 0.6911,-0.1539 0.6908,-0.1351 0.6906,-0.1348 0.6908,-0.1034 0.6911,-0.1132 0.6906,-0.2221 0.6911,-0.1862 0.6908,-0.1034 0.691,-0.2185 0.6911,-0.1899 0.6911,-0.144 0.6911,-0.2307 0.6911,-0.0795 0.6911,-0.1581 0.6911,-0.1286 0.6911,-0.1984 0.6914,-0.188 0.6911,-0.0926 0.6915,-0.1843 0.6915,-0.1085 0.6914,-0.1717 0.6911,-0.1254 0.6914,-0.1558 0.6915,-0.1235 0.6918,-0.2189 0.6915,-0.0486 0.6915,-0.1698 0.6914,-0.1703 0.6919,-0.1894 0.6918,-0.161 0.6915,-0.0645 0.6919,-0.1839 0.6918,-0.0748 0.6918,-0.1703 0.6919,-0.1361 0.6918,-0.1169 0.6918,-0.1352 0.6919,-0.1104 0.6922,-0.1605 0.6919,-0.0837 0.6922,-0.1904 0.6918,-0.0295 0.6922,-0.2446 0.6923,-0.1025 0.6922,-0.1206 0.6922,-0.2414 0.6922,-0.0164 0.6922,-0.2451 0.6922,-0.0267 0.6927,-0.1263 0.6922,-0.2025 0.6922,-0.0805 0.6926,-0.0772 0.6925,-0.1318 0.6922,-0.1409 0.6927,-0.144 0.6925,-0.1123 0.6927,-0.1525 0.6925,-0.1366 0.6927,-0.0253 0.6929,-0.196 0.6926,-0.1782 0.693,-0.0234 0.2161,-0.0337"
       style="fill:none;fill-rule:evenodd"
       id="path18582" />
    <line
       x1="144.6566"
       x2="144.6566"
       y1="87.269997"
       style="fill:none;stroke:#000000"
       y2="87.269997"
       id="line18584" />
    <line
       x1="144.6566"
       x2="144.6566"
       y1="460.0502"
       style="fill:none;stroke:#000000"
       y2="38.949799"
       id="line18586" />
    <line
       x1="351.39691"
       x2="351.39691"
       y1="460.0502"
       style="fill:none;stroke:#000000"
       y2="38.949799"
       id="line18588" />
  </g>
  <g
     transform="translate(141.45086,76.693169)"
     style="font-size:21.6667px;font-family:mwb_cmmi10;color-interpolation:linearRGB;color-rendering:optimizeQuality;image-rendering:optimizeQuality;text-rendering:geometricPrecision"
     id="g18594">
    <path
       style="stroke:none"
       d="m 3.5469,0.25 q -1,0 -1.6016,-0.7344 Q 1.3438,-1.2188 1.1094,-2.25 0.875,-3.2812 0.875,-4.2812 v -0.0313 q 0,-1.0937 0.2109,-2.2734 0.211,-1.1797 0.6094,-2.3594 0.3985,-1.1797 0.8672,-2.1016 0.3125,-0.6406 0.8281,-1.4375 0.5156,-0.7968 1.1406,-1.4844 0.625,-0.6874 1.3516,-1.1171 0.7266,-0.4297 1.461,-0.4297 H 7.375 q 0.7969,0 1.3281,0.4453 0.5313,0.4453 0.8203,1.1328 0.2891,0.6875 0.4141,1.4687 0.125,0.7813 0.125,1.4844 0,1.6719 -0.4531,3.4063 -0.4532,1.7343 -1.25,3.3593 Q 8.0625,-3.6094 7.5312,-2.7812 7,-1.9531 6.3984,-1.2969 5.7969,-0.6406 5.0547,-0.1953 4.3125,0.25 3.5625,0.25 Z m 0.0469,-0.5781 q 0.7187,0 1.3906,-0.7813 Q 5.6562,-1.8906 6.1641,-3 6.6719,-4.1094 7.0547,-5.2812 7.4375,-6.4531 7.6094,-7.2656 H 3.125 q -0.3438,1.3906 -0.5391,2.3906 -0.1953,1 -0.1953,1.9688 0,2.5781 1.2032,2.5781 z M 3.2969,-8.0312 H 7.8125 Q 8.0469,-9 8.1875,-9.6484 q 0.1406,-0.6485 0.2344,-1.3672 0.0937,-0.7188 0.0937,-1.3438 0,-2.5781 -1.1718,-2.5781 -1.3907,0 -2.4063,2.25 -1.0156,2.25 -1.6406,4.6563 z"
       id="path18592" />
  </g>
  <g
     transform="translate(152.45086,86.693169)"
     style="font-size:17.3333px;font-family:SansSerif;color-interpolation:linearRGB;color-rendering:optimizeQuality;image-rendering:optimizeQuality;text-rendering:geometricPrecision"
     id="g18598">
    <path
       style="stroke:none"
       d="m 4.4062,0 v -10.7344 h -4 v -1.4375 h 9.6407 v 1.4375 H 6.0156 V 0 Z m 7.7471,0 v -12.1719 h 1.625 V 0 Z m 4.5756,0 v -12.1719 h 5.3906 q 1.625,0 2.4688,0.3281 0.8437,0.3282 1.3515,1.1563 0.5078,0.8281 0.5078,1.8437 0,1.2969 -0.8359,2.1797 -0.8359,0.8829 -2.5859,1.1329 0.6406,0.2968 0.9687,0.5937 0.7031,0.6563 1.3281,1.625 L 27.4476,0 H 25.4164 L 23.807,-2.5312 Q 23.1039,-3.625 22.6508,-4.2109 22.1976,-4.7969 21.8304,-5.0234 21.4633,-5.25 21.1039,-5.3438 20.8226,-5.4062 20.1976,-5.4062 H 18.3383 V 0 Z m 1.6094,-6.7969 h 3.4531 q 1.1094,0 1.7265,-0.2265 0.6172,-0.2266 0.9454,-0.7344 0.3281,-0.5078 0.3281,-1.086 0,-0.875 -0.625,-1.4296 -0.625,-0.5547 -1.9844,-0.5547 h -3.8437 z"
       id="path18596" />
  </g>
  <g
     transform="translate(348.45086,410.69317)"
     style="font-size:21.6667px;font-family:mwb_cmmi10;color-interpolation:linearRGB;color-rendering:optimizeQuality;image-rendering:optimizeQuality;text-rendering:geometricPrecision"
     id="g18602">
    <path
       style="stroke:none"
       d="m 3.5469,0.25 q -1,0 -1.6016,-0.7344 Q 1.3438,-1.2188 1.1094,-2.25 0.875,-3.2812 0.875,-4.2812 v -0.0313 q 0,-1.0937 0.2109,-2.2734 0.211,-1.1797 0.6094,-2.3594 0.3985,-1.1797 0.8672,-2.1016 0.3125,-0.6406 0.8281,-1.4375 0.5156,-0.7968 1.1406,-1.4844 0.625,-0.6874 1.3516,-1.1171 0.7266,-0.4297 1.461,-0.4297 H 7.375 q 0.7969,0 1.3281,0.4453 0.5313,0.4453 0.8203,1.1328 0.2891,0.6875 0.4141,1.4687 0.125,0.7813 0.125,1.4844 0,1.6719 -0.4531,3.4063 -0.4532,1.7343 -1.25,3.3593 Q 8.0625,-3.6094 7.5312,-2.7812 7,-1.9531 6.3984,-1.2969 5.7969,-0.6406 5.0547,-0.1953 4.3125,0.25 3.5625,0.25 Z m 0.0469,-0.5781 q 0.7187,0 1.3906,-0.7813 Q 5.6562,-1.8906 6.1641,-3 6.6719,-4.1094 7.0547,-5.2812 7.4375,-6.4531 7.6094,-7.2656 H 3.125 q -0.3438,1.3906 -0.5391,2.3906 -0.1953,1 -0.1953,1.9688 0,2.5781 1.2032,2.5781 z M 3.2969,-8.0312 H 7.8125 Q 8.0469,-9 8.1875,-9.6484 q 0.1406,-0.6485 0.2344,-1.3672 0.0937,-0.7188 0.0937,-1.3438 0,-2.5781 -1.1718,-2.5781 -1.3907,0 -2.4063,2.25 -1.0156,2.25 -1.6406,4.6563 z"
       id="path18600" />
  </g>
  <g
     transform="translate(359.45086,420.69317)"
     style="font-size:17.3333px;font-family:SansSerif;color-interpolation:linearRGB;color-rendering:optimizeQuality;image-rendering:optimizeQuality;text-rendering:geometricPrecision"
     id="g18606">
    <path
       style="stroke:none"
       d="m 0.7656,-3.9062 1.5156,-0.1407 q 0.1094,0.9219 0.5,1.5078 0.3907,0.586 1.2266,0.9453 0.836,0.3594 1.8672,0.3594 0.9219,0 1.625,-0.2734 0.7031,-0.2734 1.0547,-0.75 0.3515,-0.4766 0.3515,-1.0391 0,-0.5781 -0.3359,-1.0078 Q 8.2344,-4.7344 7.4688,-5.0156 6.9844,-5.2188 5.3047,-5.6172 3.625,-6.0156 2.9531,-6.375 2.0781,-6.8281 1.6562,-7.5078 1.2344,-8.1875 1.2344,-9.0156 q 0,-0.9219 0.5234,-1.7266 0.5234,-0.8047 1.5234,-1.2187 1,-0.4141 2.2344,-0.4141 1.3438,0 2.3828,0.4375 1.0391,0.4375 1.5938,1.2813 0.5547,0.8437 0.5859,1.9218 L 8.5469,-8.625 q -0.125,-1.1562 -0.8438,-1.7422 -0.7187,-0.5859 -2.125,-0.5859 -1.4531,0 -2.125,0.5312 -0.6719,0.5313 -0.6719,1.2969 0,0.6562 0.4688,1.0781 0.4688,0.4219 2.4297,0.8672 1.9609,0.4453 2.6953,0.7735 1.0625,0.4843 1.5703,1.2343 0.5078,0.75 0.5078,1.7344 0,0.9687 -0.5547,1.8281 Q 9.3438,-0.75 8.2969,-0.2734 7.25,0.2031 5.9531,0.2031 4.2969,0.2031 3.1797,-0.2734 2.0625,-0.75 1.4297,-1.7188 0.7969,-2.6875 0.7656,-3.9062 Z M 12.8598,0 v -12.1719 h 4.5938 q 1.2031,0 1.8437,0.125 0.9063,0.1407 1.5078,0.5625 0.6016,0.4219 0.9688,1.1797 0.3672,0.7578 0.3672,1.6485 0,1.5624 -0.9844,2.6328 -0.9844,1.0703 -3.5625,1.0703 h -3.125 V 0 Z m 1.6094,-6.3906 h 3.1406 q 1.5625,0 2.2188,-0.5782 0.6562,-0.5781 0.6562,-1.625 0,-0.7656 -0.3828,-1.3124 -0.3828,-0.5469 -1.0234,-0.7188 -0.4063,-0.1094 -1.5,-0.1094 H 14.4692 Z M 24.4384,0 v -12.1719 h 5.3906 q 1.625,0 2.4687,0.3281 0.8438,0.3282 1.3516,1.1563 0.5078,0.8281 0.5078,1.8437 0,1.2969 -0.8359,2.1797 -0.836,0.8829 -2.586,1.1329 0.6407,0.2968 0.9688,0.5937 0.7031,0.6563 1.3281,1.625 L 35.1571,0 H 33.1259 L 31.5165,-2.5312 Q 30.8134,-3.625 30.3602,-4.2109 29.9071,-4.7969 29.5399,-5.0234 29.1727,-5.25 28.8134,-5.3438 28.5321,-5.4062 27.9071,-5.4062 H 26.0477 V 0 Z m 1.6093,-6.7969 h 3.4532 q 1.1093,0 1.7265,-0.2265 0.6172,-0.2266 0.9453,-0.7344 0.3282,-0.5078 0.3282,-1.086 0,-0.875 -0.625,-1.4296 -0.625,-0.5547 -1.9844,-0.5547 h -3.8438 z"
       id="path18604" />
  </g>
  <text
     xml:space="preserve"
     style="font-size:26.6667px;font-family:sans-serif;-inkscape-font-specification:sans-serif;text-align:center;text-anchor:middle;fill:#000000;stroke:none;stroke-width:0.744567;stroke-linecap:square"
     x="-227.49113"
     y="22.60655"
     id="text19096"
     transform="rotate(-90)"><tspan
       id="tspan19094"
       x="-227.49113"
       y="22.60655"
       sodipodi:role="line">I<tspan
   style="font-size:65%;baseline-shift:sub"
   id="tspan19195">R</tspan></tspan></text>
  <g
     id="g2568"
     transform="matrix(9.1186554,0,0,9.1186554,70.732636,-560.77974)">
    <g
       transform="matrix(0.18684535,0,0,0.18684535,26.73328,115.12697)"
       style="font-style:normal;font-weight:normal;font-size:17.6px;font-family:mwb_cmmi10;color-interpolation:linearRGB;fill:#262626;fill-opacity:1;stroke:#262626;stroke-width:1;stroke-linecap:square;stroke-linejoin:miter;stroke-miterlimit:10;stroke-dasharray:none;stroke-dashoffset:0;stroke-opacity:1;color-rendering:optimizeQuality;image-rendering:optimizeQuality;shape-rendering:auto;text-rendering:geometricPrecision"
       id="g3886">
      <path
         style="stroke:none"
         d="m 2.9062,0.2031 q -0.8281,0 -1.3203,-0.6015 Q 1.0938,-1 0.9062,-1.8438 0.7188,-2.6875 0.7188,-3.5 v -0.0312 q 0,-0.8907 0.1718,-1.8594 0.1719,-0.9688 0.5,-1.9297 0.3282,-0.9609 0.7032,-1.7109 0.2656,-0.5313 0.6796,-1.1797 0.4141,-0.6485 0.9297,-1.2188 0.5157,-0.5703 1.1094,-0.9141 0.5937,-0.3437 1.2031,-0.3437 h 0.0156 q 0.6563,0 1.086,0.3594 0.4297,0.3593 0.6719,0.9219 0.2421,0.5624 0.3437,1.2031 0.1016,0.6406 0.1016,1.2187 0,1.3594 -0.375,2.7813 -0.375,1.4219 -1.0156,2.75 -0.25,0.5 -0.6876,1.1797 Q 5.7188,-1.5938 5.2344,-1.0625 4.75,-0.5312 4.1406,-0.1641 3.5312,0.2031 2.9219,0.2031 Z m 0.0313,-0.4687 q 0.5937,0 1.1406,-0.6406 0.5469,-0.6407 0.961,-1.5469 0.414,-0.9063 0.7265,-1.8672 0.3125,-0.9609 0.4688,-1.6172 H 2.5625 q -0.2813,1.125 -0.4453,1.9453 -0.1641,0.8203 -0.1641,1.6172 0,2.1094 0.9844,2.1094 z M 2.7031,-6.5781 h 3.6875 q 0.1875,-0.7813 0.3047,-1.3125 0.1172,-0.5313 0.1953,-1.125 0.0782,-0.5938 0.0782,-1.0938 0,-2.1094 -0.9532,-2.1094 -1.1406,0 -1.9765,1.836 -0.836,1.8359 -1.336,3.8047 z"
         id="path3884" />
    </g>
    <g
       transform="matrix(0.18684535,0,0,0.18684535,28.41489,116.62173)"
       style="font-style:normal;font-weight:normal;font-size:14.08px;font-family:Dialog;color-interpolation:linearRGB;fill:#262626;fill-opacity:1;stroke:#262626;stroke-width:1;stroke-linecap:square;stroke-linejoin:miter;stroke-miterlimit:10;stroke-dasharray:none;stroke-dashoffset:0;stroke-opacity:1;color-rendering:optimizeQuality;image-rendering:optimizeQuality;shape-rendering:auto;text-rendering:geometricPrecision"
       id="g3890">
      <path
         style="stroke:none"
         d="m 0.9375,-8.6094 v -1.4062 h 1.2187 v 1.4062 z M 0.9375,0 V -7.2656 H 2.1562 V 0 Z"
         id="path3888" />
    </g>
    <g
       transform="matrix(0.18684535,0,0,0.18684535,29.16227,115.12697)"
       style="font-style:normal;font-weight:normal;font-size:17.6px;font-family:Dialog;color-interpolation:linearRGB;fill:#262626;fill-opacity:1;stroke:#262626;stroke-width:1;stroke-linecap:square;stroke-linejoin:miter;stroke-miterlimit:10;stroke-dasharray:none;stroke-dashoffset:0;stroke-opacity:1;color-rendering:optimizeQuality;image-rendering:optimizeQuality;shape-rendering:auto;text-rendering:geometricPrecision"
       id="g3894">
      <path
         style="stroke:none"
         d="m 6.1069,3.5781 v -16.4687 h 3.5 v 1.3125 H 7.685 V 2.2656 h 1.9219 v 1.3125 z"
         id="path3892" />
    </g>
    <g
       transform="matrix(0.18684535,0,0,0.18684535,31.03072,113.6322)"
       style="font-style:normal;font-weight:normal;font-size:14.08px;font-family:Dialog;color-interpolation:linearRGB;fill:#262626;fill-opacity:1;stroke:#262626;stroke-width:1;stroke-linecap:square;stroke-linejoin:miter;stroke-miterlimit:10;stroke-dasharray:none;stroke-dashoffset:0;stroke-opacity:1;color-rendering:optimizeQuality;image-rendering:optimizeQuality;shape-rendering:auto;text-rendering:geometricPrecision"
       id="g3898">
      <path
         style="stroke:none"
         d="m 0.4688,-3.625 q 0,-2.0156 1.125,-3 0.9218,-0.7969 2.2812,-0.7969 1.4844,0 2.4375,0.9766 0.9531,0.9765 0.9531,2.7109 0,1.4063 -0.4218,2.211 -0.4219,0.8046 -1.2266,1.25 Q 4.8125,0.1719 3.875,0.1719 2.3438,0.1719 1.4062,-0.8125 0.4688,-1.7969 0.4688,-3.625 Z m 1.2656,0 q 0,1.3906 0.6094,2.0859 0.6093,0.6953 1.5312,0.6953 0.9062,0 1.5156,-0.7031 Q 6,-2.25 6,-3.6719 6,-5.0156 5.3906,-5.7109 4.7812,-6.4062 3.875,-6.4062 q -0.9219,0 -1.5312,0.6874 -0.6094,0.6876 -0.6094,2.0938 z"
         id="path3896" />
    </g>
    <g
       transform="matrix(0.18684535,0,0,0.18684535,32.52549,115.12697)"
       style="font-style:normal;font-weight:normal;font-size:17.6px;font-family:Dialog;color-interpolation:linearRGB;fill:#262626;fill-opacity:1;stroke:#262626;stroke-width:1;stroke-linecap:square;stroke-linejoin:miter;stroke-miterlimit:10;stroke-dasharray:none;stroke-dashoffset:0;stroke-opacity:1;color-rendering:optimizeQuality;image-rendering:optimizeQuality;shape-rendering:auto;text-rendering:geometricPrecision"
       id="g3902">
      <path
         style="stroke:none"
         d="M 3.8281,3.5781 H 0.3438 V 2.2656 H 2.25 V -11.5781 H 0.3438 v -1.3125 h 3.4843 z"
         id="path3900" />
    </g>
  </g>
</svg>
