<?xml version="1.0" encoding="utf-8" standalone="no"?>
<!DOCTYPE svg PUBLIC "-//W3C//DTD SVG 1.1//EN"
  "http://www.w3.org/Graphics/SVG/1.1/DTD/svg11.dtd">
<svg xmlns:xlink="http://www.w3.org/1999/xlink" width="1152pt" height="648pt" viewBox="0 0 1152 648" xmlns="http://www.w3.org/2000/svg" version="1.1">
 <metadata>
  <rdf:RDF xmlns:dc="http://purl.org/dc/elements/1.1/" xmlns:cc="http://creativecommons.org/ns#" xmlns:rdf="http://www.w3.org/1999/02/22-rdf-syntax-ns#">
   <cc:Work>
    <dc:type rdf:resource="http://purl.org/dc/dcmitype/StillImage"/>
    <dc:date>2024-11-30T08:30:43.800162</dc:date>
    <dc:format>image/svg+xml</dc:format>
    <dc:creator>
     <cc:Agent>
      <dc:title>Matplotlib v3.8.2, https://matplotlib.org/</dc:title>
     </cc:Agent>
    </dc:creator>
   </cc:Work>
  </rdf:RDF>
 </metadata>
 <defs>
  <style type="text/css">*{stroke-linejoin: round; stroke-linecap: butt}</style>
 </defs>
 <g id="figure_1">
  <g id="patch_1">
   <path d="M 0 648 
L 1152 648 
L 1152 0 
L 0 0 
z
"/>
  </g>
  <g id="axes_1">
   <g id="text_1">
    <!-- root3d -->
    <g style="fill: #ffffff" transform="translate(556.974573 42.025565) scale(0.2 -0.2)">
     <defs>
      <path id="CMSS17-72" d="M 954 1363 
C 954 1965 1395 2368 1958 2368 
L 1958 2789 
C 1549 2789 1165 2585 934 2253 
L 934 2758 
L 480 2758 
L 480 0 
L 954 0 
L 954 1363 
z
" transform="scale(0.015625)"/>
      <path id="CMSS17-6f" d="M 2829 1356 
C 2829 2176 2221 2816 1504 2816 
C 768 2816 173 2157 173 1356 
C 173 544 787 -64 1498 -64 
C 2227 -64 2829 563 2829 1356 
z
M 1504 337 
C 1050 337 659 709 659 1408 
C 659 2151 1114 2427 1498 2427 
C 1914 2427 2342 2126 2342 1408 
C 2342 683 1926 337 1504 337 
z
" transform="scale(0.015625)"/>
      <path id="CMSS17-74" d="M 1069 2368 
L 1901 2368 
L 1901 2737 
L 1069 2737 
L 1069 3520 
L 614 3520 
L 614 2737 
L 109 2737 
L 109 2368 
L 602 2368 
L 602 749 
C 602 384 685 -64 1107 -64 
C 1427 -64 1722 25 2003 172 
L 1901 548 
C 1747 414 1562 337 1363 337 
C 1082 337 1069 696 1069 856 
L 1069 2368 
z
" transform="scale(0.015625)"/>
      <path id="CMSS17-33" d="M 1005 2025 
L 1440 2025 
C 2042 2025 2214 1507 2214 1146 
C 2214 653 1933 267 1472 267 
C 1114 267 608 444 320 912 
C 275 691 275 678 250 526 
C 550 88 1037 -128 1485 -128 
C 2214 -128 2752 473 2752 1138 
C 2752 1638 2400 2057 1920 2215 
C 2304 2424 2586 2816 2586 3273 
C 2586 3805 2093 4229 1491 4229 
C 941 4229 512 3892 333 3530 
C 378 3468 493 3284 550 3189 
C 691 3562 1056 3840 1485 3840 
C 1843 3840 2080 3607 2080 3271 
C 2080 2923 1856 2543 1478 2455 
C 1453 2455 1056 2417 1005 2411 
L 1005 2025 
z
" transform="scale(0.015625)"/>
      <path id="CMSS17-64" d="M 2611 4416 
L 2138 4416 
L 2138 2438 
C 1939 2603 1613 2756 1254 2756 
C 672 2756 211 2131 211 1347 
C 211 562 666 -64 1235 -64 
C 1677 -64 1971 172 2125 306 
L 2125 -13 
L 2611 -13 
L 2611 4416 
z
M 2125 836 
C 2125 747 2125 653 1926 482 
C 1798 375 1645 325 1498 325 
C 1152 325 698 576 698 1340 
C 698 2134 1210 2368 1562 2368 
C 1798 2368 1990 2254 2125 2065 
L 2125 836 
z
" transform="scale(0.015625)"/>
     </defs>
     <use xlink:href="#CMSS17-72" transform="scale(0.996264)"/>
     <use xlink:href="#CMSS17-6f" transform="translate(31.909773 0) scale(0.996264)"/>
     <use xlink:href="#CMSS17-6f" transform="translate(81.355835 0) scale(0.996264)"/>
     <use xlink:href="#CMSS17-74" transform="translate(128.199458 0) scale(0.996264)"/>
     <use xlink:href="#CMSS17-33" transform="translate(162.031025 0) scale(0.996264)"/>
     <use xlink:href="#CMSS17-64" transform="translate(208.874649 0) scale(0.996264)"/>
    </g>
   </g>
  </g>
  <g id="axes_2">
   <g id="line2d_1">
    <path d="M -1 317.801786 
L 1153 317.801786 
" clip-path="url(#p32e45166f8)" style="fill: none; stroke-dasharray: 1.5,2.475; stroke-dashoffset: 0; stroke: #999999; stroke-width: 1.5"/>
   </g>
   <g id="line2d_2">
    <path d="M 398.622223 -1 
L 773.899898 649 
" clip-path="url(#p32e45166f8)" style="fill: none; stroke-dasharray: 1.5,2.475; stroke-dashoffset: 0; stroke: #999999; stroke-width: 1.5"/>
   </g>
   <g id="line2d_3">
    <path d="M 847.177827 649 
L 1153 119.300458 
" clip-path="url(#p32e45166f8)" style="fill: none; stroke-dasharray: 1.5,2.475; stroke-dashoffset: 0; stroke: #999999; stroke-width: 1.5"/>
   </g>
   <g id="line2d_4">
    <path d="M 391.465142 649 
L 766.742817 -1 
" clip-path="url(#p32e45166f8)" style="fill: none; stroke-dasharray: 1.5,2.475; stroke-dashoffset: 0; stroke: #ff3333; stroke-width: 1.5"/>
   </g>
   <g id="line2d_5">
    <path d="M 854.334908 -1 
L 1153 516.303114 
" clip-path="url(#p32e45166f8)" style="fill: none; stroke-dasharray: 1.5,2.475; stroke-dashoffset: 0; stroke: #ff3333; stroke-width: 1.5"/>
   </g>
   <g id="line2d_6">
    <path d="M 810.538862 649 
L 810.538862 -1 
" clip-path="url(#p32e45166f8)" style="fill: none; stroke-dasharray: 1.5,2.475; stroke-dashoffset: 0; stroke: #999999; stroke-width: 1.5"/>
   </g>
   <g id="line2d_7">
    <path d="M 30.501628 -1 
L 1153 647.074737 
" clip-path="url(#p32e45166f8)" style="fill: none; stroke-dasharray: 1.5,2.475; stroke-dashoffset: 0; stroke: #999999; stroke-width: 1.5"/>
   </g>
   <g id="line2d_8">
    <path d="M 464.743071 649 
L 1153 251.634677 
" clip-path="url(#p32e45166f8)" style="fill: none; stroke-dasharray: 1.5,2.475; stroke-dashoffset: 0; stroke: #999999; stroke-width: 1.5"/>
   </g>
   <g id="line2d_9">
    <path clip-path="url(#p32e45166f8)" style="fill: none; stroke-dasharray: 1.5,2.475; stroke-dashoffset: 0; stroke: #ff3333; stroke-width: 1.5"/>
   </g>
   <g id="patch_2">
    <path d="M 582.68252 773.514471 
C 703.538937 773.514471 819.461658 725.497708 904.92005 640.039316 
C 990.378442 554.580924 1038.395205 438.658203 1038.395205 317.801786 
C 1038.395205 196.945369 990.378442 81.022648 904.92005 -4.435744 
C 819.461658 -89.894136 703.538937 -137.910899 582.68252 -137.910899 
C 461.826103 -137.910899 345.903382 -89.894136 260.44499 -4.435744 
C 174.986598 81.022648 126.969834 196.945369 126.969834 317.801786 
C 126.969834 438.658203 174.986598 554.580924 260.44499 640.039316 
C 345.903382 725.497708 461.826103 773.514471 582.68252 773.514471 
" clip-path="url(#p32e45166f8)" style="fill: none; stroke-dasharray: 1.5,2.475; stroke-dashoffset: 0; stroke: #cc0099; stroke-width: 1.5; stroke-linejoin: miter"/>
   </g>
   <g id="patch_3">
    <path d="M 1038.395205 773.514471 
C 1159.251622 773.514471 1275.174343 725.497708 1360.632735 640.039316 
C 1446.091127 554.580924 1494.10789 438.658203 1494.10789 317.801786 
C 1494.10789 196.945369 1446.091127 81.022648 1360.632735 -4.435744 
C 1275.174343 -89.894136 1159.251622 -137.910899 1038.395205 -137.910899 
C 917.538788 -137.910899 801.616067 -89.894136 716.157675 -4.435744 
C 630.699283 81.022648 582.68252 196.945369 582.68252 317.801786 
C 582.68252 438.658203 630.699283 554.580924 716.157675 640.039316 
C 801.616067 725.497708 917.538788 773.514471 1038.395205 773.514471 
" clip-path="url(#p32e45166f8)" style="fill: none; stroke-dasharray: 1.5,2.475; stroke-dashoffset: 0; stroke: #cc0099; stroke-width: 1.5; stroke-linejoin: miter"/>
   </g>
   <g id="patch_4">
    <path d="M 810.538862 975.56639 
C 950.091832 975.56639 1083.947861 920.121408 1182.626712 821.442556 
C 1281.305563 722.763705 1336.750545 588.907677 1336.750545 449.354707 
C 1336.750545 309.801737 1281.305563 175.945709 1182.626712 77.266858 
C 1083.947861 -21.411994 950.091832 -76.856976 810.538862 -76.856976 
C 670.985893 -76.856976 537.129864 -21.411994 438.451013 77.266858 
C 339.772162 175.945709 284.327179 309.801737 284.327179 449.354707 
C 284.327179 588.907677 339.772162 722.763705 438.451013 821.442556 
C 537.129864 920.121408 670.985893 975.56639 810.538862 975.56639 
" clip-path="url(#p32e45166f8)" style="fill: none; stroke-dasharray: 1.5,2.475; stroke-dashoffset: 0; stroke: #cc0099; stroke-width: 1.5; stroke-linejoin: miter"/>
   </g>
   <g id="patch_5">
    <path d="M 810.538862 1168.173234 
C 931.395279 1168.173234 1047.318 1120.15647 1132.776392 1034.698079 
C 1218.234784 949.239687 1266.251548 833.316965 1266.251548 712.460548 
C 1266.251548 591.604132 1218.234784 475.68141 1132.776392 390.223018 
C 1047.318 304.764627 931.395279 256.747863 810.538862 256.747863 
C 689.682446 256.747863 573.759724 304.764627 488.301332 390.223018 
C 402.84294 475.68141 354.826177 591.604132 354.826177 712.460548 
C 354.826177 833.316965 402.84294 949.239687 488.301332 1034.698079 
C 573.759724 1120.15647 689.682446 1168.173234 810.538862 1168.173234 
" clip-path="url(#p32e45166f8)" style="fill: none; stroke-dasharray: 1.5,2.475; stroke-dashoffset: 0; stroke: #cc0099; stroke-width: 1.5; stroke-linejoin: miter"/>
   </g>
   <g id="patch_6">
    <path d="M 810.538862 -76.856976 
L 354.826177 712.460548 
L 1266.251548 712.460548 
z
" clip-path="url(#p32e45166f8)" style="fill: #ff3333; fill-opacity: 0.4; stroke: #ff3333; stroke-linejoin: miter"/>
   </g>
   <g id="patch_7">
    <path d="M 810.538862 -76.856976 
L 1179.218169 73.889257 
L 1320.041134 317.801786 
L 1266.251548 712.460548 
L 951.361827 956.373078 
L 669.715898 956.373078 
L 354.826177 712.460548 
L 301.036591 317.801786 
L 441.859555 73.889257 
z
" clip-path="url(#p32e45166f8)" style="fill: #3366cc; fill-opacity: 0.2; stroke: #3366cc; stroke-opacity: 0.6; stroke-linejoin: miter"/>
   </g>
   <g id="line2d_10">
    <defs>
     <path id="m800a74bed0" d="M 0 4 
C 1.060812 4 2.078319 3.578535 2.828427 2.828427 
C 3.578535 2.078319 4 1.060812 4 0 
C 4 -1.060812 3.578535 -2.078319 2.828427 -2.828427 
C 2.078319 -3.578535 1.060812 -4 0 -4 
C -1.060812 -4 -2.078319 -3.578535 -2.828427 -2.828427 
C -3.578535 -2.078319 -4 -1.060812 -4 0 
C -4 1.060812 -3.578535 2.078319 -2.828427 2.828427 
C -2.078319 3.578535 -1.060812 4 0 4 
z
" style="stroke: #ffffff"/>
    </defs>
    <g clip-path="url(#p32e45166f8)">
     <use xlink:href="#m800a74bed0" x="582.68252" y="317.801786" style="fill: #ffffff; stroke: #ffffff"/>
    </g>
   </g>
   <g id="line2d_11">
    <g clip-path="url(#p32e45166f8)">
     <use xlink:href="#m800a74bed0" x="1038.395205" y="317.801786" style="fill: #ffffff; stroke: #ffffff"/>
    </g>
   </g>
   <g id="line2d_12">
    <defs>
     <path id="md7ada1ebd5" d="M 0 2 
C 0.530406 2 1.03916 1.789267 1.414214 1.414214 
C 1.789267 1.03916 2 0.530406 2 0 
C 2 -0.530406 1.789267 -1.03916 1.414214 -1.414214 
C 1.03916 -1.789267 0.530406 -2 0 -2 
C -0.530406 -2 -1.03916 -1.789267 -1.414214 -1.414214 
C -1.789267 -1.03916 -2 -0.530406 -2 0 
C -2 0.530406 -1.789267 1.03916 -1.414214 1.414214 
C -1.03916 1.789267 -0.530406 2 0 2 
z
" style="stroke: #000000"/>
    </defs>
    <g clip-path="url(#p32e45166f8)">
     <use xlink:href="#md7ada1ebd5" x="582.68252" y="317.801786" style="stroke: #000000"/>
    </g>
   </g>
   <g id="line2d_13">
    <g clip-path="url(#p32e45166f8)">
     <use xlink:href="#md7ada1ebd5" x="1038.395205" y="317.801786" style="stroke: #000000"/>
    </g>
   </g>
   <g id="line2d_14">
    <g clip-path="url(#p32e45166f8)">
     <use xlink:href="#md7ada1ebd5" x="126.969834" y="317.801786" style="stroke: #000000"/>
    </g>
   </g>
   <g id="line2d_15">
    <g clip-path="url(#p32e45166f8)">
     <use xlink:href="#md7ada1ebd5" x="1494.10789" y="317.801786" style="stroke: #000000"/>
    </g>
   </g>
   <g id="line2d_16">
    <g clip-path="url(#p32e45166f8)">
     <use xlink:href="#md7ada1ebd5" x="810.538862" y="712.460548" style="stroke: #000000"/>
    </g>
   </g>
   <g id="line2d_17">
    <g clip-path="url(#p32e45166f8)"/>
   </g>
   <g id="line2d_18">
    <g clip-path="url(#p32e45166f8)"/>
   </g>
   <g id="line2d_19">
    <g clip-path="url(#p32e45166f8)"/>
   </g>
   <g id="line2d_20">
    <g clip-path="url(#p32e45166f8)">
     <use xlink:href="#md7ada1ebd5" x="354.826177" y="712.460548" style="stroke: #000000"/>
    </g>
   </g>
   <g id="line2d_21">
    <g clip-path="url(#p32e45166f8)">
     <use xlink:href="#md7ada1ebd5" x="1266.251548" y="712.460548" style="stroke: #000000"/>
    </g>
   </g>
   <g id="line2d_22">
    <g clip-path="url(#p32e45166f8)">
     <use xlink:href="#md7ada1ebd5" x="810.538862" y="317.801786" style="stroke: #000000"/>
    </g>
   </g>
   <g id="line2d_23">
    <g clip-path="url(#p32e45166f8)">
     <use xlink:href="#md7ada1ebd5" x="188.023757" y="89.945444" style="stroke: #000000"/>
    </g>
   </g>
   <g id="line2d_24">
    <g clip-path="url(#p32e45166f8)">
     <use xlink:href="#md7ada1ebd5" x="977.341282" y="545.658129" style="stroke: #000000"/>
    </g>
   </g>
   <g id="line2d_25">
    <g clip-path="url(#p32e45166f8)">
     <use xlink:href="#md7ada1ebd5" x="924.467034" y="515.131167" style="stroke: #000000"/>
    </g>
   </g>
   <g id="line2d_26">
    <g clip-path="url(#p32e45166f8)">
     <use xlink:href="#md7ada1ebd5" x="810.538862" y="449.354707" style="stroke: #000000"/>
    </g>
   </g>
   <g id="line2d_27">
    <g clip-path="url(#p32e45166f8)">
     <use xlink:href="#md7ada1ebd5" x="643.736443" y="545.658129" style="stroke: #000000"/>
    </g>
   </g>
   <g id="line2d_28">
    <g clip-path="url(#p32e45166f8)">
     <use xlink:href="#md7ada1ebd5" x="1433.053967" y="89.945444" style="stroke: #000000"/>
    </g>
   </g>
   <g id="line2d_29">
    <g clip-path="url(#p32e45166f8)">
     <use xlink:href="#md7ada1ebd5" x="696.610691" y="515.131167" style="stroke: #000000"/>
    </g>
   </g>
   <g id="line2d_30">
    <g clip-path="url(#p32e45166f8)">
     <use xlink:href="#md7ada1ebd5" x="301.036591" y="317.801786" style="stroke: #000000"/>
    </g>
   </g>
   <g id="line2d_31">
    <g clip-path="url(#p32e45166f8)">
     <use xlink:href="#md7ada1ebd5" x="1320.041134" y="317.801786" style="stroke: #000000"/>
    </g>
   </g>
   <g id="line2d_32">
    <g clip-path="url(#p32e45166f8)">
     <use xlink:href="#md7ada1ebd5" x="951.361827" y="956.373078" style="stroke: #000000"/>
    </g>
   </g>
   <g id="line2d_33">
    <g clip-path="url(#p32e45166f8)">
     <use xlink:href="#md7ada1ebd5" x="441.859555" y="73.889257" style="stroke: #000000"/>
    </g>
   </g>
   <g id="line2d_34">
    <g clip-path="url(#p32e45166f8)">
     <use xlink:href="#md7ada1ebd5" x="669.715898" y="956.373078" style="stroke: #000000"/>
    </g>
   </g>
   <g id="line2d_35">
    <g clip-path="url(#p32e45166f8)">
     <use xlink:href="#md7ada1ebd5" x="1179.218169" y="73.889257" style="stroke: #000000"/>
    </g>
   </g>
   <g id="line2d_36">
    <g clip-path="url(#p32e45166f8)">
     <use xlink:href="#md7ada1ebd5" x="810.538862" y="975.56639" style="stroke: #000000"/>
    </g>
   </g>
   <g id="line2d_37">
    <g clip-path="url(#p32e45166f8)">
     <use xlink:href="#md7ada1ebd5" x="354.826177" y="186.248865" style="stroke: #000000"/>
    </g>
   </g>
   <g id="line2d_38">
    <g clip-path="url(#p32e45166f8)">
     <use xlink:href="#md7ada1ebd5" x="1266.251548" y="186.248865" style="stroke: #000000"/>
    </g>
   </g>
   <g id="line2d_39">
    <g clip-path="url(#p32e45166f8)">
     <use xlink:href="#md7ada1ebd5" x="1038.395205" y="1107.119311" style="stroke: #000000"/>
    </g>
   </g>
   <g id="line2d_40">
    <g clip-path="url(#p32e45166f8)">
     <use xlink:href="#md7ada1ebd5" x="582.68252" y="1107.119311" style="stroke: #000000"/>
    </g>
   </g>
   <g id="line2d_41">
    <g clip-path="url(#p32e45166f8)">
     <use xlink:href="#md7ada1ebd5" x="810.538862" y="1168.173234" style="stroke: #000000"/>
    </g>
   </g>
   <g id="line2d_42">
    <g clip-path="url(#p32e45166f8)">
     <use xlink:href="#md7ada1ebd5" x="810.538862" y="256.747863" style="stroke: #000000"/>
    </g>
   </g>
   <g id="line2d_43">
    <defs>
     <path id="m612fdbf34e" d="M 0 1.25 
C 0.331504 1.25 0.649475 1.118292 0.883883 0.883883 
C 1.118292 0.649475 1.25 0.331504 1.25 0 
C 1.25 -0.331504 1.118292 -0.649475 0.883883 -0.883883 
C 0.649475 -1.118292 0.331504 -1.25 0 -1.25 
C -0.331504 -1.25 -0.649475 -1.118292 -0.883883 -0.883883 
C -1.118292 -0.649475 -1.25 -0.331504 -1.25 0 
C -1.25 0.331504 -1.118292 0.649475 -0.883883 0.883883 
C -0.649475 1.118292 -0.331504 1.25 0 1.25 
z
" style="stroke: #ffffff"/>
    </defs>
    <g clip-path="url(#p32e45166f8)">
     <use xlink:href="#m612fdbf34e" x="582.68252" y="317.801786" style="fill: #ffffff; stroke: #ffffff"/>
    </g>
   </g>
   <g id="line2d_44">
    <g clip-path="url(#p32e45166f8)">
     <use xlink:href="#m612fdbf34e" x="1038.395205" y="317.801786" style="fill: #ffffff; stroke: #ffffff"/>
    </g>
   </g>
   <g id="line2d_45">
    <g clip-path="url(#p32e45166f8)">
     <use xlink:href="#m612fdbf34e" x="126.969834" y="317.801786" style="fill: #ffffff; stroke: #ffffff"/>
    </g>
   </g>
   <g id="line2d_46">
    <g clip-path="url(#p32e45166f8)">
     <use xlink:href="#m612fdbf34e" x="1494.10789" y="317.801786" style="fill: #ffffff; stroke: #ffffff"/>
    </g>
   </g>
   <g id="line2d_47">
    <g clip-path="url(#p32e45166f8)">
     <use xlink:href="#m612fdbf34e" x="810.538862" y="712.460548" style="fill: #ffffff; stroke: #ffffff"/>
    </g>
   </g>
   <g id="line2d_48">
    <g clip-path="url(#p32e45166f8)"/>
   </g>
   <g id="line2d_49">
    <g clip-path="url(#p32e45166f8)"/>
   </g>
   <g id="line2d_50">
    <g clip-path="url(#p32e45166f8)"/>
   </g>
   <g id="line2d_51">
    <g clip-path="url(#p32e45166f8)">
     <use xlink:href="#m612fdbf34e" x="354.826177" y="712.460548" style="fill: #ffffff; stroke: #ffffff"/>
    </g>
   </g>
   <g id="line2d_52">
    <g clip-path="url(#p32e45166f8)">
     <use xlink:href="#m612fdbf34e" x="1266.251548" y="712.460548" style="fill: #ffffff; stroke: #ffffff"/>
    </g>
   </g>
   <g id="line2d_53">
    <g clip-path="url(#p32e45166f8)">
     <use xlink:href="#m612fdbf34e" x="810.538862" y="317.801786" style="fill: #ffffff; stroke: #ffffff"/>
    </g>
   </g>
   <g id="line2d_54">
    <g clip-path="url(#p32e45166f8)">
     <use xlink:href="#m612fdbf34e" x="188.023757" y="89.945444" style="fill: #ffffff; stroke: #ffffff"/>
    </g>
   </g>
   <g id="line2d_55">
    <g clip-path="url(#p32e45166f8)">
     <use xlink:href="#m612fdbf34e" x="977.341282" y="545.658129" style="fill: #ffffff; stroke: #ffffff"/>
    </g>
   </g>
   <g id="line2d_56">
    <g clip-path="url(#p32e45166f8)">
     <use xlink:href="#m612fdbf34e" x="924.467034" y="515.131167" style="fill: #ffffff; stroke: #ffffff"/>
    </g>
   </g>
   <g id="line2d_57">
    <g clip-path="url(#p32e45166f8)">
     <use xlink:href="#m612fdbf34e" x="810.538862" y="449.354707" style="fill: #ffffff; stroke: #ffffff"/>
    </g>
   </g>
   <g id="line2d_58">
    <g clip-path="url(#p32e45166f8)">
     <use xlink:href="#m612fdbf34e" x="643.736443" y="545.658129" style="fill: #ffffff; stroke: #ffffff"/>
    </g>
   </g>
   <g id="line2d_59">
    <g clip-path="url(#p32e45166f8)">
     <use xlink:href="#m612fdbf34e" x="1433.053967" y="89.945444" style="fill: #ffffff; stroke: #ffffff"/>
    </g>
   </g>
   <g id="line2d_60">
    <g clip-path="url(#p32e45166f8)">
     <use xlink:href="#m612fdbf34e" x="696.610691" y="515.131167" style="fill: #ffffff; stroke: #ffffff"/>
    </g>
   </g>
   <g id="line2d_61">
    <g clip-path="url(#p32e45166f8)">
     <use xlink:href="#m612fdbf34e" x="301.036591" y="317.801786" style="fill: #ffffff; stroke: #ffffff"/>
    </g>
   </g>
   <g id="line2d_62">
    <g clip-path="url(#p32e45166f8)">
     <use xlink:href="#m612fdbf34e" x="1320.041134" y="317.801786" style="fill: #ffffff; stroke: #ffffff"/>
    </g>
   </g>
   <g id="line2d_63">
    <g clip-path="url(#p32e45166f8)">
     <use xlink:href="#m612fdbf34e" x="951.361827" y="956.373078" style="fill: #ffffff; stroke: #ffffff"/>
    </g>
   </g>
   <g id="line2d_64">
    <g clip-path="url(#p32e45166f8)">
     <use xlink:href="#m612fdbf34e" x="441.859555" y="73.889257" style="fill: #ffffff; stroke: #ffffff"/>
    </g>
   </g>
   <g id="line2d_65">
    <g clip-path="url(#p32e45166f8)">
     <use xlink:href="#m612fdbf34e" x="669.715898" y="956.373078" style="fill: #ffffff; stroke: #ffffff"/>
    </g>
   </g>
   <g id="line2d_66">
    <g clip-path="url(#p32e45166f8)">
     <use xlink:href="#m612fdbf34e" x="1179.218169" y="73.889257" style="fill: #ffffff; stroke: #ffffff"/>
    </g>
   </g>
   <g id="line2d_67">
    <g clip-path="url(#p32e45166f8)">
     <use xlink:href="#m612fdbf34e" x="810.538862" y="975.56639" style="fill: #ffffff; stroke: #ffffff"/>
    </g>
   </g>
   <g id="line2d_68">
    <g clip-path="url(#p32e45166f8)">
     <use xlink:href="#m612fdbf34e" x="354.826177" y="186.248865" style="fill: #ffffff; stroke: #ffffff"/>
    </g>
   </g>
   <g id="line2d_69">
    <g clip-path="url(#p32e45166f8)">
     <use xlink:href="#m612fdbf34e" x="1266.251548" y="186.248865" style="fill: #ffffff; stroke: #ffffff"/>
    </g>
   </g>
   <g id="line2d_70">
    <g clip-path="url(#p32e45166f8)">
     <use xlink:href="#m612fdbf34e" x="1038.395205" y="1107.119311" style="fill: #ffffff; stroke: #ffffff"/>
    </g>
   </g>
   <g id="line2d_71">
    <g clip-path="url(#p32e45166f8)">
     <use xlink:href="#m612fdbf34e" x="582.68252" y="1107.119311" style="fill: #ffffff; stroke: #ffffff"/>
    </g>
   </g>
   <g id="line2d_72">
    <g clip-path="url(#p32e45166f8)">
     <use xlink:href="#m612fdbf34e" x="810.538862" y="1168.173234" style="fill: #ffffff; stroke: #ffffff"/>
    </g>
   </g>
   <g id="line2d_73">
    <g clip-path="url(#p32e45166f8)">
     <use xlink:href="#m612fdbf34e" x="810.538862" y="256.747863" style="fill: #ffffff; stroke: #ffffff"/>
    </g>
   </g>
  </g>
  <g id="axes_3"/>
 </g>
 <defs>
  <clipPath id="p32e45166f8">
   <rect x="96.588989" y="89.945444" width="972.187062" height="455.712685"/>
  </clipPath>
 </defs>
</svg>
