<?xml version="1.0" standalone="no"?>
<!DOCTYPE svg PUBLIC "-//W3C//DTD SVG 20010904//EN"
 "http://www.w3.org/TR/2001/REC-SVG-20010904/DTD/svg10.dtd">
<svg version="1.0" xmlns="http://www.w3.org/2000/svg"
 width="192.000000pt" height="192.000000pt" viewBox="0 0 192.000000 192.000000"
 preserveAspectRatio="xMidYMid meet">
<metadata>
Created by potrace 1.16, written by Peter Selinger 2001-2019
</metadata>
<g transform="translate(0.000000,192.000000) scale(0.100000,-0.100000)"
fill="#000000" stroke="none">
<path d="M0 960 l0 -960 960 0 960 0 0 960 0 960 -960 0 -960 0 0 -960z m467
546 c34 -98 60 -183 57 -187 -3 -5 -20 -9 -39 -9 -30 0 -35 4 -47 43 l-15 42
-61 3 c-60 3 -62 2 -72 -25 -6 -15 -14 -35 -19 -43 -9 -16 -81 -27 -81 -12 0
11 118 350 126 364 3 5 24 8 47 6 l41 -3 63 -179z m183 17 l1 -168 21 30 c92
126 263 193 428 168 197 -31 337 -164 371 -353 16 -91 3 -168 -46 -267 -36
-72 -50 -84 -72 -62 -17 17 -86 14 -115 -5 -60 -39 -61 -126 -3 -173 l35 -28
0 -103 c0 -103 0 -103 -22 -95 -13 4 -40 8 -62 7 -54 0 -99 -49 -94 -102 l3
-37 -130 0 -130 0 -5 110 -5 110 -90 5 c-49 3 -101 12 -113 19 -39 21 -62 85
-62 178 l0 81 -32 7 c-40 9 -58 22 -58 44 0 9 25 59 56 111 46 77 58 107 65
161 4 36 14 84 22 107 14 41 14 41 -12 44 l-26 3 -3 175 c-1 96 0 180 2 187 3
7 21 13 41 13 l35 0 0 -167z m979 -640 c11 -10 24 -32 27 -50 5 -26 1 -37 -19
-57 -15 -14 -36 -26 -49 -26 -18 0 -30 -14 -57 -63 -33 -61 -34 -65 -18 -88
19 -27 22 -80 6 -96 -8 -8 2 -22 35 -49 36 -30 54 -38 77 -36 64 7 104 -73 59
-118 -46 -46 -126 -9 -118 56 3 29 -2 40 -37 74 -38 37 -44 40 -69 30 -20 -7
-36 -6 -62 5 -34 14 -37 13 -67 -9 -48 -35 -54 -37 -61 -21 -3 9 10 25 38 44
38 26 42 33 38 60 -2 18 2 41 11 55 14 21 14 26 -14 67 -16 24 -35 43 -41 41
-23 -6 -67 20 -78 47 -30 72 65 136 120 81 22 -22 27 -79 9 -97 -8 -8 -3 -23
19 -55 24 -35 36 -44 59 -43 24 0 33 9 61 60 27 49 31 64 22 83 -18 41 -12 79
16 101 33 26 65 27 93 4z"/>
<path d="M954 1426 c-33 -27 -38 -84 -12 -113 15 -17 15 -21 -8 -60 -25 -41
-25 -41 -55 -26 -89 44 -171 -68 -105 -144 20 -23 32 -28 69 -27 l45 1 43 -79
c24 -43 49 -78 55 -78 6 0 27 7 47 15 30 12 37 12 47 0 28 -34 96 -26 127 14
16 20 16 63 2 95 -10 22 -7 32 21 75 26 42 37 51 60 51 42 0 59 9 75 41 20 38
19 62 -6 93 -15 20 -29 26 -58 26 -39 0 -81 -23 -81 -44 0 -15 -21 -26 -48
-26 -9 0 -33 16 -54 37 -34 34 -37 39 -31 79 5 37 2 46 -20 68 -33 33 -77 34
-113 2z m136 -171 c18 -19 32 -36 29 -39 -2 -2 -32 -18 -66 -35 -74 -37 -123
-41 -123 -11 0 30 52 109 75 113 43 9 52 6 85 -28z m133 -62 c13 -26 12 -32
-20 -80 -29 -46 -38 -53 -65 -53 -22 0 -42 10 -65 32 -18 18 -33 35 -33 39 0
10 103 69 138 79 15 5 28 9 29 9 1 1 9 -11 16 -26z m-179 -112 c32 -33 36 -42
27 -59 -6 -11 -11 -30 -11 -41 0 -13 -12 -27 -31 -37 -36 -18 -30 -24 -85 73
-43 77 -37 103 24 103 31 0 45 -7 76 -39z"/>
</g>
</svg>
