<?xml version="1.0" encoding="UTF-8" standalone="no"?>
<!DOCTYPE svg PUBLIC "-//W3C//DTD SVG 1.1//EN"
 "http://www.w3.org/Graphics/SVG/1.1/DTD/svg11.dtd">
<!-- Generated by graphviz version 2.43.0 (0)
 -->
<!-- Title: %3 Pages: 1 -->
<svg width="953pt" height="671pt"
 viewBox="0.00 0.00 953.00 671.00" xmlns="http://www.w3.org/2000/svg" xmlns:xlink="http://www.w3.org/1999/xlink">
<g id="graph0" class="graph" transform="scale(1 1) rotate(0) translate(4 667)">
<title>%3</title>
<polygon fill="white" stroke="transparent" points="-4,4 -4,-667 949,-667 949,4 -4,4"/>
<g id="clust1" class="cluster">
<title>cluster__legend</title>
<polygon fill="#ffffff" stroke="black" points="8,-560 8,-639 392,-639 392,-560 8,-560"/>
<text text-anchor="middle" x="200" y="-623.8" font-family="Helvetica,sans-Serif" font-size="14.00">Legend</text>
</g>
<!-- input -->
<g id="node1" class="node">
<title>input</title>
<polygon fill="#ffffff" stroke="black" stroke-dasharray="5,2" points="383.5,-606.5 324.5,-606.5 324.5,-569.5 383.5,-569.5 383.5,-606.5"/>
<text text-anchor="middle" x="354" y="-584.3" font-family="Helvetica,sans-Serif" font-size="14.00">input</text>
</g>
<!-- function -->
<g id="node2" class="node">
<title>function</title>
<path fill="#b4d8e4" stroke="black" d="M294,-606.5C294,-606.5 238,-606.5 238,-606.5 232,-606.5 226,-600.5 226,-594.5 226,-594.5 226,-581.5 226,-581.5 226,-575.5 232,-569.5 238,-569.5 238,-569.5 294,-569.5 294,-569.5 300,-569.5 306,-575.5 306,-581.5 306,-581.5 306,-594.5 306,-594.5 306,-600.5 300,-606.5 294,-606.5"/>
<text text-anchor="middle" x="266" y="-584.3" font-family="Helvetica,sans-Serif" font-size="14.00">function</text>
</g>
<!-- output -->
<g id="node3" class="node">
<title>output</title>
<path fill="#ffc857" stroke="black" d="M196,-606.5C196,-606.5 152,-606.5 152,-606.5 146,-606.5 140,-600.5 140,-594.5 140,-594.5 140,-581.5 140,-581.5 140,-575.5 146,-569.5 152,-569.5 152,-569.5 196,-569.5 196,-569.5 202,-569.5 208,-575.5 208,-581.5 208,-581.5 208,-594.5 208,-594.5 208,-600.5 202,-606.5 196,-606.5"/>
<text text-anchor="middle" x="174" y="-584.3" font-family="Helvetica,sans-Serif" font-size="14.00">output</text>
</g>
<!-- materializer -->
<g id="node4" class="node">
<title>materializer</title>
<path fill="#ffffff" stroke="black" d="M121.5,-604.36C121.5,-606.37 97.97,-608 69,-608 40.03,-608 16.5,-606.37 16.5,-604.36 16.5,-604.36 16.5,-571.64 16.5,-571.64 16.5,-569.63 40.03,-568 69,-568 97.97,-568 121.5,-569.63 121.5,-571.64 121.5,-571.64 121.5,-604.36 121.5,-604.36"/>
<path fill="none" stroke="black" d="M121.5,-604.36C121.5,-602.36 97.97,-600.73 69,-600.73 40.03,-600.73 16.5,-602.36 16.5,-604.36"/>
<text text-anchor="middle" x="69" y="-584.3" font-family="Helvetica,sans-Serif" font-size="14.00">materializer</text>
</g>
<!-- save_multiple_toy1d_parameters -->
<g id="node5" class="node">
<title>save_multiple_toy1d_parameters</title>
<path fill="#ffc857" stroke="black" d="M583,-484C583,-484 327,-484 327,-484 321,-484 315,-478 315,-472 315,-472 315,-432 315,-432 315,-426 321,-420 327,-420 327,-420 583,-420 583,-420 589,-420 595,-426 595,-432 595,-432 595,-472 595,-472 595,-478 589,-484 583,-484"/>
<text text-anchor="start" x="326" y="-462.8" font-family="Helvetica,sans-Serif" font-weight="bold" font-size="14.00">save_multiple_toy1d_parameters</text>
<text text-anchor="start" x="442" y="-434.8" font-family="Helvetica,sans-Serif" font-style="italic" font-size="14.00">dict</text>
</g>
<!-- multiple_toy1d_consolidated_metrics -->
<g id="node6" class="node">
<title>multiple_toy1d_consolidated_metrics</title>
<path fill="#b4d8e4" stroke="black" d="M583.5,-181C583.5,-181 296.5,-181 296.5,-181 290.5,-181 284.5,-175 284.5,-169 284.5,-169 284.5,-129 284.5,-129 284.5,-123 290.5,-117 296.5,-117 296.5,-117 583.5,-117 583.5,-117 589.5,-117 595.5,-123 595.5,-129 595.5,-129 595.5,-169 595.5,-169 595.5,-175 589.5,-181 583.5,-181"/>
<text text-anchor="start" x="295.5" y="-159.8" font-family="Helvetica,sans-Serif" font-weight="bold" font-size="14.00">multiple_toy1d_consolidated_metrics</text>
<text text-anchor="start" x="427" y="-131.8" font-family="Helvetica,sans-Serif" font-style="italic" font-size="14.00">dict</text>
</g>
<!-- save_multiple_toy1d_consolidated_metrics -->
<g id="node7" class="node">
<title>save_multiple_toy1d_consolidated_metrics</title>
<path fill="#ffc857" stroke="black" d="M525,-80C525,-84.41 445.67,-88 348,-88 250.33,-88 171,-84.41 171,-80 171,-80 171,-8 171,-8 171,-3.59 250.33,0 348,0 445.67,0 525,-3.59 525,-8 525,-8 525,-80 525,-80"/>
<path fill="none" stroke="black" d="M525,-80C525,-75.59 445.67,-72 348,-72 250.33,-72 171,-75.59 171,-80"/>
<text text-anchor="start" x="182" y="-54.8" font-family="Helvetica,sans-Serif" font-weight="bold" font-size="14.00">save_multiple_toy1d_consolidated_metrics</text>
<text text-anchor="start" x="195" y="-26.8" font-family="Helvetica,sans-Serif" font-style="italic" font-size="14.00">save_multiple_toy1d_consolidated_metrics()</text>
</g>
<!-- multiple_toy1d_consolidated_metrics&#45;&gt;save_multiple_toy1d_consolidated_metrics -->
<g id="edge1" class="edge">
<title>multiple_toy1d_consolidated_metrics&#45;&gt;save_multiple_toy1d_consolidated_metrics</title>
<path fill="none" stroke="black" d="M412.15,-116.82C406.24,-110.21 399.87,-103.07 393.5,-95.94"/>
<polygon fill="black" stroke="black" points="395.89,-93.36 386.62,-88.24 390.67,-98.03 395.89,-93.36"/>
</g>
<!-- multiple_toy1d_trainings_info -->
<g id="node8" class="node">
<title>multiple_toy1d_trainings_info</title>
<path fill="#b4d8e4" stroke="black" d="M852.5,-484C852.5,-484 625.5,-484 625.5,-484 619.5,-484 613.5,-478 613.5,-472 613.5,-472 613.5,-432 613.5,-432 613.5,-426 619.5,-420 625.5,-420 625.5,-420 852.5,-420 852.5,-420 858.5,-420 864.5,-426 864.5,-432 864.5,-432 864.5,-472 864.5,-472 864.5,-478 858.5,-484 852.5,-484"/>
<text text-anchor="start" x="624.5" y="-462.8" font-family="Helvetica,sans-Serif" font-weight="bold" font-size="14.00">multiple_toy1d_trainings_info</text>
<text text-anchor="start" x="728.5" y="-434.8" font-family="Helvetica,sans-Serif" font-style="italic" font-size="14.00">list</text>
</g>
<!-- multiple_toy1d_consolidated_train_statistics -->
<g id="node9" class="node">
<title>multiple_toy1d_consolidated_train_statistics</title>
<path fill="#b4d8e4" stroke="black" d="M911,-391C911,-391 567,-391 567,-391 561,-391 555,-385 555,-379 555,-379 555,-339 555,-339 555,-333 561,-327 567,-327 567,-327 911,-327 911,-327 917,-327 923,-333 923,-339 923,-339 923,-379 923,-379 923,-385 917,-391 911,-391"/>
<text text-anchor="start" x="566" y="-369.8" font-family="Helvetica,sans-Serif" font-weight="bold" font-size="14.00">multiple_toy1d_consolidated_train_statistics</text>
<text text-anchor="start" x="726" y="-341.8" font-family="Helvetica,sans-Serif" font-style="italic" font-size="14.00">dict</text>
</g>
<!-- multiple_toy1d_trainings_info&#45;&gt;multiple_toy1d_consolidated_train_statistics -->
<g id="edge2" class="edge">
<title>multiple_toy1d_trainings_info&#45;&gt;multiple_toy1d_consolidated_train_statistics</title>
<path fill="none" stroke="black" d="M739,-419.94C739,-414 739,-407.7 739,-401.49"/>
<polygon fill="black" stroke="black" points="742.5,-401.23 739,-391.23 735.5,-401.23 742.5,-401.23"/>
</g>
<!-- save_multiple_toy1d_consolidated_train_statistics -->
<g id="node11" class="node">
<title>save_multiple_toy1d_consolidated_train_statistics</title>
<path fill="#ffc857" stroke="black" d="M945,-290C945,-294.41 852.67,-298 739,-298 625.33,-298 533,-294.41 533,-290 533,-290 533,-218 533,-218 533,-213.59 625.33,-210 739,-210 852.67,-210 945,-213.59 945,-218 945,-218 945,-290 945,-290"/>
<path fill="none" stroke="black" d="M945,-290C945,-285.59 852.67,-282 739,-282 625.33,-282 533,-285.59 533,-290"/>
<text text-anchor="start" x="544" y="-264.8" font-family="Helvetica,sans-Serif" font-weight="bold" font-size="14.00">save_multiple_toy1d_consolidated_train_statistics</text>
<text text-anchor="start" x="561.5" y="-236.8" font-family="Helvetica,sans-Serif" font-style="italic" font-size="14.00">save_multiple_toy1d_consolidated_train_statistics()</text>
</g>
<!-- multiple_toy1d_consolidated_train_statistics&#45;&gt;save_multiple_toy1d_consolidated_train_statistics -->
<g id="edge4" class="edge">
<title>multiple_toy1d_consolidated_train_statistics&#45;&gt;save_multiple_toy1d_consolidated_train_statistics</title>
<path fill="none" stroke="black" d="M739,-326.82C739,-321.05 739,-314.88 739,-308.67"/>
<polygon fill="black" stroke="black" points="742.5,-308.24 739,-298.24 735.5,-308.24 742.5,-308.24"/>
</g>
<!-- multiple_toy1d_metrics -->
<g id="node10" class="node">
<title>multiple_toy1d_metrics</title>
<path fill="#b4d8e4" stroke="black" d="M502.5,-286C502.5,-286 323.5,-286 323.5,-286 317.5,-286 311.5,-280 311.5,-274 311.5,-274 311.5,-234 311.5,-234 311.5,-228 317.5,-222 323.5,-222 323.5,-222 502.5,-222 502.5,-222 508.5,-222 514.5,-228 514.5,-234 514.5,-234 514.5,-274 514.5,-274 514.5,-280 508.5,-286 502.5,-286"/>
<text text-anchor="start" x="322.5" y="-264.8" font-family="Helvetica,sans-Serif" font-weight="bold" font-size="14.00">multiple_toy1d_metrics</text>
<text text-anchor="start" x="402.5" y="-236.8" font-family="Helvetica,sans-Serif" font-style="italic" font-size="14.00">list</text>
</g>
<!-- multiple_toy1d_metrics&#45;&gt;multiple_toy1d_consolidated_metrics -->
<g id="edge3" class="edge">
<title>multiple_toy1d_metrics&#45;&gt;multiple_toy1d_consolidated_metrics</title>
<path fill="none" stroke="black" d="M421.17,-221.82C423.71,-212.14 426.55,-201.31 429.23,-191.07"/>
<polygon fill="black" stroke="black" points="432.7,-191.64 431.85,-181.08 425.93,-189.86 432.7,-191.64"/>
</g>
<!-- _save_multiple_toy1d_parameters_inputs -->
<g id="node12" class="node">
<title>_save_multiple_toy1d_parameters_inputs</title>
<polygon fill="#ffffff" stroke="black" stroke-dasharray="5,2" points="508.5,-642 401.5,-642 401.5,-534 508.5,-534 508.5,-642"/>
<text text-anchor="start" x="419" y="-615.8" font-family="Helvetica,sans-Serif" font-size="14.00">base_seed</text>
<text text-anchor="start" x="435.5" y="-594.8" font-family="Helvetica,sans-Serif" font-size="14.00">n_run</text>
<text text-anchor="start" x="417" y="-573.8" font-family="Helvetica,sans-Serif" font-size="14.00">toy1d_args</text>
<text text-anchor="start" x="419.5" y="-552.8" font-family="Helvetica,sans-Serif" font-size="14.00">output_dir</text>
</g>
<!-- _save_multiple_toy1d_parameters_inputs&#45;&gt;save_multiple_toy1d_parameters -->
<g id="edge5" class="edge">
<title>_save_multiple_toy1d_parameters_inputs&#45;&gt;save_multiple_toy1d_parameters</title>
<path fill="none" stroke="black" d="M455,-533.65C455,-520.54 455,-506.7 455,-494.25"/>
<polygon fill="black" stroke="black" points="458.5,-494.17 455,-484.17 451.5,-494.17 458.5,-494.17"/>
</g>
<!-- _multiple_toy1d_trainings_info_inputs -->
<g id="node13" class="node">
<title>_multiple_toy1d_trainings_info_inputs</title>
<polygon fill="#ffffff" stroke="black" stroke-dasharray="5,2" points="814,-663 664,-663 664,-513 814,-513 814,-663"/>
<text text-anchor="start" x="702.5" y="-636.8" font-family="Helvetica,sans-Serif" font-size="14.00">base_seed</text>
<text text-anchor="start" x="719" y="-615.8" font-family="Helvetica,sans-Serif" font-size="14.00">n_run</text>
<text text-anchor="start" x="700.5" y="-594.8" font-family="Helvetica,sans-Serif" font-size="14.00">toy1d_args</text>
<text text-anchor="start" x="703" y="-573.8" font-family="Helvetica,sans-Serif" font-size="14.00">output_dir</text>
<text text-anchor="start" x="711" y="-552.8" font-family="Helvetica,sans-Serif" font-size="14.00">minimal</text>
<text text-anchor="start" x="679" y="-531.8" font-family="Helvetica,sans-Serif" font-size="14.00">aditional_outputs</text>
</g>
<!-- _multiple_toy1d_trainings_info_inputs&#45;&gt;multiple_toy1d_trainings_info -->
<g id="edge6" class="edge">
<title>_multiple_toy1d_trainings_info_inputs&#45;&gt;multiple_toy1d_trainings_info</title>
<path fill="none" stroke="black" d="M739,-512.95C739,-506.59 739,-500.32 739,-494.37"/>
<polygon fill="black" stroke="black" points="742.5,-494.05 739,-484.05 735.5,-494.05 742.5,-494.05"/>
</g>
<!-- _multiple_toy1d_metrics_inputs -->
<g id="node14" class="node">
<title>_multiple_toy1d_metrics_inputs</title>
<polygon fill="#ffffff" stroke="black" stroke-dasharray="5,2" points="464,-381.5 362,-381.5 362,-336.5 464,-336.5 464,-381.5"/>
<text text-anchor="start" x="377" y="-354.8" font-family="Helvetica,sans-Serif" font-size="14.00">output_dir</text>
</g>
<!-- _multiple_toy1d_metrics_inputs&#45;&gt;save_multiple_toy1d_consolidated_metrics -->
<g id="edge8" class="edge">
<title>_multiple_toy1d_metrics_inputs&#45;&gt;save_multiple_toy1d_consolidated_metrics</title>
<path fill="none" stroke="black" d="M361.83,-341.18C340.39,-331.69 317,-317.69 302,-298 269.66,-255.55 281.04,-234.02 275,-181 271.78,-152.74 264.02,-143.24 275,-117 278.09,-109.61 282.35,-102.59 287.27,-96.05"/>
<polygon fill="black" stroke="black" points="290.22,-97.98 293.82,-88.01 284.79,-93.55 290.22,-97.98"/>
</g>
<!-- _multiple_toy1d_metrics_inputs&#45;&gt;multiple_toy1d_metrics -->
<g id="edge7" class="edge">
<title>_multiple_toy1d_metrics_inputs&#45;&gt;multiple_toy1d_metrics</title>
<path fill="none" stroke="black" d="M413,-336.16C413,-324.58 413,-309.97 413,-296.35"/>
<polygon fill="black" stroke="black" points="416.5,-296.19 413,-286.19 409.5,-296.19 416.5,-296.19"/>
</g>
<!-- _multiple_toy1d_metrics_inputs&#45;&gt;save_multiple_toy1d_consolidated_train_statistics -->
<g id="edge9" class="edge">
<title>_multiple_toy1d_metrics_inputs&#45;&gt;save_multiple_toy1d_consolidated_train_statistics</title>
<path fill="none" stroke="black" d="M464.3,-341.79C499.69,-330.61 548.63,-315.15 595.4,-300.37"/>
<polygon fill="black" stroke="black" points="596.55,-303.68 605.03,-297.33 594.44,-297 596.55,-303.68"/>
</g>
</g>
</svg>
