<?xml version="1.0" encoding="UTF-8" standalone="no"?>
<!DOCTYPE svg PUBLIC "-//W3C//DTD SVG 1.1//EN"
 "http://www.w3.org/Graphics/SVG/1.1/DTD/svg11.dtd">
<!-- Generated by graphviz version 2.43.0 (0)
 -->
<!-- Title: %3 Pages: 1 -->
<svg width="992pt" height="823pt"
 viewBox="0.00 0.00 992.00 823.00" xmlns="http://www.w3.org/2000/svg" xmlns:xlink="http://www.w3.org/1999/xlink">
<g id="graph0" class="graph" transform="scale(1 1) rotate(0) translate(4 819)">
<title>%3</title>
<polygon fill="white" stroke="transparent" points="-4,4 -4,-819 988,-819 988,4 -4,4"/>
<g id="clust1" class="cluster">
<title>cluster__legend</title>
<polygon fill="#ffffff" stroke="black" points="8,-680.5 8,-759.5 392,-759.5 392,-680.5 8,-680.5"/>
<text text-anchor="middle" x="200" y="-744.3" font-family="Helvetica,sans-Serif" font-size="14.00">Legend</text>
</g>
<!-- input -->
<g id="node1" class="node">
<title>input</title>
<polygon fill="#ffffff" stroke="black" stroke-dasharray="5,2" points="383.5,-727 324.5,-727 324.5,-690 383.5,-690 383.5,-727"/>
<text text-anchor="middle" x="354" y="-704.8" font-family="Helvetica,sans-Serif" font-size="14.00">input</text>
</g>
<!-- function -->
<g id="node2" class="node">
<title>function</title>
<path fill="#b4d8e4" stroke="black" d="M294,-727C294,-727 238,-727 238,-727 232,-727 226,-721 226,-715 226,-715 226,-702 226,-702 226,-696 232,-690 238,-690 238,-690 294,-690 294,-690 300,-690 306,-696 306,-702 306,-702 306,-715 306,-715 306,-721 300,-727 294,-727"/>
<text text-anchor="middle" x="266" y="-704.8" font-family="Helvetica,sans-Serif" font-size="14.00">function</text>
</g>
<!-- output -->
<g id="node3" class="node">
<title>output</title>
<path fill="#ffc857" stroke="black" d="M196,-727C196,-727 152,-727 152,-727 146,-727 140,-721 140,-715 140,-715 140,-702 140,-702 140,-696 146,-690 152,-690 152,-690 196,-690 196,-690 202,-690 208,-696 208,-702 208,-702 208,-715 208,-715 208,-721 202,-727 196,-727"/>
<text text-anchor="middle" x="174" y="-704.8" font-family="Helvetica,sans-Serif" font-size="14.00">output</text>
</g>
<!-- materializer -->
<g id="node4" class="node">
<title>materializer</title>
<path fill="#ffffff" stroke="black" d="M121.5,-724.86C121.5,-726.87 97.97,-728.5 69,-728.5 40.03,-728.5 16.5,-726.87 16.5,-724.86 16.5,-724.86 16.5,-692.14 16.5,-692.14 16.5,-690.13 40.03,-688.5 69,-688.5 97.97,-688.5 121.5,-690.13 121.5,-692.14 121.5,-692.14 121.5,-724.86 121.5,-724.86"/>
<path fill="none" stroke="black" d="M121.5,-724.86C121.5,-722.86 97.97,-721.23 69,-721.23 40.03,-721.23 16.5,-722.86 16.5,-724.86"/>
<text text-anchor="middle" x="69" y="-704.8" font-family="Helvetica,sans-Serif" font-size="14.00">materializer</text>
</g>
<!-- toy1d_parameter_variation_mask_sensory_plots -->
<g id="node5" class="node">
<title>toy1d_parameter_variation_mask_sensory_plots</title>
<path fill="#b4d8e4" stroke="black" d="M551.5,-181C551.5,-181 178.5,-181 178.5,-181 172.5,-181 166.5,-175 166.5,-169 166.5,-169 166.5,-129 166.5,-129 166.5,-123 172.5,-117 178.5,-117 178.5,-117 551.5,-117 551.5,-117 557.5,-117 563.5,-123 563.5,-129 563.5,-129 563.5,-169 563.5,-169 563.5,-175 557.5,-181 551.5,-181"/>
<text text-anchor="start" x="177.5" y="-159.8" font-family="Helvetica,sans-Serif" font-weight="bold" font-size="14.00">toy1d_parameter_variation_mask_sensory_plots</text>
<text text-anchor="start" x="352" y="-131.8" font-family="Helvetica,sans-Serif" font-style="italic" font-size="14.00">dict</text>
</g>
<!-- save_toy1d_parameter_variation_mask_sensory_plots -->
<g id="node6" class="node">
<title>save_toy1d_parameter_variation_mask_sensory_plots</title>
<path fill="#ffc857" stroke="black" d="M623,-80C623,-84.41 524.39,-88 403,-88 281.61,-88 183,-84.41 183,-80 183,-80 183,-8 183,-8 183,-3.59 281.61,0 403,0 524.39,0 623,-3.59 623,-8 623,-8 623,-80 623,-80"/>
<path fill="none" stroke="black" d="M623,-80C623,-75.59 524.39,-72 403,-72 281.61,-72 183,-75.59 183,-80"/>
<text text-anchor="start" x="194" y="-54.8" font-family="Helvetica,sans-Serif" font-weight="bold" font-size="14.00">save_toy1d_parameter_variation_mask_sensory_plots</text>
<text text-anchor="start" x="211.5" y="-26.8" font-family="Helvetica,sans-Serif" font-style="italic" font-size="14.00">save_toy1d_parameter_variation_mask_sensory_plots()</text>
</g>
<!-- toy1d_parameter_variation_mask_sensory_plots&#45;&gt;save_toy1d_parameter_variation_mask_sensory_plots -->
<g id="edge1" class="edge">
<title>toy1d_parameter_variation_mask_sensory_plots&#45;&gt;save_toy1d_parameter_variation_mask_sensory_plots</title>
<path fill="none" stroke="black" d="M376.5,-116.82C378.74,-110.77 381.13,-104.28 383.54,-97.76"/>
<polygon fill="black" stroke="black" points="386.87,-98.83 387.05,-88.24 380.3,-96.41 386.87,-98.83"/>
</g>
<!-- save_toy1d_parameter_variation_plots -->
<g id="node7" class="node">
<title>save_toy1d_parameter_variation_plots</title>
<path fill="#ffc857" stroke="black" d="M984,-80C984,-84.41 911.39,-88 822,-88 732.61,-88 660,-84.41 660,-80 660,-80 660,-8 660,-8 660,-3.59 732.61,0 822,0 911.39,0 984,-3.59 984,-8 984,-8 984,-80 984,-80"/>
<path fill="none" stroke="black" d="M984,-80C984,-75.59 911.39,-72 822,-72 732.61,-72 660,-75.59 660,-80"/>
<text text-anchor="start" x="671" y="-54.8" font-family="Helvetica,sans-Serif" font-weight="bold" font-size="14.00">save_toy1d_parameter_variation_plots</text>
<text text-anchor="start" x="683.5" y="-26.8" font-family="Helvetica,sans-Serif" font-style="italic" font-size="14.00">save_toy1d_parameter_variation_plots()</text>
</g>
<!-- save_toy1d_parameter_variation_info -->
<g id="node8" class="node">
<title>save_toy1d_parameter_variation_info</title>
<path fill="#b4d8e4" stroke="black" d="M667.5,-565C667.5,-569.41 596.91,-573 510,-573 423.09,-573 352.5,-569.41 352.5,-565 352.5,-565 352.5,-493 352.5,-493 352.5,-488.59 423.09,-485 510,-485 596.91,-485 667.5,-488.59 667.5,-493 667.5,-493 667.5,-565 667.5,-565"/>
<path fill="none" stroke="black" d="M667.5,-565C667.5,-560.59 596.91,-557 510,-557 423.09,-557 352.5,-560.59 352.5,-565"/>
<text text-anchor="start" x="363.5" y="-539.8" font-family="Helvetica,sans-Serif" font-weight="bold" font-size="14.00">save_toy1d_parameter_variation_info</text>
<text text-anchor="start" x="375" y="-511.8" font-family="Helvetica,sans-Serif" font-style="italic" font-size="14.00">save_toy1d_parameter_variation_info()</text>
</g>
<!-- base_dir -->
<g id="node9" class="node">
<title>base_dir</title>
<path fill="#b4d8e4" stroke="black" d="M656,-448C656,-452.41 590.56,-456 510,-456 429.44,-456 364,-452.41 364,-448 364,-448 364,-376 364,-376 364,-371.59 429.44,-368 510,-368 590.56,-368 656,-371.59 656,-376 656,-376 656,-448 656,-448"/>
<path fill="none" stroke="black" d="M656,-448C656,-443.59 590.56,-440 510,-440 429.44,-440 364,-443.59 364,-448"/>
<text text-anchor="start" x="477" y="-422.8" font-family="Helvetica,sans-Serif" font-weight="bold" font-size="14.00">base_dir</text>
<text text-anchor="start" x="375" y="-394.8" font-family="Helvetica,sans-Serif" font-style="italic" font-size="14.00">save_toy1d_parameter_variation_info()</text>
</g>
<!-- save_toy1d_parameter_variation_info&#45;&gt;base_dir -->
<g id="edge2" class="edge">
<title>save_toy1d_parameter_variation_info&#45;&gt;base_dir</title>
<path fill="none" stroke="black" d="M510,-484.85C510,-478.81 510,-472.54 510,-466.34"/>
<polygon fill="black" stroke="black" points="513.5,-466.01 510,-456.01 506.5,-466.01 513.5,-466.01"/>
</g>
<!-- toy1d_load_mask_sensory_metrics -->
<g id="node10" class="node">
<title>toy1d_load_mask_sensory_metrics</title>
<path fill="#b4d8e4" stroke="black" d="M438,-306.5C438,-306.5 172,-306.5 172,-306.5 166,-306.5 160,-300.5 160,-294.5 160,-294.5 160,-254.5 160,-254.5 160,-248.5 166,-242.5 172,-242.5 172,-242.5 438,-242.5 438,-242.5 444,-242.5 450,-248.5 450,-254.5 450,-254.5 450,-294.5 450,-294.5 450,-300.5 444,-306.5 438,-306.5"/>
<text text-anchor="start" x="171" y="-285.3" font-family="Helvetica,sans-Serif" font-weight="bold" font-size="14.00">toy1d_load_mask_sensory_metrics</text>
<text text-anchor="start" x="292" y="-257.3" font-family="Helvetica,sans-Serif" font-style="italic" font-size="14.00">dict</text>
</g>
<!-- base_dir&#45;&gt;toy1d_load_mask_sensory_metrics -->
<g id="edge3" class="edge">
<title>base_dir&#45;&gt;toy1d_load_mask_sensory_metrics</title>
<path fill="none" stroke="black" d="M444.86,-367.94C417.78,-350.05 386.69,-329.49 360.7,-312.32"/>
<polygon fill="black" stroke="black" points="362.37,-309.22 352.1,-306.63 358.51,-315.06 362.37,-309.22"/>
</g>
<!-- toy1d_load_train_history -->
<g id="node11" class="node">
<title>toy1d_load_train_history</title>
<path fill="#b4d8e4" stroke="black" d="M810,-306.5C810,-306.5 620,-306.5 620,-306.5 614,-306.5 608,-300.5 608,-294.5 608,-294.5 608,-254.5 608,-254.5 608,-248.5 614,-242.5 620,-242.5 620,-242.5 810,-242.5 810,-242.5 816,-242.5 822,-248.5 822,-254.5 822,-254.5 822,-294.5 822,-294.5 822,-300.5 816,-306.5 810,-306.5"/>
<text text-anchor="start" x="619" y="-285.3" font-family="Helvetica,sans-Serif" font-weight="bold" font-size="14.00">toy1d_load_train_history</text>
<text text-anchor="start" x="702" y="-257.3" font-family="Helvetica,sans-Serif" font-style="italic" font-size="14.00">dict</text>
</g>
<!-- base_dir&#45;&gt;toy1d_load_train_history -->
<g id="edge4" class="edge">
<title>base_dir&#45;&gt;toy1d_load_train_history</title>
<path fill="none" stroke="black" d="M575.14,-367.94C602.22,-350.05 633.31,-329.49 659.3,-312.32"/>
<polygon fill="black" stroke="black" points="661.49,-315.06 667.9,-306.63 657.63,-309.22 661.49,-315.06"/>
</g>
<!-- toy1d_load_mask_sensory_metrics&#45;&gt;toy1d_parameter_variation_mask_sensory_plots -->
<g id="edge5" class="edge">
<title>toy1d_load_mask_sensory_metrics&#45;&gt;toy1d_parameter_variation_mask_sensory_plots</title>
<path fill="none" stroke="black" d="M320.14,-242.34C327.81,-226.54 337.22,-207.17 345.44,-190.26"/>
<polygon fill="black" stroke="black" points="348.64,-191.68 349.86,-181.15 342.35,-188.62 348.64,-191.68"/>
</g>
<!-- toy1d_parameter_variation_plots -->
<g id="node12" class="node">
<title>toy1d_parameter_variation_plots</title>
<path fill="#b4d8e4" stroke="black" d="M970.5,-181C970.5,-181 713.5,-181 713.5,-181 707.5,-181 701.5,-175 701.5,-169 701.5,-169 701.5,-129 701.5,-129 701.5,-123 707.5,-117 713.5,-117 713.5,-117 970.5,-117 970.5,-117 976.5,-117 982.5,-123 982.5,-129 982.5,-129 982.5,-169 982.5,-169 982.5,-175 976.5,-181 970.5,-181"/>
<text text-anchor="start" x="712.5" y="-159.8" font-family="Helvetica,sans-Serif" font-weight="bold" font-size="14.00">toy1d_parameter_variation_plots</text>
<text text-anchor="start" x="829" y="-131.8" font-family="Helvetica,sans-Serif" font-style="italic" font-size="14.00">dict</text>
</g>
<!-- toy1d_load_train_history&#45;&gt;toy1d_parameter_variation_plots -->
<g id="edge7" class="edge">
<title>toy1d_load_train_history&#45;&gt;toy1d_parameter_variation_plots</title>
<path fill="none" stroke="black" d="M747.05,-242.34C763.89,-225.95 784.69,-205.73 802.52,-188.39"/>
<polygon fill="black" stroke="black" points="805.23,-190.64 809.96,-181.15 800.35,-185.62 805.23,-190.64"/>
</g>
<!-- toy1d_parameter_variation_plots&#45;&gt;save_toy1d_parameter_variation_plots -->
<g id="edge6" class="edge">
<title>toy1d_parameter_variation_plots&#45;&gt;save_toy1d_parameter_variation_plots</title>
<path fill="none" stroke="black" d="M835.95,-116.82C834.8,-110.91 833.57,-104.58 832.33,-98.21"/>
<polygon fill="black" stroke="black" points="835.74,-97.39 830.4,-88.24 828.87,-98.72 835.74,-97.39"/>
</g>
<!-- _toy1d_parameter_variation_mask_sensory_plots_inputs -->
<g id="node13" class="node">
<title>_toy1d_parameter_variation_mask_sensory_plots_inputs</title>
<polygon fill="#ffffff" stroke="black" stroke-dasharray="5,2" points="590,-307.5 468,-307.5 468,-241.5 590,-241.5 590,-307.5"/>
<text text-anchor="start" x="483" y="-281.3" font-family="Helvetica,sans-Serif" font-size="14.00">custom_plots</text>
<text text-anchor="start" x="493.5" y="-260.3" font-family="Helvetica,sans-Serif" font-size="14.00">log_y_axis</text>
</g>
<!-- _toy1d_parameter_variation_mask_sensory_plots_inputs&#45;&gt;toy1d_parameter_variation_mask_sensory_plots -->
<g id="edge8" class="edge">
<title>_toy1d_parameter_variation_mask_sensory_plots_inputs&#45;&gt;toy1d_parameter_variation_mask_sensory_plots</title>
<path fill="none" stroke="black" d="M495.82,-241.3C484.49,-230.88 471.52,-219.56 459,-210 448.58,-202.04 437.09,-194.09 425.83,-186.7"/>
<polygon fill="black" stroke="black" points="427.59,-183.67 417.29,-181.18 423.78,-189.55 427.59,-183.67"/>
</g>
<!-- _save_toy1d_parameter_variation_plots_inputs -->
<g id="node14" class="node">
<title>_save_toy1d_parameter_variation_plots_inputs</title>
<polygon fill="#ffffff" stroke="black" stroke-dasharray="5,2" points="683,-171.5 581,-171.5 581,-126.5 683,-126.5 683,-171.5"/>
<text text-anchor="start" x="596" y="-144.8" font-family="Helvetica,sans-Serif" font-size="14.00">output_dir</text>
</g>
<!-- _save_toy1d_parameter_variation_plots_inputs&#45;&gt;save_toy1d_parameter_variation_mask_sensory_plots -->
<g id="edge10" class="edge">
<title>_save_toy1d_parameter_variation_plots_inputs&#45;&gt;save_toy1d_parameter_variation_mask_sensory_plots</title>
<path fill="none" stroke="black" d="M591.21,-126.41C584.82,-123.18 578.26,-119.95 572,-117 554.35,-108.69 535.49,-100.25 517,-92.2"/>
<polygon fill="black" stroke="black" points="518.23,-88.92 507.66,-88.16 515.45,-95.35 518.23,-88.92"/>
</g>
<!-- _save_toy1d_parameter_variation_plots_inputs&#45;&gt;save_toy1d_parameter_variation_plots -->
<g id="edge9" class="edge">
<title>_save_toy1d_parameter_variation_plots_inputs&#45;&gt;save_toy1d_parameter_variation_plots</title>
<path fill="none" stroke="black" d="M671.83,-126.41C689.91,-116.61 712.06,-104.6 733.74,-92.84"/>
<polygon fill="black" stroke="black" points="735.54,-95.85 742.67,-88.01 732.21,-89.7 735.54,-95.85"/>
</g>
<!-- _save_toy1d_parameter_variation_info_inputs -->
<g id="node15" class="node">
<title>_save_toy1d_parameter_variation_info_inputs</title>
<polygon fill="#ffffff" stroke="black" stroke-dasharray="5,2" points="618.5,-815 401.5,-815 401.5,-602 618.5,-602 618.5,-815"/>
<text text-anchor="start" x="482.5" y="-788.3" font-family="Helvetica,sans-Serif" font-size="14.00">minimal</text>
<text text-anchor="start" x="490.5" y="-767.3" font-family="Helvetica,sans-Serif" font-size="14.00">n_run</text>
<text text-anchor="start" x="474" y="-746.3" font-family="Helvetica,sans-Serif" font-size="14.00">base_seed</text>
<text text-anchor="start" x="436.5" y="-725.3" font-family="Helvetica,sans-Serif" font-size="14.00">max_jobs_per_device</text>
<text text-anchor="start" x="417" y="-704.3" font-family="Helvetica,sans-Serif" font-size="14.00">toy1d_parameter_variation</text>
<text text-anchor="start" x="474.5" y="-683.3" font-family="Helvetica,sans-Serif" font-size="14.00">output_dir</text>
<text text-anchor="start" x="478.5" y="-662.3" font-family="Helvetica,sans-Serif" font-size="14.00">n_worker</text>
<text text-anchor="start" x="450.5" y="-641.3" font-family="Helvetica,sans-Serif" font-size="14.00">aditional_outputs</text>
<text text-anchor="start" x="452" y="-620.3" font-family="Helvetica,sans-Serif" font-size="14.00">toy1d_base_args</text>
</g>
<!-- _save_toy1d_parameter_variation_info_inputs&#45;&gt;save_toy1d_parameter_variation_info -->
<g id="edge11" class="edge">
<title>_save_toy1d_parameter_variation_info_inputs&#45;&gt;save_toy1d_parameter_variation_info</title>
<path fill="none" stroke="black" d="M510,-601.94C510,-595.61 510,-589.4 510,-583.45"/>
<polygon fill="black" stroke="black" points="513.5,-583.03 510,-573.03 506.5,-583.03 513.5,-583.03"/>
</g>
<!-- _toy1d_parameter_variation_plots_inputs -->
<g id="node16" class="node">
<title>_toy1d_parameter_variation_plots_inputs</title>
<polygon fill="#ffffff" stroke="black" stroke-dasharray="5,2" points="964.5,-339 839.5,-339 839.5,-210 964.5,-210 964.5,-339"/>
<text text-anchor="start" x="881" y="-312.3" font-family="Helvetica,sans-Serif" font-size="14.00">x_axis</text>
<text text-anchor="start" x="866" y="-291.3" font-family="Helvetica,sans-Serif" font-size="14.00">plot_prefix</text>
<text text-anchor="start" x="867" y="-270.3" font-family="Helvetica,sans-Serif" font-size="14.00">log_y_axis</text>
<text text-anchor="start" x="855" y="-249.3" font-family="Helvetica,sans-Serif" font-size="14.00">series_names</text>
<text text-anchor="start" x="856.5" y="-228.3" font-family="Helvetica,sans-Serif" font-size="14.00">custom_plots</text>
</g>
<!-- _toy1d_parameter_variation_plots_inputs&#45;&gt;toy1d_parameter_variation_plots -->
<g id="edge12" class="edge">
<title>_toy1d_parameter_variation_plots_inputs&#45;&gt;toy1d_parameter_variation_plots</title>
<path fill="none" stroke="black" d="M871.12,-209.94C867.84,-203.19 864.58,-196.47 861.48,-190.1"/>
<polygon fill="black" stroke="black" points="864.61,-188.52 857.09,-181.06 858.31,-191.58 864.61,-188.52"/>
</g>
</g>
</svg>
