<?xml version="1.0" encoding="UTF-8" standalone="no"?>
<!DOCTYPE svg PUBLIC "-//W3C//DTD SVG 1.1//EN"
 "http://www.w3.org/Graphics/SVG/1.1/DTD/svg11.dtd">
<!-- Generated by graphviz version 2.43.0 (0)
 -->
<!-- Title: %3 Pages: 1 -->
<svg width="2577pt" height="856pt"
 viewBox="0.00 0.00 2576.50 856.00" xmlns="http://www.w3.org/2000/svg" xmlns:xlink="http://www.w3.org/1999/xlink">
<g id="graph0" class="graph" transform="scale(1 1) rotate(0) translate(4 852)">
<title>%3</title>
<polygon fill="white" stroke="transparent" points="-4,4 -4,-852 2572.5,-852 2572.5,4 -4,4"/>
<g id="clust1" class="cluster">
<title>cluster__legend</title>
<polygon fill="#ffffff" stroke="black" points="1676.5,-745 1676.5,-824 2060.5,-824 2060.5,-745 1676.5,-745"/>
<text text-anchor="middle" x="1868.5" y="-808.8" font-family="Helvetica,sans-Serif" font-size="14.00">Legend</text>
</g>
<!-- input -->
<g id="node1" class="node">
<title>input</title>
<polygon fill="#ffffff" stroke="black" stroke-dasharray="5,2" points="2052,-791.5 1993,-791.5 1993,-754.5 2052,-754.5 2052,-791.5"/>
<text text-anchor="middle" x="2022.5" y="-769.3" font-family="Helvetica,sans-Serif" font-size="14.00">input</text>
</g>
<!-- function -->
<g id="node2" class="node">
<title>function</title>
<path fill="#b4d8e4" stroke="black" d="M1962.5,-791.5C1962.5,-791.5 1906.5,-791.5 1906.5,-791.5 1900.5,-791.5 1894.5,-785.5 1894.5,-779.5 1894.5,-779.5 1894.5,-766.5 1894.5,-766.5 1894.5,-760.5 1900.5,-754.5 1906.5,-754.5 1906.5,-754.5 1962.5,-754.5 1962.5,-754.5 1968.5,-754.5 1974.5,-760.5 1974.5,-766.5 1974.5,-766.5 1974.5,-779.5 1974.5,-779.5 1974.5,-785.5 1968.5,-791.5 1962.5,-791.5"/>
<text text-anchor="middle" x="1934.5" y="-769.3" font-family="Helvetica,sans-Serif" font-size="14.00">function</text>
</g>
<!-- output -->
<g id="node3" class="node">
<title>output</title>
<path fill="#ffc857" stroke="black" d="M1864.5,-791.5C1864.5,-791.5 1820.5,-791.5 1820.5,-791.5 1814.5,-791.5 1808.5,-785.5 1808.5,-779.5 1808.5,-779.5 1808.5,-766.5 1808.5,-766.5 1808.5,-760.5 1814.5,-754.5 1820.5,-754.5 1820.5,-754.5 1864.5,-754.5 1864.5,-754.5 1870.5,-754.5 1876.5,-760.5 1876.5,-766.5 1876.5,-766.5 1876.5,-779.5 1876.5,-779.5 1876.5,-785.5 1870.5,-791.5 1864.5,-791.5"/>
<text text-anchor="middle" x="1842.5" y="-769.3" font-family="Helvetica,sans-Serif" font-size="14.00">output</text>
</g>
<!-- materializer -->
<g id="node4" class="node">
<title>materializer</title>
<path fill="#ffffff" stroke="black" d="M1790,-789.36C1790,-791.37 1766.47,-793 1737.5,-793 1708.53,-793 1685,-791.37 1685,-789.36 1685,-789.36 1685,-756.64 1685,-756.64 1685,-754.63 1708.53,-753 1737.5,-753 1766.47,-753 1790,-754.63 1790,-756.64 1790,-756.64 1790,-789.36 1790,-789.36"/>
<path fill="none" stroke="black" d="M1790,-789.36C1790,-787.36 1766.47,-785.73 1737.5,-785.73 1708.53,-785.73 1685,-787.36 1685,-789.36"/>
<text text-anchor="middle" x="1737.5" y="-769.3" font-family="Helvetica,sans-Serif" font-size="14.00">materializer</text>
</g>
<!-- multiple_toy1d_mask_sensory_metrics -->
<g id="node5" class="node">
<title>multiple_toy1d_mask_sensory_metrics</title>
<path fill="#b4d8e4" stroke="black" d="M880.5,-427C880.5,-427 584.5,-427 584.5,-427 578.5,-427 572.5,-421 572.5,-415 572.5,-415 572.5,-375 572.5,-375 572.5,-369 578.5,-363 584.5,-363 584.5,-363 880.5,-363 880.5,-363 886.5,-363 892.5,-369 892.5,-375 892.5,-375 892.5,-415 892.5,-415 892.5,-421 886.5,-427 880.5,-427"/>
<text text-anchor="start" x="583.5" y="-405.8" font-family="Helvetica,sans-Serif" font-weight="bold" font-size="14.00">multiple_toy1d_mask_sensory_metrics</text>
<text text-anchor="start" x="722" y="-377.8" font-family="Helvetica,sans-Serif" font-style="italic" font-size="14.00">list</text>
</g>
<!-- multiple_toy1d_consolidated_mask_sensory_metrics -->
<g id="node6" class="node">
<title>multiple_toy1d_consolidated_mask_sensory_metrics</title>
<path fill="#b4d8e4" stroke="black" d="M862,-310C862,-310 459,-310 459,-310 453,-310 447,-304 447,-298 447,-298 447,-258 447,-258 447,-252 453,-246 459,-246 459,-246 862,-246 862,-246 868,-246 874,-252 874,-258 874,-258 874,-298 874,-298 874,-304 868,-310 862,-310"/>
<text text-anchor="start" x="458" y="-288.8" font-family="Helvetica,sans-Serif" font-weight="bold" font-size="14.00">multiple_toy1d_consolidated_mask_sensory_metrics</text>
<text text-anchor="start" x="647.5" y="-260.8" font-family="Helvetica,sans-Serif" font-style="italic" font-size="14.00">dict</text>
</g>
<!-- multiple_toy1d_mask_sensory_metrics&#45;&gt;multiple_toy1d_consolidated_mask_sensory_metrics -->
<g id="edge1" class="edge">
<title>multiple_toy1d_mask_sensory_metrics&#45;&gt;multiple_toy1d_consolidated_mask_sensory_metrics</title>
<path fill="none" stroke="black" d="M713.02,-362.88C704.53,-349.33 694.48,-333.28 685.46,-318.87"/>
<polygon fill="black" stroke="black" points="688.27,-316.76 680,-310.15 682.34,-320.48 688.27,-316.76"/>
</g>
<!-- save_multiple_toy1d_consolidated_mask_sensory_metrics -->
<g id="node9" class="node">
<title>save_multiple_toy1d_consolidated_mask_sensory_metrics</title>
<path fill="#ffc857" stroke="black" d="M895.5,-197C895.5,-201.41 790.17,-205 660.5,-205 530.83,-205 425.5,-201.41 425.5,-197 425.5,-197 425.5,-125 425.5,-125 425.5,-120.59 530.83,-117 660.5,-117 790.17,-117 895.5,-120.59 895.5,-125 895.5,-125 895.5,-197 895.5,-197"/>
<path fill="none" stroke="black" d="M895.5,-197C895.5,-192.59 790.17,-189 660.5,-189 530.83,-189 425.5,-192.59 425.5,-197"/>
<text text-anchor="start" x="436.5" y="-171.8" font-family="Helvetica,sans-Serif" font-weight="bold" font-size="14.00">save_multiple_toy1d_consolidated_mask_sensory_metrics</text>
<text text-anchor="start" x="454.5" y="-143.8" font-family="Helvetica,sans-Serif" font-style="italic" font-size="14.00">save_multiple_toy1d_consolidated_mask_sensory_metrics()</text>
</g>
<!-- multiple_toy1d_consolidated_mask_sensory_metrics&#45;&gt;save_multiple_toy1d_consolidated_mask_sensory_metrics -->
<g id="edge7" class="edge">
<title>multiple_toy1d_consolidated_mask_sensory_metrics&#45;&gt;save_multiple_toy1d_consolidated_mask_sensory_metrics</title>
<path fill="none" stroke="black" d="M660.5,-245.88C660.5,-236.5 660.5,-225.93 660.5,-215.52"/>
<polygon fill="black" stroke="black" points="664,-215.23 660.5,-205.23 657,-215.23 664,-215.23"/>
</g>
<!-- multiple_toy1d_consolidated_mask_sensory_plots -->
<g id="node11" class="node">
<title>multiple_toy1d_consolidated_mask_sensory_plots</title>
<path fill="#b4d8e4" stroke="black" d="M395,-193C395,-193 12,-193 12,-193 6,-193 0,-187 0,-181 0,-181 0,-141 0,-141 0,-135 6,-129 12,-129 12,-129 395,-129 395,-129 401,-129 407,-135 407,-141 407,-141 407,-181 407,-181 407,-187 401,-193 395,-193"/>
<text text-anchor="start" x="11" y="-171.8" font-family="Helvetica,sans-Serif" font-weight="bold" font-size="14.00">multiple_toy1d_consolidated_mask_sensory_plots</text>
<text text-anchor="start" x="190.5" y="-143.8" font-family="Helvetica,sans-Serif" font-style="italic" font-size="14.00">dict</text>
</g>
<!-- multiple_toy1d_consolidated_mask_sensory_metrics&#45;&gt;multiple_toy1d_consolidated_mask_sensory_plots -->
<g id="edge8" class="edge">
<title>multiple_toy1d_consolidated_mask_sensory_metrics&#45;&gt;multiple_toy1d_consolidated_mask_sensory_plots</title>
<path fill="none" stroke="black" d="M537.13,-245.96C475.28,-230.39 400.28,-211.52 337.07,-195.61"/>
<polygon fill="black" stroke="black" points="337.58,-192.13 327.03,-193.09 335.87,-198.92 337.58,-192.13"/>
</g>
<!-- multiple_toy1d_metrics -->
<g id="node7" class="node">
<title>multiple_toy1d_metrics</title>
<path fill="#b4d8e4" stroke="black" d="M1753,-427C1753,-427 1574,-427 1574,-427 1568,-427 1562,-421 1562,-415 1562,-415 1562,-375 1562,-375 1562,-369 1568,-363 1574,-363 1574,-363 1753,-363 1753,-363 1759,-363 1765,-369 1765,-375 1765,-375 1765,-415 1765,-415 1765,-421 1759,-427 1753,-427"/>
<text text-anchor="start" x="1573" y="-405.8" font-family="Helvetica,sans-Serif" font-weight="bold" font-size="14.00">multiple_toy1d_metrics</text>
<text text-anchor="start" x="1653" y="-377.8" font-family="Helvetica,sans-Serif" font-style="italic" font-size="14.00">list</text>
</g>
<!-- multiple_toy1d_consolidated_metrics -->
<g id="node8" class="node">
<title>multiple_toy1d_consolidated_metrics</title>
<path fill="#b4d8e4" stroke="black" d="M1834,-310C1834,-310 1547,-310 1547,-310 1541,-310 1535,-304 1535,-298 1535,-298 1535,-258 1535,-258 1535,-252 1541,-246 1547,-246 1547,-246 1834,-246 1834,-246 1840,-246 1846,-252 1846,-258 1846,-258 1846,-298 1846,-298 1846,-304 1840,-310 1834,-310"/>
<text text-anchor="start" x="1546" y="-288.8" font-family="Helvetica,sans-Serif" font-weight="bold" font-size="14.00">multiple_toy1d_consolidated_metrics</text>
<text text-anchor="start" x="1677.5" y="-260.8" font-family="Helvetica,sans-Serif" font-style="italic" font-size="14.00">dict</text>
</g>
<!-- multiple_toy1d_metrics&#45;&gt;multiple_toy1d_consolidated_metrics -->
<g id="edge2" class="edge">
<title>multiple_toy1d_metrics&#45;&gt;multiple_toy1d_consolidated_metrics</title>
<path fill="none" stroke="black" d="M1670.81,-362.88C1673.9,-349.71 1677.54,-334.19 1680.85,-320.1"/>
<polygon fill="black" stroke="black" points="1684.31,-320.68 1683.19,-310.15 1677.49,-319.08 1684.31,-320.68"/>
</g>
<!-- save_multiple_toy1d_consolidated_metrics -->
<g id="node16" class="node">
<title>save_multiple_toy1d_consolidated_metrics</title>
<path fill="#ffc857" stroke="black" d="M1765.5,-197C1765.5,-201.41 1686.17,-205 1588.5,-205 1490.83,-205 1411.5,-201.41 1411.5,-197 1411.5,-197 1411.5,-125 1411.5,-125 1411.5,-120.59 1490.83,-117 1588.5,-117 1686.17,-117 1765.5,-120.59 1765.5,-125 1765.5,-125 1765.5,-197 1765.5,-197"/>
<path fill="none" stroke="black" d="M1765.5,-197C1765.5,-192.59 1686.17,-189 1588.5,-189 1490.83,-189 1411.5,-192.59 1411.5,-197"/>
<text text-anchor="start" x="1422.5" y="-171.8" font-family="Helvetica,sans-Serif" font-weight="bold" font-size="14.00">save_multiple_toy1d_consolidated_metrics</text>
<text text-anchor="start" x="1435.5" y="-143.8" font-family="Helvetica,sans-Serif" font-style="italic" font-size="14.00">save_multiple_toy1d_consolidated_metrics()</text>
</g>
<!-- multiple_toy1d_consolidated_metrics&#45;&gt;save_multiple_toy1d_consolidated_metrics -->
<g id="edge6" class="edge">
<title>multiple_toy1d_consolidated_metrics&#45;&gt;save_multiple_toy1d_consolidated_metrics</title>
<path fill="none" stroke="black" d="M1662.9,-245.88C1653.89,-235.72 1643.63,-224.15 1633.67,-212.93"/>
<polygon fill="black" stroke="black" points="1636.1,-210.39 1626.85,-205.23 1630.86,-215.04 1636.1,-210.39"/>
</g>
<!-- save_multiple_toy1d_parameters -->
<g id="node10" class="node">
<title>save_multiple_toy1d_parameters</title>
<path fill="#ffc857" stroke="black" d="M2556.5,-669C2556.5,-669 2300.5,-669 2300.5,-669 2294.5,-669 2288.5,-663 2288.5,-657 2288.5,-657 2288.5,-617 2288.5,-617 2288.5,-611 2294.5,-605 2300.5,-605 2300.5,-605 2556.5,-605 2556.5,-605 2562.5,-605 2568.5,-611 2568.5,-617 2568.5,-617 2568.5,-657 2568.5,-657 2568.5,-663 2562.5,-669 2556.5,-669"/>
<text text-anchor="start" x="2299.5" y="-647.8" font-family="Helvetica,sans-Serif" font-weight="bold" font-size="14.00">save_multiple_toy1d_parameters</text>
<text text-anchor="start" x="2415.5" y="-619.8" font-family="Helvetica,sans-Serif" font-style="italic" font-size="14.00">dict</text>
</g>
<!-- save_multiple_toy1d_consolidated_mask_sensory_plots -->
<g id="node12" class="node">
<title>save_multiple_toy1d_consolidated_mask_sensory_plots</title>
<path fill="#ffc857" stroke="black" d="M1224,-80C1224,-84.41 1122.93,-88 998.5,-88 874.07,-88 773,-84.41 773,-80 773,-80 773,-8 773,-8 773,-3.59 874.07,0 998.5,0 1122.93,0 1224,-3.59 1224,-8 1224,-8 1224,-80 1224,-80"/>
<path fill="none" stroke="black" d="M1224,-80C1224,-75.59 1122.93,-72 998.5,-72 874.07,-72 773,-75.59 773,-80"/>
<text text-anchor="start" x="784" y="-54.8" font-family="Helvetica,sans-Serif" font-weight="bold" font-size="14.00">save_multiple_toy1d_consolidated_mask_sensory_plots</text>
<text text-anchor="start" x="801.5" y="-26.8" font-family="Helvetica,sans-Serif" font-style="italic" font-size="14.00">save_multiple_toy1d_consolidated_mask_sensory_plots()</text>
</g>
<!-- multiple_toy1d_consolidated_mask_sensory_plots&#45;&gt;save_multiple_toy1d_consolidated_mask_sensory_plots -->
<g id="edge3" class="edge">
<title>multiple_toy1d_consolidated_mask_sensory_plots&#45;&gt;save_multiple_toy1d_consolidated_mask_sensory_plots</title>
<path fill="none" stroke="black" d="M349.61,-128.98C371.96,-124.67 394.81,-120.53 416.5,-117 529.92,-98.56 656.45,-82.39 762.48,-70.07"/>
<polygon fill="black" stroke="black" points="763.15,-73.51 772.68,-68.89 762.34,-66.56 763.15,-73.51"/>
</g>
<!-- save_multiple_toy1d_consolidated_autoregressive_metrics -->
<g id="node13" class="node">
<title>save_multiple_toy1d_consolidated_autoregressive_metrics</title>
<path fill="#ffc857" stroke="black" d="M1393,-197C1393,-201.41 1285.65,-205 1153.5,-205 1021.35,-205 914,-201.41 914,-197 914,-197 914,-125 914,-125 914,-120.59 1021.35,-117 1153.5,-117 1285.65,-117 1393,-120.59 1393,-125 1393,-125 1393,-197 1393,-197"/>
<path fill="none" stroke="black" d="M1393,-197C1393,-192.59 1285.65,-189 1153.5,-189 1021.35,-189 914,-192.59 914,-197"/>
<text text-anchor="start" x="925" y="-171.8" font-family="Helvetica,sans-Serif" font-weight="bold" font-size="14.00">save_multiple_toy1d_consolidated_autoregressive_metrics</text>
<text text-anchor="start" x="946" y="-143.8" font-family="Helvetica,sans-Serif" font-style="italic" font-size="14.00">save_multiple_toy1d_consolidated_autoregressive_metrics()</text>
</g>
<!-- multiple_toy1d_train_plots -->
<g id="node14" class="node">
<title>multiple_toy1d_train_plots</title>
<path fill="#b4d8e4" stroke="black" d="M2548.5,-427C2548.5,-427 2344.5,-427 2344.5,-427 2338.5,-427 2332.5,-421 2332.5,-415 2332.5,-415 2332.5,-375 2332.5,-375 2332.5,-369 2338.5,-363 2344.5,-363 2344.5,-363 2548.5,-363 2548.5,-363 2554.5,-363 2560.5,-369 2560.5,-375 2560.5,-375 2560.5,-415 2560.5,-415 2560.5,-421 2554.5,-427 2548.5,-427"/>
<text text-anchor="start" x="2343.5" y="-405.8" font-family="Helvetica,sans-Serif" font-weight="bold" font-size="14.00">multiple_toy1d_train_plots</text>
<text text-anchor="start" x="2433.5" y="-377.8" font-family="Helvetica,sans-Serif" font-style="italic" font-size="14.00">dict</text>
</g>
<!-- save_multiple_toy1d_train_plots -->
<g id="node15" class="node">
<title>save_multiple_toy1d_train_plots</title>
<path fill="#ffc857" stroke="black" d="M2174.5,-314C2174.5,-318.41 2113.54,-322 2038.5,-322 1963.46,-322 1902.5,-318.41 1902.5,-314 1902.5,-314 1902.5,-242 1902.5,-242 1902.5,-237.59 1963.46,-234 2038.5,-234 2113.54,-234 2174.5,-237.59 2174.5,-242 2174.5,-242 2174.5,-314 2174.5,-314"/>
<path fill="none" stroke="black" d="M2174.5,-314C2174.5,-309.59 2113.54,-306 2038.5,-306 1963.46,-306 1902.5,-309.59 1902.5,-314"/>
<text text-anchor="start" x="1913.5" y="-288.8" font-family="Helvetica,sans-Serif" font-weight="bold" font-size="14.00">save_multiple_toy1d_train_plots</text>
<text text-anchor="start" x="1922.5" y="-260.8" font-family="Helvetica,sans-Serif" font-style="italic" font-size="14.00">save_multiple_toy1d_train_plots()</text>
</g>
<!-- multiple_toy1d_train_plots&#45;&gt;save_multiple_toy1d_train_plots -->
<g id="edge4" class="edge">
<title>multiple_toy1d_train_plots&#45;&gt;save_multiple_toy1d_train_plots</title>
<path fill="none" stroke="black" d="M2360.8,-362.95C2348.34,-358.75 2335.63,-354.65 2323.5,-351 2278.65,-337.52 2229.33,-324.46 2184.51,-313.24"/>
<polygon fill="black" stroke="black" points="2185.27,-309.82 2174.72,-310.8 2183.58,-316.61 2185.27,-309.82"/>
</g>
<!-- multiple_toy1d_trainings_info -->
<g id="node17" class="node">
<title>multiple_toy1d_trainings_info</title>
<path fill="#b4d8e4" stroke="black" d="M2258,-669C2258,-669 2031,-669 2031,-669 2025,-669 2019,-663 2019,-657 2019,-657 2019,-617 2019,-617 2019,-611 2025,-605 2031,-605 2031,-605 2258,-605 2258,-605 2264,-605 2270,-611 2270,-617 2270,-617 2270,-657 2270,-657 2270,-663 2264,-669 2258,-669"/>
<text text-anchor="start" x="2030" y="-647.8" font-family="Helvetica,sans-Serif" font-weight="bold" font-size="14.00">multiple_toy1d_trainings_info</text>
<text text-anchor="start" x="2134" y="-619.8" font-family="Helvetica,sans-Serif" font-style="italic" font-size="14.00">list</text>
</g>
<!-- multiple_toy1d_consolidated_train_statistics -->
<g id="node18" class="node">
<title>multiple_toy1d_consolidated_train_statistics</title>
<path fill="#b4d8e4" stroke="black" d="M2316.5,-554C2316.5,-554 1972.5,-554 1972.5,-554 1966.5,-554 1960.5,-548 1960.5,-542 1960.5,-542 1960.5,-502 1960.5,-502 1960.5,-496 1966.5,-490 1972.5,-490 1972.5,-490 2316.5,-490 2316.5,-490 2322.5,-490 2328.5,-496 2328.5,-502 2328.5,-502 2328.5,-542 2328.5,-542 2328.5,-548 2322.5,-554 2316.5,-554"/>
<text text-anchor="start" x="1971.5" y="-532.8" font-family="Helvetica,sans-Serif" font-weight="bold" font-size="14.00">multiple_toy1d_consolidated_train_statistics</text>
<text text-anchor="start" x="2131.5" y="-504.8" font-family="Helvetica,sans-Serif" font-style="italic" font-size="14.00">dict</text>
</g>
<!-- multiple_toy1d_trainings_info&#45;&gt;multiple_toy1d_consolidated_train_statistics -->
<g id="edge5" class="edge">
<title>multiple_toy1d_trainings_info&#45;&gt;multiple_toy1d_consolidated_train_statistics</title>
<path fill="none" stroke="black" d="M2144.5,-604.82C2144.5,-592.35 2144.5,-577.8 2144.5,-564.45"/>
<polygon fill="black" stroke="black" points="2148,-564.08 2144.5,-554.08 2141,-564.08 2148,-564.08"/>
</g>
<!-- multiple_toy1d_consolidated_train_statistics&#45;&gt;multiple_toy1d_train_plots -->
<g id="edge10" class="edge">
<title>multiple_toy1d_consolidated_train_statistics&#45;&gt;multiple_toy1d_train_plots</title>
<path fill="none" stroke="black" d="M2219.54,-489.94C2262.84,-472.02 2317.41,-449.43 2362.19,-430.9"/>
<polygon fill="black" stroke="black" points="2363.68,-434.07 2371.59,-427.01 2361.01,-427.6 2363.68,-434.07"/>
</g>
<!-- save_multiple_toy1d_consolidated_train_statistics -->
<g id="node19" class="node">
<title>save_multiple_toy1d_consolidated_train_statistics</title>
<path fill="#ffc857" stroke="black" d="M2314.5,-431C2314.5,-435.41 2222.17,-439 2108.5,-439 1994.83,-439 1902.5,-435.41 1902.5,-431 1902.5,-431 1902.5,-359 1902.5,-359 1902.5,-354.59 1994.83,-351 2108.5,-351 2222.17,-351 2314.5,-354.59 2314.5,-359 2314.5,-359 2314.5,-431 2314.5,-431"/>
<path fill="none" stroke="black" d="M2314.5,-431C2314.5,-426.59 2222.17,-423 2108.5,-423 1994.83,-423 1902.5,-426.59 1902.5,-431"/>
<text text-anchor="start" x="1913.5" y="-405.8" font-family="Helvetica,sans-Serif" font-weight="bold" font-size="14.00">save_multiple_toy1d_consolidated_train_statistics</text>
<text text-anchor="start" x="1931" y="-377.8" font-family="Helvetica,sans-Serif" font-style="italic" font-size="14.00">save_multiple_toy1d_consolidated_train_statistics()</text>
</g>
<!-- multiple_toy1d_consolidated_train_statistics&#45;&gt;save_multiple_toy1d_consolidated_train_statistics -->
<g id="edge11" class="edge">
<title>multiple_toy1d_consolidated_train_statistics&#45;&gt;save_multiple_toy1d_consolidated_train_statistics</title>
<path fill="none" stroke="black" d="M2135.51,-489.78C2131.96,-477.44 2127.77,-462.92 2123.77,-449.03"/>
<polygon fill="black" stroke="black" points="2127.03,-447.71 2120.9,-439.07 2120.31,-449.65 2127.03,-447.71"/>
</g>
<!-- multiple_toy1d_autoregressive_metrics -->
<g id="node20" class="node">
<title>multiple_toy1d_autoregressive_metrics</title>
<path fill="#b4d8e4" stroke="black" d="M1436,-427C1436,-427 1131,-427 1131,-427 1125,-427 1119,-421 1119,-415 1119,-415 1119,-375 1119,-375 1119,-369 1125,-363 1131,-363 1131,-363 1436,-363 1436,-363 1442,-363 1448,-369 1448,-375 1448,-375 1448,-415 1448,-415 1448,-421 1442,-427 1436,-427"/>
<text text-anchor="start" x="1130" y="-405.8" font-family="Helvetica,sans-Serif" font-weight="bold" font-size="14.00">multiple_toy1d_autoregressive_metrics</text>
<text text-anchor="start" x="1273" y="-377.8" font-family="Helvetica,sans-Serif" font-style="italic" font-size="14.00">list</text>
</g>
<!-- multiple_toy1d_consolidated_autoregressive_metrics -->
<g id="node21" class="node">
<title>multiple_toy1d_consolidated_autoregressive_metrics</title>
<path fill="#b4d8e4" stroke="black" d="M1458.5,-310C1458.5,-310 1046.5,-310 1046.5,-310 1040.5,-310 1034.5,-304 1034.5,-298 1034.5,-298 1034.5,-258 1034.5,-258 1034.5,-252 1040.5,-246 1046.5,-246 1046.5,-246 1458.5,-246 1458.5,-246 1464.5,-246 1470.5,-252 1470.5,-258 1470.5,-258 1470.5,-298 1470.5,-298 1470.5,-304 1464.5,-310 1458.5,-310"/>
<text text-anchor="start" x="1045.5" y="-288.8" font-family="Helvetica,sans-Serif" font-weight="bold" font-size="14.00">multiple_toy1d_consolidated_autoregressive_metrics</text>
<text text-anchor="start" x="1239.5" y="-260.8" font-family="Helvetica,sans-Serif" font-style="italic" font-size="14.00">dict</text>
</g>
<!-- multiple_toy1d_autoregressive_metrics&#45;&gt;multiple_toy1d_consolidated_autoregressive_metrics -->
<g id="edge9" class="edge">
<title>multiple_toy1d_autoregressive_metrics&#45;&gt;multiple_toy1d_consolidated_autoregressive_metrics</title>
<path fill="none" stroke="black" d="M1275.11,-362.88C1271.56,-349.71 1267.38,-334.19 1263.58,-320.1"/>
<polygon fill="black" stroke="black" points="1266.88,-318.89 1260.9,-310.15 1260.12,-320.71 1266.88,-318.89"/>
</g>
<!-- multiple_toy1d_consolidated_autoregressive_metrics&#45;&gt;save_multiple_toy1d_consolidated_autoregressive_metrics -->
<g id="edge12" class="edge">
<title>multiple_toy1d_consolidated_autoregressive_metrics&#45;&gt;save_multiple_toy1d_consolidated_autoregressive_metrics</title>
<path fill="none" stroke="black" d="M1225.71,-245.88C1216.96,-235.72 1207.01,-224.15 1197.34,-212.93"/>
<polygon fill="black" stroke="black" points="1199.9,-210.53 1190.72,-205.23 1194.59,-215.1 1199.9,-210.53"/>
</g>
<!-- _multiple_toy1d_mask_sensory_metrics_inputs -->
<g id="node22" class="node">
<title>_multiple_toy1d_mask_sensory_metrics_inputs</title>
<polygon fill="#ffffff" stroke="black" stroke-dasharray="5,2" points="1557.5,-544.5 1455.5,-544.5 1455.5,-499.5 1557.5,-499.5 1557.5,-544.5"/>
<text text-anchor="start" x="1470.5" y="-517.8" font-family="Helvetica,sans-Serif" font-size="14.00">output_dir</text>
</g>
<!-- _multiple_toy1d_mask_sensory_metrics_inputs&#45;&gt;multiple_toy1d_mask_sensory_metrics -->
<g id="edge13" class="edge">
<title>_multiple_toy1d_mask_sensory_metrics_inputs&#45;&gt;multiple_toy1d_mask_sensory_metrics</title>
<path fill="none" stroke="black" d="M1455.38,-513.42C1360.91,-499.34 1152.63,-467.94 977.5,-439 953.24,-434.99 927.65,-430.64 902.52,-426.29"/>
<polygon fill="black" stroke="black" points="903,-422.82 892.55,-424.56 901.8,-429.72 903,-422.82"/>
</g>
<!-- _multiple_toy1d_mask_sensory_metrics_inputs&#45;&gt;multiple_toy1d_metrics -->
<g id="edge14" class="edge">
<title>_multiple_toy1d_mask_sensory_metrics_inputs&#45;&gt;multiple_toy1d_metrics</title>
<path fill="none" stroke="black" d="M1533.85,-499.23C1556.54,-481.16 1589.33,-455.05 1616.26,-433.61"/>
<polygon fill="black" stroke="black" points="1618.76,-436.09 1624.41,-427.12 1614.4,-430.62 1618.76,-436.09"/>
</g>
<!-- _multiple_toy1d_mask_sensory_metrics_inputs&#45;&gt;save_multiple_toy1d_consolidated_mask_sensory_metrics -->
<g id="edge15" class="edge">
<title>_multiple_toy1d_mask_sensory_metrics_inputs&#45;&gt;save_multiple_toy1d_consolidated_mask_sensory_metrics</title>
<path fill="none" stroke="black" d="M1455.45,-518.96C1377.05,-514.02 1224.07,-497.07 1109.5,-439 988.24,-377.54 1000.2,-302.03 882.5,-234 865.39,-224.11 846.74,-215.38 827.77,-207.72"/>
<polygon fill="black" stroke="black" points="829.02,-204.45 818.43,-204.04 826.45,-210.96 829.02,-204.45"/>
</g>
<!-- _multiple_toy1d_mask_sensory_metrics_inputs&#45;&gt;save_multiple_toy1d_consolidated_mask_sensory_plots -->
<g id="edge18" class="edge">
<title>_multiple_toy1d_mask_sensory_metrics_inputs&#45;&gt;save_multiple_toy1d_consolidated_mask_sensory_plots</title>
<path fill="none" stroke="black" d="M1557.64,-514.03C1633.4,-501.56 1776.97,-469.51 1874.5,-396"/>
<path fill="none" stroke="black" d="M1874.5,-394C1926.76,-354.61 1830.91,-150.18 1774.5,-117 1728.58,-89.99 1445.44,-68.96 1234.35,-56.78"/>
<polygon fill="black" stroke="black" points="1234.54,-53.28 1224.35,-56.2 1234.14,-60.27 1234.54,-53.28"/>
</g>
<!-- _multiple_toy1d_mask_sensory_metrics_inputs&#45;&gt;save_multiple_toy1d_consolidated_autoregressive_metrics -->
<g id="edge16" class="edge">
<title>_multiple_toy1d_mask_sensory_metrics_inputs&#45;&gt;save_multiple_toy1d_consolidated_autoregressive_metrics</title>
<path fill="none" stroke="black" d="M1512.23,-499.35C1522.66,-455.43 1540.69,-353.68 1506.5,-279"/>
<path fill="none" stroke="black" d="M1506.5,-277C1495.49,-257.3 1497.95,-247 1479.5,-234 1468.98,-226.59 1426.56,-215.66 1375.61,-204.55"/>
<polygon fill="black" stroke="black" points="1376.18,-201.09 1365.66,-202.39 1374.7,-207.93 1376.18,-201.09"/>
</g>
<!-- _multiple_toy1d_mask_sensory_metrics_inputs&#45;&gt;save_multiple_toy1d_train_plots -->
<g id="edge19" class="edge">
<title>_multiple_toy1d_mask_sensory_metrics_inputs&#45;&gt;save_multiple_toy1d_train_plots</title>
<path fill="none" stroke="black" d="M1874.5,-394C1891.18,-381.42 1879.06,-366.1 1893.5,-351 1902.55,-341.53 1913.12,-333.12 1924.35,-325.7"/>
<polygon fill="black" stroke="black" points="1926.45,-328.51 1933.04,-320.22 1922.72,-322.59 1926.45,-328.51"/>
</g>
<!-- _multiple_toy1d_mask_sensory_metrics_inputs&#45;&gt;save_multiple_toy1d_consolidated_metrics -->
<g id="edge17" class="edge">
<title>_multiple_toy1d_mask_sensory_metrics_inputs&#45;&gt;save_multiple_toy1d_consolidated_metrics</title>
<path fill="none" stroke="black" d="M1506.5,-277C1496.18,-254.46 1506.8,-231.79 1523.42,-212.61"/>
<polygon fill="black" stroke="black" points="1526.1,-214.88 1530.33,-205.16 1520.96,-210.12 1526.1,-214.88"/>
</g>
<!-- _multiple_toy1d_mask_sensory_metrics_inputs&#45;&gt;save_multiple_toy1d_consolidated_train_statistics -->
<g id="edge20" class="edge">
<title>_multiple_toy1d_mask_sensory_metrics_inputs&#45;&gt;save_multiple_toy1d_consolidated_train_statistics</title>
<path fill="none" stroke="black" d="M1557.57,-510.4C1634,-494.53 1782.37,-463.72 1905.89,-438.07"/>
<polygon fill="black" stroke="black" points="1906.79,-441.46 1915.87,-436 1905.37,-434.6 1906.79,-441.46"/>
</g>
<!-- _multiple_toy1d_mask_sensory_metrics_inputs&#45;&gt;multiple_toy1d_autoregressive_metrics -->
<g id="edge21" class="edge">
<title>_multiple_toy1d_mask_sensory_metrics_inputs&#45;&gt;multiple_toy1d_autoregressive_metrics</title>
<path fill="none" stroke="black" d="M1467.91,-499.37C1435.02,-480.93 1387.06,-454.05 1348.29,-432.32"/>
<polygon fill="black" stroke="black" points="1349.59,-429.03 1339.15,-427.2 1346.17,-435.14 1349.59,-429.03"/>
</g>
<!-- _save_multiple_toy1d_parameters_inputs -->
<g id="node23" class="node">
<title>_save_multiple_toy1d_parameters_inputs</title>
<polygon fill="#ffffff" stroke="black" stroke-dasharray="5,2" points="2482,-827 2375,-827 2375,-719 2482,-719 2482,-827"/>
<text text-anchor="start" x="2392.5" y="-800.8" font-family="Helvetica,sans-Serif" font-size="14.00">base_seed</text>
<text text-anchor="start" x="2409" y="-779.8" font-family="Helvetica,sans-Serif" font-size="14.00">n_run</text>
<text text-anchor="start" x="2390.5" y="-758.8" font-family="Helvetica,sans-Serif" font-size="14.00">toy1d_args</text>
<text text-anchor="start" x="2393" y="-737.8" font-family="Helvetica,sans-Serif" font-size="14.00">output_dir</text>
</g>
<!-- _save_multiple_toy1d_parameters_inputs&#45;&gt;save_multiple_toy1d_parameters -->
<g id="edge22" class="edge">
<title>_save_multiple_toy1d_parameters_inputs&#45;&gt;save_multiple_toy1d_parameters</title>
<path fill="none" stroke="black" d="M2428.5,-718.65C2428.5,-705.54 2428.5,-691.7 2428.5,-679.25"/>
<polygon fill="black" stroke="black" points="2432,-679.17 2428.5,-669.17 2425,-679.17 2432,-679.17"/>
</g>
<!-- _multiple_toy1d_consolidated_mask_sensory_plots_inputs -->
<g id="node24" class="node">
<title>_multiple_toy1d_consolidated_mask_sensory_plots_inputs</title>
<polygon fill="#ffffff" stroke="black" stroke-dasharray="5,2" points="254,-300.5 153,-300.5 153,-255.5 254,-255.5 254,-300.5"/>
<text text-anchor="start" x="168.5" y="-273.8" font-family="Helvetica,sans-Serif" font-size="14.00">log_y_axis</text>
</g>
<!-- _multiple_toy1d_consolidated_mask_sensory_plots_inputs&#45;&gt;multiple_toy1d_consolidated_mask_sensory_plots -->
<g id="edge23" class="edge">
<title>_multiple_toy1d_consolidated_mask_sensory_plots_inputs&#45;&gt;multiple_toy1d_consolidated_mask_sensory_plots</title>
<path fill="none" stroke="black" d="M203.5,-255.37C203.5,-240.68 203.5,-220.8 203.5,-203.16"/>
<polygon fill="black" stroke="black" points="207,-203.09 203.5,-193.09 200,-203.09 207,-203.09"/>
</g>
<!-- _multiple_toy1d_train_plots_inputs -->
<g id="node25" class="node">
<title>_multiple_toy1d_train_plots_inputs</title>
<polygon fill="#ffffff" stroke="black" stroke-dasharray="5,2" points="2509,-576 2384,-576 2384,-468 2509,-468 2509,-576"/>
<text text-anchor="start" x="2411.5" y="-549.8" font-family="Helvetica,sans-Serif" font-size="14.00">log_y_axis</text>
<text text-anchor="start" x="2399.5" y="-528.8" font-family="Helvetica,sans-Serif" font-size="14.00">series_names</text>
<text text-anchor="start" x="2410.5" y="-507.8" font-family="Helvetica,sans-Serif" font-size="14.00">plot_prefix</text>
<text text-anchor="start" x="2425.5" y="-486.8" font-family="Helvetica,sans-Serif" font-size="14.00">x_axis</text>
</g>
<!-- _multiple_toy1d_train_plots_inputs&#45;&gt;multiple_toy1d_train_plots -->
<g id="edge24" class="edge">
<title>_multiple_toy1d_train_plots_inputs&#45;&gt;multiple_toy1d_train_plots</title>
<path fill="none" stroke="black" d="M2446.5,-467.99C2446.5,-457.73 2446.5,-447.12 2446.5,-437.3"/>
<polygon fill="black" stroke="black" points="2450,-437.01 2446.5,-427.01 2443,-437.01 2450,-437.01"/>
</g>
<!-- _multiple_toy1d_trainings_info_inputs -->
<g id="node26" class="node">
<title>_multiple_toy1d_trainings_info_inputs</title>
<polygon fill="#ffffff" stroke="black" stroke-dasharray="5,2" points="2219.5,-848 2069.5,-848 2069.5,-698 2219.5,-698 2219.5,-848"/>
<text text-anchor="start" x="2106" y="-821.8" font-family="Helvetica,sans-Serif" font-size="14.00">toy1d_args</text>
<text text-anchor="start" x="2124.5" y="-800.8" font-family="Helvetica,sans-Serif" font-size="14.00">n_run</text>
<text text-anchor="start" x="2108" y="-779.8" font-family="Helvetica,sans-Serif" font-size="14.00">base_seed</text>
<text text-anchor="start" x="2084.5" y="-758.8" font-family="Helvetica,sans-Serif" font-size="14.00">aditional_outputs</text>
<text text-anchor="start" x="2108.5" y="-737.8" font-family="Helvetica,sans-Serif" font-size="14.00">output_dir</text>
<text text-anchor="start" x="2116.5" y="-716.8" font-family="Helvetica,sans-Serif" font-size="14.00">minimal</text>
</g>
<!-- _multiple_toy1d_trainings_info_inputs&#45;&gt;multiple_toy1d_trainings_info -->
<g id="edge25" class="edge">
<title>_multiple_toy1d_trainings_info_inputs&#45;&gt;multiple_toy1d_trainings_info</title>
<path fill="none" stroke="black" d="M2144.5,-697.95C2144.5,-691.59 2144.5,-685.32 2144.5,-679.37"/>
<polygon fill="black" stroke="black" points="2148,-679.05 2144.5,-669.05 2141,-679.05 2148,-679.05"/>
</g>
</g>
</svg>
