<?xml version="1.0" encoding="UTF-8" standalone="no"?>
<!DOCTYPE svg PUBLIC "-//W3C//DTD SVG 1.1//EN"
 "http://www.w3.org/Graphics/SVG/1.1/DTD/svg11.dtd">
<!-- Generated by graphviz version 2.43.0 (0)
 -->
<!-- Title: %3 Pages: 1 -->
<svg width="1372pt" height="393pt"
 viewBox="0.00 0.00 1371.50 392.50" xmlns="http://www.w3.org/2000/svg" xmlns:xlink="http://www.w3.org/1999/xlink">
<g id="graph0" class="graph" transform="scale(1 1) rotate(0) translate(4 388.5)">
<title>%3</title>
<polygon fill="white" stroke="transparent" points="-4,4 -4,-388.5 1367.5,-388.5 1367.5,4 -4,4"/>
<g id="clust1" class="cluster">
<title>cluster__legend</title>
<polygon fill="#ffffff" stroke="black" points="564,-297.5 564,-376.5 948,-376.5 948,-297.5 564,-297.5"/>
<text text-anchor="middle" x="756" y="-361.3" font-family="Helvetica,sans-Serif" font-size="14.00">Legend</text>
</g>
<!-- input -->
<g id="node1" class="node">
<title>input</title>
<polygon fill="#ffffff" stroke="black" stroke-dasharray="5,2" points="939.5,-344 880.5,-344 880.5,-307 939.5,-307 939.5,-344"/>
<text text-anchor="middle" x="910" y="-321.8" font-family="Helvetica,sans-Serif" font-size="14.00">input</text>
</g>
<!-- function -->
<g id="node2" class="node">
<title>function</title>
<path fill="#b4d8e4" stroke="black" d="M850,-344C850,-344 794,-344 794,-344 788,-344 782,-338 782,-332 782,-332 782,-319 782,-319 782,-313 788,-307 794,-307 794,-307 850,-307 850,-307 856,-307 862,-313 862,-319 862,-319 862,-332 862,-332 862,-338 856,-344 850,-344"/>
<text text-anchor="middle" x="822" y="-321.8" font-family="Helvetica,sans-Serif" font-size="14.00">function</text>
</g>
<!-- output -->
<g id="node3" class="node">
<title>output</title>
<path fill="#ffc857" stroke="black" d="M752,-344C752,-344 708,-344 708,-344 702,-344 696,-338 696,-332 696,-332 696,-319 696,-319 696,-313 702,-307 708,-307 708,-307 752,-307 752,-307 758,-307 764,-313 764,-319 764,-319 764,-332 764,-332 764,-338 758,-344 752,-344"/>
<text text-anchor="middle" x="730" y="-321.8" font-family="Helvetica,sans-Serif" font-size="14.00">output</text>
</g>
<!-- materializer -->
<g id="node4" class="node">
<title>materializer</title>
<path fill="#ffffff" stroke="black" d="M677.5,-341.86C677.5,-343.87 653.97,-345.5 625,-345.5 596.03,-345.5 572.5,-343.87 572.5,-341.86 572.5,-341.86 572.5,-309.14 572.5,-309.14 572.5,-307.13 596.03,-305.5 625,-305.5 653.97,-305.5 677.5,-307.13 677.5,-309.14 677.5,-309.14 677.5,-341.86 677.5,-341.86"/>
<path fill="none" stroke="black" d="M677.5,-341.86C677.5,-339.86 653.97,-338.23 625,-338.23 596.03,-338.23 572.5,-339.86 572.5,-341.86"/>
<text text-anchor="middle" x="625" y="-321.8" font-family="Helvetica,sans-Serif" font-size="14.00">materializer</text>
</g>
<!-- save_samples_plots -->
<g id="node5" class="node">
<title>save_samples_plots</title>
<path fill="#ffc857" stroke="black" d="M418,-80C418,-84.41 378.56,-88 330,-88 281.44,-88 242,-84.41 242,-80 242,-80 242,-8 242,-8 242,-3.59 281.44,0 330,0 378.56,0 418,-3.59 418,-8 418,-8 418,-80 418,-80"/>
<path fill="none" stroke="black" d="M418,-80C418,-75.59 378.56,-72 330,-72 281.44,-72 242,-75.59 242,-80"/>
<text text-anchor="start" x="253" y="-54.8" font-family="Helvetica,sans-Serif" font-weight="bold" font-size="14.00">save_samples_plots</text>
<text text-anchor="start" x="256" y="-26.8" font-family="Helvetica,sans-Serif" font-style="italic" font-size="14.00">save_samples_plots()</text>
</g>
<!-- save_state_analysis_plots -->
<g id="node6" class="node">
<title>save_state_analysis_plots</title>
<path fill="#ffc857" stroke="black" d="M224,-80C224,-84.41 173.8,-88 112,-88 50.2,-88 0,-84.41 0,-80 0,-80 0,-8 0,-8 0,-3.59 50.2,0 112,0 173.8,0 224,-3.59 224,-8 224,-8 224,-80 224,-80"/>
<path fill="none" stroke="black" d="M224,-80C224,-75.59 173.8,-72 112,-72 50.2,-72 0,-75.59 0,-80"/>
<text text-anchor="start" x="11" y="-54.8" font-family="Helvetica,sans-Serif" font-weight="bold" font-size="14.00">save_state_analysis_plots</text>
<text text-anchor="start" x="18" y="-26.8" font-family="Helvetica,sans-Serif" font-style="italic" font-size="14.00">save_state_analysis_plots()</text>
</g>
<!-- metrics_bar_plots -->
<g id="node7" class="node">
<title>metrics_bar_plots</title>
<path fill="#b4d8e4" stroke="black" d="M980,-181C980,-181 844,-181 844,-181 838,-181 832,-175 832,-169 832,-169 832,-129 832,-129 832,-123 838,-117 844,-117 844,-117 980,-117 980,-117 986,-117 992,-123 992,-129 992,-129 992,-169 992,-169 992,-175 986,-181 980,-181"/>
<text text-anchor="start" x="843" y="-159.8" font-family="Helvetica,sans-Serif" font-weight="bold" font-size="14.00">metrics_bar_plots</text>
<text text-anchor="start" x="899" y="-131.8" font-family="Helvetica,sans-Serif" font-style="italic" font-size="14.00">dict</text>
</g>
<!-- save_metrics_bar_plots -->
<g id="node8" class="node">
<title>save_metrics_bar_plots</title>
<path fill="#ffc857" stroke="black" d="M971.5,-80C971.5,-84.41 926.01,-88 870,-88 813.99,-88 768.5,-84.41 768.5,-80 768.5,-80 768.5,-8 768.5,-8 768.5,-3.59 813.99,0 870,0 926.01,0 971.5,-3.59 971.5,-8 971.5,-8 971.5,-80 971.5,-80"/>
<path fill="none" stroke="black" d="M971.5,-80C971.5,-75.59 926.01,-72 870,-72 813.99,-72 768.5,-75.59 768.5,-80"/>
<text text-anchor="start" x="779.5" y="-54.8" font-family="Helvetica,sans-Serif" font-weight="bold" font-size="14.00">save_metrics_bar_plots</text>
<text text-anchor="start" x="784" y="-26.8" font-family="Helvetica,sans-Serif" font-style="italic" font-size="14.00">save_metrics_bar_plots()</text>
</g>
<!-- metrics_bar_plots&#45;&gt;save_metrics_bar_plots -->
<g id="edge1" class="edge">
<title>metrics_bar_plots&#45;&gt;save_metrics_bar_plots</title>
<path fill="none" stroke="black" d="M899.28,-116.82C896.82,-110.77 894.17,-104.28 891.51,-97.76"/>
<polygon fill="black" stroke="black" points="894.65,-96.18 887.63,-88.24 888.17,-98.82 894.65,-96.18"/>
</g>
<!-- sample_plots -->
<g id="node9" class="node">
<title>sample_plots</title>
<path fill="#b4d8e4" stroke="black" d="M380.5,-181C380.5,-181 279.5,-181 279.5,-181 273.5,-181 267.5,-175 267.5,-169 267.5,-169 267.5,-129 267.5,-129 267.5,-123 273.5,-117 279.5,-117 279.5,-117 380.5,-117 380.5,-117 386.5,-117 392.5,-123 392.5,-129 392.5,-129 392.5,-169 392.5,-169 392.5,-175 386.5,-181 380.5,-181"/>
<text text-anchor="start" x="278.5" y="-159.8" font-family="Helvetica,sans-Serif" font-weight="bold" font-size="14.00">sample_plots</text>
<text text-anchor="start" x="317" y="-131.8" font-family="Helvetica,sans-Serif" font-style="italic" font-size="14.00">dict</text>
</g>
<!-- sample_plots&#45;&gt;save_samples_plots -->
<g id="edge2" class="edge">
<title>sample_plots&#45;&gt;save_samples_plots</title>
<path fill="none" stroke="black" d="M330,-116.82C330,-111.05 330,-104.88 330,-98.67"/>
<polygon fill="black" stroke="black" points="333.5,-98.24 330,-88.24 326.5,-98.24 333.5,-98.24"/>
</g>
<!-- train_plots -->
<g id="node10" class="node">
<title>train_plots</title>
<path fill="#b4d8e4" stroke="black" d="M1307,-181C1307,-181 1225,-181 1225,-181 1219,-181 1213,-175 1213,-169 1213,-169 1213,-129 1213,-129 1213,-123 1219,-117 1225,-117 1225,-117 1307,-117 1307,-117 1313,-117 1319,-123 1319,-129 1319,-129 1319,-169 1319,-169 1319,-175 1313,-181 1307,-181"/>
<text text-anchor="start" x="1224" y="-159.8" font-family="Helvetica,sans-Serif" font-weight="bold" font-size="14.00">train_plots</text>
<text text-anchor="start" x="1253" y="-131.8" font-family="Helvetica,sans-Serif" font-style="italic" font-size="14.00">dict</text>
</g>
<!-- save_train_plots -->
<g id="node11" class="node">
<title>save_train_plots</title>
<path fill="#ffc857" stroke="black" d="M1363.5,-80C1363.5,-84.41 1330.11,-88 1289,-88 1247.89,-88 1214.5,-84.41 1214.5,-80 1214.5,-80 1214.5,-8 1214.5,-8 1214.5,-3.59 1247.89,0 1289,0 1330.11,0 1363.5,-3.59 1363.5,-8 1363.5,-8 1363.5,-80 1363.5,-80"/>
<path fill="none" stroke="black" d="M1363.5,-80C1363.5,-75.59 1330.11,-72 1289,-72 1247.89,-72 1214.5,-75.59 1214.5,-80"/>
<text text-anchor="start" x="1225.5" y="-54.8" font-family="Helvetica,sans-Serif" font-weight="bold" font-size="14.00">save_train_plots</text>
<text text-anchor="start" x="1227.5" y="-26.8" font-family="Helvetica,sans-Serif" font-style="italic" font-size="14.00">save_train_plots()</text>
</g>
<!-- train_plots&#45;&gt;save_train_plots -->
<g id="edge3" class="edge">
<title>train_plots&#45;&gt;save_train_plots</title>
<path fill="none" stroke="black" d="M1272.96,-116.82C1274.28,-110.91 1275.7,-104.58 1277.12,-98.21"/>
<polygon fill="black" stroke="black" points="1280.58,-98.76 1279.34,-88.24 1273.75,-97.24 1280.58,-98.76"/>
</g>
<!-- metrics_full -->
<g id="node12" class="node">
<title>metrics_full</title>
<path fill="#b4d8e4" stroke="black" d="M1119.5,-274C1119.5,-274 1030.5,-274 1030.5,-274 1024.5,-274 1018.5,-268 1018.5,-262 1018.5,-262 1018.5,-222 1018.5,-222 1018.5,-216 1024.5,-210 1030.5,-210 1030.5,-210 1119.5,-210 1119.5,-210 1125.5,-210 1131.5,-216 1131.5,-222 1131.5,-222 1131.5,-262 1131.5,-262 1131.5,-268 1125.5,-274 1119.5,-274"/>
<text text-anchor="start" x="1029.5" y="-252.8" font-family="Helvetica,sans-Serif" font-weight="bold" font-size="14.00">metrics_full</text>
<text text-anchor="start" x="1062" y="-224.8" font-family="Helvetica,sans-Serif" font-style="italic" font-size="14.00">dict</text>
</g>
<!-- metrics_box_plots -->
<g id="node13" class="node">
<title>metrics_box_plots</title>
<path fill="#b4d8e4" stroke="black" d="M1161,-181C1161,-181 1023,-181 1023,-181 1017,-181 1011,-175 1011,-169 1011,-169 1011,-129 1011,-129 1011,-123 1017,-117 1023,-117 1023,-117 1161,-117 1161,-117 1167,-117 1173,-123 1173,-129 1173,-129 1173,-169 1173,-169 1173,-175 1167,-181 1161,-181"/>
<text text-anchor="start" x="1022" y="-159.8" font-family="Helvetica,sans-Serif" font-weight="bold" font-size="14.00">metrics_box_plots</text>
<text text-anchor="start" x="1079" y="-131.8" font-family="Helvetica,sans-Serif" font-style="italic" font-size="14.00">dict</text>
</g>
<!-- metrics_full&#45;&gt;metrics_box_plots -->
<g id="edge4" class="edge">
<title>metrics_full&#45;&gt;metrics_box_plots</title>
<path fill="none" stroke="black" d="M1080.8,-209.94C1081.91,-204 1083.09,-197.7 1084.25,-191.49"/>
<polygon fill="black" stroke="black" points="1087.77,-191.7 1086.17,-181.23 1080.89,-190.42 1087.77,-191.7"/>
</g>
<!-- save_metrics_box_plots -->
<g id="node15" class="node">
<title>save_metrics_box_plots</title>
<path fill="#ffc857" stroke="black" d="M1196,-80C1196,-84.41 1149.83,-88 1093,-88 1036.17,-88 990,-84.41 990,-80 990,-80 990,-8 990,-8 990,-3.59 1036.17,0 1093,0 1149.83,0 1196,-3.59 1196,-8 1196,-8 1196,-80 1196,-80"/>
<path fill="none" stroke="black" d="M1196,-80C1196,-75.59 1149.83,-72 1093,-72 1036.17,-72 990,-75.59 990,-80"/>
<text text-anchor="start" x="1001" y="-54.8" font-family="Helvetica,sans-Serif" font-weight="bold" font-size="14.00">save_metrics_box_plots</text>
<text text-anchor="start" x="1005.5" y="-26.8" font-family="Helvetica,sans-Serif" font-style="italic" font-size="14.00">save_metrics_box_plots()</text>
</g>
<!-- metrics_box_plots&#45;&gt;save_metrics_box_plots -->
<g id="edge6" class="edge">
<title>metrics_box_plots&#45;&gt;save_metrics_box_plots</title>
<path fill="none" stroke="black" d="M1092.3,-116.82C1092.36,-111.05 1092.42,-104.88 1092.48,-98.67"/>
<polygon fill="black" stroke="black" points="1095.98,-98.27 1092.58,-88.24 1088.98,-98.2 1095.98,-98.27"/>
</g>
<!-- metrics -->
<g id="node14" class="node">
<title>metrics</title>
<path fill="#b4d8e4" stroke="black" d="M956.5,-274C956.5,-274 899.5,-274 899.5,-274 893.5,-274 887.5,-268 887.5,-262 887.5,-262 887.5,-222 887.5,-222 887.5,-216 893.5,-210 899.5,-210 899.5,-210 956.5,-210 956.5,-210 962.5,-210 968.5,-216 968.5,-222 968.5,-222 968.5,-262 968.5,-262 968.5,-268 962.5,-274 956.5,-274"/>
<text text-anchor="start" x="898.5" y="-252.8" font-family="Helvetica,sans-Serif" font-weight="bold" font-size="14.00">metrics</text>
<text text-anchor="start" x="915" y="-224.8" font-family="Helvetica,sans-Serif" font-style="italic" font-size="14.00">dict</text>
</g>
<!-- metrics&#45;&gt;metrics_bar_plots -->
<g id="edge5" class="edge">
<title>metrics&#45;&gt;metrics_bar_plots</title>
<path fill="none" stroke="black" d="M922.54,-209.94C921.49,-204 920.39,-197.7 919.3,-191.49"/>
<polygon fill="black" stroke="black" points="922.67,-190.47 917.49,-181.23 915.78,-191.69 922.67,-190.47"/>
</g>
<!-- samples -->
<g id="node16" class="node">
<title>samples</title>
<path fill="#b4d8e4" stroke="black" d="M476.5,-274C476.5,-274 413.5,-274 413.5,-274 407.5,-274 401.5,-268 401.5,-262 401.5,-262 401.5,-222 401.5,-222 401.5,-216 407.5,-210 413.5,-210 413.5,-210 476.5,-210 476.5,-210 482.5,-210 488.5,-216 488.5,-222 488.5,-222 488.5,-262 488.5,-262 488.5,-268 482.5,-274 476.5,-274"/>
<text text-anchor="start" x="412.5" y="-252.8" font-family="Helvetica,sans-Serif" font-weight="bold" font-size="14.00">samples</text>
<text text-anchor="start" x="432" y="-224.8" font-family="Helvetica,sans-Serif" font-style="italic" font-size="14.00">dict</text>
</g>
<!-- samples&#45;&gt;sample_plots -->
<g id="edge7" class="edge">
<title>samples&#45;&gt;sample_plots</title>
<path fill="none" stroke="black" d="M405.75,-209.94C396.69,-202.77 386.95,-195.07 377.58,-187.65"/>
<polygon fill="black" stroke="black" points="379.48,-184.69 369.47,-181.23 375.14,-190.18 379.48,-184.69"/>
</g>
<!-- target_state09_correlation_plot -->
<g id="node17" class="node">
<title>target_state09_correlation_plot</title>
<path fill="#b4d8e4" stroke="black" d="M676,-181C676,-181 430,-181 430,-181 424,-181 418,-175 418,-169 418,-169 418,-129 418,-129 418,-123 424,-117 430,-117 430,-117 676,-117 676,-117 682,-117 688,-123 688,-129 688,-129 688,-169 688,-169 688,-175 682,-181 676,-181"/>
<text text-anchor="start" x="429" y="-159.8" font-family="Helvetica,sans-Serif" font-weight="bold" font-size="14.00">target_state09_correlation_plot</text>
<text text-anchor="start" x="540" y="-131.8" font-family="Helvetica,sans-Serif" font-style="italic" font-size="14.00">dict</text>
</g>
<!-- samples&#45;&gt;target_state09_correlation_plot -->
<g id="edge8" class="edge">
<title>samples&#45;&gt;target_state09_correlation_plot</title>
<path fill="none" stroke="black" d="M481.87,-209.94C490.29,-202.84 499.33,-195.22 508.05,-187.88"/>
<polygon fill="black" stroke="black" points="510.54,-190.35 515.93,-181.23 506.03,-185 510.54,-190.35"/>
</g>
<!-- state_analysis_plots -->
<g id="node18" class="node">
<title>state_analysis_plots</title>
<path fill="#b4d8e4" stroke="black" d="M214,-181C214,-181 58,-181 58,-181 52,-181 46,-175 46,-169 46,-169 46,-129 46,-129 46,-123 52,-117 58,-117 58,-117 214,-117 214,-117 220,-117 226,-123 226,-129 226,-129 226,-169 226,-169 226,-175 220,-181 214,-181"/>
<text text-anchor="start" x="57" y="-159.8" font-family="Helvetica,sans-Serif" font-weight="bold" font-size="14.00">state_analysis_plots</text>
<text text-anchor="start" x="123" y="-131.8" font-family="Helvetica,sans-Serif" font-style="italic" font-size="14.00">dict</text>
</g>
<!-- samples&#45;&gt;state_analysis_plots -->
<g id="edge9" class="edge">
<title>samples&#45;&gt;state_analysis_plots</title>
<path fill="none" stroke="black" d="M401.38,-228.15C358.62,-215.56 291.9,-195.91 236.06,-179.47"/>
<polygon fill="black" stroke="black" points="236.7,-176.01 226.12,-176.54 234.73,-182.72 236.7,-176.01"/>
</g>
<!-- save_target_state09_correlation_plot -->
<g id="node19" class="node">
<title>save_target_state09_correlation_plot</title>
<path fill="#ffc857" stroke="black" d="M750,-80C750,-84.41 679.63,-88 593,-88 506.37,-88 436,-84.41 436,-80 436,-80 436,-8 436,-8 436,-3.59 506.37,0 593,0 679.63,0 750,-3.59 750,-8 750,-8 750,-80 750,-80"/>
<path fill="none" stroke="black" d="M750,-80C750,-75.59 679.63,-72 593,-72 506.37,-72 436,-75.59 436,-80"/>
<text text-anchor="start" x="447" y="-54.8" font-family="Helvetica,sans-Serif" font-weight="bold" font-size="14.00">save_target_state09_correlation_plot</text>
<text text-anchor="start" x="461.5" y="-26.8" font-family="Helvetica,sans-Serif" font-style="italic" font-size="14.00">save_target_state09_correlation_plot()</text>
</g>
<!-- target_state09_correlation_plot&#45;&gt;save_target_state09_correlation_plot -->
<g id="edge10" class="edge">
<title>target_state09_correlation_plot&#45;&gt;save_target_state09_correlation_plot</title>
<path fill="none" stroke="black" d="M565.11,-116.82C567.46,-110.77 569.98,-104.28 572.51,-97.76"/>
<polygon fill="black" stroke="black" points="575.85,-98.83 576.21,-88.24 569.33,-96.29 575.85,-98.83"/>
</g>
<!-- state_analysis_plots&#45;&gt;save_state_analysis_plots -->
<g id="edge12" class="edge">
<title>state_analysis_plots&#45;&gt;save_state_analysis_plots</title>
<path fill="none" stroke="black" d="M128.73,-116.82C127.36,-110.91 125.88,-104.58 124.4,-98.21"/>
<polygon fill="black" stroke="black" points="127.75,-97.18 122.07,-88.24 120.94,-98.77 127.75,-97.18"/>
</g>
<!-- train_history -->
<g id="node20" class="node">
<title>train_history</title>
<path fill="#b4d8e4" stroke="black" d="M1295,-274C1295,-274 1197,-274 1197,-274 1191,-274 1185,-268 1185,-262 1185,-262 1185,-222 1185,-222 1185,-216 1191,-210 1197,-210 1197,-210 1295,-210 1295,-210 1301,-210 1307,-216 1307,-222 1307,-222 1307,-262 1307,-262 1307,-268 1301,-274 1295,-274"/>
<text text-anchor="start" x="1196" y="-252.8" font-family="Helvetica,sans-Serif" font-weight="bold" font-size="14.00">train_history</text>
<text text-anchor="start" x="1233" y="-224.8" font-family="Helvetica,sans-Serif" font-style="italic" font-size="14.00">dict</text>
</g>
<!-- train_history&#45;&gt;train_plots -->
<g id="edge11" class="edge">
<title>train_history&#45;&gt;train_plots</title>
<path fill="none" stroke="black" d="M1252.83,-209.94C1254.16,-203.86 1255.58,-197.39 1256.98,-191.04"/>
<polygon fill="black" stroke="black" points="1260.41,-191.75 1259.14,-181.23 1253.57,-190.25 1260.41,-191.75"/>
</g>
<!-- _save_samples_plots_inputs -->
<g id="node21" class="node">
<title>_save_samples_plots_inputs</title>
<polygon fill="#ffffff" stroke="black" stroke-dasharray="5,2" points="812,-171.5 710,-171.5 710,-126.5 812,-126.5 812,-171.5"/>
<text text-anchor="start" x="725" y="-144.8" font-family="Helvetica,sans-Serif" font-size="14.00">output_dir</text>
</g>
<!-- _save_samples_plots_inputs&#45;&gt;save_samples_plots -->
<g id="edge13" class="edge">
<title>_save_samples_plots_inputs&#45;&gt;save_samples_plots</title>
<path fill="none" stroke="black" d="M721.9,-126.46C713.86,-122.78 705.31,-119.38 697,-117 580.98,-83.76 543.57,-119.28 427,-88 426.53,-87.87 426.07,-87.75 425.6,-87.62"/>
<polygon fill="black" stroke="black" points="426.29,-84.17 415.7,-84.65 424.27,-90.88 426.29,-84.17"/>
</g>
<!-- _save_samples_plots_inputs&#45;&gt;save_state_analysis_plots -->
<g id="edge14" class="edge">
<title>_save_samples_plots_inputs&#45;&gt;save_state_analysis_plots</title>
<path fill="none" stroke="black" d="M722.66,-126.48C714.42,-122.7 705.6,-119.26 697,-117 497.15,-64.53 435.43,-129.44 233,-88 231.71,-87.74 230.42,-87.46 229.12,-87.18"/>
<polygon fill="black" stroke="black" points="229.63,-83.7 219.1,-84.81 228.02,-90.51 229.63,-83.7"/>
</g>
<!-- _save_samples_plots_inputs&#45;&gt;save_metrics_bar_plots -->
<g id="edge16" class="edge">
<title>_save_samples_plots_inputs&#45;&gt;save_metrics_bar_plots</title>
<path fill="none" stroke="black" d="M783.85,-126.41C793.48,-117.31 805.12,-106.31 816.69,-95.37"/>
<polygon fill="black" stroke="black" points="819.4,-97.63 824.27,-88.22 814.59,-92.54 819.4,-97.63"/>
</g>
<!-- _save_samples_plots_inputs&#45;&gt;save_train_plots -->
<g id="edge15" class="edge">
<title>_save_samples_plots_inputs&#45;&gt;save_train_plots</title>
<path fill="none" stroke="black" d="M798.44,-126.4C806.33,-122.68 814.76,-119.28 823,-117 987.11,-71.63 1041.11,-134.14 1205,-88 1205.22,-87.94 1205.43,-87.88 1205.65,-87.82"/>
<polygon fill="black" stroke="black" points="1207.01,-91.05 1215.45,-84.65 1204.86,-84.39 1207.01,-91.05"/>
</g>
<!-- _save_samples_plots_inputs&#45;&gt;save_metrics_box_plots -->
<g id="edge18" class="edge">
<title>_save_samples_plots_inputs&#45;&gt;save_metrics_box_plots</title>
<path fill="none" stroke="black" d="M799.98,-126.45C807.46,-122.9 815.35,-119.56 823,-117 890.29,-94.47 911.67,-107.14 980,-88 980.6,-87.83 981.2,-87.66 981.8,-87.49"/>
<polygon fill="black" stroke="black" points="983.06,-90.77 991.65,-84.56 981.07,-84.06 983.06,-90.77"/>
</g>
<!-- _save_samples_plots_inputs&#45;&gt;save_target_state09_correlation_plot -->
<g id="edge17" class="edge">
<title>_save_samples_plots_inputs&#45;&gt;save_target_state09_correlation_plot</title>
<path fill="none" stroke="black" d="M725.78,-126.41C710.01,-116.74 690.73,-104.92 671.8,-93.31"/>
<polygon fill="black" stroke="black" points="673.5,-90.25 663.15,-88.01 669.84,-96.22 673.5,-90.25"/>
</g>
<!-- _metrics_full_inputs -->
<g id="node22" class="node">
<title>_metrics_full_inputs</title>
<polygon fill="#ffffff" stroke="black" stroke-dasharray="5,2" points="1044.5,-348 957.5,-348 957.5,-303 1044.5,-303 1044.5,-348"/>
<text text-anchor="start" x="973" y="-321.3" font-family="Helvetica,sans-Serif" font-size="14.00">data_dir</text>
</g>
<!-- _metrics_full_inputs&#45;&gt;metrics_full -->
<g id="edge19" class="edge">
<title>_metrics_full_inputs&#45;&gt;metrics_full</title>
<path fill="none" stroke="black" d="M1020.83,-302.66C1026.68,-296.22 1033.26,-288.97 1039.77,-281.8"/>
<polygon fill="black" stroke="black" points="1042.64,-283.85 1046.77,-274.09 1037.45,-279.14 1042.64,-283.85"/>
</g>
<!-- _metrics_full_inputs&#45;&gt;metrics -->
<g id="edge20" class="edge">
<title>_metrics_full_inputs&#45;&gt;metrics</title>
<path fill="none" stroke="black" d="M981.44,-302.66C975.67,-296.22 969.17,-288.97 962.75,-281.8"/>
<polygon fill="black" stroke="black" points="965.13,-279.21 955.85,-274.09 959.92,-283.88 965.13,-279.21"/>
</g>
<!-- _metrics_full_inputs&#45;&gt;samples -->
<g id="edge21" class="edge">
<title>_metrics_full_inputs&#45;&gt;samples</title>
<path fill="none" stroke="black" d="M965.6,-302.9C961.14,-300.8 956.54,-298.93 952,-297.5 868.49,-271.18 611.29,-252.99 498.71,-246.09"/>
<polygon fill="black" stroke="black" points="498.79,-242.58 488.6,-245.47 498.37,-249.57 498.79,-242.58"/>
</g>
<!-- _metrics_full_inputs&#45;&gt;train_history -->
<g id="edge22" class="edge">
<title>_metrics_full_inputs&#45;&gt;train_history</title>
<path fill="none" stroke="black" d="M1044.52,-310.02C1080.75,-297.97 1133.05,-280.57 1175.28,-266.53"/>
<polygon fill="black" stroke="black" points="1176.57,-269.78 1184.95,-263.31 1174.36,-263.14 1176.57,-269.78"/>
</g>
</g>
</svg>
