<svg version="1.1" xmlns="http://www.w3.org/2000/svg" width="256" height="256"><path d="M0 0 C36.3 0 72.6 0 110 0 C110 5.94 110 11.88 110 18 C116.27 18 122.54 18 129 18 C129 23.94 129 29.88 129 36 C134.94 36 140.88 36 147 36 C147 41.94 147 47.88 147 54 C152.94 54 158.88 54 165 54 C165 66.21 165 78.42 165 91 C170.94 91 176.88 91 183 91 C183 139.51 183 188.02 183 238 C177.06 238 171.12 238 165 238 C165 243.94 165 249.88 165 256 C152.79 256 140.58 256 128 256 C128 250.06 128 244.12 128 238 C121.73 238 115.46 238 109 238 C109 232.06 109 226.12 109 220 C103.39 220 97.78 220 92 220 C92 225.94 92 231.88 92 238 C86.06 238 80.12 238 74 238 C74 243.94 74 249.88 74 256 C61.46 256 48.92 256 36 256 C36 250.06 36 244.12 36 238 C30.06 238 24.12 238 18 238 C18 232.06 18 226.12 18 220 C12.39 220 6.78 220 1 220 C1 225.94 1 231.88 1 238 C-5.27 238 -11.54 238 -18 238 C-18 243.94 -18 249.88 -18 256 C-30.21 256 -42.42 256 -55 256 C-55 250.06 -55 244.12 -55 238 C-60.94 238 -66.88 238 -73 238 C-73 189.49 -73 140.98 -73 91 C-67.06 91 -61.12 91 -55 91 C-55 78.79 -55 66.58 -55 54 C-49.06 54 -43.12 54 -37 54 C-37 48.06 -37 42.12 -37 36 C-31.06 36 -25.12 36 -19 36 C-19 30.06 -19 24.12 -19 18 C-12.73 18 -6.46 18 0 18 C0 12.06 0 6.12 0 0 Z " fill="#CC4F38" transform="translate(73,0)"/><path d="M0 0 C12.21 0 24.42 0 37 0 C37 5.94 37 11.88 37 18 C42.94 18 48.88 18 55 18 C55 36.15 55 54.3 55 73 C49.06 73 43.12 73 37 73 C37 67.06 37 61.12 37 55 C24.79 55 12.58 55 0 55 C0 60.94 0 66.88 0 73 C-5.94 73 -11.88 73 -18 73 C-18 54.85 -18 36.7 -18 18 C-12.06 18 -6.12 18 0 18 C0 12.06 0 6.12 0 0 Z " fill="#FDFDFD" transform="translate(183,55)"/><path d="M0 0 C12.21 0 24.42 0 37 0 C37 5.94 37 11.88 37 18 C42.94 18 48.88 18 55 18 C55 36.15 55 54.3 55 73 C49.06 73 43.12 73 37 73 C37 67.06 37 61.12 37 55 C24.79 55 12.58 55 0 55 C0 60.94 0 66.88 0 73 C-5.94 73 -11.88 73 -18 73 C-18 54.85 -18 36.7 -18 18 C-12.06 18 -6.12 18 0 18 C0 12.06 0 6.12 0 0 Z " fill="#FEFDFD" transform="translate(73,55)"/><path d="M0 0 C12.21 0 24.42 0 37 0 C37 11.88 37 23.76 37 36 C24.79 36 12.58 36 0 36 C0 24.12 0 12.24 0 0 Z " fill="#356A92" transform="translate(183,110)"/><path d="M0 0 C12.21 0 24.42 0 37 0 C37 11.88 37 23.76 37 36 C24.79 36 12.58 36 0 36 C0 24.12 0 12.24 0 0 Z " fill="#346992" transform="translate(73,110)"/></svg>