<svg width="144" height="138" viewBox="0 0 144 138" fill="none" xmlns="http://www.w3.org/2000/svg">
<g filter="url(#filter0_ddd_2818_45883)">
<mask id="path-1-outside-1_2818_45883" maskUnits="userSpaceOnUse" x="20" y="19" width="104" height="98" fill="black">
<rect fill="white" x="20" y="19" width="104" height="98"/>
<path fill-rule="evenodd" clip-rule="evenodd" d="M28 99V85H27C26.4477 85 26 84.5523 26 84V82C26 81.4477 26.4477 81 27 81H28V73H27C26.4477 73 26 72.5523 26 72V70C26 69.4477 26.4477 69 27 69H28V61H27C26.4477 61 26 60.5523 26 60V58C26 57.4477 26.4477 57 27 57H28V43C28 37.8147 31.9467 33.5511 37 33.0494V32C37 27.0294 41.0294 23 46 23H58C62.9706 23 67 27.0294 67 32V99H69C69.5523 99 70 99.4477 70 100V103C70 103.552 69.5523 104 69 104H75C74.4477 104 74 103.552 74 103V100C74 99.4477 74.4477 99 75 99H77V32C77 27.0294 81.0294 23 86 23H98C102.971 23 107 27.0294 107 32V33.0494C112.053 33.5511 116 37.8147 116 43V57H117C117.552 57 118 57.4477 118 58V60C118 60.5523 117.552 61 117 61H116V69H117C117.552 69 118 69.4477 118 70V72C118 72.5523 117.552 73 117 73H116V81H117C117.552 81 118 81.4477 118 82V84C118 84.5523 117.552 85 117 85H116V99H117C117.552 99 118 99.4477 118 100V103C118 103.552 117.552 104 117 104H118C119.105 104 120 104.895 120 106V111C120 112.105 119.105 113 118 113H26C24.8954 113 24 112.105 24 111V106C24 104.895 24.8954 104 26 104H27C26.4477 104 26 103.552 26 103V100C26 99.4477 26.4477 99 27 99H28ZM46 29C44.3431 29 43 30.3431 43 32V33.0494C48.0533 33.5511 52 37.8147 52 43V57H53C53.5523 57 54 57.4477 54 58V60C54 60.5523 53.5523 61 53 61H52V69H53C53.5523 69 54 69.4477 54 70V72C54 72.5523 53.5523 73 53 73H52V81H53C53.5523 81 54 81.4477 54 82V84C54 84.5523 53.5523 85 53 85H52V99H53C53.5523 99 54 99.4477 54 100V103C54 103.552 53.5523 104 53 104H59C58.4477 104 58 103.552 58 103V100C58 99.4477 58.4477 99 59 99H61V32C61 30.3431 59.6569 29 58 29H46ZM92 57V43C92 37.8147 95.9467 33.5511 101 33.0494V32C101 30.3431 99.6569 29 98 29H86C84.3431 29 83 30.3431 83 32V99H85C85.5523 99 86 99.4477 86 100V103C86 103.552 85.5523 104 85 104H91C90.4477 104 90 103.552 90 103V100C90 99.4477 90.4477 99 91 99H92V85H91C90.4477 85 90 84.5523 90 84V82C90 81.4477 90.4477 81 91 81H92V73H91C90.4477 73 90 72.5523 90 72V70C90 69.4477 90.4477 69 91 69H92V61H91C90.4477 61 90 60.5523 90 60V58C90 57.4477 90.4477 57 91 57H92Z"/>
</mask>
<path fill-rule="evenodd" clip-rule="evenodd" d="M28 99V85H27C26.4477 85 26 84.5523 26 84V82C26 81.4477 26.4477 81 27 81H28V73H27C26.4477 73 26 72.5523 26 72V70C26 69.4477 26.4477 69 27 69H28V61H27C26.4477 61 26 60.5523 26 60V58C26 57.4477 26.4477 57 27 57H28V43C28 37.8147 31.9467 33.5511 37 33.0494V32C37 27.0294 41.0294 23 46 23H58C62.9706 23 67 27.0294 67 32V99H69C69.5523 99 70 99.4477 70 100V103C70 103.552 69.5523 104 69 104H75C74.4477 104 74 103.552 74 103V100C74 99.4477 74.4477 99 75 99H77V32C77 27.0294 81.0294 23 86 23H98C102.971 23 107 27.0294 107 32V33.0494C112.053 33.5511 116 37.8147 116 43V57H117C117.552 57 118 57.4477 118 58V60C118 60.5523 117.552 61 117 61H116V69H117C117.552 69 118 69.4477 118 70V72C118 72.5523 117.552 73 117 73H116V81H117C117.552 81 118 81.4477 118 82V84C118 84.5523 117.552 85 117 85H116V99H117C117.552 99 118 99.4477 118 100V103C118 103.552 117.552 104 117 104H118C119.105 104 120 104.895 120 106V111C120 112.105 119.105 113 118 113H26C24.8954 113 24 112.105 24 111V106C24 104.895 24.8954 104 26 104H27C26.4477 104 26 103.552 26 103V100C26 99.4477 26.4477 99 27 99H28ZM46 29C44.3431 29 43 30.3431 43 32V33.0494C48.0533 33.5511 52 37.8147 52 43V57H53C53.5523 57 54 57.4477 54 58V60C54 60.5523 53.5523 61 53 61H52V69H53C53.5523 69 54 69.4477 54 70V72C54 72.5523 53.5523 73 53 73H52V81H53C53.5523 81 54 81.4477 54 82V84C54 84.5523 53.5523 85 53 85H52V99H53C53.5523 99 54 99.4477 54 100V103C54 103.552 53.5523 104 53 104H59C58.4477 104 58 103.552 58 103V100C58 99.4477 58.4477 99 59 99H61V32C61 30.3431 59.6569 29 58 29H46ZM92 57V43C92 37.8147 95.9467 33.5511 101 33.0494V32C101 30.3431 99.6569 29 98 29H86C84.3431 29 83 30.3431 83 32V99H85C85.5523 99 86 99.4477 86 100V103C86 103.552 85.5523 104 85 104H91C90.4477 104 90 103.552 90 103V100C90 99.4477 90.4477 99 91 99H92V85H91C90.4477 85 90 84.5523 90 84V82C90 81.4477 90.4477 81 91 81H92V73H91C90.4477 73 90 72.5523 90 72V70C90 69.4477 90.4477 69 91 69H92V61H91C90.4477 61 90 60.5523 90 60V58C90 57.4477 90.4477 57 91 57H92Z" fill="#25252A"/>
<path fill-rule="evenodd" clip-rule="evenodd" d="M28 99V85H27C26.4477 85 26 84.5523 26 84V82C26 81.4477 26.4477 81 27 81H28V73H27C26.4477 73 26 72.5523 26 72V70C26 69.4477 26.4477 69 27 69H28V61H27C26.4477 61 26 60.5523 26 60V58C26 57.4477 26.4477 57 27 57H28V43C28 37.8147 31.9467 33.5511 37 33.0494V32C37 27.0294 41.0294 23 46 23H58C62.9706 23 67 27.0294 67 32V99H69C69.5523 99 70 99.4477 70 100V103C70 103.552 69.5523 104 69 104H75C74.4477 104 74 103.552 74 103V100C74 99.4477 74.4477 99 75 99H77V32C77 27.0294 81.0294 23 86 23H98C102.971 23 107 27.0294 107 32V33.0494C112.053 33.5511 116 37.8147 116 43V57H117C117.552 57 118 57.4477 118 58V60C118 60.5523 117.552 61 117 61H116V69H117C117.552 69 118 69.4477 118 70V72C118 72.5523 117.552 73 117 73H116V81H117C117.552 81 118 81.4477 118 82V84C118 84.5523 117.552 85 117 85H116V99H117C117.552 99 118 99.4477 118 100V103C118 103.552 117.552 104 117 104H118C119.105 104 120 104.895 120 106V111C120 112.105 119.105 113 118 113H26C24.8954 113 24 112.105 24 111V106C24 104.895 24.8954 104 26 104H27C26.4477 104 26 103.552 26 103V100C26 99.4477 26.4477 99 27 99H28ZM46 29C44.3431 29 43 30.3431 43 32V33.0494C48.0533 33.5511 52 37.8147 52 43V57H53C53.5523 57 54 57.4477 54 58V60C54 60.5523 53.5523 61 53 61H52V69H53C53.5523 69 54 69.4477 54 70V72C54 72.5523 53.5523 73 53 73H52V81H53C53.5523 81 54 81.4477 54 82V84C54 84.5523 53.5523 85 53 85H52V99H53C53.5523 99 54 99.4477 54 100V103C54 103.552 53.5523 104 53 104H59C58.4477 104 58 103.552 58 103V100C58 99.4477 58.4477 99 59 99H61V32C61 30.3431 59.6569 29 58 29H46ZM92 57V43C92 37.8147 95.9467 33.5511 101 33.0494V32C101 30.3431 99.6569 29 98 29H86C84.3431 29 83 30.3431 83 32V99H85C85.5523 99 86 99.4477 86 100V103C86 103.552 85.5523 104 85 104H91C90.4477 104 90 103.552 90 103V100C90 99.4477 90.4477 99 91 99H92V85H91C90.4477 85 90 84.5523 90 84V82C90 81.4477 90.4477 81 91 81H92V73H91C90.4477 73 90 72.5523 90 72V70C90 69.4477 90.4477 69 91 69H92V61H91C90.4477 61 90 60.5523 90 60V58C90 57.4477 90.4477 57 91 57H92Z" stroke="white" stroke-width="8" mask="url(#path-1-outside-1_2818_45883)"/>
<path fill-rule="evenodd" clip-rule="evenodd" d="M46 29C44.3431 29 43 30.3431 43 32V34.6667H37V32C37 27.0294 41.0294 23 46 23H58C62.9706 23 67 27.0294 67 32V104H61V32C61 30.3431 59.6569 29 58 29H46Z" fill="#6F6F73"/>
<path fill-rule="evenodd" clip-rule="evenodd" d="M98 29C99.6569 29 101 30.3431 101 32V34.5556H107V32C107 27.0294 102.971 23 98 23H86C81.0294 23 77 27.0294 77 32V103H83V32C83 30.3431 84.3431 29 86 29H98Z" fill="#6F6F73"/>
<path fill-rule="evenodd" clip-rule="evenodd" d="M98 25C101.866 25 105 28.134 105 32V32.8889H107V32C107 27.0294 102.971 23 98 23H86C81.0294 23 77 27.0294 77 32V104H79V32C79 28.134 82.134 25 86 25H98Z" fill="#A8A8A8"/>
<path fill-rule="evenodd" clip-rule="evenodd" d="M46 25C42.134 25 39 28.134 39 32V32.8889H37V32C37 27.0294 41.0294 23 46 23H58C62.9706 23 67 27.0294 67 32V104H65V32C65 28.134 61.866 25 58 25H46Z" fill="#A8A8A8"/>
<path d="M58 100C58 99.4477 58.4477 99 59 99H69C69.5523 99 70 99.4477 70 100V103C70 103.552 69.5523 104 69 104H59C58.4477 104 58 103.552 58 103V100Z" fill="#515259"/>
<path d="M74 100C74 99.4477 74.4477 99 75 99H85C85.5523 99 86 99.4477 86 100V103C86 103.552 85.5523 104 85 104H75C74.4477 104 74 103.552 74 103V100Z" fill="#515259"/>
<g clip-path="url(#clip0_2818_45883)">
<path d="M92 43C92 37.4772 96.4772 33 102 33H106C111.523 33 116 37.4772 116 43V113H92V43Z" fill="#25252A"/>
<path d="M92 33H100C105.523 33 110 37.4772 110 43V104H92V33Z" fill="#515259"/>
<path d="M94 33H100V104H94V33Z" fill="#6F6F73"/>
<path d="M86 33H120V43H86V33Z" fill="white" fill-opacity="0.18"/>
</g>
<g clip-path="url(#clip1_2818_45883)">
<path d="M28 43C28 37.4772 32.4772 33 38 33H42C47.5228 33 52 37.4772 52 43V113H28V43Z" fill="#25252A"/>
<path d="M28 33H36C41.5228 33 46 37.4772 46 43V104H28V33Z" fill="#515259"/>
<path d="M30 33H36V104H30V33Z" fill="#6F6F73"/>
<path d="M22 33H56V43H22V33Z" fill="white" fill-opacity="0.18"/>
</g>
<path d="M24 106C24 104.895 24.8954 104 26 104H118C119.105 104 120 104.895 120 106V111C120 112.105 119.105 113 118 113H26C24.8954 113 24 112.105 24 111V106Z" fill="#515259"/>
<path d="M90 100C90 99.4477 90.4477 99 91 99H117C117.552 99 118 99.4477 118 100V103C118 103.552 117.552 104 117 104H91C90.4477 104 90 103.552 90 103V100Z" fill="#25252A"/>
<path d="M90 82C90 81.4477 90.4477 81 91 81H117C117.552 81 118 81.4477 118 82V84C118 84.5523 117.552 85 117 85H91C90.4477 85 90 84.5523 90 84V82Z" fill="#25252A"/>
<path d="M26 82C26 81.4477 26.4477 81 27 81H53C53.5523 81 54 81.4477 54 82V84C54 84.5523 53.5523 85 53 85H27C26.4477 85 26 84.5523 26 84V82Z" fill="#25252A"/>
<path d="M90 70C90 69.4477 90.4477 69 91 69H117C117.552 69 118 69.4477 118 70V72C118 72.5523 117.552 73 117 73H91C90.4477 73 90 72.5523 90 72V70Z" fill="#25252A"/>
<path d="M26 70C26 69.4477 26.4477 69 27 69H53C53.5523 69 54 69.4477 54 70V72C54 72.5523 53.5523 73 53 73H27C26.4477 73 26 72.5523 26 72V70Z" fill="#25252A"/>
<path d="M90 58C90 57.4477 90.4477 57 91 57H117C117.552 57 118 57.4477 118 58V60C118 60.5523 117.552 61 117 61H91C90.4477 61 90 60.5523 90 60V58Z" fill="#25252A"/>
<path d="M26 58C26 57.4477 26.4477 57 27 57H53C53.5523 57 54 57.4477 54 58V60C54 60.5523 53.5523 61 53 61H27C26.4477 61 26 60.5523 26 60V58Z" fill="#25252A"/>
<path d="M26 100C26 99.4477 26.4477 99 27 99H53C53.5523 99 54 99.4477 54 100V103C54 103.552 53.5523 104 53 104H27C26.4477 104 26 103.552 26 103V100Z" fill="#25252A"/>
</g>
<defs>
<filter id="filter0_ddd_2818_45883" x="-8" y="-11" width="160" height="160" filterUnits="userSpaceOnUse" color-interpolation-filters="sRGB">
<feFlood flood-opacity="0" result="BackgroundImageFix"/>
<feColorMatrix in="SourceAlpha" type="matrix" values="0 0 0 0 0 0 0 0 0 0 0 0 0 0 0 0 0 0 127 0" result="hardAlpha"/>
<feOffset dy="1"/>
<feGaussianBlur stdDeviation="1"/>
<feColorMatrix type="matrix" values="0 0 0 0 0.309804 0 0 0 0 0.321569 0 0 0 0 0.407843 0 0 0 0.24 0"/>
<feBlend mode="normal" in2="BackgroundImageFix" result="effect1_dropShadow_2818_45883"/>
<feColorMatrix in="SourceAlpha" type="matrix" values="0 0 0 0 0 0 0 0 0 0 0 0 0 0 0 0 0 0 127 0" result="hardAlpha"/>
<feOffset dy="1"/>
<feGaussianBlur stdDeviation="4"/>
<feColorMatrix type="matrix" values="0 0 0 0 0.309804 0 0 0 0 0.321569 0 0 0 0 0.407843 0 0 0 0.08 0"/>
<feBlend mode="normal" in2="effect1_dropShadow_2818_45883" result="effect2_dropShadow_2818_45883"/>
<feColorMatrix in="SourceAlpha" type="matrix" values="0 0 0 0 0 0 0 0 0 0 0 0 0 0 0 0 0 0 127 0" result="hardAlpha"/>
<feMorphology radius="4" operator="dilate" in="SourceAlpha" result="effect3_dropShadow_2818_45883"/>
<feOffset dy="1"/>
<feGaussianBlur stdDeviation="8"/>
<feColorMatrix type="matrix" values="0 0 0 0 0.309804 0 0 0 0 0.321569 0 0 0 0 0.407843 0 0 0 0.1 0"/>
<feBlend mode="normal" in2="effect2_dropShadow_2818_45883" result="effect3_dropShadow_2818_45883"/>
<feBlend mode="normal" in="SourceGraphic" in2="effect3_dropShadow_2818_45883" result="shape"/>
</filter>
<clipPath id="clip0_2818_45883">
<path d="M92 43C92 37.4772 96.4772 33 102 33H106C111.523 33 116 37.4772 116 43V113H92V43Z" fill="white"/>
</clipPath>
<clipPath id="clip1_2818_45883">
<path d="M28 43C28 37.4772 32.4772 33 38 33H42C47.5228 33 52 37.4772 52 43V113H28V43Z" fill="white"/>
</clipPath>
</defs>
</svg>
