<svg width="122" height="121" viewBox="0 0 122 121" fill="none" xmlns="http://www.w3.org/2000/svg">
<g filter="url(#filter0_ddd_2818_45888)">
<path d="M61 98C65.2627 98 69.3654 97.2973 73.1961 96H91C95.9706 96 100 91.9706 100 87V79C100 76.5378 98.7275 74.3745 96.8132 73.1291C96.7769 73.0984 96.7405 73.068 96.7038 73.0379C98.0638 69.3143 98.8578 65.3196 98.9826 61.1597C99.6327 59.9141 100 58.4976 100 57V49C100 46.5378 98.7275 44.3745 96.8132 43.1291C96.06 42.4913 95.1992 41.9744 94.261 41.6095C93.1608 39.6237 91.8881 37.7472 90.4633 36H95C97.7614 36 100 33.7614 100 31C100 30.8098 99.9893 30.6215 99.9683 30.4357C99.9892 30.2929 100 30.1474 100 30C100 28.8598 99.3651 27.8715 98.4317 27.3637C97.5379 26.5203 96.3289 26 95 26H77.9882C72.8738 23.4399 67.1023 22 61 22C54.8977 22 49.1262 23.4399 44.0118 26H31C28.7857 26 26.754 26.8022 25.1868 28.1291C23.2725 29.3744 22 31.5378 22 34V42C22 44.5553 23.0661 46.8611 24.7726 48.4974C23.6208 52.1282 23 55.9933 23 60C23 60.1301 23.0007 60.26 23.002 60.3898C22.3662 61.4445 22 62.6815 22 64V72C22 76.3569 25.0947 79.9892 29.207 80.8211C30.4172 82.6655 31.7835 84.398 33.287 86H27C25.6711 86 24.462 86.5203 23.5683 87.3637C22.6349 87.8715 22 88.8598 22 90C22 90.1474 22.0108 90.2929 22.0317 90.4357C22.0107 90.6215 22 90.8098 22 91C22 93.7614 24.2386 96 27 96H48.8039C52.6346 97.2973 56.7373 98 61 98ZM90 84.5572V86H88.713C89.1539 85.5301 89.5831 85.0491 90 84.5572Z" stroke="white" stroke-width="4"/>
<path d="M97 60C97 79.8823 80.8823 96 61 96C41.1177 96 25 79.8823 25 60C25 40.1177 41.1177 24 61 24C80.8823 24 97 40.1177 97 60Z" fill="#38393E"/>
<path d="M91 60C91 76.5685 77.5685 90 61 90C44.4315 90 31 76.5685 31 60C31 43.4315 44.4315 30 61 30C77.5685 30 91 43.4315 91 60Z" fill="white" fill-opacity="0.6"/>
<path fill-rule="evenodd" clip-rule="evenodd" d="M24 35C24 31.134 27.134 28 31 28H95C96.6569 28 98 29.3431 98 31C98 32.6569 96.6569 34 95 34H31C30.4477 34 30 34.4477 30 35V42C30 42.5523 30.4477 43 31 43H91C94.866 43 98 46.134 98 50V57C98 60.866 94.866 64 91 64H31C30.4477 64 30 64.4477 30 65V72C30 72.5523 30.4477 73 31 73H91C94.866 73 98 76.134 98 80V87C98 90.866 94.866 94 91 94H27C25.3431 94 24 92.6569 24 91C24 89.3431 25.3431 88 27 88H91C91.5523 88 92 87.5523 92 87V80C92 79.4477 91.5523 79 91 79H31C27.134 79 24 75.866 24 72V65C24 61.134 27.134 58 31 58H91C91.5523 58 92 57.5523 92 57V50C92 49.4477 91.5523 49 91 49H31C27.134 49 24 45.866 24 42V35Z" fill="#6F6F73"/>
<path fill-rule="evenodd" clip-rule="evenodd" d="M24 34C24 31.2386 26.2386 29 29 29H97C97.5523 29 98 29.4477 98 30C98 30.5523 97.5523 31 97 31H29C27.3431 31 26 32.3431 26 34V41C26 42.6569 27.3431 44 29 44H93C95.7614 44 98 46.2386 98 49V56C98 58.7614 95.7614 61 93 61H29C27.3431 61 26 62.3431 26 64V71C26 72.6569 27.3431 74 29 74H93C95.7614 74 98 76.2386 98 79V86C98 88.7614 95.7614 91 93 91H25C24.4477 91 24 90.5523 24 90C24 89.4477 24.4477 89 25 89H93C94.6569 89 96 87.6569 96 86V79C96 77.3431 94.6569 76 93 76H29C26.2386 76 24 73.7614 24 71V64C24 61.2386 26.2386 59 29 59H93C94.6569 59 96 57.6569 96 56V49C96 47.3431 94.6569 46 93 46H29C26.2386 46 24 43.7614 24 41V34Z" fill="#8E8E91"/>
<path d="M66.9417 33.6436C72.2414 34.1975 75.9519 36.1623 76.8225 40.792C77.4412 44.0822 75.884 46.0995 74.0379 48.9111C72.4513 51.3276 68.7382 54.1179 68.7382 54.1179H58.8575C56.6352 52.6001 54.3268 48.2741 52.2104 46.6165C48.8461 43.9815 44.7471 43.0863 43.4974 41.3215C42.2477 39.5567 45.8329 31.4373 66.9417 33.6436Z" fill="#25252A"/>
<path fill-rule="evenodd" clip-rule="evenodd" d="M68.2801 40.792C67.4095 36.1623 63.6991 34.1975 58.3994 33.6436C57.615 33.5616 56.8547 33.4939 56.1181 33.4395C59.0706 33.1732 62.6428 33.1943 66.9418 33.6436C72.2414 34.1975 75.9519 36.1623 76.8225 40.792C77.3961 43.8422 76.0996 45.7984 74.4366 48.3076C74.3057 48.5051 74.1726 48.706 74.0379 48.9111C72.4513 51.3276 68.7383 54.1179 68.7383 54.1179H60.1959C60.1959 54.1179 63.9089 51.3276 65.4956 48.9111C65.6302 48.706 65.7634 48.5051 65.8942 48.3076C67.5572 45.7984 68.8537 43.8422 68.2801 40.792Z" fill="#515259"/>
<path fill-rule="evenodd" clip-rule="evenodd" d="M74.2235 40.792C73.3529 36.1623 69.6424 34.1975 64.3428 33.6436C62.3787 33.4383 60.5664 33.3224 58.8956 33.2825C61.2414 33.2229 63.911 33.3268 66.9418 33.6436C72.2414 34.1975 75.9519 36.1623 76.8225 40.792C77.3961 43.8422 76.0996 45.7984 74.4366 48.3076C74.3057 48.5051 74.1726 48.706 74.0379 48.9111C72.4513 51.3276 68.7383 54.1179 68.7383 54.1179H66.1393C66.1393 54.1179 69.8523 51.3276 71.4389 48.9111C71.5736 48.706 71.7067 48.5051 71.8376 48.3076C73.5006 45.7984 74.7971 43.8422 74.2235 40.792Z" fill="#38393E"/>
<path d="M35.5303 66.4545C33.2924 61.4109 33.1647 57.0489 36.9391 53.829C39.6213 51.5407 42.2684 51.874 45.7898 52.0478C48.8164 52.1972 53.285 54.0561 53.285 54.0561L58.3998 62.9153C58.165 65.7075 55.4121 70.0565 54.995 72.8274C54.3318 77.2322 55.6367 81.3791 54.6731 83.4294C53.7095 85.4798 44.444 86.5432 35.5303 66.4545Z" fill="#25252A"/>
<path fill-rule="evenodd" clip-rule="evenodd" d="M35.2243 65.7367C35.5934 64.0927 36.4814 62.6049 38.0068 61.3036C40.4934 59.1822 42.9497 59.3139 46.1005 59.4829C46.3485 59.4962 46.6007 59.5097 46.8576 59.5224C49.8842 59.6718 54.3527 61.5307 54.3527 61.5307L57.2961 66.6289C57.8514 65.2801 58.31 63.9837 58.3998 62.9153L53.285 54.0561C53.285 54.0561 48.8165 52.1972 45.7899 52.0478C45.533 52.0352 45.2808 52.0216 45.0328 52.0083C41.882 51.8394 39.4257 51.7076 36.9391 53.829C33.345 56.8951 33.2891 60.997 35.2243 65.7367Z" fill="#515259"/>
<path fill-rule="evenodd" clip-rule="evenodd" d="M36.9391 53.829C33.1648 57.0488 33.2924 61.4109 35.5303 66.4544C37.4805 70.8496 39.4476 74.2323 41.3409 76.8136C39.7813 74.4649 38.1841 71.5601 36.598 67.9856C34.3601 62.9421 34.2325 58.58 38.0068 55.3601C40.4934 53.2388 42.9497 53.3705 46.1005 53.5395C46.3485 53.5528 46.6007 53.5663 46.8576 53.579C49.4667 53.7078 53.1475 55.1071 54.1132 55.4906L53.285 54.0561C53.285 54.0561 48.8165 52.1972 45.7899 52.0478C45.533 52.0352 45.2808 52.0216 45.0329 52.0083C41.882 51.8394 39.4257 51.7076 36.9391 53.829Z" fill="#38393E"/>
<path d="M80.4058 77.1129C77.157 81.5727 73.4431 83.8643 68.7674 82.2056C65.4446 81.0268 64.4097 78.5677 62.7995 75.4311C61.4156 72.7353 60.7912 67.936 60.7912 67.936L65.906 59.0769C68.4416 57.8841 73.5844 58.0936 76.1926 57.0695C80.3389 55.4414 83.2777 52.2379 85.5351 52.0472C87.7926 51.8565 93.3463 59.349 80.4058 77.1129Z" fill="#25252A"/>
<path fill-rule="evenodd" clip-rule="evenodd" d="M68.7674 73.6631C73.4431 75.3218 77.157 73.0303 80.4059 68.5704C84.6847 62.6967 86.9415 57.9461 87.964 54.2248C89.4567 57.5811 89.2791 64.9322 80.4058 77.1129C77.157 81.5727 73.4431 83.8643 68.7674 82.2056C65.687 81.1128 64.5729 78.9197 63.1438 76.1065C63.0314 75.8851 62.917 75.6599 62.7995 75.4311C61.4156 72.7353 60.7912 67.936 60.7912 67.936L62.2034 65.4901C62.3837 65.9903 62.5823 66.4654 62.7995 66.8887C62.917 67.1175 63.0314 67.3427 63.1439 67.564C64.5729 70.3772 65.687 72.5703 68.7674 73.6631Z" fill="#515259"/>
<path fill-rule="evenodd" clip-rule="evenodd" d="M68.7674 80.0698C73.4431 81.7285 77.157 79.437 80.4059 74.9771C86.2395 66.969 88.3147 61.0483 88.6276 56.978C88.9714 60.9938 87.3562 67.5718 80.4058 77.1128C77.157 81.5726 73.4431 83.8642 68.7674 82.2055C65.687 81.1127 64.5729 78.9196 63.1438 76.1064C63.0314 75.8851 62.917 75.6599 62.7995 75.431C61.4156 72.7353 60.7912 67.9359 60.7912 67.9359L61.0627 67.4658C61.3674 69.1088 61.9354 71.6121 62.7995 73.2954C62.917 73.5242 63.0314 73.7494 63.1439 73.9707C64.5729 76.7839 65.687 78.977 68.7674 80.0698Z" fill="#38393E"/>
<path d="M71 60C71 65.5228 66.5228 70 61 70C55.4772 70 51 65.5228 51 60C51 54.4772 55.4772 50 61 50C66.5228 50 71 54.4772 71 60Z" fill="#25252A"/>
</g>
<defs>
<filter id="filter0_ddd_2818_45888" x="-19" y="-19" width="160" height="160" filterUnits="userSpaceOnUse" color-interpolation-filters="sRGB">
<feFlood flood-opacity="0" result="BackgroundImageFix"/>
<feColorMatrix in="SourceAlpha" type="matrix" values="0 0 0 0 0 0 0 0 0 0 0 0 0 0 0 0 0 0 127 0" result="hardAlpha"/>
<feOffset dy="1"/>
<feGaussianBlur stdDeviation="1"/>
<feColorMatrix type="matrix" values="0 0 0 0 0.309804 0 0 0 0 0.321569 0 0 0 0 0.407843 0 0 0 0.24 0"/>
<feBlend mode="normal" in2="BackgroundImageFix" result="effect1_dropShadow_2818_45888"/>
<feColorMatrix in="SourceAlpha" type="matrix" values="0 0 0 0 0 0 0 0 0 0 0 0 0 0 0 0 0 0 127 0" result="hardAlpha"/>
<feOffset dy="1"/>
<feGaussianBlur stdDeviation="4"/>
<feColorMatrix type="matrix" values="0 0 0 0 0.309804 0 0 0 0 0.321569 0 0 0 0 0.407843 0 0 0 0.08 0"/>
<feBlend mode="normal" in2="effect1_dropShadow_2818_45888" result="effect2_dropShadow_2818_45888"/>
<feColorMatrix in="SourceAlpha" type="matrix" values="0 0 0 0 0 0 0 0 0 0 0 0 0 0 0 0 0 0 127 0" result="hardAlpha"/>
<feMorphology radius="4" operator="dilate" in="SourceAlpha" result="effect3_dropShadow_2818_45888"/>
<feOffset dy="1"/>
<feGaussianBlur stdDeviation="8"/>
<feColorMatrix type="matrix" values="0 0 0 0 0.309804 0 0 0 0 0.321569 0 0 0 0 0.407843 0 0 0 0.1 0"/>
<feBlend mode="normal" in2="effect2_dropShadow_2818_45888" result="effect3_dropShadow_2818_45888"/>
<feBlend mode="normal" in="SourceGraphic" in2="effect3_dropShadow_2818_45888" result="shape"/>
</filter>
</defs>
</svg>
