<?xml version="1.0" encoding="UTF-8"?>
<!-- Created with Inkscape (http://www.inkscape.org/) -->
<svg width="38" height="38" version="1.1" viewBox="0 0 10.054 10.054" xmlns="http://www.w3.org/2000/svg">
 <defs>
  <clipPath id="clipPath1128">
   <path d="M 0,595.276 H 841.89 V 0 H 0 Z"/>
  </clipPath>
 </defs>
 <g transform="translate(-.26457 -.2646)">
  <g transform="matrix(.35807 0 0 -.35807 -179.17 156.79)" clip-path="url(#clipPath1128)">
   <g transform="translate(523.17 409.07)">
    <path d="m0 0c3.318 0 6.032 2.715 6.032 6.032v16.015c0 3.318-2.714 6.032-6.032 6.032h-16.015c-0.805 0-1.574-0.16-2.277-0.45-1.151-0.473-2.124-1.292-2.792-2.325-0.506-0.784-0.837-1.691-0.933-2.663-0.02-0.196-0.03-0.394-0.03-0.594v-16.015c0-2.72 1.825-5.034 4.312-5.779 0.546-0.163 1.123-0.253 1.72-0.253z" fill="#e21482"/>
   </g>
   <g transform="translate(526.42 423.88)">
    <path d="m0 0c-0.342 0.258-0.885 0.214-1.283 0.126-0.458-0.102-0.881-0.314-1.266-0.561-0.368-0.234-0.616-0.569-0.896-0.884-0.474-0.534-1.04-1-1.623-1.431-0.302-0.221-0.809-0.341-1.19-0.217-0.035 0.011-0.07 0.021-0.101 0.036-0.318 0.15-0.418 0.503-0.535 0.79-0.094 0.234-0.18 0.469-0.261 0.707-0.139 0.415-0.158 0.846-0.155 1.279 1e-3 0.429 5e-3 0.865 0.093 1.29 0.104 0.516 0.376 0.982 0.564 1.474 0.068 0.18 0.113 0.366 0.152 0.552 0.077 0.369 0.122 0.746 0.215 1.112 0.082 0.316 0.189 0.626 0.269 0.943 0.078 0.315 0.098 0.637 0.16 0.954 0.055 0.27 0.142 0.535 0.211 0.802 0.095 0.359 0.079 0.738 0.063 1.103-0.015 0.311-0.069 0.622-0.304 0.86-0.28 0.282-0.796 0.328-1.113 0.086-0.352-0.267-0.368-0.8-0.456-1.181-0.164-0.715-0.375-1.424-0.652-2.111-0.102-0.253-0.212-0.505-0.334-0.752-0.191-0.384-0.306-0.789-0.427-1.195-0.089-0.299-0.14-0.635-0.219-0.958-0.065-0.269-0.15-0.531-0.295-0.755-0.066-0.105-0.16-0.18-0.299-0.185-0.098-3e-3 -0.233 0.049-0.301 0.115-0.132 0.13-0.042 0.354-0.035 0.509 6e-3 0.152 8e-3 0.303 0.024 0.453 0.048 0.518 0.102 1.035 0.143 1.553 0.035 0.432 0.06 0.866 0.061 1.3 1e-3 0.597-0.037 1.194-0.046 1.792-8e-3 0.543 0.069 1.083 0.023 1.625-4e-3 0.04-9e-3 0.081-0.015 0.121-0.049 0.361-0.185 0.716-0.484 0.965-0.279 0.236-0.754 0.334-1.094 0.165-0.323-0.159-0.42-0.483-0.434-0.799-0.021-0.444 0.043-0.885 0.031-1.33-0.031-1.012-0.211-2.018-0.355-3.021-0.068-0.484-0.075-0.979-0.101-1.467-0.025-0.503-0.062-1.009-0.039-1.512 6e-3 -0.175 0.066-0.661-0.17-0.746-0.471-0.165-0.428 0.557-0.404 0.766 0.042 0.413-0.046 0.83-0.129 1.235-0.087 0.417-0.262 0.813-0.333 1.233-0.053 0.319-0.095 0.64-0.148 0.961-0.081 0.482-0.141 0.969-0.209 1.457-0.059 0.433-0.104 0.872-0.291 1.278-0.188 0.405-0.733 0.594-1.148 0.358-0.884-0.505-0.366-1.771-0.302-2.51 0.087-1.015 0.169-2.032 0.249-3.046 0.039-0.528 0.127-1.05 0.184-1.577 0.04-0.358 0.121-0.71 0.141-1.07 0.011-0.164 0.061-0.552-0.137-0.647-0.314-0.151-0.435 0.28-0.489 0.475-0.29 1.021-1.072 1.846-1.528 2.8-0.131 0.274-0.225 0.564-0.377 0.827-0.279 0.48-0.683 0.916-1.322 0.744-0.528-0.143-0.323-0.67-0.207-1.026 0.138-0.435 0.37-0.837 0.572-1.249 0.206-0.416 0.363-0.848 0.518-1.282 0.09-0.257 0.181-0.513 0.282-0.767 0.221-0.564 0.358-1.127 0.466-1.719 6e-3 -0.034 0.012-0.066 0.018-0.099 0.254-1.397 0.483-2.798 0.869-4.172 0.151-0.538 0.288-1.081 0.467-1.613 0.167-0.498 0.409-0.976 0.546-1.482 0.131-0.488 0.164-0.992 0.171-1.494 0.019-1.114 4e-3 -2.23 0.011-3.343 3e-3 -0.32 6e-3 -0.64 8e-3 -0.958 1e-3 -0.072 2e-3 -0.282 3e-3 -0.497h7.488c1e-3 0.521-0.014 1.287-0.028 1.681l-0.01 0.013 9e-3 0.012c-8e-3 0.24-0.016 0.425-0.019 0.478-0.029 0.473-0.047 0.937-0.036 1.399 0.012 0.487-0.071 1.004 0.152 1.462 0.208 0.423 0.575 0.746 0.904 1.088 0.379 0.391 0.761 0.782 1.12 1.191 0.237 0.269 0.471 0.539 0.753 0.769 0.436 0.353 0.787 0.782 1.101 1.229 0.331 0.465 0.621 0.95 0.949 1.418 0.312 0.447 0.672 0.845 1.061 1.238 0.249 0.251 0.465 0.527 0.716 0.778 0.369 0.368 0.779 0.714 1.041 1.159 0.165 0.282 0.056 0.698-0.208 0.895" fill="#fff"/>
   </g>
  </g>
 </g>
</svg>
