<?xml version="1.0" encoding="UTF-8"?>
<!-- Created with Inkscape (http://www.inkscape.org/) -->
<svg width="206" height="40" version="1.1" viewBox="0 0 54.504 10.583" xmlns="http://www.w3.org/2000/svg">
 <defs>
  <clipPath id="clipPath1128">
   <path d="M 0,595.276 H 841.89 V 0 H 0 Z"/>
  </clipPath>
 </defs>
 <g transform="matrix(.35807 0 0 -.35807 -179.17 156.79)" clip-path="url(#clipPath1128)">
  <g transform="translate(523.17 409.07)">
   <path d="m0 0c3.318 0 6.032 2.715 6.032 6.032v16.015c0 3.318-2.714 6.032-6.032 6.032h-16.015c-0.805 0-1.574-0.16-2.277-0.45-1.151-0.473-2.124-1.292-2.792-2.325-0.506-0.784-0.837-1.691-0.933-2.663-0.02-0.196-0.03-0.394-0.03-0.594v-16.015c0-2.72 1.825-5.034 4.312-5.779 0.546-0.163 1.123-0.253 1.72-0.253z" fill="#e21482"/>
  </g>
  <g transform="translate(526.42 423.88)">
   <path d="m0 0c-0.342 0.258-0.885 0.214-1.283 0.126-0.458-0.102-0.881-0.314-1.266-0.561-0.368-0.234-0.616-0.569-0.896-0.884-0.474-0.534-1.04-1-1.623-1.431-0.302-0.221-0.809-0.341-1.19-0.217-0.035 0.011-0.07 0.021-0.101 0.036-0.318 0.15-0.418 0.503-0.535 0.79-0.094 0.234-0.18 0.469-0.261 0.707-0.139 0.415-0.158 0.846-0.155 1.279 1e-3 0.429 5e-3 0.865 0.093 1.29 0.104 0.516 0.376 0.982 0.564 1.474 0.068 0.18 0.113 0.366 0.152 0.552 0.077 0.369 0.122 0.746 0.215 1.112 0.082 0.316 0.189 0.626 0.269 0.943 0.078 0.315 0.098 0.637 0.16 0.954 0.055 0.27 0.142 0.535 0.211 0.802 0.095 0.359 0.079 0.738 0.063 1.103-0.015 0.311-0.069 0.622-0.304 0.86-0.28 0.282-0.796 0.328-1.113 0.086-0.352-0.267-0.368-0.8-0.456-1.181-0.164-0.715-0.375-1.424-0.652-2.111-0.102-0.253-0.212-0.505-0.334-0.752-0.191-0.384-0.306-0.789-0.427-1.195-0.089-0.299-0.14-0.635-0.219-0.958-0.065-0.269-0.15-0.531-0.295-0.755-0.066-0.105-0.16-0.18-0.299-0.185-0.098-3e-3 -0.233 0.049-0.301 0.115-0.132 0.13-0.042 0.354-0.035 0.509 6e-3 0.152 8e-3 0.303 0.024 0.453 0.048 0.518 0.102 1.035 0.143 1.553 0.035 0.432 0.06 0.866 0.061 1.3 1e-3 0.597-0.037 1.194-0.046 1.792-8e-3 0.543 0.069 1.083 0.023 1.625-4e-3 0.04-9e-3 0.081-0.015 0.121-0.049 0.361-0.185 0.716-0.484 0.965-0.279 0.236-0.754 0.334-1.094 0.165-0.323-0.159-0.42-0.483-0.434-0.799-0.021-0.444 0.043-0.885 0.031-1.33-0.031-1.012-0.211-2.018-0.355-3.021-0.068-0.484-0.075-0.979-0.101-1.467-0.025-0.503-0.062-1.009-0.039-1.512 6e-3 -0.175 0.066-0.661-0.17-0.746-0.471-0.165-0.428 0.557-0.404 0.766 0.042 0.413-0.046 0.83-0.129 1.235-0.087 0.417-0.262 0.813-0.333 1.233-0.053 0.319-0.095 0.64-0.148 0.961-0.081 0.482-0.141 0.969-0.209 1.457-0.059 0.433-0.104 0.872-0.291 1.278-0.188 0.405-0.733 0.594-1.148 0.358-0.884-0.505-0.366-1.771-0.302-2.51 0.087-1.015 0.169-2.032 0.249-3.046 0.039-0.528 0.127-1.05 0.184-1.577 0.04-0.358 0.121-0.71 0.141-1.07 0.011-0.164 0.061-0.552-0.137-0.647-0.314-0.151-0.435 0.28-0.489 0.475-0.29 1.021-1.072 1.846-1.528 2.8-0.131 0.274-0.225 0.564-0.377 0.827-0.279 0.48-0.683 0.916-1.322 0.744-0.528-0.143-0.323-0.67-0.207-1.026 0.138-0.435 0.37-0.837 0.572-1.249 0.206-0.416 0.363-0.848 0.518-1.282 0.09-0.257 0.181-0.513 0.282-0.767 0.221-0.564 0.358-1.127 0.466-1.719 6e-3 -0.034 0.012-0.066 0.018-0.099 0.254-1.397 0.483-2.798 0.869-4.172 0.151-0.538 0.288-1.081 0.467-1.613 0.167-0.498 0.409-0.976 0.546-1.482 0.131-0.488 0.164-0.992 0.171-1.494 0.019-1.114 4e-3 -2.23 0.011-3.343 3e-3 -0.32 6e-3 -0.64 8e-3 -0.958 1e-3 -0.072 2e-3 -0.282 3e-3 -0.497h7.488c1e-3 0.521-0.014 1.287-0.028 1.681l-0.01 0.013 9e-3 0.012c-8e-3 0.24-0.016 0.425-0.019 0.478-0.029 0.473-0.047 0.937-0.036 1.399 0.012 0.487-0.071 1.004 0.152 1.462 0.208 0.423 0.575 0.746 0.904 1.088 0.379 0.391 0.761 0.782 1.12 1.191 0.237 0.269 0.471 0.539 0.753 0.769 0.436 0.353 0.787 0.782 1.101 1.229 0.331 0.465 0.621 0.95 0.949 1.418 0.312 0.447 0.672 0.845 1.061 1.238 0.249 0.251 0.465 0.527 0.716 0.778 0.369 0.368 0.779 0.714 1.041 1.159 0.165 0.282 0.056 0.698-0.208 0.895" fill="#fff"/>
  </g>
 </g>
 <g fill="#fff" stroke-linecap="round" stroke-linejoin="round" stroke-width=".52917" aria-label="Bénévalibre">
  <path d="m13.035 0.69115h1.7131q1.001 0 1.4847 0.29895 0.48705 0.29559 0.48705 0.92372 0 0.41316-0.21162 0.70539t-0.55759 0.37621v0.03359q0.45682 0.12092 0.66172 0.40308t0.2049 0.73226q0 0.66844-0.50385 1.0547-0.50049 0.38292-1.3671 0.38292h-1.9113zm1.3268 1.8844h0.39972q0.28551 0 0.44003-0.11756 0.15787-0.11756 0.15787-0.34933 0-0.41316-0.62477-0.41316h-0.37285zm0 0.97075v1.0312h0.4669q0.62141 0 0.62141-0.524 0-0.24521-0.16795-0.37621-0.16459-0.131-0.48034-0.131zm5.0687 2.1229q-0.95059 0-1.478-0.50385-0.524-0.50721-0.524-1.441 0-0.96403 0.48705-1.478 0.48705-0.51728 1.3906-0.51728 0.8599 0 1.3268 0.4501 0.47026 0.44674 0.47026 1.2898v0.58446h-2.3479q0.01344 0.3191 0.23177 0.50049 0.22169 0.18139 0.60126 0.18139 0.34598 0 0.63485-0.063821 0.29223-0.06718 0.63149-0.22505v0.94387q-0.30903 0.15787-0.63821 0.21833-0.32918 0.060462-0.786 0.060462zm-0.07726-3.0466q-0.23177 0-0.38964 0.1478-0.15451 0.14444-0.18138 0.45682h1.1286q-0.006718-0.27544-0.15787-0.44003-0.1478-0.16459-0.39972-0.16459zm-0.63149-1.1891v-0.097411q0.51728-0.55423 0.655-0.71546 0.14108-0.16123 0.23177-0.28887h1.4376v0.070539q-0.26872 0.21498-0.73898 0.54751-0.47026 0.33254-0.7121 0.48369zm5.5255 4.1685v-2.0759q0-0.37957-0.11085-0.57103-0.10749-0.19482-0.34934-0.19482-0.33254 0-0.48033 0.26536-0.1478 0.26536-0.1478 0.91028v1.6661h-1.3134v-3.8057h0.9909l0.16459 0.47026h0.07726q0.16795-0.26872 0.46354-0.40308 0.29895-0.13436 0.68523-0.13436 0.63149 0 0.98082 0.36613 0.35269 0.36613 0.35269 1.0312v2.4756zm4.0442 0.06718q-0.95059 0-1.478-0.50385-0.524-0.50721-0.524-1.441 0-0.96403 0.48705-1.478 0.48705-0.51728 1.3906-0.51728 0.8599 0 1.3268 0.4501 0.47026 0.44674 0.47026 1.2898v0.58446h-2.3479q0.01344 0.3191 0.23177 0.50049 0.22169 0.18139 0.60126 0.18139 0.34598 0 0.63485-0.063821 0.29223-0.06718 0.63149-0.22505v0.94387q-0.30903 0.15787-0.63821 0.21833-0.32918 0.060462-0.786 0.060462zm-0.077256-3.0466q-0.23177 0-0.38964 0.1478-0.15451 0.14444-0.18138 0.45682h1.1286q-0.006718-0.27544-0.15787-0.44003-0.1478-0.16459-0.39972-0.16459zm-0.63149-1.1891v-0.097411q0.51728-0.55423 0.655-0.71546 0.14108-0.16123 0.23177-0.28887h1.4376v0.070539q-0.26872 0.21498-0.73898 0.54751-0.47026 0.33254-0.7121 0.48369zm3.9838 4.1685-1.4511-3.8057h1.3705l0.64492 2.2505q0.0034 0.016795 0.01344 0.057103 0.01008 0.040308 0.02015 0.09741 0.01008 0.053744 0.01679 0.11756 0.01008 0.060462 0.01008 0.11421h0.02351q0-0.17467 0.06046-0.37957l0.67516-2.2572h1.3671l-1.4511 3.8057z"/>
  <path d="m35.658 5.6692q-0.47362 0-0.74905-0.33926-0.27544-0.34262-0.27544-0.96067 0-0.67851 0.23177-1.2697 0.23513-0.59118 0.64492-0.9338 0.4098-0.34598 0.90021-0.34598 0.32582 0 0.56095 0.15451 0.23513 0.15115 0.36613 0.44339h0.03359l0.20826-0.53072h0.60462l-0.79272 3.715h-0.61134l0.07054-0.59118h-0.02015q-0.53072 0.65836-1.1723 0.65836zm0.28887-0.63821q0.27544 0 0.5408-0.25864 0.26536-0.262 0.43667-0.69867 0.17131-0.43667 0.17131-0.95395 0-0.29559-0.15787-0.47362-0.15787-0.18139-0.41316-0.18139-0.28551 0-0.53744 0.25864t-0.40308 0.70539q-0.15115 0.44339-0.15115 0.92036 0 0.34262 0.13436 0.51392 0.13772 0.16795 0.37956 0.16795z"/>
  <path d="m40.068 5.602h-1.3134v-5.2266h1.3134zm2.2304 0h-1.3134v-3.8057h1.3134zm-1.347-4.753q0-0.29559 0.16459-0.44003t0.53072-0.14444q0.36613 0 0.53408 0.1478t0.16795 0.43667q0 0.57775-0.70203 0.57775-0.69531 0-0.69531-0.57775zm4.5884 0.88005q0.62141 0 0.98418 0.52064 0.36613 0.52064 0.36613 1.441 0 0.92708-0.36949 1.4544-0.36613 0.524-1.0211 0.524-0.21162 0-0.37621-0.047026-0.16459-0.043667-0.29559-0.12428-0.12764-0.080616-0.29895-0.26872h-0.08062l-0.20826 0.37285h-1.0245v-5.2266h1.3134v1.1824q0 0.21162-0.04703 0.7289h0.04703q0.19146-0.29559 0.44003-0.42659 0.25192-0.131 0.57103-0.131zm-0.48033 1.0312q-0.27544 0-0.40308 0.19146-0.12764 0.19146-0.12764 0.60126v0.18474q0 0.4669 0.12764 0.6718 0.12764 0.20154 0.41652 0.20154 0.23177 0 0.35605-0.23513 0.12428-0.23849 0.12428-0.69867 0-0.917-0.49377-0.917zm4.8772-1.0312q0.17131 0 0.32582 0.026872l0.0739 0.013436-0.11756 1.2395q-0.16123-0.040308-0.44674-0.040308-0.42995 0-0.62477 0.19818-0.19482 0.19482-0.19482 0.56431v1.871h-1.3134v-3.8057h0.97746l0.2049 0.60798h0.06382q0.16459-0.30231 0.45682-0.48705 0.29559-0.1881 0.59454-0.1881zm2.6301 3.9401q-0.95059 0-1.478-0.50385-0.524-0.50721-0.524-1.441 0-0.96403 0.48705-1.478 0.48705-0.51728 1.3906-0.51728 0.8599 0 1.3268 0.4501 0.47026 0.44674 0.47026 1.2898v0.58446h-2.3479q0.01344 0.3191 0.23177 0.50049 0.22169 0.18139 0.60126 0.18139 0.34598 0 0.63485-0.063821 0.29223-0.06718 0.63149-0.22505v0.94387q-0.30903 0.15787-0.63821 0.21833-0.32918 0.060462-0.786 0.060462zm-0.07726-3.0466q-0.23177 0-0.38964 0.1478-0.15451 0.14444-0.18139 0.45682h1.1286q-0.006718-0.27544-0.15787-0.44003-0.1478-0.16459-0.39972-0.16459z"/>
 </g>
 <path d="m13.551 9.2251q0.10245-0.24185 0.27208-0.56767l0.80448-1.5569h0.32078l-1.3117 2.4554h-0.30231l-0.27208-2.4554h0.28551l0.16291 1.5619q0.03359 0.32918 0.03359 0.56263zm2.0842-1.5435q0.15451 0 0.27544 0.083975 0.12092 0.082295 0.1881 0.23849h0.01847l0.11253-0.28887h0.2133l-0.39132 1.8407h-0.22337l0.04367-0.35101h-0.013439q-0.30063 0.3846-0.63317 0.3846-0.23345 0-0.36613-0.16627t-0.13268-0.45514q0-0.34933 0.11924-0.64828t0.32918-0.46858q0.20994-0.16963 0.46018-0.16963zm-0.3191 1.6745q0.16291 0 0.32414-0.15451 0.16123-0.15619 0.262-0.40476 0.10077-0.25024 0.10077-0.50049 0-0.17299-0.09405-0.27544t-0.24689-0.10245q-0.17467 0-0.32582 0.14444-0.14948 0.14444-0.23513 0.39132-0.08565 0.24689-0.08565 0.52064 0 0.19146 0.07894 0.28719 0.07894 0.094052 0.22169 0.094052zm1.567 0.19986h-0.28216l0.55759-2.6133h0.28216zm1.5754-1.8642q0.3191 0 0.50385 0.18978 0.18474 0.1881 0.18474 0.51896 0 0.31574-0.12092 0.59622-0.12092 0.28048-0.3275 0.43331-0.20658 0.15283-0.4669 0.15283-0.32246 0-0.50553-0.18978-0.18306-0.18978-0.18306-0.51896 0-0.3191 0.1226-0.59958 0.1226-0.28215 0.33086-0.43163 0.20826-0.15115 0.46186-0.15115zm0.39636 0.67012q0-0.19314-0.10581-0.31239-0.10413-0.12092-0.28383-0.12092-0.18306 0-0.32918 0.12428-0.14444 0.12428-0.22505 0.34598-0.07894 0.22001-0.07894 0.49041 0 0.22001 0.10581 0.34094 0.10749 0.11924 0.30735 0.11924 0.17467 0 0.31406-0.1226t0.21666-0.34765q0.07894-0.22673 0.07894-0.51728zm1.7164-0.68019q0.11588 0 0.20154 0.023513l-0.06046 0.25192q-0.08901-0.021833-0.17635-0.021833-0.15283 0-0.28719 0.10077-0.13268 0.10077-0.23345 0.28048-0.09909 0.17803-0.14612 0.39636l-0.17971 0.8431h-0.28216l0.393-1.8407h0.23345l-0.03695 0.34094h0.0168q0.12092-0.15955 0.19986-0.22841 0.07894-0.070539 0.16459-0.10749 0.08733-0.038628 0.19314-0.038628zm0.48034 1.8743h-0.28216l0.393-1.8407h0.28216zm0.18978-2.311q0-0.094051 0.05374-0.15283 0.05374-0.060462 0.1394-0.060462 0.1478 0 0.1478 0.15115 0 0.092372-0.0571 0.15619-0.05542 0.063821-0.12932 0.063821-0.06718 0-0.11085-0.040308-0.04367-0.041987-0.04367-0.11756zm1.5367 1.7887q0 0.262-0.18642 0.4098-0.18474 0.14612-0.52232 0.14612-0.28383 0-0.51224-0.11588v-0.26536q0.11756 0.070539 0.2536 0.10917t0.25192 0.038628q0.21162 0 0.3191-0.083975 0.10749-0.083975 0.10749-0.21498 0-0.095731-0.05878-0.16123-0.05878-0.0655-0.2536-0.17971-0.21834-0.1226-0.30903-0.24017-0.090693-0.11756-0.090693-0.2788 0-0.23177 0.16963-0.37285 0.16963-0.14276 0.44674-0.14276 0.28719 0 0.55423 0.12428l-0.09069 0.23009-0.09405-0.041987q-0.16963-0.072218-0.36949-0.072218-0.15619 0-0.24521 0.073898-0.08901 0.072218-0.08901 0.1881 0 0.094051 0.05878 0.16123 0.06046 0.06718 0.24689 0.17299 0.1797 0.10077 0.25696 0.17299 0.07894 0.072218 0.11756 0.15619 0.03863 0.082295 0.03863 0.18642zm1.0648 0.55591q-0.30903 0-0.48537-0.18306-0.17635-0.18306-0.17635-0.50721 0-0.31574 0.12428-0.60462 0.12596-0.29055 0.33254-0.45178 0.20658-0.16123 0.45514-0.16123 0.25696 0 0.38628 0.11253 0.12932 0.11085 0.12932 0.31071 0 0.30231-0.2788 0.4753-0.2788 0.17131-0.79776 0.17131h-0.05542l-0.0067 0.13436q0 0.22001 0.10245 0.3443 0.10413 0.1226 0.32078 0.1226 0.10581 0 0.21666-0.030231 0.11253-0.030231 0.2788-0.11085v0.24521q-0.15787 0.073898-0.2788 0.10245-0.12092 0.030231-0.26704 0.030231zm0.23345-1.6677q-0.17299 0-0.32582 0.15787-0.15116 0.15787-0.23177 0.43835h0.02015q0.38292 0 0.58614-0.09909 0.2049-0.10077 0.2049-0.29055 0-0.089013-0.06214-0.1478-0.06046-0.058782-0.19146-0.058782zm1.8995-0.24017q0.11588 0 0.20154 0.023513l-0.06046 0.25192q-0.08901-0.021833-0.17635-0.021833-0.15283 0-0.28719 0.10077-0.13268 0.10077-0.23345 0.28048-0.09909 0.17803-0.14612 0.39636l-0.17971 0.8431h-0.28215l0.393-1.8407h0.23345l-0.03695 0.34094h0.01679q0.12092-0.15955 0.19986-0.22841 0.07894-0.070539 0.16459-0.10749 0.08733-0.038628 0.19314-0.038628zm1.3705 1.8743h-0.28215l0.55759-2.6133h0.28216zm1.31-2.4554-0.25696 0.88677h-0.17971l0.12092-0.88677zm0.55087 2.489q-0.30903 0-0.48537-0.18306-0.17635-0.18306-0.17635-0.50721 0-0.31574 0.12428-0.60462 0.12596-0.29055 0.33254-0.45178 0.20658-0.16123 0.45514-0.16123 0.25696 0 0.38628 0.11253 0.12932 0.11085 0.12932 0.31071 0 0.30231-0.2788 0.4753-0.2788 0.17131-0.79776 0.17131h-0.05542l-0.0067 0.13436q0 0.22001 0.10245 0.3443 0.10413 0.1226 0.32078 0.1226 0.10581 0 0.21666-0.030231 0.11253-0.030231 0.2788-0.11085v0.24521q-0.15787 0.073898-0.2788 0.10245-0.12092 0.030231-0.26704 0.030231zm0.23345-1.6677q-0.17299 0-0.32582 0.15787-0.15116 0.15787-0.23177 0.43835h0.02015q0.38292 0 0.58614-0.09909 0.2049-0.10077 0.2049-0.29055 0-0.089013-0.06214-0.1478-0.06046-0.058782-0.19146-0.058782zm1.8609 1.6341 0.24856-1.1622q0.03359-0.17467 0.03359-0.24185 0-0.10581-0.06046-0.16963-0.05878-0.063821-0.18978-0.063821-0.14948 0-0.29223 0.10077-0.14108 0.10077-0.25024 0.28719-0.10749 0.18642-0.16291 0.45178l-0.16963 0.79776h-0.28215l0.393-1.8407h0.23345l-0.03695 0.34094h0.01679q0.16123-0.2049 0.31071-0.28887 0.15116-0.085654 0.31239-0.085654 0.2133 0 0.3359 0.11756 0.12428 0.11588 0.12428 0.32582 0 0.13268-0.03863 0.30231l-0.24017 1.1286zm2.6083-1.8407-0.04199 0.17971-0.35437 0.040308q0.06886 0.10413 0.06886 0.26536 0 0.32078-0.1965 0.51225-0.19482 0.18978-0.52232 0.18978-0.09237 0-0.14108-0.013436-0.23345 0.089013-0.23345 0.22001 0 0.068859 0.05542 0.092372 0.05542 0.021833 0.16123 0.035269l0.1965 0.023513q0.30399 0.036949 0.44003 0.1478 0.13772 0.11085 0.13772 0.32582 0 0.30903-0.24521 0.47866t-0.69027 0.16963q-0.32582 0-0.51057-0.12428-0.18474-0.1226-0.18474-0.34765 0-0.17635 0.12092-0.30567 0.12092-0.12932 0.39132-0.22001-0.131-0.068859-0.131-0.20322 0-0.11588 0.08565-0.19818 0.08565-0.083975 0.23849-0.15619-0.10581-0.053744-0.17299-0.15787-0.06718-0.10581-0.06718-0.24521 0-0.32582 0.19986-0.53408 0.20154-0.20826 0.51392-0.20826 0.131 0 0.25864 0.03359zm-1.7887 2.1682q0 0.12932 0.10917 0.2049 0.10917 0.07558 0.32414 0.07558 0.30567 0 0.47698-0.10749 0.17299-0.10581 0.17299-0.30063 0-0.10413-0.09069-0.16459-0.09069-0.060462-0.30903-0.083975l-0.26704-0.026872q-0.20154 0.041987-0.30903 0.1478-0.10749 0.10581-0.10749 0.25528zm0.4669-1.4696q0 0.14276 0.07558 0.21833 0.07558 0.073898 0.20994 0.073898 0.13268 0 0.23177-0.070539t0.15115-0.19314q0.05374-0.12428 0.05374-0.26872 0-0.13772-0.0739-0.20994-0.0739-0.072218-0.21162-0.072218-0.131 0-0.23009 0.068859-0.09741 0.06718-0.15283 0.18978-0.05374 0.12092-0.05374 0.26368zm2.2707-0.73226q0.15451 0 0.27544 0.083975 0.12092 0.082295 0.1881 0.23849h0.01847l0.11253-0.28887h0.2133l-0.39132 1.8407h-0.22337l0.04367-0.35101h-0.01344q-0.30063 0.3846-0.63317 0.3846-0.23345 0-0.36613-0.16627t-0.13268-0.45514q0-0.34933 0.11924-0.64828t0.32918-0.46858q0.20994-0.16963 0.46018-0.16963zm-0.3191 1.6745q0.16291 0 0.32414-0.15451 0.16123-0.15619 0.262-0.40476 0.10077-0.25024 0.10077-0.50049 0-0.17299-0.09405-0.27544t-0.24688-0.10245q-0.17467 0-0.32582 0.14444-0.14948 0.14444-0.23513 0.39132-0.08565 0.24689-0.08565 0.52064 0 0.19146 0.07894 0.28719 0.07894 0.094052 0.22169 0.094052zm3.0365-1.6409-0.04199 0.17971-0.35437 0.040308q0.06886 0.10413 0.06886 0.26536 0 0.32078-0.1965 0.51225-0.19482 0.18978-0.52232 0.18978-0.09237 0-0.14108-0.013436-0.23345 0.089013-0.23345 0.22001 0 0.068859 0.05542 0.092372 0.05542 0.021833 0.16123 0.035269l0.1965 0.023513q0.30399 0.036949 0.44003 0.1478 0.13772 0.11085 0.13772 0.32582 0 0.30903-0.24521 0.47866t-0.69027 0.16963q-0.32582 0-0.51057-0.12428-0.18474-0.1226-0.18474-0.34765 0-0.17635 0.12092-0.30567 0.12092-0.12932 0.39132-0.22001-0.131-0.068859-0.131-0.20322 0-0.11588 0.08565-0.19818 0.08565-0.083975 0.23849-0.15619-0.10581-0.053744-0.17299-0.15787-0.06718-0.10581-0.06718-0.24521 0-0.32582 0.19986-0.53408 0.20154-0.20826 0.51392-0.20826 0.131 0 0.25864 0.03359zm-1.7887 2.1682q0 0.12932 0.10917 0.2049 0.10917 0.07558 0.32414 0.07558 0.30567 0 0.47698-0.10749 0.17299-0.10581 0.17299-0.30063 0-0.10413-0.09069-0.16459-0.09069-0.060462-0.30903-0.083975l-0.26704-0.026872q-0.20154 0.041987-0.30903 0.1478-0.10749 0.10581-0.10749 0.25528zm0.4669-1.4696q0 0.14276 0.07558 0.21833 0.07558 0.073898 0.20994 0.073898 0.13268 0 0.23177-0.070539t0.15116-0.19314q0.05374-0.12428 0.05374-0.26872 0-0.13772-0.0739-0.20994-0.0739-0.072218-0.21162-0.072218-0.131 0-0.23009 0.068859-0.09741 0.06718-0.15283 0.18978-0.05374 0.12092-0.05374 0.26368zm2.0238 1.1756q-0.30903 0-0.48537-0.18306-0.17635-0.18306-0.17635-0.50721 0-0.31574 0.12428-0.60462 0.12596-0.29055 0.33254-0.45178 0.20658-0.16123 0.45514-0.16123 0.25696 0 0.38628 0.11253 0.12932 0.11085 0.12932 0.31071 0 0.30231-0.2788 0.4753-0.2788 0.17131-0.79776 0.17131h-0.05542l-0.0067 0.13436q0 0.22001 0.10245 0.3443 0.10413 0.1226 0.32078 0.1226 0.10581 0 0.21665-0.030231 0.11253-0.030231 0.2788-0.11085v0.24521q-0.15787 0.073898-0.2788 0.10245-0.12092 0.030231-0.26704 0.030231zm0.23345-1.6677q-0.17299 0-0.32582 0.15787-0.15116 0.15787-0.23177 0.43835h0.02015q0.38292 0 0.58614-0.09909 0.2049-0.10077 0.2049-0.29055 0-0.089013-0.06214-0.1478-0.06046-0.058782-0.19146-0.058782zm1.8055 1.6341 0.24856-1.1622q0.03023-0.15787 0.03023-0.22673 0-0.11756-0.05206-0.18306-0.05207-0.0655-0.17803-0.0655-0.14108 0-0.27544 0.10077-0.13268 0.10077-0.23513 0.28887-0.10077 0.18642-0.15619 0.4501l-0.16963 0.79776h-0.28215l0.393-1.8407h0.23345l-0.03695 0.34094h0.01679q0.14612-0.19986 0.29055-0.28719 0.14612-0.087334 0.30063-0.087334 0.18978 0 0.29223 0.10917t0.12092 0.30399h0.01344q0.14444-0.20994 0.30735-0.31071 0.16291-0.10245 0.32918-0.10245 0.2133 0 0.32918 0.11421 0.11756 0.11421 0.11756 0.33254 0 0.11421-0.03695 0.29895l-0.24184 1.1286h-0.28551l0.24856-1.1622q0.03359-0.17467 0.03359-0.24521 0-0.10413-0.05878-0.16627-0.0571-0.063821-0.18138-0.063821-0.13604 0-0.26872 0.097411t-0.23345 0.27712q-0.09909 0.17803-0.15115 0.42323l-0.17971 0.83975zm2.657 0.03359q-0.30903 0-0.48537-0.18306-0.17635-0.18306-0.17635-0.50721 0-0.31574 0.12428-0.60462 0.12596-0.29055 0.33254-0.45178 0.20658-0.16123 0.45514-0.16123 0.25696 0 0.38628 0.11253 0.12932 0.11085 0.12932 0.31071 0 0.30231-0.2788 0.4753-0.2788 0.17131-0.79776 0.17131h-0.05542l-0.0067 0.13436q0 0.22001 0.10245 0.3443 0.10413 0.1226 0.32078 0.1226 0.10581 0 0.21666-0.030231 0.11253-0.030231 0.2788-0.11085v0.24521q-0.15787 0.073898-0.2788 0.10245-0.12092 0.030231-0.26704 0.030231zm0.23345-1.6677q-0.17299 0-0.32582 0.15787-0.15116 0.15787-0.23177 0.43835h0.02015q0.38292 0 0.58614-0.09909 0.2049-0.10077 0.2049-0.29055 0-0.089013-0.06214-0.1478-0.06046-0.058782-0.19146-0.058782zm1.8609 1.6341 0.24856-1.1622q0.03359-0.17467 0.03359-0.24185 0-0.10581-0.06046-0.16963-0.05878-0.063821-0.18978-0.063821-0.14948 0-0.29223 0.10077-0.14108 0.10077-0.25024 0.28719-0.10749 0.18642-0.16291 0.45178l-0.16963 0.79776h-0.28215l0.393-1.8407h0.23345l-0.03695 0.34094h0.0168q0.16123-0.2049 0.31071-0.28887 0.15116-0.085654 0.31239-0.085654 0.2133 0 0.3359 0.11756 0.12428 0.11588 0.12428 0.32582 0 0.13268-0.03863 0.30231l-0.24017 1.1286zm1.4242-0.1965q0.09237 0 0.24185-0.043667v0.21665q-0.0571 0.023513-0.14108 0.040308-0.08397 0.016795-0.13436 0.016795-0.20994 0-0.32246-0.09909-0.11085-0.10077-0.11085-0.29895 0-0.11085 0.03023-0.25192l0.2133-1.0111h-0.28887l0.02351-0.1226 0.31071-0.131 0.20994-0.38292h0.16459l-0.09237 0.42323h0.46018l-0.04367 0.2133h-0.4585l-0.21665 1.0144q-0.03023 0.14612-0.03023 0.22169 0 0.094052 0.04871 0.14444 0.0487 0.050385 0.13604 0.050385z" fill="#868888" stroke-linecap="round" stroke-linejoin="round" stroke-width=".52917" aria-label="Valoriser l'engagement"/>
</svg>
