<?xml version="1.0" encoding="UTF-8"?>
<!-- Created with Inkscape (http://www.inkscape.org/) -->
<svg width="300" height="39" version="1.1" viewBox="0 0 79.375 10.319" xmlns="http://www.w3.org/2000/svg">
 <g transform="translate(-.040824 .41057)" fill="#fff" stroke-linecap="round" stroke-linejoin="round" stroke-width=".94234">
  <path d="m0.040824 0.4039h3.3q1.9282 0 2.86 0.57077 0.93824 0.56435 0.93824 1.7636 0 0.78881-0.40765 1.3468t-1.0741 0.71827v0.064131q0.88 0.23087 1.2747 0.76957 0.39471 0.5387 0.39471 1.3981 0 1.2762-0.97059 2.0137-0.96412 0.7311-2.6335 0.7311h-3.6818zm2.5559 3.5978h0.77q0.55 0 0.84765-0.22446 0.30412-0.22446 0.30412-0.66696 0-0.78881-1.2035-0.78881h-0.71824zm0 1.8534v1.9688h0.89941q1.1971 0 1.1971-1.0004 0-0.46816-0.32353-0.71827-0.31706-0.25011-0.9253-0.25011zm9.7641 4.0531q-1.8312 0-2.8471-0.96197-1.0094-0.96838-1.0094-2.7512 0-1.8406 0.93824-2.8218 0.93824-0.98762 2.6788-0.98762 1.6565 0 2.5559 0.85936 0.90588 0.85295 0.90588 2.4626v1.1159h-4.5229q0.02589 0.60925 0.44647 0.95556 0.42706 0.34631 1.1582 0.34631 0.66647 0 1.2229-0.12185 0.56294-0.12826 1.2165-0.42968v1.8021q-0.5953 0.30142-1.2294 0.41685-0.63412 0.11544-1.5141 0.11544zm-0.14882-5.8167q-0.44647 0-0.75059 0.28218-0.29765 0.27576-0.34941 0.87218h2.1741q-0.012941-0.52588-0.30412-0.84012-0.28471-0.31424-0.77-0.31424zm-1.2165-2.2702v-0.18598q0.99647-1.0582 1.2618-1.366 0.27176-0.30783 0.44647-0.55153h2.7694v0.13468q-0.51765 0.41044-1.4235 1.0453-0.90588 0.6349-1.3718 0.92349zm10.644 7.9587v-3.9633q0-0.72468-0.21353-1.0902-0.20706-0.37196-0.67294-0.37196-0.64059 0-0.9253 0.50664-0.28471 0.50664-0.28471 1.738v3.1809h-2.53v-7.2661h1.9088l0.31706 0.89784h0.14882q0.32353-0.51305 0.89294-0.76957 0.57588-0.25652 1.32-0.25652 1.2165 0 1.8894 0.69903 0.67941 0.69903 0.67941 1.9688v4.7265zm7.7906 0.12826q-1.8312 0-2.8471-0.96197-1.0094-0.96838-1.0094-2.7512 0-1.8406 0.93824-2.8218 0.93824-0.98762 2.6788-0.98762 1.6565 0 2.5559 0.85936 0.90588 0.85295 0.90588 2.4626v1.1159h-4.5229q0.02588 0.60925 0.44647 0.95556 0.42706 0.34631 1.1582 0.34631 0.66647 0 1.2229-0.12185 0.56294-0.12826 1.2165-0.42968v1.8021q-0.5953 0.30142-1.2294 0.41685-0.63412 0.11544-1.5141 0.11544zm-0.14882-5.8167q-0.44647 0-0.75059 0.28218-0.29765 0.27576-0.34941 0.87218h2.1741q-0.012942-0.52588-0.30412-0.84012-0.28471-0.31424-0.77-0.31424zm-1.2165-2.2702v-0.18598q0.99647-1.0582 1.2618-1.366 0.27176-0.30783 0.44647-0.55153h2.7694v0.13468q-0.51765 0.41044-1.4235 1.0453t-1.3718 0.92349zm7.6741 7.9587-2.7953-7.2661h2.64l1.2424 4.2968q0.0064 0.032066 0.02589 0.10902 0.01942 0.076958 0.03882 0.18598 0.01942 0.10261 0.03235 0.22446 0.01942 0.11544 0.01942 0.21805h0.04529q0-0.33348 0.11647-0.72468l1.3006-4.3096h2.6335l-2.7953 7.2661z"/>
  <path d="m43.62 9.9081q-0.91235 0-1.4429-0.64773-0.53059-0.65414-0.53059-1.8342 0-1.2955 0.44647-2.4242 0.45294-1.1287 1.2424-1.7828 0.78941-0.66055 1.7341-0.66055 0.62765 0 1.0806 0.295 0.45294 0.28859 0.7053 0.84653h0.06471l0.40117-1.0133h1.1647l-1.5271 7.0929h-1.1776l0.13588-1.1287h-0.03882q-1.0224 1.257-2.2582 1.257zm0.55647-1.2185q0.53059 0 1.0418-0.49381 0.51118-0.50022 0.84118-1.3339 0.33-0.83371 0.33-1.8213 0-0.56435-0.30412-0.90425-0.30412-0.34631-0.79588-0.34631-0.55 0-1.0353 0.49381-0.48529 0.49381-0.77647 1.3468-0.29118 0.84653-0.29118 1.7572 0 0.65414 0.25882 0.98121 0.2653 0.32066 0.73118 0.32066z"/>
  <path d="m52.116 9.7799h-2.53v-9.9788h2.53zm4.2965 0h-2.53v-7.2661h2.53zm-2.5947-9.0746q0-0.56435 0.31706-0.84012 0.31706-0.27576 1.0224-0.27576 0.7053 0 1.0288 0.28218 0.32353 0.28218 0.32353 0.83371 0 1.1031-1.3524 1.1031-1.3394 0-1.3394-1.1031zm8.8388 1.6802q1.1971 0 1.8959 0.99403 0.7053 0.99403 0.7053 2.7512 0 1.77-0.71177 2.7769-0.7053 1.0004-1.9671 1.0004-0.40765 0-0.72471-0.089784-0.31706-0.08337-0.56941-0.23729-0.24588-0.15391-0.57588-0.51305h-0.15529l-0.40118 0.71186h-1.9735v-9.9788h2.53v2.2574q0 0.40403-0.09058 1.3916h0.09058q0.36882-0.56435 0.84765-0.81447 0.4853-0.25011 1.1-0.25011zm-0.9253 1.9688q-0.53059 0-0.77647 0.36555-0.24588 0.36555-0.24588 1.1479v0.35272q0 0.89142 0.24588 1.2826 0.24588 0.38479 0.80235 0.38479 0.44647 0 0.68588-0.44892 0.23941-0.45533 0.23941-1.3339 0-1.7508-0.95118-1.7508zm9.3953-1.9688q0.33 0 0.62765 0.051305l0.14235 0.025652-0.22647 2.3664q-0.31059-0.076958-0.86059-0.076958-0.82824 0-1.2035 0.37837-0.37529 0.37196-0.37529 1.0774v3.5721h-2.53v-7.2661h1.8829l0.39471 1.1608h0.12294q0.31706-0.57718 0.88-0.9299 0.56941-0.35913 1.1453-0.35913zm5.0665 7.5226q-1.8312 0-2.8471-0.96197-1.0094-0.96838-1.0094-2.7512 0-1.8406 0.93824-2.8218 0.93824-0.98762 2.6788-0.98762 1.6565 0 2.5559 0.85936 0.90588 0.85295 0.90588 2.4626v1.1159h-4.5229q0.02589 0.60925 0.44647 0.95556 0.42706 0.34631 1.1582 0.34631 0.66647 0 1.2229-0.12185 0.56294-0.12826 1.2165-0.42968v1.8021q-0.59529 0.30142-1.2294 0.41685-0.63412 0.11544-1.5141 0.11544zm-0.14882-5.8167q-0.44647 0-0.75059 0.28218-0.29765 0.27576-0.34941 0.87218h2.1741q-0.01294-0.52588-0.30412-0.84012-0.28471-0.31424-0.77-0.31424z"/>
 </g>
</svg>
