<svg width="144" height="120" viewBox="0 0 144 120" fill="none" xmlns="http://www.w3.org/2000/svg">
<g filter="url(#filter0_ddd_2818_45665)">
<path d="M33.8367 39.1069C33.8367 37.3697 32.4186 36 30.7172 36H25.1195C23.4181 36 22 37.3697 22 39.1069V80.8931C22 82.6303 23.4181 84 25.1195 84H30.7172C32.4186 84 33.8367 82.6303 33.8367 80.8931V78.8077C34.6015 79.1223 35.4389 79.2956 36.3149 79.2956H107.685C108.561 79.2956 109.399 79.1223 110.163 78.8077V80.8931C110.163 82.6303 111.581 84 113.283 84H118.88C120.582 84 122 82.6303 122 80.8931V39.1069C122 37.3697 120.582 36 118.88 36H113.283C111.581 36 110.163 37.3697 110.163 39.1069V41.1923C109.398 40.8777 108.561 40.7044 107.685 40.7044H36.3149C35.4389 40.7044 34.6015 40.8777 33.8367 41.1923V39.1069Z" fill="#25252A" stroke="white" stroke-width="4"/>
<path d="M31.8367 39.1027C31.8367 38.4937 31.3355 38 30.7172 38H25.1195C24.5012 38 24 38.4937 24 39.1027V80.7299C24 81.3389 24.5012 81.8326 25.1195 81.8326H30.7172C31.3355 81.8326 31.8367 81.3389 31.8367 80.7299V72.7353C31.8367 75.1713 33.8417 77.1461 36.3149 77.1461H107.685C110.158 77.1461 112.163 75.1713 112.163 72.7353V80.7299C112.163 81.3389 112.665 81.8326 113.283 81.8326H118.88C119.499 81.8326 120 81.3389 120 80.7299V39.1027C120 38.4937 119.499 38 118.88 38H113.283C112.665 38 112.163 38.4937 112.163 39.1027V47.0973C112.163 44.6613 110.158 42.6865 107.685 42.6865H36.3149C33.8417 42.6865 31.8367 44.6613 31.8367 47.0973V39.1027Z" fill="#6F6F73"/>
<path fill-rule="evenodd" clip-rule="evenodd" d="M24 60.9364V80.4083C24 81.0057 24.5012 81.49 25.1195 81.49H30.7172C31.3355 81.49 31.8367 81.0057 31.8367 80.4083V72.5654C31.8367 74.9552 33.8417 76.8925 36.3149 76.8925H107.685C110.158 76.8925 112.163 74.9552 112.163 72.5654V80.4083C112.163 81.0057 112.665 81.49 113.283 81.49H118.88C119.499 81.49 120 81.0057 120 80.4083V60.9364C120 61.5338 119.499 62.0181 118.88 62.0181H113.283C112.665 62.0181 112.163 61.5338 112.163 60.9364V53.0935C112.163 55.4833 110.158 57.4206 107.685 57.4206H36.3149C33.8417 57.4206 31.8367 55.4833 31.8367 53.0935V60.9364C31.8367 61.5338 31.3355 62.0181 30.7172 62.0181H25.1195C24.5012 62.0181 24 61.5338 24 60.9364Z" fill="#515259"/>
<path fill-rule="evenodd" clip-rule="evenodd" d="M24 73.9177V80.9182C24 81.5157 24.5012 82 25.1195 82H30.7172C31.3355 82 31.8367 81.5157 31.8367 80.9182V73.9177C31.8367 74.5152 31.3355 74.9995 30.7172 74.9995H25.1195C24.5012 74.9995 24 74.5152 24 73.9177ZM31.8367 73.0754C31.8367 75.4652 33.8417 77.4025 36.3149 77.4025H107.685C110.158 77.4025 112.163 75.4652 112.163 73.0754V66.0749C112.163 68.4647 110.158 70.402 107.685 70.402H36.3149C33.8417 70.402 31.8367 68.4647 31.8367 66.0749V73.0754ZM112.163 73.9177V80.9182C112.163 81.5157 112.665 82 113.283 82H118.88C119.499 82 120 81.5157 120 80.9182V73.9177C120 74.5152 119.499 74.9995 118.88 74.9995H113.283C112.665 74.9995 112.163 74.5152 112.163 73.9177Z" fill="#25252A"/>
</g>
<defs>
<filter id="filter0_ddd_2818_45665" x="-8" y="-19" width="160" height="160" filterUnits="userSpaceOnUse" color-interpolation-filters="sRGB">
<feFlood flood-opacity="0" result="BackgroundImageFix"/>
<feColorMatrix in="SourceAlpha" type="matrix" values="0 0 0 0 0 0 0 0 0 0 0 0 0 0 0 0 0 0 127 0" result="hardAlpha"/>
<feOffset dy="1"/>
<feGaussianBlur stdDeviation="1"/>
<feColorMatrix type="matrix" values="0 0 0 0 0.309804 0 0 0 0 0.321569 0 0 0 0 0.407843 0 0 0 0.24 0"/>
<feBlend mode="normal" in2="BackgroundImageFix" result="effect1_dropShadow_2818_45665"/>
<feColorMatrix in="SourceAlpha" type="matrix" values="0 0 0 0 0 0 0 0 0 0 0 0 0 0 0 0 0 0 127 0" result="hardAlpha"/>
<feOffset dy="1"/>
<feGaussianBlur stdDeviation="4"/>
<feColorMatrix type="matrix" values="0 0 0 0 0.309804 0 0 0 0 0.321569 0 0 0 0 0.407843 0 0 0 0.08 0"/>
<feBlend mode="normal" in2="effect1_dropShadow_2818_45665" result="effect2_dropShadow_2818_45665"/>
<feColorMatrix in="SourceAlpha" type="matrix" values="0 0 0 0 0 0 0 0 0 0 0 0 0 0 0 0 0 0 127 0" result="hardAlpha"/>
<feMorphology radius="4" operator="dilate" in="SourceAlpha" result="effect3_dropShadow_2818_45665"/>
<feOffset dy="1"/>
<feGaussianBlur stdDeviation="8"/>
<feColorMatrix type="matrix" values="0 0 0 0 0.309804 0 0 0 0 0.321569 0 0 0 0 0.407843 0 0 0 0.1 0"/>
<feBlend mode="normal" in2="effect2_dropShadow_2818_45665" result="effect3_dropShadow_2818_45665"/>
<feBlend mode="normal" in="SourceGraphic" in2="effect3_dropShadow_2818_45665" result="shape"/>
</filter>
</defs>
</svg>
