<?xml version="1.0" encoding="UTF-8" standalone="no"?>
<!-- Created with Inkscape (http://www.inkscape.org/) -->

<svg
   width="78.908997mm"
   height="36.786999mm"
   viewBox="0 0 78.908996 36.786998"
   version="1.1"
   id="svg1"
   sodipodi:docname="logo_text.svg"
   inkscape:export-filename="logo_text_whitebg.png"
   inkscape:export-xdpi="422.73401"
   inkscape:export-ydpi="422.73401"
   inkscape:version="1.4 (86a8ad7, 2024-10-11)"
   xmlns:inkscape="http://www.inkscape.org/namespaces/inkscape"
   xmlns:sodipodi="http://sodipodi.sourceforge.net/DTD/sodipodi-0.dtd"
   xmlns:xlink="http://www.w3.org/1999/xlink"
   xmlns="http://www.w3.org/2000/svg"
   xmlns:svg="http://www.w3.org/2000/svg">
  <sodipodi:namedview
     id="namedview1"
     pagecolor="#ffffff"
     bordercolor="#000000"
     borderopacity="0.25"
     inkscape:showpageshadow="2"
     inkscape:pageopacity="0.0"
     inkscape:pagecheckerboard="0"
     inkscape:deskcolor="#d1d1d1"
     inkscape:document-units="mm"
     inkscape:zoom="1.4520904"
     inkscape:cx="120.51591"
     inkscape:cy="48.550696"
     inkscape:window-width="1920"
     inkscape:window-height="1017"
     inkscape:window-x="1912"
     inkscape:window-y="-8"
     inkscape:window-maximized="1"
     inkscape:current-layer="layer1"
     inkscape:export-bgcolor="#ffffffff"
     showgrid="false" />
  <defs
     id="defs1">
    <linearGradient
       inkscape:collect="always"
       xlink:href="#linearGradient4671"
       id="linearGradient11"
       gradientUnits="userSpaceOnUse"
       gradientTransform="matrix(0.26458333,0,0,-0.26458333,62.63747,141.42565)"
       x1="333.83426"
       y1="-25.560944"
       x2="333.83426"
       y2="-79.333092"
       spreadMethod="pad" />
    <linearGradient
       id="linearGradient4671">
      <stop
         style="stop-color:#ffd43b;stop-opacity:1"
         offset="0"
         id="stop4673" />
      <stop
         style="stop-color:#ffe873;stop-opacity:1"
         offset="1"
         id="stop4675" />
    </linearGradient>
    <linearGradient
       inkscape:collect="always"
       xlink:href="#linearGradient4689"
       id="linearGradient9"
       gradientUnits="userSpaceOnUse"
       gradientTransform="matrix(0.26458333,0,0,0.26458333,79.98938,139.19081)"
       x1="181.30275"
       y1="-17.131027"
       x2="256.79184"
       y2="52.408573" />
    <linearGradient
       id="linearGradient4689">
      <stop
         style="stop-color:#5a9fd4;stop-opacity:1"
         offset="0"
         id="stop4691" />
      <stop
         style="stop-color:#306998;stop-opacity:1"
         offset="1"
         id="stop4693" />
    </linearGradient>
    <linearGradient
       inkscape:collect="always"
       xlink:href="#linearGradient4671"
       id="linearGradient2"
       x1="171.01212"
       y1="149.74876"
       x2="171.01212"
       y2="161.5468"
       gradientUnits="userSpaceOnUse" />
  </defs>
  <g
     inkscape:label="Layer 1"
     inkscape:groupmode="layer"
     id="layer1"
     transform="translate(-126.73542,-133.35)">
    <path
       id="text1-4-5-2-54-3"
       style="font-size:192px;text-align:start;writing-mode:lr-tb;direction:ltr;text-anchor:start;display:inline;fill:url(#linearGradient11);fill-opacity:1;stroke-width:0.264583"
       d="m 150.16462,142.15596 c -0.96996,0 -1.83852,0.007 -2.66237,0.0186 0.52425,0.50605 0.97673,1.07142 1.28261,1.74873 0.50892,1.12689 0.82992,2.28417 0.82992,3.53829 v 1.39991 c 2.66736,0.0162 5.07681,0.0196 8.15455,0.0196 0,-0.87942 0.0155,-1.76812 0.0155,-2.4474 0,-2.51527 -0.32529,-4.27777 -7.62021,-4.27777 z m -11.61583,2.07016 c -0.74411,1.15235 -0.76426,2.93071 -0.76946,5.67458 v 0.0248 c 0,1.14102 0.14056,2.1084 0.42168,2.90215 0.11054,0.30092 0.24218,0.57875 0.39378,0.83406 1.45247,-0.19775 2.71407,-2.31732 2.71404,-4.72736 3e-5,-2.43536 -1.28837,-4.55112 -2.76004,-4.70824 z m 16.1029,0.14314 a 1.3449186,1.3449186 0 0 1 1.34513,1.34514 1.3449186,1.3449186 0 0 1 -1.34513,1.34513 1.3449186,1.3449186 0 0 1 -1.34462,-1.34513 1.3449186,1.3449186 0 0 1 1.34462,-1.34514 z m -5.05448,5.9893 c -0.0858,2.29191 -0.60955,4.25462 -1.45572,5.93038 -0.90878,1.81756 -2.28539,2.88556 -4.03025,3.84887 -1.74485,0.96331 -3.67874,1.21646 -6.13244,1.21646 -0.067,0 -0.12977,-0.004 -0.19585,-0.005 -3.2e-4,0.0383 -0.004,0.0729 -0.004,0.11162 v 0.0248 c 0.0134,7.04478 0.0291,7.74475 12.38529,7.74475 7.29492,0 7.62021,-1.7625 7.62021,-4.27777 0,-0.67928 -0.0155,-1.56798 -0.0155,-2.4474 -4.40154,0 -7.05527,-0.01 -11.76001,0.046 -0.74191,0.01 -0.77069,-0.8692 -0.01,-0.8692 4.27995,0 5.96966,-1.55757 5.96966,-6.01823 0,-2.77849 -0.67428,-4.46657 -2.37195,-5.30562 z"
       inkscape:label="epsilon" />
    <path
       id="text1-1-5-1"
       style="font-weight:bold;font-size:192px;font-family:Bahnschrift;-inkscape-font-specification:'Bahnschrift Bold';display:inline;fill:url(#linearGradient9);stroke-width:0.705556"
       d="m 143.34747,134.44325 c -2.87272,0 -8.44558,0.27355 -10.72338,1.48363 -1.5875,0.84336 -2.80293,2.06706 -3.64629,3.6711 -0.82682,1.60402 -1.24023,3.53053 -1.24023,5.77949 v 4.19199 c 0,2.36472 0.41341,4.39043 1.24023,6.07715 0.84336,1.67018 2.05879,2.94349 3.64629,3.81992 1.5875,0.87644 3.49746,1.31465 5.72988,1.31465 2.23242,0 4.14239,-0.43821 5.72989,-1.31465 1.5875,-0.87643 2.79466,-2.14147 3.62148,-3.79511 0.84336,-1.67019 1.26504,-3.67937 1.26504,-6.02754 v -2.03399 c 0,-1.14101 -0.23151,-2.22415 -0.69453,-3.24941 -0.46302,-1.02526 -1.14102,-1.87689 -2.03399,-2.55488 -0.29302,-0.22791 -0.60567,-0.42439 -0.93431,-0.59532 0,0 6.299,0.0465 8.87181,0 0.001,-0.72917 0.0207,-1.55216 0.0207,-2.13475 0,-3.69368 -0.73316,-4.63228 -10.85257,-4.63228 z m 7.72666,2.2779 a 1.3383084,1.3383084 0 0 1 1.33841,1.33842 1.3383084,1.3383084 0 0 1 -1.33841,1.3379 1.3383084,1.3383084 0 0 1 -1.33791,-1.3379 1.3383084,1.3383084 0 0 1 1.33791,-1.33842 z m -12.67365,6.68641 c 1.97408,3e-4 3.57433,2.43687 3.57446,5.44257 6e-5,3.00589 -1.60025,5.44278 -3.57446,5.44308 -1.97441,1.4e-4 -3.57503,-2.43688 -3.57497,-5.44308 1.3e-4,-3.00601 1.60069,-5.44271 3.57497,-5.44257 z"
       inkscape:label="sigma" />
    <path
       style="font-weight:500;font-size:16.9333px;font-family:Flux;-inkscape-font-specification:'Flux Medium';fill:url(#linearGradient2);stroke-width:0.0352778;fill-opacity:1"
       d="m 155.92935,161.50243 v -0.64346 c -0.8636,-0.0339 -1.38853,-0.27094 -1.38853,-1.25307 v -10.02451 l -1.20227,0.38947 v 9.66891 c 0,1.27 0.94827,2.01506 2.5908,1.86266 z m 6.62093,-1.25306 v -4.28413 c 0,-1.37159 -1.2192,-2.18439 -2.45533,-2.18439 -1.016,0 -1.69333,0.16933 -2.57386,0.64346 l 0.3048,0.7112 c 0.66039,-0.33866 1.20226,-0.52493 1.94732,-0.52493 0.82974,0 1.60867,0.57573 1.60867,1.4224 v 0.72813 h -2.01506 c -1.4224,-0.0169 -2.54,0.8636 -2.55693,2.30293 -0.0339,1.35466 1.0668,2.42146 2.40453,2.45533 1.47319,0.0169 2.62466,-0.5588 3.33586,-1.27 z m -1.20227,-0.16933 c -0.22013,0.23706 -0.88053,0.62653 -1.59173,0.60959 -0.98213,0 -1.69333,-0.81279 -1.69333,-1.65946 0,-0.93133 0.7112,-1.4732 1.65947,-1.4732 0.60959,-0.0169 1.23613,-0.0169 1.62559,-0.0169 z m 5.04613,1.50706 c 1.4224,0 2.92947,-0.74507 2.9464,-2.3368 0,-0.67733 -0.3048,-1.11759 -0.7112,-1.43933 -0.38947,-0.3048 -0.8636,-0.47413 -1.3208,-0.6604 -0.47413,-0.18626 -0.98213,-0.38946 -1.35466,-0.55879 -0.38947,-0.16934 -0.64347,-0.4064 -0.64347,-0.82974 0.0169,-0.79586 0.79587,-1.16839 1.50707,-1.16839 0.54186,0.0169 1.0668,0.16933 1.62559,0.49106 l 0.4572,-0.72813 c -0.67733,-0.37253 -1.38853,-0.62653 -2.15053,-0.62653 -1.32079,0 -2.59079,0.77893 -2.59079,2.20133 0,0.69426 0.3048,1.11759 0.7112,1.40546 0.38946,0.3048 0.8636,0.47413 1.3208,0.64347 0.23706,0.0677 0.47413,0.16933 0.69426,0.254 0.5588,0.22013 1.2192,0.44026 1.23613,1.16839 0.0339,0.93133 -0.93133,1.30387 -1.74413,1.30387 -0.6604,-0.0169 -1.40546,-0.27094 -1.91346,-0.6604 l -0.44027,0.7112 c 0.64347,0.49106 1.50707,0.82973 2.37066,0.82973 z m 4.77519,-6.82412 v 4.85986 c 0,1.26999 0.98213,2.01506 2.62466,1.86266 v -0.64347 c -0.8636,-0.0339 -1.38853,-0.27093 -1.38853,-1.25306 v -4.82599 h 1.38853 v -0.79587 h -1.38853 v -2.50612 l -1.23613,0.44026 v 2.06586 h -0.84667 v 0.79587 z m 4.72438,6.62092 h 1.2192 v -7.60305 l -1.2192,0.4064 z m -0.2032,-9.99065 c 0,0.44027 0.3556,0.79587 0.79587,0.79587 0.4572,0 0.8128,-0.3556 0.8128,-0.79587 0,-0.4572 -0.3556,-0.8128 -0.79587,-0.8128 -0.4572,0 -0.8128,0.3556 -0.8128,0.79587 z m 6.33305,10.14305 c 1.08373,0 1.99813,-0.3048 2.72626,-0.77893 l -0.32173,-0.64347 c -0.67733,0.32173 -1.25306,0.6096 -2.04893,0.59267 -1.40546,-0.0169 -2.11666,-1.60867 -2.11666,-2.9464 0,-1.40546 0.6604,-3.08186 1.99813,-3.14959 0.57573,-0.0339 1.27,0.16933 1.77799,0.4064 l 0.3556,-0.6604 c -1.16839,-0.72813 -2.74319,-0.77893 -3.77612,-0.0677 -1.03293,0.7112 -1.60867,2.08279 -1.60867,3.47132 0,1.86267 1.1176,3.7592 3.01413,3.77613 z m 4.45347,-0.1524 h 1.21919 v -7.60305 l -1.21919,0.4064 z m -0.2032,-9.99065 c 0,0.44027 0.3556,0.79587 0.79586,0.79587 0.4572,0 0.8128,-0.3556 0.8128,-0.79587 0,-0.4572 -0.3556,-0.8128 -0.79586,-0.8128 -0.4572,0 -0.8128,0.3556 -0.8128,0.79587 z"
       id="text1"
       aria-label="lasticipy"
       sodipodi:nodetypes="ccsccsccssccsscccccccscccsccccccccsscccccccscsccscccccccccccccccssssssccccsccccscccccccssssss"
       inkscape:label="lastici" />
    <path
       style="font-weight:500;font-size:16.9333px;font-family:Flux;-inkscape-font-specification:'Flux Medium';fill:#646464;stroke-width:0.0352778"
       d="m 193.45354,153.79778 c 2.01506,-0.0339 2.92946,1.86266 2.94639,4.01319 0,1.89653 -0.94826,3.67453 -2.98026,3.74226 -0.82973,0 -1.54093,-0.254 -2.23519,-0.67733 v 4.38573 l -1.2192,-0.44027 0.0169,-9.73665 c -0.0169,0 0.94827,-1.27 3.4544,-1.30386 z m -0.3048,6.87492 c 1.6256,-0.1016 1.8288,-1.69333 1.8288,-2.94639 0,-1.2192 -0.2032,-3.048 -1.74413,-3.11573 -1.04987,-0.0677 -1.89653,0.42333 -2.06587,0.59266 v 4.826 c 0.4064,0.25399 1.2192,0.69426 1.9812,0.64346 z m 6.53626,-1.69333 v -5.19852 l -1.25307,0.42333 v 5.14772 c 0,1.3716 1.27,2.16747 2.3876,2.16747 1.45626,0 2.28599,-0.4064 2.65853,-0.57574 0.0169,0.18627 0,0.13547 0,0.32174 0,0.54186 -0.0169,1.47319 -0.27094,1.94733 -0.508,0.96519 -1.86266,1.10066 -2.81093,1.23613 l 0.2032,0.77893 c 1.25307,-0.0339 3.01413,-0.508 3.64066,-1.69333 0.3556,-0.67733 0.4064,-1.9812 0.4064,-2.8448 v -6.72252 h -1.23613 v 6.04519 c -0.4064,0.27093 -1.15146,0.64347 -1.81186,0.6604 -1.10067,0.0169 -1.91346,-0.57573 -1.91346,-1.71026 z"
       id="text1-2"
       aria-label="lasticipy"
       sodipodi:nodetypes="ccccccccccscccccccsscsccccscccccc"
       inkscape:label="py" />
  </g>
</svg>
