<svg xmlns="http://www.w3.org/2000/svg" width="1024" height="1024" viewBox="0 0 1024 1024">
  <path d="M733.5 281.865c-1.65 1.022-9.734 8.783-17.965 17.247-8.23 8.463-57.055 58.13-108.5 110.371S497.871 520.221 478.769 539.476c-34.332 34.608-34.759 34.993-37.153 33.517-1.331-.821-20.171-17.243-41.865-36.493s-44.556-39.5-50.805-45l-20.903-18.398c-5.249-4.619-11.298-9.682-13.443-11.25-2.622-1.918-5.111-2.852-7.595-2.852-2.252 0-4.311.684-5.272 1.75-.867.962-1.876 2.948-2.241 4.411-.429 1.717.019 4.2 1.261 7 1.06 2.387 9.338 15.364 18.396 28.839a32189 32189 0 0 0 40.482 60 41792 41792 0 0 1 55.269 82c17.192 25.575 33.049 48.16 35.24 50.19 2.19 2.029 6.263 4.447 9.052 5.374 3.445 1.144 6.662 1.495 10.041 1.095 2.735-.324 6.943-1.744 9.353-3.156 2.409-1.412 5.507-4.015 6.883-5.785s13.603-19.418 27.17-39.218c13.566-19.8 43.567-63.9 66.667-98s48.086-71 55.522-82 18.099-26.75 23.694-35c5.596-8.25 28.261-42.132 50.368-75.294 22.106-33.162 40.624-61.429 41.152-62.815.527-1.387.955-4.179.951-6.206-.003-2.027-.876-5.005-1.939-6.618-1.064-1.612-2.973-3.509-4.244-4.214s-3.66-1.296-5.31-1.314c-1.65-.017-4.35.805-6 1.826" fill="#15ae9f"/>
  <path d="M448.277 181.973c-2.253 1.374-4.475 4.458-7.38 10.246-2.286 4.555-9.876 19.081-16.867 32.281s-22.612 43.8-34.712 68-30.881 61.249-41.735 82.33c-10.854 21.082-19.958 39.757-20.23 41.5-.305 1.947.079 3.942.994 5.17 1.45 1.945 2.955 2.014 55.05 2.5l53.559.5 2.662 2.663 2.662 2.662-7.565 30.838c-4.161 16.96-9.449 39.119-11.752 49.242-3.792 16.668-4.071 18.791-2.961 22.495.698 2.33 3.005 5.868 5.362 8.221 3.196 3.191 5.411 4.415 9.744 5.382 4.836 1.079 6.299 1.022 10.624-.414 4.616-1.533 11.892-8.551 91.391-88.152 47.508-47.567 86.514-87.108 86.682-87.868s-.282-1.762-1-2.226-18.921-1.068-40.452-1.343c-36.699-.469-39.278-.619-41.25-2.405-1.156-1.048-2.103-2.527-2.103-3.286 0-.76 8.473-14.078 18.829-29.595 10.356-15.518 36.398-53.891 57.872-85.274s39.349-58.022 39.722-59.199c.47-1.479.047-2.771-1.372-4.19-2.041-2.041-2.548-2.051-102.301-2.047-97.897.003-100.326.05-103.473 1.969" fill="#db4f12"/>
  <text x="512" y="860" text-anchor="middle" font-family="Inter, Roboto, Helvetica, Arial, sans-serif" font-size="180" font-weight="700" fill="#db4f12" letter-spacing="4">
    rustest
  </text>
</svg>
