<svg width="146" height="144" viewBox="0 0 146 144" fill="none" xmlns="http://www.w3.org/2000/svg">
<g filter="url(#filter0_ddd_2818_45666)">
<mask id="path-1-outside-1_2818_45666" maskUnits="userSpaceOnUse" x="20" y="35" width="106" height="72" fill="black">
<rect fill="white" x="20" y="35" width="106" height="72"/>
<path fill-rule="evenodd" clip-rule="evenodd" d="M56 47.0166V41C56 39.8954 55.1046 39 54 39H42C40.8954 39 40 39.8954 40 41V47.0166H31.6117C31.6117 47.0166 24 47.0166 24 71C24 94.9834 31.6117 94.9834 31.6117 94.9834H90V101C90 102.105 90.8954 103 92 103H104C105.105 103 106 102.105 106 101V94.9834H114.388C114.388 94.9834 122 96.4824 122 71C122 45.5176 114.388 47.0166 114.388 47.0166H56Z"/>
</mask>
<path fill-rule="evenodd" clip-rule="evenodd" d="M56 47.0166V41C56 39.8954 55.1046 39 54 39H42C40.8954 39 40 39.8954 40 41V47.0166H31.6117C31.6117 47.0166 24 47.0166 24 71C24 94.9834 31.6117 94.9834 31.6117 94.9834H90V101C90 102.105 90.8954 103 92 103H104C105.105 103 106 102.105 106 101V94.9834H114.388C114.388 94.9834 122 96.4824 122 71C122 45.5176 114.388 47.0166 114.388 47.0166H56Z" fill="#25252A"/>
<path d="M56 47.0166H52V51.0166H56V47.0166ZM40 47.0166V51.0166H44V47.0166H40ZM31.6117 47.0166V43.0166H31.6117L31.6117 47.0166ZM90 94.9834H94V90.9834H90V94.9834ZM106 94.9834V90.9834H102V94.9834H106ZM114.388 94.9834L115.161 91.0588L114.778 90.9834H114.388V94.9834ZM114.388 47.0166V51.0166H114.778L115.161 50.9412L114.388 47.0166ZM60 47.0166V41H52V47.0166H60ZM60 41C60 37.6863 57.3137 35 54 35V43C52.8954 43 52 42.1046 52 41H60ZM54 35H42V43H54V35ZM42 35C38.6863 35 36 37.6863 36 41H44C44 42.1046 43.1046 43 42 43V35ZM36 41V47.0166H44V41H36ZM40 43.0166H31.6117V51.0166H40V43.0166ZM31.6117 47.0166C31.6117 43.0166 31.6055 43.0166 31.5992 43.0166C31.5971 43.0166 31.5908 43.0167 31.5866 43.0167C31.5781 43.0167 31.5694 43.0168 31.5606 43.0169C31.5431 43.0171 31.5249 43.0175 31.5061 43.018C31.4686 43.0189 31.4288 43.0204 31.3868 43.0225C31.3027 43.0268 31.2097 43.0337 31.1083 43.0443C30.9056 43.0656 30.6697 43.1018 30.4063 43.1611C29.8767 43.2803 29.247 43.4906 28.5626 43.85C27.1683 44.5822 25.716 45.8428 24.4287 47.8709C21.9263 51.8133 20 58.714 20 71H28C28 59.3026 29.8795 54.2116 31.1829 52.1581C31.7985 51.1883 32.2492 50.95 32.2821 50.9327C32.3113 50.9174 32.2763 50.9403 32.1629 50.9658C32.1076 50.9783 32.0352 50.991 31.944 51.0006C31.8984 51.0054 31.8481 51.0094 31.7928 51.0122C31.7652 51.0136 31.7363 51.0147 31.7061 51.0155C31.691 51.0158 31.6756 51.0161 31.6599 51.0163C31.652 51.0164 31.6441 51.0165 31.636 51.0165C31.632 51.0166 31.6259 51.0166 31.6239 51.0166C31.6178 51.0166 31.6117 51.0166 31.6117 47.0166ZM20 71C20 83.286 21.9263 90.1867 24.4287 94.1291C25.716 96.1572 27.1683 97.4178 28.5626 98.15C29.247 98.5094 29.8767 98.7197 30.4063 98.8389C30.6697 98.8982 30.9056 98.9344 31.1083 98.9557C31.2097 98.9663 31.3027 98.9732 31.3868 98.9775C31.4288 98.9796 31.4686 98.9811 31.5061 98.982C31.5249 98.9825 31.5431 98.9829 31.5606 98.9831C31.5694 98.9832 31.5781 98.9833 31.5866 98.9833C31.5908 98.9833 31.5971 98.9834 31.5992 98.9834C31.6055 98.9834 31.6117 98.9834 31.6117 94.9834C31.6117 90.9834 31.6178 90.9834 31.6239 90.9834C31.6259 90.9834 31.632 90.9834 31.636 90.9835C31.6441 90.9835 31.652 90.9836 31.6599 90.9837C31.6756 90.9839 31.691 90.9842 31.7061 90.9846C31.7363 90.9853 31.7652 90.9864 31.7928 90.9878C31.8481 90.9906 31.8984 90.9946 31.944 90.9994C32.0352 91.009 32.1076 91.0217 32.1629 91.0342C32.2763 91.0597 32.3113 91.0826 32.2821 91.0673C32.2492 91.05 31.7985 90.8117 31.1829 89.8419C29.8795 87.7884 28 82.6974 28 71H20ZM31.6117 98.9834H90V90.9834H31.6117V98.9834ZM86 94.9834V101H94V94.9834H86ZM86 101C86 104.314 88.6863 107 92 107V99C93.1046 99 94 99.8954 94 101H86ZM92 107H104V99H92V107ZM104 107C107.314 107 110 104.314 110 101H102C102 99.8954 102.895 99 104 99V107ZM110 101V94.9834H102V101H110ZM106 98.9834H114.388V90.9834H106V98.9834ZM114.388 94.9834C113.615 98.908 113.622 98.9092 113.628 98.9104C113.63 98.9109 113.636 98.9121 113.641 98.9129C113.649 98.9145 113.658 98.9162 113.667 98.9178C113.685 98.9211 113.703 98.9243 113.722 98.9276C113.76 98.9341 113.801 98.9405 113.844 98.9467C113.931 98.959 114.027 98.9704 114.134 98.9795C114.346 98.9977 114.598 99.0065 114.884 98.9945C115.459 98.9702 116.161 98.8615 116.936 98.5817C118.538 98.0032 120.14 96.809 121.506 94.7902C124.104 90.953 126 83.9424 126 71H118C118 83.5399 116.09 88.521 114.882 90.305C114.346 91.0967 114.044 91.1204 114.219 91.0571C114.281 91.0351 114.388 91.0083 114.547 91.0016C114.624 90.9983 114.713 90.9999 114.814 91.0085C114.865 91.0128 114.919 91.0189 114.976 91.0272C115.005 91.0313 115.035 91.0359 115.066 91.0412C115.081 91.0438 115.097 91.0466 115.113 91.0495C115.121 91.051 115.129 91.0525 115.137 91.054C115.141 91.0548 115.147 91.056 115.149 91.0564C115.155 91.0576 115.161 91.0588 114.388 94.9834ZM126 71C126 58.0576 124.104 51.047 121.506 47.2098C120.14 45.191 118.538 43.9968 116.936 43.4183C116.161 43.1385 115.459 43.0298 114.884 43.0055C114.598 42.9935 114.346 43.0023 114.134 43.0205C114.027 43.0296 113.931 43.041 113.844 43.0533C113.801 43.0595 113.76 43.0659 113.722 43.0724C113.703 43.0757 113.685 43.0789 113.667 43.0822C113.658 43.0838 113.649 43.0855 113.641 43.0871C113.636 43.0879 113.63 43.0891 113.628 43.0896C113.622 43.0908 113.615 43.092 114.388 47.0166C115.161 50.9412 115.155 50.9424 115.149 50.9436C115.147 50.944 115.141 50.9452 115.137 50.946C115.129 50.9475 115.121 50.949 115.113 50.9505C115.097 50.9534 115.081 50.9562 115.066 50.9588C115.035 50.9641 115.005 50.9687 114.976 50.9728C114.919 50.9811 114.865 50.9872 114.814 50.9915C114.713 51.0001 114.624 51.0017 114.547 50.9984C114.388 50.9917 114.281 50.9649 114.219 50.9429C114.044 50.8796 114.346 50.9033 114.882 51.695C116.09 53.479 118 58.4601 118 71H126ZM114.388 43.0166H56V51.0166H114.388V43.0166Z" fill="white" mask="url(#path-1-outside-1_2818_45666)"/>
<rect width="16" height="18" rx="2" transform="matrix(1 0 0 -1 90 103)" fill="#6F6F73"/>
<rect width="16" height="18" rx="2" transform="matrix(1 0 0 -1 40 57)" fill="#6F6F73"/>
<rect x="33" y="47" width="81" height="48" fill="#6F6F73"/>
<rect x="110" y="51" width="8" height="73" rx="2" transform="rotate(90 110 51)" fill="#25252A"/>
<rect x="110" y="51" width="8" height="64" rx="2" transform="rotate(90 110 51)" fill="#515259"/>
<rect x="110" y="72" width="8" height="73" rx="2" transform="rotate(90 110 72)" fill="#25252A"/>
<rect x="110" y="72" width="8" height="64" rx="2" transform="rotate(90 110 72)" fill="#515259"/>
<rect width="8" height="73" rx="2" transform="matrix(9.8351e-08 1 1 -1.94272e-08 37 61.5)" fill="#25252A"/>
<rect width="8" height="64" rx="2" transform="matrix(9.8351e-08 1 1 -1.94272e-08 37 61.5)" fill="#515259"/>
<rect width="8" height="73" rx="2" transform="matrix(9.8351e-08 1 1 -1.94272e-08 37 82.5)" fill="#25252A"/>
<rect width="8" height="64" rx="2" transform="matrix(9.8351e-08 1 1 -1.94272e-08 37 82.5)" fill="#515259"/>
<path d="M93.355 114.016L97.2684 118.215C97.6638 118.639 98.3361 118.639 98.7316 118.215L102.819 113.829C103.268 113.347 102.926 112.562 102.268 112.562L102.208 112.562C101.846 112.562 101.546 112.282 101.52 111.92L101.52 108C101.52 107.448 101.072 107 100.52 107L95.8607 107C95.3084 107 94.8607 107.448 94.8607 108L94.8607 111.788C94.8903 112.206 94.5589 112.562 94.1395 112.562L93.9876 112.562C93.2319 112.562 92.8399 113.463 93.355 114.016Z" fill="#D52936"/>
<path fill-rule="evenodd" clip-rule="evenodd" d="M90.8607 109.685C88.8826 111.358 88.3771 114.541 90.4288 116.743L94.3421 120.942C96.3193 123.064 99.6807 123.064 101.658 120.942L105.745 116.556C107.68 114.48 107.287 111.51 105.52 109.836L105.52 108C105.52 105.239 103.281 103 100.52 103L95.8607 103C93.0993 103 90.8607 105.239 90.8607 108L90.8607 109.685ZM101.52 111.92C101.546 112.282 101.846 112.562 102.208 112.562L102.268 112.562C102.926 112.562 103.268 113.347 102.819 113.829L98.7316 118.215C98.3361 118.639 97.6639 118.639 97.2684 118.215L93.355 114.016C92.8399 113.463 93.2319 112.562 93.9876 112.562L94.1395 112.562C94.5589 112.562 94.8903 112.206 94.8607 111.788L94.8607 108C94.8607 107.448 95.3085 107 95.8607 107L100.52 107C101.072 107 101.52 107.448 101.52 108L101.52 111.92Z" fill="white"/>
<path d="M43.355 30.0157L47.2684 34.215C47.6638 34.6393 48.3361 34.6393 48.7316 34.215L52.8189 29.829C53.2679 29.3472 52.9262 28.5616 52.2676 28.5616L52.2083 28.5616C51.8462 28.5616 51.5457 28.2817 51.52 27.9205L51.52 24C51.52 23.4477 51.0723 23 50.52 23L45.8607 23C45.3084 23 44.8607 23.4477 44.8607 24L44.8607 27.7876C44.8903 28.206 44.5589 28.5616 44.1395 28.5616L43.9876 28.5616C43.2319 28.5616 42.8399 29.4628 43.355 30.0157Z" fill="#D52936"/>
<path fill-rule="evenodd" clip-rule="evenodd" d="M40.8607 25.6851C38.8826 27.3577 38.3771 30.5412 40.4288 32.7427L44.3421 36.942C46.3193 39.0636 49.6807 39.0636 51.6579 36.942L55.7452 32.5561C57.6801 30.4798 57.2875 27.5097 55.52 25.8358L55.52 24C55.52 21.2386 53.2815 19 50.52 19L45.8607 19C43.0993 19 40.8607 21.2386 40.8607 24L40.8607 25.6851ZM51.52 27.9205C51.5457 28.2817 51.8462 28.5616 52.2083 28.5616L52.2676 28.5616C52.9262 28.5616 53.2679 29.3472 52.8189 29.829L48.7316 34.215C48.3361 34.6393 47.6639 34.6393 47.2684 34.215L43.355 30.0157C42.8399 29.4628 43.2319 28.5616 43.9876 28.5616L44.1395 28.5616C44.5589 28.5616 44.8903 28.206 44.8607 27.7876L44.8607 24C44.8607 23.4477 45.3085 23 45.8607 23L50.52 23C51.0723 23 51.52 23.4477 51.52 24L51.52 27.9205Z" fill="white"/>
<rect x="23" y="56" width="102" height="30" rx="8" fill="white" fill-opacity="0.3"/>
</g>
<defs>
<filter id="filter0_ddd_2818_45666" x="-7" y="-8" width="160" height="160" filterUnits="userSpaceOnUse" color-interpolation-filters="sRGB">
<feFlood flood-opacity="0" result="BackgroundImageFix"/>
<feColorMatrix in="SourceAlpha" type="matrix" values="0 0 0 0 0 0 0 0 0 0 0 0 0 0 0 0 0 0 127 0" result="hardAlpha"/>
<feOffset dy="1"/>
<feGaussianBlur stdDeviation="1"/>
<feColorMatrix type="matrix" values="0 0 0 0 0.309804 0 0 0 0 0.321569 0 0 0 0 0.407843 0 0 0 0.24 0"/>
<feBlend mode="normal" in2="BackgroundImageFix" result="effect1_dropShadow_2818_45666"/>
<feColorMatrix in="SourceAlpha" type="matrix" values="0 0 0 0 0 0 0 0 0 0 0 0 0 0 0 0 0 0 127 0" result="hardAlpha"/>
<feOffset dy="1"/>
<feGaussianBlur stdDeviation="4"/>
<feColorMatrix type="matrix" values="0 0 0 0 0.309804 0 0 0 0 0.321569 0 0 0 0 0.407843 0 0 0 0.08 0"/>
<feBlend mode="normal" in2="effect1_dropShadow_2818_45666" result="effect2_dropShadow_2818_45666"/>
<feColorMatrix in="SourceAlpha" type="matrix" values="0 0 0 0 0 0 0 0 0 0 0 0 0 0 0 0 0 0 127 0" result="hardAlpha"/>
<feMorphology radius="4" operator="dilate" in="SourceAlpha" result="effect3_dropShadow_2818_45666"/>
<feOffset dy="1"/>
<feGaussianBlur stdDeviation="8"/>
<feColorMatrix type="matrix" values="0 0 0 0 0.309804 0 0 0 0 0.321569 0 0 0 0 0.407843 0 0 0 0.1 0"/>
<feBlend mode="normal" in2="effect2_dropShadow_2818_45666" result="effect3_dropShadow_2818_45666"/>
<feBlend mode="normal" in="SourceGraphic" in2="effect3_dropShadow_2818_45666" result="shape"/>
</filter>
</defs>
</svg>
