<svg width="144" height="121" viewBox="0 0 144 121" fill="none" xmlns="http://www.w3.org/2000/svg">
<g filter="url(#filter0_ddd_2818_45661)">
<path d="M81.6218 61.9744C83.101 60.879 84.0554 59.1135 84.0554 57.1359V44.4369V43.0173L82.7154 42.5489L82.4019 42.4393C83.4279 41.3589 84.0554 39.8947 84.0554 38.2912V37.5922L100.197 37.5922C103.507 37.5922 106.155 34.8863 106.155 31.5922V28C106.155 24.7059 103.507 22 100.197 22L41.8144 22C38.504 22 35.8557 24.7059 35.8557 28V31.5922C35.8557 34.8863 38.504 37.5922 41.8144 37.5922L57.9555 37.5923V38.2913C57.9555 39.8948 58.5831 41.3589 59.609 42.4394L59.2956 42.549L57.9555 43.0174V44.437V57.136C57.9555 59.3284 59.1287 61.2603 60.8893 62.3072C59.6718 63.1477 58.5579 64.1283 57.57 65.2255H46.861L40.264 59.4906L39.6996 59H38.9518H29.2694C27.4131 59 25.6589 59.5745 24.3267 60.5957C22.9924 61.6185 22 63.1718 22 65.0392V91.9608C22 93.8282 22.9924 95.3815 24.3267 96.4043C25.6589 97.4255 27.4131 98 29.2694 98H38.9518H39.603L40.1293 97.6167L46.7643 92.7843H59.6801C62.9095 95.4185 67.0254 97 71.5052 97C75.9849 97 80.1008 95.4185 83.3302 92.7843H97.2357L103.871 97.6167L104.397 98H105.048H114.731C116.587 98 118.341 97.4255 119.673 96.4043C121.008 95.3815 122 93.8282 122 91.9608V65.0392C122 63.1718 121.008 61.6185 119.673 60.5957C118.341 59.5745 116.587 59 114.731 59H105.048H104.3L103.736 59.4906L97.139 65.2255H85.4402C84.3189 63.9802 83.035 62.885 81.6218 61.9744Z" fill="#25252A" stroke="white" stroke-width="4"/>
<path d="M67.0275 28.0001C67.0275 25.7909 68.8191 24 71.0055 24C73.1918 24 74.9835 25.7909 74.9835 28.0001L74.9835 41.3107C74.9835 43.5198 73.1918 42.3107 71.0055 42.3107C68.8191 42.3107 67.0275 43.5198 67.0275 41.3107L67.0275 28.0001Z" fill="#6F6F73"/>
<path d="M100.197 24C102.383 24 104.155 25.7909 104.155 28V31.5922C104.155 33.8014 102.383 35.5922 100.197 35.5922L41.8144 35.5922C39.6281 35.5922 37.8557 33.8014 37.8557 31.5922V28C37.8557 25.7909 39.6281 24 41.8144 24L71.0055 24L100.197 24Z" fill="#D52936"/>
<path d="M59.9555 44.4369H82.0554V57.1359C82.0554 59.3451 80.283 61.1359 78.0967 61.1359H63.9143C61.7279 61.1359 59.9555 59.3451 59.9555 57.1359V44.4369Z" fill="#6F6F73"/>
<path fill-rule="evenodd" clip-rule="evenodd" d="M77.4317 42.8206C76.8408 42.4863 76.1748 42.3107 75.4975 42.3107L71.0055 42.3107L66.5135 42.3107C65.8362 42.3107 65.1702 42.4863 64.5792 42.8206L59.9555 44.4369H82.0554L77.4317 42.8206Z" fill="#6F6F73"/>
<path d="M59.9555 35.5922H82.0554V38.2912C82.0554 40.5004 80.283 42.2912 78.0967 42.2912H71.0055H63.9143C61.7279 42.2912 59.9555 40.5004 59.9555 38.2912V35.5922Z" fill="#6F6F73"/>
<path d="M59.9555 44.4369H82.0554V57.1359C82.0554 59.3451 80.283 61.1359 78.0967 61.1359H63.9143C61.7279 61.1359 59.9555 59.3451 59.9555 57.1359V44.4369Z" fill="#6F6F73"/>
<path fill-rule="evenodd" clip-rule="evenodd" d="M59.956 35.5923H67.8735V38.2913C67.8735 40.5005 69.6459 42.2913 71.8323 42.2913H71.0059H63.9148C61.7284 42.2913 59.956 40.5005 59.956 38.2913V35.5923ZM75.504 42.3108C75.502 42.3108 75.5 42.3108 75.4979 42.3108L74.4315 42.3108L71.0059 42.3108L66.5139 42.3108C65.8366 42.3108 65.1706 42.4864 64.5797 42.8207L59.956 44.437V57.136C59.956 59.3451 61.7284 61.136 63.9148 61.136H71.8323C69.6459 61.136 67.8735 59.3451 67.8735 57.136V44.437L72.4972 42.8207C73.0882 42.4864 73.7542 42.3108 74.4315 42.3108L75.504 42.3108Z" fill="#25252A"/>
<path d="M100.197 24C102.383 24 104.155 25.7909 104.155 28V31.5922C104.155 33.8014 102.383 35.5922 100.197 35.5922L41.8144 35.5922C39.6281 35.5922 37.8557 33.8014 37.8557 31.5922V28C37.8557 25.7909 39.6281 24 41.8144 24L71.0055 24L100.197 24Z" fill="#D52936"/>
<path fill-rule="evenodd" clip-rule="evenodd" d="M49.7218 24L41.8144 24C39.6281 24 37.8557 25.7909 37.8557 28V31.5922C37.8557 33.8014 39.6281 35.5922 41.8144 35.5922H49.7321C47.5458 35.5922 45.7734 33.8014 45.7734 31.5922V28C45.7734 25.7944 47.5402 24.0057 49.7218 24Z" fill="#A50F1E"/>
<path d="M24 65.0392C24 62.8084 26.3592 61 29.2694 61H38.9518V96H29.2694C26.3592 96 24 94.1916 24 91.9608V65.0392Z" fill="#25252A"/>
<path fill-rule="evenodd" clip-rule="evenodd" d="M46.1132 67.2255V90.7843L38.9518 96V61L46.1132 67.2255Z" fill="#515259"/>
<path d="M120 65.0392C120 62.8084 117.641 61 114.731 61H105.048V96H114.731C117.641 96 120 94.1916 120 91.9608V65.0392Z" fill="#25252A"/>
<path fill-rule="evenodd" clip-rule="evenodd" d="M97.8868 67.2255V90.7843L105.048 96V61L97.8868 67.2255Z" fill="#515259"/>
<path d="M46.1132 67.2255H97.8868V90.7843H46.1132V67.2255Z" fill="#25252A"/>
<rect x="82" y="77.3" width="17" height="8" fill="#515259"/>
<rect x="46" y="77.3" width="17" height="8" fill="#515259"/>
<ellipse cx="71.5052" cy="78" rx="16.8247" ry="17" fill="#6F6F73"/>
<path fill-rule="evenodd" clip-rule="evenodd" d="M86.6855 85.3386C84.4868 86.4035 82.0235 86.9999 79.4224 86.9999C70.1304 86.9999 62.5977 79.3887 62.5977 69.9999C62.5977 67.3717 63.188 64.8828 64.2418 62.6611C58.5859 65.4003 54.6802 71.2392 54.6802 77.9999C54.6802 87.3887 62.2129 94.9999 71.5049 94.9999C78.1959 94.9999 83.9746 91.0535 86.6855 85.3386Z" fill="#25252A"/>
</g>
<defs>
<filter id="filter0_ddd_2818_45661" x="-8" y="-19" width="160" height="160" filterUnits="userSpaceOnUse" color-interpolation-filters="sRGB">
<feFlood flood-opacity="0" result="BackgroundImageFix"/>
<feColorMatrix in="SourceAlpha" type="matrix" values="0 0 0 0 0 0 0 0 0 0 0 0 0 0 0 0 0 0 127 0" result="hardAlpha"/>
<feOffset dy="1"/>
<feGaussianBlur stdDeviation="1"/>
<feColorMatrix type="matrix" values="0 0 0 0 0.309804 0 0 0 0 0.321569 0 0 0 0 0.407843 0 0 0 0.24 0"/>
<feBlend mode="normal" in2="BackgroundImageFix" result="effect1_dropShadow_2818_45661"/>
<feColorMatrix in="SourceAlpha" type="matrix" values="0 0 0 0 0 0 0 0 0 0 0 0 0 0 0 0 0 0 127 0" result="hardAlpha"/>
<feOffset dy="1"/>
<feGaussianBlur stdDeviation="4"/>
<feColorMatrix type="matrix" values="0 0 0 0 0.309804 0 0 0 0 0.321569 0 0 0 0 0.407843 0 0 0 0.08 0"/>
<feBlend mode="normal" in2="effect1_dropShadow_2818_45661" result="effect2_dropShadow_2818_45661"/>
<feColorMatrix in="SourceAlpha" type="matrix" values="0 0 0 0 0 0 0 0 0 0 0 0 0 0 0 0 0 0 127 0" result="hardAlpha"/>
<feMorphology radius="4" operator="dilate" in="SourceAlpha" result="effect3_dropShadow_2818_45661"/>
<feOffset dy="1"/>
<feGaussianBlur stdDeviation="8"/>
<feColorMatrix type="matrix" values="0 0 0 0 0.309804 0 0 0 0 0.321569 0 0 0 0 0.407843 0 0 0 0.1 0"/>
<feBlend mode="normal" in2="effect2_dropShadow_2818_45661" result="effect3_dropShadow_2818_45661"/>
<feBlend mode="normal" in="SourceGraphic" in2="effect3_dropShadow_2818_45661" result="shape"/>
</filter>
</defs>
</svg>
