<svg width="138" height="120" viewBox="0 0 138 120" fill="none" xmlns="http://www.w3.org/2000/svg">
<g filter="url(#filter0_ddd_2818_45663)">
<mask id="path-1-outside-1_2818_45663" maskUnits="userSpaceOnUse" x="20" y="24" width="99" height="69" fill="black">
<rect fill="white" x="20" y="24" width="99" height="69"/>
<path fill-rule="evenodd" clip-rule="evenodd" d="M24 65.0019C24 55.1889 28.7133 46.4765 36 41.0042L71.9755 41.0056L79 41.0053L79 32L77 32L77 41L73 41L73 31C73 29.3431 74.3431 28 76 28L80 28C81.6569 28 83 29.3431 83 31L83 41.0051L93 41.0047L93 32L91 32L91 41L87 41L87 31C87 29.3431 88.3431 28 90 28L94 28C95.6569 28 97 29.3431 97 31L97 41.0045L102 41.0042C102 41.0042 114 49 114 65.0019C114 74.815 109.287 83.5274 102 88.9996L97 88.9994L97 89L93 89L93 88.9993L83 88.9989L83 89L79 89L79 88.9987L66.0341 88.9983C49.5905 88.9989 36 88.9996 36 88.9996C36 88.9996 24 80.5 24 65.0019ZM42 33C40.8954 33 40 33.8954 40 35L40 39C40 40.1046 40.8954 41 42 41L62 41C63.1046 41 64 40.1046 64 39L64 35C64 33.8954 63.1046 33 62 33L42 33Z"/>
</mask>
<path fill-rule="evenodd" clip-rule="evenodd" d="M24 65.0019C24 55.1889 28.7133 46.4765 36 41.0042L71.9755 41.0056L79 41.0053L79 32L77 32L77 41L73 41L73 31C73 29.3431 74.3431 28 76 28L80 28C81.6569 28 83 29.3431 83 31L83 41.0051L93 41.0047L93 32L91 32L91 41L87 41L87 31C87 29.3431 88.3431 28 90 28L94 28C95.6569 28 97 29.3431 97 31L97 41.0045L102 41.0042C102 41.0042 114 49 114 65.0019C114 74.815 109.287 83.5274 102 88.9996L97 88.9994L97 89L93 89L93 88.9993L83 88.9989L83 89L79 89L79 88.9987L66.0341 88.9983C49.5905 88.9989 36 88.9996 36 88.9996C36 88.9996 24 80.5 24 65.0019ZM42 33C40.8954 33 40 33.8954 40 35L40 39C40 40.1046 40.8954 41 42 41L62 41C63.1046 41 64 40.1046 64 39L64 35C64 33.8954 63.1046 33 62 33L42 33Z" fill="#515259"/>
<path d="M36 41.0042L36.0002 37.0042L34.6653 37.0042L33.598 37.8058L36 41.0042ZM71.9755 41.0056L71.9754 45.0056L71.9757 45.0056L71.9755 41.0056ZM79 41.0053L79.0002 45.0053L83 45.0051L83 41.0053L79 41.0053ZM79 32L83 32L83 28L79 28L79 32ZM77 32L77 28L73 28L73 32L77 32ZM77 41L77 45L81 45L81 41L77 41ZM73 41L69 41L69 45L73 45L73 41ZM73 31L77 31L77 31L73 31ZM76 28L76 32L76 28ZM80 28L80 24L80 28ZM83 31L79 31L83 31ZM83 41.0051L79 41.0051L79 45.0053L83.0002 45.0051L83 41.0051ZM93 41.0047L93.0002 45.0047L97 45.0045L97 41.0047L93 41.0047ZM93 32L97 32L97 28L93 28L93 32ZM91 32L91 28L87 28L87 32L91 32ZM91 41L91 45L95 45L95 41L91 41ZM87 41L83 41L83 45L87 45L87 41ZM87 31L83 31L83 31L87 31ZM97 41.0045L93 41.0045L93 45.0047L97.0002 45.0045L97 41.0045ZM102 41.0042L104.218 37.6755L103.211 37.0042L102 37.0042L102 41.0042ZM102 88.9996L102 92.9996L103.335 92.9996L104.402 92.1981L102 88.9996ZM97 88.9994L97.0001 84.9994L93 84.9993L93 88.9994L97 88.9994ZM97 89L97 93L101 93L101 89L97 89ZM93 89L89 89L89 93L93 93L93 89ZM93 88.9993L97 88.9993L97 84.9994L93.0001 84.9993L93 88.9993ZM83 88.9989L83.0001 84.9989L79 84.9988L79 88.9989L83 88.9989ZM83 89L83 93L87 93L87 89L83 89ZM79 89L75 89L75 93L79 93L79 89ZM79 88.9987L83 88.9987L83 84.9989L79.0001 84.9988L79 88.9987ZM66.0341 88.9983L66.0342 84.9983L66.0339 84.9983L66.0341 88.9983ZM36 88.9996L33.688 92.2638L34.727 92.9997L36.0002 92.9996L36 88.9996ZM40 35L44 35L40 35ZM42 33L42 29L42 33ZM40 39L36 39L40 39ZM62 33L62 37L62 33ZM33.598 37.8058C25.3488 44.0008 20 53.8773 20 65.0019L28 65.0019C28 56.5004 32.0779 48.9521 38.402 44.2027L33.598 37.8058ZM71.9757 37.0056L36.0002 37.0042L35.9999 45.0042L71.9754 45.0056L71.9757 37.0056ZM78.9998 37.0053L71.9754 37.0056L71.9757 45.0056L79.0002 45.0053L78.9998 37.0053ZM75 32L75 41.0053L83 41.0053L83 32L75 32ZM77 36L79 36L79 28L77 28L77 36ZM81 41L81 32L73 32L73 41L81 41ZM73 45L77 45L77 37L73 37L73 45ZM69 31L69 41L77 41L77 31L69 31ZM76 24C72.134 24 69 27.134 69 31L77 31C77 31.5523 76.5523 32 76 32L76 24ZM80 24L76 24L76 32L80 32L80 24ZM87 31C87 27.134 83.866 24 80 24L80 32C79.4477 32 79 31.5523 79 31L87 31ZM87 41.0051L87 31L79 31L79 41.0051L87 41.0051ZM92.9998 37.0047L82.9998 37.0051L83.0002 45.0051L93.0002 45.0047L92.9998 37.0047ZM89 32L89 41.0047L97 41.0047L97 32L89 32ZM91 36L93 36L93 28L91 28L91 36ZM95 41L95 32L87 32L87 41L95 41ZM87 45L91 45L91 37L87 37L87 45ZM83 31L83 41L91 41L91 31L83 31ZM90 24C86.134 24 83 27.134 83 31L91 31C91 31.5523 90.5523 32 90 32L90 24ZM94 24L90 24L90 32L94 32L94 24ZM101 31C101 27.134 97.866 24 94 24L94 32C93.4477 32 93 31.5523 93 31L101 31ZM101 41.0045L101 31L93 31L93 41.0045L101 41.0045ZM102 37.0042L96.9998 37.0045L97.0002 45.0045L102 45.0042L102 37.0042ZM118 65.0019C118 55.939 114.588 49.1181 111.2 44.602C109.511 42.35 107.818 40.6563 106.532 39.5135C105.888 38.9407 105.34 38.502 104.939 38.1968C104.739 38.0441 104.574 37.9243 104.452 37.8376C104.391 37.7942 104.341 37.759 104.302 37.732C104.282 37.7185 104.265 37.707 104.251 37.6976C104.244 37.6929 104.238 37.6887 104.232 37.685C104.23 37.6832 104.227 37.6815 104.225 37.6799C104.224 37.6791 104.222 37.678 104.221 37.6776C104.22 37.6765 104.218 37.6755 102 41.0042C99.7823 44.333 99.7808 44.332 99.7794 44.3311C99.779 44.3308 99.7776 44.3299 99.7768 44.3293C99.7752 44.3282 99.7737 44.3272 99.7724 44.3264C99.7698 44.3246 99.7679 44.3234 99.7667 44.3226C99.7644 44.3209 99.7648 44.3212 99.7678 44.3233C99.774 44.3275 99.7908 44.3392 99.8177 44.3583C99.8714 44.3965 99.9648 44.4641 100.092 44.5613C100.348 44.7558 100.738 45.0669 101.218 45.4937C102.182 46.3502 103.49 47.6555 104.801 49.4027C107.413 52.8849 110 58.0629 110 65.0019L118 65.0019ZM104.402 92.1981C112.652 86.003 118 76.1265 118 65.0019L110 65.0019C110 73.5034 105.922 81.0518 99.5982 85.8011L104.402 92.1981ZM96.9999 92.9994L102 92.9996L102 84.9996L97.0001 84.9994L96.9999 92.9994ZM101 89L101 88.9994L93 88.9994L93 89L101 89ZM93 93L97 93L97 85L93 85L93 93ZM89 88.9993L89 89L97 89L97 88.9993L89 88.9993ZM82.9999 92.9989L92.9999 92.9993L93.0001 84.9993L83.0001 84.9989L82.9999 92.9989ZM87 89L87 88.9989L79 88.9989L79 89L87 89ZM79 93L83 93L83 85L79 85L79 93ZM75 88.9988L75 89L83 89L83 88.9987L75 88.9988ZM66.0339 92.9983L78.9999 92.9987L79.0001 84.9988L66.0342 84.9983L66.0339 92.9983ZM36 88.9996C36.0002 92.9996 36.0003 92.9996 36.0004 92.9996C36.0005 92.9996 36.0006 92.9996 36.0009 92.9996C36.0013 92.9996 36.0019 92.9996 36.0027 92.9996C36.0044 92.9996 36.0069 92.9996 36.0101 92.9996C36.0167 92.9996 36.0266 92.9996 36.0397 92.9996C36.0659 92.9996 36.1051 92.9996 36.1569 92.9996C36.2604 92.9996 36.4144 92.9996 36.6163 92.9996C37.02 92.9996 37.6152 92.9995 38.3807 92.9995C39.9117 92.9994 42.1244 92.9993 44.8509 92.9992C50.304 92.9989 57.8124 92.9986 66.0342 92.9983L66.0339 84.9983C57.8121 84.9986 50.3036 84.9989 44.8505 84.9992C42.124 84.9993 39.9113 84.9994 38.3803 84.9995C37.6147 84.9995 37.0196 84.9996 36.6159 84.9996C36.414 84.9996 36.26 84.9996 36.1564 84.9996C36.1047 84.9996 36.0655 84.9996 36.0393 84.9996C36.0262 84.9996 36.0163 84.9996 36.0097 84.9996C36.0064 84.9996 36.0039 84.9996 36.0023 84.9996C36.0015 84.9996 36.0008 84.9996 36.0004 84.9996C36.0002 84.9996 36.0001 84.9996 36 84.9996C35.9999 84.9996 35.9998 84.9996 36 88.9996ZM20 65.0019C20 73.8336 23.4282 80.6472 26.7824 85.1889C28.4598 87.4602 30.1385 89.1926 31.4111 90.3679C32.0491 90.9571 32.59 91.4109 32.9846 91.7268C33.182 91.8848 33.3434 92.0088 33.4625 92.0983C33.5221 92.1431 33.5712 92.1793 33.609 92.2069C33.6279 92.2206 33.644 92.2323 33.6572 92.2418C33.6638 92.2465 33.6697 92.2507 33.6748 92.2544C33.6774 92.2562 33.6798 92.2579 33.682 92.2595C33.6831 92.2603 33.6846 92.2613 33.6851 92.2617C33.6866 92.2628 33.688 92.2638 36 88.9996C38.312 85.7355 38.3133 85.7364 38.3146 85.7373C38.315 85.7376 38.3162 85.7385 38.317 85.739C38.3184 85.74 38.3197 85.741 38.3208 85.7417C38.3231 85.7433 38.3246 85.7444 38.3254 85.745C38.3271 85.7462 38.326 85.7454 38.3222 85.7427C38.3146 85.7372 38.2963 85.7237 38.268 85.7025C38.2114 85.6599 38.1149 85.5861 37.9842 85.4815C37.7226 85.272 37.3259 84.9407 36.8389 84.4909C35.8615 83.5882 34.5402 82.227 33.2176 80.4362C30.5718 76.8536 28 71.6684 28 65.0019L20 65.0019ZM44 35C44 36.1046 43.1046 37 42 37L42 29C38.6863 29 36 31.6863 36 35L44 35ZM44 39L44 35L36 35L36 39L44 39ZM42 37C43.1046 37 44 37.8954 44 39L36 39C36 42.3137 38.6863 45 42 45L42 37ZM62 37L42 37L42 45L62 45L62 37ZM60 39C60 37.8954 60.8954 37 62 37L62 45C65.3137 45 68 42.3137 68 39L60 39ZM60 35L60 39L68 39L68 35L60 35ZM62 37C60.8954 37 60 36.1046 60 35L68 35C68 31.6863 65.3137 29 62 29L62 37ZM42 37L62 37L62 29L42 29L42 37Z" fill="white" mask="url(#path-1-outside-1_2818_45663)"/>
<path d="M35.9987 41.0046C28.7128 46.4768 24 55.1893 24 65.0023C24 74.8154 28.7128 83.5278 35.9987 89L35.9987 88.9978L77.9942 88.9978C81.3076 88.9978 83.9936 86.312 83.9936 82.9989L83.9936 47.0057C83.9936 43.6926 81.3076 41.0068 77.9942 41.0068L35.9987 41.0068L35.9987 41.0046Z" fill="#515259"/>
<path d="M101.992 88.9996C109.277 83.5274 113.99 74.815 113.99 65.0019C113.99 55.1888 109.277 46.4764 101.992 41.0042L101.992 41.0064L35.9986 41.0064L35.9986 82.9985L35.9986 88.9974L41.9979 88.9974L101.992 88.9974L101.992 88.9996Z" fill="#6F6F73"/>
<path d="M38.1623 48C28.125 48.0016 24 58.0484 24 65C24 71.9516 28.875 82 38.1623 82L38.1623 81.9984L79.1688 81.9984C81.837 81.9984 84 80.0958 84 77.7488L84 52.2512C84 49.9042 81.837 48.0016 79.1688 48.0016L38.1623 48.0016L38.1623 48Z" fill="#8E8E91"/>
<path d="M99.8377 82C109.875 81.9984 114 71.9516 114 65C114 58.0484 109.125 48 99.8377 48L99.8377 48.0016L40.8312 48.0016C38.163 48.0016 36 49.9042 36 52.2512L36 77.7488C36 80.0958 38.163 81.9984 40.8312 81.9984L99.8377 81.9984L99.8377 82Z" fill="#8E8E91"/>
<path d="M38.1608 53.0062C28.1246 53.0073 24 60.0979 24 65.004C24 69.91 28.8745 77.0017 38.1608 77.0017L38.1608 77.0006L79.163 77.0006C81.8309 77.0006 83.9936 75.6578 83.9936 74.0014L83.9936 56.0065C83.9936 54.3501 81.8309 53.0073 79.163 53.0073L38.1608 53.0073L38.1608 53.0062Z" fill="#6F6F73"/>
<path d="M99.8304 77.0017C109.867 77.0006 113.991 69.91 113.991 65.0039C113.991 60.0978 109.117 53.0062 99.8304 53.0062L99.8304 53.0073L40.8302 53.0073C38.1623 53.0073 35.9995 54.35 35.9995 56.0064L35.9995 74.0014C35.9995 75.6578 38.1623 77.0005 40.8302 77.0005L99.8304 77.0006L99.8304 77.0017Z" fill="#6F6F73"/>
<path d="M101.992 88.9996C109.277 83.5274 113.99 74.815 113.99 65.0019C113.99 55.1888 109.277 46.4764 101.992 41.0042L101.992 41.0064L101.992 88.9974L101.992 88.9996Z" fill="white" fill-opacity="0.2"/>
<path d="M35.9987 41.0042C28.7128 46.4764 24 55.1888 24 65.0019C24 74.815 28.7128 83.5274 35.9987 88.9996L35.9987 88.9974L35.9987 41.0064L35.9987 41.0042Z" fill="white" fill-opacity="0.2"/>
<path d="M89 41V31C89 30.4477 89.4477 30 90 30H94C94.5523 30 95 30.4477 95 31V89" stroke="#25252A" stroke-width="4"/>
<path d="M75 41V31C75 30.4477 75.4477 30 76 30H80C80.5523 30 81 30.4477 81 31V89" stroke="#25252A" stroke-width="4"/>
<path d="M80.7803 54H94.7803" stroke="#25252A" stroke-width="4"/>
<path d="M80.7803 62H94.7803" stroke="#25252A" stroke-width="4"/>
<path d="M80.7803 70H94.7803" stroke="#25252A" stroke-width="4"/>
<rect x="39.9997" y="33" width="24" height="8" rx="2" fill="#25252A"/>
<rect x="43.9997" y="33" width="20" height="8" rx="2" fill="#515259"/>
</g>
<defs>
<filter id="filter0_ddd_2818_45663" x="-11" y="-19" width="160" height="160" filterUnits="userSpaceOnUse" color-interpolation-filters="sRGB">
<feFlood flood-opacity="0" result="BackgroundImageFix"/>
<feColorMatrix in="SourceAlpha" type="matrix" values="0 0 0 0 0 0 0 0 0 0 0 0 0 0 0 0 0 0 127 0" result="hardAlpha"/>
<feOffset dy="1"/>
<feGaussianBlur stdDeviation="1"/>
<feColorMatrix type="matrix" values="0 0 0 0 0.309804 0 0 0 0 0.321569 0 0 0 0 0.407843 0 0 0 0.24 0"/>
<feBlend mode="normal" in2="BackgroundImageFix" result="effect1_dropShadow_2818_45663"/>
<feColorMatrix in="SourceAlpha" type="matrix" values="0 0 0 0 0 0 0 0 0 0 0 0 0 0 0 0 0 0 127 0" result="hardAlpha"/>
<feOffset dy="1"/>
<feGaussianBlur stdDeviation="4"/>
<feColorMatrix type="matrix" values="0 0 0 0 0.309804 0 0 0 0 0.321569 0 0 0 0 0.407843 0 0 0 0.08 0"/>
<feBlend mode="normal" in2="effect1_dropShadow_2818_45663" result="effect2_dropShadow_2818_45663"/>
<feColorMatrix in="SourceAlpha" type="matrix" values="0 0 0 0 0 0 0 0 0 0 0 0 0 0 0 0 0 0 127 0" result="hardAlpha"/>
<feMorphology radius="4" operator="dilate" in="SourceAlpha" result="effect3_dropShadow_2818_45663"/>
<feOffset dy="1"/>
<feGaussianBlur stdDeviation="8"/>
<feColorMatrix type="matrix" values="0 0 0 0 0.309804 0 0 0 0 0.321569 0 0 0 0 0.407843 0 0 0 0.1 0"/>
<feBlend mode="normal" in2="effect2_dropShadow_2818_45663" result="effect3_dropShadow_2818_45663"/>
<feBlend mode="normal" in="SourceGraphic" in2="effect3_dropShadow_2818_45663" result="shape"/>
</filter>
</defs>
</svg>
