<?xml version="1.0" encoding="UTF-8" standalone="no"?>
<!DOCTYPE svg PUBLIC "-//W3C//DTD SVG 1.1//EN"
 "http://www.w3.org/Graphics/SVG/1.1/DTD/svg11.dtd">
<!-- Generated by graphviz version 2.43.0 (0)
 -->
<!-- Title: %3 Pages: 1 -->
<svg width="676pt" height="338pt"
 viewBox="0.00 0.00 675.50 338.00" xmlns="http://www.w3.org/2000/svg" xmlns:xlink="http://www.w3.org/1999/xlink">
<g id="graph0" class="graph" transform="scale(1 1) rotate(0) translate(4 334)">
<title>%3</title>
<polygon fill="white" stroke="transparent" points="-4,4 -4,-334 671.5,-334 671.5,4 -4,4"/>
<g id="clust1" class="cluster">
<title>cluster__legend</title>
<polygon fill="#ffffff" stroke="black" points="8,-195.5 8,-274.5 392,-274.5 392,-195.5 8,-195.5"/>
<text text-anchor="middle" x="200" y="-259.3" font-family="Helvetica,sans-Serif" font-size="14.00">Legend</text>
</g>
<!-- input -->
<g id="node1" class="node">
<title>input</title>
<polygon fill="#ffffff" stroke="black" stroke-dasharray="5,2" points="383.5,-242 324.5,-242 324.5,-205 383.5,-205 383.5,-242"/>
<text text-anchor="middle" x="354" y="-219.8" font-family="Helvetica,sans-Serif" font-size="14.00">input</text>
</g>
<!-- function -->
<g id="node2" class="node">
<title>function</title>
<path fill="#b4d8e4" stroke="black" d="M294,-242C294,-242 238,-242 238,-242 232,-242 226,-236 226,-230 226,-230 226,-217 226,-217 226,-211 232,-205 238,-205 238,-205 294,-205 294,-205 300,-205 306,-211 306,-217 306,-217 306,-230 306,-230 306,-236 300,-242 294,-242"/>
<text text-anchor="middle" x="266" y="-219.8" font-family="Helvetica,sans-Serif" font-size="14.00">function</text>
</g>
<!-- output -->
<g id="node3" class="node">
<title>output</title>
<path fill="#ffc857" stroke="black" d="M196,-242C196,-242 152,-242 152,-242 146,-242 140,-236 140,-230 140,-230 140,-217 140,-217 140,-211 146,-205 152,-205 152,-205 196,-205 196,-205 202,-205 208,-211 208,-217 208,-217 208,-230 208,-230 208,-236 202,-242 196,-242"/>
<text text-anchor="middle" x="174" y="-219.8" font-family="Helvetica,sans-Serif" font-size="14.00">output</text>
</g>
<!-- materializer -->
<g id="node4" class="node">
<title>materializer</title>
<path fill="#ffffff" stroke="black" d="M121.5,-239.86C121.5,-241.87 97.97,-243.5 69,-243.5 40.03,-243.5 16.5,-241.87 16.5,-239.86 16.5,-239.86 16.5,-207.14 16.5,-207.14 16.5,-205.13 40.03,-203.5 69,-203.5 97.97,-203.5 121.5,-205.13 121.5,-207.14 121.5,-207.14 121.5,-239.86 121.5,-239.86"/>
<path fill="none" stroke="black" d="M121.5,-239.86C121.5,-237.86 97.97,-236.23 69,-236.23 40.03,-236.23 16.5,-237.86 16.5,-239.86"/>
<text text-anchor="middle" x="69" y="-219.8" font-family="Helvetica,sans-Serif" font-size="14.00">materializer</text>
</g>
<!-- save_toy1d_parameter_variation_info -->
<g id="node5" class="node">
<title>save_toy1d_parameter_variation_info</title>
<path fill="#ffc857" stroke="black" d="M667.5,-80C667.5,-84.41 596.91,-88 510,-88 423.09,-88 352.5,-84.41 352.5,-80 352.5,-80 352.5,-8 352.5,-8 352.5,-3.59 423.09,0 510,0 596.91,0 667.5,-3.59 667.5,-8 667.5,-8 667.5,-80 667.5,-80"/>
<path fill="none" stroke="black" d="M667.5,-80C667.5,-75.59 596.91,-72 510,-72 423.09,-72 352.5,-75.59 352.5,-80"/>
<text text-anchor="start" x="363.5" y="-54.8" font-family="Helvetica,sans-Serif" font-weight="bold" font-size="14.00">save_toy1d_parameter_variation_info</text>
<text text-anchor="start" x="375" y="-26.8" font-family="Helvetica,sans-Serif" font-style="italic" font-size="14.00">save_toy1d_parameter_variation_info()</text>
</g>
<!-- _save_toy1d_parameter_variation_info_inputs -->
<g id="node6" class="node">
<title>_save_toy1d_parameter_variation_info_inputs</title>
<polygon fill="#ffffff" stroke="black" stroke-dasharray="5,2" points="618.5,-330 401.5,-330 401.5,-117 618.5,-117 618.5,-330"/>
<text text-anchor="start" x="478.5" y="-303.3" font-family="Helvetica,sans-Serif" font-size="14.00">n_worker</text>
<text text-anchor="start" x="482.5" y="-282.3" font-family="Helvetica,sans-Serif" font-size="14.00">minimal</text>
<text text-anchor="start" x="450.5" y="-261.3" font-family="Helvetica,sans-Serif" font-size="14.00">aditional_outputs</text>
<text text-anchor="start" x="417" y="-240.3" font-family="Helvetica,sans-Serif" font-size="14.00">toy1d_parameter_variation</text>
<text text-anchor="start" x="436.5" y="-219.3" font-family="Helvetica,sans-Serif" font-size="14.00">max_jobs_per_device</text>
<text text-anchor="start" x="452" y="-198.3" font-family="Helvetica,sans-Serif" font-size="14.00">toy1d_base_args</text>
<text text-anchor="start" x="474.5" y="-177.3" font-family="Helvetica,sans-Serif" font-size="14.00">output_dir</text>
<text text-anchor="start" x="474" y="-156.3" font-family="Helvetica,sans-Serif" font-size="14.00">base_seed</text>
<text text-anchor="start" x="490.5" y="-135.3" font-family="Helvetica,sans-Serif" font-size="14.00">n_run</text>
</g>
<!-- _save_toy1d_parameter_variation_info_inputs&#45;&gt;save_toy1d_parameter_variation_info -->
<g id="edge1" class="edge">
<title>_save_toy1d_parameter_variation_info_inputs&#45;&gt;save_toy1d_parameter_variation_info</title>
<path fill="none" stroke="black" d="M510,-116.94C510,-110.61 510,-104.4 510,-98.45"/>
<polygon fill="black" stroke="black" points="513.5,-98.03 510,-88.03 506.5,-98.03 513.5,-98.03"/>
</g>
</g>
</svg>
