<?xml version="1.0" encoding="UTF-8" standalone="no"?>
<!DOCTYPE svg PUBLIC "-//W3C//DTD SVG 1.1//EN"
 "http://www.w3.org/Graphics/SVG/1.1/DTD/svg11.dtd">
<!-- Generated by graphviz version 2.43.0 (0)
 -->
<!-- Title: %3 Pages: 1 -->
<svg width="3963pt" height="1209pt"
 viewBox="0.00 0.00 3963.00 1208.50" xmlns="http://www.w3.org/2000/svg" xmlns:xlink="http://www.w3.org/1999/xlink">
<g id="graph0" class="graph" transform="scale(1 1) rotate(0) translate(4 1204.5)">
<title>%3</title>
<polygon fill="white" stroke="transparent" points="-4,4 -4,-1204.5 3959,-1204.5 3959,4 -4,4"/>
<g id="clust1" class="cluster">
<title>cluster__legend</title>
<polygon fill="#ffffff" stroke="black" points="8,-1113.5 8,-1192.5 392,-1192.5 392,-1113.5 8,-1113.5"/>
<text text-anchor="middle" x="200" y="-1177.3" font-family="Helvetica,sans-Serif" font-size="14.00">Legend</text>
</g>
<!-- input -->
<g id="node1" class="node">
<title>input</title>
<polygon fill="#ffffff" stroke="black" stroke-dasharray="5,2" points="383.5,-1160 324.5,-1160 324.5,-1123 383.5,-1123 383.5,-1160"/>
<text text-anchor="middle" x="354" y="-1137.8" font-family="Helvetica,sans-Serif" font-size="14.00">input</text>
</g>
<!-- function -->
<g id="node2" class="node">
<title>function</title>
<path fill="#b4d8e4" stroke="black" d="M294,-1160C294,-1160 238,-1160 238,-1160 232,-1160 226,-1154 226,-1148 226,-1148 226,-1135 226,-1135 226,-1129 232,-1123 238,-1123 238,-1123 294,-1123 294,-1123 300,-1123 306,-1129 306,-1135 306,-1135 306,-1148 306,-1148 306,-1154 300,-1160 294,-1160"/>
<text text-anchor="middle" x="266" y="-1137.8" font-family="Helvetica,sans-Serif" font-size="14.00">function</text>
</g>
<!-- output -->
<g id="node3" class="node">
<title>output</title>
<path fill="#ffc857" stroke="black" d="M196,-1160C196,-1160 152,-1160 152,-1160 146,-1160 140,-1154 140,-1148 140,-1148 140,-1135 140,-1135 140,-1129 146,-1123 152,-1123 152,-1123 196,-1123 196,-1123 202,-1123 208,-1129 208,-1135 208,-1135 208,-1148 208,-1148 208,-1154 202,-1160 196,-1160"/>
<text text-anchor="middle" x="174" y="-1137.8" font-family="Helvetica,sans-Serif" font-size="14.00">output</text>
</g>
<!-- materializer -->
<g id="node4" class="node">
<title>materializer</title>
<path fill="#ffffff" stroke="black" d="M121.5,-1157.86C121.5,-1159.87 97.97,-1161.5 69,-1161.5 40.03,-1161.5 16.5,-1159.87 16.5,-1157.86 16.5,-1157.86 16.5,-1125.14 16.5,-1125.14 16.5,-1123.13 40.03,-1121.5 69,-1121.5 97.97,-1121.5 121.5,-1123.13 121.5,-1125.14 121.5,-1125.14 121.5,-1157.86 121.5,-1157.86"/>
<path fill="none" stroke="black" d="M121.5,-1157.86C121.5,-1155.86 97.97,-1154.23 69,-1154.23 40.03,-1154.23 16.5,-1155.86 16.5,-1157.86"/>
<text text-anchor="middle" x="69" y="-1137.8" font-family="Helvetica,sans-Serif" font-size="14.00">materializer</text>
</g>
<!-- save_tasks_correlation_plots -->
<g id="node5" class="node">
<title>save_tasks_correlation_plots</title>
<path fill="#ffc857" stroke="black" d="M2755.5,-431C2755.5,-435.41 2700.15,-439 2632,-439 2563.85,-439 2508.5,-435.41 2508.5,-431 2508.5,-431 2508.5,-359 2508.5,-359 2508.5,-354.59 2563.85,-351 2632,-351 2700.15,-351 2755.5,-354.59 2755.5,-359 2755.5,-359 2755.5,-431 2755.5,-431"/>
<path fill="none" stroke="black" d="M2755.5,-431C2755.5,-426.59 2700.15,-423 2632,-423 2563.85,-423 2508.5,-426.59 2508.5,-431"/>
<text text-anchor="start" x="2519.5" y="-405.8" font-family="Helvetica,sans-Serif" font-weight="bold" font-size="14.00">save_tasks_correlation_plots</text>
<text text-anchor="start" x="2528.5" y="-377.8" font-family="Helvetica,sans-Serif" font-style="italic" font-size="14.00">save_tasks_correlation_plots()</text>
</g>
<!-- save_divergence_probability_plots -->
<g id="node6" class="node">
<title>save_divergence_probability_plots</title>
<path fill="#ffc857" stroke="black" d="M1966,-431C1966,-435.41 1901.01,-439 1821,-439 1740.99,-439 1676,-435.41 1676,-431 1676,-431 1676,-359 1676,-359 1676,-354.59 1740.99,-351 1821,-351 1901.01,-351 1966,-354.59 1966,-359 1966,-359 1966,-431 1966,-431"/>
<path fill="none" stroke="black" d="M1966,-431C1966,-426.59 1901.01,-423 1821,-423 1740.99,-423 1676,-426.59 1676,-431"/>
<text text-anchor="start" x="1687" y="-405.8" font-family="Helvetica,sans-Serif" font-weight="bold" font-size="14.00">save_divergence_probability_plots</text>
<text text-anchor="start" x="1697.5" y="-377.8" font-family="Helvetica,sans-Serif" font-style="italic" font-size="14.00">save_divergence_probability_plots()</text>
</g>
<!-- best_models_metrics_table -->
<g id="node7" class="node">
<title>best_models_metrics_table</title>
<path fill="#b4d8e4" stroke="black" d="M271.5,-310C271.5,-310 62.5,-310 62.5,-310 56.5,-310 50.5,-304 50.5,-298 50.5,-298 50.5,-258 50.5,-258 50.5,-252 56.5,-246 62.5,-246 62.5,-246 271.5,-246 271.5,-246 277.5,-246 283.5,-252 283.5,-258 283.5,-258 283.5,-298 283.5,-298 283.5,-304 277.5,-310 271.5,-310"/>
<text text-anchor="start" x="61.5" y="-288.8" font-family="Helvetica,sans-Serif" font-weight="bold" font-size="14.00">best_models_metrics_table</text>
<text text-anchor="start" x="157.5" y="-260.8" font-family="Helvetica,sans-Serif" font-style="italic" font-size="14.00">str</text>
</g>
<!-- save_best_models_metrics_table -->
<g id="node8" class="node">
<title>save_best_models_metrics_table</title>
<path fill="#ffc857" stroke="black" d="M1785,-193C1785,-193 1533,-193 1533,-193 1527,-193 1521,-187 1521,-181 1521,-181 1521,-141 1521,-141 1521,-135 1527,-129 1533,-129 1533,-129 1785,-129 1785,-129 1791,-129 1797,-135 1797,-141 1797,-141 1797,-181 1797,-181 1797,-187 1791,-193 1785,-193"/>
<text text-anchor="start" x="1532" y="-171.8" font-family="Helvetica,sans-Serif" font-weight="bold" font-size="14.00">save_best_models_metrics_table</text>
<text text-anchor="start" x="1646" y="-143.8" font-family="Helvetica,sans-Serif" font-style="italic" font-size="14.00">dict</text>
</g>
<!-- best_models_metrics_table&#45;&gt;save_best_models_metrics_table -->
<g id="edge1" class="edge">
<title>best_models_metrics_table&#45;&gt;save_best_models_metrics_table</title>
<path fill="none" stroke="black" d="M247.09,-245.9C262.14,-241.14 277.9,-236.86 293,-234 569.26,-181.62 644.2,-219.67 925,-205 1127.96,-194.4 1362.38,-180.35 1510.62,-171.25"/>
<polygon fill="black" stroke="black" points="1510.94,-174.73 1520.7,-170.63 1510.51,-167.75 1510.94,-174.73"/>
</g>
<!-- save_divergence_probability -->
<g id="node9" class="node">
<title>save_divergence_probability</title>
<path fill="#ffc857" stroke="black" d="M2229.5,-431C2229.5,-435.41 2174.59,-439 2107,-439 2039.41,-439 1984.5,-435.41 1984.5,-431 1984.5,-431 1984.5,-359 1984.5,-359 1984.5,-354.59 2039.41,-351 2107,-351 2174.59,-351 2229.5,-354.59 2229.5,-359 2229.5,-359 2229.5,-431 2229.5,-431"/>
<path fill="none" stroke="black" d="M2229.5,-431C2229.5,-426.59 2174.59,-423 2107,-423 2039.41,-423 1984.5,-426.59 1984.5,-431"/>
<text text-anchor="start" x="1995.5" y="-405.8" font-family="Helvetica,sans-Serif" font-weight="bold" font-size="14.00">save_divergence_probability</text>
<text text-anchor="start" x="2003.5" y="-377.8" font-family="Helvetica,sans-Serif" font-style="italic" font-size="14.00">save_divergence_probability()</text>
</g>
<!-- divergence_probability -->
<g id="node10" class="node">
<title>divergence_probability</title>
<path fill="#b4d8e4" stroke="black" d="M1842.5,-625C1842.5,-625 1665.5,-625 1665.5,-625 1659.5,-625 1653.5,-619 1653.5,-613 1653.5,-613 1653.5,-573 1653.5,-573 1653.5,-567 1659.5,-561 1665.5,-561 1665.5,-561 1842.5,-561 1842.5,-561 1848.5,-561 1854.5,-567 1854.5,-573 1854.5,-573 1854.5,-613 1854.5,-613 1854.5,-619 1848.5,-625 1842.5,-625"/>
<text text-anchor="start" x="1664.5" y="-603.8" font-family="Helvetica,sans-Serif" font-weight="bold" font-size="14.00">divergence_probability</text>
<text text-anchor="start" x="1741" y="-575.8" font-family="Helvetica,sans-Serif" font-style="italic" font-size="14.00">dict</text>
</g>
<!-- divergence_probability&#45;&gt;save_divergence_probability -->
<g id="edge2" class="edge">
<title>divergence_probability&#45;&gt;save_divergence_probability</title>
<path fill="none" stroke="black" d="M1854.91,-561.01C1877.2,-552.73 1900.32,-542.98 1921,-532 1966.49,-507.84 2013.28,-473.58 2048.54,-445.49"/>
<polygon fill="black" stroke="black" points="2050.74,-448.22 2056.34,-439.23 2046.35,-442.76 2050.74,-448.22"/>
</g>
<!-- divergence_probability_plots -->
<g id="node11" class="node">
<title>divergence_probability_plots</title>
<path fill="#b4d8e4" stroke="black" d="M1899.5,-532C1899.5,-532 1676.5,-532 1676.5,-532 1670.5,-532 1664.5,-526 1664.5,-520 1664.5,-520 1664.5,-480 1664.5,-480 1664.5,-474 1670.5,-468 1676.5,-468 1676.5,-468 1899.5,-468 1899.5,-468 1905.5,-468 1911.5,-474 1911.5,-480 1911.5,-480 1911.5,-520 1911.5,-520 1911.5,-526 1905.5,-532 1899.5,-532"/>
<text text-anchor="start" x="1675.5" y="-510.8" font-family="Helvetica,sans-Serif" font-weight="bold" font-size="14.00">divergence_probability_plots</text>
<text text-anchor="start" x="1775" y="-482.8" font-family="Helvetica,sans-Serif" font-style="italic" font-size="14.00">dict</text>
</g>
<!-- divergence_probability&#45;&gt;divergence_probability_plots -->
<g id="edge3" class="edge">
<title>divergence_probability&#45;&gt;divergence_probability_plots</title>
<path fill="none" stroke="black" d="M1765.61,-560.94C1767.88,-554.86 1770.29,-548.39 1772.67,-542.04"/>
<polygon fill="black" stroke="black" points="1776.11,-542.82 1776.33,-532.23 1769.55,-540.37 1776.11,-542.82"/>
</g>
<!-- divergence_probability_plots&#45;&gt;save_divergence_probability_plots -->
<g id="edge50" class="edge">
<title>divergence_probability_plots&#45;&gt;save_divergence_probability_plots</title>
<path fill="none" stroke="black" d="M1797.99,-467.82C1799.88,-461.91 1801.91,-455.58 1803.95,-449.21"/>
<polygon fill="black" stroke="black" points="1807.43,-449.83 1807.15,-439.24 1800.76,-447.69 1807.43,-449.83"/>
</g>
<!-- save_task_distribution_plots -->
<g id="node12" class="node">
<title>save_task_distribution_plots</title>
<path fill="#ffc857" stroke="black" d="M2490.5,-431C2490.5,-435.41 2436.04,-439 2369,-439 2301.96,-439 2247.5,-435.41 2247.5,-431 2247.5,-431 2247.5,-359 2247.5,-359 2247.5,-354.59 2301.96,-351 2369,-351 2436.04,-351 2490.5,-354.59 2490.5,-359 2490.5,-359 2490.5,-431 2490.5,-431"/>
<path fill="none" stroke="black" d="M2490.5,-431C2490.5,-426.59 2436.04,-423 2369,-423 2301.96,-423 2247.5,-426.59 2247.5,-431"/>
<text text-anchor="start" x="2258.5" y="-405.8" font-family="Helvetica,sans-Serif" font-weight="bold" font-size="14.00">save_task_distribution_plots</text>
<text text-anchor="start" x="2266" y="-377.8" font-family="Helvetica,sans-Serif" font-style="italic" font-size="14.00">save_task_distribution_plots()</text>
</g>
<!-- impact_test_df -->
<g id="node13" class="node">
<title>impact_test_df</title>
<path fill="#b4d8e4" stroke="black" d="M1394.5,-532C1394.5,-532 1281.5,-532 1281.5,-532 1275.5,-532 1269.5,-526 1269.5,-520 1269.5,-520 1269.5,-480 1269.5,-480 1269.5,-474 1275.5,-468 1281.5,-468 1281.5,-468 1394.5,-468 1394.5,-468 1400.5,-468 1406.5,-474 1406.5,-480 1406.5,-480 1406.5,-520 1406.5,-520 1406.5,-526 1400.5,-532 1394.5,-532"/>
<text text-anchor="start" x="1280.5" y="-510.8" font-family="Helvetica,sans-Serif" font-weight="bold" font-size="14.00">impact_test_df</text>
<text text-anchor="start" x="1300" y="-482.8" font-family="Helvetica,sans-Serif" font-style="italic" font-size="14.00">DataFrame</text>
</g>
<!-- best_configurations -->
<g id="node14" class="node">
<title>best_configurations</title>
<path fill="#b4d8e4" stroke="black" d="M359.5,-427C359.5,-427 206.5,-427 206.5,-427 200.5,-427 194.5,-421 194.5,-415 194.5,-415 194.5,-375 194.5,-375 194.5,-369 200.5,-363 206.5,-363 206.5,-363 359.5,-363 359.5,-363 365.5,-363 371.5,-369 371.5,-375 371.5,-375 371.5,-415 371.5,-415 371.5,-421 365.5,-427 359.5,-427"/>
<text text-anchor="start" x="205.5" y="-405.8" font-family="Helvetica,sans-Serif" font-weight="bold" font-size="14.00">best_configurations</text>
<text text-anchor="start" x="270" y="-377.8" font-family="Helvetica,sans-Serif" font-style="italic" font-size="14.00">dict</text>
</g>
<!-- impact_test_df&#45;&gt;best_configurations -->
<g id="edge4" class="edge">
<title>impact_test_df&#45;&gt;best_configurations</title>
<path fill="none" stroke="black" d="M1269.49,-497.81C1079.67,-494.02 549.86,-479.97 381,-439 372.18,-436.86 363.16,-433.97 354.34,-430.7"/>
<polygon fill="black" stroke="black" points="355.45,-427.38 344.86,-427.01 352.91,-433.9 355.45,-427.38"/>
</g>
<!-- duration_impact_plots -->
<g id="node15" class="node">
<title>duration_impact_plots</title>
<path fill="#b4d8e4" stroke="black" d="M855.5,-427C855.5,-427 684.5,-427 684.5,-427 678.5,-427 672.5,-421 672.5,-415 672.5,-415 672.5,-375 672.5,-375 672.5,-369 678.5,-363 684.5,-363 684.5,-363 855.5,-363 855.5,-363 861.5,-363 867.5,-369 867.5,-375 867.5,-375 867.5,-415 867.5,-415 867.5,-421 861.5,-427 855.5,-427"/>
<text text-anchor="start" x="683.5" y="-405.8" font-family="Helvetica,sans-Serif" font-weight="bold" font-size="14.00">duration_impact_plots</text>
<text text-anchor="start" x="757" y="-377.8" font-family="Helvetica,sans-Serif" font-style="italic" font-size="14.00">dict</text>
</g>
<!-- impact_test_df&#45;&gt;duration_impact_plots -->
<g id="edge5" class="edge">
<title>impact_test_df&#45;&gt;duration_impact_plots</title>
<path fill="none" stroke="black" d="M1269.15,-471.63C1264.4,-470.26 1259.66,-469.03 1255,-468 1090.46,-431.72 1041.08,-477.31 877,-439 867.42,-436.76 857.58,-433.8 847.93,-430.48"/>
<polygon fill="black" stroke="black" points="848.95,-427.13 838.36,-427.04 846.59,-433.71 848.95,-427.13"/>
</g>
<!-- task_impact_plots -->
<g id="node16" class="node">
<title>task_impact_plots</title>
<path fill="#b4d8e4" stroke="black" d="M1036,-427C1036,-427 898,-427 898,-427 892,-427 886,-421 886,-415 886,-415 886,-375 886,-375 886,-369 892,-363 898,-363 898,-363 1036,-363 1036,-363 1042,-363 1048,-369 1048,-375 1048,-375 1048,-415 1048,-415 1048,-421 1042,-427 1036,-427"/>
<text text-anchor="start" x="897" y="-405.8" font-family="Helvetica,sans-Serif" font-weight="bold" font-size="14.00">task_impact_plots</text>
<text text-anchor="start" x="954" y="-377.8" font-family="Helvetica,sans-Serif" font-style="italic" font-size="14.00">dict</text>
</g>
<!-- impact_test_df&#45;&gt;task_impact_plots -->
<g id="edge6" class="edge">
<title>impact_test_df&#45;&gt;task_impact_plots</title>
<path fill="none" stroke="black" d="M1269.06,-472C1264.34,-470.54 1259.62,-469.19 1255,-468 1168.86,-445.87 1142.08,-464.91 1057,-439 1049.66,-436.77 1042.17,-434.02 1034.79,-431"/>
<polygon fill="black" stroke="black" points="1036.11,-427.75 1025.54,-427.05 1033.36,-434.19 1036.11,-427.75"/>
</g>
<!-- joint_impact -->
<g id="node17" class="node">
<title>joint_impact</title>
<path fill="#b4d8e4" stroke="black" d="M642,-427C642,-427 548,-427 548,-427 542,-427 536,-421 536,-415 536,-415 536,-375 536,-375 536,-369 542,-363 548,-363 548,-363 642,-363 642,-363 648,-363 654,-369 654,-375 654,-375 654,-415 654,-415 654,-421 648,-427 642,-427"/>
<text text-anchor="start" x="547" y="-405.8" font-family="Helvetica,sans-Serif" font-weight="bold" font-size="14.00">joint_impact</text>
<text text-anchor="start" x="582" y="-377.8" font-family="Helvetica,sans-Serif" font-style="italic" font-size="14.00">dict</text>
</g>
<!-- impact_test_df&#45;&gt;joint_impact -->
<g id="edge7" class="edge">
<title>impact_test_df&#45;&gt;joint_impact</title>
<path fill="none" stroke="black" d="M1269.18,-471.48C1264.43,-470.15 1259.67,-468.96 1255,-468 1126.22,-441.46 789.49,-478.26 664,-439 658.08,-437.15 652.15,-434.66 646.4,-431.82"/>
<polygon fill="black" stroke="black" points="648.01,-428.71 637.54,-427.09 644.71,-434.88 648.01,-428.71"/>
</g>
<!-- save_impact_test_df -->
<g id="node18" class="node">
<title>save_impact_test_df</title>
<path fill="#ffc857" stroke="black" d="M1428,-431C1428,-435.41 1387.66,-439 1338,-439 1288.34,-439 1248,-435.41 1248,-431 1248,-431 1248,-359 1248,-359 1248,-354.59 1288.34,-351 1338,-351 1387.66,-351 1428,-354.59 1428,-359 1428,-359 1428,-431 1428,-431"/>
<path fill="none" stroke="black" d="M1428,-431C1428,-426.59 1387.66,-423 1338,-423 1288.34,-423 1248,-426.59 1248,-431"/>
<text text-anchor="start" x="1259" y="-405.8" font-family="Helvetica,sans-Serif" font-weight="bold" font-size="14.00">save_impact_test_df</text>
<text text-anchor="start" x="1262.5" y="-377.8" font-family="Helvetica,sans-Serif" font-style="italic" font-size="14.00">save_impact_test_df()</text>
</g>
<!-- impact_test_df&#45;&gt;save_impact_test_df -->
<g id="edge8" class="edge">
<title>impact_test_df&#45;&gt;save_impact_test_df</title>
<path fill="none" stroke="black" d="M1338,-467.82C1338,-462.05 1338,-455.88 1338,-449.67"/>
<polygon fill="black" stroke="black" points="1341.5,-449.24 1338,-439.24 1334.5,-449.24 1341.5,-449.24"/>
</g>
<!-- best_configurations&#45;&gt;best_models_metrics_table -->
<g id="edge11" class="edge">
<title>best_configurations&#45;&gt;best_models_metrics_table</title>
<path fill="none" stroke="black" d="M251.61,-362.88C237.42,-348.82 220.53,-332.07 205.58,-317.25"/>
<polygon fill="black" stroke="black" points="207.98,-314.7 198.42,-310.15 203.05,-319.67 207.98,-314.7"/>
</g>
<!-- save_best_configurations -->
<g id="node23" class="node">
<title>save_best_configurations</title>
<path fill="#ffc857" stroke="black" d="M522.5,-314C522.5,-318.41 472.97,-322 412,-322 351.03,-322 301.5,-318.41 301.5,-314 301.5,-314 301.5,-242 301.5,-242 301.5,-237.59 351.03,-234 412,-234 472.97,-234 522.5,-237.59 522.5,-242 522.5,-242 522.5,-314 522.5,-314"/>
<path fill="none" stroke="black" d="M522.5,-314C522.5,-309.59 472.97,-306 412,-306 351.03,-306 301.5,-309.59 301.5,-314"/>
<text text-anchor="start" x="312.5" y="-288.8" font-family="Helvetica,sans-Serif" font-weight="bold" font-size="14.00">save_best_configurations</text>
<text text-anchor="start" x="318.5" y="-260.8" font-family="Helvetica,sans-Serif" font-style="italic" font-size="14.00">save_best_configurations()</text>
</g>
<!-- best_configurations&#45;&gt;save_best_configurations -->
<g id="edge12" class="edge">
<title>best_configurations&#45;&gt;save_best_configurations</title>
<path fill="none" stroke="black" d="M317.91,-362.88C329.64,-352.43 343.03,-340.49 355.96,-328.96"/>
<polygon fill="black" stroke="black" points="358.37,-331.5 363.5,-322.23 353.71,-326.28 358.37,-331.5"/>
</g>
<!-- save_duration_impact_plots -->
<g id="node29" class="node">
<title>save_duration_impact_plots</title>
<path fill="#ffc857" stroke="black" d="M2531.5,-314C2531.5,-318.41 2477.94,-322 2412,-322 2346.06,-322 2292.5,-318.41 2292.5,-314 2292.5,-314 2292.5,-242 2292.5,-242 2292.5,-237.59 2346.06,-234 2412,-234 2477.94,-234 2531.5,-237.59 2531.5,-242 2531.5,-242 2531.5,-314 2531.5,-314"/>
<path fill="none" stroke="black" d="M2531.5,-314C2531.5,-309.59 2477.94,-306 2412,-306 2346.06,-306 2292.5,-309.59 2292.5,-314"/>
<text text-anchor="start" x="2303.5" y="-288.8" font-family="Helvetica,sans-Serif" font-weight="bold" font-size="14.00">save_duration_impact_plots</text>
<text text-anchor="start" x="2310.5" y="-260.8" font-family="Helvetica,sans-Serif" font-style="italic" font-size="14.00">save_duration_impact_plots()</text>
</g>
<!-- duration_impact_plots&#45;&gt;save_duration_impact_plots -->
<g id="edge19" class="edge">
<title>duration_impact_plots&#45;&gt;save_duration_impact_plots</title>
<path fill="none" stroke="black" d="M836.78,-362.9C849.86,-358.03 863.66,-353.72 877,-351 1183.41,-288.45 1975.9,-375.63 2284,-322 2285.75,-321.7 2287.5,-321.37 2289.26,-321.03"/>
<polygon fill="black" stroke="black" points="2290.35,-324.38 2299.41,-318.88 2288.9,-317.53 2290.35,-324.38"/>
</g>
<!-- save_task_impact_plots -->
<g id="node33" class="node">
<title>save_task_impact_plots</title>
<path fill="#ffc857" stroke="black" d="M2756,-314C2756,-318.41 2709.83,-322 2653,-322 2596.17,-322 2550,-318.41 2550,-314 2550,-314 2550,-242 2550,-242 2550,-237.59 2596.17,-234 2653,-234 2709.83,-234 2756,-237.59 2756,-242 2756,-242 2756,-314 2756,-314"/>
<path fill="none" stroke="black" d="M2756,-314C2756,-309.59 2709.83,-306 2653,-306 2596.17,-306 2550,-309.59 2550,-314"/>
<text text-anchor="start" x="2561" y="-288.8" font-family="Helvetica,sans-Serif" font-weight="bold" font-size="14.00">save_task_impact_plots</text>
<text text-anchor="start" x="2566" y="-260.8" font-family="Helvetica,sans-Serif" font-style="italic" font-size="14.00">save_task_impact_plots()</text>
</g>
<!-- task_impact_plots&#45;&gt;save_task_impact_plots -->
<g id="edge22" class="edge">
<title>task_impact_plots&#45;&gt;save_task_impact_plots</title>
<path fill="none" stroke="black" d="M1022.78,-362.88C1033.82,-358.02 1045.54,-353.71 1057,-351 1377.96,-274.96 2217.29,-385.28 2541,-322 2542.29,-321.75 2543.59,-321.48 2544.89,-321.2"/>
<polygon fill="black" stroke="black" points="2546,-324.53 2554.92,-318.82 2544.38,-317.72 2546,-324.53"/>
</g>
<!-- filtered_marginal_impact -->
<g id="node19" class="node">
<title>filtered_marginal_impact</title>
<path fill="#b4d8e4" stroke="black" d="M745,-310C745,-310 553,-310 553,-310 547,-310 541,-304 541,-298 541,-298 541,-258 541,-258 541,-252 547,-246 553,-246 553,-246 745,-246 745,-246 751,-246 757,-252 757,-258 757,-258 757,-298 757,-298 757,-304 751,-310 745,-310"/>
<text text-anchor="start" x="552" y="-288.8" font-family="Helvetica,sans-Serif" font-weight="bold" font-size="14.00">filtered_marginal_impact</text>
<text text-anchor="start" x="636" y="-260.8" font-family="Helvetica,sans-Serif" font-style="italic" font-size="14.00">dict</text>
</g>
<!-- joint_impact&#45;&gt;filtered_marginal_impact -->
<g id="edge44" class="edge">
<title>joint_impact&#45;&gt;filtered_marginal_impact</title>
<path fill="none" stroke="black" d="M609.61,-362.88C615.92,-349.46 623.37,-333.58 630.09,-319.28"/>
<polygon fill="black" stroke="black" points="633.29,-320.68 634.38,-310.15 626.96,-317.71 633.29,-320.68"/>
</g>
<!-- filtered_marginal_impact_plots -->
<g id="node20" class="node">
<title>filtered_marginal_impact_plots</title>
<path fill="#b4d8e4" stroke="black" d="M904,-193C904,-193 666,-193 666,-193 660,-193 654,-187 654,-181 654,-181 654,-141 654,-141 654,-135 660,-129 666,-129 666,-129 904,-129 904,-129 910,-129 916,-135 916,-141 916,-141 916,-181 916,-181 916,-187 910,-193 904,-193"/>
<text text-anchor="start" x="665" y="-171.8" font-family="Helvetica,sans-Serif" font-weight="bold" font-size="14.00">filtered_marginal_impact_plots</text>
<text text-anchor="start" x="772" y="-143.8" font-family="Helvetica,sans-Serif" font-style="italic" font-size="14.00">dict</text>
</g>
<!-- joint_impact&#45;&gt;filtered_marginal_impact_plots -->
<g id="edge45" class="edge">
<title>joint_impact&#45;&gt;filtered_marginal_impact_plots</title>
<path fill="none" stroke="black" d="M641.17,-362.79C648.62,-358.48 656.39,-354.37 664,-351 707.09,-331.9 735.42,-357.86 766,-322 793.75,-289.45 795.13,-238.7 791.74,-203.11"/>
<polygon fill="black" stroke="black" points="795.2,-202.59 790.62,-193.04 788.25,-203.37 795.2,-202.59"/>
</g>
<!-- save_joint_impact -->
<g id="node47" class="node">
<title>save_joint_impact</title>
<path fill="#ffc857" stroke="black" d="M2274.5,-314C2274.5,-318.41 2238.42,-322 2194,-322 2149.58,-322 2113.5,-318.41 2113.5,-314 2113.5,-314 2113.5,-242 2113.5,-242 2113.5,-237.59 2149.58,-234 2194,-234 2238.42,-234 2274.5,-237.59 2274.5,-242 2274.5,-242 2274.5,-314 2274.5,-314"/>
<path fill="none" stroke="black" d="M2274.5,-314C2274.5,-309.59 2238.42,-306 2194,-306 2149.58,-306 2113.5,-309.59 2113.5,-314"/>
<text text-anchor="start" x="2124.5" y="-288.8" font-family="Helvetica,sans-Serif" font-weight="bold" font-size="14.00">save_joint_impact</text>
<text text-anchor="start" x="2127" y="-260.8" font-family="Helvetica,sans-Serif" font-style="italic" font-size="14.00">save_joint_impact()</text>
</g>
<!-- joint_impact&#45;&gt;save_joint_impact -->
<g id="edge46" class="edge">
<title>joint_impact&#45;&gt;save_joint_impact</title>
<path fill="none" stroke="black" d="M637.53,-362.9C645.94,-358.1 654.97,-353.81 664,-351 732.87,-329.53 1784.5,-292.72 2103.17,-282.01"/>
<polygon fill="black" stroke="black" points="2103.41,-285.5 2113.29,-281.67 2103.18,-278.5 2103.41,-285.5"/>
</g>
<!-- joint_impact_plots -->
<g id="node48" class="node">
<title>joint_impact_plots</title>
<path fill="#b4d8e4" stroke="black" d="M965,-310C965,-310 825,-310 825,-310 819,-310 813,-304 813,-298 813,-298 813,-258 813,-258 813,-252 819,-246 825,-246 825,-246 965,-246 965,-246 971,-246 977,-252 977,-258 977,-258 977,-298 977,-298 977,-304 971,-310 965,-310"/>
<text text-anchor="start" x="824" y="-288.8" font-family="Helvetica,sans-Serif" font-weight="bold" font-size="14.00">joint_impact_plots</text>
<text text-anchor="start" x="882" y="-260.8" font-family="Helvetica,sans-Serif" font-style="italic" font-size="14.00">dict</text>
</g>
<!-- joint_impact&#45;&gt;joint_impact_plots -->
<g id="edge47" class="edge">
<title>joint_impact&#45;&gt;joint_impact_plots</title>
<path fill="none" stroke="black" d="M639.84,-363C647.66,-358.5 655.89,-354.28 664,-351 720.89,-327.98 740.68,-341.09 799,-322 806.32,-319.6 813.84,-316.83 821.28,-313.87"/>
<polygon fill="black" stroke="black" points="822.73,-317.05 830.66,-310.03 820.08,-310.58 822.73,-317.05"/>
</g>
<!-- filtered_marginal_impact&#45;&gt;filtered_marginal_impact_plots -->
<g id="edge9" class="edge">
<title>filtered_marginal_impact&#45;&gt;filtered_marginal_impact_plots</title>
<path fill="none" stroke="black" d="M685.8,-245.88C702.59,-231.69 722.6,-214.76 740.25,-199.84"/>
<polygon fill="black" stroke="black" points="742.79,-202.28 748.17,-193.15 738.27,-196.93 742.79,-202.28"/>
</g>
<!-- save_filtered_marginal_impact -->
<g id="node21" class="node">
<title>save_filtered_marginal_impact</title>
<path fill="#ffc857" stroke="black" d="M2596,-197C2596,-201.41 2537.73,-205 2466,-205 2394.27,-205 2336,-201.41 2336,-197 2336,-197 2336,-125 2336,-125 2336,-120.59 2394.27,-117 2466,-117 2537.73,-117 2596,-120.59 2596,-125 2596,-125 2596,-197 2596,-197"/>
<path fill="none" stroke="black" d="M2596,-197C2596,-192.59 2537.73,-189 2466,-189 2394.27,-189 2336,-192.59 2336,-197"/>
<text text-anchor="start" x="2347" y="-171.8" font-family="Helvetica,sans-Serif" font-weight="bold" font-size="14.00">save_filtered_marginal_impact</text>
<text text-anchor="start" x="2356" y="-143.8" font-family="Helvetica,sans-Serif" font-style="italic" font-size="14.00">save_filtered_marginal_impact()</text>
</g>
<!-- filtered_marginal_impact&#45;&gt;save_filtered_marginal_impact -->
<g id="edge10" class="edge">
<title>filtered_marginal_impact&#45;&gt;save_filtered_marginal_impact</title>
<path fill="none" stroke="black" d="M747.04,-245.97C765.78,-241.13 785.36,-236.81 804,-234 1024.27,-200.76 1583.49,-215.47 1806,-205 1985.42,-196.56 2191.99,-182.38 2325.55,-172.63"/>
<polygon fill="black" stroke="black" points="2326.12,-176.09 2335.84,-171.87 2325.61,-169.11 2326.12,-176.09"/>
</g>
<!-- save_filtered_marginal_impact_plots -->
<g id="node28" class="node">
<title>save_filtered_marginal_impact_plots</title>
<path fill="#ffc857" stroke="black" d="M1936.5,-80C1936.5,-84.41 1868.15,-88 1784,-88 1699.85,-88 1631.5,-84.41 1631.5,-80 1631.5,-80 1631.5,-8 1631.5,-8 1631.5,-3.59 1699.85,0 1784,0 1868.15,0 1936.5,-3.59 1936.5,-8 1936.5,-8 1936.5,-80 1936.5,-80"/>
<path fill="none" stroke="black" d="M1936.5,-80C1936.5,-75.59 1868.15,-72 1784,-72 1699.85,-72 1631.5,-75.59 1631.5,-80"/>
<text text-anchor="start" x="1642.5" y="-54.8" font-family="Helvetica,sans-Serif" font-weight="bold" font-size="14.00">save_filtered_marginal_impact_plots</text>
<text text-anchor="start" x="1653.5" y="-26.8" font-family="Helvetica,sans-Serif" font-style="italic" font-size="14.00">save_filtered_marginal_impact_plots()</text>
</g>
<!-- filtered_marginal_impact_plots&#45;&gt;save_filtered_marginal_impact_plots -->
<g id="edge18" class="edge">
<title>filtered_marginal_impact_plots&#45;&gt;save_filtered_marginal_impact_plots</title>
<path fill="none" stroke="black" d="M916.12,-144.91C1097.44,-124.03 1424.61,-86.37 1621.31,-63.73"/>
<polygon fill="black" stroke="black" points="1621.92,-67.18 1631.45,-62.56 1621.12,-60.23 1621.92,-67.18"/>
</g>
<!-- save_best_models -->
<g id="node22" class="node">
<title>save_best_models</title>
<path fill="#ffc857" stroke="black" d="M1230,-431C1230,-435.41 1193.25,-439 1148,-439 1102.75,-439 1066,-435.41 1066,-431 1066,-431 1066,-359 1066,-359 1066,-354.59 1102.75,-351 1148,-351 1193.25,-351 1230,-354.59 1230,-359 1230,-359 1230,-431 1230,-431"/>
<path fill="none" stroke="black" d="M1230,-431C1230,-426.59 1193.25,-423 1148,-423 1102.75,-423 1066,-426.59 1066,-431"/>
<text text-anchor="start" x="1077" y="-405.8" font-family="Helvetica,sans-Serif" font-weight="bold" font-size="14.00">save_best_models</text>
<text text-anchor="start" x="1079.5" y="-377.8" font-family="Helvetica,sans-Serif" font-style="italic" font-size="14.00">save_best_models()</text>
</g>
<!-- best_models_df -->
<g id="node24" class="node">
<title>best_models_df</title>
<path fill="#b4d8e4" stroke="black" d="M326.5,-532C326.5,-532 207.5,-532 207.5,-532 201.5,-532 195.5,-526 195.5,-520 195.5,-520 195.5,-480 195.5,-480 195.5,-474 201.5,-468 207.5,-468 207.5,-468 326.5,-468 326.5,-468 332.5,-468 338.5,-474 338.5,-480 338.5,-480 338.5,-520 338.5,-520 338.5,-526 332.5,-532 326.5,-532"/>
<text text-anchor="start" x="206.5" y="-510.8" font-family="Helvetica,sans-Serif" font-weight="bold" font-size="14.00">best_models_df</text>
<text text-anchor="start" x="229" y="-482.8" font-family="Helvetica,sans-Serif" font-style="italic" font-size="14.00">DataFrame</text>
</g>
<!-- best_models_df&#45;&gt;best_models_metrics_table -->
<g id="edge13" class="edge">
<title>best_models_df&#45;&gt;best_models_metrics_table</title>
<path fill="none" stroke="black" d="M216.34,-467.78C205.38,-459.39 194.53,-449.66 186,-439 172.95,-422.68 171.6,-416.38 167,-396"/>
</g>
<!-- best_models_df&#45;&gt;best_configurations -->
<g id="edge15" class="edge">
<title>best_models_df&#45;&gt;best_configurations</title>
<path fill="none" stroke="black" d="M271.84,-467.82C273.35,-458.14 275.03,-447.31 276.62,-437.07"/>
<polygon fill="black" stroke="black" points="280.1,-437.5 278.17,-427.08 273.18,-436.42 280.1,-437.5"/>
</g>
<!-- best_models_df&#45;&gt;save_best_models -->
<g id="edge14" class="edge">
<title>best_models_df&#45;&gt;save_best_models</title>
<path fill="none" stroke="black" d="M338.57,-484.51C371.2,-478.45 410.42,-471.91 446,-468 581.12,-453.15 925.11,-471.9 1057,-439 1057.6,-438.85 1058.19,-438.7 1058.79,-438.54"/>
<polygon fill="black" stroke="black" points="1059.9,-441.86 1068.51,-435.69 1057.93,-435.15 1059.9,-441.86"/>
</g>
<!-- train_history -->
<g id="node25" class="node">
<title>train_history</title>
<path fill="#b4d8e4" stroke="black" d="M374,-1090C374,-1090 276,-1090 276,-1090 270,-1090 264,-1084 264,-1078 264,-1078 264,-1038 264,-1038 264,-1032 270,-1026 276,-1026 276,-1026 374,-1026 374,-1026 380,-1026 386,-1032 386,-1038 386,-1038 386,-1078 386,-1078 386,-1084 380,-1090 374,-1090"/>
<text text-anchor="start" x="275" y="-1068.8" font-family="Helvetica,sans-Serif" font-weight="bold" font-size="14.00">train_history</text>
<text text-anchor="start" x="312" y="-1040.8" font-family="Helvetica,sans-Serif" font-style="italic" font-size="14.00">dict</text>
</g>
<!-- variations_df -->
<g id="node26" class="node">
<title>variations_df</title>
<path fill="#b4d8e4" stroke="black" d="M495,-997C495,-997 395,-997 395,-997 389,-997 383,-991 383,-985 383,-985 383,-945 383,-945 383,-939 389,-933 395,-933 395,-933 495,-933 495,-933 501,-933 507,-939 507,-945 507,-945 507,-985 507,-985 507,-991 501,-997 495,-997"/>
<text text-anchor="start" x="394" y="-975.8" font-family="Helvetica,sans-Serif" font-weight="bold" font-size="14.00">variations_df</text>
<text text-anchor="start" x="407" y="-947.8" font-family="Helvetica,sans-Serif" font-style="italic" font-size="14.00">DataFrame</text>
</g>
<!-- train_history&#45;&gt;variations_df -->
<g id="edge16" class="edge">
<title>train_history&#45;&gt;variations_df</title>
<path fill="none" stroke="black" d="M365.96,-1025.94C375.51,-1018.7 385.78,-1010.91 395.64,-1003.43"/>
<polygon fill="black" stroke="black" points="397.96,-1006.06 403.82,-997.23 393.73,-1000.49 397.96,-1006.06"/>
</g>
<!-- variations_df&#45;&gt;best_models_metrics_table -->
<g id="edge23" class="edge">
<title>variations_df&#45;&gt;best_models_metrics_table</title>
<path fill="none" stroke="black" d="M382.79,-951.28C355.67,-942.52 326.02,-927.97 308,-904 224.47,-792.92 300.93,-728.77 267,-594"/>
<path fill="none" stroke="black" d="M267,-592C254.44,-549 208.88,-570.52 186,-532 154.83,-479.53 180.45,-455.53 167,-396"/>
<path fill="none" stroke="black" d="M167,-394C161.07,-370.08 160.86,-342.49 162.23,-320.33"/>
<polygon fill="black" stroke="black" points="165.73,-320.47 162.98,-310.24 158.75,-319.95 165.73,-320.47"/>
</g>
<!-- variations_df&#45;&gt;divergence_probability -->
<g id="edge24" class="edge">
<title>variations_df&#45;&gt;divergence_probability</title>
<path fill="none" stroke="black" d="M1883,-685C1882.61,-661.96 1868.57,-644.25 1849.88,-630.83"/>
<polygon fill="black" stroke="black" points="1851.58,-627.76 1841.31,-625.16 1847.72,-633.6 1851.58,-627.76"/>
</g>
<!-- variations_df&#45;&gt;joint_impact -->
<g id="edge31" class="edge">
<title>variations_df&#45;&gt;joint_impact</title>
<path fill="none" stroke="black" d="M507.37,-958.34C779.04,-932.91 1847.2,-824.39 1883,-687"/>
<path fill="none" stroke="black" d="M1883,-685C1948.93,-623.58 1570.55,-641.67 1482,-625 1115.6,-556.03 1008.78,-580.9 664,-439 659.02,-436.95 654,-434.56 649.05,-431.97"/>
<polygon fill="black" stroke="black" points="650.7,-428.89 640.25,-427.14 647.33,-435.02 650.7,-428.89"/>
</g>
<!-- variations_df&#45;&gt;best_models_df -->
<g id="edge25" class="edge">
<title>variations_df&#45;&gt;best_models_df</title>
<path fill="none" stroke="black" d="M267,-592C262.98,-576.04 262.23,-558 262.76,-542.21"/>
<polygon fill="black" stroke="black" points="266.26,-542.38 263.27,-532.21 259.27,-542.02 266.26,-542.38"/>
</g>
<!-- task_distribution_plots -->
<g id="node27" class="node">
<title>task_distribution_plots</title>
<path fill="#b4d8e4" stroke="black" d="M2284,-532C2284,-532 2108,-532 2108,-532 2102,-532 2096,-526 2096,-520 2096,-520 2096,-480 2096,-480 2096,-474 2102,-468 2108,-468 2108,-468 2284,-468 2284,-468 2290,-468 2296,-474 2296,-480 2296,-480 2296,-520 2296,-520 2296,-526 2290,-532 2284,-532"/>
<text text-anchor="start" x="2107" y="-510.8" font-family="Helvetica,sans-Serif" font-weight="bold" font-size="14.00">task_distribution_plots</text>
<text text-anchor="start" x="2183" y="-482.8" font-family="Helvetica,sans-Serif" font-style="italic" font-size="14.00">dict</text>
</g>
<!-- variations_df&#45;&gt;task_distribution_plots -->
<g id="edge26" class="edge">
<title>variations_df&#45;&gt;task_distribution_plots</title>
<path fill="none" stroke="black" d="M1883,-685C1882.06,-629.25 1863.56,-601.38 1902,-561 1915.05,-547.3 2007.98,-529.82 2085.92,-517.27"/>
<polygon fill="black" stroke="black" points="2086.5,-520.72 2095.83,-515.69 2085.4,-513.81 2086.5,-520.72"/>
</g>
<!-- tasks_correlation -->
<g id="node30" class="node">
<title>tasks_correlation</title>
<path fill="#b4d8e4" stroke="black" d="M2057,-625C2057,-625 1923,-625 1923,-625 1917,-625 1911,-619 1911,-613 1911,-613 1911,-573 1911,-573 1911,-567 1917,-561 1923,-561 1923,-561 2057,-561 2057,-561 2063,-561 2069,-567 2069,-573 2069,-573 2069,-613 2069,-613 2069,-619 2063,-625 2057,-625"/>
<text text-anchor="start" x="1922" y="-603.8" font-family="Helvetica,sans-Serif" font-weight="bold" font-size="14.00">tasks_correlation</text>
<text text-anchor="start" x="1977" y="-575.8" font-family="Helvetica,sans-Serif" font-style="italic" font-size="14.00">dict</text>
</g>
<!-- variations_df&#45;&gt;tasks_correlation -->
<g id="edge27" class="edge">
<title>variations_df&#45;&gt;tasks_correlation</title>
<path fill="none" stroke="black" d="M1883,-685C1882.63,-662.9 1895.93,-645.05 1913.26,-631.2"/>
<polygon fill="black" stroke="black" points="1915.52,-633.88 1921.48,-625.12 1911.36,-628.26 1915.52,-633.88"/>
</g>
<!-- filtered_divergence_probability -->
<g id="node35" class="node">
<title>filtered_divergence_probability</title>
<path fill="#b4d8e4" stroke="black" d="M2341,-625C2341,-625 2099,-625 2099,-625 2093,-625 2087,-619 2087,-613 2087,-613 2087,-573 2087,-573 2087,-567 2093,-561 2099,-561 2099,-561 2341,-561 2341,-561 2347,-561 2353,-567 2353,-573 2353,-573 2353,-613 2353,-613 2353,-619 2347,-625 2341,-625"/>
<text text-anchor="start" x="2098" y="-603.8" font-family="Helvetica,sans-Serif" font-weight="bold" font-size="14.00">filtered_divergence_probability</text>
<text text-anchor="start" x="2207" y="-575.8" font-family="Helvetica,sans-Serif" font-style="italic" font-size="14.00">dict</text>
</g>
<!-- variations_df&#45;&gt;filtered_divergence_probability -->
<g id="edge28" class="edge">
<title>variations_df&#45;&gt;filtered_divergence_probability</title>
<path fill="none" stroke="black" d="M1883,-685C1882.82,-674.33 1984.88,-647.85 2076.71,-626.19"/>
<polygon fill="black" stroke="black" points="2077.77,-629.53 2086.71,-623.84 2076.17,-622.72 2077.77,-629.53"/>
</g>
<!-- masked_percentage -->
<g id="node36" class="node">
<title>masked_percentage</title>
<path fill="#b4d8e4" stroke="black" d="M3769,-532C3769,-532 3613,-532 3613,-532 3607,-532 3601,-526 3601,-520 3601,-520 3601,-480 3601,-480 3601,-474 3607,-468 3613,-468 3613,-468 3769,-468 3769,-468 3775,-468 3781,-474 3781,-480 3781,-480 3781,-520 3781,-520 3781,-526 3775,-532 3769,-532"/>
<text text-anchor="start" x="3612" y="-510.8" font-family="Helvetica,sans-Serif" font-weight="bold" font-size="14.00">masked_percentage</text>
<text text-anchor="start" x="3675.5" y="-482.8" font-family="Helvetica,sans-Serif" font-style="italic" font-size="14.00">float</text>
</g>
<!-- variations_df&#45;&gt;masked_percentage -->
<g id="edge29" class="edge">
<title>variations_df&#45;&gt;masked_percentage</title>
<path fill="none" stroke="black" d="M1883,-685C1882.87,-674.19 3210.64,-546.79 3590.56,-510.56"/>
<polygon fill="black" stroke="black" points="3591.09,-514.02 3600.72,-509.59 3590.43,-507.05 3591.09,-514.02"/>
</g>
<!-- variable_co_occurrence_graph -->
<g id="node37" class="node">
<title>variable_co_occurrence_graph</title>
<path fill="#b4d8e4" stroke="black" d="M561.5,-904C561.5,-904 328.5,-904 328.5,-904 322.5,-904 316.5,-898 316.5,-892 316.5,-892 316.5,-852 316.5,-852 316.5,-846 322.5,-840 328.5,-840 328.5,-840 561.5,-840 561.5,-840 567.5,-840 573.5,-846 573.5,-852 573.5,-852 573.5,-892 573.5,-892 573.5,-898 567.5,-904 561.5,-904"/>
<text text-anchor="start" x="327.5" y="-882.8" font-family="Helvetica,sans-Serif" font-weight="bold" font-size="14.00">variable_co_occurrence_graph</text>
<text text-anchor="start" x="423.5" y="-854.8" font-family="Helvetica,sans-Serif" font-style="italic" font-size="14.00">Graph</text>
</g>
<!-- variations_df&#45;&gt;variable_co_occurrence_graph -->
<g id="edge30" class="edge">
<title>variations_df&#45;&gt;variable_co_occurrence_graph</title>
<path fill="none" stroke="black" d="M445,-932.94C445,-927 445,-920.7 445,-914.49"/>
<polygon fill="black" stroke="black" points="448.5,-914.23 445,-904.23 441.5,-914.23 448.5,-914.23"/>
</g>
<!-- impact_test_dfs -->
<g id="node38" class="node">
<title>impact_test_dfs</title>
<path fill="#b4d8e4" stroke="black" d="M1623.5,-625C1623.5,-625 1502.5,-625 1502.5,-625 1496.5,-625 1490.5,-619 1490.5,-613 1490.5,-613 1490.5,-573 1490.5,-573 1490.5,-567 1496.5,-561 1502.5,-561 1502.5,-561 1623.5,-561 1623.5,-561 1629.5,-561 1635.5,-567 1635.5,-573 1635.5,-573 1635.5,-613 1635.5,-613 1635.5,-619 1629.5,-625 1623.5,-625"/>
<text text-anchor="start" x="1501.5" y="-603.8" font-family="Helvetica,sans-Serif" font-weight="bold" font-size="14.00">impact_test_dfs</text>
<text text-anchor="start" x="1550" y="-575.8" font-family="Helvetica,sans-Serif" font-style="italic" font-size="14.00">dict</text>
</g>
<!-- variations_df&#45;&gt;impact_test_dfs -->
<g id="edge32" class="edge">
<title>variations_df&#45;&gt;impact_test_dfs</title>
<path fill="none" stroke="black" d="M1883,-685C1881.21,-579.02 1756.46,-653.2 1645.4,-624.74"/>
<polygon fill="black" stroke="black" points="1646.3,-621.36 1635.73,-621.99 1644.38,-628.1 1646.3,-621.36"/>
</g>
<!-- task_distribution_plots&#45;&gt;save_task_distribution_plots -->
<g id="edge17" class="edge">
<title>task_distribution_plots&#45;&gt;save_task_distribution_plots</title>
<path fill="none" stroke="black" d="M2248.38,-467.82C2260.94,-460.34 2274.65,-452.18 2288.17,-444.13"/>
<polygon fill="black" stroke="black" points="2290.21,-446.98 2297.01,-438.86 2286.63,-440.97 2290.21,-446.98"/>
</g>
<!-- save_tasks_correlation -->
<g id="node31" class="node">
<title>save_tasks_correlation</title>
<path fill="#ffc857" stroke="black" d="M3013.5,-431C3013.5,-435.41 2968.45,-439 2913,-439 2857.55,-439 2812.5,-435.41 2812.5,-431 2812.5,-431 2812.5,-359 2812.5,-359 2812.5,-354.59 2857.55,-351 2913,-351 2968.45,-351 3013.5,-354.59 3013.5,-359 3013.5,-359 3013.5,-431 3013.5,-431"/>
<path fill="none" stroke="black" d="M3013.5,-431C3013.5,-426.59 2968.45,-423 2913,-423 2857.55,-423 2812.5,-426.59 2812.5,-431"/>
<text text-anchor="start" x="2823.5" y="-405.8" font-family="Helvetica,sans-Serif" font-weight="bold" font-size="14.00">save_tasks_correlation</text>
<text text-anchor="start" x="2830" y="-377.8" font-family="Helvetica,sans-Serif" font-style="italic" font-size="14.00">save_tasks_correlation()</text>
</g>
<!-- tasks_correlation&#45;&gt;save_tasks_correlation -->
<g id="edge20" class="edge">
<title>tasks_correlation&#45;&gt;save_tasks_correlation</title>
<path fill="none" stroke="black" d="M2069.34,-562.89C2072.24,-562.2 2075.14,-561.56 2078,-561 2209.44,-535.26 2551.59,-570.07 2680,-532 2741.59,-513.74 2804.07,-476 2848.8,-444.91"/>
<polygon fill="black" stroke="black" points="2851.06,-447.6 2857.23,-438.98 2847.03,-441.87 2851.06,-447.6"/>
</g>
<!-- tasks_correlation_plots -->
<g id="node32" class="node">
<title>tasks_correlation_plots</title>
<path fill="#b4d8e4" stroke="black" d="M2528.5,-532C2528.5,-532 2349.5,-532 2349.5,-532 2343.5,-532 2337.5,-526 2337.5,-520 2337.5,-520 2337.5,-480 2337.5,-480 2337.5,-474 2343.5,-468 2349.5,-468 2349.5,-468 2528.5,-468 2528.5,-468 2534.5,-468 2540.5,-474 2540.5,-480 2540.5,-480 2540.5,-520 2540.5,-520 2540.5,-526 2534.5,-532 2528.5,-532"/>
<text text-anchor="start" x="2348.5" y="-510.8" font-family="Helvetica,sans-Serif" font-weight="bold" font-size="14.00">tasks_correlation_plots</text>
<text text-anchor="start" x="2426" y="-482.8" font-family="Helvetica,sans-Serif" font-style="italic" font-size="14.00">dict</text>
</g>
<!-- tasks_correlation&#45;&gt;tasks_correlation_plots -->
<g id="edge21" class="edge">
<title>tasks_correlation&#45;&gt;tasks_correlation_plots</title>
<path fill="none" stroke="black" d="M2069.4,-563.18C2072.29,-562.4 2075.16,-561.67 2078,-561 2176.96,-537.53 2204.88,-549.93 2305,-532 2312.27,-530.7 2319.74,-529.26 2327.26,-527.73"/>
<polygon fill="black" stroke="black" points="2328.08,-531.14 2337.16,-525.68 2326.65,-524.28 2328.08,-531.14"/>
</g>
<!-- tasks_correlation_plots&#45;&gt;save_tasks_correlation_plots -->
<g id="edge59" class="edge">
<title>tasks_correlation_plots&#45;&gt;save_tasks_correlation_plots</title>
<path fill="none" stroke="black" d="M2497.17,-467.96C2511.73,-460.18 2527.69,-451.67 2543.37,-443.3"/>
<polygon fill="black" stroke="black" points="2545.38,-446.19 2552.56,-438.4 2542.09,-440.02 2545.38,-446.19"/>
</g>
<!-- save_filtered_divergence_probability_plots -->
<g id="node34" class="node">
<title>save_filtered_divergence_probability_plots</title>
<path fill="#ffc857" stroke="black" d="M3386.5,-431C3386.5,-435.41 3306.94,-439 3209,-439 3111.06,-439 3031.5,-435.41 3031.5,-431 3031.5,-431 3031.5,-359 3031.5,-359 3031.5,-354.59 3111.06,-351 3209,-351 3306.94,-351 3386.5,-354.59 3386.5,-359 3386.5,-359 3386.5,-431 3386.5,-431"/>
<path fill="none" stroke="black" d="M3386.5,-431C3386.5,-426.59 3306.94,-423 3209,-423 3111.06,-423 3031.5,-426.59 3031.5,-431"/>
<text text-anchor="start" x="3042.5" y="-405.8" font-family="Helvetica,sans-Serif" font-weight="bold" font-size="14.00">save_filtered_divergence_probability_plots</text>
<text text-anchor="start" x="3057.5" y="-377.8" font-family="Helvetica,sans-Serif" font-style="italic" font-size="14.00">save_filtered_divergence_probability_plots()</text>
</g>
<!-- filtered_divergence_probability_plots -->
<g id="node39" class="node">
<title>filtered_divergence_probability_plots</title>
<path fill="#b4d8e4" stroke="black" d="M3242.5,-532C3242.5,-532 2955.5,-532 2955.5,-532 2949.5,-532 2943.5,-526 2943.5,-520 2943.5,-520 2943.5,-480 2943.5,-480 2943.5,-474 2949.5,-468 2955.5,-468 2955.5,-468 3242.5,-468 3242.5,-468 3248.5,-468 3254.5,-474 3254.5,-480 3254.5,-480 3254.5,-520 3254.5,-520 3254.5,-526 3248.5,-532 3242.5,-532"/>
<text text-anchor="start" x="2954.5" y="-510.8" font-family="Helvetica,sans-Serif" font-weight="bold" font-size="14.00">filtered_divergence_probability_plots</text>
<text text-anchor="start" x="3086" y="-482.8" font-family="Helvetica,sans-Serif" font-style="italic" font-size="14.00">dict</text>
</g>
<!-- filtered_divergence_probability&#45;&gt;filtered_divergence_probability_plots -->
<g id="edge36" class="edge">
<title>filtered_divergence_probability&#45;&gt;filtered_divergence_probability_plots</title>
<path fill="none" stroke="black" d="M2353.26,-563.02C2357.89,-562.3 2362.48,-561.62 2367,-561 2566.89,-533.67 2619.02,-549.59 2820,-532 2856.77,-528.78 2896.2,-524.76 2933.5,-520.68"/>
<polygon fill="black" stroke="black" points="2933.89,-524.16 2943.44,-519.59 2933.12,-517.2 2933.89,-524.16"/>
</g>
<!-- save_filtered_divergence_probability -->
<g id="node43" class="node">
<title>save_filtered_divergence_probability</title>
<path fill="#ffc857" stroke="black" d="M3713.5,-431C3713.5,-435.41 3644.25,-439 3559,-439 3473.75,-439 3404.5,-435.41 3404.5,-431 3404.5,-431 3404.5,-359 3404.5,-359 3404.5,-354.59 3473.75,-351 3559,-351 3644.25,-351 3713.5,-354.59 3713.5,-359 3713.5,-359 3713.5,-431 3713.5,-431"/>
<path fill="none" stroke="black" d="M3713.5,-431C3713.5,-426.59 3644.25,-423 3559,-423 3473.75,-423 3404.5,-426.59 3404.5,-431"/>
<text text-anchor="start" x="3415.5" y="-405.8" font-family="Helvetica,sans-Serif" font-weight="bold" font-size="14.00">save_filtered_divergence_probability</text>
<text text-anchor="start" x="3428" y="-377.8" font-family="Helvetica,sans-Serif" font-style="italic" font-size="14.00">save_filtered_divergence_probability()</text>
</g>
<!-- filtered_divergence_probability&#45;&gt;save_filtered_divergence_probability -->
<g id="edge37" class="edge">
<title>filtered_divergence_probability&#45;&gt;save_filtered_divergence_probability</title>
<path fill="none" stroke="black" d="M2353.23,-562.84C2357.87,-562.16 2362.47,-561.55 2367,-561 2565,-537.11 3069.91,-577.88 3264,-532 3340.19,-513.99 3420.5,-475.52 3478.05,-444.07"/>
<polygon fill="black" stroke="black" points="3480.02,-446.99 3487.09,-439.09 3476.64,-440.86 3480.02,-446.99"/>
</g>
<!-- save_masked_percentage -->
<g id="node46" class="node">
<title>save_masked_percentage</title>
<path fill="#ffc857" stroke="black" d="M3955,-431C3955,-435.41 3904.8,-439 3843,-439 3781.2,-439 3731,-435.41 3731,-431 3731,-431 3731,-359 3731,-359 3731,-354.59 3781.2,-351 3843,-351 3904.8,-351 3955,-354.59 3955,-359 3955,-359 3955,-431 3955,-431"/>
<path fill="none" stroke="black" d="M3955,-431C3955,-426.59 3904.8,-423 3843,-423 3781.2,-423 3731,-426.59 3731,-431"/>
<text text-anchor="start" x="3742" y="-405.8" font-family="Helvetica,sans-Serif" font-weight="bold" font-size="14.00">save_masked_percentage</text>
<text text-anchor="start" x="3748.5" y="-377.8" font-family="Helvetica,sans-Serif" font-style="italic" font-size="14.00">save_masked_percentage()</text>
</g>
<!-- masked_percentage&#45;&gt;save_masked_percentage -->
<g id="edge42" class="edge">
<title>masked_percentage&#45;&gt;save_masked_percentage</title>
<path fill="none" stroke="black" d="M3737.02,-467.82C3747.78,-460.53 3759.49,-452.59 3771.07,-444.74"/>
<polygon fill="black" stroke="black" points="3773.16,-447.56 3779.47,-439.05 3769.23,-441.76 3773.16,-447.56"/>
</g>
<!-- variable_disjoint_graph -->
<g id="node40" class="node">
<title>variable_disjoint_graph</title>
<path fill="#b4d8e4" stroke="black" d="M534.5,-811C534.5,-811 355.5,-811 355.5,-811 349.5,-811 343.5,-805 343.5,-799 343.5,-799 343.5,-759 343.5,-759 343.5,-753 349.5,-747 355.5,-747 355.5,-747 534.5,-747 534.5,-747 540.5,-747 546.5,-753 546.5,-759 546.5,-759 546.5,-799 546.5,-799 546.5,-805 540.5,-811 534.5,-811"/>
<text text-anchor="start" x="354.5" y="-789.8" font-family="Helvetica,sans-Serif" font-weight="bold" font-size="14.00">variable_disjoint_graph</text>
<text text-anchor="start" x="423.5" y="-761.8" font-family="Helvetica,sans-Serif" font-style="italic" font-size="14.00">Graph</text>
</g>
<!-- variable_co_occurrence_graph&#45;&gt;variable_disjoint_graph -->
<g id="edge43" class="edge">
<title>variable_co_occurrence_graph&#45;&gt;variable_disjoint_graph</title>
<path fill="none" stroke="black" d="M445,-839.94C445,-834 445,-827.7 445,-821.49"/>
<polygon fill="black" stroke="black" points="448.5,-821.23 445,-811.23 441.5,-821.23 448.5,-821.23"/>
</g>
<!-- impact_test_dfs&#45;&gt;impact_test_df -->
<g id="edge48" class="edge">
<title>impact_test_dfs&#45;&gt;impact_test_df</title>
<path fill="none" stroke="black" d="M1490.26,-562.58C1466.57,-553 1440.18,-542.33 1416.12,-532.59"/>
<polygon fill="black" stroke="black" points="1417.25,-529.28 1406.67,-528.77 1414.62,-535.77 1417.25,-529.28"/>
</g>
<!-- impact_test_full_df -->
<g id="node44" class="node">
<title>impact_test_full_df</title>
<path fill="#b4d8e4" stroke="black" d="M1602,-532C1602,-532 1458,-532 1458,-532 1452,-532 1446,-526 1446,-520 1446,-520 1446,-480 1446,-480 1446,-474 1452,-468 1458,-468 1458,-468 1602,-468 1602,-468 1608,-468 1614,-474 1614,-480 1614,-480 1614,-520 1614,-520 1614,-526 1608,-532 1602,-532"/>
<text text-anchor="start" x="1457" y="-510.8" font-family="Helvetica,sans-Serif" font-weight="bold" font-size="14.00">impact_test_full_df</text>
<text text-anchor="start" x="1492" y="-482.8" font-family="Helvetica,sans-Serif" font-style="italic" font-size="14.00">DataFrame</text>
</g>
<!-- impact_test_dfs&#45;&gt;impact_test_full_df -->
<g id="edge49" class="edge">
<title>impact_test_dfs&#45;&gt;impact_test_full_df</title>
<path fill="none" stroke="black" d="M1551.74,-560.94C1549.53,-554.86 1547.19,-548.39 1544.88,-542.04"/>
<polygon fill="black" stroke="black" points="1548.03,-540.44 1541.33,-532.23 1541.44,-542.83 1548.03,-540.44"/>
</g>
<!-- filtered_divergence_probability_plots&#45;&gt;save_filtered_divergence_probability_plots -->
<g id="edge33" class="edge">
<title>filtered_divergence_probability_plots&#45;&gt;save_filtered_divergence_probability_plots</title>
<path fill="none" stroke="black" d="M3132.3,-467.82C3139.51,-461.07 3147.31,-453.76 3155.08,-446.49"/>
<polygon fill="black" stroke="black" points="3157.92,-448.63 3162.82,-439.24 3153.13,-443.52 3157.92,-448.63"/>
</g>
<!-- variable_disjoint_graph&#45;&gt;best_configurations -->
<g id="edge34" class="edge">
<title>variable_disjoint_graph&#45;&gt;best_configurations</title>
<path fill="none" stroke="black" d="M408.07,-746.95C399.95,-738.37 392.23,-728.51 387,-718 336.91,-617.31 396.36,-569.52 348,-468 342.29,-456.01 333.92,-444.57 325.08,-434.48"/>
<polygon fill="black" stroke="black" points="327.6,-432.05 318.27,-427.04 322.44,-436.78 327.6,-432.05"/>
</g>
<!-- disjoint_groups -->
<g id="node41" class="node">
<title>disjoint_groups</title>
<path fill="#b4d8e4" stroke="black" d="M524.5,-718C524.5,-718 407.5,-718 407.5,-718 401.5,-718 395.5,-712 395.5,-706 395.5,-706 395.5,-666 395.5,-666 395.5,-660 401.5,-654 407.5,-654 407.5,-654 524.5,-654 524.5,-654 530.5,-654 536.5,-660 536.5,-666 536.5,-666 536.5,-706 536.5,-706 536.5,-712 530.5,-718 524.5,-718"/>
<text text-anchor="start" x="406.5" y="-696.8" font-family="Helvetica,sans-Serif" font-weight="bold" font-size="14.00">disjoint_groups</text>
<text text-anchor="start" x="455.5" y="-668.8" font-family="Helvetica,sans-Serif" font-style="italic" font-size="14.00">list</text>
</g>
<!-- variable_disjoint_graph&#45;&gt;disjoint_groups -->
<g id="edge35" class="edge">
<title>variable_disjoint_graph&#45;&gt;disjoint_groups</title>
<path fill="none" stroke="black" d="M452.17,-746.94C453.57,-740.86 455.06,-734.39 456.53,-728.04"/>
<polygon fill="black" stroke="black" points="459.95,-728.76 458.79,-718.23 453.13,-727.19 459.95,-728.76"/>
</g>
<!-- disjoint_groups&#45;&gt;best_configurations -->
<g id="edge52" class="edge">
<title>disjoint_groups&#45;&gt;best_configurations</title>
<path fill="none" stroke="black" d="M465.8,-653.7C465.37,-617.05 464.06,-554.54 460,-501"/>
<path fill="none" stroke="black" d="M460,-499C458.78,-486.45 404.56,-456.18 356.46,-431.69"/>
<polygon fill="black" stroke="black" points="357.75,-428.42 347.25,-427.03 354.59,-434.66 357.75,-428.42"/>
</g>
<!-- disjoint_groups&#45;&gt;joint_impact -->
<g id="edge53" class="edge">
<title>disjoint_groups&#45;&gt;joint_impact</title>
<path fill="none" stroke="black" d="M460,-499C459.21,-488.55 500.97,-457.91 538.25,-432.75"/>
<polygon fill="black" stroke="black" points="540.25,-435.62 546.61,-427.14 536.36,-429.8 540.25,-435.62"/>
</g>
<!-- disjoint_groups&#45;&gt;impact_test_dfs -->
<g id="edge54" class="edge">
<title>disjoint_groups&#45;&gt;impact_test_dfs</title>
<path fill="none" stroke="black" d="M536.71,-679.13C730.9,-663.03 1271.78,-618.16 1479.91,-600.89"/>
<polygon fill="black" stroke="black" points="1480.49,-604.36 1490.16,-600.04 1479.91,-597.38 1480.49,-604.36"/>
</g>
<!-- disjoint_mask -->
<g id="node50" class="node">
<title>disjoint_mask</title>
<path fill="#b4d8e4" stroke="black" d="M506,-427C506,-427 402,-427 402,-427 396,-427 390,-421 390,-415 390,-415 390,-375 390,-375 390,-369 396,-363 402,-363 402,-363 506,-363 506,-363 512,-363 518,-369 518,-375 518,-375 518,-415 518,-415 518,-421 512,-427 506,-427"/>
<text text-anchor="start" x="401" y="-405.8" font-family="Helvetica,sans-Serif" font-weight="bold" font-size="14.00">disjoint_mask</text>
<text text-anchor="start" x="426.5" y="-377.8" font-family="Helvetica,sans-Serif" font-style="italic" font-size="14.00">ndarray</text>
</g>
<!-- disjoint_groups&#45;&gt;disjoint_mask -->
<g id="edge55" class="edge">
<title>disjoint_groups&#45;&gt;disjoint_mask</title>
<path fill="none" stroke="black" d="M460,-499C458.46,-478.66 457.1,-456.02 456.07,-437.17"/>
<polygon fill="black" stroke="black" points="459.56,-436.92 455.53,-427.12 452.57,-437.29 459.56,-436.92"/>
</g>
<!-- save_impact_test_full_df -->
<g id="node42" class="node">
<title>save_impact_test_full_df</title>
<path fill="#ffc857" stroke="black" d="M1658,-431C1658,-435.41 1610.49,-439 1552,-439 1493.51,-439 1446,-435.41 1446,-431 1446,-431 1446,-359 1446,-359 1446,-354.59 1493.51,-351 1552,-351 1610.49,-351 1658,-354.59 1658,-359 1658,-359 1658,-431 1658,-431"/>
<path fill="none" stroke="black" d="M1658,-431C1658,-426.59 1610.49,-423 1552,-423 1493.51,-423 1446,-426.59 1446,-431"/>
<text text-anchor="start" x="1457" y="-405.8" font-family="Helvetica,sans-Serif" font-weight="bold" font-size="14.00">save_impact_test_full_df</text>
<text text-anchor="start" x="1462" y="-377.8" font-family="Helvetica,sans-Serif" font-style="italic" font-size="14.00">save_impact_test_full_df()</text>
</g>
<!-- impact_test_full_df&#45;&gt;duration_impact_plots -->
<g id="edge38" class="edge">
<title>impact_test_full_df&#45;&gt;duration_impact_plots</title>
<path fill="none" stroke="black" d="M1445.77,-473.96C1435.8,-471.63 1425.72,-469.56 1416,-468 1179.15,-429.87 1111.23,-490.87 877,-439 867.25,-436.84 857.24,-433.89 847.44,-430.54"/>
<polygon fill="black" stroke="black" points="848.32,-427.14 837.72,-427.07 845.96,-433.73 848.32,-427.14"/>
</g>
<!-- impact_test_full_df&#45;&gt;task_impact_plots -->
<g id="edge39" class="edge">
<title>impact_test_full_df&#45;&gt;task_impact_plots</title>
<path fill="none" stroke="black" d="M1445.73,-474.22C1435.77,-471.84 1425.7,-469.7 1416,-468 1258.32,-440.44 1211.56,-480.64 1057,-439 1049.27,-436.92 1041.4,-434.19 1033.69,-431.11"/>
<polygon fill="black" stroke="black" points="1034.97,-427.85 1024.39,-427.2 1032.25,-434.3 1034.97,-427.85"/>
</g>
<!-- impact_test_full_df&#45;&gt;save_impact_test_full_df -->
<g id="edge40" class="edge">
<title>impact_test_full_df&#45;&gt;save_impact_test_full_df</title>
<path fill="none" stroke="black" d="M1536.66,-467.82C1537.92,-461.91 1539.27,-455.58 1540.63,-449.21"/>
<polygon fill="black" stroke="black" points="1544.1,-449.75 1542.76,-439.24 1537.25,-448.29 1544.1,-449.75"/>
</g>
<!-- metrics -->
<g id="node45" class="node">
<title>metrics</title>
<path fill="#b4d8e4" stroke="black" d="M473.5,-1090C473.5,-1090 416.5,-1090 416.5,-1090 410.5,-1090 404.5,-1084 404.5,-1078 404.5,-1078 404.5,-1038 404.5,-1038 404.5,-1032 410.5,-1026 416.5,-1026 416.5,-1026 473.5,-1026 473.5,-1026 479.5,-1026 485.5,-1032 485.5,-1038 485.5,-1038 485.5,-1078 485.5,-1078 485.5,-1084 479.5,-1090 473.5,-1090"/>
<text text-anchor="start" x="415.5" y="-1068.8" font-family="Helvetica,sans-Serif" font-weight="bold" font-size="14.00">metrics</text>
<text text-anchor="start" x="432" y="-1040.8" font-family="Helvetica,sans-Serif" font-style="italic" font-size="14.00">dict</text>
</g>
<!-- metrics&#45;&gt;variations_df -->
<g id="edge41" class="edge">
<title>metrics&#45;&gt;variations_df</title>
<path fill="none" stroke="black" d="M445,-1025.94C445,-1020 445,-1013.7 445,-1007.49"/>
<polygon fill="black" stroke="black" points="448.5,-1007.23 445,-997.23 441.5,-1007.23 448.5,-1007.23"/>
</g>
<!-- save_joint_impact_plots -->
<g id="node51" class="node">
<title>save_joint_impact_plots</title>
<path fill="#ffc857" stroke="black" d="M2821.5,-197C2821.5,-201.41 2775.11,-205 2718,-205 2660.89,-205 2614.5,-201.41 2614.5,-197 2614.5,-197 2614.5,-125 2614.5,-125 2614.5,-120.59 2660.89,-117 2718,-117 2775.11,-117 2821.5,-120.59 2821.5,-125 2821.5,-125 2821.5,-197 2821.5,-197"/>
<path fill="none" stroke="black" d="M2821.5,-197C2821.5,-192.59 2775.11,-189 2718,-189 2660.89,-189 2614.5,-192.59 2614.5,-197"/>
<text text-anchor="start" x="2625.5" y="-171.8" font-family="Helvetica,sans-Serif" font-weight="bold" font-size="14.00">save_joint_impact_plots</text>
<text text-anchor="start" x="2630.5" y="-143.8" font-family="Helvetica,sans-Serif" font-style="italic" font-size="14.00">save_joint_impact_plots()</text>
</g>
<!-- joint_impact_plots&#45;&gt;save_joint_impact_plots -->
<g id="edge56" class="edge">
<title>joint_impact_plots&#45;&gt;save_joint_impact_plots</title>
<path fill="none" stroke="black" d="M977.08,-274.28C1307.25,-263.23 2524.55,-221.55 2605,-205 2606.27,-204.74 2607.55,-204.46 2608.83,-204.18"/>
<polygon fill="black" stroke="black" points="2609.81,-207.54 2618.7,-201.77 2608.15,-200.74 2609.81,-207.54"/>
</g>
<!-- parameters -->
<g id="node49" class="node">
<title>parameters</title>
<path fill="#b4d8e4" stroke="black" d="M606,-1090C606,-1090 516,-1090 516,-1090 510,-1090 504,-1084 504,-1078 504,-1078 504,-1038 504,-1038 504,-1032 510,-1026 516,-1026 516,-1026 606,-1026 606,-1026 612,-1026 618,-1032 618,-1038 618,-1038 618,-1078 618,-1078 618,-1084 612,-1090 606,-1090"/>
<text text-anchor="start" x="515" y="-1068.8" font-family="Helvetica,sans-Serif" font-weight="bold" font-size="14.00">parameters</text>
<text text-anchor="start" x="548" y="-1040.8" font-family="Helvetica,sans-Serif" font-style="italic" font-size="14.00">dict</text>
</g>
<!-- parameters&#45;&gt;variations_df -->
<g id="edge51" class="edge">
<title>parameters&#45;&gt;variations_df</title>
<path fill="none" stroke="black" d="M521.4,-1025.94C512.17,-1018.7 502.25,-1010.91 492.71,-1003.43"/>
<polygon fill="black" stroke="black" points="494.84,-1000.65 484.81,-997.23 490.52,-1006.16 494.84,-1000.65"/>
</g>
<!-- disjoint_mask&#45;&gt;filtered_marginal_impact -->
<g id="edge57" class="edge">
<title>disjoint_mask&#45;&gt;filtered_marginal_impact</title>
<path fill="none" stroke="black" d="M506.77,-362.88C531.7,-348.18 561.61,-330.54 587.55,-315.24"/>
<polygon fill="black" stroke="black" points="589.35,-318.24 596.19,-310.15 585.8,-312.21 589.35,-318.24"/>
</g>
<!-- disjoint_mask&#45;&gt;joint_impact_plots -->
<g id="edge58" class="edge">
<title>disjoint_mask&#45;&gt;joint_impact_plots</title>
<path fill="none" stroke="black" d="M500.55,-362.81C509.06,-358.22 518.08,-354.02 527,-351 628.35,-316.68 661.61,-345.48 766,-322 778.09,-319.28 790.64,-315.87 802.95,-312.17"/>
<polygon fill="black" stroke="black" points="804.24,-315.43 812.77,-309.14 802.18,-308.74 804.24,-315.43"/>
</g>
<!-- _save_tasks_correlation_plots_inputs -->
<g id="node52" class="node">
<title>_save_tasks_correlation_plots_inputs</title>
<polygon fill="#ffffff" stroke="black" stroke-dasharray="5,2" points="2671,-522.5 2569,-522.5 2569,-477.5 2671,-477.5 2671,-522.5"/>
<text text-anchor="start" x="2584" y="-495.8" font-family="Helvetica,sans-Serif" font-size="14.00">output_dir</text>
</g>
<!-- _save_tasks_correlation_plots_inputs&#45;&gt;save_tasks_correlation_plots -->
<g id="edge60" class="edge">
<title>_save_tasks_correlation_plots_inputs&#45;&gt;save_tasks_correlation_plots</title>
<path fill="none" stroke="black" d="M2622.54,-477.16C2623.51,-468.83 2624.67,-458.93 2625.83,-448.97"/>
<polygon fill="black" stroke="black" points="2629.31,-449.37 2626.99,-439.03 2622.35,-448.56 2629.31,-449.37"/>
</g>
<!-- _save_tasks_correlation_plots_inputs&#45;&gt;save_divergence_probability_plots -->
<g id="edge61" class="edge">
<title>_save_tasks_correlation_plots_inputs&#45;&gt;save_divergence_probability_plots</title>
<path fill="none" stroke="black" d="M2577.92,-477.41C2568.92,-473.64 2559.31,-470.22 2550,-468 2301.51,-408.85 2228.15,-479.83 1976,-439 1973.62,-438.61 1971.22,-438.2 1968.8,-437.77"/>
<polygon fill="black" stroke="black" points="1969.31,-434.31 1958.83,-435.89 1968.01,-441.19 1969.31,-434.31"/>
</g>
<!-- _save_tasks_correlation_plots_inputs&#45;&gt;save_best_models_metrics_table -->
<g id="edge67" class="edge">
<title>_save_tasks_correlation_plots_inputs&#45;&gt;save_best_models_metrics_table</title>
<path fill="none" stroke="black" d="M2784,-394C2773.79,-343.92 2814.05,-320.34 2784,-279"/>
<path fill="none" stroke="black" d="M2784,-277C2771.71,-260.1 2782.13,-245.97 2765,-234 2763.79,-233.15 2108.59,-190.91 1807.34,-171.53"/>
<polygon fill="black" stroke="black" points="1807.42,-168.03 1797.22,-170.88 1806.97,-175.02 1807.42,-168.03"/>
</g>
<!-- _save_tasks_correlation_plots_inputs&#45;&gt;save_divergence_probability -->
<g id="edge62" class="edge">
<title>_save_tasks_correlation_plots_inputs&#45;&gt;save_divergence_probability</title>
<path fill="none" stroke="black" d="M2577.1,-477.4C2568.32,-473.73 2559,-470.35 2550,-468 2415.67,-432.99 2374.94,-467.12 2239,-439 2237.52,-438.69 2236.04,-438.38 2234.56,-438.05"/>
<polygon fill="black" stroke="black" points="2235.21,-434.61 2224.67,-435.76 2233.63,-441.43 2235.21,-434.61"/>
</g>
<!-- _save_tasks_correlation_plots_inputs&#45;&gt;save_task_distribution_plots -->
<g id="edge63" class="edge">
<title>_save_tasks_correlation_plots_inputs&#45;&gt;save_task_distribution_plots</title>
<path fill="none" stroke="black" d="M2571.91,-477.41C2564.59,-474.21 2557.11,-470.99 2550,-468 2528.31,-458.89 2505.05,-449.41 2482.66,-440.44"/>
<polygon fill="black" stroke="black" points="2483.71,-437.09 2473.13,-436.63 2481.11,-443.59 2483.71,-437.09"/>
</g>
<!-- _save_tasks_correlation_plots_inputs&#45;&gt;save_impact_test_df -->
<g id="edge74" class="edge">
<title>_save_tasks_correlation_plots_inputs&#45;&gt;save_impact_test_df</title>
<path fill="none" stroke="black" d="M2578.34,-477.39C2569.22,-473.57 2559.47,-470.13 2550,-468 2308.63,-413.65 1678.57,-492.49 1437,-439 1436.1,-438.8 1435.2,-438.59 1434.29,-438.38"/>
<polygon fill="black" stroke="black" points="1435.13,-434.98 1424.57,-435.79 1433.33,-441.74 1435.13,-434.98"/>
</g>
<!-- _save_tasks_correlation_plots_inputs&#45;&gt;save_filtered_marginal_impact -->
<g id="edge69" class="edge">
<title>_save_tasks_correlation_plots_inputs&#45;&gt;save_filtered_marginal_impact</title>
<path fill="none" stroke="black" d="M2784,-277C2771.71,-260.1 2781.41,-246.93 2765,-234 2708.59,-189.53 2675.79,-222.02 2606,-205 2604.92,-204.74 2603.83,-204.47 2602.75,-204.2"/>
<polygon fill="black" stroke="black" points="2603.43,-200.76 2592.87,-201.68 2601.7,-207.54 2603.43,-200.76"/>
</g>
<!-- _save_tasks_correlation_plots_inputs&#45;&gt;save_best_models -->
<g id="edge64" class="edge">
<title>_save_tasks_correlation_plots_inputs&#45;&gt;save_best_models</title>
<path fill="none" stroke="black" d="M2578.35,-477.36C2569.23,-473.54 2559.47,-470.11 2550,-468 2265.59,-404.55 1522.61,-505.94 1239,-439 1238.39,-438.86 1237.78,-438.71 1237.16,-438.55"/>
<polygon fill="black" stroke="black" points="1237.78,-435.09 1227.21,-435.73 1235.87,-441.83 1237.78,-435.09"/>
</g>
<!-- _save_tasks_correlation_plots_inputs&#45;&gt;save_best_configurations -->
<g id="edge70" class="edge">
<title>_save_tasks_correlation_plots_inputs&#45;&gt;save_best_configurations</title>
<path fill="none" stroke="black" d="M2656.55,-477.47C2662.93,-474.09 2669.58,-470.79 2676,-468 2714.15,-451.41 2734.13,-466.89 2765,-439 2780.5,-424.99 2788.17,-416.47 2784,-396"/>
<path fill="none" stroke="black" d="M2784,-394C2779.83,-373.53 2782.43,-362.52 2765,-351 2713.24,-316.8 593.05,-333.02 532,-322 530.32,-321.7 528.62,-321.37 526.93,-321.03"/>
<polygon fill="black" stroke="black" points="527.67,-317.61 517.15,-318.85 526.15,-324.44 527.67,-317.61"/>
</g>
<!-- _save_tasks_correlation_plots_inputs&#45;&gt;save_filtered_marginal_impact_plots -->
<g id="edge72" class="edge">
<title>_save_tasks_correlation_plots_inputs&#45;&gt;save_filtered_marginal_impact_plots</title>
<path fill="none" stroke="black" d="M2784,-277C2761.53,-246.09 2820.1,-241.63 2831,-205 2842.15,-167.51 2857.69,-145.59 2831,-117 2772.07,-53.87 2226.15,-44.76 1946.9,-44.28"/>
<polygon fill="black" stroke="black" points="1946.68,-40.78 1936.67,-44.26 1946.67,-47.78 1946.68,-40.78"/>
</g>
<!-- _save_tasks_correlation_plots_inputs&#45;&gt;save_duration_impact_plots -->
<g id="edge77" class="edge">
<title>_save_tasks_correlation_plots_inputs&#45;&gt;save_duration_impact_plots</title>
<path fill="none" stroke="black" d="M2784,-394C2779.83,-373.53 2781.74,-363.51 2765,-351 2724.79,-320.95 2589.93,-333.21 2541,-322 2539.91,-321.75 2538.81,-321.49 2537.71,-321.23"/>
<polygon fill="black" stroke="black" points="2538.28,-317.77 2527.73,-318.75 2536.59,-324.56 2538.28,-317.77"/>
</g>
<!-- _save_tasks_correlation_plots_inputs&#45;&gt;save_tasks_correlation -->
<g id="edge71" class="edge">
<title>_save_tasks_correlation_plots_inputs&#45;&gt;save_tasks_correlation</title>
<path fill="none" stroke="black" d="M2671.18,-482.24C2706.83,-470.45 2755.44,-454.12 2798,-439 2799.62,-438.42 2801.26,-437.84 2802.9,-437.25"/>
<polygon fill="black" stroke="black" points="2804.19,-440.51 2812.41,-433.83 2801.81,-433.92 2804.19,-440.51"/>
</g>
<!-- _save_tasks_correlation_plots_inputs&#45;&gt;save_task_impact_plots -->
<g id="edge68" class="edge">
<title>_save_tasks_correlation_plots_inputs&#45;&gt;save_task_impact_plots</title>
<path fill="none" stroke="black" d="M2784,-394C2779.83,-373.53 2778.58,-366.88 2765,-351 2757.43,-342.15 2748.5,-333.99 2739.03,-326.6"/>
<polygon fill="black" stroke="black" points="2741.08,-323.76 2730.98,-320.57 2736.89,-329.37 2741.08,-323.76"/>
</g>
<!-- _save_tasks_correlation_plots_inputs&#45;&gt;save_filtered_divergence_probability_plots -->
<g id="edge65" class="edge">
<title>_save_tasks_correlation_plots_inputs&#45;&gt;save_filtered_divergence_probability_plots</title>
<path fill="none" stroke="black" d="M2671.11,-492.71C2747.84,-482.98 2897.21,-462.87 3023,-439 3025.1,-438.6 3027.21,-438.2 3029.33,-437.78"/>
<polygon fill="black" stroke="black" points="3030.19,-441.18 3039.33,-435.81 3028.84,-434.31 3030.19,-441.18"/>
</g>
<!-- _save_tasks_correlation_plots_inputs&#45;&gt;save_impact_test_full_df -->
<g id="edge66" class="edge">
<title>_save_tasks_correlation_plots_inputs&#45;&gt;save_impact_test_full_df</title>
<path fill="none" stroke="black" d="M2578.33,-477.44C2569.21,-473.61 2559.46,-470.16 2550,-468 2358.61,-424.22 1859.59,-477.1 1667,-439 1665.71,-438.74 1664.41,-438.48 1663.11,-438.19"/>
<polygon fill="black" stroke="black" points="1663.6,-434.72 1653.07,-435.82 1661.99,-441.53 1663.6,-434.72"/>
</g>
<!-- _save_tasks_correlation_plots_inputs&#45;&gt;save_filtered_divergence_probability -->
<g id="edge75" class="edge">
<title>_save_tasks_correlation_plots_inputs&#45;&gt;save_filtered_divergence_probability</title>
<path fill="none" stroke="black" d="M2671.24,-493.4C2733.53,-486.72 2841.88,-475.51 2935,-468 3139.63,-451.5 3193.34,-471.78 3396,-439 3398.38,-438.62 3400.77,-438.21 3403.17,-437.79"/>
<polygon fill="black" stroke="black" points="3403.92,-441.21 3413.12,-435.96 3402.65,-434.33 3403.92,-441.21"/>
</g>
<!-- _save_tasks_correlation_plots_inputs&#45;&gt;save_masked_percentage -->
<g id="edge78" class="edge">
<title>_save_tasks_correlation_plots_inputs&#45;&gt;save_masked_percentage</title>
<path fill="none" stroke="black" d="M2671.21,-492.99C2733.47,-485.9 2841.79,-474.3 2935,-468 3109.83,-456.19 3550.94,-472.17 3723,-439 3724.46,-438.72 3725.93,-438.42 3727.4,-438.11"/>
<polygon fill="black" stroke="black" points="3728.19,-441.52 3737.16,-435.87 3726.63,-434.7 3728.19,-441.52"/>
</g>
<!-- _save_tasks_correlation_plots_inputs&#45;&gt;save_joint_impact -->
<g id="edge73" class="edge">
<title>_save_tasks_correlation_plots_inputs&#45;&gt;save_joint_impact</title>
<path fill="none" stroke="black" d="M2784,-394C2779.83,-373.53 2782.16,-362.93 2765,-351 2677.08,-289.88 2387.68,-348.8 2284,-322 2283.41,-321.85 2282.82,-321.69 2282.23,-321.53"/>
<polygon fill="black" stroke="black" points="2283.21,-318.17 2272.62,-318.63 2281.18,-324.87 2283.21,-318.17"/>
</g>
<!-- _save_tasks_correlation_plots_inputs&#45;&gt;save_joint_impact_plots -->
<g id="edge76" class="edge">
<title>_save_tasks_correlation_plots_inputs&#45;&gt;save_joint_impact_plots</title>
<path fill="none" stroke="black" d="M2784,-277C2771.71,-260.1 2774.97,-252.36 2765,-234 2761.35,-227.27 2757.27,-220.34 2753.08,-213.56"/>
<polygon fill="black" stroke="black" points="2756.04,-211.69 2747.75,-205.09 2750.11,-215.42 2756.04,-211.69"/>
</g>
<!-- _train_history_inputs -->
<g id="node53" class="node">
<title>_train_history_inputs</title>
<polygon fill="#ffffff" stroke="black" stroke-dasharray="5,2" points="488.5,-1164 401.5,-1164 401.5,-1119 488.5,-1119 488.5,-1164"/>
<text text-anchor="start" x="417" y="-1137.3" font-family="Helvetica,sans-Serif" font-size="14.00">data_dir</text>
</g>
<!-- _train_history_inputs&#45;&gt;train_history -->
<g id="edge79" class="edge">
<title>_train_history_inputs&#45;&gt;train_history</title>
<path fill="none" stroke="black" d="M413.16,-1118.87C402.76,-1111.82 390.91,-1103.77 379.35,-1095.91"/>
<polygon fill="black" stroke="black" points="381.24,-1092.96 371,-1090.24 377.31,-1098.76 381.24,-1092.96"/>
</g>
<!-- _train_history_inputs&#45;&gt;metrics -->
<g id="edge80" class="edge">
<title>_train_history_inputs&#45;&gt;metrics</title>
<path fill="none" stroke="black" d="M445,-1118.66C445,-1113.04 445,-1106.81 445,-1100.55"/>
<polygon fill="black" stroke="black" points="448.5,-1100.09 445,-1090.09 441.5,-1100.09 448.5,-1100.09"/>
</g>
<!-- _train_history_inputs&#45;&gt;parameters -->
<g id="edge81" class="edge">
<title>_train_history_inputs&#45;&gt;parameters</title>
<path fill="none" stroke="black" d="M475.78,-1118.87C485.73,-1111.88 497.06,-1103.92 508.14,-1096.14"/>
<polygon fill="black" stroke="black" points="510.36,-1098.85 516.53,-1090.24 506.34,-1093.13 510.36,-1098.85"/>
</g>
</g>
</svg>
