<?xml version="1.0" encoding="UTF-8" standalone="no"?>
<!DOCTYPE svg PUBLIC "-//W3C//DTD SVG 1.1//EN"
 "http://www.w3.org/Graphics/SVG/1.1/DTD/svg11.dtd">
<!-- Generated by graphviz version 2.43.0 (0)
 -->
<!-- Title: %3 Pages: 1 -->
<svg width="1197pt" height="1718pt"
 viewBox="0.00 0.00 1197.00 1717.50" xmlns="http://www.w3.org/2000/svg" xmlns:xlink="http://www.w3.org/1999/xlink">
<g id="graph0" class="graph" transform="scale(1 1) rotate(0) translate(4 1713.5)">
<title>%3</title>
<polygon fill="white" stroke="transparent" points="-4,4 -4,-1713.5 1193,-1713.5 1193,4 -4,4"/>
<g id="clust1" class="cluster">
<title>cluster__legend</title>
<polygon fill="#ffffff" stroke="black" points="38,-1622.5 38,-1701.5 422,-1701.5 422,-1622.5 38,-1622.5"/>
<text text-anchor="middle" x="230" y="-1686.3" font-family="Helvetica,sans-Serif" font-size="14.00">Legend</text>
</g>
<!-- input -->
<g id="node1" class="node">
<title>input</title>
<polygon fill="#ffffff" stroke="black" stroke-dasharray="5,2" points="413.5,-1669 354.5,-1669 354.5,-1632 413.5,-1632 413.5,-1669"/>
<text text-anchor="middle" x="384" y="-1646.8" font-family="Helvetica,sans-Serif" font-size="14.00">input</text>
</g>
<!-- function -->
<g id="node2" class="node">
<title>function</title>
<path fill="#b4d8e4" stroke="black" d="M324,-1669C324,-1669 268,-1669 268,-1669 262,-1669 256,-1663 256,-1657 256,-1657 256,-1644 256,-1644 256,-1638 262,-1632 268,-1632 268,-1632 324,-1632 324,-1632 330,-1632 336,-1638 336,-1644 336,-1644 336,-1657 336,-1657 336,-1663 330,-1669 324,-1669"/>
<text text-anchor="middle" x="296" y="-1646.8" font-family="Helvetica,sans-Serif" font-size="14.00">function</text>
</g>
<!-- output -->
<g id="node3" class="node">
<title>output</title>
<path fill="#ffc857" stroke="black" d="M226,-1669C226,-1669 182,-1669 182,-1669 176,-1669 170,-1663 170,-1657 170,-1657 170,-1644 170,-1644 170,-1638 176,-1632 182,-1632 182,-1632 226,-1632 226,-1632 232,-1632 238,-1638 238,-1644 238,-1644 238,-1657 238,-1657 238,-1663 232,-1669 226,-1669"/>
<text text-anchor="middle" x="204" y="-1646.8" font-family="Helvetica,sans-Serif" font-size="14.00">output</text>
</g>
<!-- materializer -->
<g id="node4" class="node">
<title>materializer</title>
<path fill="#ffffff" stroke="black" d="M151.5,-1666.86C151.5,-1668.87 127.97,-1670.5 99,-1670.5 70.03,-1670.5 46.5,-1668.87 46.5,-1666.86 46.5,-1666.86 46.5,-1634.14 46.5,-1634.14 46.5,-1632.13 70.03,-1630.5 99,-1630.5 127.97,-1630.5 151.5,-1632.13 151.5,-1634.14 151.5,-1634.14 151.5,-1666.86 151.5,-1666.86"/>
<path fill="none" stroke="black" d="M151.5,-1666.86C151.5,-1664.86 127.97,-1663.23 99,-1663.23 70.03,-1663.23 46.5,-1664.86 46.5,-1666.86"/>
<text text-anchor="middle" x="99" y="-1646.8" font-family="Helvetica,sans-Serif" font-size="14.00">materializer</text>
</g>
<!-- h_ensure_random_seed -->
<g id="node5" class="node">
<title>h_ensure_random_seed</title>
<path fill="#b4d8e4" stroke="black" d="M1177,-1514C1177,-1514 997,-1514 997,-1514 991,-1514 985,-1508 985,-1502 985,-1502 985,-1462 985,-1462 985,-1456 991,-1450 997,-1450 997,-1450 1177,-1450 1177,-1450 1183,-1450 1189,-1456 1189,-1462 1189,-1462 1189,-1502 1189,-1502 1189,-1508 1183,-1514 1177,-1514"/>
<text text-anchor="start" x="996" y="-1492.8" font-family="Helvetica,sans-Serif" font-weight="bold" font-size="14.00">h_ensure_random_seed</text>
<text text-anchor="start" x="1053" y="-1464.8" font-family="Helvetica,sans-Serif" font-style="italic" font-size="14.00">NoneType</text>
</g>
<!-- toy1d_model_untrained -->
<g id="node6" class="node">
<title>toy1d_model_untrained</title>
<path fill="#b4d8e4" stroke="black" d="M945,-1336C945,-1336 763,-1336 763,-1336 757,-1336 751,-1330 751,-1324 751,-1324 751,-1284 751,-1284 751,-1278 757,-1272 763,-1272 763,-1272 945,-1272 945,-1272 951,-1272 957,-1278 957,-1284 957,-1284 957,-1324 957,-1324 957,-1330 951,-1336 945,-1336"/>
<text text-anchor="start" x="762" y="-1314.8" font-family="Helvetica,sans-Serif" font-weight="bold" font-size="14.00">toy1d_model_untrained</text>
<text text-anchor="start" x="805" y="-1286.8" font-family="Helvetica,sans-Serif" font-style="italic" font-size="14.00">WorldMachine</text>
</g>
<!-- h_ensure_random_seed&#45;&gt;toy1d_model_untrained -->
<g id="edge1" class="edge">
<title>h_ensure_random_seed&#45;&gt;toy1d_model_untrained</title>
<path fill="none" stroke="black" d="M1062.38,-1449.75C1041.39,-1424.58 1009.39,-1389.46 976,-1365 963.89,-1356.13 950.28,-1347.97 936.65,-1340.71"/>
<polygon fill="black" stroke="black" points="938.19,-1337.56 927.7,-1336.07 934.97,-1343.78 938.19,-1337.56"/>
</g>
<!-- toy1d_model_training_info -->
<g id="node7" class="node">
<title>toy1d_model_training_info</title>
<path fill="#b4d8e4" stroke="black" d="M697.5,-391C697.5,-391 494.5,-391 494.5,-391 488.5,-391 482.5,-385 482.5,-379 482.5,-379 482.5,-339 482.5,-339 482.5,-333 488.5,-327 494.5,-327 494.5,-327 697.5,-327 697.5,-327 703.5,-327 709.5,-333 709.5,-339 709.5,-339 709.5,-379 709.5,-379 709.5,-385 703.5,-391 697.5,-391"/>
<text text-anchor="start" x="493.5" y="-369.8" font-family="Helvetica,sans-Serif" font-weight="bold" font-size="14.00">toy1d_model_training_info</text>
<text text-anchor="start" x="583" y="-341.8" font-family="Helvetica,sans-Serif" font-style="italic" font-size="14.00">dict</text>
</g>
<!-- toy1d_model_untrained&#45;&gt;toy1d_model_training_info -->
<g id="edge10" class="edge">
<title>toy1d_model_untrained&#45;&gt;toy1d_model_training_info</title>
<path fill="none" stroke="black" d="M839.7,-1271.88C817.26,-1222.09 773.49,-1121.04 746,-1032 673.66,-797.66 620.93,-507.31 602.84,-401.25"/>
<polygon fill="black" stroke="black" points="606.27,-400.55 601.15,-391.27 599.37,-401.72 606.27,-400.55"/>
</g>
<!-- toy1d_model_trained -->
<g id="node8" class="node">
<title>toy1d_model_trained</title>
<path fill="#b4d8e4" stroke="black" d="M578,-298C578,-298 416,-298 416,-298 410,-298 404,-292 404,-286 404,-286 404,-246 404,-246 404,-240 410,-234 416,-234 416,-234 578,-234 578,-234 584,-234 590,-240 590,-246 590,-246 590,-286 590,-286 590,-292 584,-298 578,-298"/>
<text text-anchor="start" x="415" y="-276.8" font-family="Helvetica,sans-Serif" font-weight="bold" font-size="14.00">toy1d_model_trained</text>
<text text-anchor="start" x="448" y="-248.8" font-family="Helvetica,sans-Serif" font-style="italic" font-size="14.00">WorldMachine</text>
</g>
<!-- toy1d_model_training_info&#45;&gt;toy1d_model_trained -->
<g id="edge2" class="edge">
<title>toy1d_model_training_info&#45;&gt;toy1d_model_trained</title>
<path fill="none" stroke="black" d="M562.21,-326.94C554.64,-319.99 546.54,-312.53 538.7,-305.33"/>
<polygon fill="black" stroke="black" points="540.71,-302.42 530.98,-298.23 535.97,-307.58 540.71,-302.42"/>
</g>
<!-- toy1d_train_history -->
<g id="node9" class="node">
<title>toy1d_train_history</title>
<path fill="#ffc857" stroke="black" d="M889.5,-298C889.5,-298 740.5,-298 740.5,-298 734.5,-298 728.5,-292 728.5,-286 728.5,-286 728.5,-246 728.5,-246 728.5,-240 734.5,-234 740.5,-234 740.5,-234 889.5,-234 889.5,-234 895.5,-234 901.5,-240 901.5,-246 901.5,-246 901.5,-286 901.5,-286 901.5,-292 895.5,-298 889.5,-298"/>
<text text-anchor="start" x="739.5" y="-276.8" font-family="Helvetica,sans-Serif" font-weight="bold" font-size="14.00">toy1d_train_history</text>
<text text-anchor="start" x="802" y="-248.8" font-family="Helvetica,sans-Serif" font-style="italic" font-size="14.00">dict</text>
</g>
<!-- toy1d_model_training_info&#45;&gt;toy1d_train_history -->
<g id="edge3" class="edge">
<title>toy1d_model_training_info&#45;&gt;toy1d_train_history</title>
<path fill="none" stroke="black" d="M670.75,-326.94C690.12,-318.89 711.09,-310.18 730.9,-301.95"/>
<polygon fill="black" stroke="black" points="732.32,-305.15 740.21,-298.08 729.63,-298.68 732.32,-305.15"/>
</g>
<!-- toy1d_metrics -->
<g id="node12" class="node">
<title>toy1d_metrics</title>
<path fill="#b4d8e4" stroke="black" d="M434.5,-193C434.5,-193 325.5,-193 325.5,-193 319.5,-193 313.5,-187 313.5,-181 313.5,-181 313.5,-141 313.5,-141 313.5,-135 319.5,-129 325.5,-129 325.5,-129 434.5,-129 434.5,-129 440.5,-129 446.5,-135 446.5,-141 446.5,-141 446.5,-181 446.5,-181 446.5,-187 440.5,-193 434.5,-193"/>
<text text-anchor="start" x="324.5" y="-171.8" font-family="Helvetica,sans-Serif" font-weight="bold" font-size="14.00">toy1d_metrics</text>
<text text-anchor="start" x="367" y="-143.8" font-family="Helvetica,sans-Serif" font-style="italic" font-size="14.00">dict</text>
</g>
<!-- toy1d_model_trained&#45;&gt;toy1d_metrics -->
<g id="edge8" class="edge">
<title>toy1d_model_trained&#45;&gt;toy1d_metrics</title>
<path fill="none" stroke="black" d="M461.58,-233.82C449.44,-223.13 435.71,-211.05 423.04,-199.89"/>
<polygon fill="black" stroke="black" points="425.12,-197.06 415.3,-193.08 420.49,-202.31 425.12,-197.06"/>
</g>
<!-- save_toy1d_model -->
<g id="node16" class="node">
<title>save_toy1d_model</title>
<path fill="#ffc857" stroke="black" d="M631,-197C631,-201.41 593.8,-205 548,-205 502.2,-205 465,-201.41 465,-197 465,-197 465,-125 465,-125 465,-120.59 502.2,-117 548,-117 593.8,-117 631,-120.59 631,-125 631,-125 631,-197 631,-197"/>
<path fill="none" stroke="black" d="M631,-197C631,-192.59 593.8,-189 548,-189 502.2,-189 465,-192.59 465,-197"/>
<text text-anchor="start" x="476" y="-171.8" font-family="Helvetica,sans-Serif" font-weight="bold" font-size="14.00">save_toy1d_model</text>
<text text-anchor="start" x="478.5" y="-143.8" font-family="Helvetica,sans-Serif" font-style="italic" font-size="14.00">save_toy1d_model()</text>
</g>
<!-- toy1d_model_trained&#45;&gt;save_toy1d_model -->
<g id="edge9" class="edge">
<title>toy1d_model_trained&#45;&gt;save_toy1d_model</title>
<path fill="none" stroke="black" d="M512.44,-233.82C515.5,-227.63 518.8,-220.98 522.1,-214.3"/>
<polygon fill="black" stroke="black" points="525.29,-215.75 526.59,-205.24 519.02,-212.65 525.29,-215.75"/>
</g>
<!-- save_toy1d_train_history -->
<g id="node10" class="node">
<title>save_toy1d_train_history</title>
<path fill="#ffc857" stroke="black" d="M913.5,-197C913.5,-201.41 864.87,-205 805,-205 745.13,-205 696.5,-201.41 696.5,-197 696.5,-197 696.5,-125 696.5,-125 696.5,-120.59 745.13,-117 805,-117 864.87,-117 913.5,-120.59 913.5,-125 913.5,-125 913.5,-197 913.5,-197"/>
<path fill="none" stroke="black" d="M913.5,-197C913.5,-192.59 864.87,-189 805,-189 745.13,-189 696.5,-192.59 696.5,-197"/>
<text text-anchor="start" x="707.5" y="-171.8" font-family="Helvetica,sans-Serif" font-weight="bold" font-size="14.00">save_toy1d_train_history</text>
<text text-anchor="start" x="713" y="-143.8" font-family="Helvetica,sans-Serif" font-style="italic" font-size="14.00">save_toy1d_train_history()</text>
</g>
<!-- toy1d_train_history&#45;&gt;save_toy1d_train_history -->
<g id="edge17" class="edge">
<title>toy1d_train_history&#45;&gt;save_toy1d_train_history</title>
<path fill="none" stroke="black" d="M811.97,-233.82C811.4,-227.91 810.78,-221.58 810.17,-215.21"/>
<polygon fill="black" stroke="black" points="813.65,-214.85 809.2,-205.24 806.68,-215.53 813.65,-214.85"/>
</g>
<!-- toy1d_dataloaders -->
<g id="node11" class="node">
<title>toy1d_dataloaders</title>
<path fill="#b4d8e4" stroke="black" d="M448.5,-758C448.5,-758 303.5,-758 303.5,-758 297.5,-758 291.5,-752 291.5,-746 291.5,-746 291.5,-706 291.5,-706 291.5,-700 297.5,-694 303.5,-694 303.5,-694 448.5,-694 448.5,-694 454.5,-694 460.5,-700 460.5,-706 460.5,-706 460.5,-746 460.5,-746 460.5,-752 454.5,-758 448.5,-758"/>
<text text-anchor="start" x="302.5" y="-736.8" font-family="Helvetica,sans-Serif" font-weight="bold" font-size="14.00">toy1d_dataloaders</text>
<text text-anchor="start" x="363" y="-708.8" font-family="Helvetica,sans-Serif" font-style="italic" font-size="14.00">dict</text>
</g>
<!-- toy1d_dataloaders&#45;&gt;toy1d_model_training_info -->
<g id="edge4" class="edge">
<title>toy1d_dataloaders&#45;&gt;toy1d_model_training_info</title>
<path fill="none" stroke="black" d="M394.76,-693.88C434.62,-627.75 527.71,-473.3 571.9,-399.99"/>
<polygon fill="black" stroke="black" points="575.13,-401.41 577.29,-391.04 569.13,-397.8 575.13,-401.41"/>
</g>
<!-- toy1d_dataloaders&#45;&gt;toy1d_metrics -->
<g id="edge5" class="edge">
<title>toy1d_dataloaders&#45;&gt;toy1d_metrics</title>
<path fill="none" stroke="black" d="M373.35,-693.59C368.6,-630.2 360.47,-482.59 376,-360"/>
</g>
<!-- save_toy1d_metrics -->
<g id="node19" class="node">
<title>save_toy1d_metrics</title>
<path fill="#ffc857" stroke="black" d="M607,-80C607,-84.41 567.56,-88 519,-88 470.44,-88 431,-84.41 431,-80 431,-80 431,-8 431,-8 431,-3.59 470.44,0 519,0 567.56,0 607,-3.59 607,-8 607,-8 607,-80 607,-80"/>
<path fill="none" stroke="black" d="M607,-80C607,-75.59 567.56,-72 519,-72 470.44,-72 431,-75.59 431,-80"/>
<text text-anchor="start" x="442" y="-54.8" font-family="Helvetica,sans-Serif" font-weight="bold" font-size="14.00">save_toy1d_metrics</text>
<text text-anchor="start" x="445" y="-26.8" font-family="Helvetica,sans-Serif" font-style="italic" font-size="14.00">save_toy1d_metrics()</text>
</g>
<!-- toy1d_metrics&#45;&gt;save_toy1d_metrics -->
<g id="edge14" class="edge">
<title>toy1d_metrics&#45;&gt;save_toy1d_metrics</title>
<path fill="none" stroke="black" d="M417.62,-128.88C430.5,-118.22 445.26,-106.01 459.45,-94.26"/>
<polygon fill="black" stroke="black" points="461.79,-96.87 467.26,-87.8 457.33,-91.48 461.79,-96.87"/>
</g>
<!-- toy1d_data -->
<g id="node13" class="node">
<title>toy1d_data</title>
<path fill="#b4d8e4" stroke="black" d="M653,-1336C653,-1336 567,-1336 567,-1336 561,-1336 555,-1330 555,-1324 555,-1324 555,-1284 555,-1284 555,-1278 561,-1272 567,-1272 567,-1272 653,-1272 653,-1272 659,-1272 665,-1278 665,-1284 665,-1284 665,-1324 665,-1324 665,-1330 659,-1336 653,-1336"/>
<text text-anchor="start" x="566" y="-1314.8" font-family="Helvetica,sans-Serif" font-weight="bold" font-size="14.00">toy1d_data</text>
<text text-anchor="start" x="597" y="-1286.8" font-family="Helvetica,sans-Serif" font-style="italic" font-size="14.00">dict</text>
</g>
<!-- toy1d_data_splitted -->
<g id="node14" class="node">
<title>toy1d_data_splitted</title>
<path fill="#b4d8e4" stroke="black" d="M686.5,-1242C686.5,-1242 533.5,-1242 533.5,-1242 527.5,-1242 521.5,-1236 521.5,-1230 521.5,-1230 521.5,-1190 521.5,-1190 521.5,-1184 527.5,-1178 533.5,-1178 533.5,-1178 686.5,-1178 686.5,-1178 692.5,-1178 698.5,-1184 698.5,-1190 698.5,-1190 698.5,-1230 698.5,-1230 698.5,-1236 692.5,-1242 686.5,-1242"/>
<text text-anchor="start" x="532.5" y="-1220.8" font-family="Helvetica,sans-Serif" font-weight="bold" font-size="14.00">toy1d_data_splitted</text>
<text text-anchor="start" x="597" y="-1192.8" font-family="Helvetica,sans-Serif" font-style="italic" font-size="14.00">dict</text>
</g>
<!-- toy1d_data&#45;&gt;toy1d_data_splitted -->
<g id="edge6" class="edge">
<title>toy1d_data&#45;&gt;toy1d_data_splitted</title>
<path fill="none" stroke="black" d="M610,-1271.85C610,-1265.56 610,-1258.85 610,-1252.27"/>
<polygon fill="black" stroke="black" points="613.5,-1252.11 610,-1242.11 606.5,-1252.11 613.5,-1252.11"/>
</g>
<!-- toy1d_datasets -->
<g id="node15" class="node">
<title>toy1d_datasets</title>
<path fill="#ffc857" stroke="black" d="M487.5,-1136.5C487.5,-1136.5 368.5,-1136.5 368.5,-1136.5 362.5,-1136.5 356.5,-1130.5 356.5,-1124.5 356.5,-1124.5 356.5,-1084.5 356.5,-1084.5 356.5,-1078.5 362.5,-1072.5 368.5,-1072.5 368.5,-1072.5 487.5,-1072.5 487.5,-1072.5 493.5,-1072.5 499.5,-1078.5 499.5,-1084.5 499.5,-1084.5 499.5,-1124.5 499.5,-1124.5 499.5,-1130.5 493.5,-1136.5 487.5,-1136.5"/>
<text text-anchor="start" x="367.5" y="-1115.3" font-family="Helvetica,sans-Serif" font-weight="bold" font-size="14.00">toy1d_datasets</text>
<text text-anchor="start" x="415" y="-1087.3" font-family="Helvetica,sans-Serif" font-style="italic" font-size="14.00">dict</text>
</g>
<!-- toy1d_data_splitted&#45;&gt;toy1d_datasets -->
<g id="edge7" class="edge">
<title>toy1d_data_splitted&#45;&gt;toy1d_datasets</title>
<path fill="none" stroke="black" d="M555.39,-1177.95C535.24,-1166.48 512.23,-1153.4 491.36,-1141.53"/>
<polygon fill="black" stroke="black" points="492.99,-1138.43 482.57,-1136.53 489.53,-1144.52 492.99,-1138.43"/>
</g>
<!-- toy1d_datasets&#45;&gt;toy1d_dataloaders -->
<g id="edge11" class="edge">
<title>toy1d_datasets&#45;&gt;toy1d_dataloaders</title>
<path fill="none" stroke="black" d="M423.7,-1072.37C414.36,-1004.73 392.2,-844.32 381.71,-768.31"/>
<polygon fill="black" stroke="black" points="385.14,-767.59 380.3,-758.17 378.21,-768.55 385.14,-767.59"/>
</g>
<!-- generator_numpy -->
<g id="node17" class="node">
<title>generator_numpy</title>
<path fill="#b4d8e4" stroke="black" d="M532.5,-1514C532.5,-1514 395.5,-1514 395.5,-1514 389.5,-1514 383.5,-1508 383.5,-1502 383.5,-1502 383.5,-1462 383.5,-1462 383.5,-1456 389.5,-1450 395.5,-1450 395.5,-1450 532.5,-1450 532.5,-1450 538.5,-1450 544.5,-1456 544.5,-1462 544.5,-1462 544.5,-1502 544.5,-1502 544.5,-1508 538.5,-1514 532.5,-1514"/>
<text text-anchor="start" x="394.5" y="-1492.8" font-family="Helvetica,sans-Serif" font-weight="bold" font-size="14.00">generator_numpy</text>
<text text-anchor="start" x="429" y="-1464.8" font-family="Helvetica,sans-Serif" font-style="italic" font-size="14.00">Generator</text>
</g>
<!-- generator_numpy&#45;&gt;toy1d_data -->
<g id="edge12" class="edge">
<title>generator_numpy&#45;&gt;toy1d_data</title>
<path fill="none" stroke="black" d="M486.94,-1449.87C504.7,-1426.16 530.2,-1392.95 554,-1365 559.97,-1357.99 566.49,-1350.69 572.91,-1343.71"/>
<polygon fill="black" stroke="black" points="575.57,-1345.98 579.81,-1336.27 570.44,-1341.23 575.57,-1345.98"/>
</g>
<!-- generator_torch -->
<g id="node18" class="node">
<title>generator_torch</title>
<path fill="#b4d8e4" stroke="black" d="M353.5,-1514C353.5,-1514 228.5,-1514 228.5,-1514 222.5,-1514 216.5,-1508 216.5,-1502 216.5,-1502 216.5,-1462 216.5,-1462 216.5,-1456 222.5,-1450 228.5,-1450 228.5,-1450 353.5,-1450 353.5,-1450 359.5,-1450 365.5,-1456 365.5,-1462 365.5,-1462 365.5,-1502 365.5,-1502 365.5,-1508 359.5,-1514 353.5,-1514"/>
<text text-anchor="start" x="227.5" y="-1492.8" font-family="Helvetica,sans-Serif" font-weight="bold" font-size="14.00">generator_torch</text>
<text text-anchor="start" x="256" y="-1464.8" font-family="Helvetica,sans-Serif" font-style="italic" font-size="14.00">Generator</text>
</g>
<!-- generator_torch&#45;&gt;toy1d_dataloaders -->
<g id="edge13" class="edge">
<title>generator_torch&#45;&gt;toy1d_dataloaders</title>
<path fill="none" stroke="black" d="M294.54,-1449.56C308.02,-1330.03 356.08,-903.74 371.32,-768.49"/>
<polygon fill="black" stroke="black" points="374.85,-768.48 372.49,-758.16 367.89,-767.7 374.85,-768.48"/>
</g>
<!-- toy1d_criterion_set -->
<g id="node20" class="node">
<title>toy1d_criterion_set</title>
<path fill="#b4d8e4" stroke="black" d="M261.5,-758C261.5,-758 112.5,-758 112.5,-758 106.5,-758 100.5,-752 100.5,-746 100.5,-746 100.5,-706 100.5,-706 100.5,-700 106.5,-694 112.5,-694 112.5,-694 261.5,-694 261.5,-694 267.5,-694 273.5,-700 273.5,-706 273.5,-706 273.5,-746 273.5,-746 273.5,-752 267.5,-758 261.5,-758"/>
<text text-anchor="start" x="111.5" y="-736.8" font-family="Helvetica,sans-Serif" font-weight="bold" font-size="14.00">toy1d_criterion_set</text>
<text text-anchor="start" x="145.5" y="-708.8" font-family="Helvetica,sans-Serif" font-style="italic" font-size="14.00">CriterionSet</text>
</g>
<!-- toy1d_criterion_set&#45;&gt;toy1d_model_training_info -->
<g id="edge15" class="edge">
<title>toy1d_criterion_set&#45;&gt;toy1d_model_training_info</title>
<path fill="none" stroke="black" d="M186.87,-693.57C188.43,-631.29 201.33,-492.03 282,-420 296.62,-406.95 390.65,-390.04 472.03,-377.5"/>
<polygon fill="black" stroke="black" points="473.04,-380.89 482.4,-375.92 471.99,-373.97 473.04,-380.89"/>
</g>
<!-- toy1d_criterion_set&#45;&gt;toy1d_metrics -->
<g id="edge16" class="edge">
<title>toy1d_criterion_set&#45;&gt;toy1d_metrics</title>
<path fill="none" stroke="black" d="M189.67,-693.67C196.13,-634.55 217.19,-504.84 282,-420 312.09,-380.61 369.77,-409.17 376,-360"/>
<path fill="none" stroke="black" d="M376,-358C382.73,-304.84 382.7,-242.94 381.67,-203.15"/>
<polygon fill="black" stroke="black" points="385.17,-202.93 381.38,-193.04 378.17,-203.14 385.17,-202.93"/>
</g>
<!-- _h_ensure_random_seed_inputs -->
<g id="node21" class="node">
<title>_h_ensure_random_seed_inputs</title>
<polygon fill="#ffffff" stroke="black" stroke-dasharray="5,2" points="496,-1673 432,-1673 432,-1628 496,-1628 496,-1673"/>
<text text-anchor="start" x="447" y="-1646.3" font-family="Helvetica,sans-Serif" font-size="14.00">seed</text>
</g>
<!-- _h_ensure_random_seed_inputs&#45;&gt;h_ensure_random_seed -->
<g id="edge18" class="edge">
<title>_h_ensure_random_seed_inputs&#45;&gt;h_ensure_random_seed</title>
<path fill="none" stroke="black" d="M496.28,-1649.21C594.91,-1647.89 890.76,-1640.48 976,-1599 1011.06,-1581.94 1040.94,-1548.9 1060.84,-1522.43"/>
<polygon fill="black" stroke="black" points="1063.86,-1524.23 1066.94,-1514.09 1058.21,-1520.09 1063.86,-1524.23"/>
</g>
<!-- _h_ensure_random_seed_inputs&#45;&gt;generator_numpy -->
<g id="edge19" class="edge">
<title>_h_ensure_random_seed_inputs&#45;&gt;generator_numpy</title>
<path fill="none" stroke="black" d="M464,-1627.73C464,-1601.56 464,-1557.08 464,-1524.32"/>
<polygon fill="black" stroke="black" points="467.5,-1524.14 464,-1514.14 460.5,-1524.14 467.5,-1524.14"/>
</g>
<!-- _h_ensure_random_seed_inputs&#45;&gt;generator_torch -->
<g id="edge20" class="edge">
<title>_h_ensure_random_seed_inputs&#45;&gt;generator_torch</title>
<path fill="none" stroke="black" d="M434.91,-1627.99C431.95,-1626.06 428.95,-1624.19 426,-1622.5 404,-1609.87 393.61,-1615.09 374,-1599 348.42,-1578.02 326.94,-1547.34 312.24,-1522.81"/>
<polygon fill="black" stroke="black" points="315.2,-1520.94 307.14,-1514.08 309.16,-1524.48 315.2,-1520.94"/>
</g>
<!-- _toy1d_model_training_info_inputs -->
<g id="node22" class="node">
<title>_toy1d_model_training_info_inputs</title>
<polygon fill="#ffffff" stroke="black" stroke-dasharray="5,2" points="957.5,-1032 754.5,-1032 754.5,-420 957.5,-420 957.5,-1032"/>
<text text-anchor="start" x="805.5" y="-1005.8" font-family="Helvetica,sans-Serif" font-size="14.00">recall_n_future</text>
<text text-anchor="start" x="818" y="-984.8" font-family="Helvetica,sans-Serif" font-size="14.00">n_segment</text>
<text text-anchor="start" x="806.5" y="-963.8" font-family="Helvetica,sans-Serif" font-size="14.00">discover_state</text>
<text text-anchor="start" x="791.5" y="-942.8" font-family="Helvetica,sans-Serif" font-size="14.00">measurement_size</text>
<text text-anchor="start" x="811" y="-921.8" font-family="Helvetica,sans-Serif" font-size="14.00">learning_rate</text>
<text text-anchor="start" x="786.5" y="-900.8" font-family="Helvetica,sans-Serif" font-size="14.00">stable_state_epochs</text>
<text text-anchor="start" x="789.5" y="-879.8" font-family="Helvetica,sans-Serif" font-size="14.00">state_save_method</text>
<text text-anchor="start" x="796" y="-858.8" font-family="Helvetica,sans-Serif" font-size="14.00">state_dimensions</text>
<text text-anchor="start" x="788.5" y="-837.8" font-family="Helvetica,sans-Serif" font-size="14.00">check_input_masks</text>
<text text-anchor="start" x="812.5" y="-816.8" font-family="Helvetica,sans-Serif" font-size="14.00">local_chance</text>
<text text-anchor="start" x="788" y="-795.8" font-family="Helvetica,sans-Serif" font-size="14.00">mask_sensory_data</text>
<text text-anchor="start" x="770" y="-774.8" font-family="Helvetica,sans-Serif" font-size="14.00">cosine_annealing_T_mult</text>
<text text-anchor="start" x="809" y="-753.8" font-family="Helvetica,sans-Serif" font-size="14.00">weight_decay</text>
<text text-anchor="start" x="813" y="-732.8" font-family="Helvetica,sans-Serif" font-size="14.00">fast_forward</text>
<text text-anchor="start" x="796" y="-711.8" font-family="Helvetica,sans-Serif" font-size="14.00">recall_stride_past</text>
<text text-anchor="start" x="787.5" y="-690.8" font-family="Helvetica,sans-Serif" font-size="14.00">accumulation_steps</text>
<text text-anchor="start" x="827.5" y="-669.8" font-family="Helvetica,sans-Serif" font-size="14.00">n_epoch</text>
<text text-anchor="start" x="797.5" y="-648.8" font-family="Helvetica,sans-Serif" font-size="14.00">short_time_recall</text>
<text text-anchor="start" x="839.5" y="-627.8" font-family="Helvetica,sans-Serif" font-size="14.00">seed</text>
<text text-anchor="start" x="833.5" y="-606.8" font-family="Helvetica,sans-Serif" font-size="14.00">device</text>
<text text-anchor="start" x="803" y="-585.8" font-family="Helvetica,sans-Serif" font-size="14.00">optimizer_class</text>
<text text-anchor="start" x="790" y="-564.8" font-family="Helvetica,sans-Serif" font-size="14.00">recall_stride_future</text>
<text text-anchor="start" x="813" y="-543.8" font-family="Helvetica,sans-Serif" font-size="14.00">noise_config</text>
<text text-anchor="start" x="796.5" y="-522.8" font-family="Helvetica,sans-Serif" font-size="14.00">cosine_annealing</text>
<text text-anchor="start" x="811.5" y="-501.8" font-family="Helvetica,sans-Serif" font-size="14.00">recall_n_past</text>
<text text-anchor="start" x="782.5" y="-480.8" font-family="Helvetica,sans-Serif" font-size="14.00">state_cov_regularizer</text>
<text text-anchor="start" x="784.5" y="-459.8" font-family="Helvetica,sans-Serif" font-size="14.00">cosine_annealing_T0</text>
<text text-anchor="start" x="798" y="-438.8" font-family="Helvetica,sans-Serif" font-size="14.00">state_regularizer</text>
</g>
<!-- _toy1d_model_training_info_inputs&#45;&gt;toy1d_model_training_info -->
<g id="edge21" class="edge">
<title>_toy1d_model_training_info_inputs&#45;&gt;toy1d_model_training_info</title>
<path fill="none" stroke="black" d="M754.45,-436.24C749.84,-430.61 745.03,-425.19 740,-420 730.99,-410.7 720.32,-402.78 708.93,-396.05"/>
<polygon fill="black" stroke="black" points="710.53,-392.94 700.09,-391.14 707.13,-399.06 710.53,-392.94"/>
</g>
<!-- _save_toy1d_train_history_inputs -->
<g id="node23" class="node">
<title>_save_toy1d_train_history_inputs</title>
<polygon fill="#ffffff" stroke="black" stroke-dasharray="5,2" points="710,-288.5 608,-288.5 608,-243.5 710,-243.5 710,-288.5"/>
<text text-anchor="start" x="623" y="-261.8" font-family="Helvetica,sans-Serif" font-size="14.00">output_dir</text>
</g>
<!-- _save_toy1d_train_history_inputs&#45;&gt;save_toy1d_train_history -->
<g id="edge22" class="edge">
<title>_save_toy1d_train_history_inputs&#45;&gt;save_toy1d_train_history</title>
<path fill="none" stroke="black" d="M689.61,-243.41C703.06,-233.91 719.46,-222.34 735.63,-210.94"/>
<polygon fill="black" stroke="black" points="737.88,-213.63 744.04,-205.01 733.85,-207.91 737.88,-213.63"/>
</g>
<!-- _save_toy1d_train_history_inputs&#45;&gt;save_toy1d_model -->
<g id="edge23" class="edge">
<title>_save_toy1d_train_history_inputs&#45;&gt;save_toy1d_model</title>
<path fill="none" stroke="black" d="M635.73,-243.41C625.83,-234.22 613.84,-223.1 601.95,-212.06"/>
<polygon fill="black" stroke="black" points="604.28,-209.45 594.57,-205.22 599.52,-214.58 604.28,-209.45"/>
</g>
<!-- _save_toy1d_train_history_inputs&#45;&gt;save_toy1d_metrics -->
<g id="edge24" class="edge">
<title>_save_toy1d_train_history_inputs&#45;&gt;save_toy1d_metrics</title>
<path fill="none" stroke="black" d="M661.78,-243.41C664.6,-212.68 665.45,-155.77 640,-117 633.4,-106.94 624.86,-98.09 615.38,-90.35"/>
<polygon fill="black" stroke="black" points="617.28,-87.4 607.21,-84.11 613.03,-92.96 617.28,-87.4"/>
</g>
<!-- _toy1d_dataloaders_inputs -->
<g id="node24" class="node">
<title>_toy1d_dataloaders_inputs</title>
<polygon fill="#ffffff" stroke="black" stroke-dasharray="5,2" points="295.5,-1127 192.5,-1127 192.5,-1082 295.5,-1082 295.5,-1127"/>
<text text-anchor="start" x="208" y="-1100.3" font-family="Helvetica,sans-Serif" font-size="14.00">batch_size</text>
</g>
<!-- _toy1d_dataloaders_inputs&#45;&gt;toy1d_dataloaders -->
<g id="edge25" class="edge">
<title>_toy1d_dataloaders_inputs&#45;&gt;toy1d_dataloaders</title>
<path fill="none" stroke="black" d="M256.92,-1081.8C264.85,-1067.89 274.83,-1049.27 282,-1032 320.08,-940.34 350.89,-827.61 365.97,-768.19"/>
<polygon fill="black" stroke="black" points="369.38,-768.97 368.42,-758.42 362.59,-767.27 369.38,-768.97"/>
</g>
<!-- _toy1d_data_inputs -->
<g id="node25" class="node">
<title>_toy1d_data_inputs</title>
<polygon fill="#ffffff" stroke="black" stroke-dasharray="5,2" points="723,-1536 563,-1536 563,-1428 723,-1428 723,-1536"/>
<text text-anchor="start" x="601.5" y="-1509.8" font-family="Helvetica,sans-Serif" font-size="14.00">n_sequence</text>
<text text-anchor="start" x="578" y="-1488.8" font-family="Helvetica,sans-Serif" font-size="14.00">measurement_size</text>
<text text-anchor="start" x="598.5" y="-1467.8" font-family="Helvetica,sans-Serif" font-size="14.00">state_control</text>
<text text-anchor="start" x="584" y="-1446.8" font-family="Helvetica,sans-Serif" font-size="14.00">sequence_length</text>
</g>
<!-- _toy1d_data_inputs&#45;&gt;toy1d_data -->
<g id="edge26" class="edge">
<title>_toy1d_data_inputs&#45;&gt;toy1d_data</title>
<path fill="none" stroke="black" d="M633.01,-1427.72C628.1,-1401.51 622.27,-1370.42 617.7,-1346.08"/>
<polygon fill="black" stroke="black" points="621.12,-1345.29 615.83,-1336.1 614.23,-1346.58 621.12,-1345.29"/>
</g>
<!-- _toy1d_model_untrained_inputs -->
<g id="node26" class="node">
<title>_toy1d_model_untrained_inputs</title>
<polygon fill="#ffffff" stroke="black" stroke-dasharray="5,2" points="967,-1599 741,-1599 741,-1365 967,-1365 967,-1599"/>
<text text-anchor="start" x="770" y="-1572.8" font-family="Helvetica,sans-Serif" font-size="14.00">positional_encoder_type</text>
<text text-anchor="start" x="794" y="-1551.8" font-family="Helvetica,sans-Serif" font-size="14.00">n_attention_head</text>
<text text-anchor="start" x="819.5" y="-1530.8" font-family="Helvetica,sans-Serif" font-size="14.00">state_size</text>
<text text-anchor="start" x="789" y="-1509.8" font-family="Helvetica,sans-Serif" font-size="14.00">measurement_size</text>
<text text-anchor="start" x="793.5" y="-1488.8" font-family="Helvetica,sans-Serif" font-size="14.00">state_dimensions</text>
<text text-anchor="start" x="786" y="-1467.8" font-family="Helvetica,sans-Serif" font-size="14.00">block_configuration</text>
<text text-anchor="start" x="805.5" y="-1446.8" font-family="Helvetica,sans-Serif" font-size="14.00">state_drouput</text>
<text text-anchor="start" x="799.5" y="-1425.8" font-family="Helvetica,sans-Serif" font-size="14.00">state_activation</text>
<text text-anchor="start" x="756" y="-1404.8" font-family="Helvetica,sans-Serif" font-size="14.00">remove_positional_encoding</text>
<text text-anchor="start" x="783.5" y="-1383.8" font-family="Helvetica,sans-Serif" font-size="14.00">learn_sensory_mask</text>
</g>
<!-- _toy1d_model_untrained_inputs&#45;&gt;toy1d_model_untrained -->
<g id="edge27" class="edge">
<title>_toy1d_model_untrained_inputs&#45;&gt;toy1d_model_untrained</title>
<path fill="none" stroke="black" d="M854,-1364.59C854,-1358.35 854,-1352.33 854,-1346.67"/>
<polygon fill="black" stroke="black" points="857.5,-1346.26 854,-1336.26 850.5,-1346.26 857.5,-1346.26"/>
</g>
<!-- _toy1d_datasets_inputs -->
<g id="node27" class="node">
<title>_toy1d_datasets_inputs</title>
<polygon fill="#ffffff" stroke="black" stroke-dasharray="5,2" points="503.5,-1243 352.5,-1243 352.5,-1177 503.5,-1177 503.5,-1243"/>
<text text-anchor="start" x="385.5" y="-1216.8" font-family="Helvetica,sans-Serif" font-size="14.00">context_size</text>
<text text-anchor="start" x="368" y="-1195.8" font-family="Helvetica,sans-Serif" font-size="14.00">state_dimensions</text>
</g>
<!-- _toy1d_datasets_inputs&#45;&gt;toy1d_datasets -->
<g id="edge28" class="edge">
<title>_toy1d_datasets_inputs&#45;&gt;toy1d_datasets</title>
<path fill="none" stroke="black" d="M428,-1176.82C428,-1167.31 428,-1156.76 428,-1146.76"/>
<polygon fill="black" stroke="black" points="431.5,-1146.6 428,-1136.6 424.5,-1146.6 431.5,-1146.6"/>
</g>
<!-- _toy1d_criterion_set_inputs -->
<g id="node28" class="node">
<title>_toy1d_criterion_set_inputs</title>
<polygon fill="#ffffff" stroke="black" stroke-dasharray="5,2" points="174,-1148 0,-1148 0,-1061 174,-1061 174,-1148"/>
<text text-anchor="start" x="52.5" y="-1121.3" font-family="Helvetica,sans-Serif" font-size="14.00">train_mse</text>
<text text-anchor="start" x="50.5" y="-1100.3" font-family="Helvetica,sans-Serif" font-size="14.00">train_sdtw</text>
<text text-anchor="start" x="15" y="-1079.3" font-family="Helvetica,sans-Serif" font-size="14.00">sensory_train_losses</text>
</g>
<!-- _toy1d_criterion_set_inputs&#45;&gt;toy1d_criterion_set -->
<g id="edge29" class="edge">
<title>_toy1d_criterion_set_inputs&#45;&gt;toy1d_criterion_set</title>
<path fill="none" stroke="black" d="M98.37,-1060.68C117.77,-987.66 156.99,-839.99 176.07,-768.14"/>
<polygon fill="black" stroke="black" points="179.55,-768.67 178.74,-758.1 172.79,-766.87 179.55,-768.67"/>
</g>
</g>
</svg>
