<svg viewBox="0 0 200 200" xmlns="http://www.w3.org/2000/svg">
    <defs>
        <radialGradient id="bgGradient" cx="50%" cy="50%" r="50%">
            <stop offset="0%" style="stop-color:#7fb3e8;stop-opacity:1" />
            <stop offset="45%" style="stop-color:#6999d1;stop-opacity:1" />
            <stop offset="100%" style="stop-color:#5971cd;stop-opacity:1" />
        </radialGradient>
    </defs>
    <circle cx="100" cy="100" r="95" fill="url(#bgGradient)"/>

    <!-- Central large eye -->
    <ellipse cx="100" cy="100" rx="28" ry="32" fill="#e8e8e8"/>
    <circle cx="100" cy="100" r="16" fill="#4a5568"/>
    <circle cx="100" cy="100" r="10" fill="#0f3460"/>
    <circle cx="95" cy="95" r="4" fill="#ffffff" opacity="0.9"/>

    <!-- Ring of eyes around center -->
    <!-- Top eye -->
    <g transform="translate(100, 45)">
        <ellipse rx="12" ry="14" fill="#e8e8e8"/>
        <circle r="7" fill="#4a5568"/>
        <circle r="4" fill="#0f3460"/>
        <circle cx="-2" cy="-2" r="1.5" fill="#ffffff" opacity="0.9"/>
    </g>

    <!-- Top-right eye -->
    <g transform="translate(145, 65)">
        <ellipse rx="12" ry="14" fill="#e8e8e8"/>
        <circle r="7" fill="#4a5568"/>
        <circle r="4" fill="#0f3460"/>
        <circle cx="-2" cy="-2" r="1.5" fill="#ffffff" opacity="0.9"/>
    </g>

    <!-- Right eye -->
    <g transform="translate(155, 100)">
        <ellipse rx="12" ry="14" fill="#e8e8e8"/>
        <circle r="7" fill="#4a5568"/>
        <circle r="4" fill="#0f3460"/>
        <circle cx="-2" cy="-2" r="1.5" fill="#ffffff" opacity="0.9"/>
    </g>

    <!-- Bottom-right eye -->
    <g transform="translate(145, 135)">
        <ellipse rx="12" ry="14" fill="#e8e8e8"/>
        <circle r="7" fill="#4a5568"/>
        <circle r="4" fill="#0f3460"/>
        <circle cx="-2" cy="-2" r="1.5" fill="#ffffff" opacity="0.9"/>
    </g>

    <!-- Bottom eye -->
    <g transform="translate(100, 155)">
        <ellipse rx="12" ry="14" fill="#e8e8e8"/>
        <circle r="7" fill="#4a5568"/>
        <circle r="4" fill="#0f3460"/>
        <circle cx="-2" cy="-2" r="1.5" fill="#ffffff" opacity="0.9"/>
    </g>

    <!-- Bottom-left eye -->
    <g transform="translate(55, 135)">
        <ellipse rx="12" ry="14" fill="#e8e8e8"/>
        <circle r="7" fill="#4a5568"/>
        <circle r="4" fill="#0f3460"/>
        <circle cx="-2" cy="-2" r="1.5" fill="#ffffff" opacity="0.9"/>
    </g>

    <!-- Left eye -->
    <g transform="translate(45, 100)">
        <ellipse rx="12" ry="14" fill="#e8e8e8"/>
        <circle r="7" fill="#4a5568"/>
        <circle r="4" fill="#0f3460"/>
        <circle cx="-2" cy="-2" r="1.5" fill="#ffffff" opacity="0.9"/>
    </g>

    <!-- Top-left eye -->
    <g transform="translate(55, 65)">
        <ellipse rx="12" ry="14" fill="#e8e8e8"/>
        <circle r="7" fill="#4a5568"/>
        <circle r="4" fill="#0f3460"/>
        <circle cx="-2" cy="-2" r="1.5" fill="#ffffff" opacity="0.9"/>
    </g>

    <!-- Outer ring of smaller eyes -->
    <!-- Top -->
    <g transform="translate(100, 20)">
        <ellipse rx="8" ry="9" fill="#e8e8e8" opacity="0.8"/>
        <circle r="4.5" fill="#4a5568"/>
        <circle r="2.5" fill="#0f3460"/>
    </g>

    <!-- Top-right diagonal -->
    <g transform="translate(162, 38)">
        <ellipse rx="8" ry="9" fill="#e8e8e8" opacity="0.8"/>
        <circle r="4.5" fill="#4a5568"/>
        <circle r="2.5" fill="#0f3460"/>
    </g>

    <!-- Right -->
    <g transform="translate(180, 100)">
        <ellipse rx="8" ry="9" fill="#e8e8e8" opacity="0.8"/>
        <circle r="4.5" fill="#4a5568"/>
        <circle r="2.5" fill="#0f3460"/>
    </g>

    <!-- Bottom-right diagonal -->
    <g transform="translate(162, 162)">
        <ellipse rx="8" ry="9" fill="#e8e8e8" opacity="0.8"/>
        <circle r="4.5" fill="#4a5568"/>
        <circle r="2.5" fill="#0f3460"/>
    </g>

    <!-- Bottom -->
    <g transform="translate(100, 180)">
        <ellipse rx="8" ry="9" fill="#e8e8e8" opacity="0.8"/>
        <circle r="4.5" fill="#4a5568"/>
        <circle r="2.5" fill="#0f3460"/>
    </g>

    <!-- Bottom-left diagonal -->
    <g transform="translate(38, 162)">
        <ellipse rx="8" ry="9" fill="#e8e8e8" opacity="0.8"/>
        <circle r="4.5" fill="#4a5568"/>
        <circle r="2.5" fill="#0f3460"/>
    </g>

    <!-- Left -->
    <g transform="translate(20, 100)">
        <ellipse rx="8" ry="9" fill="#e8e8e8" opacity="0.8"/>
        <circle r="4.5" fill="#4a5568"/>
        <circle r="2.5" fill="#0f3460"/>
    </g>

    <!-- Top-left diagonal -->
    <g transform="translate(38, 38)">
        <ellipse rx="8" ry="9" fill="#e8e8e8" opacity="0.8"/>
        <circle r="4.5" fill="#4a5568"/>
        <circle r="2.5" fill="#0f3460"/>
    </g>
</svg>
