<svg xmlns="http://www.w3.org/2000/svg" viewBox="0 0 32 32" width="32" height="32">
  <!-- Background circle -->
  <circle cx="16" cy="16" r="15" fill="#2563eb" stroke="#1e40af" stroke-width="2"/>
  
  <!-- Browser window frame -->
  <rect x="6" y="9" width="20" height="14" rx="2" fill="#ffffff" stroke="none"/>
  
  <!-- Browser top bar -->
  <rect x="6" y="9" width="20" height="4" rx="2" fill="#e5e7eb"/>
  
  <!-- Browser dots -->
  <circle cx="9" cy="11" r="0.8" fill="#ef4444"/>
  <circle cx="11.5" cy="11" r="0.8" fill="#f59e0b"/>
  <circle cx="14" cy="11" r="0.8" fill="#10b981"/>
  
  <!-- AI brain/circuit pattern -->
  <g fill="#2563eb" stroke="#2563eb" stroke-width="0.5">
    <!-- Central node -->
    <circle cx="16" cy="18" r="1.5" fill="#2563eb"/>
    
    <!-- Connected nodes -->
    <circle cx="12" cy="16" r="1" fill="#3b82f6"/>
    <circle cx="20" cy="16" r="1" fill="#3b82f6"/>
    <circle cx="14" cy="21" r="1" fill="#3b82f6"/>
    <circle cx="18" cy="21" r="1" fill="#3b82f6"/>
    
    <!-- Connection lines -->
    <line x1="16" y1="18" x2="12" y2="16" stroke="#60a5fa" stroke-width="1"/>
    <line x1="16" y1="18" x2="20" y2="16" stroke="#60a5fa" stroke-width="1"/>
    <line x1="16" y1="18" x2="14" y2="21" stroke="#60a5fa" stroke-width="1"/>
    <line x1="16" y1="18" x2="18" y2="21" stroke="#60a5fa" stroke-width="1"/>
    
    <!-- Additional small nodes -->
    <circle cx="10" cy="19" r="0.5" fill="#93c5fd"/>
    <circle cx="22" cy="19" r="0.5" fill="#93c5fd"/>
    
    <!-- Small connection lines -->
    <line x1="12" y1="16" x2="10" y2="19" stroke="#93c5fd" stroke-width="0.5"/>
    <line x1="20" y1="16" x2="22" y2="19" stroke="#93c5fd" stroke-width="0.5"/>
  </g>
</svg>