<?xml version="1.0" encoding="UTF-8" standalone="no"?>
<!-- Created with Inkscape (http://www.inkscape.org/) -->

<svg
   width="46.999107mm"
   height="51.654697mm"
   viewBox="0 0 46.999107 51.654697"
   version="1.1"
   id="svg5"
   xml:space="preserve"
   inkscape:version="1.2 (dc2aeda, 2022-05-15)"
   sodipodi:docname="mola_v1.svg"
   xmlns:inkscape="http://www.inkscape.org/namespaces/inkscape"
   xmlns:sodipodi="http://sodipodi.sourceforge.net/DTD/sodipodi-0.dtd"
   xmlns:xlink="http://www.w3.org/1999/xlink"
   xmlns="http://www.w3.org/2000/svg"
   xmlns:svg="http://www.w3.org/2000/svg"><sodipodi:namedview
     id="namedview7"
     pagecolor="#ffffff"
     bordercolor="#666666"
     borderopacity="1.0"
     inkscape:showpageshadow="2"
     inkscape:pageopacity="0.0"
     inkscape:pagecheckerboard="0"
     inkscape:deskcolor="#d1d1d1"
     inkscape:document-units="mm"
     showgrid="false"
     inkscape:zoom="1.4984147"
     inkscape:cx="49.051841"
     inkscape:cy="150.1587"
     inkscape:window-width="1920"
     inkscape:window-height="1016"
     inkscape:window-x="0"
     inkscape:window-y="27"
     inkscape:window-maximized="1"
     inkscape:current-layer="layer1-4" /><defs
     id="defs2"><linearGradient
       id="linearGradient5702"
       inkscape:swatch="solid"><stop
         style="stop-color:#0073f3;stop-opacity:1;"
         offset="0"
         id="stop5700" /></linearGradient><linearGradient
       inkscape:collect="always"
       id="linearGradient893"><stop
         id="stop891"
         offset="0"
         style="stop-color:#97cff1;stop-opacity:1" /><stop
         id="stop889"
         offset="1"
         style="stop-color:#1f77b4;stop-opacity:1;" /></linearGradient><radialGradient
       inkscape:collect="always"
       xlink:href="#linearGradient893"
       id="radialGradient897"
       cx="76.704811"
       cy="130.56483"
       fx="76.704811"
       fy="130.56483"
       r="63.172432"
       gradientTransform="matrix(0.85404593,-0.3339027,0.22084005,0.56485776,8.4190251,71.235108)"
       gradientUnits="userSpaceOnUse" /></defs><g
     inkscape:label="Calque 1"
     inkscape:groupmode="layer"
     id="layer1"
     transform="translate(-77.054608,-69.170271)"><g
       inkscape:label="Calque 1"
       id="layer1-4"
       transform="translate(-10.847246,-185.34315)"><g
         id="g915"
         transform="matrix(0.28458686,0,0,0.28458686,82.043749,247.33668)"
         inkscape:export-filename="\\stokes\tbontemp\stck\softs\MOLA\PRESENTATIONS\g915.png"
         inkscape:export-xdpi="48"
         inkscape:export-ydpi="48"><path
           sodipodi:nodetypes="zssssssssccssssz"
           inkscape:connector-curvature="0"
           id="path830"
           d="M 164.41964,99.696428 C 163.4663,83.113796 111.85691,74.314364 104.6994,73.61607 89.20238,72.104165 87.312499,81.175594 81.642856,76.261904 75.973214,71.348213 72.949405,59.630952 70.303572,47.157737 67.657738,34.684522 65.767857,25.991071 63.499999,26.747023 61.232142,27.502977 60.098214,23.723214 59.34226,45.267856 58.586308,66.812498 60.854166,84.577379 58.208333,88.357143 55.562499,92.136903 38.175594,106.5 43.089284,129.93452 c 4.913691,23.43453 23.434524,34.77381 38.931548,38.55357 15.497024,3.77976 24.190478,16.63095 29.860118,21.54465 5.66964,4.91369 20.41071,15.875 22.67857,15.11904 2.26786,-0.75595 5.29167,-5.29166 -6.04762,-18.14285 -11.33928,-12.85119 -17.3869,-17.38691 -16.25297,-21.54465 1.13393,-4.15773 10.58333,-2.26785 21.92262,-10.9613 11.33928,-8.69346 21.90336,-22.19152 24.94642,-28.7262 2.81189,-6.03826 6.24501,-9.49772 5.29167,-26.080352 z"
           style="fill:url(#radialGradient897);fill-opacity:1;fill-rule:evenodd;stroke:#1f77b4;stroke-width:3;stroke-linecap:butt;stroke-linejoin:miter;stroke-miterlimit:4;stroke-dasharray:none;stroke-opacity:1" /><ellipse
           ry="3.4017856"
           rx="2.6458333"
           cy="95.160713"
           cx="154.97025"
           id="path832"
           style="fill:#ff7f0e;fill-opacity:1;stroke:none;stroke-width:1;stroke-linecap:round;stroke-linejoin:round;stroke-miterlimit:4;stroke-dasharray:none;stroke-dashoffset:0;stroke-opacity:1" /></g><path
         style="color:#000000;fill:#ff7f0e;fill-rule:evenodd;stroke:#ffffff;stroke-width:0.7;stroke-linecap:round;stroke-linejoin:round;stroke-dasharray:none;stroke-opacity:1"
         d="m 132.47479,259.2675 c -1.26272,-0.56238 -2.73815,-0.32897 -3.76563,0.5957 -6.52646,5.87679 -11.34375,8.66407 -11.34375,8.66407 -1.67156,0.97124 -2.23911,3.11376 -1.26757,4.78515 0.97123,1.67157 3.11376,2.23912 4.78515,1.26758 0,0 2.92155,-1.97489 6.66797,-4.83008 v 25.19532 c 0,1.933 1.567,3.5 3.5,3.5 1.933,0 3.5,-1.567 3.5,-3.5 v -32.48047 c -1e-4,-1.38219 -0.81355,-2.6349 -2.07617,-3.19727 z"
         id="path484"
         sodipodi:nodetypes="ccccccssscc" /><path
         style="color:#000000;fill:#ff7f0e;fill-rule:evenodd;stroke:#ffffff;stroke-width:0.7;stroke-linecap:round;stroke-linejoin:round;stroke-dasharray:none;stroke-opacity:1"
         d="m 90.437684,271.04884 c -1.79183,0.72581 -2.65583,2.76691 -1.92969,4.5586 l 8.35938,20.65039 c 1.17855,2.91267 5.300586,2.91776 6.486326,0.008 l 8.29296,-20.33594 c 0.72984,-1.79007 -0.12977,-3.83285 -1.91992,-4.5625 -1.79007,-0.72984 -3.83284,0.12977 -4.5625,1.91992 l -4.54141,11.13879 -0.49765,1.22059 -5.128906,-12.66602 c -0.72504,-1.79259 -2.76636,-2.65757 -4.55859,-1.93164 z"
         id="path3456"
         sodipodi:nodetypes="cccccccccccc" /></g></g></svg>
