
<svg xmlns="http://www.w3.org/2000/svg" version="1.1" xmlns:xlink="http://www.w3.org/1999/xlink" preserveAspectRatio="none" x="0px" y="0px" width="100px" height="100px" viewBox="0 0 100 100">
<defs>
<g id="Layer0_0_MEMBER_0_FILL">
<path fill="#FFFFFF" stroke="none" d="
M 84.8 48.4
L 100 48.4 51.6 0.65
Q 50.95 0 50 0 49.05 0 48.4 0.65
L 0 48.4 5.75 48.4
Q 6.05 48.4 6.4 48.4
L 15.2 48.4 15.2 92.45
Q 15.2 93.4 15.9 94.1 16.6 94.75 17.55 94.75
L 82.45 94.75
Q 83.4 94.75 84.1 94.1 84.8 93.4 84.8 92.45
L 84.8 48.4
M 88.7 43.75
L 82.45 43.75
Q 81.5 43.75 80.85 44.45 80.15 45.1 80.15 46.05
L 80.15 90.1 19.85 90.1 19.85 46.05
Q 19.85 45.1 19.2 44.45 18.5 43.75 17.55 43.75
L 11.3 43.75 50 5.55 88.7 43.75
M 53.6 62.55
L 44.05 62.55 44.05 83.7 53.6 83.7 53.6 62.55
M 70.65 57.75
L 61.2 57.75 61.2 83.65 70.65 83.65 70.65 57.75
M 36.75 68.15
L 27.4 68.15 27.4 83.7 36.75 83.7 36.75 68.15
M 57.1 32.65
Q 57 32.65 56.9 32.7
L 54.85 32.8 59.85 38.45
Q 57.95 40.15 56.1 41.9 55.55 42.4 54.95 42.95 54.85 43.05 54.75 43.15 50.65 47.1 48.6 49 48.25 48.6 47.9 48.25
L 42.15 42.75
Q 41.6 42.25 41.4 42.2 40.5 42 39.7 42.6 38.35 43.65 37.05 44.9 35.2 46.6 33.4 48.4
L 33.5 48.4
Q 32.75 49.1 32.05 49.75 31.5 50.25 30.95 50.75 29.65 51.85 28.5 53
L 26.75 54.9
Q 26.1 56.3 27.4 57.5 28.75 58.65 29.65 58.4 30.6 58.05 31.25 57.45 31.85 56.8 31.95 56.75 33.4 55.3 34.9 53.9 35.45 53.4 36.05 52.9 38.2 50.85 40.3 48.8 40.4 48.75 40.45 48.7
L 48.2 55.85
Q 48.5 56.05 48.85 56.15 49.2 56.2 49.6 56.2 50.45 56.05 51.05 55.55 51.15 55.45 51.25 55.35 52.45 54.15 53.65 53.1 55.2 51.7 58.75 48.35 59.4 47.7 60.1 47.1 62.05 45.3 64.05 43.6 64.1 43.5 64.2 43.45
L 69.35 49.3 71.85 32 57.1 32.65 Z"/>
</g>
</defs>

<g transform="matrix( 1, 0, 0, 1, 0,2.65) ">
<use xlink:href="#Layer0_0_MEMBER_0_FILL"/>
</g>
</svg>
