<svg width="120" height="145" viewBox="0 0 120 145" fill="none" xmlns="http://www.w3.org/2000/svg">
<g filter="url(#filter0_ddd_2818_45886)">
<mask id="path-1-outside-1_2818_45886" maskUnits="userSpaceOnUse" x="32.5" y="19" width="55" height="105" fill="black">
<rect fill="white" x="32.5" y="19" width="55" height="105"/>
<path fill-rule="evenodd" clip-rule="evenodd" d="M71.5 79H51.5V73H71.5C76.4706 73 80.5 77.0294 80.5 82V111H74.5V82C74.5 80.3431 73.1569 79 71.5 79Z"/>
<path d="M71.5 85C71.5 83.8954 72.3954 83 73.5 83H81.5C82.6046 83 83.5 83.8954 83.5 85V118C83.5 119.105 82.6046 120 81.5 120H73.5C72.3954 120 71.5 119.105 71.5 118V85Z"/>
<path d="M39.5 73.5C39.5 72.5557 39.9446 71.6666 40.7 71.1L46.3 66.9C47.0554 66.3334 47.5 65.4443 47.5 64.5V47C47.5 46.3509 47.7105 45.7193 48.1 45.2L49.9 42.8C50.2895 42.2807 50.5 41.6491 50.5 41V26C50.5 24.8954 51.3954 24 52.5 24C53.6046 24 54.5 24.8954 54.5 26V41C54.5 41.6491 54.7105 42.2807 55.1 42.8L56.9 45.2C57.2895 45.7193 57.5 46.3509 57.5 47V64.5C57.5 65.4443 57.9446 66.3334 58.7 66.9L64.3 71.1C65.0554 71.6666 65.5 72.5557 65.5 73.5V117C65.5 118.657 64.1569 120 62.5 120H42.5C40.8431 120 39.5 118.657 39.5 117V73.5Z"/>
<path d="M43.5 75.9696C43.5 74.7277 44.0768 73.5563 45.0612 72.7991L48.9216 69.8295C49.6209 69.2916 50.4783 69 51.3605 69H54.0518C54.9875 69 55.8937 69.3281 56.6125 69.9271L60.0607 72.8006C60.9727 73.5606 61.5 74.6864 61.5 75.8735V106C61.5 108.209 59.7091 110 57.5 110H47.5C45.2909 110 43.5 108.209 43.5 106V75.9696Z"/>
<path d="M48.5 109C48.5 107.895 49.3954 107 50.5 107H55.5C56.6046 107 57.5 107.895 57.5 109V112C57.5 113.105 56.6046 114 55.5 114H50.5C49.3954 114 48.5 113.105 48.5 112V109Z"/>
<path d="M36.5 114C36.5 112.895 37.3954 112 38.5 112H66.5C67.6046 112 68.5 112.895 68.5 114V118C68.5 119.105 67.6046 120 66.5 120H38.5C37.3954 120 36.5 119.105 36.5 118V114Z"/>
<path d="M47.5 60H57.5V64H47.5V60Z"/>
<path d="M50.5 24C50.5 23.4477 50.9477 23 51.5 23H53.5C54.0523 23 54.5 23.4477 54.5 24V41H50.5V24Z"/>
<path d="M38.5 96C38.5 95.4477 38.9477 95 39.5 95H65.5C66.0523 95 66.5 95.4477 66.5 96V98C66.5 98.5523 66.0523 99 65.5 99H39.5C38.9477 99 38.5 98.5523 38.5 98V96Z"/>
<path d="M38.5 84C38.5 83.4477 38.9477 83 39.5 83H65.5C66.0523 83 66.5 83.4477 66.5 84V86C66.5 86.5523 66.0523 87 65.5 87H39.5C38.9477 87 38.5 86.5523 38.5 86V84Z"/>
<path d="M45.5 61C45.5 60.4477 45.9477 60 46.5 60H58.5C59.0523 60 59.5 60.4477 59.5 61V63C59.5 63.5523 59.0523 64 58.5 64H46.5C45.9477 64 45.5 63.5523 45.5 63V61Z"/>
<path d="M56.5 37H48.5C47.9477 37 47.5 37.4477 47.5 38V40C47.5 40.5523 47.9477 41 48.5 41H56.5C57.0523 41 57.5 40.5523 57.5 40V38C57.5 37.4477 57.0523 37 56.5 37Z"/>
</mask>
<path fill-rule="evenodd" clip-rule="evenodd" d="M71.5 79H51.5V73H71.5C76.4706 73 80.5 77.0294 80.5 82V111H74.5V82C74.5 80.3431 73.1569 79 71.5 79Z" fill="#25252A"/>
<path d="M71.5 85C71.5 83.8954 72.3954 83 73.5 83H81.5C82.6046 83 83.5 83.8954 83.5 85V118C83.5 119.105 82.6046 120 81.5 120H73.5C72.3954 120 71.5 119.105 71.5 118V85Z" fill="#25252A"/>
<path d="M39.5 73.5C39.5 72.5557 39.9446 71.6666 40.7 71.1L46.3 66.9C47.0554 66.3334 47.5 65.4443 47.5 64.5V47C47.5 46.3509 47.7105 45.7193 48.1 45.2L49.9 42.8C50.2895 42.2807 50.5 41.6491 50.5 41V26C50.5 24.8954 51.3954 24 52.5 24C53.6046 24 54.5 24.8954 54.5 26V41C54.5 41.6491 54.7105 42.2807 55.1 42.8L56.9 45.2C57.2895 45.7193 57.5 46.3509 57.5 47V64.5C57.5 65.4443 57.9446 66.3334 58.7 66.9L64.3 71.1C65.0554 71.6666 65.5 72.5557 65.5 73.5V117C65.5 118.657 64.1569 120 62.5 120H42.5C40.8431 120 39.5 118.657 39.5 117V73.5Z" fill="#515259"/>
<path d="M43.5 75.9696C43.5 74.7277 44.0768 73.5563 45.0612 72.7991L48.9216 69.8295C49.6209 69.2916 50.4783 69 51.3605 69H54.0518C54.9875 69 55.8937 69.3281 56.6125 69.9271L60.0607 72.8006C60.9727 73.5606 61.5 74.6864 61.5 75.8735V106C61.5 108.209 59.7091 110 57.5 110H47.5C45.2909 110 43.5 108.209 43.5 106V75.9696Z" fill="#E76522"/>
<path d="M48.5 109C48.5 107.895 49.3954 107 50.5 107H55.5C56.6046 107 57.5 107.895 57.5 109V112C57.5 113.105 56.6046 114 55.5 114H50.5C49.3954 114 48.5 113.105 48.5 112V109Z" fill="#515259"/>
<path d="M36.5 114C36.5 112.895 37.3954 112 38.5 112H66.5C67.6046 112 68.5 112.895 68.5 114V118C68.5 119.105 67.6046 120 66.5 120H38.5C37.3954 120 36.5 119.105 36.5 118V114Z" fill="#25252A"/>
<path d="M47.5 60H57.5V64H47.5V60Z" fill="#25252A"/>
<path d="M50.5 24C50.5 23.4477 50.9477 23 51.5 23H53.5C54.0523 23 54.5 23.4477 54.5 24V41H50.5V24Z" fill="#25252A"/>
<path d="M38.5 96C38.5 95.4477 38.9477 95 39.5 95H65.5C66.0523 95 66.5 95.4477 66.5 96V98C66.5 98.5523 66.0523 99 65.5 99H39.5C38.9477 99 38.5 98.5523 38.5 98V96Z" fill="#25252A"/>
<path d="M38.5 84C38.5 83.4477 38.9477 83 39.5 83H65.5C66.0523 83 66.5 83.4477 66.5 84V86C66.5 86.5523 66.0523 87 65.5 87H39.5C38.9477 87 38.5 86.5523 38.5 86V84Z" fill="#25252A"/>
<path d="M45.5 61C45.5 60.4477 45.9477 60 46.5 60H58.5C59.0523 60 59.5 60.4477 59.5 61V63C59.5 63.5523 59.0523 64 58.5 64H46.5C45.9477 64 45.5 63.5523 45.5 63V61Z" fill="#25252A"/>
<path d="M56.5 37H48.5C47.9477 37 47.5 37.4477 47.5 38V40C47.5 40.5523 47.9477 41 48.5 41H56.5C57.0523 41 57.5 40.5523 57.5 40V38C57.5 37.4477 57.0523 37 56.5 37Z" fill="#25252A"/>
<path d="M51.5 75H49.5V77H51.5V75ZM78.5 111H76.5V113H78.5V111ZM71.5 73H51.5V77H71.5V73ZM53.5 75V73H49.5V75H53.5ZM80.5 109H78.5V113H80.5V109ZM80.5 111V82H76.5V111H80.5ZM80.5 82C80.5 77.0294 76.4706 73 71.5 73V77C74.2614 77 76.5 79.2386 76.5 82H80.5ZM51.5 79H47.5V83H51.5V79ZM51.5 73V69H47.5V73H51.5ZM80.5 111V115H84.5V111H80.5ZM74.5 111H70.5V115H74.5V111ZM40.7 71.1L38.3 67.9L38.3 67.9L40.7 71.1ZM46.3 66.9L48.7 70.1L48.7 70.1L46.3 66.9ZM48.1 45.2L51.3 47.6L51.3 47.6L48.1 45.2ZM49.9 42.8L46.7 40.4L46.7 40.4L49.9 42.8ZM55.1 42.8L58.3 40.4L58.3 40.4L55.1 42.8ZM56.9 45.2L53.7 47.6L53.7 47.6L56.9 45.2ZM58.7 66.9L56.3 70.1L56.3 70.1L58.7 66.9ZM64.3 71.1L66.7 67.9L66.7 67.9L64.3 71.1ZM45.0612 72.7991L42.6223 69.6286L42.6223 69.6286L45.0612 72.7991ZM48.9216 69.8295L51.3605 73L51.3605 73L48.9216 69.8295ZM56.6125 69.9271L54.0518 73L54.0518 73L56.6125 69.9271ZM60.0607 72.8006L62.6215 69.7277L62.6215 69.7277L60.0607 72.8006ZM47.5 60V56H43.5V60H47.5ZM57.5 60H61.5V56H57.5V60ZM57.5 64V68H61.5V64H57.5ZM47.5 64H43.5V68H47.5V64ZM71.5 75H51.5V83H71.5V75ZM55.5 79V73H47.5V79H55.5ZM51.5 77H71.5V69H51.5V77ZM71.5 77C74.2614 77 76.5 79.2386 76.5 82H84.5C84.5 74.8203 78.6797 69 71.5 69V77ZM76.5 82V111H84.5V82H76.5ZM80.5 107H74.5V115H80.5V107ZM78.5 111V82H70.5V111H78.5ZM78.5 82C78.5 78.134 75.366 75 71.5 75V83C70.9477 83 70.5 82.5523 70.5 82H78.5ZM75.5 85C75.5 86.1046 74.6046 87 73.5 87V79C70.1863 79 67.5 81.6863 67.5 85H75.5ZM73.5 87H81.5V79H73.5V87ZM81.5 87C80.3954 87 79.5 86.1046 79.5 85H87.5C87.5 81.6863 84.8137 79 81.5 79V87ZM79.5 85V118H87.5V85H79.5ZM79.5 118C79.5 116.895 80.3954 116 81.5 116V124C84.8137 124 87.5 121.314 87.5 118H79.5ZM81.5 116H73.5V124H81.5V116ZM73.5 116C74.6046 116 75.5 116.895 75.5 118H67.5C67.5 121.314 70.1863 124 73.5 124V116ZM75.5 118V85H67.5V118H75.5ZM43.5 73.5C43.5 73.8148 43.3518 74.1111 43.1 74.3L38.3 67.9C36.5374 69.222 35.5 71.2967 35.5 73.5H43.5ZM43.1 74.3L48.7 70.1L43.9 63.7L38.3 67.9L43.1 74.3ZM48.7 70.1C50.4626 68.778 51.5 66.7033 51.5 64.5H43.5C43.5 64.1852 43.6482 63.8889 43.9 63.7L48.7 70.1ZM51.5 64.5V47H43.5V64.5H51.5ZM51.5 47C51.5 47.2164 51.4298 47.4269 51.3 47.6L44.9 42.8C43.9912 44.0117 43.5 45.4854 43.5 47H51.5ZM51.3 47.6L53.1 45.2L46.7 40.4L44.9 42.8L51.3 47.6ZM53.1 45.2C54.0088 43.9883 54.5 42.5146 54.5 41H46.5C46.5 40.7836 46.5702 40.5731 46.7 40.4L53.1 45.2ZM54.5 41V26H46.5V41H54.5ZM54.5 26C54.5 27.1046 53.6046 28 52.5 28V20C49.1863 20 46.5 22.6863 46.5 26H54.5ZM52.5 28C51.3954 28 50.5 27.1046 50.5 26H58.5C58.5 22.6863 55.8137 20 52.5 20V28ZM50.5 26V41H58.5V26H50.5ZM50.5 41C50.5 42.5146 50.9912 43.9883 51.9 45.2L58.3 40.4C58.4298 40.5731 58.5 40.7836 58.5 41H50.5ZM51.9 45.2L53.7 47.6L60.1 42.8L58.3 40.4L51.9 45.2ZM53.7 47.6C53.5702 47.4269 53.5 47.2164 53.5 47H61.5C61.5 45.4854 61.0088 44.0117 60.1 42.8L53.7 47.6ZM53.5 47V64.5H61.5V47H53.5ZM53.5 64.5C53.5 66.7033 54.5374 68.778 56.3 70.1L61.1 63.7C61.3518 63.8889 61.5 64.1852 61.5 64.5H53.5ZM56.3 70.1L61.9 74.3L66.7 67.9L61.1 63.7L56.3 70.1ZM61.9 74.3C61.6482 74.1111 61.5 73.8148 61.5 73.5H69.5C69.5 71.2967 68.4626 69.222 66.7 67.9L61.9 74.3ZM61.5 73.5V117H69.5V73.5H61.5ZM61.5 117C61.5 116.448 61.9477 116 62.5 116V124C66.366 124 69.5 120.866 69.5 117H61.5ZM62.5 116H42.5V124H62.5V116ZM42.5 116C43.0523 116 43.5 116.448 43.5 117H35.5C35.5 120.866 38.634 124 42.5 124V116ZM43.5 117V73.5H35.5V117H43.5ZM47.5 75.9696L47.5 75.9696L42.6223 69.6286C40.6536 71.143 39.5 73.4858 39.5 75.9696H47.5ZM47.5 75.9696L51.3605 73L46.4828 66.659L42.6223 69.6286L47.5 75.9696ZM51.3605 73L51.3605 73V65C49.5961 65 47.8813 65.5833 46.4828 66.659L51.3605 73ZM54.0518 73L54.0518 73L59.1733 66.8542C57.7356 65.6561 55.9233 65 54.0518 65V73ZM54.0518 73L57.5 75.8735L62.6215 69.7277L59.1733 66.8542L54.0518 73ZM57.5 75.8735L57.5 75.8735H65.5C65.5 73.4993 64.4454 71.2477 62.6215 69.7277L57.5 75.8735ZM57.5 75.8735V106H65.5V75.8735H57.5ZM57.5 106V114C61.9183 114 65.5 110.418 65.5 106H57.5ZM57.5 106H47.5V114H57.5V106ZM47.5 106H39.5C39.5 110.418 43.0817 114 47.5 114V106ZM47.5 106V75.9696H39.5V106H47.5ZM51.3605 73H54.0518V65H51.3605V73ZM52.5 109C52.5 110.105 51.6046 111 50.5 111V103C47.1863 103 44.5 105.686 44.5 109H52.5ZM50.5 111H55.5V103H50.5V111ZM55.5 111C54.3954 111 53.5 110.105 53.5 109H61.5C61.5 105.686 58.8137 103 55.5 103V111ZM53.5 109V112H61.5V109H53.5ZM53.5 112C53.5 110.895 54.3954 110 55.5 110V118C58.8137 118 61.5 115.314 61.5 112H53.5ZM55.5 110H50.5V118H55.5V110ZM50.5 110C51.6046 110 52.5 110.895 52.5 112H44.5C44.5 115.314 47.1863 118 50.5 118V110ZM52.5 112V109H44.5V112H52.5ZM40.5 114C40.5 115.105 39.6046 116 38.5 116V108C35.1863 108 32.5 110.686 32.5 114H40.5ZM38.5 116H66.5V108H38.5V116ZM66.5 116C65.3954 116 64.5 115.105 64.5 114H72.5C72.5 110.686 69.8137 108 66.5 108V116ZM64.5 114V118H72.5V114H64.5ZM64.5 118C64.5 116.895 65.3954 116 66.5 116V124C69.8137 124 72.5 121.314 72.5 118H64.5ZM66.5 116H38.5V124H66.5V116ZM38.5 116C39.6046 116 40.5 116.895 40.5 118H32.5C32.5 121.314 35.1863 124 38.5 124V116ZM40.5 118V114H32.5V118H40.5ZM47.5 64H57.5V56H47.5V64ZM53.5 60V64H61.5V60H53.5ZM57.5 60H47.5V68H57.5V60ZM51.5 64V60H43.5V64H51.5ZM54.5 24C54.5 25.6569 53.1569 27 51.5 27V19C48.7386 19 46.5 21.2386 46.5 24H54.5ZM51.5 27H53.5V19H51.5V27ZM53.5 27C51.8431 27 50.5 25.6569 50.5 24H58.5C58.5 21.2386 56.2614 19 53.5 19V27ZM50.5 24V41H58.5V24H50.5ZM54.5 37H50.5V45H54.5V37ZM54.5 41V24H46.5V41H54.5ZM42.5 96C42.5 97.6569 41.1569 99 39.5 99V91C36.7386 91 34.5 93.2386 34.5 96H42.5ZM39.5 99H65.5V91H39.5V99ZM65.5 99C63.8431 99 62.5 97.6569 62.5 96H70.5C70.5 93.2386 68.2614 91 65.5 91V99ZM62.5 96V98H70.5V96H62.5ZM62.5 98C62.5 96.3431 63.8431 95 65.5 95V103C68.2614 103 70.5 100.761 70.5 98H62.5ZM65.5 95H39.5V103H65.5V95ZM39.5 95C41.1569 95 42.5 96.3431 42.5 98H34.5C34.5 100.761 36.7386 103 39.5 103V95ZM42.5 98V96H34.5V98H42.5ZM42.5 84C42.5 85.6569 41.1569 87 39.5 87V79C36.7386 79 34.5 81.2386 34.5 84H42.5ZM39.5 87H65.5V79H39.5V87ZM65.5 87C63.8431 87 62.5 85.6569 62.5 84H70.5C70.5 81.2386 68.2614 79 65.5 79V87ZM62.5 84V86H70.5V84H62.5ZM62.5 86C62.5 84.3431 63.8431 83 65.5 83V91C68.2614 91 70.5 88.7614 70.5 86H62.5ZM65.5 83H39.5V91H65.5V83ZM39.5 83C41.1569 83 42.5 84.3431 42.5 86H34.5C34.5 88.7614 36.7386 91 39.5 91V83ZM42.5 86V84H34.5V86H42.5ZM51.5 38C51.5 39.6569 50.1569 41 48.5 41V33C45.7386 33 43.5 35.2386 43.5 38H51.5ZM56.5 41C54.8431 41 53.5 39.6569 53.5 38H61.5C61.5 35.2386 59.2614 33 56.5 33V41ZM53.5 38V40H61.5V38H53.5ZM53.5 40C53.5 38.3431 54.8431 37 56.5 37V45C59.2614 45 61.5 42.7614 61.5 40H53.5ZM56.5 37H48.5V45H56.5V37ZM48.5 37C50.1569 37 51.5 38.3431 51.5 40H43.5C43.5 42.7614 45.7386 45 48.5 45V37ZM51.5 40V38H43.5V40H51.5ZM49.5 61C49.5 62.6569 48.1569 64 46.5 64V56C43.7386 56 41.5 58.2386 41.5 61H49.5ZM46.5 64H58.5V56H46.5V64ZM58.5 64C56.8431 64 55.5 62.6569 55.5 61H63.5C63.5 58.2386 61.2614 56 58.5 56V64ZM55.5 61V63H63.5V61H55.5ZM55.5 63C55.5 61.3431 56.8431 60 58.5 60V68C61.2614 68 63.5 65.7614 63.5 63H55.5ZM58.5 60H46.5V68H58.5V60ZM46.5 60C48.1569 60 49.5 61.3431 49.5 63H41.5C41.5 65.7614 43.7386 68 46.5 68V60ZM49.5 63V61H41.5V63H49.5ZM48.5 41H56.5V33H48.5V41Z" fill="white" mask="url(#path-1-outside-1_2818_45886)"/>
<path fill-rule="evenodd" clip-rule="evenodd" d="M71.5 79H51.5V73H71.5C76.4706 73 80.5 77.0294 80.5 82V111H74.5V82C74.5 80.3431 73.1569 79 71.5 79Z" fill="#25252A"/>
<path fill-rule="evenodd" clip-rule="evenodd" d="M71.5 75H51.5V73H71.5C76.4706 73 80.5 77.0294 80.5 82V111H78.5V82C78.5 78.134 75.366 75 71.5 75Z" fill="#6F6F73"/>
<path d="M71.5 85C71.5 83.8954 72.3954 83 73.5 83H81.5C82.6046 83 83.5 83.8954 83.5 85V118C83.5 119.105 82.6046 120 81.5 120H73.5C72.3954 120 71.5 119.105 71.5 118V85Z" fill="#25252A"/>
<path d="M39.5 73.5C39.5 72.5557 39.9446 71.6666 40.7 71.1L46.3 66.9C47.0554 66.3334 47.5 65.4443 47.5 64.5V47C47.5 46.3509 47.7105 45.7193 48.1 45.2L49.9 42.8C50.2895 42.2807 50.5 41.6491 50.5 41V26C50.5 24.8954 51.3954 24 52.5 24C53.6046 24 54.5 24.8954 54.5 26V41C54.5 41.6491 54.7105 42.2807 55.1 42.8L56.9 45.2C57.2895 45.7193 57.5 46.3509 57.5 47V64.5C57.5 65.4443 57.9446 66.3334 58.7 66.9L64.3 71.1C65.0554 71.6666 65.5 72.5557 65.5 73.5V117C65.5 118.657 64.1569 120 62.5 120H42.5C40.8431 120 39.5 118.657 39.5 117V73.5Z" fill="#515259"/>
<path d="M43.5 75.9696C43.5 74.7277 44.0768 73.5563 45.0612 72.7991L48.9216 69.8295C49.6209 69.2916 50.4783 69 51.3605 69H54.0518C54.9875 69 55.8937 69.3281 56.6125 69.9271L60.0607 72.8006C60.9727 73.5606 61.5 74.6864 61.5 75.8735V106C61.5 108.209 59.7091 110 57.5 110H47.5C45.2909 110 43.5 108.209 43.5 106V75.9696Z" fill="#E76522"/>
<g clip-path="url(#clip0_2818_45886)">
<g filter="url(#filter1_f_2818_45886)">
<path d="M39.5922 97.1069C38.751 100.534 43.9053 104.855 45.4077 106.028C45.6601 106.226 45.8099 106.524 45.8099 106.844V107.037C45.8099 107.589 46.2576 108.037 46.8099 108.037H62.6241C63.1764 108.037 63.6241 107.589 63.6241 107.037V105.199V102.009C63.6241 101.867 63.6538 101.728 63.7098 101.598C64.075 100.749 65.4833 97.3274 65.4993 94.9822C65.5288 90.634 64.6528 87.907 60.8113 84.1978C57.855 81.3431 54.6619 78.0407 53.8515 77.1987C53.7223 77.0645 53.6356 76.8988 53.597 76.7165L52.6835 72.3998C52.4979 71.5229 51.3413 71.3141 50.8609 72.0708L47.7344 76.9953C47.7344 76.9953 44.0285 82.7496 42.9971 86.6139C41.9757 90.4407 40.8746 92.3527 40.4819 92.9557C40.3873 93.1009 40.3196 93.261 40.2934 93.4323C40.1962 94.0677 39.9263 95.7457 39.5922 97.1069Z" fill="#F58C6C"/>
<path d="M44.1725 99.0282L47.2361 108.232C47.2688 108.33 47.2855 108.433 47.2855 108.536C47.2855 109.069 47.717 109.5 48.2492 109.5H58.1284C58.6807 109.5 59.1284 109.052 59.1284 108.5V108.048C59.1284 107.783 59.2339 107.528 59.4217 107.341L60.8266 105.937C60.999 105.765 61.1027 105.537 61.1145 105.293C61.1524 104.513 61.2193 102.688 61.0942 101.414C60.9466 99.9115 61.027 99.0384 60.375 97.5837C59.1142 94.7709 56.7768 92.3325 55.5036 91.1356C55.1584 90.8111 54.6214 91.0597 54.6214 91.5335C54.6214 92.1401 53.7929 92.316 53.5464 91.7617L51.0253 86.0928C51.0253 86.0928 49.4092 88.8036 47.9088 90.5279C46.1429 92.5572 45.7946 94.0752 45.9651 95.1429C46.1063 96.0272 45.7454 97.5378 44.876 97.7522C44.3141 97.8907 43.9897 98.4791 44.1725 99.0282Z" fill="#FFC933"/>
<path d="M50.6665 103.863L51.9751 107.242C52.0012 107.31 52.0145 107.381 52.0145 107.453C52.0145 107.776 52.2759 108.037 52.5984 108.037H55.3704C55.9227 108.037 56.3704 107.589 56.3704 107.037V106.882V105.578C56.3704 105.524 56.3749 105.469 56.3838 105.415L56.8186 102.786C56.8255 102.745 56.8297 102.705 56.8306 102.663C56.8405 102.236 56.8634 99.7044 56.0647 98.3353C55.9254 98.0965 55.7811 97.8442 55.6372 97.5892C55.1602 96.7439 53.851 96.9749 53.7041 97.9343C53.4567 99.5492 53.1683 101.305 53.008 101.841C52.5686 103.311 52.6259 99.5175 52.6259 99.5175C52.6259 99.5175 51.6902 99.9071 51.3268 100.679C50.8849 101.618 51.0071 102.85 51.1533 103.619C51.1796 103.757 50.9672 103.857 50.8833 103.744C50.7965 103.627 50.614 103.728 50.6665 103.863Z" fill="#A5C8FF"/>
</g>
</g>
<path d="M48.5 109C48.5 107.895 49.3954 107 50.5 107H55.5C56.6046 107 57.5 107.895 57.5 109V112C57.5 113.105 56.6046 114 55.5 114H50.5C49.3954 114 48.5 113.105 48.5 112V109Z" fill="#515259"/>
<path d="M36.5 114C36.5 112.895 37.3954 112 38.5 112H66.5C67.6046 112 68.5 112.895 68.5 114V118C68.5 119.105 67.6046 120 66.5 120H38.5C37.3954 120 36.5 119.105 36.5 118V114Z" fill="#25252A"/>
<path d="M47.5 47H57.5V64H47.5V47Z" fill="#25252A"/>
<path d="M50.5 24C50.5 23.4477 50.9477 23 51.5 23H53.5C54.0523 23 54.5 23.4477 54.5 24V41H50.5V24Z" fill="#25252A"/>
<path d="M38.5 96C38.5 95.4477 38.9477 95 39.5 95H65.5C66.0523 95 66.5 95.4477 66.5 96V98C66.5 98.5523 66.0523 99 65.5 99H39.5C38.9477 99 38.5 98.5523 38.5 98V96Z" fill="#25252A"/>
<path d="M38.5 84C38.5 83.4477 38.9477 83 39.5 83H65.5C66.0523 83 66.5 83.4477 66.5 84V86C66.5 86.5523 66.0523 87 65.5 87H39.5C38.9477 87 38.5 86.5523 38.5 86V84Z" fill="#25252A"/>
<path d="M45.5 61C45.5 60.4477 45.9477 60 46.5 60H58.5C59.0523 60 59.5 60.4477 59.5 61V63C59.5 63.5523 59.0523 64 58.5 64H46.5C45.9477 64 45.5 63.5523 45.5 63V61Z" fill="#25252A"/>
<path d="M56.5 37H48.5C47.9477 37 47.5 37.4477 47.5 38V40C47.5 40.5523 47.9477 41 48.5 41H56.5C57.0523 41 57.5 40.5523 57.5 40V38C57.5 37.4477 57.0523 37 56.5 37Z" fill="#25252A"/>
</g>
<defs>
<filter id="filter0_ddd_2818_45886" x="-20" y="-7" width="160" height="160" filterUnits="userSpaceOnUse" color-interpolation-filters="sRGB">
<feFlood flood-opacity="0" result="BackgroundImageFix"/>
<feColorMatrix in="SourceAlpha" type="matrix" values="0 0 0 0 0 0 0 0 0 0 0 0 0 0 0 0 0 0 127 0" result="hardAlpha"/>
<feOffset dy="1"/>
<feGaussianBlur stdDeviation="1"/>
<feColorMatrix type="matrix" values="0 0 0 0 0.309804 0 0 0 0 0.321569 0 0 0 0 0.407843 0 0 0 0.24 0"/>
<feBlend mode="normal" in2="BackgroundImageFix" result="effect1_dropShadow_2818_45886"/>
<feColorMatrix in="SourceAlpha" type="matrix" values="0 0 0 0 0 0 0 0 0 0 0 0 0 0 0 0 0 0 127 0" result="hardAlpha"/>
<feOffset dy="1"/>
<feGaussianBlur stdDeviation="4"/>
<feColorMatrix type="matrix" values="0 0 0 0 0.309804 0 0 0 0 0.321569 0 0 0 0 0.407843 0 0 0 0.08 0"/>
<feBlend mode="normal" in2="effect1_dropShadow_2818_45886" result="effect2_dropShadow_2818_45886"/>
<feColorMatrix in="SourceAlpha" type="matrix" values="0 0 0 0 0 0 0 0 0 0 0 0 0 0 0 0 0 0 127 0" result="hardAlpha"/>
<feMorphology radius="4" operator="dilate" in="SourceAlpha" result="effect3_dropShadow_2818_45886"/>
<feOffset dy="1"/>
<feGaussianBlur stdDeviation="8"/>
<feColorMatrix type="matrix" values="0 0 0 0 0.309804 0 0 0 0 0.321569 0 0 0 0 0.407843 0 0 0 0.1 0"/>
<feBlend mode="normal" in2="effect2_dropShadow_2818_45886" result="effect3_dropShadow_2818_45886"/>
<feBlend mode="normal" in="SourceGraphic" in2="effect3_dropShadow_2818_45886" result="shape"/>
</filter>
<filter id="filter1_f_2818_45886" x="34.5" y="66.6063" width="36" height="47.8939" filterUnits="userSpaceOnUse" color-interpolation-filters="sRGB">
<feFlood flood-opacity="0" result="BackgroundImageFix"/>
<feBlend mode="normal" in="SourceGraphic" in2="BackgroundImageFix" result="shape"/>
<feGaussianBlur stdDeviation="2.5" result="effect1_foregroundBlur_2818_45886"/>
</filter>
<clipPath id="clip0_2818_45886">
<rect x="41.5" y="67" width="22" height="43" rx="4" fill="white"/>
</clipPath>
</defs>
</svg>
