<?xml version="1.0" encoding="UTF-8"?>
<svg id="Layer_2" xmlns="http://www.w3.org/2000/svg" viewBox="0 0 368.9 431.57">
  <defs>
    <style>
      .cls-1 {
        fill: #fff;
      }

      .cls-2 {
        fill: #39b54a;
      }
    </style>
  </defs>
  <g id="Layer_1-2" data-name="Layer_1">
    <g>
      <path class="cls-1" d="M72.91,431.57c-28.25,0-51.23-22.98-51.23-51.23v-1.26c-11.98-.14-21.67-9.93-21.67-21.94s9.7-21.8,21.67-21.94v-24.43c-11.98-.14-21.67-9.93-21.67-21.94s9.7-21.8,21.67-21.94v-24.43c-11.98-.14-21.67-9.93-21.67-21.94s9.7-21.8,21.67-21.94v-24.43c-11.98-.14-21.67-9.93-21.67-21.94s9.7-21.8,21.67-21.94v-24.43c-11.98-.14-21.67-9.93-21.67-21.94s9.7-21.8,21.67-21.94v-10.67C21.67,22.98,44.66,0,72.91,0h244.76c28.25,0,51.23,22.98,51.23,51.23v329.1c0,28.25-22.98,51.23-51.23,51.23H72.91Z"/>
      <g>
        <g>
          <rect class="cls-1" x="41.67" y="20" width="307.23" height="391.57" rx="31.23" ry="31.23"/>
          <path d="M317.67,421.57H72.91c-22.74,0-41.23-18.5-41.23-41.23V51.23c0-22.74,18.5-41.23,41.23-41.23h244.76c22.74,0,41.23,18.5,41.23,41.23v329.1c0,22.74-18.5,41.23-41.23,41.23ZM72.91,30c-11.71,0-21.23,9.53-21.23,21.23v329.1c0,11.71,9.53,21.23,21.23,21.23h244.76c11.71,0,21.23-9.53,21.23-21.23V51.23c0-11.71-9.53-21.23-21.23-21.23H72.91Z"/>
        </g>
        <g>
          <polygon class="cls-2" points="246.8 194.25 234.78 182.23 183.77 233.24 163.21 212.68 151.19 224.7 183.74 257.25 184.33 256.66 184.36 256.69 246.8 194.25"/>
          <path class="cls-2" d="M197.32,305.94c-49.32,0-89.45-40.12-89.45-89.45s40.12-89.45,89.45-89.45,89.45,40.13,89.45,89.45-40.12,89.45-89.45,89.45ZM197.32,144.05c-39.95,0-72.45,32.5-72.45,72.45s32.5,72.45,72.45,72.45,72.45-32.5,72.45-72.45-32.5-72.45-72.45-72.45Z"/>
        </g>
        <g>
          <g>
            <rect x="10.5" y="140.72" width="66.27" height="22.89" rx="11.45" ry="11.45"/>
            <path d="M65.32,164.11H21.95c-6.59,0-11.95-5.36-11.95-11.95s5.36-11.95,11.95-11.95h43.37c6.59,0,11.95,5.36,11.95,11.95s-5.36,11.95-11.95,11.95ZM21.95,141.22c-6.04,0-10.95,4.91-10.95,10.95s4.91,10.95,10.95,10.95h43.37c6.04,0,10.95-4.91,10.95-10.95s-4.91-10.95-10.95-10.95H21.95Z"/>
          </g>
          <g>
            <rect x="10.5" y="209.04" width="66.27" height="22.89" rx="11.45" ry="11.45"/>
            <path d="M65.32,232.43H21.95c-6.59,0-11.95-5.36-11.95-11.95s5.36-11.95,11.95-11.95h43.37c6.59,0,11.95,5.36,11.95,11.95s-5.36,11.95-11.95,11.95ZM21.95,209.54c-6.04,0-10.95,4.91-10.95,10.95s4.91,10.95,10.95,10.95h43.37c6.04,0,10.95-4.91,10.95-10.95s-4.91-10.95-10.95-10.95H21.95Z"/>
          </g>
          <g>
            <rect x="10.5" y="277.36" width="66.27" height="22.89" rx="11.45" ry="11.45"/>
            <path d="M65.32,300.75H21.95c-6.59,0-11.95-5.36-11.95-11.95s5.36-11.95,11.95-11.95h43.37c6.59,0,11.95,5.36,11.95,11.95s-5.36,11.95-11.95,11.95ZM21.95,277.86c-6.04,0-10.95,4.91-10.95,10.95s4.91,10.95,10.95,10.95h43.37c6.04,0,10.95-4.91,10.95-10.95s-4.91-10.95-10.95-10.95H21.95Z"/>
          </g>
          <g>
            <rect x="10.5" y="72.4" width="66.27" height="22.89" rx="11.45" ry="11.45"/>
            <path d="M65.32,95.79H21.95c-6.59,0-11.95-5.36-11.95-11.95s5.36-11.95,11.95-11.95h43.37c6.59,0,11.95,5.36,11.95,11.95s-5.36,11.95-11.95,11.95ZM21.95,72.9c-6.04,0-10.95,4.91-10.95,10.95s4.91,10.95,10.95,10.95h43.37c6.04,0,10.95-4.91,10.95-10.95s-4.91-10.95-10.95-10.95H21.95Z"/>
          </g>
          <g>
            <rect x="10.5" y="345.68" width="66.27" height="22.89" rx="11.45" ry="11.45"/>
            <path d="M65.32,369.07H21.95c-6.59,0-11.95-5.36-11.95-11.95s5.36-11.95,11.95-11.95h43.37c6.59,0,11.95,5.36,11.95,11.95s-5.36,11.95-11.95,11.95ZM21.95,346.18c-6.04,0-10.95,4.91-10.95,10.95s4.91,10.95,10.95,10.95h43.37c6.04,0,10.95-4.91,10.95-10.95s-4.91-10.95-10.95-10.95H21.95Z"/>
          </g>
        </g>
      </g>
    </g>
  </g>
</svg>