<svg xmlns="http://www.w3.org/2000/svg" xmlns:bx="https://boxy-svg.com" viewBox="-3 -3 154 179"><g id="deeditor_bgCarrier" stroke-width="0">
    <rect id="dee_c_e" x="-3" y="-3" width="154" height="179" rx="0" fill="#ffffff" strokewidth="0"/>
  </g><defs fill="#000000"><bx:export fill="#000000"><bx:file format="svg" fill="#000000"/></bx:export></defs><g id="Layer_1" transform="matrix(1, 0, 0, 1, -7.496359, -79.988487)"><path opacity="1.000000" stroke="none" d="M 40.735 253.75 C 34.349 253.547 28.267 254.507 22.519 251.625 C 12.959 246.832 7.62 238.924 7.54 228.564 C 7.219 187.214 7.317 145.859 7.464 104.507 C 7.51 91.493 18.757 80.247 31.762 80.188 C 64.998 80.037 98.236 80.027 131.471 80.239 C 144.946 80.325 155.876 91.535 155.926 105.221 C 156.076 146.057 156.159 186.896 155.896 227.732 C 155.791 243.933 142.744 254.113 129.235 253.894 C 99.871 253.418 70.494 253.749 40.735 253.75 M 139.997 95.842 C 136.882 92.942 133.133 92.093 128.972 92.1 C 97.92 92.153 66.869 92.132 35.817 92.138 C 24.425 92.14 19.323 97.23 19.318 108.635 C 19.306 140.846 19.305 173.057 19.311 205.269 C 19.311 206.424 19.435 207.58 19.522 209.087 C 35.57 188.613 56.047 178.002 81.553 178.129 C 107.206 178.256 127.407 189.801 143.675 209.905 C 143.836 207.904 144.046 206.514 144.046 205.124 C 144.062 172.398 144.07 139.671 144.034 106.944 C 144.029 103.009 143.259 99.247 139.997 95.842 M 85.968 241.766 C 97.172 241.765 108.377 241.771 119.581 241.76 C 123.702 241.756 127.834 241.899 131.941 241.649 C 139.982 241.159 144.001 234.038 140.293 227.074 C 138.109 222.973 135.526 219.126 132.694 215.448 C 116.129 193.936 87.875 184.518 63.106 192.066 C 59.383 193.201 57.702 194.774 57.85 199.034 C 58.213 209.453 57.895 219.893 58.004 230.324 C 58.035 233.255 57.128 234.438 54.033 234.442 C 46.693 234.453 46.691 234.588 46.689 227.162 C 46.687 218.319 46.689 209.476 46.689 200.608 C 44.985 200.549 44.186 201.45 43.278 202.108 C 34.116 208.747 27.514 217.484 22.089 227.315 C 19.111 232.711 20.18 235.383 25.034 239.544 C 27.423 241.592 30.397 241.779 33.423 241.773 C 50.68 241.741 67.937 241.762 85.968 241.766 Z" style="stroke-width: 0.773px; fill: #1a1a1a;"/><path opacity="1.000000" stroke="none" d="M 95.296 116.178 C 104.112 118.843 112.514 118.822 120.99 114.293 C 121.156 117.137 120.129 118.792 119.289 120.423 C 116.757 125.343 114.29 130.313 111.426 135.038 C 109.954 137.468 110.122 139.139 111.934 141.145 C 114.174 143.626 116.191 146.308 118.313 148.896 C 121.6 152.905 121.299 154.048 116.327 155.942 C 108.779 158.818 101.211 158.654 93.698 155.846 C 89.48 154.27 85.322 152.532 81.143 150.853 C 75.271 148.495 69.174 148.036 62.935 148.6 C 59.494 148.911 57.66 150.219 57.893 154.175 C 58.226 159.821 57.861 165.505 58.014 171.167 C 58.084 173.772 57.261 175.301 54.653 175.892 C 52.191 176.45 50.013 178.056 47.436 178.072 C 46.352 176.686 46.703 175.218 46.701 173.847 C 46.677 152.471 46.682 131.096 46.684 109.72 C 46.684 108.819 46.626 107.907 46.744 107.019 C 47.151 103.949 48.903 101.983 52.003 101.821 C 54.877 101.67 56.839 103.266 57.779 106.03 C 58.102 106.979 57.687 108.133 58.954 109.247 C 71.966 104.998 83.143 112.265 95.296 116.178 Z" style="stroke-width: 0.773px; fill: #1a1a1a;"/><path opacity="1.000000" stroke="none" d="M 90.186 212.533 C 88.299 210.307 86.191 208.592 84.763 205.775 C 89.388 204.942 93.249 204.508 96.364 208.671 C 98.736 211.841 101.602 214.66 104.405 217.481 C 106.076 219.163 106.417 220.398 104.521 222.229 C 101.109 225.525 97.868 229.006 94.673 232.517 C 91.882 235.582 88.552 234.008 85.424 234.242 C 85.18 233.94 84.936 233.639 84.692 233.338 C 88.497 228.83 92.301 224.322 96.265 219.625 C 94.175 217.184 92.271 214.961 90.186 212.533 Z" style="stroke-width: 0.773px; fill: #1a1a1a;"/><path opacity="1.000000" stroke="none" d="M 107.838 228.11 C 108.347 226.049 109.782 226.241 111.022 226.23 C 115.902 226.185 120.788 226.316 125.664 226.158 C 128.855 226.055 129.111 227.872 129.127 230.331 C 129.144 232.869 128.692 234.556 125.571 234.425 C 121.596 234.258 117.608 234.391 113.626 234.381 C 107.703 234.366 107.703 234.361 107.838 228.11 Z" style="stroke-width: 0.773px; fill: #1a1a1a;"/></g></svg>
