<svg width="308" height="81" viewBox="0 0 308 81" fill="none" xmlns="http://www.w3.org/2000/svg">
<path d="M108.96 74.7638L69.9614 46.6951L53.4423 59.2138V45.2669H42.654V66.0343L32.711 74.6181L29.5447 70.829L37.7684 63.7316V40.2973H58.3421V49.3038L69.8898 40.545L111.796 70.6978L108.96 74.7638Z" fill="white"/>
<path d="M66.8239 30.8536C63.0702 24.2517 56.0786 20.1566 48.5999 20.1566C41.5366 20.1566 34.9748 23.7417 31.0635 29.7314L26.9946 26.977C31.8229 19.5882 39.9033 15.187 48.5999 15.187C57.8265 15.187 66.4228 20.244 71.0504 28.3761L66.8239 30.8682V30.8536Z" fill="white"/>
<path d="M75.1765 26.3066C69.9614 16.2363 59.7749 9.9696 48.5998 9.9696C38.1983 9.9696 28.6708 15.3327 23.1405 24.3246L19 21.6868C25.4329 11.2375 36.4934 5 48.5998 5C61.5944 5 73.4286 12.2722 79.5033 23.9894L75.1765 26.3066Z" fill="white"/>
<path d="M58.0414 35.5026C56.0929 32.0778 52.4825 29.95 48.5998 29.95C44.7172 29.95 41.3503 31.9029 39.3446 35.1819L35.1897 32.5441C38.0981 27.7931 43.1126 24.9659 48.5998 24.9659C54.0871 24.9659 59.4598 28.0409 62.2822 33.0105L58.0414 35.5026Z" fill="white"/>
<path d="M66.8239 30.8536C63.0702 24.2517 56.0786 20.1566 48.5999 20.1566C41.5366 20.1566 34.9748 23.7417 31.0635 29.7314L26.9946 26.977C31.8229 19.5882 39.9033 15.187 48.5999 15.187C57.8265 15.187 66.4228 20.244 71.0504 28.3761L66.8239 30.8682V30.8536Z" fill="white"/>
<path d="M136 35.1644V13H141.11L146.919 26.329L152.659 13H157.752V35.1644H153.494V21.0201L148.605 32.0739H145.198L140.276 21.0201V35.1644H136.017H136Z" fill="white"/>
<path d="M166.797 35.1644V27.5614L160.001 13H164.838L169.352 23.6366H168.552L173.049 13H177.818L171.056 27.5614V35.1644H166.797Z" fill="white"/>
<path d="M195.56 35.9038C194.146 35.9038 192.852 35.6384 191.71 35.0885C190.569 34.5576 189.666 33.7613 189.002 32.6995C188.338 31.6378 187.98 30.3485 187.929 28.8127H192.477C192.494 29.4195 192.63 29.9693 192.903 30.4243C193.175 30.8794 193.533 31.2586 193.976 31.524C194.436 31.7895 194.964 31.9222 195.56 31.9222C196.071 31.9222 196.514 31.8274 196.906 31.6567C197.297 31.4861 197.604 31.2207 197.825 30.8604C198.047 30.5191 198.166 30.0831 198.166 29.5522C198.166 29.0213 198.03 28.5283 197.774 28.1491C197.502 27.751 197.144 27.4286 196.701 27.1442C196.241 26.8598 195.713 26.5944 195.117 26.3479C194.521 26.1014 193.874 25.8739 193.192 25.6274C191.625 25.0586 190.416 24.2813 189.564 23.3143C188.712 22.3473 188.303 21.0391 188.303 19.4275C188.303 18.0813 188.61 16.9247 189.206 15.9578C189.802 14.9908 190.62 14.2703 191.659 13.7584C192.698 13.2465 193.891 13 195.219 13C196.548 13 197.791 13.2654 198.813 13.7774C199.852 14.2893 200.67 15.0477 201.283 16.0336C201.897 17.0195 202.22 18.1761 202.271 19.5223H197.689C197.672 19.0672 197.553 18.6312 197.331 18.252C197.11 17.8727 196.82 17.5694 196.446 17.3419C196.071 17.1143 195.645 17.0006 195.151 17.0006C194.708 16.9816 194.316 17.0575 193.959 17.2091C193.601 17.3608 193.311 17.6073 193.107 17.9296C192.903 18.2519 192.8 18.6691 192.8 19.1431C192.8 19.6171 192.903 20.0152 193.124 20.3565C193.345 20.6978 193.652 21.0012 194.027 21.2476C194.419 21.4941 194.879 21.7216 195.39 21.9302C195.918 22.1388 196.48 22.3473 197.11 22.5559C198.115 22.9351 199.035 23.3901 199.887 23.9021C200.738 24.414 201.42 25.0965 201.931 25.9308C202.442 26.765 202.714 27.8647 202.714 29.2299C202.714 30.4243 202.442 31.543 201.879 32.5479C201.317 33.5528 200.517 34.368 199.461 34.9937C198.405 35.6194 197.11 35.9038 195.543 35.9038H195.56Z" fill="white"/>
<path d="M205.95 35.5246V13.3602H211.061L216.869 26.6892L222.61 13.3602H227.703V35.5246H223.444V21.3804L218.556 32.4341H215.149L210.226 21.3804V35.5246H205.967H205.95Z" fill="white"/>
<path d="M230.173 35.5246L237.429 13.3602H242.318L249.574 35.5246H245.06L239.865 18.726L234.67 35.5246H230.207H230.173ZM233.324 30.6898L234.465 27.0115H244.907L246.014 30.6898H233.324Z" fill="white"/>
<path d="M252.044 35.5246V13.3602H259.778C261.396 13.3602 262.724 13.6636 263.798 14.2893C264.871 14.915 265.671 15.7492 266.182 16.7731C266.71 17.8159 266.966 18.9535 266.966 20.2238C266.966 21.3993 266.71 22.518 266.216 23.5418C265.722 24.5846 264.939 25.4189 263.866 26.0446C262.81 26.6702 261.43 26.9926 259.744 26.9926H256.303V35.5057H252.044V35.5246ZM256.303 23.5987H259.522C260.578 23.5987 261.362 23.3143 261.873 22.7455C262.367 22.1767 262.622 21.3993 262.622 20.4324C262.622 19.4654 262.367 18.726 261.873 18.1761C261.362 17.6263 260.595 17.3419 259.522 17.3419H256.303V23.6177V23.5987ZM262.299 35.5246L258.296 25.836H262.878L267.136 35.5246H262.299Z" fill="white"/>
<path d="M274.87 35.5246V17.1902H269.095V13.3602H284.903V17.1902H279.128V35.5246H274.87Z" fill="white"/>
<path d="M136 70.6207V48.4564H140.258V70.6207H136ZM139.73 61.2165V57.3866H149.167V61.2165H139.73ZM148.486 70.6207V48.4564H152.744V70.6207H148.486Z" fill="white"/>
<path d="M165.844 71C163.885 71 162.181 70.507 160.699 69.54C159.217 68.5731 158.059 67.2269 157.224 65.5015C156.373 63.7762 155.964 61.7854 155.964 59.5291C155.964 57.2728 156.39 55.282 157.224 53.5567C158.059 51.8313 159.234 50.4851 160.699 49.5182C162.181 48.5512 163.902 48.0582 165.844 48.0582C167.785 48.0582 169.523 48.5512 171.022 49.5182C172.521 50.4851 173.679 51.8313 174.497 53.5567C175.314 55.282 175.74 57.2728 175.74 59.5291C175.74 61.7854 175.331 63.7762 174.497 65.5015C173.662 67.2269 172.504 68.5731 171.022 69.54C169.523 70.507 167.802 71 165.844 71ZM165.844 66.7339C167.002 66.7339 167.99 66.4306 168.807 65.8428C169.625 65.2551 170.272 64.4208 170.732 63.3591C171.192 62.2973 171.414 61.027 171.414 59.5481C171.414 58.0692 171.192 56.7988 170.732 55.7371C170.272 54.6753 169.642 53.8411 168.807 53.2723C167.99 52.6845 166.985 52.4001 165.844 52.4001C164.702 52.4001 163.748 52.6845 162.914 53.2723C162.079 53.86 161.432 54.6753 160.972 55.7371C160.512 56.7988 160.29 58.0692 160.29 59.5481C160.29 61.027 160.512 62.2973 160.972 63.3591C161.432 64.4208 162.079 65.2551 162.914 65.8428C163.748 66.4306 164.719 66.7339 165.844 66.7339Z" fill="white"/>
<path d="M178.908 70.6207V48.4564H184.018L189.827 61.7853L195.567 48.4564H200.66V70.6207H196.402V56.4765L191.513 67.5303H188.107L183.184 56.4765V70.6207H178.925H178.908Z" fill="white"/>
<path d="M204.476 70.6207V48.4564H217.814V52.2863H208.735V57.5004H216.945V61.1786H208.735V66.7718H217.814V70.6018H204.476V70.6207Z" fill="white"/>
<path d="M228.187 71C226.774 71 225.479 70.7346 224.338 70.1847C223.196 69.6538 222.294 68.8575 221.629 67.7957C220.965 66.734 220.607 65.4447 220.556 63.9089H225.104C225.121 64.5156 225.258 65.0655 225.53 65.5205C225.803 65.9756 226.16 66.3548 226.603 66.6202C227.063 66.8857 227.591 67.0184 228.187 67.0184C228.698 67.0184 229.141 66.9236 229.533 66.7529C229.925 66.5823 230.231 66.3169 230.453 65.9566C230.674 65.6153 230.794 65.1793 230.794 64.6484C230.794 64.1175 230.657 63.6245 230.402 63.2453C230.129 62.8472 229.771 62.5248 229.329 62.2404C228.869 61.956 228.341 61.6906 227.744 61.4441C227.148 61.1976 226.501 60.9701 225.82 60.7236C224.253 60.1548 223.043 59.3775 222.191 58.4105C221.34 57.4435 220.931 56.1353 220.931 54.5237C220.931 53.1775 221.238 52.0209 221.834 51.054C222.43 50.087 223.248 49.3665 224.287 48.8546C225.326 48.3427 226.518 48.0962 227.847 48.0962C229.175 48.0962 230.402 48.3616 231.441 48.8736C232.48 49.3855 233.298 50.1439 233.911 51.1298C234.524 52.1157 234.848 53.2723 234.899 54.6185H230.317C230.3 54.1634 230.18 53.7273 229.959 53.3481C229.737 52.9689 229.448 52.6656 229.073 52.4381C228.698 52.2105 228.273 52.0968 227.779 52.0968C227.336 52.0778 226.944 52.1537 226.586 52.3053C226.228 52.457 225.939 52.7035 225.734 53.0258C225.53 53.3481 225.428 53.7653 225.428 54.2393C225.428 54.7133 225.53 55.1114 225.751 55.4527C225.973 55.794 226.28 56.0974 226.654 56.3438C227.046 56.5903 227.506 56.8178 228.017 57.0264C228.545 57.235 229.107 57.4435 229.737 57.6521C230.742 58.0313 231.662 58.4863 232.514 58.9983C233.366 59.5102 234.047 60.1927 234.558 61.027C235.086 61.8612 235.342 62.9609 235.342 64.326C235.342 65.5205 235.069 66.6392 234.507 67.6441C233.945 68.6489 233.144 69.4642 232.088 70.0899C231.032 70.6966 229.737 71 228.17 71H228.187Z" fill="white"/>
</svg>
