<svg width="60" height="60" xmlns="http://www.w3.org/2000/svg" version="1.1">
 <title>web-components/html-templates</title>
 <desc>Created with Sketch.</desc>

 <g>
  <title>Layer 1</title>
  <g id="web-design">
   <path fill="#87CED9" id="Shape" d="m48.62827,51.05804c0,1.34206 -1.08772,2.42977 -2.42978,2.42977l-32.39706,0c-1.34206,0 -2.42978,-1.08771 -2.42978,-2.42977l0,-42.11616c0,-1.34206 1.08772,-2.42977 2.42978,-2.42977l32.39706,0c1.34206,0 2.42978,1.08771 2.42978,2.42977l0,42.11616z"/>
   <path fill="#4398D1" id="Shape" d="m46.19849,53.48789l-37.25661,0c-1.34206,0 -2.42977,-1.08779 -2.42977,-2.42985l0,-2.42977l37.25661,0l0,2.42977c0,1.34206 1.08772,2.42985 2.42977,2.42985z"/>
   <rect height="9.71909" width="16.19853" y="19.47092" x="6.51211" fill="#FDA72F" id="Rectangle-path"/>
   <path fill="#FF8A3D" id="Shape" d="m10.79902,25.96899l-1.61982,-1.61982c-0.31589,-0.31589 -0.31589,-0.82937 0,-1.14527l1.61982,-1.61982l1.14527,1.14527l-1.04727,1.04727l1.04727,1.04711l-1.14527,1.14526z"/>
   <path fill="#FF8A3D" id="Shape" d="m18.42373,25.96899l-1.14526,-1.14526l1.04727,-1.04727l-1.04727,-1.04727l1.14526,-1.14527l1.61982,1.61982c0.31589,0.3159 0.31589,0.82938 0,1.14527l-1.61982,1.61998z"/>
   <rect height="1.61978" width="5.12255" y="40.2321" x="20.14744" transform="rotate(-71.5542 14.6104 23.7771) translate(-8.0983 -17.2649)" fill="#FF8A3D" id="Rectangle-path"/>
   <rect height="16.19853" width="27.53752" y="11.37165" x="25.95036" fill="#4398D1" id="Rectangle-path"/>
   <polygon points="53.487892150878906,24.330463409423828 47.818389892578125,21.0908203125 41.564117431640625,24.330463409423828 34.04962921142578,19.470918655395508 25.950363159179688,24.330463409423828 25.950363159179688,27.570199966430664 53.487892150878906,27.570199966430664 " fill="#3269A1" id="Shape"/>
   <circle r="2.02484" cy="16.63621" cx="44.17374" fill="#E34B87" id="Oval"/>
   <rect height="9.71909" width="20.24813" y="32.42973" x="14.61137" fill="#E34B87" id="Rectangle-path"/>
   <rect height="1.61982" width="3.23972" y="34.8595" x="17.04115" fill="#BF3D75" id="Rectangle-path"/>
   <rect height="1.61982" width="7.28932" y="34.8595" x="21.90069" fill="#BF3D75" id="Rectangle-path"/>
   <rect height="1.61982" width="1.61982" y="34.8595" x="30.80991" fill="#BF3D75" id="Rectangle-path"/>
   <rect height="1.61982" width="9.71909" y="38.09923" x="17.04115" fill="#BF3D75" id="Rectangle-path"/>
   <rect height="1.61982" width="4.04959" y="38.09923" x="28.38014" fill="#BF3D75" id="Rectangle-path"/>
   <rect height="1.61982" width="1.61982" y="8.94188" x="13.80142" fill="#5EB3D1" id="Rectangle-path"/>
   <rect height="1.61982" width="1.61982" y="8.94188" x="17.04115" fill="#5EB3D1" id="Rectangle-path"/>
   <rect height="1.61982" width="1.61982" y="8.94188" x="20.28087" fill="#5EB3D1" id="Rectangle-path"/>
   <rect height="1.61982" width="9.71909" y="12.1816" x="13.80142" fill="#5EB3D1" id="Rectangle-path"/>
   <rect height="9.71909" width="15.38858" y="35.66945" x="38.09923" fill="#E34B87" id="Rectangle-path"/>
   <rect height="1.61982" width="1.61982" y="38.09923" x="40.529" fill="#BF3D75" id="Rectangle-path"/>
   <rect height="1.61982" width="1.61982" y="41.33895" x="40.529" fill="#BF3D75" id="Rectangle-path"/>
   <rect height="1.61982" width="7.28932" y="38.09923" x="43.76872" fill="#BF3D75" id="Rectangle-path"/>
   <rect height="1.61982" width="7.28932" y="41.33895" x="43.76872" fill="#BF3D75" id="Rectangle-path"/>
   <rect height="1.61982" width="21.05808" y="27.57019" x="27.57019" fill="#71C4D1" id="Rectangle-path"/>
   <rect height="1.61982" width="8.90922" y="45.38862" x="39.71913" fill="#71C4D1" id="Rectangle-path"/>
   <polygon points="22.710641860961914,21.0908203125 22.710641860961914,29.19008445739746 11.371652603149414,29.19008445739746 11.371652603149414,30.809919357299805 24.330463409423828,30.809919357299805 24.330463409423828,21.0908203125 " fill="#71C4D1" id="Shape"/>
   <polygon points="34.85950469970703,34.04962730407715 34.85950469970703,42.14890098571777 16.2311954498291,42.14890098571777 16.2311954498291,43.76870536804199 36.479408264160156,43.76870536804199 36.479408264160156,34.04962730407715 " fill="#71C4D1" id="Shape"/>
  </g>
 </g>
</svg>