<svg width="130" height="146" viewBox="0 0 130 146" fill="none" xmlns="http://www.w3.org/2000/svg">
<g filter="url(#filter0_ddd_2818_45884)">
<path d="M36.0005 106.943C42.4988 114.878 52.845 120.011 64.4981 120.011C76.1513 120.011 86.4974 114.878 92.9958 106.943H92.9932V61.2042C92.9932 57.5955 89.8038 54.6701 85.8694 54.6701H43.1269C39.1925 54.6701 36.0031 57.5955 36.0031 61.2042V106.943H36.0005Z" fill="white"/>
<path d="M92.9953 35.0681C86.4969 27.1329 76.1508 22 64.4976 22C52.8445 22 42.5009 28.0647 36.0026 36L36.0031 106.943H92.9932L92.9927 35.0681H92.9953Z" fill="white"/>
<path d="M81.5 41H83.5H87.5V54H81.5V41ZM69.5 41H73.5V101H30C28.3431 101 27 102.343 27 104V106C27 107.306 27.8348 108.417 29 108.829V115H25C23.3431 115 22 116.343 22 118V120C22 121.657 23.3431 123 25 123H105C106.657 123 108 121.657 108 120V118C108 116.343 106.657 115 105 115H101V108.829C102.165 108.417 103 107.306 103 106V104C103 102.343 101.657 101 100 101H95.5V26C95.5 23.2386 93.2614 21 90.5 21H86.5C83.7386 21 81.5 23.2386 81.5 26C81.5 23.2386 79.2614 21 76.5 21H72.5C69.7386 21 67.5 23.2386 67.5 26V39V41H69.5ZM81.5 86V85.9999H87.5V86H81.5ZM87.5 101H81.5V94H87.5V101ZM69 109H73.5V115H69V109ZM87.5 115H81.5V109H87.5V115ZM61 115H37V109H61V115Z" stroke="white" stroke-width="4"/>
<path d="M31 107L35 107L35 117L31 117L31 107Z" fill="#38393E"/>
<path d="M31 107L35 107L35 109L31 109L31 107Z" fill="#25252A"/>
<path d="M95 107L99 107L99 117L95 117L95 107Z" fill="#38393E"/>
<path d="M95 107L99 107L99 109L95 109L95 107Z" fill="#25252A"/>
<path d="M40.5004 105.001C45.9726 112.287 54.685 117 64.4981 117C74.3112 117 83.0236 112.287 88.4958 105.001H88.4936V63.0058C88.4936 59.6924 85.8078 57.0064 82.4947 57.0064H46.5015C43.1884 57.0064 40.5026 59.6924 40.5026 63.0058V105.001H40.5004Z" fill="#38393E"/>
<path d="M88.4954 39.0085C83.0232 31.7226 74.3107 27.0098 64.4977 27.0098C54.6846 27.0098 45.9722 31.7226 40.5 39.0085L40.5022 39.0085L40.5022 105.001L82.4943 105.001L88.4932 105.001L88.4932 99.0021L88.4932 39.0085L88.4954 39.0085Z" fill="#515259"/>
<path d="M47.4958 102.838C47.4973 112.875 57.5442 117 64.4958 117C71.4474 117 81.4958 112.125 81.4958 102.838L81.4942 102.838L81.4942 61.8312C81.4942 59.163 79.5916 57 77.2446 57L51.747 57C49.4 57 47.4973 59.163 47.4973 61.8312L47.4973 102.838L47.4958 102.838Z" fill="#8E8E91"/>
<path d="M81.4958 41.1623C81.4942 31.125 71.4474 27 64.4958 27C57.5442 27 47.4958 31.875 47.4958 41.1623L47.4973 41.1623L47.4973 100.169C47.4973 102.837 49.4 105 51.747 105L77.2446 105C79.5916 105 81.4942 102.837 81.4942 100.169L81.4942 41.1623L81.4958 41.1623Z" fill="#8E8E91"/>
<path d="M52.502 102.839C52.5031 112.875 59.5937 117 64.4998 117C69.4058 117 76.4975 112.126 76.4975 102.839H76.4964V61.837C76.4964 59.1691 75.1536 57.0064 73.4972 57.0064H55.5023C53.8459 57.0064 52.5031 59.1691 52.5031 61.837V102.839H52.502Z" fill="#515259"/>
<path d="M76.4974 41.1696C76.4963 31.1334 69.4058 27.0088 64.4997 27.0088C59.5936 27.0088 52.502 31.8833 52.502 41.1696L52.5031 41.1696L52.503 100.17C52.503 102.838 53.8458 105 55.5022 105L73.4972 105C75.1536 105 76.4963 102.838 76.4963 100.17L76.4963 41.1696L76.4974 41.1696Z" fill="#515259"/>
<path d="M88.4954 39.0085C83.0232 31.7226 74.3107 27.0098 64.4977 27.0098C54.6846 27.0098 45.9722 31.7226 40.5 39.0085L40.5022 39.0085L88.4932 39.0085L88.4954 39.0085Z" fill="white" fill-opacity="0.2"/>
<path d="M40.5 105.001C45.9722 112.287 54.6846 117 64.4977 117C74.3107 117 83.0232 112.287 88.4954 105.001L88.4932 105.001L40.5022 105.001L40.5 105.001Z" fill="white" fill-opacity="0.2"/>
<path d="M63 107L67 107L67 117L63 117L63 107Z" fill="#38393E"/>
<path d="M63 107L67 107L67 109L63 109L63 107Z" fill="#25252A"/>
<path d="M29 106C29 106.552 29.4477 107 30 107H100C100.552 107 101 106.552 101 106V104C101 103.448 100.552 103 100 103H30C29.4477 103 29 103.448 29 104V106Z" fill="#515259"/>
<path d="M29 106C29 106.552 29.4477 107 30 107H100C100.552 107 101 106.552 101 106V105H29V106Z" fill="#38393E"/>
<path d="M24 118C24 117.448 24.4477 117 25 117L105 117C105.552 117 106 117.448 106 118L106 120C106 120.552 105.552 121 105 121L25 121C24.4477 121 24 120.552 24 120L24 118Z" fill="#515259"/>
<path fill-rule="evenodd" clip-rule="evenodd" d="M93.5 26C93.5 24.3431 92.1569 23 90.5 23H86.5C84.8431 23 83.5 24.3431 83.5 26V39H87.5V27H89.5V117H93.5V26Z" fill="#25252A"/>
<path fill-rule="evenodd" clip-rule="evenodd" d="M79.5 26C79.5 24.3431 78.1569 23 76.5 23H72.5C70.8431 23 69.5 24.3431 69.5 26V39H73.5V27H75.5V117H79.5V26Z" fill="#25252A"/>
<path fill-rule="evenodd" clip-rule="evenodd" d="M91.2803 67.9999H77.2803V63.9999H91.2803V67.9999Z" fill="#25252A"/>
<path fill-rule="evenodd" clip-rule="evenodd" d="M91.5 60H77.5V56H91.5V60Z" fill="#25252A"/>
<path fill-rule="evenodd" clip-rule="evenodd" d="M91.2803 75.9999H77.2803V71.9999H91.2803V75.9999Z" fill="#25252A"/>
<path fill-rule="evenodd" clip-rule="evenodd" d="M91.2803 83.9999H77.2803V79.9999H91.2803V83.9999Z" fill="#25252A"/>
<path fill-rule="evenodd" clip-rule="evenodd" d="M91.5 92H77.5V88H91.5V92Z" fill="#25252A"/>
<path d="M24 120C24 120.552 24.4477 121 25 121H105C105.552 121 106 120.552 106 120V119H24V120Z" fill="#38393E"/>
</g>
<defs>
<filter id="filter0_ddd_2818_45884" x="-15" y="-8" width="160" height="160" filterUnits="userSpaceOnUse" color-interpolation-filters="sRGB">
<feFlood flood-opacity="0" result="BackgroundImageFix"/>
<feColorMatrix in="SourceAlpha" type="matrix" values="0 0 0 0 0 0 0 0 0 0 0 0 0 0 0 0 0 0 127 0" result="hardAlpha"/>
<feOffset dy="1"/>
<feGaussianBlur stdDeviation="1"/>
<feColorMatrix type="matrix" values="0 0 0 0 0.309804 0 0 0 0 0.321569 0 0 0 0 0.407843 0 0 0 0.24 0"/>
<feBlend mode="normal" in2="BackgroundImageFix" result="effect1_dropShadow_2818_45884"/>
<feColorMatrix in="SourceAlpha" type="matrix" values="0 0 0 0 0 0 0 0 0 0 0 0 0 0 0 0 0 0 127 0" result="hardAlpha"/>
<feOffset dy="1"/>
<feGaussianBlur stdDeviation="4"/>
<feColorMatrix type="matrix" values="0 0 0 0 0.309804 0 0 0 0 0.321569 0 0 0 0 0.407843 0 0 0 0.08 0"/>
<feBlend mode="normal" in2="effect1_dropShadow_2818_45884" result="effect2_dropShadow_2818_45884"/>
<feColorMatrix in="SourceAlpha" type="matrix" values="0 0 0 0 0 0 0 0 0 0 0 0 0 0 0 0 0 0 127 0" result="hardAlpha"/>
<feMorphology radius="4" operator="dilate" in="SourceAlpha" result="effect3_dropShadow_2818_45884"/>
<feOffset dy="1"/>
<feGaussianBlur stdDeviation="8"/>
<feColorMatrix type="matrix" values="0 0 0 0 0.309804 0 0 0 0 0.321569 0 0 0 0 0.407843 0 0 0 0.1 0"/>
<feBlend mode="normal" in2="effect2_dropShadow_2818_45884" result="effect3_dropShadow_2818_45884"/>
<feBlend mode="normal" in="SourceGraphic" in2="effect3_dropShadow_2818_45884" result="shape"/>
</filter>
</defs>
</svg>
