<?xml version="1.0" encoding="UTF-8" standalone="no"?>
<!DOCTYPE svg PUBLIC "-//W3C//DTD SVG 1.1//EN"
 "http://www.w3.org/Graphics/SVG/1.1/DTD/svg11.dtd">
<!-- Generated by graphviz version 12.2.1 (20241206.2353)
 -->
<!-- Title: G Pages: 1 -->
<svg width="900pt" height="744pt"
 viewBox="0.00 0.00 900.35 743.66" xmlns="http://www.w3.org/2000/svg" xmlns:xlink="http://www.w3.org/1999/xlink">
<g id="graph0" class="graph" transform="scale(1 1) rotate(0) translate(4 739.66)">
<title>G</title>
<polygon fill="white" stroke="none" points="-4,4 -4,-739.66 896.35,-739.66 896.35,4 -4,4"/>
<g id="clust1" class="cluster">
<title>cluster__legend</title>
<polygon fill="#ffffff" stroke="black" points="111.3,-629.88 111.3,-711.08 455.3,-711.08 455.3,-629.88 111.3,-629.88"/>
<text text-anchor="middle" x="283.3" y="-693.78" font-family="Helvetica,sans-Serif" font-size="14.00">Legend</text>
</g>
<!-- input -->
<g id="node1" class="node">
<title>input</title>
<polygon fill="#ffffff" stroke="black" stroke-dasharray="5,2" points="173.3,-677.28 119.3,-677.28 119.3,-639.93 173.3,-639.93 173.3,-677.28"/>
<text text-anchor="middle" x="146.3" y="-653.18" font-family="Helvetica,sans-Serif" font-size="14.00">input</text>
</g>
<!-- function -->
<g id="node2" class="node">
<title>function</title>
<path fill="#b4d8e4" stroke="black" d="M247.73,-677.28C247.73,-677.28 202.88,-677.28 202.88,-677.28 196.88,-677.28 190.88,-671.28 190.88,-665.28 190.88,-665.28 190.88,-651.93 190.88,-651.93 190.88,-645.93 196.88,-639.93 202.88,-639.93 202.88,-639.93 247.73,-639.93 247.73,-639.93 253.73,-639.93 259.73,-645.93 259.73,-651.93 259.73,-651.93 259.73,-665.28 259.73,-665.28 259.73,-671.28 253.73,-677.28 247.73,-677.28"/>
<text text-anchor="middle" x="225.3" y="-653.18" font-family="Helvetica,sans-Serif" font-size="14.00">function</text>
</g>
<!-- output -->
<g id="node3" class="node">
<title>output</title>
<path fill="#ffc857" stroke="black" d="M324.85,-677.28C324.85,-677.28 289.75,-677.28 289.75,-677.28 283.75,-677.28 277.75,-671.28 277.75,-665.28 277.75,-665.28 277.75,-651.93 277.75,-651.93 277.75,-645.93 283.75,-639.93 289.75,-639.93 289.75,-639.93 324.85,-639.93 324.85,-639.93 330.85,-639.93 336.85,-645.93 336.85,-651.93 336.85,-651.93 336.85,-665.28 336.85,-665.28 336.85,-671.28 330.85,-677.28 324.85,-677.28"/>
<text text-anchor="middle" x="307.3" y="-653.18" font-family="Helvetica,sans-Serif" font-size="14.00">output</text>
</g>
<!-- materializer -->
<g id="node4" class="node">
<title>materializer</title>
<path fill="#ffffff" stroke="black" d="M447.35,-675.56C447.35,-677.64 426.71,-679.33 401.3,-679.33 375.89,-679.33 355.25,-677.64 355.25,-675.56 355.25,-675.56 355.25,-641.65 355.25,-641.65 355.25,-639.57 375.89,-637.88 401.3,-637.88 426.71,-637.88 447.35,-639.57 447.35,-641.65 447.35,-641.65 447.35,-675.56 447.35,-675.56"/>
<path fill="none" stroke="black" d="M447.35,-675.56C447.35,-673.48 426.71,-671.8 401.3,-671.8 375.89,-671.8 355.25,-673.48 355.25,-675.56"/>
<text text-anchor="middle" x="401.3" y="-653.18" font-family="Helvetica,sans-Serif" font-size="14.00">materializer</text>
</g>
<!-- save_multiple_toy1d_train_plots -->
<g id="node5" class="node">
<title>save_multiple_toy1d_train_plots</title>
<path fill="#ffc857" stroke="black" d="M552.1,-195.95C552.1,-200.34 500.2,-203.9 436.3,-203.9 372.4,-203.9 320.5,-200.34 320.5,-195.95 320.5,-195.95 320.5,-124.4 320.5,-124.4 320.5,-120.01 372.4,-116.45 436.3,-116.45 500.2,-116.45 552.1,-120.01 552.1,-124.4 552.1,-124.4 552.1,-195.95 552.1,-195.95"/>
<path fill="none" stroke="black" d="M552.1,-195.95C552.1,-191.57 500.2,-188 436.3,-188 372.4,-188 320.5,-191.57 320.5,-195.95"/>
<text text-anchor="start" x="331.3" y="-168.88" font-family="Helvetica,sans-Serif" font-weight="bold" font-size="14.00">save_multiple_toy1d_train_plots</text>
<text text-anchor="start" x="335.05" y="-140.88" font-family="Helvetica,sans-Serif" font-style="italic" font-size="14.00">save_multiple_toy1d_train_plots()</text>
</g>
<!-- multiple_toy1d_train_plots -->
<g id="node6" class="node">
<title>multiple_toy1d_train_plots</title>
<path fill="#b4d8e4" stroke="black" d="M868.35,-308.43C868.35,-308.43 698.25,-308.43 698.25,-308.43 692.25,-308.43 686.25,-302.43 686.25,-296.43 686.25,-296.43 686.25,-256.83 686.25,-256.83 686.25,-250.83 692.25,-244.83 698.25,-244.83 698.25,-244.83 868.35,-244.83 868.35,-244.83 874.35,-244.83 880.35,-250.83 880.35,-256.83 880.35,-256.83 880.35,-296.43 880.35,-296.43 880.35,-302.43 874.35,-308.43 868.35,-308.43"/>
<text text-anchor="start" x="697.05" y="-285.33" font-family="Helvetica,sans-Serif" font-weight="bold" font-size="14.00">multiple_toy1d_train_plots</text>
<text text-anchor="start" x="772.8" y="-257.33" font-family="Helvetica,sans-Serif" font-style="italic" font-size="14.00">dict</text>
</g>
<!-- multiple_toy1d_train_plots&#45;&gt;save_multiple_toy1d_train_plots -->
<g id="edge1" class="edge">
<title>multiple_toy1d_train_plots&#45;&gt;save_multiple_toy1d_train_plots</title>
<path fill="none" stroke="black" d="M708.35,-244.41C697.98,-240.38 687.41,-236.44 677.3,-232.9 640.64,-220.09 600.35,-207.52 563.38,-196.57"/>
<polygon fill="black" stroke="black" points="564.58,-193.27 553.99,-193.8 562.6,-199.99 564.58,-193.27"/>
</g>
<!-- save_multiple_toy1d_consolidated_train_statistics -->
<g id="node7" class="node">
<title>save_multiple_toy1d_consolidated_train_statistics</title>
<path fill="#ffc857" stroke="black" d="M668.6,-312.4C668.6,-316.79 590.48,-320.35 494.3,-320.35 398.12,-320.35 320,-316.79 320,-312.4 320,-312.4 320,-240.85 320,-240.85 320,-236.47 398.12,-232.9 494.3,-232.9 590.48,-232.9 668.6,-236.47 668.6,-240.85 668.6,-240.85 668.6,-312.4 668.6,-312.4"/>
<path fill="none" stroke="black" d="M668.6,-312.4C668.6,-308.02 590.48,-304.45 494.3,-304.45 398.12,-304.45 320,-308.02 320,-312.4"/>
<text text-anchor="start" x="330.8" y="-285.33" font-family="Helvetica,sans-Serif" font-weight="bold" font-size="14.00">save_multiple_toy1d_consolidated_train_statistics</text>
<text text-anchor="start" x="339.8" y="-257.33" font-family="Helvetica,sans-Serif" font-style="italic" font-size="14.00">save_multiple_toy1d_consolidated_train_statistics()</text>
</g>
<!-- multiple_toy1d_consolidated_metrics -->
<g id="node8" class="node">
<title>multiple_toy1d_consolidated_metrics</title>
<path fill="#b4d8e4" stroke="black" d="M252.6,-191.98C252.6,-191.98 12,-191.98 12,-191.98 6,-191.98 0,-185.98 0,-179.98 0,-179.98 0,-140.38 0,-140.38 0,-134.38 6,-128.38 12,-128.38 12,-128.38 252.6,-128.38 252.6,-128.38 258.6,-128.38 264.6,-134.38 264.6,-140.38 264.6,-140.38 264.6,-179.98 264.6,-179.98 264.6,-185.98 258.6,-191.98 252.6,-191.98"/>
<text text-anchor="start" x="10.8" y="-168.88" font-family="Helvetica,sans-Serif" font-weight="bold" font-size="14.00">multiple_toy1d_consolidated_metrics</text>
<text text-anchor="start" x="121.8" y="-140.88" font-family="Helvetica,sans-Serif" font-style="italic" font-size="14.00">dict</text>
</g>
<!-- save_multiple_toy1d_consolidated_metrics -->
<g id="node9" class="node">
<title>save_multiple_toy1d_consolidated_metrics</title>
<path fill="#ffc857" stroke="black" d="M363.35,-79.5C363.35,-83.89 295.65,-87.45 212.3,-87.45 128.95,-87.45 61.25,-83.89 61.25,-79.5 61.25,-79.5 61.25,-7.95 61.25,-7.95 61.25,-3.56 128.95,0 212.3,0 295.65,0 363.35,-3.56 363.35,-7.95 363.35,-7.95 363.35,-79.5 363.35,-79.5"/>
<path fill="none" stroke="black" d="M363.35,-79.5C363.35,-75.11 295.65,-71.55 212.3,-71.55 128.95,-71.55 61.25,-75.11 61.25,-79.5"/>
<text text-anchor="start" x="72.05" y="-52.43" font-family="Helvetica,sans-Serif" font-weight="bold" font-size="14.00">save_multiple_toy1d_consolidated_metrics</text>
<text text-anchor="start" x="78.43" y="-24.43" font-family="Helvetica,sans-Serif" font-style="italic" font-size="14.00">save_multiple_toy1d_consolidated_metrics()</text>
</g>
<!-- multiple_toy1d_consolidated_metrics&#45;&gt;save_multiple_toy1d_consolidated_metrics -->
<g id="edge2" class="edge">
<title>multiple_toy1d_consolidated_metrics&#45;&gt;save_multiple_toy1d_consolidated_metrics</title>
<path fill="none" stroke="black" d="M154.16,-127.9C160.89,-118.28 168.48,-107.41 175.91,-96.79"/>
<polygon fill="black" stroke="black" points="178.64,-98.99 181.5,-88.79 172.9,-94.98 178.64,-98.99"/>
</g>
<!-- multiple_toy1d_consolidated_train_statistics -->
<g id="node10" class="node">
<title>multiple_toy1d_consolidated_train_statistics</title>
<path fill="#b4d8e4" stroke="black" d="M674.85,-436.45C674.85,-436.45 387.75,-436.45 387.75,-436.45 381.75,-436.45 375.75,-430.45 375.75,-424.45 375.75,-424.45 375.75,-384.85 375.75,-384.85 375.75,-378.85 381.75,-372.85 387.75,-372.85 387.75,-372.85 674.85,-372.85 674.85,-372.85 680.85,-372.85 686.85,-378.85 686.85,-384.85 686.85,-384.85 686.85,-424.45 686.85,-424.45 686.85,-430.45 680.85,-436.45 674.85,-436.45"/>
<text text-anchor="start" x="386.55" y="-413.35" font-family="Helvetica,sans-Serif" font-weight="bold" font-size="14.00">multiple_toy1d_consolidated_train_statistics</text>
<text text-anchor="start" x="520.8" y="-385.35" font-family="Helvetica,sans-Serif" font-style="italic" font-size="14.00">dict</text>
</g>
<!-- multiple_toy1d_consolidated_train_statistics&#45;&gt;multiple_toy1d_train_plots -->
<g id="edge3" class="edge">
<title>multiple_toy1d_consolidated_train_statistics&#45;&gt;multiple_toy1d_train_plots</title>
<path fill="none" stroke="black" d="M593.59,-372.5C629.03,-354.78 673.59,-332.49 710.62,-313.98"/>
<polygon fill="black" stroke="black" points="712.12,-317.14 719.5,-309.54 708.99,-310.88 712.12,-317.14"/>
</g>
<!-- multiple_toy1d_consolidated_train_statistics&#45;&gt;save_multiple_toy1d_consolidated_train_statistics -->
<g id="edge4" class="edge">
<title>multiple_toy1d_consolidated_train_statistics&#45;&gt;save_multiple_toy1d_consolidated_train_statistics</title>
<path fill="none" stroke="black" d="M522.15,-372.5C518.54,-360.19 514.28,-345.68 510.19,-331.76"/>
<polygon fill="black" stroke="black" points="513.57,-330.84 507.4,-322.23 506.85,-332.81 513.57,-330.84"/>
</g>
<!-- multiple_toy1d_trainings_info -->
<g id="node11" class="node">
<title>multiple_toy1d_trainings_info</title>
<path fill="#b4d8e4" stroke="black" d="M626.48,-552.55C626.48,-552.55 436.12,-552.55 436.12,-552.55 430.12,-552.55 424.12,-546.55 424.12,-540.55 424.12,-540.55 424.12,-500.95 424.12,-500.95 424.12,-494.95 430.12,-488.95 436.12,-488.95 436.12,-488.95 626.48,-488.95 626.48,-488.95 632.48,-488.95 638.48,-494.95 638.48,-500.95 638.48,-500.95 638.48,-540.55 638.48,-540.55 638.48,-546.55 632.48,-552.55 626.48,-552.55"/>
<text text-anchor="start" x="434.92" y="-529.45" font-family="Helvetica,sans-Serif" font-weight="bold" font-size="14.00">multiple_toy1d_trainings_info</text>
<text text-anchor="start" x="523.05" y="-501.45" font-family="Helvetica,sans-Serif" font-style="italic" font-size="14.00">list</text>
</g>
<!-- multiple_toy1d_trainings_info&#45;&gt;multiple_toy1d_consolidated_train_statistics -->
<g id="edge5" class="edge">
<title>multiple_toy1d_trainings_info&#45;&gt;multiple_toy1d_consolidated_train_statistics</title>
<path fill="none" stroke="black" d="M531.3,-488.58C531.3,-476.12 531.3,-461.58 531.3,-448.19"/>
<polygon fill="black" stroke="black" points="534.8,-448.31 531.3,-438.31 527.8,-448.31 534.8,-448.31"/>
</g>
<!-- save_multiple_toy1d_parameters -->
<g id="node12" class="node">
<title>save_multiple_toy1d_parameters</title>
<path fill="#ffc857" stroke="black" d="M880.35,-552.55C880.35,-552.55 668.25,-552.55 668.25,-552.55 662.25,-552.55 656.25,-546.55 656.25,-540.55 656.25,-540.55 656.25,-500.95 656.25,-500.95 656.25,-494.95 662.25,-488.95 668.25,-488.95 668.25,-488.95 880.35,-488.95 880.35,-488.95 886.35,-488.95 892.35,-494.95 892.35,-500.95 892.35,-500.95 892.35,-540.55 892.35,-540.55 892.35,-546.55 886.35,-552.55 880.35,-552.55"/>
<text text-anchor="start" x="667.05" y="-529.45" font-family="Helvetica,sans-Serif" font-weight="bold" font-size="14.00">save_multiple_toy1d_parameters</text>
<text text-anchor="start" x="763.8" y="-501.45" font-family="Helvetica,sans-Serif" font-style="italic" font-size="14.00">dict</text>
</g>
<!-- multiple_toy1d_metrics -->
<g id="node13" class="node">
<title>multiple_toy1d_metrics</title>
<path fill="#b4d8e4" stroke="black" d="M230.23,-308.43C230.23,-308.43 80.37,-308.43 80.37,-308.43 74.37,-308.43 68.37,-302.43 68.37,-296.43 68.37,-296.43 68.37,-256.83 68.37,-256.83 68.37,-250.83 74.37,-244.83 80.37,-244.83 80.37,-244.83 230.23,-244.83 230.23,-244.83 236.23,-244.83 242.23,-250.83 242.23,-256.83 242.23,-256.83 242.23,-296.43 242.23,-296.43 242.23,-302.43 236.23,-308.43 230.23,-308.43"/>
<text text-anchor="start" x="79.18" y="-285.33" font-family="Helvetica,sans-Serif" font-weight="bold" font-size="14.00">multiple_toy1d_metrics</text>
<text text-anchor="start" x="147.05" y="-257.33" font-family="Helvetica,sans-Serif" font-style="italic" font-size="14.00">list</text>
</g>
<!-- multiple_toy1d_metrics&#45;&gt;multiple_toy1d_consolidated_metrics -->
<g id="edge6" class="edge">
<title>multiple_toy1d_metrics&#45;&gt;multiple_toy1d_consolidated_metrics</title>
<path fill="none" stroke="black" d="M149.02,-244.35C146.48,-231.74 143.52,-216.99 140.79,-203.44"/>
<polygon fill="black" stroke="black" points="144.28,-203.01 138.88,-193.9 137.41,-204.39 144.28,-203.01"/>
</g>
<!-- _save_multiple_toy1d_train_plots_inputs -->
<g id="node14" class="node">
<title>_save_multiple_toy1d_train_plots_inputs</title>
<polygon fill="#ffffff" stroke="black" stroke-dasharray="5,2" points="337.1,-427.33 247.5,-427.33 247.5,-381.98 337.1,-381.98 337.1,-427.33"/>
<text text-anchor="start" x="262.3" y="-399.23" font-family="Helvetica,sans-Serif" font-size="14.00">output_dir</text>
</g>
<!-- _save_multiple_toy1d_train_plots_inputs&#45;&gt;save_multiple_toy1d_train_plots -->
<g id="edge7" class="edge">
<title>_save_multiple_toy1d_train_plots_inputs&#45;&gt;save_multiple_toy1d_train_plots</title>
<path fill="none" stroke="black" d="M292.3,-275.63C297.98,-255.64 297.38,-248.33 311.3,-232.9 319.26,-224.09 328.56,-216.07 338.44,-208.87"/>
<polygon fill="black" stroke="black" points="340.18,-211.92 346.41,-203.34 336.19,-206.16 340.18,-211.92"/>
</g>
<!-- _save_multiple_toy1d_train_plots_inputs&#45;&gt;save_multiple_toy1d_consolidated_train_statistics -->
<g id="edge8" class="edge">
<title>_save_multiple_toy1d_train_plots_inputs&#45;&gt;save_multiple_toy1d_consolidated_train_statistics</title>
<path fill="none" stroke="black" d="M320.54,-381.67C334.11,-371.44 350.76,-359.36 366.3,-349.35 378.33,-341.61 391.25,-333.81 404.08,-326.35"/>
<polygon fill="black" stroke="black" points="405.63,-329.5 412.55,-321.48 402.14,-323.43 405.63,-329.5"/>
</g>
<!-- _save_multiple_toy1d_train_plots_inputs&#45;&gt;save_multiple_toy1d_consolidated_metrics -->
<g id="edge10" class="edge">
<title>_save_multiple_toy1d_train_plots_inputs&#45;&gt;save_multiple_toy1d_consolidated_metrics</title>
<path fill="none" stroke="black" d="M292.3,-275.63C311.78,-207.09 301.82,-181.74 273.3,-116.45 270.35,-109.71 266.56,-103.12 262.3,-96.84"/>
<polygon fill="black" stroke="black" points="265.39,-95.13 256.67,-89.1 259.73,-99.24 265.39,-95.13"/>
<path fill="none" stroke="black" d="M288.83,-381.78C285.57,-356.26 282.51,-313.06 292.3,-277.63"/>
</g>
<!-- _save_multiple_toy1d_train_plots_inputs&#45;&gt;multiple_toy1d_metrics -->
<g id="edge9" class="edge">
<title>_save_multiple_toy1d_train_plots_inputs&#45;&gt;multiple_toy1d_metrics</title>
<path fill="none" stroke="black" d="M268.44,-381.7C248.91,-363.74 220.81,-337.89 197.5,-316.45"/>
<polygon fill="black" stroke="black" points="200,-313.99 190.27,-309.79 195.26,-319.14 200,-313.99"/>
</g>
<!-- _multiple_toy1d_train_plots_inputs -->
<g id="node15" class="node">
<title>_multiple_toy1d_train_plots_inputs</title>
<polygon fill="#ffffff" stroke="black" stroke-dasharray="5,2" points="840.47,-459.95 726.12,-459.95 726.12,-349.35 840.47,-349.35 840.47,-459.95"/>
<text text-anchor="start" x="752.17" y="-431.85" font-family="Helvetica,sans-Serif" font-size="14.00">plot_prefix</text>
<text text-anchor="start" x="751.42" y="-410.1" font-family="Helvetica,sans-Serif" font-size="14.00">log_y_axis</text>
<text text-anchor="start" x="740.92" y="-388.35" font-family="Helvetica,sans-Serif" font-size="14.00">series_names</text>
<text text-anchor="start" x="764.17" y="-366.6" font-family="Helvetica,sans-Serif" font-size="14.00">x_axis</text>
</g>
<!-- _multiple_toy1d_train_plots_inputs&#45;&gt;multiple_toy1d_train_plots -->
<g id="edge11" class="edge">
<title>_multiple_toy1d_train_plots_inputs&#45;&gt;multiple_toy1d_train_plots</title>
<path fill="none" stroke="black" d="M783.3,-349.11C783.3,-339.38 783.3,-329.38 783.3,-320.05"/>
<polygon fill="black" stroke="black" points="786.8,-320.18 783.3,-310.18 779.8,-320.18 786.8,-320.18"/>
</g>
<!-- _multiple_toy1d_trainings_info_inputs -->
<g id="node16" class="node">
<title>_multiple_toy1d_trainings_info_inputs</title>
<polygon fill="#ffffff" stroke="black" stroke-dasharray="5,2" points="597.1,-735.66 465.5,-735.66 465.5,-581.55 597.1,-581.55 597.1,-735.66"/>
<text text-anchor="start" x="501.3" y="-707.55" font-family="Helvetica,sans-Serif" font-size="14.00">output_dir</text>
<text text-anchor="start" x="514.05" y="-685.8" font-family="Helvetica,sans-Serif" font-size="14.00">n_run</text>
<text text-anchor="start" x="480.3" y="-664.05" font-family="Helvetica,sans-Serif" font-size="14.00">aditional_outputs</text>
<text text-anchor="start" x="497.92" y="-642.3" font-family="Helvetica,sans-Serif" font-size="14.00">toy1d_args</text>
<text text-anchor="start" x="507.3" y="-620.55" font-family="Helvetica,sans-Serif" font-size="14.00">minimal</text>
<text text-anchor="start" x="498.3" y="-598.8" font-family="Helvetica,sans-Serif" font-size="14.00">base_seed</text>
</g>
<!-- _multiple_toy1d_trainings_info_inputs&#45;&gt;multiple_toy1d_trainings_info -->
<g id="edge12" class="edge">
<title>_multiple_toy1d_trainings_info_inputs&#45;&gt;multiple_toy1d_trainings_info</title>
<path fill="none" stroke="black" d="M531.3,-581.34C531.3,-575.54 531.3,-569.81 531.3,-564.35"/>
<polygon fill="black" stroke="black" points="534.8,-564.37 531.3,-554.37 527.8,-564.37 534.8,-564.37"/>
</g>
<!-- _save_multiple_toy1d_parameters_inputs -->
<g id="node17" class="node">
<title>_save_multiple_toy1d_parameters_inputs</title>
<polygon fill="#ffffff" stroke="black" stroke-dasharray="5,2" points="822.47,-713.9 726.12,-713.9 726.12,-603.3 822.47,-603.3 822.47,-713.9"/>
<text text-anchor="start" x="744.3" y="-685.8" font-family="Helvetica,sans-Serif" font-size="14.00">output_dir</text>
<text text-anchor="start" x="757.05" y="-664.05" font-family="Helvetica,sans-Serif" font-size="14.00">n_run</text>
<text text-anchor="start" x="740.92" y="-642.3" font-family="Helvetica,sans-Serif" font-size="14.00">toy1d_args</text>
<text text-anchor="start" x="741.3" y="-620.55" font-family="Helvetica,sans-Serif" font-size="14.00">base_seed</text>
</g>
<!-- _save_multiple_toy1d_parameters_inputs&#45;&gt;save_multiple_toy1d_parameters -->
<g id="edge13" class="edge">
<title>_save_multiple_toy1d_parameters_inputs&#45;&gt;save_multiple_toy1d_parameters</title>
<path fill="none" stroke="black" d="M774.3,-603.13C774.3,-590.15 774.3,-576.49 774.3,-564.15"/>
<polygon fill="black" stroke="black" points="777.8,-564.3 774.3,-554.3 770.8,-564.3 777.8,-564.3"/>
</g>
</g>
</svg>
