<svg width="120" height="150" viewBox="0 0 120 150" fill="none" xmlns="http://www.w3.org/2000/svg">
<g filter="url(#filter0_ddd_2818_45670)">
<path d="M55.4121 32.0819C55.4121 32.0819 59.4907 23 70.7062 23C81.9218 23 86.0003 31.5842 86.0003 32.0819M86.0003 32.0891V120.96C86.0003 123.191 84.1743 125 81.9219 125H59.4906C57.2381 125 55.4121 123.191 55.4121 120.96C55.4121 120.96 54.3925 33.099 55.4121 32.0891" stroke="white" stroke-width="8"/>
<mask id="path-2-outside-1_2818_45670" maskUnits="userSpaceOnUse" x="30" y="28.0891" width="47" height="101" fill="black">
<rect fill="white" x="30" y="28.0891" width="47" height="101"/>
<path fill-rule="evenodd" clip-rule="evenodd" d="M34 35.1188C34 33.4456 35.3695 32.0891 37.0588 32.0891H66.6274V36.1287H38.0784V55.3168H48.2744V44.2079C48.2744 42.5347 49.6439 41.1782 51.3332 41.1782H72.2351V45.2178H52.3528V125H48.2744V107.832H38.0784V125H34V35.1188ZM38.0784 103.792H48.2744V99.7525H38.0784V103.792ZM48.2744 91.6733V95.7129H38.0784V91.6733H48.2744ZM48.2744 59.3564H38.0784V63.396H48.2744V59.3564ZM38.0784 71.4752V67.4356H48.2744V71.4752H38.0784ZM48.2744 75.5149H38.0784V79.5545H48.2744V75.5149ZM38.0784 87.6337V83.5941H48.2744V87.6337H38.0784Z"/>
</mask>
<path d="M66.6274 32.0891H70.6274V28.0891H66.6274V32.0891ZM66.6274 36.1287V40.1287H70.6274V36.1287H66.6274ZM38.0784 36.1287V32.1287H34.0784V36.1287H38.0784ZM38.0784 55.3168H34.0784V59.3168H38.0784V55.3168ZM48.2744 55.3168V59.3168H52.2744V55.3168H48.2744ZM72.2351 41.1782H76.2351V37.1782H72.2351V41.1782ZM72.2351 45.2178V49.2178H76.2351V45.2178H72.2351ZM52.3528 45.2178V41.2178H48.3528V45.2178H52.3528ZM52.3528 125V129H56.3528V125H52.3528ZM48.2744 125H44.2744V129H48.2744V125ZM48.2744 107.832H52.2744V103.832H48.2744V107.832ZM38.0784 107.832V103.832H34.0784V107.832H38.0784ZM38.0784 125V129H42.0784V125H38.0784ZM34 125H30V129H34V125ZM48.2744 103.792V107.792H52.2744V103.792H48.2744ZM38.0784 103.792H34.0784V107.792H38.0784V103.792ZM48.2744 99.7525H52.2744V95.7525H48.2744V99.7525ZM38.0784 99.7525V95.7525H34.0784V99.7525H38.0784ZM48.2744 95.7129V99.7129H52.2744V95.7129H48.2744ZM48.2744 91.6733H52.2744V87.6733H48.2744V91.6733ZM38.0784 95.7129H34.0784V99.7129H38.0784V95.7129ZM38.0784 91.6733V87.6733H34.0784V91.6733H38.0784ZM38.0784 59.3564V55.3564H34.0784V59.3564H38.0784ZM48.2744 59.3564H52.2744V55.3564H48.2744V59.3564ZM38.0784 63.396H34.0784V67.396H38.0784V63.396ZM48.2744 63.396V67.396H52.2744V63.396H48.2744ZM38.0784 67.4356V63.4356H34.0784V67.4356H38.0784ZM38.0784 71.4752H34.0784V75.4752H38.0784V71.4752ZM48.2744 67.4356H52.2744V63.4356H48.2744V67.4356ZM48.2744 71.4752V75.4752H52.2744V71.4752H48.2744ZM38.0784 75.5149V71.5149H34.0784V75.5149H38.0784ZM48.2744 75.5149H52.2744V71.5149H48.2744V75.5149ZM38.0784 79.5545H34.0784V83.5545H38.0784V79.5545ZM48.2744 79.5545V83.5545H52.2744V79.5545H48.2744ZM38.0784 83.5941V79.5941H34.0784V83.5941H38.0784ZM38.0784 87.6337H34.0784V91.6337H38.0784V87.6337ZM48.2744 83.5941H52.2744V79.5941H48.2744V83.5941ZM48.2744 87.6337V91.6337H52.2744V87.6337H48.2744ZM37.0588 28.0891C33.1965 28.0891 30 31.2004 30 35.1188H38C38 35.6907 37.5425 36.0891 37.0588 36.0891V28.0891ZM66.6274 28.0891H37.0588V36.0891H66.6274V28.0891ZM70.6274 36.1287V32.0891H62.6274V36.1287H70.6274ZM38.0784 40.1287H66.6274V32.1287H38.0784V40.1287ZM42.0784 55.3168V36.1287H34.0784V55.3168H42.0784ZM48.2744 51.3168H38.0784V59.3168H48.2744V51.3168ZM44.2744 44.2079V55.3168H52.2744V44.2079H44.2744ZM51.3332 37.1782C47.4709 37.1782 44.2744 40.2895 44.2744 44.2079H52.2744C52.2744 44.7798 51.8169 45.1782 51.3332 45.1782V37.1782ZM72.2351 37.1782H51.3332V45.1782H72.2351V37.1782ZM76.2351 45.2178V41.1782H68.2351V45.2178H76.2351ZM52.3528 49.2178H72.2351V41.2178H52.3528V49.2178ZM56.3528 125V45.2178H48.3528V125H56.3528ZM48.2744 129H52.3528V121H48.2744V129ZM44.2744 107.832V125H52.2744V107.832H44.2744ZM38.0784 111.832H48.2744V103.832H38.0784V111.832ZM42.0784 125V107.832H34.0784V125H42.0784ZM34 129H38.0784V121H34V129ZM30 35.1188V125H38V35.1188H30ZM48.2744 99.7921H38.0784V107.792H48.2744V99.7921ZM44.2744 99.7525V103.792H52.2744V99.7525H44.2744ZM38.0784 103.752H48.2744V95.7525H38.0784V103.752ZM42.0784 103.792V99.7525H34.0784V103.792H42.0784ZM52.2744 95.7129V91.6733H44.2744V95.7129H52.2744ZM38.0784 99.7129H48.2744V91.7129H38.0784V99.7129ZM34.0784 91.6733V95.7129H42.0784V91.6733H34.0784ZM48.2744 87.6733H38.0784V95.6733H48.2744V87.6733ZM38.0784 63.3564H48.2744V55.3564H38.0784V63.3564ZM42.0784 63.396V59.3564H34.0784V63.396H42.0784ZM48.2744 59.396H38.0784V67.396H48.2744V59.396ZM44.2744 59.3564V63.396H52.2744V59.3564H44.2744ZM34.0784 67.4356V71.4752H42.0784V67.4356H34.0784ZM48.2744 63.4356H38.0784V71.4356H48.2744V63.4356ZM52.2744 71.4752V67.4356H44.2744V71.4752H52.2744ZM38.0784 75.4752H48.2744V67.4752H38.0784V75.4752ZM38.0784 79.5149H48.2744V71.5149H38.0784V79.5149ZM42.0784 79.5545V75.5149H34.0784V79.5545H42.0784ZM48.2744 75.5545H38.0784V83.5545H48.2744V75.5545ZM44.2744 75.5149V79.5545H52.2744V75.5149H44.2744ZM34.0784 83.5941V87.6337H42.0784V83.5941H34.0784ZM48.2744 79.5941H38.0784V87.5941H48.2744V79.5941ZM52.2744 87.6337V83.5941H44.2744V87.6337H52.2744ZM38.0784 91.6337H48.2744V83.6337H38.0784V91.6337Z" fill="white" mask="url(#path-2-outside-1_2818_45670)"/>
<path d="M66.6274 34.1089H37.0392C36.487 34.1089 36.0392 34.5566 36.0392 35.1089V125" stroke="#25252A" stroke-width="4"/>
<path d="M72.2352 43.198H51.3137C50.7614 43.198 50.3137 43.6457 50.3137 44.198V125" stroke="#25252A" stroke-width="4"/>
<path d="M50.5383 89.6534H36.2638" stroke="#25252A" stroke-width="4"/>
<path d="M50.5383 81.5743H36.2638" stroke="#25252A" stroke-width="4"/>
<path d="M50.5383 73.4951H36.2638" stroke="#25252A" stroke-width="4"/>
<path d="M50.5383 65.4158H36.2638" stroke="#25252A" stroke-width="4"/>
<path d="M50.5383 57.3366H36.2638" stroke="#25252A" stroke-width="4"/>
<path d="M50.5383 97.7327H36.2638" stroke="#25252A" stroke-width="4"/>
<path d="M50.5383 105.812H36.2638" stroke="#25252A" stroke-width="4"/>
<path d="M55.4122 32.0819C58.3312 26.6771 64.0852 23 70.7063 23C77.3274 23 83.0814 26.6771 86.0004 32.0819H55.4122Z" fill="#25252A"/>
<path d="M59.4903 32.0891C61.6309 26.68 65.8505 23 70.706 23C75.5614 23 79.781 26.68 81.9216 32.0891H59.4903Z" fill="#6F6F73"/>
<path d="M63.5687 32.0891C64.9309 26.68 67.6161 23 70.706 23C73.7958 23 76.481 26.68 77.8432 32.0891H63.5687Z" fill="#515259"/>
<path d="M55.4122 32.0891H86.0004V121C86.0004 123.209 84.2095 125 82.0004 125H59.4122C57.2031 125 55.4122 123.209 55.4122 121V32.0891Z" fill="#25252A"/>
<path d="M59.4904 32.0891H81.9217V121C81.9217 123.209 80.1308 125 77.9217 125H63.4904C61.2812 125 59.4904 123.209 59.4904 121V32.0891Z" fill="#6F6F73"/>
<path d="M63.5685 32.0891H77.843V121C77.843 123.209 76.0521 125 73.843 125H67.5685C65.3593 125 63.5685 123.209 63.5685 121V32.0891Z" fill="#515259"/>
<rect x="55.4122" y="32.0891" width="30.5882" height="88.8713" fill="white" fill-opacity="0.2"/>
</g>
<defs>
<filter id="filter0_ddd_2818_45670" x="-20" y="-5" width="160" height="160" filterUnits="userSpaceOnUse" color-interpolation-filters="sRGB">
<feFlood flood-opacity="0" result="BackgroundImageFix"/>
<feColorMatrix in="SourceAlpha" type="matrix" values="0 0 0 0 0 0 0 0 0 0 0 0 0 0 0 0 0 0 127 0" result="hardAlpha"/>
<feOffset dy="1"/>
<feGaussianBlur stdDeviation="1"/>
<feColorMatrix type="matrix" values="0 0 0 0 0.309804 0 0 0 0 0.321569 0 0 0 0 0.407843 0 0 0 0.24 0"/>
<feBlend mode="normal" in2="BackgroundImageFix" result="effect1_dropShadow_2818_45670"/>
<feColorMatrix in="SourceAlpha" type="matrix" values="0 0 0 0 0 0 0 0 0 0 0 0 0 0 0 0 0 0 127 0" result="hardAlpha"/>
<feOffset dy="1"/>
<feGaussianBlur stdDeviation="4"/>
<feColorMatrix type="matrix" values="0 0 0 0 0.309804 0 0 0 0 0.321569 0 0 0 0 0.407843 0 0 0 0.08 0"/>
<feBlend mode="normal" in2="effect1_dropShadow_2818_45670" result="effect2_dropShadow_2818_45670"/>
<feColorMatrix in="SourceAlpha" type="matrix" values="0 0 0 0 0 0 0 0 0 0 0 0 0 0 0 0 0 0 127 0" result="hardAlpha"/>
<feMorphology radius="4" operator="dilate" in="SourceAlpha" result="effect3_dropShadow_2818_45670"/>
<feOffset dy="1"/>
<feGaussianBlur stdDeviation="8"/>
<feColorMatrix type="matrix" values="0 0 0 0 0.309804 0 0 0 0 0.321569 0 0 0 0 0.407843 0 0 0 0.1 0"/>
<feBlend mode="normal" in2="effect2_dropShadow_2818_45670" result="effect3_dropShadow_2818_45670"/>
<feBlend mode="normal" in="SourceGraphic" in2="effect3_dropShadow_2818_45670" result="shape"/>
</filter>
</defs>
</svg>
