<svg width="132" height="132" viewBox="0 0 132 132" fill="none" xmlns="http://www.w3.org/2000/svg">
<g filter="url(#filter0_ddd_2818_45889)">
<path d="M28.2426 23.9289L29.6569 25.3431L28.2426 23.9289L24.9289 27.2426C23.0536 29.118 22 31.6615 22 34.3137V95.6863C22 98.3385 23.0536 100.882 24.9289 102.757L28.2426 106.071C30.118 107.946 32.6615 109 35.3137 109H96.6863C99.3385 109 101.882 107.946 103.757 106.071L107.071 102.757C108.946 100.882 110 98.3385 110 95.6863V34.3137C110 31.6615 108.946 29.118 107.071 27.2426L103.757 23.9289C101.882 22.0536 99.3385 21 96.6863 21H35.3137C32.6615 21 30.118 22.0536 28.2426 23.9289Z" stroke="white" stroke-width="4"/>
<path d="M26.3431 28.6569L29.6569 25.3431C31.1571 23.8429 33.192 23 35.3137 23H96.6863C98.808 23 100.843 23.8429 102.343 25.3431L105.657 28.6569C107.157 30.1571 108 32.192 108 34.3137V95.6863C108 97.808 107.157 99.8428 105.657 101.343L102.343 104.657C100.843 106.157 98.808 107 96.6863 107H35.3137C33.192 107 31.1571 106.157 29.6569 104.657L26.3431 101.343C24.8429 99.8429 24 97.808 24 95.6863V34.3137C24 32.192 24.8429 30.1571 26.3431 28.6569Z" fill="#25252A"/>
<path d="M29.1716 33.0665L34.0665 28.1716C34.8167 27.4214 35.8341 27 36.8949 27H95.105C96.1659 27 97.1833 27.4214 97.9335 28.1716L102.828 33.0665C103.579 33.8167 104 34.8341 104 35.8949V94.105C104 95.1659 103.579 96.1833 102.828 96.9335L97.9335 101.828C97.1833 102.579 96.1659 103 95.105 103H36.8949C35.8341 103 34.8167 102.579 34.0665 101.828L29.1716 96.9335C28.4214 96.1833 28 95.1659 28 94.105V35.8949C28 34.8341 28.4214 33.8167 29.1716 33.0665Z" fill="#38393E"/>
<path d="M35.1943 38.7294L38.8324 35.149C39.5807 34.4127 40.5884 34 41.6381 34H89.3619C90.4116 34 91.4193 34.4127 92.1676 35.149L95.8057 38.7294C96.5697 39.4813 97 40.5084 97 41.5804V88.4196C97 89.4916 96.5697 90.5187 95.8057 91.2706L92.1676 94.851C91.4193 95.5873 90.4116 96 89.3619 96H41.6381C40.5884 96 39.5807 95.5873 38.8324 94.851L35.1943 91.2706C34.4303 90.5187 34 89.4916 34 88.4196V41.5804C34 40.5084 34.4303 39.4813 35.1943 38.7294Z" fill="#515259"/>
<path d="M68.7836 49.4114C68.1685 52.4867 67.0734 55.6821 66.2436 57.0297C66.2436 57.0297 64.3145 57.0294 63.3838 57.0293C62.6464 57.0293 62.4672 57.0294 62.4306 57.0295C62.4306 57.0295 62.4306 57.0296 62.4306 57.0296C62.4306 57.0296 62.4117 57.0295 62.4306 57.0295C62.4267 57.0157 61.818 54.8331 58.6176 47.9669C57.5166 45.6049 55.0084 42.567 54.5317 42.0003C54.1536 41.5508 54.4195 38.7406 59.6624 38.0098C64.9053 37.2791 66.9924 38.3193 68.7836 41.4302C69.7684 43.1406 69.3536 46.5611 68.7836 49.4114Z" fill="#F3F3F3"/>
<path d="M56.9454 52.009C58.685 54.6184 60.1702 57.6523 60.5364 59.192C60.5364 59.192 59.172 60.5558 58.5139 61.2139C57.9925 61.7353 57.8659 61.8621 57.84 61.8881C57.84 61.8881 57.84 61.8881 57.84 61.8881C57.84 61.8881 57.8267 61.9014 57.84 61.8881C57.8275 61.881 55.8538 60.7681 48.7355 58.176C46.2869 57.2843 42.3651 56.9098 41.6274 56.8461C41.0422 56.7957 39.2431 54.6205 42.4337 50.3965C45.6242 46.1725 47.8356 45.4322 51.3019 46.3655C53.2077 46.8785 55.333 49.5904 56.9454 52.009Z" fill="#F3F3F3"/>
<path d="M50.4112 62.2165C53.4865 62.8315 56.6819 63.9267 58.0295 64.7564C58.0295 64.7564 58.0292 66.6855 58.0292 67.6162C58.0292 68.3536 58.0292 68.5328 58.0293 68.5695C58.0294 68.5695 58.0294 68.5695 58.0294 68.5695C58.0294 68.5695 58.0294 68.5883 58.0293 68.5695C58.0155 68.5733 55.833 69.182 48.9667 72.3825C46.6048 73.4834 43.5668 75.9917 43.0001 76.4683C42.5506 76.8464 39.7404 76.5805 39.0097 71.3376C38.2789 66.0948 39.3191 64.0077 42.4301 62.2165C44.1405 61.2317 47.5609 61.6464 50.4112 62.2165Z" fill="#F3F3F3"/>
<path d="M53.0087 74.0547C55.6181 72.3151 58.652 70.83 60.1917 70.4638C60.1917 70.4638 61.5555 71.8281 62.2136 72.4862C62.735 73.0077 62.8618 73.1343 62.8878 73.1602C62.8878 73.1602 62.8878 73.1601 62.8878 73.1601C62.8878 73.1601 62.9011 73.1735 62.8878 73.1602C62.8807 73.1727 61.7678 75.1464 59.1757 82.2646C58.284 84.7133 57.9095 88.635 57.8458 89.3728C57.7954 89.958 55.6202 91.7571 51.3962 88.5665C47.1722 85.376 46.4319 83.1646 47.3652 79.6983C47.8782 77.7925 50.5901 75.6671 53.0087 74.0547Z" fill="#F3F3F3"/>
<path d="M63.2163 80.5889C63.8313 77.5137 64.9265 74.3182 65.7563 72.9706C65.7563 72.9706 67.6853 72.9709 68.616 72.971C69.3534 72.971 69.5326 72.9709 69.5693 72.9708C69.5693 72.9708 69.5693 72.9707 69.5693 72.9707C69.5693 72.9707 69.5882 72.9708 69.5693 72.9708C69.5731 72.9846 70.1818 75.1672 73.3823 82.0334C74.4832 84.3954 76.9915 87.4333 77.4681 88C77.8463 88.4495 77.5804 91.2597 72.3375 91.9905C67.0946 92.7212 65.0075 91.681 63.2163 88.5701C62.2315 86.8597 62.6462 83.4392 63.2163 80.5889Z" fill="#F3F3F3"/>
<path d="M75.0542 77.9913C73.3146 75.3819 71.8295 72.348 71.4633 70.8083C71.4633 70.8083 72.8276 69.4445 73.4857 68.7864C74.0071 68.265 74.1338 68.1382 74.1596 68.1123C74.1596 68.1122 74.1596 68.1122 74.1596 68.1122C74.1596 68.1122 74.173 68.0989 74.1596 68.1123C74.1721 68.1193 76.1459 69.2322 83.2641 71.8243C85.7127 72.716 89.6345 73.0905 90.3722 73.1542C90.9574 73.2046 92.7565 75.3798 89.566 79.6038C86.3754 83.8278 84.1641 84.5681 80.6977 83.6348C78.792 83.1218 76.6666 80.4099 75.0542 77.9913Z" fill="#F3F3F3"/>
<path d="M81.5883 67.7838C78.5131 67.1688 75.3176 66.0736 73.97 65.2439C73.97 65.2439 73.9703 63.3148 73.9704 62.3841C73.9704 61.6467 73.9703 61.4675 73.9702 61.4308C73.9702 61.4308 73.9701 61.4308 73.9701 61.4308C73.9701 61.4308 73.9702 61.412 73.9702 61.4308C73.984 61.427 76.1666 60.8183 83.0328 57.6178C85.3948 56.5169 88.4327 54.0086 88.9994 53.532C89.4489 53.1539 92.2591 53.4198 92.9899 58.6627C93.7206 63.9055 92.6804 65.9926 89.5695 67.7838C87.8591 68.7686 84.4386 68.3539 81.5883 67.7838Z" fill="#F3F3F3"/>
<path d="M78.9908 55.9456C76.3814 57.6852 73.3475 59.1703 71.8078 59.5365C71.8078 59.5365 70.444 58.1722 69.7859 57.5141C69.2645 56.9926 69.1377 56.866 69.1118 56.8401C69.1117 56.8401 69.1117 56.8402 69.1117 56.8402C69.1117 56.8402 69.0984 56.8268 69.1118 56.8401C69.1188 56.8277 70.2317 54.8539 72.8238 47.7357C73.7155 45.2871 74.09 41.3653 74.1537 40.6275C74.2042 40.0423 76.3793 38.2432 80.6033 41.4338C84.8273 44.6243 85.5676 46.8357 84.6344 50.302C84.1213 52.2078 81.4094 54.3332 78.9908 55.9456Z" fill="#F3F3F3"/>
<path fill-rule="evenodd" clip-rule="evenodd" d="M66 95C82.5685 95 96 81.5685 96 65C96 48.4315 82.5685 35 66 35C49.4315 35 36 48.4315 36 65C36 81.5685 49.4315 95 66 95ZM66 98C84.2254 98 99 83.2254 99 65C99 46.7746 84.2254 32 66 32C47.7746 32 33 46.7746 33 65C33 83.2254 47.7746 98 66 98Z" fill="#F3F3F3"/>
<path d="M34 31C34 32.1046 33.1046 33 32 33C30.8954 33 30 32.1046 30 31C30 29.8954 30.8954 29 32 29C33.1046 29 34 29.8954 34 31Z" fill="#F3F3F3"/>
<path d="M102 31C102 32.1046 101.105 33 100 33C98.8954 33 98 32.1046 98 31C98 29.8954 98.8954 29 100 29C101.105 29 102 29.8954 102 31Z" fill="#F3F3F3"/>
<path d="M102 99C102 100.105 101.105 101 100 101C98.8954 101 98 100.105 98 99C98 97.8954 98.8954 97 100 97C101.105 97 102 97.8954 102 99Z" fill="#F3F3F3"/>
<path d="M34 99C34 100.105 33.1046 101 32 101C30.8954 101 30 100.105 30 99C30 97.8954 30.8954 97 32 97C33.1046 97 34 97.8954 34 99Z" fill="#F3F3F3"/>
<path d="M76 65C76 70.5228 71.5228 75 66 75C60.4772 75 56 70.5228 56 65C56 59.4772 60.4772 55 66 55C71.5228 55 76 59.4772 76 65Z" fill="#515259"/>
<path d="M46 23H86V107H46V23Z" fill="white" fill-opacity="0.2"/>
</g>
<defs>
<filter id="filter0_ddd_2818_45889" x="-14" y="-14" width="160" height="160" filterUnits="userSpaceOnUse" color-interpolation-filters="sRGB">
<feFlood flood-opacity="0" result="BackgroundImageFix"/>
<feColorMatrix in="SourceAlpha" type="matrix" values="0 0 0 0 0 0 0 0 0 0 0 0 0 0 0 0 0 0 127 0" result="hardAlpha"/>
<feOffset dy="1"/>
<feGaussianBlur stdDeviation="1"/>
<feColorMatrix type="matrix" values="0 0 0 0 0.309804 0 0 0 0 0.321569 0 0 0 0 0.407843 0 0 0 0.24 0"/>
<feBlend mode="normal" in2="BackgroundImageFix" result="effect1_dropShadow_2818_45889"/>
<feColorMatrix in="SourceAlpha" type="matrix" values="0 0 0 0 0 0 0 0 0 0 0 0 0 0 0 0 0 0 127 0" result="hardAlpha"/>
<feOffset dy="1"/>
<feGaussianBlur stdDeviation="4"/>
<feColorMatrix type="matrix" values="0 0 0 0 0.309804 0 0 0 0 0.321569 0 0 0 0 0.407843 0 0 0 0.08 0"/>
<feBlend mode="normal" in2="effect1_dropShadow_2818_45889" result="effect2_dropShadow_2818_45889"/>
<feColorMatrix in="SourceAlpha" type="matrix" values="0 0 0 0 0 0 0 0 0 0 0 0 0 0 0 0 0 0 127 0" result="hardAlpha"/>
<feMorphology radius="4" operator="dilate" in="SourceAlpha" result="effect3_dropShadow_2818_45889"/>
<feOffset dy="1"/>
<feGaussianBlur stdDeviation="8"/>
<feColorMatrix type="matrix" values="0 0 0 0 0.309804 0 0 0 0 0.321569 0 0 0 0 0.407843 0 0 0 0.1 0"/>
<feBlend mode="normal" in2="effect2_dropShadow_2818_45889" result="effect3_dropShadow_2818_45889"/>
<feBlend mode="normal" in="SourceGraphic" in2="effect3_dropShadow_2818_45889" result="shape"/>
</filter>
</defs>
</svg>
