<svg width="141" height="120" viewBox="0 0 141 120" fill="none" xmlns="http://www.w3.org/2000/svg">
<g filter="url(#filter0_ddd_118_1772)">
<path d="M93 46C93 38.8203 98.8203 33 106 33H109.357H114.269V33C116.209 33 117.975 33.9055 118.576 35.75C119.643 39.0279 121 45.8746 121 59.5C121 70.2339 120.158 76.7608 119.279 80.6502C118.473 84.2162 115.231 86 111.575 86H106C98.8203 86 93 80.1797 93 73V46Z" fill="white"/>
<path d="M116.944 63.4335C116.489 75.3879 114.13 82 112.673 82C112.648 82 112.62 81.9968 112.593 81.9905C112.583 81.9889 112.573 81.9836 112.563 81.9815C112.543 81.9763 112.526 81.9715 112.505 81.9636C112.494 81.9583 112.482 81.9509 112.469 81.9451C112.451 81.9361 112.432 81.9282 112.413 81.9171C112.4 81.9092 112.387 81.8987 112.373 81.8902C112.354 81.8776 112.335 81.866 112.315 81.8517C112.301 81.8406 112.285 81.828 112.271 81.8163C112.251 81.8 112.232 81.7847 112.211 81.7667C112.196 81.753 112.179 81.7361 112.164 81.7208C112.144 81.7008 112.123 81.6823 112.103 81.6601C112.087 81.6438 112.07 81.6248 112.054 81.6058C112.032 81.582 112.012 81.5588 111.99 81.5329C111.973 81.5118 111.955 81.4891 111.938 81.467C111.917 81.4395 111.895 81.4132 111.874 81.3836C111.857 81.3609 111.839 81.334 111.821 81.3087C111.799 81.2765 111.777 81.2453 111.753 81.2116C111.736 81.1852 111.718 81.1567 111.7 81.1292C111.676 81.0928 111.654 81.0559 111.629 81.0168C111.611 80.9862 111.592 80.954 111.573 80.9229C111.55 80.8828 111.527 80.8421 111.503 80.7994C111.483 80.7656 111.464 80.7292 111.445 80.6933C111.421 80.6485 111.396 80.6036 111.373 80.5561C111.353 80.5192 111.334 80.4812 111.315 80.4432C111.29 80.3925 111.265 80.3413 111.239 80.288C111.22 80.2484 111.202 80.2078 111.182 80.1672C111.157 80.1117 111.131 80.0547 111.105 79.9956C111.086 79.9524 111.066 79.9075 111.047 79.8626C111.021 79.8014 110.995 79.7402 110.969 79.6764C110.95 79.6299 110.931 79.5814 110.912 79.5333C110.885 79.4663 110.859 79.3988 110.832 79.3286C110.813 79.279 110.795 79.2294 110.776 79.1782C110.749 79.1043 110.721 79.0299 110.694 78.9539C110.675 78.9016 110.657 78.8483 110.639 78.795C110.611 78.7153 110.584 78.6346 110.556 78.5523C110.538 78.4963 110.52 78.4404 110.502 78.3829C110.474 78.2979 110.447 78.2113 110.42 78.1232C110.401 78.0636 110.383 78.0029 110.364 77.9422C110.337 77.8498 110.309 77.7559 110.282 77.6604C110.265 77.6002 110.247 77.5395 110.229 77.4767C110.201 77.3759 110.173 77.273 110.146 77.168C110.129 77.1047 110.111 77.0419 110.095 76.9775C110.068 76.8693 110.04 76.759 110.012 76.6471C109.996 76.5817 109.979 76.5162 109.963 76.4492C109.935 76.3331 109.907 76.2144 109.879 76.0951C109.863 76.0265 109.847 75.9568 109.831 75.8866C109.803 75.7637 109.776 75.6386 109.749 75.5114C109.733 75.4402 109.718 75.3689 109.703 75.2956C109.675 75.1642 109.648 75.0301 109.621 74.8945C109.607 74.8201 109.591 74.7462 109.577 74.6707C109.55 74.5298 109.522 74.3852 109.495 74.2396C109.482 74.1651 109.467 74.0913 109.455 74.0153C109.427 73.8617 109.4 73.705 109.373 73.5466C109.361 73.4738 109.348 73.4015 109.336 73.3271C109.309 73.1619 109.282 72.992 109.255 72.821C109.243 72.7482 109.232 72.6769 109.22 72.6025C109.193 72.4236 109.166 72.2405 109.14 72.0563C109.129 71.985 109.12 71.9159 109.109 71.8441C109.082 71.6494 109.056 71.4494 109.029 71.2483C109.02 71.1824 109.012 71.1174 109.003 71.0509C108.976 70.8367 108.949 70.6171 108.923 70.396C108.915 70.3374 108.909 70.2804 108.902 70.2219C108.898 70.1913 108.895 69.3105 108.891 69.2799L108.695 67L108.328 64.9444C108.269 64.6124 108.085 64.3156 107.814 64.1151V64.1151C107.459 63.8528 107.259 63.4306 107.28 62.9901C107.338 61.7616 107.367 60.9343 107.367 59.4987C107.367 56.7654 107.263 55.5723 107.061 53.2846C107.028 52.9153 107.319 52.5968 107.69 52.5968V52.5968C107.883 52.5968 108.065 52.5087 108.185 52.3576L108.413 52.0699C108.596 51.8389 108.702 51.5557 108.713 51.2611L108.756 50.202C109.727 40.2277 111.811 37 112.668 37C114.101 37 116.775 43.9461 116.999 57.7877C117.006 58.3846 116.985 62.1907 116.944 63.4335Z" fill="#D51A46"/>
<rect x="22.4336" y="52.4" width="93.6" height="15.2" rx="4" fill="#404040" stroke="white" stroke-width="4"/>
<path d="M33.8028 42.962C31.5213 43.4753 29.9004 45.5015 29.9004 47.84V72.16C29.9004 74.4985 31.5213 76.5247 33.8028 77.038L87.5362 89.128C90.6622 89.8314 93.6337 87.4542 93.6337 84.25V35.75C93.6337 32.5458 90.6622 30.1686 87.5362 30.872L33.8028 42.962Z" fill="#404040" stroke="white" stroke-width="4"/>
<path d="M31.8994 47.84C31.8994 46.4369 32.872 45.2212 34.2409 44.9132L87.9742 32.8232C89.8498 32.4012 91.6327 33.8275 91.6327 35.75V84.25C91.6327 86.1725 89.8498 87.5988 87.9742 87.1768L34.2409 75.0868C32.872 74.7788 31.8994 73.5631 31.8994 72.16V47.84Z" fill="#404040"/>
<rect x="46.833" y="45.0667" width="7.46667" height="29.8667" rx="2" fill="#595959"/>
<rect x="46.833" y="45.0667" width="7.46667" height="26.1333" rx="2" fill="#8C8C8C"/>
<rect x="69.2324" y="41.3333" width="7.46667" height="37.3333" rx="2" fill="#595959"/>
<rect x="69.2324" y="41.3333" width="7.46667" height="29.8667" rx="2" fill="#8C8C8C"/>
<rect x="80.4326" y="39.4667" width="7.46667" height="41.0667" rx="2" fill="#595959"/>
<rect x="80.4326" y="39.4667" width="7.46667" height="31.7333" rx="2" fill="#8C8C8C"/>
<rect x="35.6328" y="47.8666" width="7.46667" height="24.2667" rx="2" fill="#595959"/>
<rect x="58.0332" y="43.2" width="7.46667" height="33.6" rx="2" fill="#595959"/>
<rect x="35.6328" y="46.9333" width="7.46667" height="26.1333" rx="2" fill="#595959"/>
<rect x="58.0332" y="43.2" width="7.46667" height="28" rx="2" fill="#8C8C8C"/>
<path d="M35.6328 48.9334C35.6328 47.8288 36.5282 46.9333 37.6328 46.9333H41.0995C42.204 46.9333 43.0995 47.8288 43.0995 48.9333V69.2C43.0995 70.3046 42.204 71.2 41.0995 71.2H37.6328C36.5282 71.2 35.6328 70.3046 35.6328 69.2V48.9334Z" fill="#8C8C8C"/>
<rect x="24.4326" y="54.4" width="89.6" height="11.2" rx="2" fill="#404040"/>
<rect x="24.4326" y="54.4" width="89.6" height="5.6" rx="2" fill="#8C8C8C"/>
<path d="M31.8994 47.84C31.8994 46.4369 32.872 45.2212 34.2409 44.9132L87.9742 32.8232C89.8498 32.4012 91.6327 33.8275 91.6327 35.75V62.6C91.6327 64.2569 90.2896 65.6 88.6327 65.6H34.8994C33.2426 65.6 31.8994 64.2569 31.8994 62.6V47.84Z" fill="white" fill-opacity="0.3"/>
<path d="M103.004 65.1592L103.756 65.9824L104.665 66.9773C105.177 67.5373 104.78 68.4384 104.021 68.4384H103.861C103.441 68.4384 103.11 68.794 103.14 69.2124V69.2124C103.379 72.5988 103.865 77.4498 104.798 80.5152C105.012 81.2194 104.505 82 103.768 82H99.1407C98.5698 82 97.1684 78.8418 96.4803 69.0795V69.0795C96.4547 68.7183 96.1542 68.4384 95.7921 68.4384H95.7027C95.0322 68.4384 94.6696 67.6529 95.1044 67.1426L98.8205 62.7812C99.1852 62.3531 99.8313 62.3099 100.25 62.6857L103.004 65.1592Z" fill="#D51A46"/>
<path fill-rule="evenodd" clip-rule="evenodd" d="M105.824 62.3152L106.709 63.2842L107.618 64.2792C109.582 66.4279 109.148 69.476 107.311 71.173C107.58 74.1144 108.004 77.3114 108.624 79.3505C109.511 82.2625 107.557 86 103.768 86H99.1406C97.2938 86 96.1959 84.8325 95.9093 84.512C95.48 84.0321 95.1892 83.5183 94.9971 83.1307C94.5977 82.3251 94.2645 81.3215 93.9762 80.1803C93.4705 78.1785 92.9949 75.3122 92.6469 71.3483C90.7384 69.7533 90.1959 66.7358 92.0596 64.5484L95.7757 60.187C97.5996 58.0464 100.83 57.8305 102.922 59.7096L105.824 62.3152ZM107.13 68.9301C107.13 68.93 107.13 68.9303 107.13 68.9301L103.14 69.2124C103.11 68.794 103.441 68.4384 103.861 68.4384H104.021C104.78 68.4384 105.177 67.5373 104.665 66.9773L103.004 65.1592L100.25 62.6857C99.8312 62.3099 99.1852 62.3531 98.8204 62.7812L95.1043 67.1426C94.6695 67.6529 95.0322 68.4384 95.7026 68.4384H95.792C96.1541 68.4384 96.4546 68.7183 96.4803 69.0795C97.1683 78.8418 98.5697 82 99.1406 82H103.768C104.504 82 105.012 81.2194 104.798 80.5152C103.865 77.4498 103.379 72.5988 103.14 69.2124L107.13 68.9301Z" fill="white"/>
<path d="M105.183 37C105.971 37 106.493 37.8968 106.214 38.6336C105.237 41.2081 104.669 44.9989 104.348 48.0941C104.294 48.6077 103.864 49 103.347 49H102.576H99.2904H97.0992C96.5098 49 96.0479 48.4889 96.1113 47.9028C96.9966 39.7133 98.6008 37 99.2874 37H105.183Z" fill="#D51A46"/>
<path fill-rule="evenodd" clip-rule="evenodd" d="M109.954 40.0523C109.179 42.0962 108.646 45.4275 108.326 48.5072C108.064 51.0368 105.935 53 103.347 53H97.0994C94.1471 53 91.8138 50.4408 92.1346 47.4729C92.5962 43.2031 93.2649 40.1487 93.9999 38.0553C94.3613 37.0257 94.7915 36.0753 95.3217 35.2979C95.5837 34.9139 95.9578 34.4414 96.4722 34.0247C96.9357 33.6491 97.9094 33 99.2876 33H105.184C107.211 33 108.724 34.1695 109.509 35.4489C110.279 36.7046 110.579 38.4037 109.954 40.0523ZM106.214 38.6336C106.494 37.8968 105.972 37 105.184 37H99.2876C98.601 37 96.9968 39.7133 96.1115 47.9028C96.0481 48.4889 96.51 49 97.0994 49H103.347C103.864 49 104.295 48.6077 104.348 48.0941C104.669 44.9989 105.237 41.2081 106.214 38.6336Z" fill="white"/>
</g>
<defs>
<filter id="filter0_ddd_118_1772" x="0.433594" y="9.74707" width="140.566" height="102.506" filterUnits="userSpaceOnUse" color-interpolation-filters="sRGB">
<feFlood flood-opacity="0" result="BackgroundImageFix"/>
<feColorMatrix in="SourceAlpha" type="matrix" values="0 0 0 0 0 0 0 0 0 0 0 0 0 0 0 0 0 0 127 0" result="hardAlpha"/>
<feOffset dy="1"/>
<feGaussianBlur stdDeviation="1"/>
<feColorMatrix type="matrix" values="0 0 0 0 0.309804 0 0 0 0 0.321569 0 0 0 0 0.407843 0 0 0 0.24 0"/>
<feBlend mode="normal" in2="BackgroundImageFix" result="effect1_dropShadow_118_1772"/>
<feColorMatrix in="SourceAlpha" type="matrix" values="0 0 0 0 0 0 0 0 0 0 0 0 0 0 0 0 0 0 127 0" result="hardAlpha"/>
<feOffset dy="1"/>
<feGaussianBlur stdDeviation="4"/>
<feColorMatrix type="matrix" values="0 0 0 0 0.309804 0 0 0 0 0.321569 0 0 0 0 0.407843 0 0 0 0.08 0"/>
<feBlend mode="normal" in2="effect1_dropShadow_118_1772" result="effect2_dropShadow_118_1772"/>
<feColorMatrix in="SourceAlpha" type="matrix" values="0 0 0 0 0 0 0 0 0 0 0 0 0 0 0 0 0 0 127 0" result="hardAlpha"/>
<feMorphology radius="4" operator="dilate" in="SourceAlpha" result="effect3_dropShadow_118_1772"/>
<feOffset dy="1"/>
<feGaussianBlur stdDeviation="8"/>
<feColorMatrix type="matrix" values="0 0 0 0 0.309804 0 0 0 0 0.321569 0 0 0 0 0.407843 0 0 0 0.1 0"/>
<feBlend mode="normal" in2="effect2_dropShadow_118_1772" result="effect3_dropShadow_118_1772"/>
<feBlend mode="normal" in="SourceGraphic" in2="effect3_dropShadow_118_1772" result="shape"/>
</filter>
</defs>
</svg>
