<?xml version="1.0" encoding="UTF-8" standalone="no"?>
<!DOCTYPE svg PUBLIC "-//W3C//DTD SVG 1.1//EN"
 "http://www.w3.org/Graphics/SVG/1.1/DTD/svg11.dtd">
<!-- Generated by graphviz version 12.2.1 (20241206.2353)
 -->
<!-- Title: G Pages: 1 -->
<svg width="783pt" height="393pt"
 viewBox="0.00 0.00 782.60 392.80" xmlns="http://www.w3.org/2000/svg" xmlns:xlink="http://www.w3.org/1999/xlink">
<g id="graph0" class="graph" transform="scale(1 1) rotate(0) translate(4 388.8)">
<title>G</title>
<polygon fill="white" stroke="none" points="-4,4 -4,-388.8 778.6,-388.8 778.6,4 -4,4"/>
<g id="clust1" class="cluster">
<title>cluster__legend</title>
<polygon fill="#ffffff" stroke="black" points="135.05,-295.6 135.05,-376.8 479.05,-376.8 479.05,-295.6 135.05,-295.6"/>
<text text-anchor="middle" x="307.05" y="-359.5" font-family="Helvetica,sans-Serif" font-size="14.00">Legend</text>
</g>
<!-- input -->
<g id="node1" class="node">
<title>input</title>
<polygon fill="#ffffff" stroke="black" stroke-dasharray="5,2" points="197.05,-343 143.05,-343 143.05,-305.65 197.05,-305.65 197.05,-343"/>
<text text-anchor="middle" x="170.05" y="-318.9" font-family="Helvetica,sans-Serif" font-size="14.00">input</text>
</g>
<!-- function -->
<g id="node2" class="node">
<title>function</title>
<path fill="#b4d8e4" stroke="black" d="M271.48,-343C271.48,-343 226.62,-343 226.62,-343 220.62,-343 214.62,-337 214.62,-331 214.62,-331 214.62,-317.65 214.62,-317.65 214.62,-311.65 220.62,-305.65 226.62,-305.65 226.62,-305.65 271.48,-305.65 271.48,-305.65 277.48,-305.65 283.48,-311.65 283.48,-317.65 283.48,-317.65 283.48,-331 283.48,-331 283.48,-337 277.48,-343 271.48,-343"/>
<text text-anchor="middle" x="249.05" y="-318.9" font-family="Helvetica,sans-Serif" font-size="14.00">function</text>
</g>
<!-- output -->
<g id="node3" class="node">
<title>output</title>
<path fill="#ffc857" stroke="black" d="M348.6,-343C348.6,-343 313.5,-343 313.5,-343 307.5,-343 301.5,-337 301.5,-331 301.5,-331 301.5,-317.65 301.5,-317.65 301.5,-311.65 307.5,-305.65 313.5,-305.65 313.5,-305.65 348.6,-305.65 348.6,-305.65 354.6,-305.65 360.6,-311.65 360.6,-317.65 360.6,-317.65 360.6,-331 360.6,-331 360.6,-337 354.6,-343 348.6,-343"/>
<text text-anchor="middle" x="331.05" y="-318.9" font-family="Helvetica,sans-Serif" font-size="14.00">output</text>
</g>
<!-- materializer -->
<g id="node4" class="node">
<title>materializer</title>
<path fill="#ffffff" stroke="black" d="M471.1,-341.29C471.1,-343.37 450.46,-345.05 425.05,-345.05 399.64,-345.05 379,-343.37 379,-341.29 379,-341.29 379,-307.37 379,-307.37 379,-305.29 399.64,-303.6 425.05,-303.6 450.46,-303.6 471.1,-305.29 471.1,-307.37 471.1,-307.37 471.1,-341.29 471.1,-341.29"/>
<path fill="none" stroke="black" d="M471.1,-341.29C471.1,-339.21 450.46,-337.52 425.05,-337.52 399.64,-337.52 379,-339.21 379,-341.29"/>
<text text-anchor="middle" x="425.05" y="-318.9" font-family="Helvetica,sans-Serif" font-size="14.00">materializer</text>
</g>
<!-- save_prediction_shallow_samples_plots -->
<g id="node5" class="node">
<title>save_prediction_shallow_samples_plots</title>
<path fill="#ffc857" stroke="black" d="M284.1,-79.5C284.1,-83.89 220.43,-87.45 142.05,-87.45 63.67,-87.45 0,-83.89 0,-79.5 0,-79.5 0,-7.95 0,-7.95 0,-3.56 63.67,0 142.05,0 220.43,0 284.1,-3.56 284.1,-7.95 284.1,-7.95 284.1,-79.5 284.1,-79.5"/>
<path fill="none" stroke="black" d="M284.1,-79.5C284.1,-75.11 220.43,-71.55 142.05,-71.55 63.67,-71.55 0,-75.11 0,-79.5"/>
<text text-anchor="start" x="10.8" y="-52.43" font-family="Helvetica,sans-Serif" font-weight="bold" font-size="14.00">save_prediction_shallow_samples_plots</text>
<text text-anchor="start" x="16.8" y="-24.43" font-family="Helvetica,sans-Serif" font-style="italic" font-size="14.00">save_prediction_shallow_samples_plots()</text>
</g>
<!-- samples -->
<g id="node6" class="node">
<title>samples</title>
<path fill="#b4d8e4" stroke="black" d="M481.23,-272.65C481.23,-272.65 428.88,-272.65 428.88,-272.65 422.88,-272.65 416.88,-266.65 416.88,-260.65 416.88,-260.65 416.88,-221.05 416.88,-221.05 416.88,-215.05 422.88,-209.05 428.88,-209.05 428.88,-209.05 481.23,-209.05 481.23,-209.05 487.23,-209.05 493.23,-215.05 493.23,-221.05 493.23,-221.05 493.23,-260.65 493.23,-260.65 493.23,-266.65 487.23,-272.65 481.23,-272.65"/>
<text text-anchor="start" x="427.68" y="-249.55" font-family="Helvetica,sans-Serif" font-weight="bold" font-size="14.00">samples</text>
<text text-anchor="start" x="444.55" y="-221.55" font-family="Helvetica,sans-Serif" font-style="italic" font-size="14.00">dict</text>
</g>
<!-- toy1d_samples_plots -->
<g id="node7" class="node">
<title>toy1d_samples_plots</title>
<path fill="#b4d8e4" stroke="black" d="M522.85,-180.05C522.85,-180.05 387.25,-180.05 387.25,-180.05 381.25,-180.05 375.25,-174.05 375.25,-168.05 375.25,-168.05 375.25,-128.45 375.25,-128.45 375.25,-122.45 381.25,-116.45 387.25,-116.45 387.25,-116.45 522.85,-116.45 522.85,-116.45 528.85,-116.45 534.85,-122.45 534.85,-128.45 534.85,-128.45 534.85,-168.05 534.85,-168.05 534.85,-174.05 528.85,-180.05 522.85,-180.05"/>
<text text-anchor="start" x="386.05" y="-156.95" font-family="Helvetica,sans-Serif" font-weight="bold" font-size="14.00">toy1d_samples_plots</text>
<text text-anchor="start" x="444.55" y="-128.95" font-family="Helvetica,sans-Serif" font-style="italic" font-size="14.00">dict</text>
</g>
<!-- samples&#45;&gt;toy1d_samples_plots -->
<g id="edge1" class="edge">
<title>samples&#45;&gt;toy1d_samples_plots</title>
<path fill="none" stroke="black" d="M455.05,-208.67C455.05,-203.26 455.05,-197.55 455.05,-191.9"/>
<polygon fill="black" stroke="black" points="458.55,-192 455.05,-182 451.55,-192 458.55,-192"/>
</g>
<!-- prediction_shallow_samples_plots -->
<g id="node8" class="node">
<title>prediction_shallow_samples_plots</title>
<path fill="#b4d8e4" stroke="black" d="M237.35,-180.05C237.35,-180.05 14.75,-180.05 14.75,-180.05 8.75,-180.05 2.75,-174.05 2.75,-168.05 2.75,-168.05 2.75,-128.45 2.75,-128.45 2.75,-122.45 8.75,-116.45 14.75,-116.45 14.75,-116.45 237.35,-116.45 237.35,-116.45 243.35,-116.45 249.35,-122.45 249.35,-128.45 249.35,-128.45 249.35,-168.05 249.35,-168.05 249.35,-174.05 243.35,-180.05 237.35,-180.05"/>
<text text-anchor="start" x="13.55" y="-156.95" font-family="Helvetica,sans-Serif" font-weight="bold" font-size="14.00">prediction_shallow_samples_plots</text>
<text text-anchor="start" x="115.55" y="-128.95" font-family="Helvetica,sans-Serif" font-style="italic" font-size="14.00">dict</text>
</g>
<!-- samples&#45;&gt;prediction_shallow_samples_plots -->
<g id="edge2" class="edge">
<title>samples&#45;&gt;prediction_shallow_samples_plots</title>
<path fill="none" stroke="black" d="M416.67,-229.28C375.97,-218.08 309.55,-199.78 250.48,-183.52"/>
<polygon fill="black" stroke="black" points="251.57,-180.19 241,-180.91 249.71,-186.93 251.57,-180.19"/>
</g>
<!-- save_toy1d_samples_plots -->
<g id="node9" class="node">
<title>save_toy1d_samples_plots</title>
<path fill="#ffc857" stroke="black" d="M507.6,-79.5C507.6,-83.89 463.43,-87.45 409.05,-87.45 354.67,-87.45 310.5,-83.89 310.5,-79.5 310.5,-79.5 310.5,-7.95 310.5,-7.95 310.5,-3.56 354.67,0 409.05,0 463.43,0 507.6,-3.56 507.6,-7.95 507.6,-7.95 507.6,-79.5 507.6,-79.5"/>
<path fill="none" stroke="black" d="M507.6,-79.5C507.6,-75.11 463.43,-71.55 409.05,-71.55 354.67,-71.55 310.5,-75.11 310.5,-79.5"/>
<text text-anchor="start" x="321.3" y="-52.43" font-family="Helvetica,sans-Serif" font-weight="bold" font-size="14.00">save_toy1d_samples_plots</text>
<text text-anchor="start" x="322.8" y="-24.43" font-family="Helvetica,sans-Serif" font-style="italic" font-size="14.00">save_toy1d_samples_plots()</text>
</g>
<!-- toy1d_samples_plots&#45;&gt;save_toy1d_samples_plots -->
<g id="edge3" class="edge">
<title>toy1d_samples_plots&#45;&gt;save_toy1d_samples_plots</title>
<path fill="none" stroke="black" d="M441.12,-116.21C438.55,-110.47 435.79,-104.33 433.02,-98.15"/>
<polygon fill="black" stroke="black" points="436.27,-96.84 428.98,-89.15 429.88,-99.7 436.27,-96.84"/>
</g>
<!-- prediction_shallow_samples_plots&#45;&gt;save_prediction_shallow_samples_plots -->
<g id="edge5" class="edge">
<title>prediction_shallow_samples_plots&#45;&gt;save_prediction_shallow_samples_plots</title>
<path fill="none" stroke="black" d="M130.89,-116.21C131.75,-110.75 132.65,-104.93 133.57,-99.05"/>
<polygon fill="black" stroke="black" points="137.02,-99.68 135.1,-89.26 130.1,-98.6 137.02,-99.68"/>
</g>
<!-- save_variation_performance_plots -->
<g id="node10" class="node">
<title>save_variation_performance_plots</title>
<path fill="#ffc857" stroke="black" d="M774.6,-79.5C774.6,-83.89 719.67,-87.45 652.05,-87.45 584.43,-87.45 529.5,-83.89 529.5,-79.5 529.5,-79.5 529.5,-7.95 529.5,-7.95 529.5,-3.56 584.43,0 652.05,0 719.67,0 774.6,-3.56 774.6,-7.95 774.6,-7.95 774.6,-79.5 774.6,-79.5"/>
<path fill="none" stroke="black" d="M774.6,-79.5C774.6,-75.11 719.67,-71.55 652.05,-71.55 584.43,-71.55 529.5,-75.11 529.5,-79.5"/>
<text text-anchor="start" x="540.3" y="-52.43" font-family="Helvetica,sans-Serif" font-weight="bold" font-size="14.00">save_variation_performance_plots</text>
<text text-anchor="start" x="544.05" y="-24.43" font-family="Helvetica,sans-Serif" font-style="italic" font-size="14.00">save_variation_performance_plots()</text>
</g>
<!-- metrics -->
<g id="node11" class="node">
<title>metrics</title>
<path fill="#b4d8e4" stroke="black" d="M624.22,-272.65C624.22,-272.65 577.88,-272.65 577.88,-272.65 571.88,-272.65 565.88,-266.65 565.88,-260.65 565.88,-260.65 565.88,-221.05 565.88,-221.05 565.88,-215.05 571.88,-209.05 577.88,-209.05 577.88,-209.05 624.22,-209.05 624.22,-209.05 630.22,-209.05 636.22,-215.05 636.22,-221.05 636.22,-221.05 636.22,-260.65 636.22,-260.65 636.22,-266.65 630.22,-272.65 624.22,-272.65"/>
<text text-anchor="start" x="576.67" y="-249.55" font-family="Helvetica,sans-Serif" font-weight="bold" font-size="14.00">metrics</text>
<text text-anchor="start" x="590.55" y="-221.55" font-family="Helvetica,sans-Serif" font-style="italic" font-size="14.00">dict</text>
</g>
<!-- variation_performance_plots -->
<g id="node12" class="node">
<title>variation_performance_plots</title>
<path fill="#b4d8e4" stroke="black" d="M748.85,-180.05C748.85,-180.05 565.25,-180.05 565.25,-180.05 559.25,-180.05 553.25,-174.05 553.25,-168.05 553.25,-168.05 553.25,-128.45 553.25,-128.45 553.25,-122.45 559.25,-116.45 565.25,-116.45 565.25,-116.45 748.85,-116.45 748.85,-116.45 754.85,-116.45 760.85,-122.45 760.85,-128.45 760.85,-128.45 760.85,-168.05 760.85,-168.05 760.85,-174.05 754.85,-180.05 748.85,-180.05"/>
<text text-anchor="start" x="564.05" y="-156.95" font-family="Helvetica,sans-Serif" font-weight="bold" font-size="14.00">variation_performance_plots</text>
<text text-anchor="start" x="646.55" y="-128.95" font-family="Helvetica,sans-Serif" font-style="italic" font-size="14.00">dict</text>
</g>
<!-- metrics&#45;&gt;variation_performance_plots -->
<g id="edge4" class="edge">
<title>metrics&#45;&gt;variation_performance_plots</title>
<path fill="none" stroke="black" d="M620.32,-208.67C624.02,-202.69 627.94,-196.35 631.79,-190.12"/>
<polygon fill="black" stroke="black" points="634.67,-192.12 636.95,-181.78 628.71,-188.44 634.67,-192.12"/>
</g>
<!-- variation_performance_plots&#45;&gt;save_variation_performance_plots -->
<g id="edge6" class="edge">
<title>variation_performance_plots&#45;&gt;save_variation_performance_plots</title>
<path fill="none" stroke="black" d="M655.54,-116.21C655.27,-110.75 654.99,-104.93 654.7,-99.05"/>
<polygon fill="black" stroke="black" points="658.21,-99.09 654.22,-89.28 651.21,-99.44 658.21,-99.09"/>
</g>
<!-- _save_prediction_shallow_samples_plots_inputs -->
<g id="node13" class="node">
<title>_save_prediction_shallow_samples_plots_inputs</title>
<polygon fill="#ffffff" stroke="black" stroke-dasharray="5,2" points="356.85,-170.93 267.25,-170.93 267.25,-125.58 356.85,-125.58 356.85,-170.93"/>
<text text-anchor="start" x="282.05" y="-142.83" font-family="Helvetica,sans-Serif" font-size="14.00">output_dir</text>
</g>
<!-- _save_prediction_shallow_samples_plots_inputs&#45;&gt;save_prediction_shallow_samples_plots -->
<g id="edge7" class="edge">
<title>_save_prediction_shallow_samples_plots_inputs&#45;&gt;save_prediction_shallow_samples_plots</title>
<path fill="none" stroke="black" d="M275.58,-125.26C260.2,-115.98 241.63,-104.78 223.29,-93.72"/>
<polygon fill="black" stroke="black" points="225.11,-90.73 214.74,-88.57 221.5,-96.73 225.11,-90.73"/>
</g>
<!-- _save_prediction_shallow_samples_plots_inputs&#45;&gt;save_toy1d_samples_plots -->
<g id="edge9" class="edge">
<title>_save_prediction_shallow_samples_plots_inputs&#45;&gt;save_toy1d_samples_plots</title>
<path fill="none" stroke="black" d="M332.86,-125.26C341.03,-116.62 350.78,-106.32 360.52,-96.02"/>
<polygon fill="black" stroke="black" points="362.94,-98.55 367.27,-88.88 357.86,-93.74 362.94,-98.55"/>
</g>
<!-- _save_prediction_shallow_samples_plots_inputs&#45;&gt;save_variation_performance_plots -->
<g id="edge8" class="edge">
<title>_save_prediction_shallow_samples_plots_inputs&#45;&gt;save_variation_performance_plots</title>
<path fill="none" stroke="black" d="M346.97,-125.15C353.16,-121.87 359.67,-118.81 366.05,-116.45 430.15,-92.76 450.81,-104.23 517.05,-87.45 517.56,-87.32 518.06,-87.19 518.57,-87.06"/>
<polygon fill="black" stroke="black" points="519.11,-90.54 527.89,-84.61 517.32,-83.77 519.11,-90.54"/>
</g>
<!-- _samples_inputs -->
<g id="node14" class="node">
<title>_samples_inputs</title>
<polygon fill="#ffffff" stroke="black" stroke-dasharray="5,2" points="567.22,-347 488.87,-347 488.87,-301.65 567.22,-301.65 567.22,-347"/>
<text text-anchor="start" x="503.67" y="-318.9" font-family="Helvetica,sans-Serif" font-size="14.00">data_dir</text>
</g>
<!-- _samples_inputs&#45;&gt;samples -->
<g id="edge10" class="edge">
<title>_samples_inputs&#45;&gt;samples</title>
<path fill="none" stroke="black" d="M508.49,-301.49C502.84,-295.19 496.5,-288.11 490.21,-281.1"/>
<polygon fill="black" stroke="black" points="493.19,-279.17 483.91,-274.06 487.98,-283.85 493.19,-279.17"/>
</g>
<!-- _samples_inputs&#45;&gt;metrics -->
<g id="edge11" class="edge">
<title>_samples_inputs&#45;&gt;metrics</title>
<path fill="none" stroke="black" d="M547.61,-301.49C553.26,-295.19 559.6,-288.11 565.89,-281.1"/>
<polygon fill="black" stroke="black" points="568.12,-283.85 572.19,-274.06 562.91,-279.17 568.12,-283.85"/>
</g>
</g>
</svg>
