<?xml version="1.0" encoding="UTF-8" standalone="no"?>
<!DOCTYPE svg PUBLIC "-//W3C//DTD SVG 1.1//EN"
 "http://www.w3.org/Graphics/SVG/1.1/DTD/svg11.dtd">
<!-- Generated by graphviz version 12.2.1 (20241206.2353)
 -->
<!-- Title: G Pages: 1 -->
<svg width="597pt" height="831pt"
 viewBox="0.00 0.00 597.30 830.65" xmlns="http://www.w3.org/2000/svg" xmlns:xlink="http://www.w3.org/1999/xlink">
<g id="graph0" class="graph" transform="scale(1 1) rotate(0) translate(4 826.65)">
<title>G</title>
<polygon fill="white" stroke="none" points="-4,4 -4,-826.65 593.3,-826.65 593.3,4 -4,4"/>
<g id="clust1" class="cluster">
<title>cluster__legend</title>
<polygon fill="#ffffff" stroke="black" points="8,-684.25 8,-765.46 352,-765.46 352,-684.25 8,-684.25"/>
<text text-anchor="middle" x="180" y="-748.16" font-family="Helvetica,sans-Serif" font-size="14.00">Legend</text>
</g>
<!-- input -->
<g id="node1" class="node">
<title>input</title>
<polygon fill="#ffffff" stroke="black" stroke-dasharray="5,2" points="70,-731.65 16,-731.65 16,-694.3 70,-694.3 70,-731.65"/>
<text text-anchor="middle" x="43" y="-707.55" font-family="Helvetica,sans-Serif" font-size="14.00">input</text>
</g>
<!-- function -->
<g id="node2" class="node">
<title>function</title>
<path fill="#b4d8e4" stroke="black" d="M144.43,-731.65C144.43,-731.65 99.57,-731.65 99.57,-731.65 93.57,-731.65 87.57,-725.65 87.57,-719.65 87.57,-719.65 87.57,-706.3 87.57,-706.3 87.57,-700.3 93.57,-694.3 99.57,-694.3 99.57,-694.3 144.43,-694.3 144.43,-694.3 150.43,-694.3 156.43,-700.3 156.43,-706.3 156.43,-706.3 156.43,-719.65 156.43,-719.65 156.43,-725.65 150.43,-731.65 144.43,-731.65"/>
<text text-anchor="middle" x="122" y="-707.55" font-family="Helvetica,sans-Serif" font-size="14.00">function</text>
</g>
<!-- output -->
<g id="node3" class="node">
<title>output</title>
<path fill="#ffc857" stroke="black" d="M221.55,-731.65C221.55,-731.65 186.45,-731.65 186.45,-731.65 180.45,-731.65 174.45,-725.65 174.45,-719.65 174.45,-719.65 174.45,-706.3 174.45,-706.3 174.45,-700.3 180.45,-694.3 186.45,-694.3 186.45,-694.3 221.55,-694.3 221.55,-694.3 227.55,-694.3 233.55,-700.3 233.55,-706.3 233.55,-706.3 233.55,-719.65 233.55,-719.65 233.55,-725.65 227.55,-731.65 221.55,-731.65"/>
<text text-anchor="middle" x="204" y="-707.55" font-family="Helvetica,sans-Serif" font-size="14.00">output</text>
</g>
<!-- materializer -->
<g id="node4" class="node">
<title>materializer</title>
<path fill="#ffffff" stroke="black" d="M344.05,-729.94C344.05,-732.02 323.41,-733.71 298,-733.71 272.59,-733.71 251.95,-732.02 251.95,-729.94 251.95,-729.94 251.95,-696.02 251.95,-696.02 251.95,-693.94 272.59,-692.25 298,-692.25 323.41,-692.25 344.05,-693.94 344.05,-696.02 344.05,-696.02 344.05,-729.94 344.05,-729.94"/>
<path fill="none" stroke="black" d="M344.05,-729.94C344.05,-727.86 323.41,-726.17 298,-726.17 272.59,-726.17 251.95,-727.86 251.95,-729.94"/>
<text text-anchor="middle" x="298" y="-707.55" font-family="Helvetica,sans-Serif" font-size="14.00">materializer</text>
</g>
<!-- save_toy1d_parameter_variation_info -->
<g id="node5" class="node">
<title>save_toy1d_parameter_variation_info</title>
<path fill="#b4d8e4" stroke="black" d="M589.3,-566.35C589.3,-570.74 530,-574.3 457,-574.3 384,-574.3 324.7,-570.74 324.7,-566.35 324.7,-566.35 324.7,-494.8 324.7,-494.8 324.7,-490.42 384,-486.85 457,-486.85 530,-486.85 589.3,-490.42 589.3,-494.8 589.3,-494.8 589.3,-566.35 589.3,-566.35"/>
<path fill="none" stroke="black" d="M589.3,-566.35C589.3,-561.97 530,-558.4 457,-558.4 384,-558.4 324.7,-561.97 324.7,-566.35"/>
<text text-anchor="start" x="335.5" y="-539.28" font-family="Helvetica,sans-Serif" font-weight="bold" font-size="14.00">save_toy1d_parameter_variation_info</text>
<text text-anchor="start" x="339.25" y="-511.28" font-family="Helvetica,sans-Serif" font-style="italic" font-size="14.00">save_toy1d_parameter_variation_info()</text>
</g>
<!-- base_dir -->
<g id="node6" class="node">
<title>base_dir</title>
<path fill="#b4d8e4" stroke="black" d="M585.55,-449.9C585.55,-454.29 527.93,-457.85 457,-457.85 386.07,-457.85 328.45,-454.29 328.45,-449.9 328.45,-449.9 328.45,-378.35 328.45,-378.35 328.45,-373.96 386.07,-370.4 457,-370.4 527.93,-370.4 585.55,-373.96 585.55,-378.35 585.55,-378.35 585.55,-449.9 585.55,-449.9"/>
<path fill="none" stroke="black" d="M585.55,-449.9C585.55,-445.52 527.93,-441.95 457,-441.95 386.07,-441.95 328.45,-445.52 328.45,-449.9"/>
<text text-anchor="start" x="429.25" y="-422.83" font-family="Helvetica,sans-Serif" font-weight="bold" font-size="14.00">base_dir</text>
<text text-anchor="start" x="339.25" y="-394.83" font-family="Helvetica,sans-Serif" font-style="italic" font-size="14.00">save_toy1d_parameter_variation_info()</text>
</g>
<!-- save_toy1d_parameter_variation_info&#45;&gt;base_dir -->
<g id="edge1" class="edge">
<title>save_toy1d_parameter_variation_info&#45;&gt;base_dir</title>
<path fill="none" stroke="black" d="M457,-486.64C457,-481.14 457,-475.45 457,-469.8"/>
<polygon fill="black" stroke="black" points="460.5,-469.82 457,-459.82 453.5,-469.82 460.5,-469.82"/>
</g>
<!-- toy1d_load_train_history -->
<g id="node7" class="node">
<title>toy1d_load_train_history</title>
<path fill="#b4d8e4" stroke="black" d="M536.05,-307.03C536.05,-307.03 377.95,-307.03 377.95,-307.03 371.95,-307.03 365.95,-301.03 365.95,-295.03 365.95,-295.03 365.95,-255.43 365.95,-255.43 365.95,-249.43 371.95,-243.43 377.95,-243.43 377.95,-243.43 536.05,-243.43 536.05,-243.43 542.05,-243.43 548.05,-249.43 548.05,-255.43 548.05,-255.43 548.05,-295.03 548.05,-295.03 548.05,-301.03 542.05,-307.03 536.05,-307.03"/>
<text text-anchor="start" x="376.75" y="-283.93" font-family="Helvetica,sans-Serif" font-weight="bold" font-size="14.00">toy1d_load_train_history</text>
<text text-anchor="start" x="446.5" y="-255.93" font-family="Helvetica,sans-Serif" font-style="italic" font-size="14.00">dict</text>
</g>
<!-- base_dir&#45;&gt;toy1d_load_train_history -->
<g id="edge2" class="edge">
<title>base_dir&#45;&gt;toy1d_load_train_history</title>
<path fill="none" stroke="black" d="M457,-370.19C457,-353.78 457,-335.09 457,-318.73"/>
<polygon fill="black" stroke="black" points="460.5,-318.8 457,-308.8 453.5,-318.8 460.5,-318.8"/>
</g>
<!-- toy1d_parameter_variation_plots -->
<g id="node8" class="node">
<title>toy1d_parameter_variation_plots</title>
<path fill="#b4d8e4" stroke="black" d="M479.3,-180.05C479.3,-180.05 268.7,-180.05 268.7,-180.05 262.7,-180.05 256.7,-174.05 256.7,-168.05 256.7,-168.05 256.7,-128.45 256.7,-128.45 256.7,-122.45 262.7,-116.45 268.7,-116.45 268.7,-116.45 479.3,-116.45 479.3,-116.45 485.3,-116.45 491.3,-122.45 491.3,-128.45 491.3,-128.45 491.3,-168.05 491.3,-168.05 491.3,-174.05 485.3,-180.05 479.3,-180.05"/>
<text text-anchor="start" x="267.5" y="-156.95" font-family="Helvetica,sans-Serif" font-weight="bold" font-size="14.00">toy1d_parameter_variation_plots</text>
<text text-anchor="start" x="363.5" y="-128.95" font-family="Helvetica,sans-Serif" font-style="italic" font-size="14.00">dict</text>
</g>
<!-- toy1d_load_train_history&#45;&gt;toy1d_parameter_variation_plots -->
<g id="edge3" class="edge">
<title>toy1d_load_train_history&#45;&gt;toy1d_parameter_variation_plots</title>
<path fill="none" stroke="black" d="M436.27,-243.01C425.57,-226.91 412.4,-207.07 400.93,-189.79"/>
<polygon fill="black" stroke="black" points="404.04,-188.16 395.59,-181.76 398.21,-192.03 404.04,-188.16"/>
</g>
<!-- save_toy1d_parameter_variation_plots -->
<g id="node9" class="node">
<title>save_toy1d_parameter_variation_plots</title>
<path fill="#ffc857" stroke="black" d="M420.05,-79.5C420.05,-83.89 359.07,-87.45 284,-87.45 208.93,-87.45 147.95,-83.89 147.95,-79.5 147.95,-79.5 147.95,-7.95 147.95,-7.95 147.95,-3.56 208.93,0 284,0 359.07,0 420.05,-3.56 420.05,-7.95 420.05,-7.95 420.05,-79.5 420.05,-79.5"/>
<path fill="none" stroke="black" d="M420.05,-79.5C420.05,-75.11 359.07,-71.55 284,-71.55 208.93,-71.55 147.95,-75.11 147.95,-79.5"/>
<text text-anchor="start" x="158.75" y="-52.43" font-family="Helvetica,sans-Serif" font-weight="bold" font-size="14.00">save_toy1d_parameter_variation_plots</text>
<text text-anchor="start" x="162.88" y="-24.43" font-family="Helvetica,sans-Serif" font-style="italic" font-size="14.00">save_toy1d_parameter_variation_plots()</text>
</g>
<!-- toy1d_parameter_variation_plots&#45;&gt;save_toy1d_parameter_variation_plots -->
<g id="edge4" class="edge">
<title>toy1d_parameter_variation_plots&#45;&gt;save_toy1d_parameter_variation_plots</title>
<path fill="none" stroke="black" d="M346.75,-116.21C341.22,-109.91 335.27,-103.13 329.31,-96.34"/>
<polygon fill="black" stroke="black" points="332.01,-94.11 322.78,-88.9 326.75,-98.73 332.01,-94.11"/>
</g>
<!-- _save_toy1d_parameter_variation_info_inputs -->
<g id="node10" class="node">
<title>_save_toy1d_parameter_variation_info_inputs</title>
<polygon fill="#ffffff" stroke="black" stroke-dasharray="5,2" points="552.42,-822.65 361.57,-822.65 361.57,-603.3 552.42,-603.3 552.42,-822.65"/>
<text text-anchor="start" x="439.75" y="-794.55" font-family="Helvetica,sans-Serif" font-size="14.00">n_run</text>
<text text-anchor="start" x="391" y="-772.8" font-family="Helvetica,sans-Serif" font-size="14.00">max_jobs_per_device</text>
<text text-anchor="start" x="433" y="-751.05" font-family="Helvetica,sans-Serif" font-size="14.00">minimal</text>
<text text-anchor="start" x="429.25" y="-729.3" font-family="Helvetica,sans-Serif" font-size="14.00">n_worker</text>
<text text-anchor="start" x="406" y="-707.55" font-family="Helvetica,sans-Serif" font-size="14.00">aditional_outputs</text>
<text text-anchor="start" x="405.25" y="-685.8" font-family="Helvetica,sans-Serif" font-size="14.00">toy1d_base_args</text>
<text text-anchor="start" x="376.38" y="-664.05" font-family="Helvetica,sans-Serif" font-size="14.00">toy1d_parameter_variation</text>
<text text-anchor="start" x="424" y="-642.3" font-family="Helvetica,sans-Serif" font-size="14.00">base_seed</text>
<text text-anchor="start" x="427" y="-620.55" font-family="Helvetica,sans-Serif" font-size="14.00">output_dir</text>
</g>
<!-- _save_toy1d_parameter_variation_info_inputs&#45;&gt;save_toy1d_parameter_variation_info -->
<g id="edge5" class="edge">
<title>_save_toy1d_parameter_variation_info_inputs&#45;&gt;save_toy1d_parameter_variation_info</title>
<path fill="none" stroke="black" d="M457,-602.88C457,-596.97 457,-591.18 457,-585.61"/>
<polygon fill="black" stroke="black" points="460.5,-586.04 457,-576.04 453.5,-586.04 460.5,-586.04"/>
</g>
<!-- _toy1d_parameter_variation_plots_inputs -->
<g id="node11" class="node">
<title>_toy1d_parameter_variation_plots_inputs</title>
<polygon fill="#ffffff" stroke="black" stroke-dasharray="5,2" points="348.18,-341.4 233.82,-341.4 233.82,-209.05 348.18,-209.05 348.18,-341.4"/>
<text text-anchor="start" x="259.88" y="-313.3" font-family="Helvetica,sans-Serif" font-size="14.00">plot_prefix</text>
<text text-anchor="start" x="259.12" y="-291.55" font-family="Helvetica,sans-Serif" font-size="14.00">log_y_axis</text>
<text text-anchor="start" x="271.88" y="-269.8" font-family="Helvetica,sans-Serif" font-size="14.00">x_axis</text>
<text text-anchor="start" x="248.62" y="-248.05" font-family="Helvetica,sans-Serif" font-size="14.00">series_names</text>
<text text-anchor="start" x="250.88" y="-226.3" font-family="Helvetica,sans-Serif" font-size="14.00">custom_plots</text>
</g>
<!-- _toy1d_parameter_variation_plots_inputs&#45;&gt;toy1d_parameter_variation_plots -->
<g id="edge6" class="edge">
<title>_toy1d_parameter_variation_plots_inputs&#45;&gt;toy1d_parameter_variation_plots</title>
<path fill="none" stroke="black" d="M334.44,-208.81C338.77,-202.3 343.07,-195.83 347.14,-189.69"/>
<polygon fill="black" stroke="black" points="349.9,-191.87 352.51,-181.61 344.06,-188 349.9,-191.87"/>
</g>
<!-- _save_toy1d_parameter_variation_plots_inputs -->
<g id="node12" class="node">
<title>_save_toy1d_parameter_variation_plots_inputs</title>
<polygon fill="#ffffff" stroke="black" stroke-dasharray="5,2" points="238.8,-170.93 149.2,-170.93 149.2,-125.58 238.8,-125.58 238.8,-170.93"/>
<text text-anchor="start" x="164" y="-142.83" font-family="Helvetica,sans-Serif" font-size="14.00">output_dir</text>
</g>
<!-- _save_toy1d_parameter_variation_plots_inputs&#45;&gt;save_toy1d_parameter_variation_plots -->
<g id="edge7" class="edge">
<title>_save_toy1d_parameter_variation_plots_inputs&#45;&gt;save_toy1d_parameter_variation_plots</title>
<path fill="none" stroke="black" d="M213.31,-125.26C220.81,-116.71 229.75,-106.52 238.71,-96.32"/>
<polygon fill="black" stroke="black" points="241.24,-98.75 245.2,-88.92 235.98,-94.13 241.24,-98.75"/>
</g>
</g>
</svg>
