<svg width="126" height="146" viewBox="0 0 126 146" fill="none" xmlns="http://www.w3.org/2000/svg">
<g filter="url(#filter0_ddd_2818_45668)">
<path d="M62.8241 46H48C35.8497 46 26 55.8497 26 68V97.8297C26 106.013 30.5517 113.708 38.3153 116.847C45.5214 119.761 55.1913 123 62.8241 123C70.5401 123 80.3244 119.752 87.6089 116.833C95.411 113.707 100 105.99 100 97.7735V68C100 55.8497 90.1503 46 78 46H62.8241Z" fill="#6F6F73" stroke="white" stroke-width="4"/>
<path d="M48 48H62.8241H78C89.0457 48 98 56.9543 98 68V97.7735C98 105.269 93.8228 112.189 86.8651 114.976C79.5897 117.891 70.1205 121 62.8241 121C55.6145 121 46.2621 117.903 39.065 114.993C32.1434 112.195 28 105.296 28 97.8297V68C28 56.9543 36.9543 48 48 48Z" fill="#6F6F73"/>
<path d="M98 87H96V89V95V97H98H100C102.209 97 104 95.2091 104 93V91C104 88.7909 102.209 87 100 87H98Z" fill="#25252A" stroke="white" stroke-width="4"/>
<path d="M98 71H96V73V79V81H98H100C102.209 81 104 79.2091 104 77V75C104 72.7909 102.209 71 100 71H98Z" fill="#25252A" stroke="white" stroke-width="4"/>
<path d="M28 87H30V89V95V97H28H26C23.7909 97 22 95.2091 22 93V91C22 88.7909 23.7909 87 26 87H28Z" fill="#25252A" stroke="white" stroke-width="4"/>
<path d="M28 71H30V73V79V81H28H26C23.7909 81 22 79.2091 22 77V75C22 72.7909 23.7909 71 26 71H28Z" fill="#25252A" stroke="white" stroke-width="4"/>
<mask id="path-7-outside-1_2818_45668" maskUnits="userSpaceOnUse" x="52" y="19" width="22" height="29" fill="black">
<rect fill="white" x="52" y="19" width="22" height="29"/>
<path fill-rule="evenodd" clip-rule="evenodd" d="M60 23C57.7909 23 56 24.7909 56 27V35C56 37.2091 57.7909 39 60 39L60 44H66V39C68.2091 39 70 37.2091 70 35V27C70 24.7909 68.2091 23 66 23H60Z"/>
</mask>
<path fill-rule="evenodd" clip-rule="evenodd" d="M60 23C57.7909 23 56 24.7909 56 27V35C56 37.2091 57.7909 39 60 39L60 44H66V39C68.2091 39 70 37.2091 70 35V27C70 24.7909 68.2091 23 66 23H60Z" fill="#25252A"/>
<path d="M60 39H64V35H60V39ZM60 44H56L56 48H60V44ZM66 44V48H70V44H66ZM66 39V35H62V39H66ZM60 27V19C55.5817 19 52 22.5817 52 27H60ZM60 35V27H52V35H60ZM60 35H60H52C52 39.4183 55.5817 43 60 43V35ZM64 44L64 39H56L56 44H64ZM66 40H60V48H66V40ZM62 39V44H70V39H62ZM66 35V43C70.4183 43 74 39.4183 74 35H66ZM66 27V35H74V27H66ZM66 27H74C74 22.5817 70.4183 19 66 19V27ZM60 27H66V19H60V27Z" fill="white" mask="url(#path-7-outside-1_2818_45668)"/>
<path d="M34 73H92V79H34V73Z" fill="#38393E"/>
<path d="M34 89H92V95H34V89Z" fill="#38393E"/>
<g filter="url(#filter1_f_2818_45668)">
<mask id="mask0_2818_45668" style="mask-type:alpha" maskUnits="userSpaceOnUse" x="34" y="55" width="58" height="59">
<path d="M54 55H62.8543H72C83.0457 55 92 63.9543 92 75V92.7485C92 100.316 87.7512 107.321 80.6505 109.938C74.9832 112.027 68.2118 114 62.8543 114C57.5648 114 50.8833 112.038 45.2821 109.955C38.216 107.328 34 100.343 34 92.8042V75C34 63.9543 42.9543 55 54 55Z" fill="#6F6F73"/>
</mask>
<g mask="url(#mask0_2818_45668)">
<path d="M30.4711 86.9563C29.6695 68.9977 44.0127 54 61.9891 54V54C80.3454 54 94.8261 69.6105 93.4496 87.9152L93.1866 91.4128C93.0626 93.0623 92.7627 94.6938 92.2921 96.2795L91.1432 100.151C89.6797 105.082 85.8759 108.973 80.9788 110.548V110.548L76.1498 112.157C68.5899 114.676 60.5061 115.192 52.6871 113.656L50.699 113.265C48.601 112.853 46.5566 112.204 44.6049 111.331L42.3441 110.32C38.9992 108.824 36.14 106.421 34.0904 103.384V103.384C32.0694 100.389 30.9147 96.8941 30.7536 93.2846L30.4711 86.9563Z" fill="#4D8AFF"/>
<path d="M91 112L78.6405 96.4444L51.4494 112L36 92" stroke="#3C5FFB" stroke-width="4"/>
<path d="M36 79L48.3595 68.8889L75.5506 79L91 66" stroke="#6DAAFF" stroke-width="10"/>
<path d="M48 92L54.9663 71.7778L70.2921 92L79 66" stroke="#A5C8FF" stroke-width="10"/>
<path d="M34 98L46.3595 87.8889L73.5506 98L89 85" stroke="#6DAAFF" stroke-width="10"/>
<path d="M35 111L47.3596 104L74.5506 111L90 102" stroke="#3C5FFB" stroke-width="9"/>
<path d="M32 69L45.2584 62L74.427 69L91 60" stroke="#6DAAFF" stroke-width="10"/>
</g>
</g>
<path d="M48 51H62.8241H78C87.3888 51 95 58.6112 95 68V97.7735C95 104.187 91.4405 109.911 85.7493 112.192C78.4875 115.101 69.4911 118 62.8241 118C56.2494 118 47.3732 115.117 40.1896 112.212C34.5311 109.924 31 104.219 31 97.8297V68C31 58.6112 38.6112 51 48 51Z" stroke="#515259" stroke-width="6"/>
<rect x="56" y="48" width="14" height="6" fill="#6F6F73"/>
<path fill-rule="evenodd" clip-rule="evenodd" d="M60 23C57.7909 23 56 24.7909 56 27V35C56 37.2091 57.7909 39 60 39V100.52C58.2659 100.194 56.092 100 53.7321 100C48.0614 100 39 101.119 39 102.5C39 103.881 48.0614 105 53.7321 105C58.2952 105 62.163 104.275 63.5 103.273C64.837 104.275 68.7048 105 73.2679 105C78.9386 105 88 103.881 88 102.5C88 101.119 78.9386 100 73.2679 100C70.4287 100 67.8587 100.281 66 100.734V39C68.2091 39 70 37.2091 70 35V27C70 24.7909 68.2091 23 66 23H60Z" fill="#25252A"/>
</g>
<defs>
<filter id="filter0_ddd_2818_45668" x="-17" y="-7" width="160" height="160" filterUnits="userSpaceOnUse" color-interpolation-filters="sRGB">
<feFlood flood-opacity="0" result="BackgroundImageFix"/>
<feColorMatrix in="SourceAlpha" type="matrix" values="0 0 0 0 0 0 0 0 0 0 0 0 0 0 0 0 0 0 127 0" result="hardAlpha"/>
<feOffset dy="1"/>
<feGaussianBlur stdDeviation="1"/>
<feColorMatrix type="matrix" values="0 0 0 0 0.309804 0 0 0 0 0.321569 0 0 0 0 0.407843 0 0 0 0.24 0"/>
<feBlend mode="normal" in2="BackgroundImageFix" result="effect1_dropShadow_2818_45668"/>
<feColorMatrix in="SourceAlpha" type="matrix" values="0 0 0 0 0 0 0 0 0 0 0 0 0 0 0 0 0 0 127 0" result="hardAlpha"/>
<feOffset dy="1"/>
<feGaussianBlur stdDeviation="4"/>
<feColorMatrix type="matrix" values="0 0 0 0 0.309804 0 0 0 0 0.321569 0 0 0 0 0.407843 0 0 0 0.08 0"/>
<feBlend mode="normal" in2="effect1_dropShadow_2818_45668" result="effect2_dropShadow_2818_45668"/>
<feColorMatrix in="SourceAlpha" type="matrix" values="0 0 0 0 0 0 0 0 0 0 0 0 0 0 0 0 0 0 127 0" result="hardAlpha"/>
<feMorphology radius="4" operator="dilate" in="SourceAlpha" result="effect3_dropShadow_2818_45668"/>
<feOffset dy="1"/>
<feGaussianBlur stdDeviation="8"/>
<feColorMatrix type="matrix" values="0 0 0 0 0.309804 0 0 0 0 0.321569 0 0 0 0 0.407843 0 0 0 0.1 0"/>
<feBlend mode="normal" in2="effect2_dropShadow_2818_45668" result="effect3_dropShadow_2818_45668"/>
<feBlend mode="normal" in="SourceGraphic" in2="effect3_dropShadow_2818_45668" result="shape"/>
</filter>
<filter id="filter1_f_2818_45668" x="22" y="43" width="82" height="83" filterUnits="userSpaceOnUse" color-interpolation-filters="sRGB">
<feFlood flood-opacity="0" result="BackgroundImageFix"/>
<feBlend mode="normal" in="SourceGraphic" in2="BackgroundImageFix" result="shape"/>
<feGaussianBlur stdDeviation="6" result="effect1_foregroundBlur_2818_45668"/>
</filter>
</defs>
</svg>
