<svg width="141" height="120" viewBox="0 0 141 120" fill="none" xmlns="http://www.w3.org/2000/svg">
<g filter="url(#filter0_ddd_2818_45669)">
<path d="M48.4326 46C48.4326 38.8203 42.6123 33 35.4326 33H32.0756H27.1637C25.2239 33 23.4571 33.9055 22.8566 35.75C21.7894 39.0279 20.4326 45.8746 20.4326 59.5C20.4326 70.2339 21.2746 76.7608 22.1538 80.6502C22.9598 84.2162 26.2018 86 29.8578 86H35.4326C42.6123 86 48.4326 80.1797 48.4326 73V46Z" fill="white"/>
<path d="M24.4888 63.4335C24.9432 75.3879 27.3027 82 28.7593 82C28.7849 82 28.8124 81.9968 28.8398 81.9905C28.8497 81.9889 28.8596 81.9836 28.8695 81.9815C28.8894 81.9763 28.9068 81.9715 28.9273 81.9636C28.9383 81.9583 28.9506 81.9509 28.9634 81.9451C28.9821 81.9361 29.0002 81.9282 29.0194 81.9171C29.0323 81.9092 29.0457 81.8987 29.0597 81.8902C29.0789 81.8776 29.0976 81.866 29.1174 81.8517C29.132 81.8406 29.1478 81.828 29.1612 81.8163C29.1816 81.8 29.2003 81.7847 29.2218 81.7667C29.237 81.753 29.2533 81.7361 29.2691 81.7208C29.2889 81.7008 29.3093 81.6823 29.3298 81.6601C29.3455 81.6438 29.363 81.6248 29.3788 81.6058C29.4003 81.582 29.4208 81.5588 29.4423 81.5329C29.4593 81.5118 29.4773 81.4891 29.4948 81.467C29.5158 81.4395 29.5374 81.4132 29.559 81.3836C29.5759 81.3609 29.594 81.334 29.6115 81.3087C29.6337 81.2765 29.6558 81.2453 29.6797 81.2116C29.6967 81.1852 29.7147 81.1567 29.7328 81.1292C29.7562 81.0928 29.7789 81.0559 29.8034 81.0168C29.8221 80.9862 29.8402 80.954 29.8594 80.9229C29.8827 80.8828 29.9061 80.8421 29.93 80.7994C29.9492 80.7656 29.9685 80.7292 29.9877 80.6933C30.0117 80.6485 30.0362 80.6036 30.0601 80.5561C30.0799 80.5192 30.0986 80.4812 30.1178 80.4432C30.1429 80.3925 30.168 80.3413 30.1936 80.288C30.2129 80.2484 30.231 80.2078 30.2502 80.1672C30.2759 80.1117 30.3016 80.0547 30.3278 79.9956C30.3465 79.9524 30.3663 79.9075 30.3856 79.8626C30.4112 79.8014 30.4375 79.7402 30.4637 79.6764C30.483 79.6299 30.5016 79.5814 30.5209 79.5333C30.5477 79.4663 30.574 79.3988 30.6002 79.3286C30.6201 79.279 30.6376 79.2294 30.6568 79.1782C30.6836 79.1043 30.7116 79.0299 30.7385 78.9539C30.7571 78.9016 30.7752 78.8483 30.7939 78.795C30.8213 78.7153 30.8487 78.6346 30.8761 78.5523C30.8942 78.4963 30.9129 78.4404 30.931 78.3829C30.959 78.2979 30.9858 78.2113 31.0126 78.1232C31.0313 78.0636 31.05 78.0029 31.0686 77.9422C31.096 77.8498 31.1235 77.7559 31.1509 77.6604C31.1678 77.6002 31.1859 77.5395 31.2034 77.4767C31.2314 77.3759 31.2594 77.273 31.2868 77.168C31.3037 77.1047 31.3212 77.0419 31.3375 76.9775C31.365 76.8693 31.393 76.759 31.4209 76.6471C31.4367 76.5817 31.4536 76.5162 31.4699 76.4492C31.4979 76.3331 31.5259 76.2144 31.5539 76.0951C31.5697 76.0265 31.5854 75.9568 31.6012 75.8866C31.6292 75.7637 31.6566 75.6386 31.684 75.5114C31.6992 75.4402 31.7149 75.3689 31.7295 75.2956C31.7575 75.1642 31.7844 75.0301 31.8118 74.8945C31.8258 74.8201 31.8415 74.7462 31.8555 74.6707C31.8829 74.5298 31.9104 74.3852 31.9372 74.2396C31.9506 74.1651 31.9652 74.0913 31.978 74.0153C32.0054 73.8617 32.0329 73.705 32.0597 73.5466C32.0719 73.4738 32.0848 73.4015 32.0964 73.3271C32.1238 73.1619 32.1507 72.992 32.1775 72.821C32.1892 72.7482 32.2008 72.6769 32.2125 72.6025C32.2393 72.4236 32.2662 72.2405 32.293 72.0563C32.3035 71.985 32.3128 71.9159 32.3233 71.8441C32.3508 71.6494 32.377 71.4494 32.4038 71.2483C32.4126 71.1824 32.4208 71.1174 32.4295 71.0509C32.4569 70.8367 32.4838 70.6171 32.51 70.396C32.5176 70.3374 32.524 70.2804 32.5304 70.2219C32.5345 70.1913 32.538 69.3105 32.5415 69.2799L32.7375 67L33.1043 64.9444C33.1636 64.6124 33.3477 64.3156 33.6189 64.1151C33.9735 63.8528 34.1734 63.4306 34.1527 62.9901C34.0951 61.7616 34.0657 60.9343 34.0657 59.4987C34.0657 56.7654 34.1692 55.5723 34.3718 53.2846C34.4046 52.9153 34.1136 52.5968 33.7428 52.5968C33.5499 52.5968 33.3676 52.5087 33.2477 52.3576L33.0195 52.0699C32.8362 51.8389 32.7311 51.5557 32.7191 51.2611L32.6763 50.202C31.7056 40.2277 29.622 37 28.7651 37C27.3313 37 24.658 43.9461 24.434 57.7877C24.427 58.3846 24.4474 62.1907 24.4888 63.4335Z" fill="#D52936"/>
<rect x="2" y="-2" width="93.6" height="15.2" rx="4" transform="matrix(-1 0 0 1 120.999 54.4)" fill="#25252A" stroke="white" stroke-width="4"/>
<path d="M107.63 42.962C109.911 43.4753 111.532 45.5015 111.532 47.84V72.16C111.532 74.4985 109.911 76.5247 107.63 77.038L53.8966 89.128C50.7706 89.8314 47.799 87.4542 47.799 84.25V35.75C47.799 32.5458 50.7706 30.1686 53.8966 30.872L107.63 42.962Z" fill="#25252A" stroke="white" stroke-width="4"/>
<path d="M109.533 47.84C109.533 46.4369 108.561 45.2212 107.192 44.9132L53.4583 32.8232C51.5827 32.4012 49.7997 33.8275 49.7997 35.75V84.25C49.7997 86.1725 51.5827 87.5988 53.4583 87.1768L107.192 75.0868C108.561 74.7788 109.533 73.5631 109.533 72.16V47.84Z" fill="#25252A"/>
<rect width="7.46667" height="29.8667" rx="2" transform="matrix(-1 0 0 1 94.5997 45.0667)" fill="#515259"/>
<rect width="7.46667" height="26.1333" rx="2" transform="matrix(-1 0 0 1 94.5997 45.0667)" fill="#6F6F73"/>
<rect width="7.46667" height="37.3333" rx="2" transform="matrix(-1 0 0 1 72.1997 41.3333)" fill="#515259"/>
<rect width="7.46667" height="29.8667" rx="2" transform="matrix(-1 0 0 1 72.1997 41.3333)" fill="#6F6F73"/>
<rect width="7.46667" height="41.0667" rx="2" transform="matrix(-1 0 0 1 60.9997 39.4667)" fill="#515259"/>
<rect width="7.46667" height="31.7333" rx="2" transform="matrix(-1 0 0 1 60.9997 39.4667)" fill="#6F6F73"/>
<rect width="7.46667" height="24.2667" rx="2" transform="matrix(-1 0 0 1 105.8 47.8666)" fill="#515259"/>
<rect width="7.46667" height="33.6" rx="2" transform="matrix(-1 0 0 1 83.3997 43.2)" fill="#515259"/>
<rect width="7.46667" height="26.1333" rx="2" transform="matrix(-1 0 0 1 105.8 46.9333)" fill="#515259"/>
<rect width="7.46667" height="28" rx="2" transform="matrix(-1 0 0 1 83.3997 43.2)" fill="#6F6F73"/>
<path d="M105.8 48.9334C105.8 47.8288 104.904 46.9333 103.8 46.9333H100.333C99.2285 46.9333 98.3331 47.8288 98.3331 48.9333V69.2C98.3331 70.3046 99.2285 71.2 100.333 71.2H103.8C104.904 71.2 105.8 70.3046 105.8 69.2V48.9334Z" fill="#6F6F73"/>
<rect width="89.6" height="11.2" rx="2" transform="matrix(-1 0 0 1 117 54.4)" fill="#25252A"/>
<rect width="89.6" height="5.6" rx="2" transform="matrix(-1 0 0 1 117 54.4)" fill="#6F6F73"/>
<path d="M109.533 47.84C109.533 46.4369 108.561 45.2212 107.192 44.9132L53.4583 32.8232C51.5827 32.4012 49.7997 33.8275 49.7997 35.75V62.6C49.7997 64.2569 51.1429 65.6 52.7997 65.6H106.533C108.19 65.6 109.533 64.2569 109.533 62.6V47.84Z" fill="white" fill-opacity="0.3"/>
<path d="M38.4287 65.1592L37.6767 65.9824L36.7676 66.9773C36.2559 67.5373 36.6532 68.4384 37.4117 68.4384H37.5722C37.9915 68.4384 38.3229 68.794 38.2933 69.2124C38.0541 72.5988 37.5682 77.4498 36.6352 80.5152C36.4209 81.2194 36.9284 82 37.6645 82H42.2923C42.8632 82 44.2646 78.8418 44.9526 69.0795C44.9783 68.7183 45.2788 68.4384 45.6409 68.4384H45.7303C46.4007 68.4384 46.7634 67.6529 46.3286 67.1426L42.6125 62.7812C42.2477 62.3531 41.6017 62.3099 41.1832 62.6857L38.4287 65.1592Z" fill="#D52936"/>
<path fill-rule="evenodd" clip-rule="evenodd" d="M35.609 62.3152L34.7237 63.2842L33.8146 64.2792C31.8514 66.4279 32.2845 69.476 34.1219 71.173C33.8525 74.1144 33.4291 77.3114 32.8085 79.3505C31.9222 82.2625 33.8755 86 37.6645 86H42.2923C44.1391 86 45.237 84.8325 45.5237 84.512C45.9529 84.0321 46.2437 83.5183 46.4358 83.1307C46.8352 82.3251 47.1684 81.3215 47.4567 80.1803C47.9624 78.1785 48.4381 75.3122 48.786 71.3483C50.6945 69.7533 51.237 66.7358 49.3733 64.5484L45.6572 60.187C43.8333 58.0464 40.6032 57.8305 38.5107 59.7096L35.609 62.3152ZM34.3033 68.9301C34.3033 68.9303 34.3033 68.93 34.3033 68.9301L38.2934 69.2124C38.323 68.794 37.9916 68.4384 37.5722 68.4384H37.4117C36.6532 68.4384 36.256 67.5373 36.7676 66.9773L38.4287 65.1592L41.1832 62.6857C41.6017 62.3099 42.2477 62.3531 42.6125 62.7812L46.3286 67.1426C46.7634 67.6529 46.4008 68.4384 45.7303 68.4384H45.6409C45.2788 68.4384 44.9783 68.7183 44.9526 69.0795C44.2646 78.8418 42.8632 82 42.2923 82H37.6645C36.9284 82 36.4209 81.2194 36.6352 80.5152C37.5682 77.4498 38.0542 72.5988 38.2934 69.2124L34.3033 68.9301Z" fill="white"/>
<path d="M36.2495 37C35.4614 37 34.9395 37.8968 35.219 38.6336C36.1956 41.2081 36.7638 44.9989 37.0852 48.0941C37.1385 48.6077 37.5692 49 38.0855 49H38.8567H42.1424H44.3336C44.9231 49 45.3849 48.4889 45.3216 47.9028C44.4363 39.7133 42.8321 37 42.1454 37H36.2495Z" fill="#D52936"/>
<path fill-rule="evenodd" clip-rule="evenodd" d="M31.4791 40.0523C32.2544 42.0962 32.7868 45.4275 33.1066 48.5072C33.3692 51.0368 35.4977 53 38.0855 53H44.3336C47.2859 53 49.6192 50.4408 49.2984 47.4729C48.8368 43.2031 48.1681 40.1487 47.4331 38.0553C47.0717 37.0257 46.6416 36.0753 46.1113 35.2979C45.8494 34.9139 45.4752 34.4414 44.9609 34.0247C44.4973 33.6491 43.5236 33 42.1454 33H36.2495C34.2217 33 32.7092 34.1695 31.9243 35.4489C31.154 36.7046 30.8537 38.4037 31.4791 40.0523ZM35.219 38.6336C34.9395 37.8968 35.4614 37 36.2495 37H42.1454C42.832 37 44.4362 39.7133 45.3216 47.9028C45.3849 48.4889 44.9231 49 44.3336 49H38.0855C37.5692 49 37.1385 48.6077 37.0852 48.0941C36.7638 44.9989 36.1956 41.2081 35.219 38.6336Z" fill="white"/>
</g>
<defs>
<filter id="filter0_ddd_2818_45669" x="-11" y="-19" width="160" height="160" filterUnits="userSpaceOnUse" color-interpolation-filters="sRGB">
<feFlood flood-opacity="0" result="BackgroundImageFix"/>
<feColorMatrix in="SourceAlpha" type="matrix" values="0 0 0 0 0 0 0 0 0 0 0 0 0 0 0 0 0 0 127 0" result="hardAlpha"/>
<feOffset dy="1"/>
<feGaussianBlur stdDeviation="1"/>
<feColorMatrix type="matrix" values="0 0 0 0 0.309804 0 0 0 0 0.321569 0 0 0 0 0.407843 0 0 0 0.24 0"/>
<feBlend mode="normal" in2="BackgroundImageFix" result="effect1_dropShadow_2818_45669"/>
<feColorMatrix in="SourceAlpha" type="matrix" values="0 0 0 0 0 0 0 0 0 0 0 0 0 0 0 0 0 0 127 0" result="hardAlpha"/>
<feOffset dy="1"/>
<feGaussianBlur stdDeviation="4"/>
<feColorMatrix type="matrix" values="0 0 0 0 0.309804 0 0 0 0 0.321569 0 0 0 0 0.407843 0 0 0 0.08 0"/>
<feBlend mode="normal" in2="effect1_dropShadow_2818_45669" result="effect2_dropShadow_2818_45669"/>
<feColorMatrix in="SourceAlpha" type="matrix" values="0 0 0 0 0 0 0 0 0 0 0 0 0 0 0 0 0 0 127 0" result="hardAlpha"/>
<feMorphology radius="4" operator="dilate" in="SourceAlpha" result="effect3_dropShadow_2818_45669"/>
<feOffset dy="1"/>
<feGaussianBlur stdDeviation="8"/>
<feColorMatrix type="matrix" values="0 0 0 0 0.309804 0 0 0 0 0.321569 0 0 0 0 0.407843 0 0 0 0.1 0"/>
<feBlend mode="normal" in2="effect2_dropShadow_2818_45669" result="effect3_dropShadow_2818_45669"/>
<feBlend mode="normal" in="SourceGraphic" in2="effect3_dropShadow_2818_45669" result="shape"/>
</filter>
</defs>
</svg>
