<svg width="120" height="140" viewBox="0 0 120 140" fill="none" xmlns="http://www.w3.org/2000/svg">
<g filter="url(#filter0_ddd_2818_45887)">
<path d="M40.286 64.0135L38.2825 43.7007L45.7571 61.3863C45.5879 61.4428 45.4192 61.5003 45.2508 61.5587L43.0277 62.3301L44 64.1274C44 64.1285 44 64.1296 44 64.1306V114C44 115.657 45.3431 117 47 117H49C50.6569 117 52 115.657 52 114V78.9153L54.7228 83.9483C54.8536 84.1901 54.9979 84.419 55.1543 84.6348C54.4517 85.1838 54 86.0392 54 87V89C54 89.8885 54.3863 90.6868 55 91.2361V93.7639C54.3863 94.3132 54 95.1115 54 96V98C54 98.8933 54.3905 99.6955 55.01 100.245C55.0542 101.126 55.2439 101.995 55.5722 102.816L56.4116 104.914C55.8306 105.98 55.5 107.203 55.5 108.5C55.5 112.642 58.8579 116 63 116C64.9215 116 66.6742 115.277 68.0013 114.089C68.0484 115.705 69.373 117 71 117H73C74.6569 117 76 115.657 76 114V79.6168L77 77.9853V114C77 115.657 78.3431 117 80 117H82C83.6569 117 85 115.657 85 114V67.4967C86.1941 66.8241 87 65.5453 87 64.0769V30.7967C87 29.9499 86.7778 28.8935 85.9904 28.0285L84.5114 29.3747L85.9904 28.0285C84.6579 26.5645 81.4493 24.0146 74.5235 22.4237C74.4034 22.3894 74.2815 22.359 74.1581 22.3328C73.7972 22.256 73.4043 22.1771 72.98 22.0978C71.3896 21.7903 69.6246 21.5328 67.6668 21.3446C67.3439 21.2658 67.0108 21.2148 66.6704 21.1935C64.9965 21.0891 62.7598 21 60 21C42.517 21 36.0729 25.7616 34.0096 28.0285C33.2222 28.8935 33 29.9499 33 30.7967V64.0769C33 65.5462 33.8065 66.8241 35 67.4965V114C35 115.657 36.3431 117 38 117H40C41.6569 117 43 115.657 43 114V67C43 65.4396 41.8087 64.1575 40.286 64.0135ZM40.286 64.0135L40.3802 64.9683L42.6862 65.7665L40.9353 66.6453C40.9771 66.7556 41 66.8751 41 67V114C41 114.552 40.5523 115 40 115H38C37.4477 115 37 114.552 37 114V68H36.9231H36.6598L36.6589 67.9912L40.286 64.0135ZM56 87.2016L55.9601 87.2207L56 87.2252V89C56 89.263 56.1015 89.5023 56.2675 89.6808L56 87.2016ZM68 85.8785V102.91C67.2268 102.218 66.3091 101.684 65.2977 101.359L65.2861 101.33C65.1438 100.974 65.0536 100.6 65.0177 100.22C65.6212 99.6714 66 98.8799 66 98V96C66 95.1115 65.6137 94.3132 65 93.7639V91.2361C65.6137 90.6868 66 89.8885 66 89V87C66 86.9465 65.9986 86.8933 65.9958 86.8405L68 85.8785Z" stroke="white" stroke-width="4"/>
<path d="M35 30.7967C35 30.2746 35.1372 29.7608 35.4886 29.3747C37.051 27.6582 42.8691 23 60 23C77.1309 23 82.949 27.6582 84.5114 29.3747C84.8628 29.7608 85 30.2746 85 30.7967V64.0769C85 65.139 84.139 66 83.0769 66C82.4078 66 81.7869 66.3477 81.4373 66.9182L72.9622 80.7459C72.6605 81.2382 72.2231 81.6329 71.7026 81.8828L61.2982 86.8769C60.4776 87.2708 59.5224 87.2708 58.7018 86.8769L48.2974 81.8828C47.7769 81.6329 47.3395 81.2381 47.0378 80.7459L38.5627 66.9182C38.2131 66.3477 37.5922 66 36.9231 66C35.861 66 35 65.139 35 64.0769V30.7967Z" fill="#38393E"/>
<path d="M76.5 57.9874V27.8512C76.5 26.1449 75.4108 24.6441 73.7419 24.289C71.0402 23.7142 66.3964 23 60 23C53.5337 23 48.8585 23.7885 46.1702 24.4129C44.5433 24.7907 43.5 26.2682 43.5 27.9384V57.9874C43.5 58.652 43.6656 59.3061 43.9818 59.8906L56.4818 82.9967C57.9942 85.7923 62.0058 85.7923 63.5182 82.9967L76.0182 59.8906C76.3344 59.3061 76.5 58.652 76.5 57.9874Z" fill="#6F6F73"/>
<path d="M70 58.6362V26.971C70 24.9796 68.5333 23.3136 66.5458 23.1896C64.9119 23.0877 62.7168 23 60 23C57.1675 23 54.9021 23.1344 53.2485 23.2859C51.3509 23.4597 50 25.0763 50 26.982V58.6362C50 59.0566 50.0663 59.4743 50.1963 59.874L56.1963 78.3116C57.3948 81.9945 62.6052 81.9945 63.8037 78.3116L69.8037 59.874C69.9337 59.4743 70 59.0566 70 58.6362Z" fill="#8E8E91"/>
<path fill-rule="evenodd" clip-rule="evenodd" d="M81.9644 61.2073C82.3374 61.3979 82.7083 61.5934 83.0769 61.7936C83.725 62.1457 84.3661 62.5125 85 62.8936V64.0769C85 65.1204 84.1689 65.9698 83.1325 65.9992C83.114 65.9997 83.0955 66 83.0769 66C82.5007 66 81.9602 66.2579 81.5979 66.6938C81.5395 66.7641 81.4858 66.839 81.4373 66.9182L72.9622 80.7459C72.6605 81.2381 72.2231 81.6329 71.7026 81.8828L61.2982 86.8769C60.4776 87.2708 59.5224 87.2708 58.7018 86.8769L48.2974 81.8828C47.7769 81.6329 47.3395 81.2381 47.0378 80.7459L38.5627 66.9182C38.2131 66.3477 37.5922 66 36.9231 66C36.7778 66 36.6363 65.9839 36.5002 65.9533C35.6415 65.7607 35 64.9937 35 64.0769V63.6001C35.6335 63.1963 36.2746 62.807 36.9231 62.4326C37.4795 62.1114 38.0413 61.8012 38.6084 61.5021C38.7303 61.4379 38.8524 61.3741 38.9748 61.3109C45.5837 57.8956 52.8888 56 60.5704 56C68.1076 56 75.2824 57.8251 81.7928 61.12C81.85 61.149 81.9072 61.1781 81.9644 61.2073ZM43.1511 64.8362L50.9927 77.6303L60 81.9538L69.0073 77.6303L77.0932 64.4375C71.9199 62.206 66.3579 61 60.5704 61C54.4487 61 48.5774 62.3495 43.1511 64.8362Z" fill="#25252A"/>
<path fill-rule="evenodd" clip-rule="evenodd" d="M81.8469 66.4448C81.6876 66.5773 81.5487 66.7364 81.4373 66.9182L72.9623 80.7459C72.6605 81.2381 72.2232 81.6329 71.7027 81.8828L61.2982 86.8769C60.4776 87.2708 59.5225 87.2708 58.7019 86.8769L48.2975 81.8828C47.7769 81.6329 47.3396 81.2381 47.0378 80.7459L38.5628 66.9182C38.5408 66.8823 38.5178 66.8474 38.4938 66.8134C44.9838 63.1137 52.4951 61 60.5001 61C68.2353 61 75.5096 62.9736 81.8469 66.4448Z" fill="#6F6F73"/>
<path fill-rule="evenodd" clip-rule="evenodd" d="M74.2474 63.1641C69.918 61.7592 65.2977 61 60.5001 61C55.3885 61 50.4781 61.8619 45.9065 63.4482L56.4819 82.9967C57.9943 85.7923 62.0058 85.7923 63.5182 82.9967L74.2474 63.1641Z" fill="#8E8E91"/>
<path d="M46 64.1307C46 63.6842 46.2959 63.2919 46.7252 63.1692L48.7252 62.5975C49.364 62.4149 50 62.8945 50 63.559V114C50 114.552 49.5523 115 49 115H47C46.4477 115 46 114.552 46 114V64.1307Z" fill="#25252A"/>
<path d="M37 67C37 66.4477 37.4477 66 38 66H40C40.5523 66 41 66.4477 41 67V114C41 114.552 40.5523 115 40 115H38C37.4477 115 37 114.552 37 114V67Z" fill="#25252A"/>
<path d="M70 63.2809C70 62.6303 70.6114 62.153 71.2425 62.3107L73.2425 62.8106C73.6877 62.9219 74 63.3219 74 63.7808V114C74 114.552 73.5523 115 73 115H71C70.4477 115 70 114.552 70 114V63.2809Z" fill="#25252A"/>
<path d="M79 67C79 66.4477 79.4477 66 80 66H82C82.5523 66 83 66.4477 83 67V114C83 114.552 82.5523 115 82 115H80C79.4477 115 79 114.552 79 114V67Z" fill="#25252A"/>
<path d="M68.5 108.5C68.5 111.538 66.0376 114 63 114C59.9624 114 57.5 111.538 57.5 108.5C57.5 105.462 59.9624 103 63 103C66.0376 103 68.5 105.462 68.5 108.5Z" fill="#515259"/>
<path d="M57 99.8445V91C57 89.3431 58.3431 88 60 88C61.6569 88 63 89.3431 63 91V99.8445C63 100.608 63.1457 101.364 63.4291 102.073L65.472 107.18C66.2039 109.01 64.8564 111 62.8858 111C61.7469 111 60.7226 110.307 60.2996 109.249L57.4291 102.073C57.1457 101.364 57 100.608 57 99.8445Z" fill="#A8A8A8"/>
<path fill-rule="evenodd" clip-rule="evenodd" d="M63.1658 110.986C64.9813 110.809 66.1687 108.922 65.472 107.18L63.4291 102.073C63.1457 101.364 63 100.608 63 99.8445V91C63 89.3431 61.6569 88 60 88C59.6494 88 59.3128 88.0602 59 88.1707V100.607C59 100.737 59.0253 100.865 59.0745 100.985L63.1658 110.986Z" fill="#8E8E91"/>
<path d="M56 87C56 86.4477 56.4477 86 57 86H63C63.5523 86 64 86.4477 64 87V89C64 89.5523 63.5523 90 63 90H57C56.4477 90 56 89.5523 56 89V87Z" fill="#515259"/>
<path d="M56 96C56 95.4477 56.4477 95 57 95H63C63.5523 95 64 95.4477 64 96V98C64 98.5523 63.5523 99 63 99H57C56.4477 99 56 98.5523 56 98V96Z" fill="#515259"/>
</g>
<defs>
<filter id="filter0_ddd_2818_45887" x="-20" y="-7" width="160" height="160" filterUnits="userSpaceOnUse" color-interpolation-filters="sRGB">
<feFlood flood-opacity="0" result="BackgroundImageFix"/>
<feColorMatrix in="SourceAlpha" type="matrix" values="0 0 0 0 0 0 0 0 0 0 0 0 0 0 0 0 0 0 127 0" result="hardAlpha"/>
<feOffset dy="1"/>
<feGaussianBlur stdDeviation="1"/>
<feColorMatrix type="matrix" values="0 0 0 0 0.309804 0 0 0 0 0.321569 0 0 0 0 0.407843 0 0 0 0.24 0"/>
<feBlend mode="normal" in2="BackgroundImageFix" result="effect1_dropShadow_2818_45887"/>
<feColorMatrix in="SourceAlpha" type="matrix" values="0 0 0 0 0 0 0 0 0 0 0 0 0 0 0 0 0 0 127 0" result="hardAlpha"/>
<feOffset dy="1"/>
<feGaussianBlur stdDeviation="4"/>
<feColorMatrix type="matrix" values="0 0 0 0 0.309804 0 0 0 0 0.321569 0 0 0 0 0.407843 0 0 0 0.08 0"/>
<feBlend mode="normal" in2="effect1_dropShadow_2818_45887" result="effect2_dropShadow_2818_45887"/>
<feColorMatrix in="SourceAlpha" type="matrix" values="0 0 0 0 0 0 0 0 0 0 0 0 0 0 0 0 0 0 127 0" result="hardAlpha"/>
<feMorphology radius="4" operator="dilate" in="SourceAlpha" result="effect3_dropShadow_2818_45887"/>
<feOffset dy="1"/>
<feGaussianBlur stdDeviation="8"/>
<feColorMatrix type="matrix" values="0 0 0 0 0.309804 0 0 0 0 0.321569 0 0 0 0 0.407843 0 0 0 0.1 0"/>
<feBlend mode="normal" in2="effect2_dropShadow_2818_45887" result="effect3_dropShadow_2818_45887"/>
<feBlend mode="normal" in="SourceGraphic" in2="effect3_dropShadow_2818_45887" result="shape"/>
</filter>
</defs>
</svg>
