<svg width="140" height="129" viewBox="0 0 140 129" fill="none" xmlns="http://www.w3.org/2000/svg">
<g filter="url(#filter0_ddd_2818_45664)">
<mask id="path-1-outside-1_2818_45664" maskUnits="userSpaceOnUse" x="20" y="19" width="100" height="89" fill="black">
<rect fill="white" x="20" y="19" width="100" height="89"/>
<path fill-rule="evenodd" clip-rule="evenodd" d="M81.96 30C81.96 26.134 85.094 23 88.96 23H109C112.866 23 116 26.134 116 30V34.6V35.32V39.92C116 43.786 112.866 46.92 109 46.92H105.88V48.6C105.88 49.6507 105.07 50.5122 104.04 50.5937V52.44H109C112.866 52.44 116 55.574 116 59.44V64.04V80.4V85C116 88.866 112.866 92 109 92H105.88V94.44C105.88 95.0708 105.588 95.6334 105.132 96H114C115.105 96 116 96.8954 116 98V102C116 103.105 115.105 104 114 104H26C24.8954 104 24 103.105 24 102V98C24 96.8954 24.8954 96 26 96H43.7483C43.2921 95.6334 43 95.0708 43 94.44V92H31C27.134 92 24 88.866 24 85V80.4V64.04V59.44C24 55.574 27.134 52.44 31 52.44H44C42.8954 52.44 42 51.5446 42 50.44V48C42 46.8954 42.8954 46 44 46H45V43C45 36.3726 50.3726 31 57 31H74.6482C74.8486 30.1071 75.6462 29.44 76.5996 29.44H79.9596C80.913 29.44 81.7106 30.1071 81.9111 31H81.96V30ZM81.96 39H81.8913C81.6624 39.8524 80.8843 40.48 79.9596 40.48H76.5996C75.6749 40.48 74.8968 39.8524 74.6679 39H57C54.7909 39 53 40.7909 53 43V46H53.8C54.9046 46 55.8 46.8954 55.8 48V50.44C55.8 51.5446 54.9046 52.44 53.8 52.44H68.52C72.386 52.44 75.52 55.574 75.52 59.44V59.8H81.96V59.44C81.96 55.574 85.094 52.44 88.96 52.44H94.8398V50.5937C93.8102 50.5121 93 49.6506 93 48.6V46.92H88.96C85.094 46.92 81.96 43.786 81.96 39.92V39ZM88.96 92H93V94.44C93 95.0708 93.2921 95.6334 93.7483 96H55.1317C55.5879 95.6334 55.88 95.0708 55.88 94.44V92H68.52C71.5429 92 74.1182 90.0839 75.0978 87.4H82.3822C83.3617 90.0839 85.9371 92 88.96 92Z"/>
</mask>
<path d="M105.88 46.92V42.92H101.88V46.92H105.88ZM104.04 50.5937L103.725 46.6061L100.04 46.8975V50.5937H104.04ZM104.04 52.44H100.04V56.44H104.04V52.44ZM105.88 92V88H101.88V92H105.88ZM105.132 96L102.626 92.8817L93.7661 100H105.132V96ZM43.7483 96V100H55.1139L46.2535 92.8817L43.7483 96ZM43 92H47V88H43V92ZM45 46V50H49V46H45ZM74.6482 31V35H77.8497L78.551 31.8762L74.6482 31ZM81.9111 31L78.0082 31.8762L78.7095 35H81.9111V31ZM81.96 31V35H85.96V31H81.96ZM81.96 39H85.96V35H81.96V39ZM81.8913 39V35H78.8237L78.0282 37.9627L81.8913 39ZM74.6679 39L78.531 37.9627L77.7355 35H74.6679V39ZM53 46H49V50H53V46ZM75.52 59.8H71.52V63.8H75.52V59.8ZM81.96 59.8V63.8H85.96V59.8H81.96ZM94.8398 52.44V56.44H98.8398V52.44H94.8398ZM94.8398 50.5937H98.8398V46.8981L95.1558 46.6062L94.8398 50.5937ZM93 46.92H97V42.92H93V46.92ZM93 92H97V88H93V92ZM93.7483 96V100H105.114L96.2535 92.8817L93.7483 96ZM55.1317 96L52.6265 92.8817L43.7661 100H55.1317V96ZM55.88 92V88H51.88V92H55.88ZM75.0978 87.4V83.4H72.2995L71.3402 86.0286L75.0978 87.4ZM82.3822 87.4L86.1398 86.0286L85.1804 83.4H82.3822V87.4ZM88.96 19C82.8848 19 77.96 23.9249 77.96 30H85.96C85.96 28.3431 87.3031 27 88.96 27V19ZM109 19H88.96V27H109V19ZM120 30C120 23.9249 115.075 19 109 19V27C110.657 27 112 28.3431 112 30H120ZM120 34.6V30H112V34.6H120ZM120 35.32V34.6H112V35.32H120ZM120 39.92V35.32H112V39.92H120ZM109 50.92C115.075 50.92 120 45.9951 120 39.92H112C112 41.5769 110.657 42.92 109 42.92V50.92ZM105.88 50.92H109V42.92H105.88V50.92ZM109.88 48.6V46.92H101.88V48.6H109.88ZM104.355 54.5812C107.449 54.3366 109.88 51.7542 109.88 48.6H101.88C101.88 47.5473 102.691 46.6879 103.725 46.6061L104.355 54.5812ZM108.04 52.44V50.5937H100.04V52.44H108.04ZM109 48.44H104.04V56.44H109V48.44ZM120 59.44C120 53.3649 115.075 48.44 109 48.44V56.44C110.657 56.44 112 57.7831 112 59.44H120ZM120 64.04V59.44H112V64.04H120ZM120 80.4V64.04H112V80.4H120ZM120 85V80.4H112V85H120ZM109 96C115.075 96 120 91.0751 120 85H112C112 86.6569 110.657 88 109 88V96ZM105.88 96H109V88H105.88V96ZM109.88 94.44V92H101.88V94.44H109.88ZM107.637 99.1183C108.998 98.0252 109.88 96.3342 109.88 94.44H101.88C101.88 93.8074 102.178 93.2417 102.626 92.8817L107.637 99.1183ZM114 92H105.132V100H114V92ZM120 98C120 94.6863 117.314 92 114 92V100C112.895 100 112 99.1046 112 98H120ZM120 102V98H112V102H120ZM114 108C117.314 108 120 105.314 120 102H112C112 100.895 112.895 100 114 100V108ZM26 108H114V100H26V108ZM20 102C20 105.314 22.6863 108 26 108V100C27.1046 100 28 100.895 28 102H20ZM20 98V102H28V98H20ZM26 92C22.6863 92 20 94.6863 20 98H28C28 99.1046 27.1046 100 26 100V92ZM43.7483 92H26V100H43.7483V92ZM39 94.44C39 96.3342 39.8824 98.0252 41.2431 99.1183L46.2535 92.8817C46.7017 93.2417 47 93.8074 47 94.44H39ZM39 92V94.44H47V92H39ZM31 96H43V88H31V96ZM20 85C20 91.0751 24.9249 96 31 96V88C29.3431 88 28 86.6569 28 85H20ZM20 80.4V85H28V80.4H20ZM20 64.04V80.4H28V64.04H20ZM20 59.44V64.04H28V59.44H20ZM31 48.44C24.9249 48.44 20 53.3649 20 59.44H28C28 57.7831 29.3431 56.44 31 56.44V48.44ZM44 48.44H31V56.44H44V48.44ZM38 50.44C38 53.7537 40.6863 56.44 44 56.44V48.44C45.1046 48.44 46 49.3354 46 50.44H38ZM38 48V50.44H46V48H38ZM44 42C40.6863 42 38 44.6863 38 48H46C46 49.1046 45.1046 50 44 50V42ZM45 42H44V50H45V42ZM49 46V43H41V46H49ZM49 43C49 38.5817 52.5817 35 57 35V27C48.1634 27 41 34.1634 41 43H49ZM57 35H74.6482V27H57V35ZM76.5996 25.44C73.7344 25.44 71.3469 27.4444 70.7453 30.1238L78.551 31.8762C78.3504 32.7698 77.558 33.44 76.5996 33.44V25.44ZM79.9596 25.44H76.5996V33.44H79.9596V25.44ZM85.8139 30.1238C85.2124 27.4444 82.8248 25.44 79.9596 25.44V33.44C79.0012 33.44 78.2088 32.7698 78.0082 31.8762L85.8139 30.1238ZM81.9111 35H81.96V27H81.9111V35ZM77.96 30V31H85.96V30H77.96ZM81.96 35H81.8913V43H81.96V35ZM79.9596 44.48C82.7393 44.48 85.0682 42.5933 85.7545 40.0373L78.0282 37.9627C78.2567 37.1116 79.0293 36.48 79.9596 36.48V44.48ZM76.5996 44.48H79.9596V36.48H76.5996V44.48ZM70.8047 40.0373C71.491 42.5933 73.8199 44.48 76.5996 44.48V36.48C77.5299 36.48 78.3025 37.1116 78.531 37.9627L70.8047 40.0373ZM74.6679 35H57V43H74.6679V35ZM57 35C52.5817 35 49 38.5817 49 43H57V35ZM49 43V46H57V43H49ZM53.8 42H53V50H53.8V42ZM59.8 48C59.8 44.6863 57.1137 42 53.8 42V50C52.6954 50 51.8 49.1046 51.8 48H59.8ZM59.8 50.44V48H51.8V50.44H59.8ZM53.8 56.44C57.1137 56.44 59.8 53.7537 59.8 50.44H51.8C51.8 49.3354 52.6954 48.44 53.8 48.44V56.44ZM68.52 48.44H53.8V56.44H68.52V48.44ZM79.52 59.44C79.52 53.3649 74.5951 48.44 68.52 48.44V56.44C70.1769 56.44 71.52 57.7831 71.52 59.44H79.52ZM79.52 59.8V59.44H71.52V59.8H79.52ZM81.96 55.8H75.52V63.8H81.96V55.8ZM77.96 59.44V59.8H85.96V59.44H77.96ZM88.96 48.44C82.8848 48.44 77.96 53.3649 77.96 59.44H85.96C85.96 57.7831 87.3031 56.44 88.96 56.44V48.44ZM94.8398 48.44H88.96V56.44H94.8398V48.44ZM90.8398 50.5937V52.44H98.8398V50.5937H90.8398ZM89 48.6C89 51.7539 91.4307 54.3361 94.5239 54.5812L95.1558 46.6062C96.1896 46.6881 97 47.5474 97 48.6H89ZM89 46.92V48.6H97V46.92H89ZM88.96 50.92H93V42.92H88.96V50.92ZM77.96 39.92C77.96 45.9951 82.8848 50.92 88.96 50.92V42.92C87.3031 42.92 85.96 41.5769 85.96 39.92H77.96ZM77.96 39V39.92H85.96V39H77.96ZM93 88H88.96V96H93V88ZM97 94.44V92H89V94.44H97ZM96.2535 92.8817C96.7017 93.2417 97 93.8074 97 94.44H89C89 96.3342 89.8824 98.0252 91.2431 99.1183L96.2535 92.8817ZM55.1317 100H93.7483V92H55.1317V100ZM51.88 94.44C51.88 93.8074 52.1783 93.2417 52.6265 92.8817L57.6369 99.1183C58.9976 98.0252 59.88 96.3343 59.88 94.44H51.88ZM51.88 92V94.44H59.88V92H51.88ZM68.52 88H55.88V96H68.52V88ZM71.3402 86.0286C70.9182 87.1847 69.8092 88 68.52 88V96C73.2765 96 77.3182 92.983 78.8553 88.7713L71.3402 86.0286ZM82.3822 83.4H75.0978V91.4H82.3822V83.4ZM88.96 88C87.6707 88 86.5617 87.1847 86.1398 86.0286L78.6246 88.7713C80.1617 92.983 84.2034 96 88.96 96V88Z" fill="white" mask="url(#path-1-outside-1_2818_45664)"/>
<rect width="12.88" height="6.44" rx="2" transform="matrix(1 0 0 -1 93 96.44)" fill="#6F6F73"/>
<rect width="12.88" height="6.44" rx="2" transform="matrix(1 0 0 -1 43 96.44)" fill="#6F6F73"/>
<rect width="92" height="8" rx="2" transform="matrix(1 0 0 -1 24 104)" fill="#6F6F73"/>
<rect x="62.64" y="59.8" width="23" height="27.6" fill="#25252A"/>
<rect x="24" y="52.44" width="51.52" height="39.56" rx="7" fill="#25252A"/>
<rect width="13.8" height="6.44" rx="2" transform="matrix(1 0 0 -1 42 52.44)" fill="#25252A"/>
<rect width="12.88" height="6.44" rx="2" transform="matrix(1 0 0 -1 93 50.6)" fill="#25252A"/>
<rect width="9.2" height="26.68" rx="2" transform="matrix(1 0 0 -1 94.84 59.8)" fill="#25252A"/>
<rect width="11.04" height="7.36" rx="2" transform="matrix(-4.67865e-08 1 1 4.08384e-08 74.6 29.44)" fill="#25252A"/>
<rect x="81.96" y="52.44" width="34.04" height="39.56" rx="7" fill="#25252A"/>
<rect x="82" y="60" width="34" height="24" rx="7" fill="#6F6F73"/>
<rect x="81.96" y="23" width="34.04" height="23.92" rx="7" fill="#25252A"/>
<rect x="82" y="29" width="34" height="12" rx="4" fill="#6F6F73"/>
<rect x="24" y="60" width="52" height="24" rx="7" fill="#6F6F73"/>
<rect x="87.48" y="52.44" width="23" height="39.56" fill="white" fill-opacity="0.2"/>
<rect x="28.6" y="52.44" width="42.32" height="39.56" fill="white" fill-opacity="0.2"/>
<path d="M49 52V43C49 38.5817 52.5817 35 57 35H82" stroke="#25252A" stroke-width="8"/>
<rect x="87.48" y="23" width="23" height="23.92" fill="white" fill-opacity="0.2"/>
</g>
<defs>
<filter id="filter0_ddd_2818_45664" x="-10" y="-16" width="160" height="160" filterUnits="userSpaceOnUse" color-interpolation-filters="sRGB">
<feFlood flood-opacity="0" result="BackgroundImageFix"/>
<feColorMatrix in="SourceAlpha" type="matrix" values="0 0 0 0 0 0 0 0 0 0 0 0 0 0 0 0 0 0 127 0" result="hardAlpha"/>
<feOffset dy="1"/>
<feGaussianBlur stdDeviation="1"/>
<feColorMatrix type="matrix" values="0 0 0 0 0.309804 0 0 0 0 0.321569 0 0 0 0 0.407843 0 0 0 0.24 0"/>
<feBlend mode="normal" in2="BackgroundImageFix" result="effect1_dropShadow_2818_45664"/>
<feColorMatrix in="SourceAlpha" type="matrix" values="0 0 0 0 0 0 0 0 0 0 0 0 0 0 0 0 0 0 127 0" result="hardAlpha"/>
<feOffset dy="1"/>
<feGaussianBlur stdDeviation="4"/>
<feColorMatrix type="matrix" values="0 0 0 0 0.309804 0 0 0 0 0.321569 0 0 0 0 0.407843 0 0 0 0.08 0"/>
<feBlend mode="normal" in2="effect1_dropShadow_2818_45664" result="effect2_dropShadow_2818_45664"/>
<feColorMatrix in="SourceAlpha" type="matrix" values="0 0 0 0 0 0 0 0 0 0 0 0 0 0 0 0 0 0 127 0" result="hardAlpha"/>
<feMorphology radius="4" operator="dilate" in="SourceAlpha" result="effect3_dropShadow_2818_45664"/>
<feOffset dy="1"/>
<feGaussianBlur stdDeviation="8"/>
<feColorMatrix type="matrix" values="0 0 0 0 0.309804 0 0 0 0 0.321569 0 0 0 0 0.407843 0 0 0 0.1 0"/>
<feBlend mode="normal" in2="effect2_dropShadow_2818_45664" result="effect3_dropShadow_2818_45664"/>
<feBlend mode="normal" in="SourceGraphic" in2="effect3_dropShadow_2818_45664" result="shape"/>
</filter>
</defs>
</svg>
