<svg width="129" height="138" viewBox="0 0 129 138" fill="none" xmlns="http://www.w3.org/2000/svg">
<g filter="url(#filter0_ddd_2818_45885)">
<mask id="path-1-outside-1_2818_45885" maskUnits="userSpaceOnUse" x="20" y="19" width="89" height="98" fill="black">
<rect fill="white" x="20" y="19" width="89" height="98"/>
<path d="M104.5 67C104.5 86.8823 88.3823 103 68.5 103C48.6177 103 32.5 86.8823 32.5 67C32.5 47.1177 48.6177 31 68.5 31C88.3823 31 104.5 47.1177 104.5 67Z"/>
<path d="M34.5 108C34.5 107.448 34.9477 107 35.5 107H41.5C42.0523 107 42.5 107.448 42.5 108V112C42.5 112.552 42.0523 113 41.5 113H35.5C34.9477 113 34.5 112.552 34.5 112V108Z"/>
<path d="M35.5 78C35.5 76.3431 36.8431 75 38.5 75C40.1569 75 41.5 76.3431 41.5 78L41.5 110C41.5 111.657 40.1569 113 38.5 113C36.8431 113 35.5 111.657 35.5 110L35.5 78Z"/>
<path d="M34.5 78C34.5 76.3431 35.8431 75 37.5 75H39.5C41.1569 75 42.5 76.3431 42.5 78V92C42.5 92.5523 42.0523 93 41.5 93H35.5C34.9477 93 34.5 92.5523 34.5 92V78Z"/>
<path d="M34.5 78C34.5 76.3431 35.8431 75 37.5 75V93H35.5C34.9477 93 34.5 92.5523 34.5 92V78Z"/>
<path d="M54.5 108C54.5 107.448 54.9477 107 55.5 107H61.5C62.0523 107 62.5 107.448 62.5 108V112C62.5 112.552 62.0523 113 61.5 113H55.5C54.9477 113 54.5 112.552 54.5 112V108Z"/>
<path d="M55.5 78C55.5 76.3431 56.8431 75 58.5 75C60.1569 75 61.5 76.3431 61.5 78V110C61.5 111.657 60.1569 113 58.5 113C56.8431 113 55.5 111.657 55.5 110L55.5 78Z"/>
<path d="M54.5 78C54.5 76.3431 55.8431 75 57.5 75H59.5C61.1569 75 62.5 76.3431 62.5 78V92C62.5 92.5523 62.0523 93 61.5 93H55.5C54.9477 93 54.5 92.5523 54.5 92V78Z"/>
<path d="M54.5 78C54.5 76.3431 55.8431 75 57.5 75V93H55.5C54.9477 93 54.5 92.5523 54.5 92V78Z"/>
<path d="M74.5 108C74.5 107.448 74.9477 107 75.5 107H81.5C82.0523 107 82.5 107.448 82.5 108V112C82.5 112.552 82.0523 113 81.5 113H75.5C74.9477 113 74.5 112.552 74.5 112V108Z"/>
<path d="M75.5 78C75.5 76.3431 76.8431 75 78.5 75C80.1569 75 81.5 76.3431 81.5 78V110C81.5 111.657 80.1569 113 78.5 113C76.8431 113 75.5 111.657 75.5 110V78Z"/>
<path d="M74.5 78C74.5 76.3431 75.8431 75 77.5 75H79.5C81.1569 75 82.5 76.3431 82.5 78V92C82.5 92.5523 82.0523 93 81.5 93H75.5C74.9477 93 74.5 92.5523 74.5 92V78Z"/>
<path d="M74.5 78C74.5 76.3431 75.8431 75 77.5 75V93H75.5C74.9477 93 74.5 92.5523 74.5 92V78Z"/>
<path d="M94.5 108C94.5 107.448 94.9477 107 95.5 107H101.5C102.052 107 102.5 107.448 102.5 108V112C102.5 112.552 102.052 113 101.5 113H95.5C94.9477 113 94.5 112.552 94.5 112V108Z"/>
<path d="M95.5 78C95.5 76.3431 96.8431 75 98.5 75C100.157 75 101.5 76.3431 101.5 78V110C101.5 111.657 100.157 113 98.5 113C96.8431 113 95.5 111.657 95.5 110V78Z"/>
<path d="M94.5 78C94.5 76.3431 95.8432 75 97.5 75H99.5C101.157 75 102.5 76.3431 102.5 78V92C102.5 92.5523 102.052 93 101.5 93H95.5C94.9477 93 94.5 92.5523 94.5 92V78Z"/>
<path d="M94.5 78C94.5 76.3431 95.8432 75 97.5 75V93H95.5C94.9477 93 94.5 92.5523 94.5 92V78Z"/>
<path fill-rule="evenodd" clip-rule="evenodd" d="M79.5151 26.4999L54.9757 26.8717C49.9606 26.9477 45.2713 29.371 42.3083 33.418L30.0902 50.1062C28.0824 52.8486 27 56.1592 27 59.558V113H25V59.558C25 55.7343 26.2177 52.0099 28.4765 48.9247L40.6946 32.2366C44.0279 27.6837 49.3034 24.9574 54.9454 24.8719L79.5 25L79.5151 26.4999Z"/>
<path d="M24 108C24 107.448 24.4477 107 25 107H31C31.5523 107 32 107.448 32 108V112C32 112.552 31.5523 113 31 113H25C24.4477 113 24 112.552 24 112L24 108Z"/>
<path d="M58.5 24C58.5 23.4477 58.9477 23 59.5 23H79.5C80.0523 23 80.5 23.4477 80.5 24V32C80.5 32.5523 80.0523 33 79.5 33H59.5C58.9477 33 58.5 32.5523 58.5 32V24Z"/>
</mask>
<path d="M104.5 67C104.5 86.8823 88.3823 103 68.5 103C48.6177 103 32.5 86.8823 32.5 67C32.5 47.1177 48.6177 31 68.5 31C88.3823 31 104.5 47.1177 104.5 67Z" fill="url(#paint0_radial_2818_45885)"/>
<path d="M34.5 108C34.5 107.448 34.9477 107 35.5 107H41.5C42.0523 107 42.5 107.448 42.5 108V112C42.5 112.552 42.0523 113 41.5 113H35.5C34.9477 113 34.5 112.552 34.5 112V108Z" fill="#25252A"/>
<path d="M35.5 78C35.5 76.3431 36.8431 75 38.5 75C40.1569 75 41.5 76.3431 41.5 78L41.5 110C41.5 111.657 40.1569 113 38.5 113C36.8431 113 35.5 111.657 35.5 110L35.5 78Z" fill="#25252A"/>
<path d="M34.5 78C34.5 76.3431 35.8431 75 37.5 75H39.5C41.1569 75 42.5 76.3431 42.5 78V92C42.5 92.5523 42.0523 93 41.5 93H35.5C34.9477 93 34.5 92.5523 34.5 92V78Z" fill="#515259"/>
<path d="M34.5 78C34.5 76.3431 35.8431 75 37.5 75V93H35.5C34.9477 93 34.5 92.5523 34.5 92V78Z" fill="#25252A"/>
<path d="M54.5 108C54.5 107.448 54.9477 107 55.5 107H61.5C62.0523 107 62.5 107.448 62.5 108V112C62.5 112.552 62.0523 113 61.5 113H55.5C54.9477 113 54.5 112.552 54.5 112V108Z" fill="#25252A"/>
<path d="M55.5 78C55.5 76.3431 56.8431 75 58.5 75C60.1569 75 61.5 76.3431 61.5 78V110C61.5 111.657 60.1569 113 58.5 113C56.8431 113 55.5 111.657 55.5 110L55.5 78Z" fill="#25252A"/>
<path d="M54.5 78C54.5 76.3431 55.8431 75 57.5 75H59.5C61.1569 75 62.5 76.3431 62.5 78V92C62.5 92.5523 62.0523 93 61.5 93H55.5C54.9477 93 54.5 92.5523 54.5 92V78Z" fill="#515259"/>
<path d="M54.5 78C54.5 76.3431 55.8431 75 57.5 75V93H55.5C54.9477 93 54.5 92.5523 54.5 92V78Z" fill="#25252A"/>
<path d="M74.5 108C74.5 107.448 74.9477 107 75.5 107H81.5C82.0523 107 82.5 107.448 82.5 108V112C82.5 112.552 82.0523 113 81.5 113H75.5C74.9477 113 74.5 112.552 74.5 112V108Z" fill="#25252A"/>
<path d="M75.5 78C75.5 76.3431 76.8431 75 78.5 75C80.1569 75 81.5 76.3431 81.5 78V110C81.5 111.657 80.1569 113 78.5 113C76.8431 113 75.5 111.657 75.5 110V78Z" fill="#25252A"/>
<path d="M74.5 78C74.5 76.3431 75.8431 75 77.5 75H79.5C81.1569 75 82.5 76.3431 82.5 78V92C82.5 92.5523 82.0523 93 81.5 93H75.5C74.9477 93 74.5 92.5523 74.5 92V78Z" fill="#515259"/>
<path d="M74.5 78C74.5 76.3431 75.8431 75 77.5 75V93H75.5C74.9477 93 74.5 92.5523 74.5 92V78Z" fill="#25252A"/>
<path d="M94.5 108C94.5 107.448 94.9477 107 95.5 107H101.5C102.052 107 102.5 107.448 102.5 108V112C102.5 112.552 102.052 113 101.5 113H95.5C94.9477 113 94.5 112.552 94.5 112V108Z" fill="#25252A"/>
<path d="M95.5 78C95.5 76.3431 96.8431 75 98.5 75C100.157 75 101.5 76.3431 101.5 78V110C101.5 111.657 100.157 113 98.5 113C96.8431 113 95.5 111.657 95.5 110V78Z" fill="#25252A"/>
<path d="M94.5 78C94.5 76.3431 95.8432 75 97.5 75H99.5C101.157 75 102.5 76.3431 102.5 78V92C102.5 92.5523 102.052 93 101.5 93H95.5C94.9477 93 94.5 92.5523 94.5 92V78Z" fill="#515259"/>
<path d="M94.5 78C94.5 76.3431 95.8432 75 97.5 75V93H95.5C94.9477 93 94.5 92.5523 94.5 92V78Z" fill="#25252A"/>
<path fill-rule="evenodd" clip-rule="evenodd" d="M79.5151 26.4999L54.9757 26.8717C49.9606 26.9477 45.2713 29.371 42.3083 33.418L30.0902 50.1062C28.0824 52.8486 27 56.1592 27 59.558V113H25V59.558C25 55.7343 26.2177 52.0099 28.4765 48.9247L40.6946 32.2366C44.0279 27.6837 49.3034 24.9574 54.9454 24.8719L79.5 25L79.5151 26.4999Z" fill="#6F6F73"/>
<path d="M24 108C24 107.448 24.4477 107 25 107H31C31.5523 107 32 107.448 32 108V112C32 112.552 31.5523 113 31 113H25C24.4477 113 24 112.552 24 112L24 108Z" fill="#25252A"/>
<path d="M58.5 24C58.5 23.4477 58.9477 23 59.5 23H79.5C80.0523 23 80.5 23.4477 80.5 24V32C80.5 32.5523 80.0523 33 79.5 33H59.5C58.9477 33 58.5 32.5523 58.5 32V24Z" fill="#25252A"/>
<path d="M34.5 92L32.5 92L34.5 92ZM34.5 78L36.5 78V78L34.5 78ZM54.5 92L52.5 92L54.5 92ZM54.5 78L56.5 78V78L54.5 78ZM74.5 92L72.5 92L74.5 92ZM74.5 78L76.5 78V78L74.5 78ZM94.5 92L92.5 92L94.5 92ZM94.5 78L96.5 78V78L94.5 78ZM40.8043 32.5543L39.2079 31.3495L39.2079 31.3495L40.8043 32.5543ZM79.5 25H81.5V23H79.5V25ZM79.5 31V33H81.5V31H79.5ZM45.5934 36.1687L47.1898 37.3735L47.1898 37.3735L45.5934 36.1687ZM33.6235 52.0288L35.2199 53.2336L35.2199 53.2336L33.6235 52.0288ZM28.8344 48.4144L30.4308 49.6192L30.4308 49.6192L28.8344 48.4144ZM59.5 29L59.5 27L59.5 29ZM58.5 28H60.5H58.5ZM80.5 28H82.5H80.5ZM79.5 29L79.5 31L79.5 29ZM36.5 92V78H32.5V92H36.5ZM35.5 91C36.0523 91 36.5 91.4477 36.5 92L32.5 92C32.5 93.6569 33.8431 95 35.5 95L35.5 91ZM37.5 73C34.7386 73 32.5 75.2386 32.5 78L36.5 78C36.5 77.4477 36.9477 77 37.5 77L37.5 73ZM56.5 92V78H52.5V92H56.5ZM55.5 91C56.0523 91 56.5 91.4477 56.5 92L52.5 92C52.5 93.6569 53.8431 95 55.5 95L55.5 91ZM57.5 73C54.7386 73 52.5 75.2386 52.5 78L56.5 78C56.5 77.4477 56.9477 77 57.5 77L57.5 73ZM76.5 92V78H72.5V92H76.5ZM75.5 91C76.0523 91 76.5 91.4477 76.5 92L72.5 92C72.5 93.6569 73.8431 95 75.5 95L75.5 91ZM77.5 73C74.7386 73 72.5 75.2386 72.5 78L76.5 78C76.5 77.4477 76.9477 77 77.5 77L77.5 73ZM96.5 92V78H92.5V92H96.5ZM95.5 91C96.0523 91 96.5 91.4477 96.5 92L92.5 92C92.5 93.6569 93.8432 95 95.5 95L95.5 91ZM97.5 73C94.7386 73 92.5 75.2386 92.5 78L96.5 78C96.5 77.4477 96.9477 77 97.5 77L97.5 73ZM55.9699 23C49.3823 23 43.1764 26.0913 39.2079 31.3495L42.4007 33.7591C45.6132 29.5025 50.637 27 55.9699 27V23ZM79.5 23H55.9699V27H79.5V23ZM81.5 31V25H77.5V31H81.5ZM55.9699 33H79.5V29H55.9699V33ZM47.1898 37.3735C49.2685 34.6192 52.5192 33 55.9699 33V29C51.2644 29 46.8317 31.208 43.9971 34.9639L47.1898 37.3735ZM35.2199 53.2336L47.1898 37.3735L43.9971 34.9639L32.0272 50.824L35.2199 53.2336ZM33 59.8601C33 57.4687 33.7793 55.1424 35.2199 53.2336L32.0272 50.824C30.0627 53.4269 29 56.5991 29 59.8601H33ZM33 112.5V59.8601H29V112.5H33ZM27.238 47.2096C24.4878 50.8536 23 55.2947 23 59.8601H27C27 56.1643 28.2044 52.5692 30.4308 49.6192L27.238 47.2096ZM39.2079 31.3495L27.238 47.2096L30.4308 49.6192L42.4007 33.7591L39.2079 31.3495ZM78.5 24V28H82.5V24H78.5ZM79.5 27H59.5V31H79.5V27ZM60.5 28V24H56.5V28H60.5ZM59.5 27C60.0523 27 60.5 27.4477 60.5 28L56.5 28C56.5 29.6569 57.8431 31 59.5 31L59.5 27ZM78.5 28C78.5 27.4477 78.9477 27 79.5 27L79.5 31C81.1569 31 82.5 29.6569 82.5 28L78.5 28ZM35.5 113L35.5 109L35.5 113ZM34.5 112H38.5H34.5ZM42.5 112H46.5H42.5ZM41.5 113L41.5 117L41.5 113ZM41.5 107L41.5 111L41.5 107ZM42.5 108H38.5H42.5ZM35.5 107L35.5 103L35.5 107ZM34.5 108H30.5H34.5ZM35.5 110L39.5 110L35.5 110ZM41.5 110L45.5 110L45.5 110L41.5 110ZM41.5 78L37.5 78L37.5 78L41.5 78ZM35.5 78L31.5 78L35.5 78ZM42.5 92L38.5 92L42.5 92ZM41.5 93V89V93ZM39.5 75L39.5 71H39.5V75ZM42.5 78L46.5 78V78L42.5 78ZM37.5 75V71H33.5V75H37.5ZM37.5 93V97H41.5V93H37.5ZM55.5 113L55.5 109L55.5 113ZM54.5 112H58.5H54.5ZM62.5 112H66.5H62.5ZM61.5 113L61.5 117L61.5 113ZM61.5 107L61.5 111L61.5 107ZM62.5 108H58.5H62.5ZM55.5 107L55.5 103L55.5 107ZM54.5 108H50.5H54.5ZM55.5 110L59.5 110L59.5 110L55.5 110ZM61.5 110L57.5 110V110L61.5 110ZM61.5 78L65.5 78V78L61.5 78ZM55.5 78L51.5 78L51.5 78L55.5 78ZM62.5 92L58.5 92L62.5 92ZM61.5 93V89V93ZM59.5 75L59.5 71H59.5V75ZM62.5 78L66.5 78V78L62.5 78ZM57.5 75V71H53.5V75H57.5ZM57.5 93V97H61.5V93H57.5ZM75.5 113L75.5 109L75.5 113ZM74.5 112H78.5H74.5ZM82.5 112H86.5H82.5ZM81.5 113L81.5 117L81.5 113ZM81.5 107L81.5 111L81.5 107ZM82.5 108H78.5H82.5ZM75.5 107L75.5 103L75.5 107ZM74.5 108H70.5H74.5ZM75.5 110L71.5 110V110L75.5 110ZM81.5 110L77.5 110V110L81.5 110ZM81.5 78L85.5 78V78L81.5 78ZM75.5 78L79.5 78V78L75.5 78ZM82.5 92L78.5 92L82.5 92ZM81.5 93V89V93ZM79.5 75L79.5 71H79.5V75ZM82.5 78L86.5 78V78L82.5 78ZM77.5 75V71H73.5V75H77.5ZM77.5 93V97H81.5V93H77.5ZM95.5 113L95.5 109L95.5 113ZM94.5 112H98.5H94.5ZM102.5 112H106.5H102.5ZM101.5 113L101.5 117L101.5 113ZM101.5 107L101.5 111L101.5 107ZM102.5 108H98.5H102.5ZM95.5 107L95.5 103L95.5 107ZM94.5 108H90.5H94.5ZM95.5 110L91.5 110V110L95.5 110ZM101.5 110L97.5 110V110L101.5 110ZM101.5 78L105.5 78V78L101.5 78ZM95.5 78L99.5 78V78L95.5 78ZM102.5 92L98.5 92L102.5 92ZM101.5 93V89V93ZM99.5 75L99.5 71H99.5V75ZM102.5 78L106.5 78V78L102.5 78ZM97.5 75V71H93.5V75H97.5ZM97.5 93V97H101.5V93H97.5ZM79.5 25L83.4998 24.9596L83.46 21.0206L79.5209 21.0001L79.5 25ZM54.9757 26.8717L54.9151 22.8722L54.9757 26.8717ZM79.5151 26.4999L79.5757 30.4994L83.5551 30.4391L83.5149 26.4595L79.5151 26.4999ZM42.3083 33.418L39.0809 31.0551L39.0809 31.0551L42.3083 33.418ZM30.0902 50.1062L26.8627 47.7432L26.8627 47.7432L30.0902 50.1062ZM27 113V117H31V113H27ZM28.4765 48.9247L25.249 46.5618L25.249 46.5618L28.4765 48.9247ZM40.6946 32.2366L43.922 34.5995L43.922 34.5995L40.6946 32.2366ZM54.9454 24.8719L54.9663 20.872L54.9255 20.8718L54.8848 20.8724L54.9454 24.8719ZM24 112L28 112L24 112ZM32 112H36H32ZM31 113L31 117L31 113ZM31 107L31 111L31 107ZM32 108H28H32ZM25 107L25 103L25 107ZM24 108L20 108L24 108ZM59.5 33L59.5 29L59.5 33ZM58.5 32H62.5H58.5ZM80.5 32H84.5H80.5ZM79.5 33L79.5 37L79.5 33ZM79.5 23L79.5 27L79.5 23ZM80.5 24H76.5H80.5ZM59.5 23L59.5 19L59.5 23ZM58.5 24H54.5H58.5ZM100.5 67C100.5 84.6731 86.1731 99 68.5 99V107C90.5914 107 108.5 89.0914 108.5 67H100.5ZM68.5 99C50.8269 99 36.5 84.6731 36.5 67H28.5C28.5 89.0914 46.4086 107 68.5 107V99ZM36.5 67C36.5 49.3269 50.8269 35 68.5 35V27C46.4086 27 28.5 44.9086 28.5 67H36.5ZM68.5 35C86.1731 35 100.5 49.3269 100.5 67H108.5C108.5 44.9086 90.5914 27 68.5 27V35ZM35.5 111H41.5V103H35.5V111ZM38.5 108V112H46.5V108H38.5ZM41.5 109H35.5V117H41.5V109ZM38.5 112V108H30.5V112H38.5ZM35.5 109C37.1569 109 38.5 110.343 38.5 112L30.5 112C30.5 114.761 32.7386 117 35.5 117L35.5 109ZM38.5 112C38.5 110.343 39.8431 109 41.5 109L41.5 117C44.2614 117 46.5 114.761 46.5 112L38.5 112ZM41.5 111C39.8431 111 38.5 109.657 38.5 108L46.5 108C46.5 105.239 44.2614 103 41.5 103L41.5 111ZM35.5 103C32.7386 103 30.5 105.239 30.5 108L38.5 108C38.5 109.657 37.1569 111 35.5 111L35.5 103ZM37.5 78L37.5 110L45.5 110L45.5 78L37.5 78ZM39.5 110L39.5 78L31.5 78L31.5 110L39.5 110ZM38.5 109C39.0523 109 39.5 109.448 39.5 110L31.5 110C31.5 113.866 34.634 117 38.5 117L38.5 109ZM37.5 110C37.5 109.448 37.9477 109 38.5 109L38.5 117C42.366 117 45.5 113.866 45.5 110L37.5 110ZM38.5 79C37.9477 79 37.5 78.5523 37.5 78L45.5 78C45.5 74.134 42.366 71 38.5 71L38.5 79ZM38.5 71C34.634 71 31.5 74.134 31.5 78L39.5 78C39.5 78.5523 39.0523 79 38.5 79L38.5 71ZM37.5 79H39.5V71H37.5V79ZM38.5 78V92H46.5V78H38.5ZM41.5 89H35.5V97H41.5V89ZM38.5 92C38.5 90.3431 39.8431 89 41.5 89L41.5 97C44.2614 97 46.5 94.7614 46.5 92L38.5 92ZM39.5 79C38.9477 79 38.5 78.5523 38.5 78L46.5 78C46.5 74.134 43.366 71 39.5 71L39.5 79ZM33.5 75V93H41.5V75H33.5ZM37.5 89H35.5V97H37.5V89ZM55.5 111H61.5V103H55.5V111ZM58.5 108V112H66.5V108H58.5ZM61.5 109H55.5V117H61.5V109ZM58.5 112V108H50.5V112H58.5ZM55.5 109C57.1569 109 58.5 110.343 58.5 112L50.5 112C50.5 114.761 52.7386 117 55.5 117L55.5 109ZM58.5 112C58.5 110.343 59.8431 109 61.5 109L61.5 117C64.2614 117 66.5 114.761 66.5 112L58.5 112ZM61.5 111C59.8431 111 58.5 109.657 58.5 108L66.5 108C66.5 105.239 64.2614 103 61.5 103L61.5 111ZM55.5 103C52.7386 103 50.5 105.239 50.5 108L58.5 108C58.5 109.657 57.1569 111 55.5 111L55.5 103ZM57.5 78V110H65.5V78H57.5ZM59.5 110L59.5 78L51.5 78L51.5 110L59.5 110ZM58.5 109C59.0523 109 59.5 109.448 59.5 110L51.5 110C51.5 113.866 54.634 117 58.5 117L58.5 109ZM57.5 110C57.5 109.448 57.9477 109 58.5 109L58.5 117C62.366 117 65.5 113.866 65.5 110L57.5 110ZM58.5 79C57.9477 79 57.5 78.5523 57.5 78L65.5 78C65.5 74.134 62.366 71 58.5 71L58.5 79ZM58.5 71C54.634 71 51.5 74.134 51.5 78L59.5 78C59.5 78.5523 59.0523 79 58.5 79L58.5 71ZM57.5 79H59.5V71H57.5V79ZM58.5 78V92H66.5V78H58.5ZM61.5 89H55.5V97H61.5V89ZM58.5 92C58.5 90.3431 59.8431 89 61.5 89L61.5 97C64.2614 97 66.5 94.7614 66.5 92L58.5 92ZM59.5 79C58.9477 79 58.5 78.5523 58.5 78L66.5 78C66.5 74.134 63.366 71 59.5 71L59.5 79ZM53.5 75V93H61.5V75H53.5ZM57.5 89H55.5V97H57.5V89ZM75.5 111H81.5V103H75.5V111ZM78.5 108V112H86.5V108H78.5ZM81.5 109H75.5V117H81.5V109ZM78.5 112V108H70.5V112H78.5ZM75.5 109C77.1569 109 78.5 110.343 78.5 112L70.5 112C70.5 114.761 72.7386 117 75.5 117L75.5 109ZM78.5 112C78.5 110.343 79.8431 109 81.5 109L81.5 117C84.2614 117 86.5 114.761 86.5 112L78.5 112ZM81.5 111C79.8431 111 78.5 109.657 78.5 108L86.5 108C86.5 105.239 84.2614 103 81.5 103L81.5 111ZM75.5 103C72.7386 103 70.5 105.239 70.5 108L78.5 108C78.5 109.657 77.1569 111 75.5 111L75.5 103ZM77.5 78V110H85.5V78H77.5ZM79.5 110V78H71.5V110H79.5ZM78.5 109C79.0523 109 79.5 109.448 79.5 110L71.5 110C71.5 113.866 74.634 117 78.5 117L78.5 109ZM77.5 110C77.5 109.448 77.9477 109 78.5 109L78.5 117C82.366 117 85.5 113.866 85.5 110L77.5 110ZM78.5 79C77.9477 79 77.5 78.5523 77.5 78L85.5 78C85.5 74.134 82.366 71 78.5 71L78.5 79ZM78.5 71C74.634 71 71.5 74.134 71.5 78L79.5 78C79.5 78.5523 79.0523 79 78.5 79L78.5 71ZM77.5 79H79.5V71H77.5V79ZM78.5 78V92H86.5V78H78.5ZM81.5 89H75.5V97H81.5V89ZM78.5 92C78.5 90.3431 79.8431 89 81.5 89L81.5 97C84.2614 97 86.5 94.7614 86.5 92L78.5 92ZM79.5 79C78.9477 79 78.5 78.5523 78.5 78L86.5 78C86.5 74.134 83.366 71 79.5 71L79.5 79ZM73.5 75V93H81.5V75H73.5ZM77.5 89H75.5V97H77.5V89ZM95.5 111H101.5V103H95.5V111ZM98.5 108V112H106.5V108H98.5ZM101.5 109H95.5V117H101.5V109ZM98.5 112V108H90.5V112H98.5ZM95.5 109C97.1569 109 98.5 110.343 98.5 112L90.5 112C90.5 114.761 92.7386 117 95.5 117L95.5 109ZM98.5 112C98.5 110.343 99.8431 109 101.5 109L101.5 117C104.261 117 106.5 114.761 106.5 112L98.5 112ZM101.5 111C99.8431 111 98.5 109.657 98.5 108L106.5 108C106.5 105.239 104.261 103 101.5 103L101.5 111ZM95.5 103C92.7386 103 90.5 105.239 90.5 108L98.5 108C98.5 109.657 97.1569 111 95.5 111L95.5 103ZM97.5 78V110H105.5V78H97.5ZM99.5 110V78H91.5V110H99.5ZM98.5 109C99.0523 109 99.5 109.448 99.5 110L91.5 110C91.5 113.866 94.634 117 98.5 117L98.5 109ZM97.5 110C97.5 109.448 97.9477 109 98.5 109L98.5 117C102.366 117 105.5 113.866 105.5 110L97.5 110ZM98.5 79C97.9477 79 97.5 78.5523 97.5 78L105.5 78C105.5 74.134 102.366 71 98.5 71L98.5 79ZM98.5 71C94.634 71 91.5 74.134 91.5 78L99.5 78C99.5 78.5523 99.0523 79 98.5 79L98.5 71ZM97.5 79H99.5V71H97.5V79ZM98.5 78V92H106.5V78H98.5ZM101.5 89H95.5V97H101.5V89ZM98.5 92C98.5 90.3431 99.8431 89 101.5 89L101.5 97C104.261 97 106.5 94.7614 106.5 92L98.5 92ZM99.5 79C98.9477 79 98.5 78.5523 98.5 78L106.5 78C106.5 74.134 103.366 71 99.5 71L99.5 79ZM93.5 75V93H101.5V75H93.5ZM97.5 89H95.5V97H97.5V89ZM55.0363 30.8712L79.5757 30.4994L79.4545 22.5003L54.9151 22.8722L55.0363 30.8712ZM45.5358 35.781C47.758 32.7457 51.275 30.9282 55.0363 30.8712L54.9151 22.8722C48.6462 22.9671 42.7846 25.9963 39.0809 31.0551L45.5358 35.781ZM33.3176 52.4691L45.5358 35.781L39.0809 31.0551L26.8627 47.7432L33.3176 52.4691ZM31 59.558C31 57.0089 31.8118 54.5259 33.3176 52.4691L26.8627 47.7432C24.3529 51.1712 23 55.3094 23 59.558H31ZM31 113V59.558H23V113H31ZM25 117H27V109H25V117ZM21 59.558V113H29V59.558H21ZM25.249 46.5618C22.4882 50.3326 21 54.8846 21 59.558H29C29 56.584 29.9471 53.6873 31.7039 51.2877L25.249 46.5618ZM37.4671 29.8736L25.249 46.5618L31.7039 51.2877L43.922 34.5995L37.4671 29.8736ZM54.8848 20.8724C47.989 20.9769 41.5412 24.309 37.4671 29.8736L43.922 34.5995C46.5146 31.0584 50.6178 28.938 55.006 28.8715L54.8848 20.8724ZM79.5209 21.0001L54.9663 20.872L54.9246 28.8719L79.4791 28.9999L79.5209 21.0001ZM83.5149 26.4595L83.4998 24.9596L75.5002 25.0404L75.5154 26.5403L83.5149 26.4595ZM25 111H31V103H25V111ZM28 108V112H36V108H28ZM31 109H25V117H31V109ZM28 112L28 108L20 108L20 112L28 112ZM25 109C26.6569 109 28 110.343 28 112L20 112C20 114.761 22.2386 117 25 117L25 109ZM28 112C28 110.343 29.3431 109 31 109L31 117C33.7614 117 36 114.761 36 112L28 112ZM31 111C29.3431 111 28 109.657 28 108L36 108C36 105.239 33.7614 103 31 103L31 111ZM25 103C22.2386 103 20 105.239 20 108L28 108C28 109.657 26.6569 111 25 111L25 103ZM59.5 27H79.5V19H59.5V27ZM76.5 24V32H84.5V24H76.5ZM79.5 29H59.5V37H79.5V29ZM62.5 32V24H54.5V32H62.5ZM59.5 29C61.1569 29 62.5 30.3431 62.5 32L54.5 32C54.5 34.7614 56.7386 37 59.5 37L59.5 29ZM76.5 32C76.5 30.3431 77.8431 29 79.5 29L79.5 37C82.2614 37 84.5 34.7614 84.5 32L76.5 32ZM79.5 27C77.8431 27 76.5 25.6569 76.5 24L84.5 24C84.5 21.2386 82.2614 19 79.5 19L79.5 27ZM59.5 19C56.7386 19 54.5 21.2386 54.5 24L62.5 24C62.5 25.6569 61.1569 27 59.5 27L59.5 19Z" fill="white" mask="url(#path-1-outside-1_2818_45885)"/>
<g clip-path="url(#clip0_2818_45885)">
<rect x="32.5" y="31" width="72" height="72" rx="36" fill="#38393E"/>
<circle cx="68.5" cy="67" r="36" fill="url(#paint1_radial_2818_45885)"/>
<path d="M112.5 120.5C112.5 145.077 92.5767 165 68 165C43.4233 165 23.5 145.077 23.5 120.5C23.5 95.9233 43.4233 76 68 76C92.5767 76 112.5 95.9233 112.5 120.5Z" fill="#25252A"/>
<path d="M88.5 53.5C88.5 59.8513 83.3513 65 77 65C70.6487 65 65.5 59.8513 65.5 53.5C65.5 47.1487 70.6487 42 77 42C83.3513 42 88.5 47.1487 88.5 53.5Z" fill="white" fill-opacity="0.18"/>
</g>
<path d="M34.5 108C34.5 107.448 34.9477 107 35.5 107H41.5C42.0523 107 42.5 107.448 42.5 108V112C42.5 112.552 42.0523 113 41.5 113H35.5C34.9477 113 34.5 112.552 34.5 112L34.5 108Z" fill="#25252A"/>
<path d="M35.5 78C35.5 76.3431 36.8431 75 38.5 75C40.1569 75 41.5 76.3431 41.5 78L41.5 110C41.5 111.657 40.1569 113 38.5 113C36.8431 113 35.5 111.657 35.5 110L35.5 78Z" fill="#25252A"/>
<path d="M34.5 78C34.5 76.3431 35.8431 75 37.5 75L39.5 75C41.1569 75 42.5 76.3431 42.5 78L42.5 92C42.5 92.5523 42.0523 93 41.5 93H35.5C34.9477 93 34.5 92.5523 34.5 92L34.5 78Z" fill="#515259"/>
<path d="M34.5 78C34.5 76.3431 35.8431 75 37.5 75V93H35.5C34.9477 93 34.5 92.5523 34.5 92L34.5 78Z" fill="#25252A"/>
<path d="M54.5 108C54.5 107.448 54.9477 107 55.5 107H61.5C62.0523 107 62.5 107.448 62.5 108V112C62.5 112.552 62.0523 113 61.5 113H55.5C54.9477 113 54.5 112.552 54.5 112V108Z" fill="#25252A"/>
<path d="M55.5 78C55.5 76.3431 56.8431 75 58.5 75C60.1569 75 61.5 76.3431 61.5 78V110C61.5 111.657 60.1569 113 58.5 113C56.8431 113 55.5 111.657 55.5 110L55.5 78Z" fill="#25252A"/>
<path d="M54.5 78C54.5 76.3431 55.8431 75 57.5 75L59.5 75C61.1569 75 62.5 76.3431 62.5 78V92C62.5 92.5523 62.0523 93 61.5 93H55.5C54.9477 93 54.5 92.5523 54.5 92V78Z" fill="#515259"/>
<path d="M54.5 78C54.5 76.3431 55.8431 75 57.5 75V93H55.5C54.9477 93 54.5 92.5523 54.5 92V78Z" fill="#25252A"/>
<path d="M74.5 108C74.5 107.448 74.9477 107 75.5 107H81.5C82.0523 107 82.5 107.448 82.5 108V112C82.5 112.552 82.0523 113 81.5 113H75.5C74.9477 113 74.5 112.552 74.5 112V108Z" fill="#25252A"/>
<path d="M75.5 78C75.5 76.3431 76.8431 75 78.5 75C80.1569 75 81.5 76.3431 81.5 78V110C81.5 111.657 80.1569 113 78.5 113C76.8431 113 75.5 111.657 75.5 110V78Z" fill="#25252A"/>
<path d="M74.5 78C74.5 76.3431 75.8431 75 77.5 75L79.5 75C81.1569 75 82.5 76.3431 82.5 78V92C82.5 92.5523 82.0523 93 81.5 93H75.5C74.9477 93 74.5 92.5523 74.5 92V78Z" fill="#515259"/>
<path d="M74.5 78C74.5 76.3431 75.8431 75 77.5 75V93H75.5C74.9477 93 74.5 92.5523 74.5 92V78Z" fill="#25252A"/>
<path d="M94.5 108C94.5 107.448 94.9477 107 95.5 107H101.5C102.052 107 102.5 107.448 102.5 108V112C102.5 112.552 102.052 113 101.5 113H95.5C94.9477 113 94.5 112.552 94.5 112V108Z" fill="#25252A"/>
<path d="M95.5 78C95.5 76.3431 96.8431 75 98.5 75C100.157 75 101.5 76.3431 101.5 78V110C101.5 111.657 100.157 113 98.5 113C96.8431 113 95.5 111.657 95.5 110V78Z" fill="#25252A"/>
<path d="M94.5 78C94.5 76.3431 95.8431 75 97.5 75L99.5 75C101.157 75 102.5 76.3431 102.5 78V92C102.5 92.5523 102.052 93 101.5 93H95.5C94.9477 93 94.5 92.5523 94.5 92V78Z" fill="#515259"/>
<path d="M94.5 78C94.5 76.3431 95.8431 75 97.5 75V93H95.5C94.9477 93 94.5 92.5523 94.5 92V78Z" fill="#25252A"/>
<path fill-rule="evenodd" clip-rule="evenodd" d="M40.8043 32.5543C44.3948 27.7969 50.0097 25 55.9699 25H79.5V31H55.9699C51.8918 31 48.0501 32.9136 45.5934 36.1687L33.6235 52.0288C31.921 54.2847 31 57.0339 31 59.8601V112.5H25V59.8601C25 55.7295 26.3461 51.7114 28.8344 48.4144L40.8043 32.5543Z" fill="#25252A"/>
<path fill-rule="evenodd" clip-rule="evenodd" d="M79.5151 26.4999L54.9757 26.8717C49.9606 26.9477 45.2713 29.371 42.3083 33.418L30.0902 50.1062C28.0824 52.8486 27 56.1592 27 59.558V113H25V59.558C25 55.7343 26.2177 52.0099 28.4765 48.9247L40.6946 32.2366C44.0279 27.6837 49.3034 24.9574 54.9454 24.8719L79.4849 24.5001L79.5151 26.4999Z" fill="#6F6F73"/>
<path d="M24 108C24 107.448 24.4477 107 25 107H31C31.5523 107 32 107.448 32 108V112C32 112.552 31.5523 113 31 113H25C24.4477 113 24 112.552 24 112L24 108Z" fill="#25252A"/>
<path d="M58.5 24C58.5 23.4477 58.9477 23 59.5 23L79.5 23C80.0523 23 80.5 23.4477 80.5 24V32C80.5 32.5523 80.0523 33 79.5 33H59.5C58.9477 33 58.5 32.5523 58.5 32V24Z" fill="#25252A"/>
<path d="M58.5 24C58.5 23.4477 58.9477 23 59.5 23L79.5 23C80.0523 23 80.5 23.4477 80.5 24V28C80.5 28.5523 80.0523 29 79.5 29H59.5C58.9477 29 58.5 28.5523 58.5 28V24Z" fill="#38393E"/>
</g>
<defs>
<filter id="filter0_ddd_2818_45885" x="-16" y="-11" width="160" height="160" filterUnits="userSpaceOnUse" color-interpolation-filters="sRGB">
<feFlood flood-opacity="0" result="BackgroundImageFix"/>
<feColorMatrix in="SourceAlpha" type="matrix" values="0 0 0 0 0 0 0 0 0 0 0 0 0 0 0 0 0 0 127 0" result="hardAlpha"/>
<feOffset dy="1"/>
<feGaussianBlur stdDeviation="1"/>
<feColorMatrix type="matrix" values="0 0 0 0 0.309804 0 0 0 0 0.321569 0 0 0 0 0.407843 0 0 0 0.24 0"/>
<feBlend mode="normal" in2="BackgroundImageFix" result="effect1_dropShadow_2818_45885"/>
<feColorMatrix in="SourceAlpha" type="matrix" values="0 0 0 0 0 0 0 0 0 0 0 0 0 0 0 0 0 0 127 0" result="hardAlpha"/>
<feOffset dy="1"/>
<feGaussianBlur stdDeviation="4"/>
<feColorMatrix type="matrix" values="0 0 0 0 0.309804 0 0 0 0 0.321569 0 0 0 0 0.407843 0 0 0 0.08 0"/>
<feBlend mode="normal" in2="effect1_dropShadow_2818_45885" result="effect2_dropShadow_2818_45885"/>
<feColorMatrix in="SourceAlpha" type="matrix" values="0 0 0 0 0 0 0 0 0 0 0 0 0 0 0 0 0 0 127 0" result="hardAlpha"/>
<feMorphology radius="4" operator="dilate" in="SourceAlpha" result="effect3_dropShadow_2818_45885"/>
<feOffset dy="1"/>
<feGaussianBlur stdDeviation="8"/>
<feColorMatrix type="matrix" values="0 0 0 0 0.309804 0 0 0 0 0.321569 0 0 0 0 0.407843 0 0 0 0.1 0"/>
<feBlend mode="normal" in2="effect2_dropShadow_2818_45885" result="effect3_dropShadow_2818_45885"/>
<feBlend mode="normal" in="SourceGraphic" in2="effect3_dropShadow_2818_45885" result="shape"/>
</filter>
<radialGradient id="paint0_radial_2818_45885" cx="0" cy="0" r="1" gradientUnits="userSpaceOnUse" gradientTransform="translate(72.0764 52.375) rotate(94.3226) scale(44.5016 39.8607)">
<stop stop-color="#C6C6C6"/>
<stop offset="1" stop-color="#38393E"/>
</radialGradient>
<radialGradient id="paint1_radial_2818_45885" cx="0" cy="0" r="1" gradientUnits="userSpaceOnUse" gradientTransform="translate(75.5 54.5) rotate(94.8304) scale(35.6265)">
<stop stop-color="#C6C6C6"/>
<stop offset="1" stop-color="#38393E"/>
</radialGradient>
<clipPath id="clip0_2818_45885">
<rect x="32.5" y="31" width="72" height="72" rx="36" fill="white"/>
</clipPath>
</defs>
</svg>
