<?xml version="1.0" standalone="no"?>
<!DOCTYPE svg PUBLIC "-//W3C//DTD SVG 20010904//EN"
 "http://www.w3.org/TR/2001/REC-SVG-20010904/DTD/svg10.dtd">
<svg version="1.0" xmlns="http://www.w3.org/2000/svg"
 width="500.000000pt" height="500.000000pt" viewBox="0 0 500.000000 500.000000"
 preserveAspectRatio="xMidYMid meet">

<g transform="translate(0.000000,500.000000) scale(0.100000,-0.100000)"
fill="#000000" stroke="none">
<path d="M2390 4494 c-14 -2 -59 -9 -100 -15 -419 -62 -800 -389 -940 -807
-49 -148 -60 -238 -60 -512 l0 -247 -57 -21 c-119 -44 -234 -164 -279 -289
l-24 -68 0 -816 c0 -717 2 -822 16 -870 47 -162 182 -290 349 -334 52 -13 208
-15 1205 -15 997 0 1153 2 1205 15 167 44 302 172 349 334 14 48 16 153 16
870 l0 816 -24 68 c-45 125 -160 245 -278 289 l-58 21 0 216 c0 119 -5 255
-10 301 -64 522 -457 948 -964 1045 -80 16 -298 28 -346 19z m274 -499 c202
-43 391 -195 486 -390 62 -127 71 -180 77 -442 l6 -233 -733 0 -732 0 5 238
c3 130 11 260 17 287 21 93 103 244 170 318 101 110 242 193 375 222 81 18
245 18 329 0z m73 -1324 c354 -88 635 -367 729 -726 37 -140 39 -347 6 -480
-76 -301 -305 -571 -582 -685 -140 -58 -230 -75 -395 -74 -128 1 -164 5 -245
26 -433 116 -725 479 -747 928 -3 67 -1 146 6 188 66 424 390 756 816 836 107
21 301 14 412 -13z"/>
<path d="M2378 2610 c-261 -42 -496 -186 -636 -392 -50 -72 -109 -204 -133
-293 -29 -104 -31 -314 -5 -420 80 -333 305 -578 621 -678 251 -79 513 -47
748 90 107 63 245 201 311 311 151 252 171 563 55 836 -109 256 -350 461 -621
526 -97 23 -258 33 -340 20z m262 -276 c104 -24 203 -77 280 -151 70 -65 84
-95 58 -121 -20 -20 -38 -14 -76 29 -47 52 -151 120 -226 148 -86 32 -193 38
-293 16 -45 -10 -89 -15 -97 -12 -19 8 -21 50 -3 65 46 38 244 53 357 26z
m-529 -154 c30 -17 23 -46 -26 -106 -98 -120 -117 -183 -124 -413 -6 -171 -7
-185 -27 -197 -17 -12 -23 -12 -40 0 -43 32 -27 359 24 490 31 78 106 194 144
221 27 18 24 18 49 5z m425 -26 c9 -35 -5 -46 -77 -56 -127 -17 -239 -95 -295
-205 l-29 -58 -5 -275 c-3 -151 -9 -281 -13 -287 -10 -16 -49 -17 -65 -1 -19
19 -17 487 3 561 34 130 126 247 238 301 71 35 105 44 179 45 54 1 58 -1 64
-25z m230 -52 c93 -68 155 -165 180 -281 18 -84 19 -352 2 -369 -21 -21 -58
-14 -68 14 -6 14 -10 95 -10 179 0 132 -3 162 -21 210 -27 71 -71 130 -137
179 -49 37 -66 69 -45 89 15 16 63 5 99 -21z m-144 -111 c61 -29 124 -94 145
-150 16 -40 18 -83 18 -345 0 -274 -1 -300 -17 -310 -13 -8 -23 -8 -35 0 -16
10 -18 39 -23 305 -5 288 -5 295 -29 336 -32 55 -83 90 -151 103 -54 10 -70
21 -70 51 0 45 79 51 162 10z m-248 -37 c22 -21 20 -41 -5 -62 -11 -9 -33 -37
-47 -62 -24 -40 -28 -57 -32 -169 -4 -104 -8 -126 -22 -135 -13 -8 -23 -8 -35
0 -16 10 -18 29 -18 150 0 125 2 143 22 179 27 48 49 75 83 98 30 21 35 21 54
1z m734 -89 c20 -60 28 -412 10 -445 -17 -31 -40 -36 -62 -15 -14 14 -16 45
-16 203 0 103 -5 205 -10 226 -12 52 2 78 38 74 22 -2 30 -11 40 -43z m-574
-101 c12 -30 7 -259 -6 -272 -17 -17 -55 -15 -62 4 -8 20 -8 248 0 268 4 9 18
16 34 16 16 0 30 -7 34 -16z m-261 -367 c26 -18 21 -194 -5 -211 -13 -8 -23
-8 -35 0 -27 17 -32 193 -6 211 9 7 20 13 23 13 3 0 14 -6 23 -13z m256 -21
c8 -9 11 -61 9 -161 -3 -128 -5 -149 -20 -159 -13 -8 -23 -8 -35 0 -16 10 -18
31 -21 159 -3 152 2 175 38 175 10 0 23 -6 29 -14z" fill="green"/>
</g>
</svg>
