<?xml version="1.0" encoding="UTF-8" standalone="no"?>
<!DOCTYPE svg PUBLIC "-//W3C//DTD SVG 1.1//EN" "http://www.w3.org/Graphics/SVG/1.1/DTD/svg11.dtd">
<svg width="100%" height="100%" viewBox="0 0 256 256" version="1.1" xmlns="http://www.w3.org/2000/svg" xmlns:xlink="http://www.w3.org/1999/xlink" xml:space="preserve" xmlns:serif="http://www.serif.com/" style="fill-rule:evenodd;clip-rule:evenodd;stroke-linejoin:round;stroke-miterlimit:2;">
    <g transform="matrix(0.941471,0,0,0.819572,6.00979,21.6867)">
        <path d="M60.591,255.449C60.14,255.266 54.458,251.435 52.235,247.094C41.396,225.923 39.015,210.606 35.965,190.01C33.127,170.84 32.056,145.191 31.986,140.664C31.925,136.645 32.038,114.225 32.128,112.282C33.294,87.087 35.195,58.96 43.124,30.626C46.989,16.813 53.297,7.301 54.964,5.362C58.505,1.242 61.345,0.098 63.824,-0.026C65.867,-0.127 67.736,-0.411 76.602,0.886C90.359,2.898 104.059,9.13 114.597,18.195C119.037,22.014 123.098,26.27 127.228,30.4L146.716,49.885L176.649,79.822C181.826,85.001 187.854,90.761 192.784,96.052L256,96.003L256,159.959C242.712,159.846 199.426,160.085 192.71,160.085C187.589,165.076 182.381,170.509 177.29,175.6L139.672,213.217L126.26,226.631C119.387,233.517 113.9,239.306 105.487,244.455C97.968,249.057 90.981,251.856 82.446,254.047C75.273,255.888 64.803,256.315 64.507,256.309C62.12,256.257 61.324,255.746 60.591,255.449Z" style="fill:url(#_Linear1);fill-rule:nonzero;stroke:#fff;stroke-width:7.93px;"/>
    </g>
    <g transform="matrix(1.12077,0,0,0.956791,-1.84538,64.7433)">
        <rect x="9.503" y="57.837" width="13.806" height="13.806" style="fill:#605fb3;stroke:#fff;stroke-width:4.32px;stroke-linecap:round;stroke-miterlimit:1.5;"/>
    </g>
    <g transform="matrix(1.12077,0,0,0.956791,-1.84538,37.5717)">
        <rect x="9.503" y="57.837" width="13.806" height="13.806" style="fill:#605fb3;stroke:#fff;stroke-width:4.32px;stroke-linecap:round;stroke-miterlimit:1.5;"/>
    </g>
    <g transform="matrix(1.12077,0,0,0.956791,113.833,37.5801)">
        <rect x="9.503" y="57.837" width="13.806" height="13.806" style="fill:#605fb3;"/>
    </g>
    <g transform="matrix(1.12077,0,0,0.956791,113.833,91.7629)">
        <rect x="9.503" y="57.837" width="13.806" height="13.806" style="fill:#46449e;"/>
    </g>
    <g transform="matrix(1.12077,0,0,0.956791,-1.84538,91.8326)">
        <rect x="9.503" y="57.837" width="13.806" height="13.806" style="fill:#605fb3;stroke:#fff;stroke-width:4.32px;stroke-linecap:round;stroke-miterlimit:1.5;"/>
    </g>
    <g transform="matrix(1.59882,0,0,2.32119,9.94299,-86.3106)">
        <ellipse cx="35.405" cy="91.762" rx="19.324" ry="45.263" style="fill:url(#_Linear2);stroke:#fff;stroke-width:3.51px;stroke-linecap:round;stroke-miterlimit:1.5;"/>
    </g>
    <g transform="matrix(1.12077,0,0,0.956791,48.4151,10.3712)">
        <rect x="9.503" y="57.837" width="13.806" height="13.806" style="fill:#46449e;"/>
    </g>
    <g transform="matrix(1.12077,0,0,0.956791,48.4151,118.938)">
        <rect x="9.503" y="57.837" width="13.806" height="13.806" style="fill:#343377;"/>
    </g>
    <g transform="matrix(1.12077,0,0,0.956791,48.4151,64.7433)">
        <rect x="9.503" y="57.837" width="13.806" height="13.806" style="fill:url(#_Linear3);"/>
    </g>
    <g transform="matrix(1.12077,0,0,0.956791,145.703,64.7433)">
        <rect x="9.503" y="57.837" width="13.806" height="13.806" style="fill:url(#_Linear4);"/>
    </g>
    <g transform="matrix(1.12077,0,0,0.956791,194.703,64.7433)">
        <rect x="9.503" y="57.837" width="13.806" height="13.806" style="fill:url(#_Linear5);"/>
    </g>
    <defs>
        <linearGradient id="_Linear1" x1="0" y1="0" x2="1" y2="0" gradientUnits="userSpaceOnUse" gradientTransform="matrix(1.60861e-14,257.627,-305.689,1.83561e-14,65.0082,-0.710622)"><stop offset="0" style="stop-color:#dbdbea;stop-opacity:1"/><stop offset="1" style="stop-color:#8484b1;stop-opacity:1"/></linearGradient>
        <linearGradient id="_Linear2" x1="0" y1="0" x2="1" y2="0" gradientUnits="userSpaceOnUse" gradientTransform="matrix(9.4924e-15,91.156,-155.023,5.58169e-15,34.8655,46.1318)"><stop offset="0" style="stop-color:#b4b4d8;stop-opacity:1"/><stop offset="1" style="stop-color:#5e5eab;stop-opacity:1"/></linearGradient>
        <linearGradient id="_Linear3" x1="0" y1="0" x2="1" y2="0" gradientUnits="userSpaceOnUse" gradientTransform="matrix(8.54878e-16,-13.9612,13.9612,8.54878e-16,15.7701,71.5269)"><stop offset="0" style="stop-color:#343377;stop-opacity:1"/><stop offset="1" style="stop-color:#6664bd;stop-opacity:1"/></linearGradient>
        <linearGradient id="_Linear4" x1="0" y1="0" x2="1" y2="0" gradientUnits="userSpaceOnUse" gradientTransform="matrix(8.54878e-16,-13.9612,13.9612,8.54878e-16,15.7701,71.5269)"><stop offset="0" style="stop-color:#343377;stop-opacity:1"/><stop offset="1" style="stop-color:#6664bd;stop-opacity:1"/></linearGradient>
        <linearGradient id="_Linear5" x1="0" y1="0" x2="1" y2="0" gradientUnits="userSpaceOnUse" gradientTransform="matrix(8.54878e-16,-13.9612,13.9612,8.54878e-16,15.7701,71.5269)"><stop offset="0" style="stop-color:#343377;stop-opacity:1"/><stop offset="1" style="stop-color:#6664bd;stop-opacity:1"/></linearGradient>
    </defs>
</svg>
