<svg width="121" height="128" viewBox="0 0 121 128" fill="none" xmlns="http://www.w3.org/2000/svg">
<g filter="url(#filter0_ddd_2818_45662)">
<path d="M95.9997 39C88.7026 29.2844 77.0848 23 63.9993 23C50.9139 23 39.2961 29.2844 31.999 39H32.002V95C32.002 99.4183 35.5834 103 40.0013 103H87.9974C92.4153 103 95.9967 99.4183 95.9967 95C95.9967 95 96.5 39 95.9967 39" stroke="white" stroke-width="8"/>
<path d="M41.4986 35.7288H43.4986V33.7288V27C43.4986 23.6864 40.8126 21 37.4989 21H27.9997C24.686 21 22 23.6864 22 27V98.9273C22 102.168 24.5172 105.103 28.0319 105H40.1415H42.1415V103V98.9273V96.9273H40.1415H29.9997V29H35.4989V33.7288V35.7288H37.4989H41.4986Z" fill="#25252A" stroke="white" stroke-width="4"/>
<path fill-rule="evenodd" clip-rule="evenodd" d="M27.9997 23C25.7907 23 24 24.7909 24 27V98.9273C24 101.192 25.7362 103.081 27.9997 103H40.0016H40.1415H87.9977C92.4156 103 95.9971 99.4183 95.9971 95V39H96C88.7029 29.2844 77.0851 23 63.9997 23C55.6561 23 47.9092 25.555 41.4986 29.9254V27C41.4986 24.7909 39.7079 23 37.4989 23H27.9997ZM37.4989 33.0395V27H27.9997V98.9273H33.0309C32.376 97.7672 32.0023 96.4272 32.0023 95V39H31.9993C33.6279 36.8317 35.4717 34.8343 37.4989 33.0395Z" fill="#25252A"/>
<path d="M87 41.8831C86.9979 28.5 73.4051 23 64 23C54.5949 23 41 29.5 41 41.8831H41.0021V96.5584C41.0021 100.116 43.5762 103 46.7516 103H81.2484C84.4238 103 86.9979 100.116 86.9979 96.5584V41.8831H87Z" fill="#6F6F73"/>
<path d="M80 41.8831C79.9985 28.5 70.2471 23 63.5 23C56.7529 23 47 29.5 47 41.8831H47.0015V96.5584C47.0015 100.116 48.8482 103 51.1261 103H75.8739C78.1518 103 79.9985 100.116 79.9985 96.5584V41.8831H80Z" fill="#515259"/>
<rect x="31.9993" y="39" width="63.9948" height="60" fill="white" fill-opacity="0.2"/>
</g>
<defs>
<filter id="filter0_ddd_2818_45662" x="-20" y="-16" width="160" height="160" filterUnits="userSpaceOnUse" color-interpolation-filters="sRGB">
<feFlood flood-opacity="0" result="BackgroundImageFix"/>
<feColorMatrix in="SourceAlpha" type="matrix" values="0 0 0 0 0 0 0 0 0 0 0 0 0 0 0 0 0 0 127 0" result="hardAlpha"/>
<feOffset dy="1"/>
<feGaussianBlur stdDeviation="1"/>
<feColorMatrix type="matrix" values="0 0 0 0 0.309804 0 0 0 0 0.321569 0 0 0 0 0.407843 0 0 0 0.24 0"/>
<feBlend mode="normal" in2="BackgroundImageFix" result="effect1_dropShadow_2818_45662"/>
<feColorMatrix in="SourceAlpha" type="matrix" values="0 0 0 0 0 0 0 0 0 0 0 0 0 0 0 0 0 0 127 0" result="hardAlpha"/>
<feOffset dy="1"/>
<feGaussianBlur stdDeviation="4"/>
<feColorMatrix type="matrix" values="0 0 0 0 0.309804 0 0 0 0 0.321569 0 0 0 0 0.407843 0 0 0 0.08 0"/>
<feBlend mode="normal" in2="effect1_dropShadow_2818_45662" result="effect2_dropShadow_2818_45662"/>
<feColorMatrix in="SourceAlpha" type="matrix" values="0 0 0 0 0 0 0 0 0 0 0 0 0 0 0 0 0 0 127 0" result="hardAlpha"/>
<feMorphology radius="4" operator="dilate" in="SourceAlpha" result="effect3_dropShadow_2818_45662"/>
<feOffset dy="1"/>
<feGaussianBlur stdDeviation="8"/>
<feColorMatrix type="matrix" values="0 0 0 0 0.309804 0 0 0 0 0.321569 0 0 0 0 0.407843 0 0 0 0.1 0"/>
<feBlend mode="normal" in2="effect2_dropShadow_2818_45662" result="effect3_dropShadow_2818_45662"/>
<feBlend mode="normal" in="SourceGraphic" in2="effect3_dropShadow_2818_45662" result="shape"/>
</filter>
</defs>
</svg>
