<svg xmlns="http://www.w3.org/2000/svg" width="600" height="600" viewBox="280 160 480 580">
  <!-- Teal check mark -->
  <path
    d="M733.5 281.865C731.85 282.887 723.766 290.648 715.535 299.112C707.305 307.575 658.48 357.242 607.035 409.483C555.591 461.724 497.871 520.221 478.769 539.476C444.437 574.084 444.01 574.469 441.616 572.993C440.285 572.172 421.445 555.75 399.751 536.5C378.057 517.25 355.195 497 348.946 491.5C342.698 486 333.291 477.721 328.043 473.102C322.794 468.483 316.745 463.42 314.6 461.852C311.978 459.934 309.489 459 307.005 459C304.753 459 302.694 459.684 301.733 460.75C300.866 461.712 299.857 463.698 299.492 465.161C299.063 466.878 299.511 469.361 300.753 472.161C301.813 474.548 310.091 487.525 319.149 501C328.208 514.475 346.425 541.475 359.631 561C372.838 580.525 397.709 617.425 414.9 643C432.092 668.575 447.949 691.16 450.14 693.19C452.33 695.219 456.403 697.637 459.192 698.564C462.637 699.708 465.854 700.059 469.233 699.659C471.968 699.335 476.176 697.915 478.586 696.503C480.995 695.091 484.093 692.488 485.469 690.718C486.846 688.948 499.072 671.3 512.639 651.5C526.205 631.7 556.206 587.6 579.306 553.5C602.407 519.4 627.392 482.5 634.828 471.5C642.264 460.5 652.927 444.75 658.522 436.5C664.118 428.25 686.783 394.368 708.89 361.206C730.996 328.044 749.514 299.777 750.042 298.391C750.569 297.004 750.997 294.212 750.993 292.185C750.99 290.158 750.117 287.18 749.054 285.567C747.99 283.955 746.081 282.058 744.81 281.353C743.54 280.648 741.15 280.057 739.5 280.039C737.85 280.022 735.15 280.844 733.5 281.865Z"
    fill="#15ae9f"
  />

  <!-- Orange lightning bolt -->
  <path
    d="M448.277 181.973C446.024 183.347 443.802 186.431 440.897 192.219C438.611 196.774 431.021 211.3 424.03 224.5C417.039 237.7 401.418 268.3 389.318 292.5C377.218 316.7 358.437 353.749 347.583 374.83C336.729 395.912 327.625 414.587 327.353 416.33C327.048 418.277 327.432 420.272 328.347 421.5C329.797 423.445 331.302 423.514 383.397 424L436.956 424.5 439.618 427.163L442.28 429.825 434.715 460.663C430.554 477.623 425.266 499.782 422.963 509.905C419.171 526.573 418.892 528.696 420.002 532.4C420.7 534.73 423.007 538.268 425.364 540.621C428.56 543.812 430.775 545.036 435.108 546.003C439.944 547.082 441.407 547.025 445.732 545.589C450.348 544.056 457.624 537.038 537.123 457.437C584.631 409.87 623.637 370.329 623.805 369.569C623.973 368.809 623.523 367.807 622.805 367.343C622.087 366.879 603.884 366.275 582.353 366C545.654 365.531 543.075 365.381 541.103 363.595C539.947 362.547 539 361.068 539 360.309C539 359.549 547.473 346.231 557.829 330.714C568.185 315.196 594.227 276.823 615.701 245.44C637.175 214.057 655.05 187.418 655.423 186.241C655.893 184.762 655.47 183.47 654.051 182.051C652.01 180.01 651.503 180 551.75 180.004C453.853 180.007 451.424 180.054 448.277 181.973Z"
    fill="#db4f12"
  />
</svg>
